<?xml version="1.0" encoding="utf-8"?>
<!-- Generator: Adobe Illustrator 21.1.0, SVG Export Plug-In . SVG Version: 6.00 Build 0)  -->
<svg version="1.1" id="Layer_1" xmlns="http://www.w3.org/2000/svg" xmlns:xlink="http://www.w3.org/1999/xlink" x="0px" y="0px"
	 viewBox="0 0 1792 1792" style="enable-background:new 0 0 1792 1792;" xml:space="preserve">
<style type="text/css">
	.st0{fill:#FFC000;}
</style>
<path class="st0" d="M960,256c0-17.3-6.3-32.3-19-45s-27.7-19-45-19s-32.3,6.3-45,19s-19,27.7-19,45s6.3,32.3,19,45s27.7,19,45,19
	s32.3-6.3,45-19S960,273.3,960,256z M1792,1184v352c0,14.7-6.7,24.7-20,30c-5.3,1.3-9.3,2-12,2c-8.7,0-16.3-3-23-9l-93-93
	c-79.3,95.3-185.5,170.8-318.5,226.5S1049.3,1776,896,1776s-296.5-27.8-429.5-83.5S227.3,1561.3,148,1466l-93,93c-6,6-13.7,9-23,9
	c-2.7,0-6.7-0.7-12-2c-13.3-5.3-20-15.3-20-30v-352c0-9.3,3-17,9-23s13.7-9,23-9h352c14.7,0,24.7,6.7,30,20c5.3,12.7,3,24.3-7,35
	l-100,100c44.7,60.7,107.8,111.8,189.5,153.5s172.2,69.2,271.5,82.5V896H576c-17.3,0-32.3-6.3-45-19s-19-27.7-19-45V704
	c0-17.3,6.3-32.3,19-45s27.7-19,45-19h192V477c-38.7-22.7-69.7-53.5-93-92.5s-35-81.8-35-128.5c0-70.7,25-131,75-181S825.3,0,896,0
	s131,25,181,75s75,110.3,75,181c0,46.7-11.7,89.5-35,128.5s-54.3,69.8-93,92.5v163h192c17.3,0,32.3,6.3,45,19s19,27.7,19,45v128
	c0,17.3-6.3,32.3-19,45s-27.7,19-45,19h-192v647c99.3-13.3,189.8-40.8,271.5-82.5s144.8-92.8,189.5-153.5l-100-100
	c-10-10.7-12.3-22.3-7-35c5.3-13.3,15.3-20,30-20h352c9.3,0,17,3,23,9S1792,1174.7,1792,1184z"/>
</svg>
