<?xml version="1.0" encoding="utf-8"?>
<!-- Generator: Adobe Illustrator 21.1.0, SVG Export Plug-In . SVG Version: 6.00 Build 0)  -->
<svg version="1.1" id="Layer_1" xmlns="http://www.w3.org/2000/svg" xmlns:xlink="http://www.w3.org/1999/xlink" x="0px" y="0px"
	 viewBox="0 0 1792 1792" style="enable-background:new 0 0 1792 1792;" xml:space="preserve">
<style type="text/css">
	.st0{fill:#FFC000;}
</style>
<path class="st0" d="M1675,832c0,35.3-12.3,65.3-37,90l-651,652c-26,24.7-56.3,37-91,37c-35.3,0-65.3-12.3-90-37L155,922
	c-25.3-24-38-54-38-90c0-35.3,12.7-65.7,38-91l74-75c26-24.7,56.3-37,91-37c35.3,0,65.3,12.3,90,37l294,294V256
	c0-34.7,12.7-64.7,38-90s55.3-38,90-38h128c34.7,0,64.7,12.7,90,38s38,55.3,38,90v704l294-294c24.7-24.7,54.7-37,90-37
	c34.7,0,65,12.3,91,37l75,75C1662.7,767,1675,797.3,1675,832z"/>
</svg>
