<?xml version="1.0" encoding="utf-8"?>
<!-- Generator: Adobe Illustrator 21.1.0, SVG Export Plug-In . SVG Version: 6.00 Build 0)  -->
<svg version="1.1" id="Layer_1" xmlns="http://www.w3.org/2000/svg" xmlns:xlink="http://www.w3.org/1999/xlink" x="0px" y="0px"
	 viewBox="0 0 1792 1792" style="enable-background:new 0 0 1792 1792;" xml:space="preserve">
<style type="text/css">
	.st0{fill:#FFC000;}
</style>
<path class="st0" d="M1664,896v128c0,35.3-10.8,65.5-32.5,90.5s-49.8,37.5-84.5,37.5H843l293,294c25.3,24,38,54,38,90
	s-12.7,66-38,90l-75,76c-24.7,24.7-54.7,37-90,37c-34.7,0-65-12.3-91-37l-651-652c-24.7-24.7-37-54.7-37-90c0-34.7,12.3-65,37-91
	l651-650c25.3-25.3,55.7-38,91-38c34.7,0,64.7,12.7,90,38l75,74c25.3,25.3,38,55.7,38,91s-12.7,65.7-38,91L843,768h704
	c34.7,0,62.8,12.5,84.5,37.5S1664,860.7,1664,896z"/>
</svg>
