<?xml version="1.0" encoding="utf-8"?>
<!-- Generator: Adobe Illustrator 21.1.0, SVG Export Plug-In . SVG Version: 6.00 Build 0)  -->
<svg version="1.1" id="Layer_1" xmlns="http://www.w3.org/2000/svg" xmlns:xlink="http://www.w3.org/1999/xlink" x="0px" y="0px"
	 viewBox="0 0 1792 1792" style="enable-background:new 0 0 1792 1792;" xml:space="preserve">
<style type="text/css">
	.st0{fill:#FFC000;}
</style>
<path class="st0" d="M1411,541l-355,355l355,355l144-144c19.3-20.7,42.7-25.3,70-14c26,11.3,39,31,39,59v448c0,17.3-6.3,32.3-19,45
	s-27.7,19-45,19h-448c-28,0-47.7-13.3-59-40c-11.3-26-6.7-49,14-69l144-144l-355-355l-355,355l144,144c20.7,20,25.3,43,14,69
	c-11.3,26.7-31,40-59,40H192c-17.3,0-32.3-6.3-45-19s-19-27.7-19-45v-448c0-28,13.3-47.7,40-59c26-11.3,49-6.7,69,14l144,144
	l355-355L381,541L237,685c-12.7,12.7-27.7,19-45,19c-8,0-16-1.7-24-5c-26.7-11.3-40-31-40-59V192c0-17.3,6.3-32.3,19-45
	s27.7-19,45-19h448c28,0,47.7,13.3,59,40c11.3,26,6.7,49-14,69L541,381l355,355l355-355l-144-144c-20.7-20-25.3-43-14-69
	c11.3-26.7,31-40,59-40h448c17.3,0,32.3,6.3,45,19s19,27.7,19,45v448c0,28-13,47.7-39,59c-8.7,3.3-17,5-25,5c-17.3,0-32.3-6.3-45-19
	L1411,541z"/>
</svg>
