<?xml version="1.0" encoding="utf-8"?>
<!-- Generator: Adobe Illustrator 21.1.0, SVG Export Plug-In . SVG Version: 6.00 Build 0)  -->
<svg version="1.1" id="Layer_1" xmlns="http://www.w3.org/2000/svg" xmlns:xlink="http://www.w3.org/1999/xlink" x="0px" y="0px"
	 viewBox="0 0 1792 1792" style="enable-background:new 0 0 1792 1792;" xml:space="preserve">
<style type="text/css">
	.st0{fill:#FFC000;}
</style>
<path class="st0" d="M1280,800v192c0,8.7-3.2,16.2-9.5,22.5s-13.8,9.5-22.5,9.5H896v192c0,9.3-3,17-9,23s-13.7,9-23,9
	c-8,0-16-3.3-24-10L521,919c-6-6-9-13.7-9-23s3-17,9-23l320-320c6-6,13.7-9,23-9c8.7,0,16.2,3.2,22.5,9.5s9.5,13.8,9.5,22.5v192h352
	c8.7,0,16.2,3.2,22.5,9.5S1280,791.3,1280,800z M1440,896c0-98.7-24.3-189.7-73-273s-114.7-149.3-198-198s-174.3-73-273-73
	s-189.7,24.3-273,73S473.7,539.7,425,623s-73,174.3-73,273s24.3,189.7,73,273s114.7,149.3,198,198s174.3,73,273,73
	s189.7-24.3,273-73s149.3-114.7,198-198S1440,994.7,1440,896z M1664,896c0,139.3-34.3,267.8-103,385.5s-161.8,210.8-279.5,279.5
	s-246.2,103-385.5,103s-267.8-34.3-385.5-103S299.7,1399.2,231,1281.5S128,1035.3,128,896s34.3-267.8,103-385.5
	S392.8,299.7,510.5,231S756.7,128,896,128s267.8,34.3,385.5,103s210.8,161.8,279.5,279.5S1664,756.7,1664,896z"/>
</svg>
