<?xml version="1.0" encoding="utf-8"?>
<!-- Generator: Adobe Illustrator 21.1.0, SVG Export Plug-In . SVG Version: 6.00 Build 0)  -->
<svg version="1.1" id="Layer_1" xmlns="http://www.w3.org/2000/svg" xmlns:xlink="http://www.w3.org/1999/xlink" x="0px" y="0px"
	 viewBox="0 0 1792 1792" style="enable-background:new 0 0 1792 1792;" xml:space="preserve">
<style type="text/css">
	.st0{fill:#FFC000;}
</style>
<path class="st0" d="M1472,448l-384,704h768L1472,448z M192,448l-384,704h768L192,448z M1013,256c-9.3,26.7-24.5,50.5-45.5,71.5
	S922.7,363.7,896,373v1291h608c9.3,0,17,3,23,9s9,13.7,9,23v64c0,9.3-3,17-9,23s-13.7,9-23,9H160c-9.3,0-17-3-23-9s-9-13.7-9-23v-64
	c0-9.3,3-17,9-23s13.7-9,23-9h608V373c-26.7-9.3-50.5-24.5-71.5-45.5S660.3,282.7,651,256H160c-9.3,0-17-3-23-9s-9-13.7-9-23v-64
	c0-9.3,3-17,9-23s13.7-9,23-9h491c14-38,37.3-68.8,70-92.5S790.7,0,832,0s78.3,11.8,111,35.5s56,54.5,70,92.5h491c9.3,0,17,3,23,9
	s9,13.7,9,23v64c0,9.3-3,17-9,23s-13.7,9-23,9H1013z M832,272c22,0,40.8-7.8,56.5-23.5S912,214,912,192s-7.8-40.8-23.5-56.5
	S854,112,832,112s-40.8,7.8-56.5,23.5S752,170,752,192s7.8,40.8,23.5,56.5S810,272,832,272z M1920,1152c0,48.7-15.5,92.3-46.5,131
	s-70.2,69-117.5,91s-95.5,38.5-144.5,49.5S1516,1440,1472,1440s-90.5-5.5-139.5-16.5s-97.2-27.5-144.5-49.5s-86.5-52.3-117.5-91
	s-46.5-82.3-46.5-131c0-7.3,11.7-34.3,35-81s54-104.8,92-174.5s73.7-134.8,107-195.5s67.3-122,102-184s53.3-95.3,56-100
	c12-22,30.7-33,56-33s44,11,56,33c2.7,4.7,21.3,38,56,100s68.7,123.3,102,184s69,125.8,107,195.5s68.7,127.8,92,174.5
	S1920,1144.7,1920,1152z M640,1152c0,48.7-15.5,92.3-46.5,131s-70.2,69-117.5,91s-95.5,38.5-144.5,49.5S236,1440,192,1440
	s-90.5-5.5-139.5-16.5S-44.7,1396-92,1374s-86.5-52.3-117.5-91s-46.5-82.3-46.5-131c0-7.3,11.7-34.3,35-81s54-104.8,92-174.5
	S-55.3,761.7-22,701S45.3,579,80,517s53.3-95.3,56-100c12-22,30.7-33,56-33s44,11,56,33c2.7,4.7,21.3,38,56,100s68.7,123.3,102,184
	s69,125.8,107,195.5s68.7,127.8,92,174.5S640,1144.7,640,1152z"/>
</svg>
