<?xml version="1.0" encoding="utf-8"?>
<!-- Generator: Adobe Illustrator 21.1.0, SVG Export Plug-In . SVG Version: 6.00 Build 0)  -->
<svg version="1.1" id="Layer_1" xmlns="http://www.w3.org/2000/svg" xmlns:xlink="http://www.w3.org/1999/xlink" x="0px" y="0px"
	 viewBox="0 0 1792 1792" style="enable-background:new 0 0 1792 1792;" xml:space="preserve">
<style type="text/css">
	.st0{fill:#FFC000;}
</style>
<path class="st0" d="M63,1536H0V128h63V1536z M126,1535H94V128h32V1535z M220,1535h-31V128h31V1535z M377,1535h-31V128h31V1535z
	 M534,1535h-62V128h62V1535z M660,1535h-31V128h31V1535z M723,1535h-31V128h31V1535z M786,1535h-31V128h31V1535z M943,1535h-63V128
	h63V1535z M1100,1535h-63V128h63V1535z M1226,1535h-63V128h63V1535z M1352,1535h-63V128h63V1535z M1446,1535h-63V128h63V1535z
	 M1635,1535h-94V128h94V1535z M1698,1535h-32V128h32V1535z M1792,1536h-63V128h63V1536z"/>
</svg>
