<?xml version="1.0" encoding="utf-8"?>
<!-- Generator: Adobe Illustrator 21.1.0, SVG Export Plug-In . SVG Version: 6.00 Build 0)  -->
<svg version="1.1" id="Layer_1" xmlns="http://www.w3.org/2000/svg" xmlns:xlink="http://www.w3.org/1999/xlink" x="0px" y="0px"
	 viewBox="0 0 1792 1792" style="enable-background:new 0 0 1792 1792;" xml:space="preserve">
<style type="text/css">
	.st0{fill:#FFC000;}
</style>
<path class="st0" d="M1430,852c40.7,237.3,140,422.7,298,556c0,34.7-12.7,64.7-38,90s-55.3,38-90,38h-448c0,70.7-25,131-75,181
	s-110.3,75-181,75s-130.8-24.8-180.5-74.5S640.7,1607.7,640,1537L1430,852z M896,1712c10.7,0,16-5.3,16-16s-5.3-16-16-16
	c-39.3,0-73.2-14.2-101.5-42.5S752,1575.3,752,1536c0-10.7-5.3-16-16-16s-16,5.3-16,16c0,48.7,17.2,90.2,51.5,124.5
	S847.3,1712,896,1712z M1898,112c5.3,6.7,7.8,14.5,7.5,23.5s-3.8,16.5-10.5,22.5L23,1780c-6.7,5.3-14.5,7.7-23.5,7
	s-16.2-4.3-21.5-11l-84-96c-5.3-6.7-7.8-14.5-7.5-23.5s3.8-16.2,10.5-21.5l186-161c-12.7-21.3-19-43.3-19-66
	c33.3-28,63.7-57.3,91-88s55.7-70.5,85-119.5s54.2-101.8,74.5-158.5c20.3-56.7,37-125.3,50-206S384,668.7,384,576
	c0-101.3,39-195.5,117-282.5S681.3,153.7,808,135c-5.3-12.7-8-25.7-8-39c0-26.7,9.3-49.3,28-68s41.3-28,68-28s49.3,9.3,68,28
	s28,41.3,28,68c0,13.3-2.7,26.3-8,39c82.7,12,155.7,39.5,219,82.5S1315.7,313,1351,375l418-363c6.7-5.3,14.5-7.7,23.5-7
	s16.2,4.3,21.5,11L1898,112z"/>
</svg>
