<?xml version="1.0" encoding="utf-8"?>
<!-- Generator: Adobe Illustrator 21.1.0, SVG Export Plug-In . SVG Version: 6.00 Build 0)  -->
<svg version="1.1" id="Layer_1" xmlns="http://www.w3.org/2000/svg" xmlns:xlink="http://www.w3.org/1999/xlink" x="0px" y="0px"
	 viewBox="0 0 1792 1792" style="enable-background:new 0 0 1792 1792;" xml:space="preserve">
<style type="text/css">
	.st0{fill:#FFC000;}
</style>
<path class="st0" d="M1792,1408v384H0v-384c30,0,58.3-4.7,85-14s46.3-18.5,59-27.5s28.3-21.5,47-37.5c20-18,37.2-30.7,51.5-38
	c14.3-7.3,33.2-11,56.5-11s41.8,3.7,55.5,11s31.2,20,52.5,38c19.3,16.7,35,29.3,47,38s31.3,17.7,58,27s55.3,14,86,14
	c30,0,58.3-4.8,85-14.5s46-18.7,58-27s28-20.8,48-37.5c14-12.7,24.8-21.7,32.5-27s18-10.3,31-15s27.5-7,43.5-7
	c23.3,0,42.2,3.7,56.5,11s31.5,20,51.5,38c18.7,16,34.3,28.5,47,37.5s32.3,18.2,59,27.5s55,14,85,14s58.3-4.7,85-14
	s46.3-18.5,59-27.5s28.3-21.5,47-37.5c20-18,37.2-30.7,51.5-38s33.2-11,56.5-11c22.7,0,41.2,3.7,55.5,11s31.5,20,51.5,38
	c18.7,16,34.3,28.5,47,37.5s32.3,18.2,59,27.5S1762,1408,1792,1408z M1792,1088v192c-23.3,0-41.8-3.7-55.5-11s-31.2-20-52.5-38
	c-19.3-16.7-35-29.3-47-38s-31.3-17.7-58-27s-55-14-85-14c-30.7,0-59.3,4.7-86,14s-46,18.3-58,27s-27.7,21.3-47,38
	c-14.7,12.7-25.7,21.7-33,27s-17.7,10.3-31,15s-28,7-44,7c-23.3,0-42.2-3.7-56.5-11s-31.5-20-51.5-38c-19.3-16.7-35-29.3-47-38
	s-31.3-17.7-58-27s-55.3-14-86-14c-30,0-58.3,4.8-85,14.5s-46,18.7-58,27s-28,20.8-48,37.5c-14,12.7-24.8,21.7-32.5,27
	s-18,10.3-31,15s-27.5,7-43.5,7c-23.3,0-42.2-3.7-56.5-11s-31.5-20-51.5-38c-18.7-16-34.3-28.5-47-37.5s-32.3-18.2-59-27.5
	s-55-14-85-14c-30.7,0-59.3,4.7-86,14s-46,18.3-58,27s-27.7,21.3-47,38c-20,18-37.2,30.7-51.5,38s-33.2,11-56.5,11v-192
	c0-53.3,18.7-98.7,56-136s82.7-56,136-56h64V448h256v448h256V448h256v448h256V448h256v448h64c53.3,0,98.7,18.7,136,56
	S1792,1034.7,1792,1088z M512,224c0,51.3-12,90.8-36,118.5S421.3,384,384,384c-35.3,0-65.5-12.5-90.5-37.5S256,291.3,256,256
	c0-19.3,3.2-36.3,9.5-51s14.2-26,23.5-34s19.7-17.3,31-28s21.7-21.2,31-31.5s17.2-25.2,23.5-44.5S384,25.3,384,0
	c25.3,0,53,24.7,83,74S512,173.3,512,224z M1024,224c0,51.3-12,90.8-36,118.5S933.3,384,896,384c-35.3,0-65.5-12.5-90.5-37.5
	S768,291.3,768,256c0-19.3,3.2-36.3,9.5-51s14.2-26,23.5-34s19.7-17.3,31-28s21.7-21.2,31-31.5s17.2-25.2,23.5-44.5S896,25.3,896,0
	c25.3,0,53,24.7,83,74S1024,173.3,1024,224z M1536,224c0,51.3-12,90.8-36,118.5s-54.7,41.5-92,41.5c-35.3,0-65.5-12.5-90.5-37.5
	S1280,291.3,1280,256c0-19.3,3.2-36.3,9.5-51s14.2-26,23.5-34s19.7-17.3,31-28s21.7-21.2,31-31.5s17.2-25.2,23.5-44.5
	s9.5-41.7,9.5-67c25.3,0,53,24.7,83,74S1536,173.3,1536,224z"/>
</svg>
