<?xml version="1.0" encoding="utf-8"?>
<!-- Generator: Adobe Illustrator 21.1.0, SVG Export Plug-In . SVG Version: 6.00 Build 0)  -->
<svg version="1.1" id="Layer_1" xmlns="http://www.w3.org/2000/svg" xmlns:xlink="http://www.w3.org/1999/xlink" x="0px" y="0px"
	 viewBox="0 0 1792 1792" style="enable-background:new 0 0 1792 1792;" xml:space="preserve">
<style type="text/css">
	.st0{fill:#FFC000;}
</style>
<path class="st0" d="M1007,859c5.3,42-11.5,75.7-50.5,101s-76.2,27.3-111.5,6c-26-11.3-43.8-30.7-53.5-58s-9.8-54.7-0.5-82
	s26.7-46.7,52-58c24-12,48.2-16,72.5-12s45.7,15.8,64,35.5S1007,833.7,1007,859z M1118,838c-9.3-71.3-47-126-113-164
	s-131.7-42.3-197-13c-42,18.7-75.5,48.2-100.5,88.5S671,833,673,879c2.7,60.7,28.5,112.3,77.5,155c49,42.7,104.2,61.3,165.5,56
	c60.7-5.3,111.3-33.3,152-84C1108.7,955.3,1125.3,899.3,1118,838z M1357,296c-13.3-18-32-32.8-56-44.5c-24-11.7-43.3-19-58-22
	s-38.3-7.2-71-12.5c-194-31.3-382.7-30.7-566,2c-28.7,4.7-50.7,8.7-66,12s-33.7,10.7-55,22c-21.3,11.3-38,25.7-50,43
	c20,18.7,45.3,33.8,76,45.5s55.2,19,73.5,22S632,370.3,672,375c152,19.3,301.3,19.7,448,1c42-5.3,71.8-9.3,89.5-12
	s41.8-9.8,72.5-21.5S1337.7,315.3,1357,296z M1414,1331c-5.3,17.3-10.5,42.8-15.5,76.5s-9.7,61.7-14,84s-13.8,45.7-28.5,70
	s-34,43.2-58,56.5c-57.3,32-120.5,55.8-189.5,71.5s-136.3,23-202,22s-132.8-7.2-201.5-18.5c-30.7-5.3-57.8-11.3-81.5-18
	s-49.2-15.7-76.5-27s-51.7-25.8-73-43.5s-38.7-38.2-52-61.5c-16.7-64-35.7-161.3-57-292l6-16l18-9c148.7,98.7,317.5,148,506.5,148
	s358.2-49.3,507.5-148c14,4,22,11.7,24,23s0.3,26.3-5,45S1414,1325,1414,1331z M1595,370c-17.3,111.3-54.3,329.7-111,655
	c-3.3,20-12.3,38.7-27,56s-29.2,30.7-43.5,40s-32.5,19.7-54.5,31c-168,84-371.3,113.3-610,88c-165.3-18-296.7-64.3-394-139
	c-10-8-18.5-16.8-25.5-26.5s-12.7-21.3-17-35s-7.3-25-9-34s-3.7-22.2-6-39.5s-4.2-29-5.5-35c-6-33.3-14.8-83.3-26.5-150
	c-11.7-66.7-21-120.5-28-161.5S222.7,529.3,214,472s-16-110-22-158c2-17.3,7.8-33.5,17.5-48.5S229.7,238,241,228s26.3-20,45-30
	s34-17.5,46-22.5s28-11.2,48-18.5c83.3-30.7,187.7-52,313-64c252.7-24.7,478-8,676,50c103.3,30.7,175,71.3,215,122
	c10.7,13.3,16.2,30.3,16.5,51S1599,354.7,1595,370z"/>
</svg>
