<?xml version="1.0" encoding="utf-8"?>
<!-- Generator: Adobe Illustrator 21.1.0, SVG Export Plug-In . SVG Version: 6.00 Build 0)  -->
<svg version="1.1" id="Layer_1" xmlns="http://www.w3.org/2000/svg" xmlns:xlink="http://www.w3.org/1999/xlink" x="0px" y="0px"
	 viewBox="0 0 1792 1792" style="enable-background:new 0 0 1792 1792;" xml:space="preserve">
<style type="text/css">
	.st0{fill:#FFC000;}
</style>
<path class="st0" d="M1472,0c17.3,0,32.3,6.3,45,19s19,27.7,19,45v1664c0,17.3-6.3,32.3-19,45s-27.7,19-45,19H192
	c-17.3,0-32.3-6.3-45-19s-19-27.7-19-45V64c0-17.3,6.3-32.3,19-45s27.7-19,45-19H1472z M640,288v64c0,9.3,3,17,9,23s13.7,9,23,9h64
	c9.3,0,17-3,23-9s9-13.7,9-23v-64c0-9.3-3-17-9-23s-13.7-9-23-9h-64c-9.3,0-17,3-23,9S640,278.7,640,288z M640,544v64
	c0,9.3,3,17,9,23s13.7,9,23,9h64c9.3,0,17-3,23-9s9-13.7,9-23v-64c0-9.3-3-17-9-23s-13.7-9-23-9h-64c-9.3,0-17,3-23,9
	S640,534.7,640,544z M640,800v64c0,9.3,3,17,9,23s13.7,9,23,9h64c9.3,0,17-3,23-9s9-13.7,9-23v-64c0-9.3-3-17-9-23s-13.7-9-23-9h-64
	c-9.3,0-17,3-23,9S640,790.7,640,800z M640,1056v64c0,9.3,3,17,9,23s13.7,9,23,9h64c9.3,0,17-3,23-9s9-13.7,9-23v-64
	c0-9.3-3-17-9-23s-13.7-9-23-9h-64c-9.3,0-17,3-23,9S640,1046.7,640,1056z M512,1376v-64c0-9.3-3-17-9-23s-13.7-9-23-9h-64
	c-9.3,0-17,3-23,9s-9,13.7-9,23v64c0,9.3,3,17,9,23s13.7,9,23,9h64c9.3,0,17-3,23-9S512,1385.3,512,1376z M512,1120v-64
	c0-9.3-3-17-9-23s-13.7-9-23-9h-64c-9.3,0-17,3-23,9s-9,13.7-9,23v64c0,9.3,3,17,9,23s13.7,9,23,9h64c9.3,0,17-3,23-9
	S512,1129.3,512,1120z M512,864v-64c0-9.3-3-17-9-23s-13.7-9-23-9h-64c-9.3,0-17,3-23,9s-9,13.7-9,23v64c0,9.3,3,17,9,23
	s13.7,9,23,9h64c9.3,0,17-3,23-9S512,873.3,512,864z M512,608v-64c0-9.3-3-17-9-23s-13.7-9-23-9h-64c-9.3,0-17,3-23,9s-9,13.7-9,23
	v64c0,9.3,3,17,9,23s13.7,9,23,9h64c9.3,0,17-3,23-9S512,617.3,512,608z M512,352v-64c0-9.3-3-17-9-23s-13.7-9-23-9h-64
	c-9.3,0-17,3-23,9s-9,13.7-9,23v64c0,9.3,3,17,9,23s13.7,9,23,9h64c9.3,0,17-3,23-9S512,361.3,512,352z M1024,1632v-192
	c0-9.3-3-17-9-23s-13.7-9-23-9H672c-9.3,0-17,3-23,9s-9,13.7-9,23v192c0,9.3,3,17,9,23s13.7,9,23,9h320c9.3,0,17-3,23-9
	S1024,1641.3,1024,1632z M1024,1120v-64c0-9.3-3-17-9-23s-13.7-9-23-9h-64c-9.3,0-17,3-23,9s-9,13.7-9,23v64c0,9.3,3,17,9,23
	s13.7,9,23,9h64c9.3,0,17-3,23-9S1024,1129.3,1024,1120z M1024,864v-64c0-9.3-3-17-9-23s-13.7-9-23-9h-64c-9.3,0-17,3-23,9
	s-9,13.7-9,23v64c0,9.3,3,17,9,23s13.7,9,23,9h64c9.3,0,17-3,23-9S1024,873.3,1024,864z M1024,608v-64c0-9.3-3-17-9-23s-13.7-9-23-9
	h-64c-9.3,0-17,3-23,9s-9,13.7-9,23v64c0,9.3,3,17,9,23s13.7,9,23,9h64c9.3,0,17-3,23-9S1024,617.3,1024,608z M1024,352v-64
	c0-9.3-3-17-9-23s-13.7-9-23-9h-64c-9.3,0-17,3-23,9s-9,13.7-9,23v64c0,9.3,3,17,9,23s13.7,9,23,9h64c9.3,0,17-3,23-9
	S1024,361.3,1024,352z M1280,1376v-64c0-9.3-3-17-9-23s-13.7-9-23-9h-64c-9.3,0-17,3-23,9s-9,13.7-9,23v64c0,9.3,3,17,9,23
	s13.7,9,23,9h64c9.3,0,17-3,23-9S1280,1385.3,1280,1376z M1280,1120v-64c0-9.3-3-17-9-23s-13.7-9-23-9h-64c-9.3,0-17,3-23,9
	s-9,13.7-9,23v64c0,9.3,3,17,9,23s13.7,9,23,9h64c9.3,0,17-3,23-9S1280,1129.3,1280,1120z M1280,864v-64c0-9.3-3-17-9-23
	s-13.7-9-23-9h-64c-9.3,0-17,3-23,9s-9,13.7-9,23v64c0,9.3,3,17,9,23s13.7,9,23,9h64c9.3,0,17-3,23-9S1280,873.3,1280,864z
	 M1280,608v-64c0-9.3-3-17-9-23s-13.7-9-23-9h-64c-9.3,0-17,3-23,9s-9,13.7-9,23v64c0,9.3,3,17,9,23s13.7,9,23,9h64c9.3,0,17-3,23-9
	S1280,617.3,1280,608z M1280,352v-64c0-9.3-3-17-9-23s-13.7-9-23-9h-64c-9.3,0-17,3-23,9s-9,13.7-9,23v64c0,9.3,3,17,9,23
	s13.7,9,23,9h64c9.3,0,17-3,23-9S1280,361.3,1280,352z"/>
</svg>
