<?xml version="1.0" encoding="utf-8"?>
<!-- Generator: Adobe Illustrator 21.1.0, SVG Export Plug-In . SVG Version: 6.00 Build 0)  -->
<svg version="1.1" id="Layer_1" xmlns="http://www.w3.org/2000/svg" xmlns:xlink="http://www.w3.org/1999/xlink" x="0px" y="0px"
	 viewBox="0 0 1792 1792" style="enable-background:new 0 0 1792 1792;" xml:space="preserve">
<style type="text/css">
	.st0{fill:#FFC000;}
</style>
<path class="st0" d="M512,1216c0-35.3-12.5-65.5-37.5-90.5S419.3,1088,384,1088s-65.5,12.5-90.5,37.5S256,1180.7,256,1216
	s12.5,65.5,37.5,90.5s55.2,37.5,90.5,37.5s65.5-12.5,90.5-37.5S512,1251.3,512,1216z M1536,1216c0-35.3-12.5-65.5-37.5-90.5
	s-55.2-37.5-90.5-37.5s-65.5,12.5-90.5,37.5s-37.5,55.2-37.5,90.5s12.5,65.5,37.5,90.5s55.2,37.5,90.5,37.5s65.5-12.5,90.5-37.5
	S1536,1251.3,1536,1216z M1490,820l-72-384c-3.3-15.3-10.8-27.8-22.5-37.5S1370.3,384,1355,384H437c-15.3,0-28.8,4.8-40.5,14.5
	S377.3,420.7,374,436l-72,384c-3.3,20,1.3,37.7,14,53s29,23,49,23h1062c20,0,36.3-7.7,49-23S1493.3,840,1490,820z M1264,208
	c0-13.3-4.7-24.7-14-34s-20.7-14-34-14H576c-13.3,0-24.7,4.7-34,14s-14,20.7-14,34s4.7,24.7,14,34s20.7,14,34,14h640
	c13.3,0,24.7-4.7,34-14S1264,221.3,1264,208z M1664,933v603h-128v128c0,35.3-12.5,65.5-37.5,90.5s-55.2,37.5-90.5,37.5
	s-65.5-12.5-90.5-37.5s-37.5-55.2-37.5-90.5v-128H512v128c0,35.3-12.5,65.5-37.5,90.5S419.3,1792,384,1792s-65.5-12.5-90.5-37.5
	S256,1699.3,256,1664v-128H128V933c0-74.7,8.3-149,25-223l103-454c6-52,38.5-97.7,97.5-137s135.7-69,230-89S782,0,896,0
	s218.2,10,312.5,30s171,49.7,230,89s91.5,85,97.5,137l105,454C1656.3,778,1664,852.3,1664,933z"/>
</svg>
