<?xml version="1.0" encoding="utf-8"?>
<!-- Generator: Adobe Illustrator 21.1.0, SVG Export Plug-In . SVG Version: 6.00 Build 0)  -->
<svg version="1.1" id="Layer_1" xmlns="http://www.w3.org/2000/svg" xmlns:xlink="http://www.w3.org/1999/xlink" x="0px" y="0px"
	 viewBox="0 0 1792 1792" style="enable-background:new 0 0 1792 1792;" xml:space="preserve">
<style type="text/css">
	.st0{fill:#FFC000;}
</style>
<path class="st0" d="M1043,1086H749l147-551L1043,1086z M1129,1408h311L1116,384H676L352,1408h311l383-314L1129,1408z M1664,416v960
	c0,78.7-28.3,146.3-85,203s-124.3,85-203,85H416c-78.7,0-146.3-28.3-203-85s-85-124.3-85-203V416c0-78.7,28.3-146.3,85-203
	s124.3-85,203-85h960c78.7,0,146.3,28.3,203,85S1664,337.3,1664,416z"/>
</svg>
