<?xml version="1.0" encoding="utf-8"?>
<!-- Generator: Adobe Illustrator 21.1.0, SVG Export Plug-In . SVG Version: 6.00 Build 0)  -->
<svg version="1.1" id="Layer_1" xmlns="http://www.w3.org/2000/svg" xmlns:xlink="http://www.w3.org/1999/xlink" x="0px" y="0px"
	 viewBox="0 0 1792 1792" style="enable-background:new 0 0 1792 1792;" xml:space="preserve">
<style type="text/css">
	.st0{fill:#FFC000;}
</style>
<path class="st0" d="M192,1664h1408V640H192V1664z M576,448V160c0-9.3-3-17-9-23s-13.7-9-23-9h-64c-9.3,0-17,3-23,9s-9,13.7-9,23
	v288c0,9.3,3,17,9,23s13.7,9,23,9h64c9.3,0,17-3,23-9S576,457.3,576,448z M1344,448V160c0-9.3-3-17-9-23s-13.7-9-23-9h-64
	c-9.3,0-17,3-23,9s-9,13.7-9,23v288c0,9.3,3,17,9,23s13.7,9,23,9h64c9.3,0,17-3,23-9S1344,457.3,1344,448z M1728,384v1280
	c0,34.7-12.7,64.7-38,90s-55.3,38-90,38H192c-34.7,0-64.7-12.7-90-38s-38-55.3-38-90V384c0-34.7,12.7-64.7,38-90s55.3-38,90-38h128
	v-96c0-44,15.7-81.7,47-113S436,0,480,0h64c44,0,81.7,15.7,113,47s47,69,47,113v96h384v-96c0-44,15.7-81.7,47-113s69-47,113-47h64
	c44,0,81.7,15.7,113,47s47,69,47,113v96h128c34.7,0,64.7,12.7,90,38S1728,349.3,1728,384z"/>
</svg>
