<?xml version="1.0" encoding="utf-8"?>
<!-- Generator: Adobe Illustrator 21.1.0, SVG Export Plug-In . SVG Version: 6.00 Build 0)  -->
<svg version="1.1" id="Layer_1" xmlns="http://www.w3.org/2000/svg" xmlns:xlink="http://www.w3.org/1999/xlink" x="0px" y="0px"
	 viewBox="0 0 1792 1792" style="enable-background:new 0 0 1792 1792;" xml:space="preserve">
<style type="text/css">
	.st0{fill:#FFC000;}
</style>
<path class="st0" d="M1344,704c0-17.3-6.3-32.3-19-45s-27.7-19-45-19s-32.3,6.3-45,19l-147,146V512c0-17.3-6.3-32.3-19-45
	s-27.7-19-45-19c-17.3,0-32.3,6.3-45,19s-19,27.7-19,45v293L813,659c-12.7-12.7-27.7-19-45-19s-32.3,6.3-45,19s-19,27.7-19,45
	s6.3,32.3,19,45l256,256c12.7,12.7,27.7,19,45,19c17.3,0,32.3-6.3,45-19l256-256C1337.7,736.3,1344,721.3,1344,704z M704,1536
	c0,35.3-12.5,65.5-37.5,90.5S611.3,1664,576,1664s-65.5-12.5-90.5-37.5S448,1571.3,448,1536s12.5-65.5,37.5-90.5
	s55.2-37.5,90.5-37.5s65.5,12.5,90.5,37.5S704,1500.7,704,1536z M1600,1536c0,35.3-12.5,65.5-37.5,90.5s-55.2,37.5-90.5,37.5
	s-65.5-12.5-90.5-37.5s-37.5-55.2-37.5-90.5s12.5-65.5,37.5-90.5s55.2-37.5,90.5-37.5s65.5,12.5,90.5,37.5S1600,1500.7,1600,1536z
	 M1728,448v512c0,16-5.3,30.2-16,42.5s-24.3,19.5-41,21.5L627,1146c0.7,4.7,2.2,11.8,4.5,21.5s4.3,18.5,6,26.5s2.5,15.3,2.5,22
	c0,10.7-8,32-24,64h920c17.3,0,32.3,6.3,45,19s19,27.7,19,45s-6.3,32.3-19,45s-27.7,19-45,19H512c-17.3,0-32.3-6.3-45-19
	s-19-27.7-19-45c0-9.3,3.7-22.5,11-39.5s17.2-36.8,29.5-59.5s19.2-35.3,20.5-38L332,384H128c-17.3,0-32.3-6.3-45-19s-19-27.7-19-45
	s6.3-32.3,19-45s27.7-19,45-19h256c10.7,0,20.2,2.2,28.5,6.5s15,9.5,20,15.5s9.3,14.2,13,24.5s6.2,19.2,7.5,26.5s3.2,17.2,5.5,29.5
	s3.8,20.8,4.5,25.5h1201c17.3,0,32.3,6.3,45,19S1728,430.7,1728,448z"/>
</svg>
