<?xml version="1.0" encoding="utf-8"?>
<!-- Generator: Adobe Illustrator 21.1.0, SVG Export Plug-In . SVG Version: 6.00 Build 0)  -->
<svg version="1.1" id="Layer_1" xmlns="http://www.w3.org/2000/svg" xmlns:xlink="http://www.w3.org/1999/xlink" x="0px" y="0px"
	 viewBox="0 0 1792 1792" style="enable-background:new 0 0 1792 1792;" xml:space="preserve">
<style type="text/css">
	.st0{fill:#FFC000;}
</style>
<path class="st0" d="M602,1241V548c-70.7,27.3-128,72.5-172,135.5S364,817,364,895s22,148.5,66,211.5S531.3,1214.3,602,1241z
	 M1106,895c0-78-22-148.5-66-211.5S938.7,575.3,868,548v694c70.7-27.3,128-72.5,172-135.5S1106,973,1106,895z M1321,895
	c0,106-26.2,204-78.5,294S1119,1350.2,1029,1402.5S841,1481,735,1481c-79.3,0-155.2-15.5-227.5-46.5s-134.7-72.7-187-125
	s-94-114.7-125-187S149,974.3,149,895c0-106,26.2-204,78.5-294S351,439.8,441,387.5S629,309,735,309s204,26.2,294,78.5
	S1190.2,511,1242.5,601S1321,789,1321,895z M1704,902c0-92.7-18.5-179.8-55.5-261.5S1562.3,490.3,1501,435s-132.5-99-213.5-131
	s-165.2-48-252.5-48H734c-117.3,0-225.2,27-323.5,81s-176.7,130.7-235,230S88,778,88,902c0,114,29,219.8,87,317.5
	s136.7,174.8,236,231.5s207,85,323,85h301c86,0,169.8-16.8,251.5-50.5s153.2-78.7,214.5-135s110.5-123.8,147.5-202.5
	S1704,987.3,1704,902z M2048,256v1280c0,34.7-12.7,64.7-38,90s-55.3,38-90,38H-128c-34.7,0-64.7-12.7-90-38s-38-55.3-38-90V256
	c0-34.7,12.7-64.7,38-90s55.3-38,90-38h2048c34.7,0,64.7,12.7,90,38S2048,221.3,2048,256z"/>
</svg>
