<?xml version="1.0" encoding="utf-8"?>
<!-- Generator: Adobe Illustrator 21.1.0, SVG Export Plug-In . SVG Version: 6.00 Build 0)  -->
<svg version="1.1" id="Layer_1" xmlns="http://www.w3.org/2000/svg" xmlns:xlink="http://www.w3.org/1999/xlink" x="0px" y="0px"
	 viewBox="0 0 1792 1792" style="enable-background:new 0 0 1792 1792;" xml:space="preserve">
<style type="text/css">
	.st0{fill:#FFC000;}
</style>
<path class="st0" d="M1341,903c0,46-7,81.3-21,106c-12.7,23.3-30,35-52,35c-15.3,0-29-3-41-9V811c19.3-20,38.3-30,57-30
	C1322,781,1341,821.7,1341,903z M1779,867h-110c4-65.3,22.7-98,56-98C1759,769,1777,801.7,1779,867z M220,1002
	c0-39.3-11-69.8-33-91.5S131.3,869.7,86,853c-24-8.7-41.3-16.7-52-24s-16-15.7-16-25c0-17.3,12.7-26,38-26c38.7,0,80,11,124,33
	l18-112c-44.7-21.3-94.3-32-149-32c-51.3,0-92.3,12.7-123,38c-32,26-48,62.3-48,109c0,38.7,10.8,68.8,32.5,90.5S-34.7,945,10,961
	c26,9.3,44.2,17.8,54.5,25.5S80,1003.3,80,1014c0,20.7-16,31-48,31c-19.3,0-42.7-4.2-70-12.5s-51.3-18.5-72-30.5l-18,113
	c48,27.3,104,41,168,41c54,0,97-12.3,129-37C203,1091.7,220,1052.7,220,1002z M515,787l19-111h-96V541l-129,21l-18,114l-46,8
	l-17,103h62v219c0,56,14.7,96,44,120c25.3,20,62.3,30,111,30c21.3,0,47.7-3.7,79-11v-118c-21.3,4.7-36,7-44,7c-28,0-42-16.7-42-50
	V787H515z M831,812V673c-10-2-19.3-3-28-3c-21.3,0-39.8,5.3-55.5,16s-26.8,26-33.5,46l-10-56H573v471h150V841
	c17.3-20.7,44.7-31,82-31C815.7,810,824.3,810.7,831,812z M868,1147h150V676H868V1147z M1490,898c0-81.3-15-141-45-179
	c-26.7-34.7-63.7-52-111-52c-42.7,0-81.7,18.7-117,56l-8-47h-132v645l150-25v-151c24,7.3,46.7,11,68,11c55.3,0,100-18.7,134-56
	C1469.7,1056.7,1490,989.3,1490,898z M1022,550c0-22-7.7-40.7-23-56s-34-23-56-23s-40.7,7.7-56,23s-23,34-23,56s7.7,40.8,23,56.5
	s34,23.5,56,23.5s40.7-7.8,56-23.5S1022,572,1022,550z M1920,907c0-75.3-16-134-48-176c-33.3-42.7-81.3-64-144-64
	c-64,0-114.5,22-151.5,66S1521,837,1521,913c0,85.3,21,148,63,188c36.7,36.7,90.3,55,161,55c67.3,0,120.7-13.3,160-40l-16-103
	c-38,20.7-80.7,31-128,31c-28.7,0-49.7-6.3-63-19c-15.3-12.7-24.7-34.7-28-66h248C1919.3,949.7,1920,932.3,1920,907z M2048,256v1280
	c0,34.7-12.7,64.7-38,90s-55.3,38-90,38H-128c-34.7,0-64.7-12.7-90-38s-38-55.3-38-90V256c0-34.7,12.7-64.7,38-90s55.3-38,90-38
	h2048c34.7,0,64.7,12.7,90,38S2048,221.3,2048,256z"/>
</svg>
