<?xml version="1.0" encoding="utf-8"?>
<!-- Generator: Adobe Illustrator 21.1.0, SVG Export Plug-In . SVG Version: 6.00 Build 0)  -->
<svg version="1.1" id="Layer_1" xmlns="http://www.w3.org/2000/svg" xmlns:xlink="http://www.w3.org/1999/xlink" x="0px" y="0px"
	 viewBox="0 0 1792 1792" style="enable-background:new 0 0 1792 1792;" xml:space="preserve">
<style type="text/css">
	.st0{fill:#FFC000;}
</style>
<path class="st0" d="M1683,1331l-166,165c-12.7,12.7-27.7,19-45,19s-32.3-6.3-45-19L896,965l-531,531c-12.7,12.7-27.7,19-45,19
	s-32.3-6.3-45-19l-166-165c-12.7-12.7-19-27.8-19-45.5s6.3-32.8,19-45.5l742-741c12.7-12.7,27.7-19,45-19s32.3,6.3,45,19l742,741
	c12.7,12.7,19,27.8,19,45.5S1695.7,1318.3,1683,1331z"/>
</svg>
