<?xml version="1.0" encoding="utf-8"?>
<!-- Generator: Adobe Illustrator 21.1.0, SVG Export Plug-In . SVG Version: 6.00 Build 0)  -->
<svg version="1.1" id="Layer_1" xmlns="http://www.w3.org/2000/svg" xmlns:xlink="http://www.w3.org/1999/xlink" x="0px" y="0px"
	 viewBox="0 0 1792 1792" style="enable-background:new 0 0 1792 1792;" xml:space="preserve">
<style type="text/css">
	.st0{fill:#FFC000;}
</style>
<path class="st0" d="M1760,896c0,117.3-22.8,229.3-68.5,336s-107,198.5-184,275.5s-168.8,138.3-275.5,184s-218.7,68.5-336,68.5
	s-229.3-22.8-336-68.5s-198.5-107-275.5-184s-138.3-168.8-184-275.5S32,1013.3,32,896c0-142,32.3-274.8,97-398.5S282,272,394,192
	S630.7,61.7,768,41v228c-147.3,30-269.5,103.7-366.5,221S256,742.7,256,896c0,86.7,17,169.5,51,248.5s79.5,147,136.5,204
	s125,102.5,204,136.5s161.8,51,248.5,51s169.5-17,248.5-51s147-79.5,204-136.5s102.5-125,136.5-204s51-161.8,51-248.5
	c0-153.3-48.5-288.7-145.5-406S1171.3,299,1024,269V41c137.3,20.7,262,71,374,151s200.3,181.8,265,305.5S1760,754,1760,896z"/>
</svg>
