<?xml version="1.0" encoding="utf-8"?>
<!-- Generator: Adobe Illustrator 21.1.0, SVG Export Plug-In . SVG Version: 6.00 Build 0)  -->
<svg version="1.1" id="Layer_1" xmlns="http://www.w3.org/2000/svg" xmlns:xlink="http://www.w3.org/1999/xlink" x="0px" y="0px"
	 viewBox="0 0 1792 1792" style="enable-background:new 0 0 1792 1792;" xml:space="preserve">
<style type="text/css">
	.st0{fill:#FFC000;}
</style>
<path class="st0" d="M1216,864c0-9.3-3-17-9-23L855,489c-6-6-13.7-9-23-9s-17,3-23,9L458,840c-6.7,8-10,16-10,24c0,9.3,3,17,9,23
	s13.7,9,23,9h224v352c0,8.7,3.2,16.2,9.5,22.5s13.8,9.5,22.5,9.5h192c8.7,0,16.2-3.2,22.5-9.5s9.5-13.8,9.5-22.5V896h224
	c8.7,0,16.2-3.2,22.5-9.5S1216,872.7,1216,864z M1856,1152c0,106-37.5,196.5-112.5,271.5S1578,1536,1472,1536H384
	c-123.3,0-228.8-43.8-316.5-131.5S-64,1211.3-64,1088c0-86.7,23.3-166.7,70-240s109.3-128.3,188-165c-1.3-20-2-34.3-2-43
	c0-141.3,50-262,150-362s220.7-150,362-150c104,0,199.2,29,285.5,87s149.2,135,188.5,231c47.3-41.3,102.7-62,166-62
	c70.7,0,131,25,181,75s75,110.3,75,181c0,50.7-13.7,96.7-41,138c86.7,20.7,157.8,65.8,213.5,135.5S1856,1062.7,1856,1152z"/>
</svg>
