<?xml version="1.0" encoding="utf-8"?>
<!-- Generator: Adobe Illustrator 21.1.0, SVG Export Plug-In . SVG Version: 6.00 Build 0)  -->
<svg version="1.1" id="Layer_1" xmlns="http://www.w3.org/2000/svg" xmlns:xlink="http://www.w3.org/1999/xlink" x="0px" y="0px"
	 viewBox="0 0 1792 1792" style="enable-background:new 0 0 1792 1792;" xml:space="preserve">
<style type="text/css">
	.st0{fill:#FFC000;}
</style>
<path class="st0" d="M1856,1152c0,106-37.5,196.5-112.5,271.5S1578,1536,1472,1536H384c-123.3,0-228.8-43.8-316.5-131.5
	S-64,1211.3-64,1088c0-88,23.7-168.5,71-241.5S116.7,719,194,683c-1.3-18.7-2-33-2-43c0-141.3,50-262,150-362s220.7-150,362-150
	c105.3,0,200.8,29.3,286.5,88s148.2,135.3,187.5,230c46.7-41.3,102-62,166-62c70.7,0,131,25,181,75s75,110.3,75,181
	c0,50-13.7,96-41,138c86,20,157,64.8,213,134.5S1856,1062,1856,1152z"/>
</svg>
