<?xml version="1.0" encoding="utf-8"?>
<!-- Generator: Adobe Illustrator 21.1.0, SVG Export Plug-In . SVG Version: 6.00 Build 0)  -->
<svg version="1.1" id="Layer_1" xmlns="http://www.w3.org/2000/svg" xmlns:xlink="http://www.w3.org/1999/xlink" x="0px" y="0px"
	 viewBox="0 0 1792 1792" style="enable-background:new 0 0 1792 1792;" xml:space="preserve">
<style type="text/css">
	.st0{fill:#FFC000;}
</style>
<path class="st0" d="M985.5,1536h-172c-8.7,0-16.2-3-22.5-9s-9.5-13.7-9.5-23v-330h-288c-8.7,0-16.2-3-22.5-9s-9.5-13.7-9.5-23v-103
	c0-8.7,3.2-16.2,9.5-22.5s13.8-9.5,22.5-9.5h288v-85h-288c-8.7,0-16.2-3-22.5-9s-9.5-13.7-9.5-23V786c0-8.7,3.2-16.2,9.5-22.5
	s13.8-9.5,22.5-9.5h214l-321-578c-5.3-10.7-5.3-21.3,0-32c6.7-10.7,16-16,28-16h194c12.7,0,22.3,6,29,18l215,425
	c12.7,25.3,31.3,67,56,125c6.7-16,16.8-38.7,30.5-68s22.8-49.7,27.5-61l191-420c5.3-12.7,15-19,29-19h191c11.3,0,20.3,5.3,27,16
	c6,9.3,6.3,19.7,1,31l-313,579h215c8.7,0,16.2,3.2,22.5,9.5s9.5,13.8,9.5,22.5v104c0,9.3-3.2,17-9.5,23s-13.8,9-22.5,9h-290v85h290
	c8.7,0,16.2,3.2,22.5,9.5s9.5,13.8,9.5,22.5v103c0,9.3-3.2,17-9.5,23s-13.8,9-22.5,9h-290v330c0,8.7-3.2,16.2-9.5,22.5
	S994.2,1536,985.5,1536z"/>
</svg>
