<?xml version="1.0" encoding="utf-8"?>
<!-- Generator: Adobe Illustrator 21.1.0, SVG Export Plug-In . SVG Version: 6.00 Build 0)  -->
<svg version="1.1" id="Layer_1" xmlns="http://www.w3.org/2000/svg" xmlns:xlink="http://www.w3.org/1999/xlink" x="0px" y="0px"
	 viewBox="0 0 1792 1792" style="enable-background:new 0 0 1792 1792;" xml:space="preserve">
<style type="text/css">
	.st0{fill:#FFC000;}
</style>
<path class="st0" d="M1549,679c36.7,0,65.2,9.5,85.5,28.5s30.5,46.8,30.5,83.5s-11.3,64-34,82s-53,27-91,27h-136v177h-25V679H1549z
	 M1710,1269l-4,11l-5,10c-75.3,153.3-185.5,275.3-330.5,366s-303.2,136-474.5,136c-121.3,0-237.3-23.7-348-71s-206-111-286-191
	s-143.7-175.3-191-286S0,1017.3,0,896s23.7-237.3,71-348s111-206,191-286S437.3,118.3,548,71S774.7,0,896,0
	c162.7,0,314.2,41.3,454.5,124s250.2,195.3,329.5,338l2,4l8,16c-20,10-65.5,32.8-136.5,68.5S1428,614.3,1390,635
	c-4,2-163.7,91.3-479,268C1167,1025,1433.3,1147,1710,1269z M896,1770c166.7,0,320.8-44.2,462.5-132.5S1607.7,1430,1681,1280
	l-287-129c-48,93.3-116.7,167.3-206,222s-186.7,82-292,82c-100.7,0-194-25-280-75s-154-118-204-204s-75-179.3-75-280s25-194,75-280
	s118-154,204-204s179.3-75,280-75s194,24.5,280,73.5s154,117.2,204,204.5l280-143c-77.3-138.7-184.3-248.3-321-329S1054.7,22,896,22
	c-79.3,0-156.8,10.5-232.5,31.5s-145.3,50.2-209,87.5S332,224,278,278s-99.7,112.8-137,176.5s-66.5,133.3-87.5,209S22,816.7,22,896
	s10.5,156.8,31.5,232.5s50.2,145.3,87.5,209S224,1460,278,1514s112.8,99.7,176.5,137s133.3,66.5,209,87.5S816.7,1770,896,1770z"/>
</svg>
