<?xml version="1.0" encoding="utf-8"?>
<!-- Generator: Adobe Illustrator 21.1.0, SVG Export Plug-In . SVG Version: 6.00 Build 0)  -->
<svg version="1.1" id="Layer_1" xmlns="http://www.w3.org/2000/svg" xmlns:xlink="http://www.w3.org/1999/xlink" x="0px" y="0px"
	 viewBox="0 0 1792 1792" style="enable-background:new 0 0 1792 1792;" xml:space="preserve">
<style type="text/css">
	.st0{fill:#FFC000;}
</style>
<path class="st0" d="M640,896c0,35.3-12.5,65.5-37.5,90.5S547.3,1024,512,1024s-65.5-12.5-90.5-37.5S384,931.3,384,896
	s12.5-65.5,37.5-90.5S476.7,768,512,768s65.5,12.5,90.5,37.5S640,860.7,640,896z M1024,896c0,35.3-12.5,65.5-37.5,90.5
	S931.3,1024,896,1024s-65.5-12.5-90.5-37.5S768,931.3,768,896s12.5-65.5,37.5-90.5S860.7,768,896,768s65.5,12.5,90.5,37.5
	S1024,860.7,1024,896z M1408,896c0,35.3-12.5,65.5-37.5,90.5s-55.2,37.5-90.5,37.5s-65.5-12.5-90.5-37.5S1152,931.3,1152,896
	s12.5-65.5,37.5-90.5s55.2-37.5,90.5-37.5s65.5,12.5,90.5,37.5S1408,860.7,1408,896z M896,384c-136,0-263.2,23.2-381.5,69.5
	S302.2,562.3,232.5,641S128,804.7,128,896c0,74.7,23.8,145.8,71.5,213.5S314.3,1235.7,401,1285l87,50l-27,96
	c-16,60.7-39.3,118-70,172c101.3-42,193-99,275-171l43-38l57,6c46,5.3,89.3,8,130,8c136,0,263.2-23.2,381.5-69.5
	s212.3-108.8,282-187.5S1664,987.3,1664,896s-34.8-176.3-104.5-255s-163.7-141.2-282-187.5S1032,384,896,384z M1792,896
	c0,116-40,223.2-120,321.5s-188.7,176-326,233s-287.3,85.5-450,85.5c-46.7,0-95-2.7-145-8c-132,116.7-285.3,197.3-460,242
	c-32.7,9.3-70.7,16.7-114,22h-5c-10,0-19-3.5-27-10.5s-13.3-16.2-16-27.5v-1c-2-2.7-2.2-6.7-0.5-12s2.3-8.7,2-10s1.2-4.5,4.5-9.5
	l6-9l7-8.5l8-9c4.7-5.3,15-16.8,31-34.5s27.5-30.3,34.5-38s17.3-20.8,31-39.5c13.7-18.7,24.5-35.7,32.5-51s17-35,27-59
	s18.7-49.3,26-76c-104.7-59.3-187.2-132.7-247.5-220S0,996,0,896c0-86.7,23.7-169.5,71-248.5S182,500.3,262,443
	s175.3-102.8,286-136.5S774.7,256,896,256s237.3,16.8,348,50.5s206,79.2,286,136.5s143.7,125.5,191,204.5S1792,809.3,1792,896z"/>
</svg>
