<?xml version="1.0" encoding="utf-8"?>
<!-- Generator: Adobe Illustrator 21.1.0, SVG Export Plug-In . SVG Version: 6.00 Build 0)  -->
<svg version="1.1" id="Layer_1" xmlns="http://www.w3.org/2000/svg" xmlns:xlink="http://www.w3.org/1999/xlink" x="0px" y="0px"
	 viewBox="0 0 1792 1792" style="enable-background:new 0 0 1792 1792;" xml:space="preserve">
<style type="text/css">
	.st0{fill:#FFC000;}
</style>
<path class="st0" d="M1920,895c0,14-4.3,26.2-13,36.5s-19.7,16.8-33,19.5l-205,356c2,6,3,12,3,18c0,13.3-4.2,25.2-12.5,35.5
	s-19.2,16.8-32.5,19.5l-193,337c2,5.3,3,10.7,3,16c0,15.3-5.5,28.7-16.5,40s-24.5,17-40.5,17c-16.7,0-30.3-6-41-18H939
	c-11.3,13.3-25.7,20-43,20s-31.7-6.7-43-20H454c-11.3,13.3-25.7,20-43,20c-15.3,0-28.7-5.5-40-16.5s-17-24.5-17-40.5
	c0-5.3,1.3-12,4-20l-193-335c-13.3-2.7-24.2-9.2-32.5-19.5S120,1338.3,120,1325c0-6,1-12,3-18L-83,951
	c-13.3-3.3-24.2-10.2-32.5-20.5S-128,908.3-128,895c0-14,4.5-26.2,13.5-36.5S-94.3,841.7-81,839l199-344c0-0.7-0.2-1.7-0.5-3
	s-0.5-2.3-0.5-3c0-24,11.3-41,34-51L360,75c-2.7-6.7-4-12.7-4-18c0-16,5.7-29.5,17-40.5S397.7,0,413,0c17.3,0,32,7,44,21h396
	c10.7-14,25-21,43-21s32.3,7,43,21h398c12-14,26.7-21,44-21c15.3,0,28.7,5.5,40,16.5s17,24.5,17,40.5c0,4-1.3,10-4,18l207,358
	c15.3,0.7,28.3,6.5,39,17.5s16,23.8,16,38.5c0,8.7-2.3,17.7-7,27l187,324c12.7,2.7,23.2,9.2,31.5,19.5S1920,881.7,1920,895z
	 M935,1694h389l-342-354H839l-342,354h360c12-10.7,25-16,39-16S923,1683.3,935,1694z M-16,882c0.7,2.7,1,7,1,13c0,6.7-0.7,11.7-2,15
	l208,360c1.3,0,2.8,0.3,4.5,1s3.5,1.5,5.5,2.5l5,2.5l188-199V730L207,536c-8.7,5.3-18.3,8.7-29,10L-16,882z M858,98H470l190,200
	l554-200H934c-10.7,10.7-23.3,16-38,16S868.7,108.7,858,98z M1561,1310c0.7-4,2.3-7.7,5-11l-64-68l-17,79H1561z M1455,1310l22-105
	l-252-266l-296,307l63,64H1455z M1367,1678l16-28l65-310h-427l333,343C1359.3,1680.3,1363.7,1678.7,1367,1678z M450,1694h5l342-354
	H424v335l4,6C437.3,1684.3,444.7,1688.7,450,1694z M424,1310h402l64-66L581,923l-157,166V1310z M231,1310h163v-189l-168,177
	C228.7,1303.3,230.3,1307.3,231,1310z M230,485c0,0.7,0.2,1.3,0.5,2s0.5,1.3,0.5,2c0,10.7-2.7,20.3-8,29l171,177V426L230,485z
	 M424,415v311l153,157l297-314L651,333L424,415z M428,111l-4,8v264l205-74L438,108C434,109.3,430.7,110.3,428,111z M1319,98h-16
	L682,322l213,225L1319,98z M895,590L598,905l311,319l296-307L895,590z M560,902L424,761v284L560,902z M910,1266l-42,44h85L910,1266z
	 M1246,918l238,251l132-624l-3-5l-1-1L1246,918z M1590,518c-5.3-8.7-8-18.3-8-29v-2l-216-376c-3.3-0.7-7.7-2.3-13-5L916,569l310,327
	L1590,518z M394,394V171L231,453L394,394z M394,1340H231l163,283V1340z M1479,1340l-48,227l130-227H1479z M1601,1270l207-361
	c-1.3-6.7-2-11.3-2-14c0-0.7,1-6,3-16l-171-296l-129,612l77,82C1589.3,1275,1594.3,1272.7,1601,1270z"/>
</svg>
