<?xml version="1.0" encoding="utf-8"?>
<!-- Generator: Adobe Illustrator 21.1.0, SVG Export Plug-In . SVG Version: 6.00 Build 0)  -->
<svg version="1.1" id="Layer_1" xmlns="http://www.w3.org/2000/svg" xmlns:xlink="http://www.w3.org/1999/xlink" x="0px" y="0px"
	 viewBox="0 0 1792 1792" style="enable-background:new 0 0 1792 1792;" xml:space="preserve">
<style type="text/css">
	.st0{fill:#FFC000;}
</style>
<path class="st0" d="M832,64v640c0,40.7-11.8,77.7-35.5,111S742,871.7,704,885v779c0,34.7-12.7,64.7-38,90s-55.3,38-90,38H448
	c-34.7,0-64.7-12.7-90-38s-38-55.3-38-90V885c-38-13.3-68.8-36.7-92.5-70S192,744.7,192,704V64c0-17.3,6.3-32.3,19-45s27.7-19,45-19
	s32.3,6.3,45,19s19,27.7,19,45v416c0,17.3,6.3,32.3,19,45s27.7,19,45,19s32.3-6.3,45-19s19-27.7,19-45V64c0-17.3,6.3-32.3,19-45
	s27.7-19,45-19s32.3,6.3,45,19s19,27.7,19,45v416c0,17.3,6.3,32.3,19,45s27.7,19,45,19s32.3-6.3,45-19s19-27.7,19-45V64
	c0-17.3,6.3-32.3,19-45s27.7-19,45-19s32.3,6.3,45,19S832,46.7,832,64z M1600,64v1600c0,34.7-12.7,64.7-38,90s-55.3,38-90,38h-128
	c-34.7,0-64.7-12.7-90-38s-38-55.3-38-90v-512H992c-8.7,0-16.2-3.2-22.5-9.5s-9.5-13.8-9.5-22.5V320c0-88,31.3-163.3,94-226
	s138-94,226-94h256c17.3,0,32.3,6.3,45,19S1600,46.7,1600,64z"/>
</svg>
