<?xml version="1.0" encoding="utf-8"?>
<!-- Generator: Adobe Illustrator 21.1.0, SVG Export Plug-In . SVG Version: 6.00 Build 0)  -->
<svg version="1.1" id="Layer_1" xmlns="http://www.w3.org/2000/svg" xmlns:xlink="http://www.w3.org/1999/xlink" x="0px" y="0px"
	 viewBox="0 0 1792 1792" style="enable-background:new 0 0 1792 1792;" xml:space="preserve">
<style type="text/css">
	.st0{fill:#FFC000;}
</style>
<path class="st0" d="M128,680c0-87.3,30.5-162.8,91.5-226.5S354.7,358,442,358h742L1536,0v1470c0,88-30.5,163.7-91.5,227
	s-135.2,95-222.5,95H442c-87.3,0-161.5-31.7-222.5-95S128,1558,128,1470V680z M1360,1434l-176-180V829c0-30.7-10.7-57-32-79
	s-47.3-33-78-33H590c-30.7,0-56.7,11-78,33s-32,48.3-32,79v492c0,30.7,10.8,57.2,32.5,79.5S560,1434,590,1434H1360z"/>
</svg>
