<?xml version="1.0" encoding="utf-8"?>
<!-- Generator: Adobe Illustrator 21.1.0, SVG Export Plug-In . SVG Version: 6.00 Build 0)  -->
<svg version="1.1" id="Layer_1" xmlns="http://www.w3.org/2000/svg" xmlns:xlink="http://www.w3.org/1999/xlink" x="0px" y="0px"
	 viewBox="0 0 1792 1792" style="enable-background:new 0 0 1792 1792;" xml:space="preserve">
<style type="text/css">
	.st0{fill:#FFC000;}
</style>
<path class="st0" d="M200,282h204v983h-532V568h328V282z M200,1101V732H77v369H200z M486,568v697h205V568H486z M486,282v204h205V282
	H486z M773,568h533v942H773v-163h328v-82H773V568z M1101,1101V732H978v369H1101z M1388,568h532v942h-532v-163h327v-82h-327V568z
	 M1715,1101V732h-123v369H1715z"/>
</svg>
