<?xml version="1.0" encoding="utf-8"?>
<!-- Generator: Adobe Illustrator 21.1.0, SVG Export Plug-In . SVG Version: 6.00 Build 0)  -->
<svg version="1.1" id="Layer_1" xmlns="http://www.w3.org/2000/svg" xmlns:xlink="http://www.w3.org/1999/xlink" x="0px" y="0px"
	 viewBox="0 0 1792 1792" style="enable-background:new 0 0 1792 1792;" xml:space="preserve">
<style type="text/css">
	.st0{fill:#FFC000;}
</style>
<path class="st0" d="M1344,1344c0-17.3-6.3-32.3-19-45s-27.7-19-45-19s-32.3,6.3-45,19s-19,27.7-19,45s6.3,32.3,19,45s27.7,19,45,19
	s32.3-6.3,45-19S1344,1361.3,1344,1344z M1600,1344c0-17.3-6.3-32.3-19-45s-27.7-19-45-19s-32.3,6.3-45,19s-19,27.7-19,45
	s6.3,32.3,19,45s27.7,19,45,19s32.3-6.3,45-19S1600,1361.3,1600,1344z M1728,1120v320c0,26.7-9.3,49.3-28,68s-41.3,28-68,28H160
	c-26.7,0-49.3-9.3-68-28s-28-41.3-28-68v-320c0-26.7,9.3-49.3,28-68s41.3-28,68-28h465l135,136c38.7,37.3,84,56,136,56
	s97.3-18.7,136-56l136-136h464c26.7,0,49.3,9.3,68,28S1728,1093.3,1728,1120z M1403,551c11.3,27.3,6.7,50.7-14,70l-448,448
	c-12,12.7-27,19-45,19s-33-6.3-45-19L403,621c-20.7-19.3-25.3-42.7-14-70c11.3-26,31-39,59-39h256V64c0-17.3,6.3-32.3,19-45
	s27.7-19,45-19h256c17.3,0,32.3,6.3,45,19s19,27.7,19,45v448h256C1372,512,1391.7,525,1403,551z"/>
</svg>
