<?xml version="1.0" encoding="utf-8"?>
<!-- Generator: Adobe Illustrator 21.1.0, SVG Export Plug-In . SVG Version: 6.00 Build 0)  -->
<svg version="1.1" id="Layer_1" xmlns="http://www.w3.org/2000/svg" xmlns:xlink="http://www.w3.org/1999/xlink" x="0px" y="0px"
	 viewBox="0 0 1792 1792" style="enable-background:new 0 0 1792 1792;" xml:space="preserve">
<style type="text/css">
	.st0{fill:#FFC000;}
</style>
<path class="st0" d="M69,795h1c10.7-84,30.2-164.5,58.5-241.5s66.7-149.3,115-217s104.2-126.3,167.5-176S548.8,71.7,634.5,43
	S812.3,0,911,0c154,0,292,35.2,414,105.5S1545,277,1619,409c69.3,124.7,104,272,104,442v188H598c0.7,74,18.5,138.2,53.5,192.5
	S732,1326.7,788,1354s119.2,46.3,189.5,57s141.3,11.7,213,3s141-24.2,208-46.5s124.8-50.5,173.5-84.5v377
	c-61.3,36.7-137.8,67.3-229.5,92s-195.8,37.3-312.5,38s-222-17-316-53c-126-48.7-229.8-131.7-311.5-249S279.3,1246.7,278,1116
	c-2-161.3,35-298.7,111-412s184.3-202.7,325-268c-32,40-58,81.8-78,125.5s-35.3,96.8-46,159.5h635c5.3-51.3,2.7-98-8-140
	s-26.3-75.8-47-101.5s-44.2-47.8-70.5-66.5s-53.2-32.3-80.5-41c-27.3-8.7-52.3-15.5-75-20.5s-41.3-7.8-56-8.5l-22-1
	c-90,3.3-176.5,18.2-259.5,44.5S449,447.7,383,491s-124.7,90.2-176,140.5S109.7,736.3,69,795z"/>
</svg>
