<?xml version="1.0" encoding="utf-8"?>
<!-- Generator: Adobe Illustrator 21.1.0, SVG Export Plug-In . SVG Version: 6.00 Build 0)  -->
<svg version="1.1" id="Layer_1" xmlns="http://www.w3.org/2000/svg" xmlns:xlink="http://www.w3.org/1999/xlink" x="0px" y="0px"
	 viewBox="0 0 1792 1792" style="enable-background:new 0 0 1792 1792;" xml:space="preserve">
<style type="text/css">
	.st0{fill:#FFC000;}
</style>
<path class="st0" d="M1596,380c18.7,18.7,34.7,44,48,76s20,61.3,20,88v1152c0,26.7-9.3,49.3-28,68s-41.3,28-68,28H224
	c-26.7,0-49.3-9.3-68-28s-28-41.3-28-68V96c0-26.7,9.3-49.3,28-68s41.3-28,68-28h896c26.7,0,56,6.7,88,20s57.3,29.3,76,48L1596,380z
	 M1152,136v376h376c-6.7-19.3-14-33-22-41l-313-313C1185,150,1171.3,142.7,1152,136z M1536,1664V640h-416c-26.7,0-49.3-9.3-68-28
	s-28-41.3-28-68V128H256v1536H1536z M557,1430v106h281v-106h-75l103-161c3.3-4.7,6.7-10.2,10-16.5s5.8-10.8,7.5-13.5s2.8-4,3.5-4h2
	c0.7,2.7,2.3,6,5,10c1.3,2.7,2.8,5.2,4.5,7.5s3.7,5,6,8s4.5,5.8,6.5,8.5l107,161h-76v106h291v-106h-68l-192-273l195-282h67V768H956
	v107h74l-103,159c-2.7,4.7-6,10.2-10,16.5s-7,10.8-9,13.5l-2,3h-2c-0.7-2.7-2.3-6-5-10c-4-7.3-9.7-15-17-23L776,875h76V768H562v107
	h68l189,272l-194,283H557z"/>
</svg>
