<?xml version="1.0" encoding="utf-8"?>
<!-- Generator: Adobe Illustrator 21.1.0, SVG Export Plug-In . SVG Version: 6.00 Build 0)  -->
<svg version="1.1" id="Layer_1" xmlns="http://www.w3.org/2000/svg" xmlns:xlink="http://www.w3.org/1999/xlink" x="0px" y="0px"
	 viewBox="0 0 1792 1792" style="enable-background:new 0 0 1792 1792;" xml:space="preserve">
<style type="text/css">
	.st0{fill:#FFC000;}
</style>
<path class="st0" d="M768,384V256H640v128H768z M896,512V384H768v128H896z M768,640V512H640v128H768z M896,768V640H768v128H896z
	 M1596,380c18.7,18.7,34.7,44,48,76s20,61.3,20,88v1152c0,26.7-9.3,49.3-28,68s-41.3,28-68,28H224c-26.7,0-49.3-9.3-68-28
	s-28-41.3-28-68V96c0-26.7,9.3-49.3,28-68s41.3-28,68-28h896c26.7,0,56,6.7,88,20s57.3,29.3,76,48L1596,380z M1152,136v376h376
	c-6.7-19.3-14-33-22-41l-313-313C1185,150,1171.3,142.7,1152,136z M1536,1664V640h-416c-26.7,0-49.3-9.3-68-28s-28-41.3-28-68V128
	H896v128H768V128H256v1536H1536z M909,943l107,349c5.3,18,8,35.3,8,52c0,55.3-24.2,101.2-72.5,137.5S842,1536,768,1536
	s-135.2-18.2-183.5-54.5S512,1399.3,512,1344c0-16.7,2.7-34,8-52c14-42,54-174,120-396V768h128v128h79c14.7,0,27.7,4.3,39,13
	S905,929,909,943z M768,1408c35.3,0,65.5-6.3,90.5-19s37.5-27.7,37.5-45s-12.5-32.3-37.5-45s-55.2-19-90.5-19s-65.5,6.3-90.5,19
	s-37.5,27.7-37.5,45s12.5,32.3,37.5,45S732.7,1408,768,1408z"/>
</svg>
