<?xml version="1.0" encoding="utf-8"?>
<!-- Generator: Adobe Illustrator 21.1.0, SVG Export Plug-In . SVG Version: 6.00 Build 0)  -->
<svg version="1.1" id="Layer_1" xmlns="http://www.w3.org/2000/svg" xmlns:xlink="http://www.w3.org/1999/xlink" x="0px" y="0px"
	 viewBox="0 0 1792 1792" style="enable-background:new 0 0 1792 1792;" xml:space="preserve">
<style type="text/css">
	.st0{fill:#FFC000;}
</style>
<path class="st0" d="M1596,380c18.7,18.7,34.7,44,48,76s20,61.3,20,88v1152c0,26.7-9.3,49.3-28,68s-41.3,28-68,28H224
	c-26.7,0-49.3-9.3-68-28s-28-41.3-28-68V96c0-26.7,9.3-49.3,28-68s41.3-28,68-28h896c26.7,0,56,6.7,88,20s57.3,29.3,76,48L1596,380z
	 M1152,136v376h376c-6.7-19.3-14-33-22-41l-313-313C1185,150,1171.3,142.7,1152,136z M1536,1664V640h-416c-26.7,0-49.3-9.3-68-28
	s-28-41.3-28-68V128H256v1536H1536z M896,768c34.7,0,64.7,12.7,90,38s38,55.3,38,90v384c0,34.7-12.7,64.7-38,90s-55.3,38-90,38H512
	c-34.7,0-64.7-12.7-90-38s-38-55.3-38-90V896c0-34.7,12.7-64.7,38-90s55.3-38,90-38H896z M1388,770c13.3,5.3,20,15.3,20,30v576
	c0,14.7-6.7,24.7-20,30c-5.3,1.3-9.3,2-12,2c-9.3,0-17-3-23-9l-265-266v-90l265-266c6-6,13.7-9,23-9
	C1378.7,768,1382.7,768.7,1388,770z"/>
</svg>
