<?xml version="1.0" encoding="utf-8"?>
<!-- Generator: Adobe Illustrator 21.1.0, SVG Export Plug-In . SVG Version: 6.00 Build 0)  -->
<svg version="1.1" id="Layer_1" xmlns="http://www.w3.org/2000/svg" xmlns:xlink="http://www.w3.org/1999/xlink" x="0px" y="0px"
	 viewBox="0 0 1792 1792" style="enable-background:new 0 0 1792 1792;" xml:space="preserve">
<style type="text/css">
	.st0{fill:#FFC000;}
</style>
<path class="st0" d="M1596,380c18.7,18.7,34.7,44,48,76s20,61.3,20,88v1152c0,26.7-9.3,49.3-28,68s-41.3,28-68,28H224
	c-26.7,0-49.3-9.3-68-28s-28-41.3-28-68V96c0-26.7,9.3-49.3,28-68s41.3-28,68-28h896c26.7,0,56,6.7,88,20s57.3,29.3,76,48L1596,380z
	 M1152,136v376h376c-6.7-19.3-14-33-22-41l-313-313C1185,150,1171.3,142.7,1152,136z M1536,1664V640h-416c-26.7,0-49.3-9.3-68-28
	s-28-41.3-28-68V128H256v1536H1536z M608,768c5.3-7.3,12.3-11.5,21-12.5s16.7,1.2,24,6.5l51,38c7.3,5.3,11.5,12.3,12.5,21
	s-1.2,16.7-6.5,24l-182,243l182,243c5.3,7.3,7.5,15.3,6.5,24s-5.2,15.7-12.5,21l-51,38c-7.3,5.3-15.3,7.5-24,6.5s-15.7-5.2-21-12.5
	l-226-301c-9.3-12.7-9.3-25.3,0-38L608,768z M1410,1069c9.3,12.7,9.3,25.3,0,38l-226,301c-5.3,7.3-12.3,11.5-21,12.5
	s-16.7-1.2-24-6.5l-51-38c-7.3-5.3-11.5-12.3-12.5-21s1.2-16.7,6.5-24l182-243l-182-243c-5.3-7.3-7.5-15.3-6.5-24s5.2-15.7,12.5-21
	l51-38c7.3-5.3,15.3-7.5,24-6.5s15.7,5.2,21,12.5L1410,1069z M790,1530c-8.7-1.3-15.5-5.7-20.5-13s-6.8-15.3-5.5-24l138-831
	c1.3-8.7,5.7-15.5,13-20.5s15.3-6.8,24-5.5l63,10c8.7,1.3,15.5,5.7,20.5,13s6.8,15.3,5.5,24l-138,831c-1.3,8.7-5.7,15.5-13,20.5
	s-15.3,6.8-24,5.5L790,1530z"/>
</svg>
