<?xml version="1.0" encoding="utf-8"?>
<!-- Generator: Adobe Illustrator 21.1.0, SVG Export Plug-In . SVG Version: 6.00 Build 0)  -->
<svg version="1.1" id="Layer_1" xmlns="http://www.w3.org/2000/svg" xmlns:xlink="http://www.w3.org/1999/xlink" x="0px" y="0px"
	 viewBox="0 0 1792 1792" style="enable-background:new 0 0 1792 1792;" xml:space="preserve">
<style type="text/css">
	.st0{fill:#FFC000;}
</style>
<path class="st0" d="M1600,1696v64c0,8.7-3.2,16.2-9.5,22.5s-13.8,9.5-22.5,9.5H224c-8.7,0-16.2-3.2-22.5-9.5s-9.5-13.8-9.5-22.5
	v-64c0-8.7,3.2-16.2,9.5-22.5s13.8-9.5,22.5-9.5h1344c8.7,0,16.2,3.2,22.5,9.5S1600,1687.3,1600,1696z M1344,640
	c0,52-8.2,100-24.5,144s-37.7,81.5-64,112.5s-55.5,60.3-87.5,88s-64,53.5-96,77.5s-61.2,48-87.5,72s-47.7,51.2-64,81.5
	S896,1278,896,1312c0,64,22.3,138.7,67,224l-4-1l1,1c-60-27.3-113.3-55-160-83s-92.8-61.3-138.5-100S578,1273.5,548,1230.5
	s-54.2-93.2-72.5-150.5c-18.3-57.3-27.5-118.7-27.5-184c0-52,8.2-100,24.5-144s37.7-81.5,64-112.5s55.5-60.3,87.5-88
	s64-53.5,96-77.5s61.2-48,87.5-72s47.7-51.2,64-81.5S896,258,896,224c0-62.7-22-137.3-66-224l3,1l-1-1c60,27.3,113.3,55,160,83
	c46.7,28,92.8,61.3,138.5,100s83.5,79.5,113.5,122.5s54.2,93.2,72.5,150.5S1344,574.7,1344,640z"/>
</svg>
