<?xml version="1.0" encoding="utf-8"?>
<!-- Generator: Adobe Illustrator 21.1.0, SVG Export Plug-In . SVG Version: 6.00 Build 0)  -->
<svg version="1.1" id="Layer_1" xmlns="http://www.w3.org/2000/svg" xmlns:xlink="http://www.w3.org/1999/xlink" x="0px" y="0px"
	 viewBox="0 0 1792 1792" style="enable-background:new 0 0 1792 1792;" xml:space="preserve">
<style type="text/css">
	.st0{fill:#FFC000;}
</style>
<path class="st0" d="M1717,931c0-23.3-17.7-35-53-35H576c-26.7,0-55.2,7.2-85.5,21.5S436.3,949.3,419,970l-294,363
	c-12,16-18,29.3-18,40c0,23.3,17.7,35,53,35h1088c26.7,0,55.3-7.3,86-22s54.3-32.3,71-53l294-363C1711,955.3,1717,942.3,1717,931z
	 M576,768h768V608c0-26.7-9.3-49.3-28-68s-41.3-28-68-28H672c-26.7,0-49.3-9.3-68-28s-28-41.3-28-68v-64c0-26.7-9.3-49.3-28-68
	s-41.3-28-68-28H160c-26.7,0-49.3,9.3-68,28s-28,41.3-28,68v853l256-315c29.3-35.3,68-64.5,116-87.5S530.7,768,576,768z M1845,931
	c0,41.3-15.3,81.3-46,120l-295,363c-28.7,35.3-67.3,64.5-116,87.5s-95.3,34.5-140,34.5H160c-61.3,0-114-22-158-66s-66-96.7-66-158
	V352c0-61.3,22-114,66-158s96.7-66,158-66h320c61.3,0,114,22,158,66s66,96.7,66,158v32h544c61.3,0,114,22,158,66s66,96.7,66,158v160
	h192c36,0,69,8.2,99,24.5s52.3,39.8,67,70.5C1840,884.3,1845,907,1845,931z"/>
</svg>
