<?xml version="1.0" encoding="utf-8"?>
<!-- Generator: Adobe Illustrator 21.1.0, SVG Export Plug-In . SVG Version: 6.00 Build 0)  -->
<svg version="1.1" id="Layer_1" xmlns="http://www.w3.org/2000/svg" xmlns:xlink="http://www.w3.org/1999/xlink" x="0px" y="0px"
	 viewBox="0 0 1792 1792" style="enable-background:new 0 0 1792 1792;" xml:space="preserve">
<style type="text/css">
	.st0{fill:#FFC000;}
</style>
<path class="st0" d="M1728,608v704c0,61.3-22,114-66,158s-96.7,66-158,66H288c-61.3,0-114-22-158-66s-66-96.7-66-158V352
	c0-61.3,22-114,66-158s96.7-66,158-66h320c61.3,0,114,22,158,66s66,96.7,66,158v32h672c61.3,0,114,22,158,66S1728,546.7,1728,608z"
	/>
</svg>
