<?xml version="1.0" encoding="utf-8"?>
<!-- Generator: Adobe Illustrator 21.1.0, SVG Export Plug-In . SVG Version: 6.00 Build 0)  -->
<svg version="1.1" id="Layer_1" xmlns="http://www.w3.org/2000/svg" xmlns:xlink="http://www.w3.org/1999/xlink" x="0px" y="0px"
	 viewBox="0 0 1792 1792" style="enable-background:new 0 0 1792 1792;" xml:space="preserve">
<style type="text/css">
	.st0{fill:#FFC000;}
</style>
<path class="st0" d="M640,1008V784c0-10.7-5.3-16-16-16h-96c-10.7,0-16,5.3-16,16v224c0,10.7,5.3,16,16,16h96
	C634.7,1024,640,1018.7,640,1008z M1152,1008V784c0-10.7-5.3-16-16-16h-96c-10.7,0-16,5.3-16,16v224c0,10.7,5.3,16,16,16h96
	C1146.7,1024,1152,1018.7,1152,1008z M1664,1040v752h-640v-320c0-53.3-18.7-98.7-56-136s-82.7-56-136-56s-98.7,18.7-136,56
	s-56,82.7-56,136v320H0v-752c0-10.7,5.3-16,16-16h96c10.7,0,16,5.3,16,16v112h128V528c0-10.7,5.3-16,16-16h96c10.7,0,16,5.3,16,16
	v112h128V528c0-10.7,5.3-16,16-16h96c10.7,0,16,5.3,16,16v112h128V528c0-10.7,5.3-16,16-16h16V119c-21.3-12.7-32-31-32-55
	c0-17.3,6.3-32.3,19-45s27.7-19,45-19s32.3,6.3,45,19s19,27.7,19,45c0,24-10.7,42.3-32,55v9h272c10.7,0,16,5.3,16,16v224
	c0,10.7-5.3,16-16,16H864v128h16c10.7,0,16,5.3,16,16v112h128V528c0-10.7,5.3-16,16-16h96c10.7,0,16,5.3,16,16v112h128V528
	c0-10.7,5.3-16,16-16h96c10.7,0,16,5.3,16,16v624h128v-112c0-10.7,5.3-16,16-16h96C1658.7,1024,1664,1029.3,1664,1040z"/>
</svg>
