<?xml version="1.0" encoding="utf-8"?>
<!-- Generator: Adobe Illustrator 21.1.0, SVG Export Plug-In . SVG Version: 6.00 Build 0)  -->
<svg version="1.1" id="Layer_1" xmlns="http://www.w3.org/2000/svg" xmlns:xlink="http://www.w3.org/1999/xlink" x="0px" y="0px"
	 viewBox="0 0 1792 1792" style="enable-background:new 0 0 1792 1792;" xml:space="preserve">
<style type="text/css">
	.st0{fill:#FFC000;}
</style>
<path class="st0" d="M1404,1137v367c0,9.3-3,17-9,23s-13.7,9-23,9H416c-9.3,0-17-3-23-9s-9-13.7-9-23v-150c0-8.7,3.2-16.2,9.5-22.5
	s13.8-9.5,22.5-9.5h97V939h-95c-9.3,0-17-3.2-23-9.5s-9-13.8-9-22.5V776c0-9.3,3-17,9-23s13.7-9,23-9h95V521
	c0-114,41.2-208,123.5-282S823.7,128,951,128c123.3,0,235,41.7,335,125c6,5.3,9.3,12.2,10,20.5s-1.7,15.8-7,22.5l-103,127
	c-6,7.3-13.3,11.3-22,12c-8.7,1.3-16.3-1-23-7c-3.3-3.3-12-9.7-26-19s-37-20-69-32s-63-18-93-18c-56.7,0-102.3,15.7-137,47
	s-52,72.3-52,123v215h305c8.7,0,16.2,3,22.5,9s9.5,13.7,9.5,23v131c0,8.7-3.2,16.2-9.5,22.5s-13.8,9.5-22.5,9.5H764v379h414v-181
	c0-8.7,3-16.2,9-22.5s13.7-9.5,23-9.5h162c9.3,0,17,3.2,23,9.5S1404,1128.3,1404,1137z"/>
</svg>
