<?xml version="1.0" encoding="utf-8"?>
<!-- Generator: Adobe Illustrator 21.1.0, SVG Export Plug-In . SVG Version: 6.00 Build 0)  -->
<svg version="1.1" id="Layer_1" xmlns="http://www.w3.org/2000/svg" xmlns:xlink="http://www.w3.org/1999/xlink" x="0px" y="0px"
	 viewBox="0 0 1792 1792" style="enable-background:new 0 0 1792 1792;" xml:space="preserve">
<style type="text/css">
	.st0{fill:#FFC000;}
</style>
<path class="st0" d="M710,1308c0,44-31,66-93,66c-71.3,0-107-21-107-63c0-42.7,32.7-64,98-64C676,1247,710,1267.3,710,1308z
	 M674,842c0,56.7-24.7,85-74,85c-51.3,0-77-28-77-84c0-60,25.7-90,77-90c24,0,42.3,8.5,55,25.5S674,816.7,674,842z M840,767V642
	c-52,19.3-97,29-135,29c-33.3-19.3-70-29-110-29c-57.3,0-105.7,19-145,57s-59,85.7-59,143c0,33.3,9.8,67.3,29.5,102s44.2,57,73.5,67
	v3c-25.3,11.3-38,39.7-38,85c0,35.3,13.7,61,41,77v3c-75.3,24.7-113,71-113,139c0,30,6.7,56.2,20,78.5s31.3,39.3,54,51
	s46.7,20.2,72,25.5s52.3,8,81,8c149.3,0,224-62.7,224-188c0-44.7-16-77.7-48-99s-74-36.7-126-46c-18-3.3-35.2-10.2-51.5-20.5
	S585,1104,585,1088c0-29.3,16.3-46.7,49-52c51.3-10,92-33.3,122-70s45-81.3,45-134c0-16-3.3-33.3-10-52C815.7,774,832,769.7,840,767
	z M899,1186h137c-1.3-18-2-45.3-2-82V717c0-30.7,0.7-53.7,2-69H899c2,15.3,3,39,3,71v392C902,1144.3,901,1169.3,899,1186z
	 M1408,1170v-121c-20,14-42.7,21-68,21c-35.3,0-53-27.3-53-82V763h52c6,0,14.8,0.3,26.5,1s20.5,1,26.5,1V648h-105
	c0-54.7,1-88.7,3-102h-140c2.7,16,4,34.3,4,55v47h-60v117c24-2,36.3-3,37-3c2,0,5.7,0.2,11,0.5s9.3,0.5,12,0.5v2h-2v217
	c0,24.7,0.8,46,2.5,64s5.5,36.8,11.5,56.5s14.2,35.8,24.5,48.5s24.8,23,43.5,31s40.7,12,66,12C1342.7,1194,1378.7,1186,1408,1170z
	 M1052,464c0-24-8-45.2-24-63.5S992,373,968,373s-44.2,9-60.5,27S883,439.3,883,464c0,24,8.3,44.8,25,62.5s36.7,26.5,60,26.5
	s43.2-9,59.5-27C1043.8,508,1052,487.3,1052,464z M1664,416v960c0,79.3-28.2,147.2-84.5,203.5S1455.3,1664,1376,1664H416
	c-79.3,0-147.2-28.2-203.5-84.5S128,1455.3,128,1376V416c0-79.3,28.2-147.2,84.5-203.5S336.7,128,416,128h960
	c79.3,0,147.2,28.2,203.5,84.5S1664,336.7,1664,416z"/>
</svg>
