<?xml version="1.0" encoding="utf-8"?>
<!-- Generator: Adobe Illustrator 21.1.0, SVG Export Plug-In . SVG Version: 6.00 Build 0)  -->
<svg version="1.1" id="Layer_1" xmlns="http://www.w3.org/2000/svg" xmlns:xlink="http://www.w3.org/1999/xlink" x="0px" y="0px"
	 viewBox="0 0 1792 1792" style="enable-background:new 0 0 1792 1792;" xml:space="preserve">
<style type="text/css">
	.st0{fill:#FFC000;}
</style>
<path class="st0" d="M595,1514c0-66.7-55-100-165-100c-105.3,0-158,34.7-158,104c0,67.3,57.3,101,172,101
	C544.7,1619,595,1584,595,1514z M536,759c0-40.7-10-74.7-30-102s-49.7-41-89-41c-82.7,0-124,48.3-124,145c0,90,41.3,135,124,135
	C496.3,896,536,850.3,536,759z M805,435v202c-24,8-50.3,15.3-79,22c10.7,28.7,16,56.7,16,84c0,84.7-24.3,156.8-73,216.5
	s-114.3,97.2-197,112.5c-26.7,5.3-46.5,14.3-59.5,27s-19.5,32-19.5,58c0,20.7,7.5,37.8,22.5,51.5s34.3,24.3,58,32s49.8,15,78.5,22
	s57.3,15.5,86,25.5s54.8,22.5,78.5,37.5s43,36.3,58,64S797,1450,797,1488c0,202.7-121,304-363,304c-46,0-89.3-4.2-130-12.5
	s-79.3-22-116-41s-65.8-46.3-87.5-82S68,1578.3,68,1529c0-110,60.7-185,182-225v-4c-44.7-27.3-67-69.3-67-126
	c0-72.7,21-118.3,63-137v-4c-48-16-87.8-52.2-119.5-108.5S79,813,79,759c0-92.7,31.7-169.8,95-231.5S315.7,435,409,435
	c64,0,123.3,15.7,178,47C652.3,482,725,466.3,805,435z M1123,1316H901c2.7-30,4-74.7,4-134V573c0-62.7-1.3-105.3-4-128h222
	c-2.7,22-4,63.3-4,124v613C1119,1241.3,1120.3,1286,1123,1316z M1724,1094v196c-47.3,26-105.3,39-174,39c-41.3,0-77-6.7-107-20
	s-53.3-30-70-50s-29.8-46-39.5-78s-15.8-62.7-18.5-92s-4-63.7-4-103V635h2v-4c-4.7,0-11-0.3-19-1s-14-1-18-1c-14,0-33.7,2-59,6V445
	h96v-76c0-36-2-65.7-6-89h227c-4,27.3-6,82.3-6,165h171v190c-10,0-24.5-0.7-43.5-2s-33.2-2-42.5-2h-85v365c0,87.3,29,131,87,131
	C1655.7,1127,1692,1116,1724,1094z M1148,147c0,38.7-13,72.5-39,101.5s-58,43.5-96,43.5c-38.7,0-71.3-14.5-98-43.5
	s-40-62.8-40-101.5c0-39.3,13.2-73.7,39.5-103S973.7,0,1013,0c38.7,0,70.8,14.8,96.5,44.5S1148,108.3,1148,147z"/>
</svg>
