<?xml version="1.0" encoding="utf-8"?>
<!-- Generator: Adobe Illustrator 21.1.0, SVG Export Plug-In . SVG Version: 6.00 Build 0)  -->
<svg version="1.1" id="Layer_1" xmlns="http://www.w3.org/2000/svg" xmlns:xlink="http://www.w3.org/1999/xlink" x="0px" y="0px"
	 viewBox="0 0 1792 1792" style="enable-background:new 0 0 1792 1792;" xml:space="preserve">
<style type="text/css">
	.st0{fill:#FFC000;}
</style>
<path class="st0" d="M1536,960c0-56-10.7-117-32-183s-42.7-130.7-64-194s-32-119-32-167v-32H768v32c0,23.3-4,45.8-12,67.5
	S735.7,526,719,546s-32,36.7-46,50s-32,29.7-54,49c-6,5.3-10.7,9.3-14,12c-54,48-102.3,85.3-145,112c-14.7,9.3-37.3,22-68,38
	c-2,0.7-9.5,4.2-22.5,10.5s-25,12.5-36,18.5s-22.8,12.7-35.5,20s-22.8,14.5-30.5,21.5S256,890.7,256,896
	c0,47.3,10.2,85.8,30.5,115.5c20.3,29.7,52.8,44.5,97.5,44.5c28.7,0,56.8-5,84.5-15s50.3-21,68-33s36-23,55-33s35.2-15,48.5-15v576
	c0,33.3,12.8,63,38.5,89s55.5,39,89.5,39c34.7,0,64.7-12.7,90-38s38-55.3,38-90v-331c30.7,23.3,65,35,103,35c46,0,85.7-17.7,119-53
	c21.3,12,44.3,18,69,18s49.2-5.8,73.5-17.5s41.8-27.5,52.5-47.5c16,2.7,34.7,4,56,4c56.7,0,98.7-16.2,126-48.5S1536,1018,1536,960z
	 M1408,192c0-17.3-6.3-32.3-19-45s-27.7-19-45-19s-32.3,6.3-45,19s-19,27.7-19,45s6.3,32.3,19,45s27.7,19,45,19s32.3-6.3,45-19
	S1408,209.3,1408,192z M1664,956c0,94.7-25.8,171.3-77.5,230s-124.2,87.7-217.5,87l-5-1c-50.7,40.7-110,61-178,61c-14.7,0-29-1-43-3
	c-36,20-75.7,32.3-119,37v169c0,70-25.3,130.2-76,180.5S837,1792,767,1792c-68.7,0-128.3-25.3-179-76s-76-110.7-76-180v-374
	c-36,14.7-78.7,22-128,22c-80.7,0-143.5-27.2-188.5-81.5S128,979.3,128,896c0-25.3,5.8-48.5,17.5-69.5s28.2-39.3,49.5-55
	s42.3-29.2,63-40.5s44.7-23.7,72-37s48-24.3,62-33c36.7-23.3,79.7-56.7,129-100c2-1.3,7.7-6,17-14s16.5-14.3,21.5-19
	s12.2-11.5,21.5-20.5s16.8-17,22.5-24s11.7-14.5,18-22.5s11-15.8,14-23.5s4.5-14.8,4.5-21.5V128c0-35.3,12.5-65.5,37.5-90.5
	S732.7,0,768,0h640c35.3,0,65.5,12.5,90.5,37.5S1536,92.7,1536,128v288c0,39.3,19.7,113.7,59,223C1641,765.7,1664,871.3,1664,956z"
	/>
</svg>
