<?xml version="1.0" encoding="utf-8"?>
<!-- Generator: Adobe Illustrator 21.1.0, SVG Export Plug-In . SVG Version: 6.00 Build 0)  -->
<svg version="1.1" id="Layer_1" xmlns="http://www.w3.org/2000/svg" xmlns:xlink="http://www.w3.org/1999/xlink" x="0px" y="0px"
	 viewBox="0 0 1792 1792" style="enable-background:new 0 0 1792 1792;" xml:space="preserve">
<style type="text/css">
	.st0{fill:#FFC000;}
</style>
<path class="st0" d="M896,384c-35.3,0-65.5,12.5-90.5,37.5S768,476.7,768,512v128h-32v-93c0-32-10.7-59.2-32-81.5S656,432,624,432
	c-30.7,0-57,11-79,33s-33,48.3-33,79v429l-32-30V771c0-32-10.7-59.2-32-81.5S400,656,368,656c-30.7,0-57,11-79,33s-33,48.3-33,79
	v224c0,31.3,11.7,58.7,35,82l310,296c26,26,39,60,39,102c0,17.3,6.3,32.3,19,45s27.7,19,45,19h640c17.3,0,32.3-6.3,45-19
	s19-27.7,19-45v-25c0-27.3,3.3-53,10-77l108-436c6.7-24,10-49.7,10-77V611c0-32-10.7-59.2-32-81.5s-48-33.5-80-33.5
	c-30.7,0-57,11-79,33s-33,48.3-33,79v32h-32V515c0-26.7-8.3-50.8-25-72.5s-38-35.2-64-40.5c-9.3-1.3-17-2-23-2c-30.7,0-57,11-79,33
	s-33,48.3-33,79v128h-32V518c0-34-10.8-63.8-32.5-89.5S942.3,388.3,909,385C905.7,384.3,901.3,384,896,384z M896,256
	c56,0,105.7,16.7,149,50c38-22.7,79-34,123-34c39.3,0,76.3,9,111,27s63.3,43.3,86,76c18-4.7,37.7-7,59-7c66.7,0,123.3,23.8,170,71.5
	s70,104.8,70,171.5v246c0,34-4.3,70-13,108l-109,436c-4,16-6,39.7-6,71c0,53.3-18.7,98.7-56,136s-82.7,56-136,56H704
	c-56,0-102-19.5-138-58.5s-54-86.5-54-142.5l-308-296c-50.7-48.7-76-107-76-175V768c0-66,23.5-122.5,70.5-169.5S302,528,368,528
	c7.3,0,12.7,0.3,16,1c4-63.3,29.2-116.7,75.5-160s101.2-65,164.5-65c34.7,0,67.3,7,98,21C770,279,828,256,896,256z"/>
</svg>
