<?xml version="1.0" encoding="utf-8"?>
<!-- Generator: Adobe Illustrator 21.1.0, SVG Export Plug-In . SVG Version: 6.00 Build 0)  -->
<svg version="1.1" id="Layer_1" xmlns="http://www.w3.org/2000/svg" xmlns:xlink="http://www.w3.org/1999/xlink" x="0px" y="0px"
	 viewBox="0 0 1792 1792" style="enable-background:new 0 0 1792 1792;" xml:space="preserve">
<style type="text/css">
	.st0{fill:#FFC000;}
</style>
<path class="st0" d="M991,1024l64-256H801l-64,256H991z M1759,520l-56,224c-4.7,16-15,24-31,24h-327l-64,256h311c10,0,18.3,4,25,12
	c6.7,9.3,8.7,18.7,6,28l-56,224c-3.3,16-13.7,24-31,24h-327l-81,328c-4.7,16-15,24-31,24H873c-10.7,0-19.3-4-26-12c-6-8-8-17.3-6-28
	l78-312H665l-81,328c-4.7,16-15,24-31,24H328c-10,0-18.3-4-25-12c-6-8-8-17.3-6-28l78-312H64c-10,0-18.3-4-25-12c-6-8-8-17.3-6-28
	l56-224c4.7-16,15-24,31-24h327l64-256H200c-10,0-18.3-4-25-12c-6.7-9.3-8.7-18.7-6-28l56-224c3.3-16,13.7-24,31-24h327l81-328
	c4.7-16,15.3-24,32-24h224c10,0,18.3,4,25,12c6,8,8,17.3,6,28l-78,312h254l81-328c4.7-16,15.3-24,32-24h224c10,0,18.3,4,25,12
	c6,8,8,17.3,6,28l-78,312h311c10,0,18.3,4,25,12C1759,500,1761,509.3,1759,520z"/>
</svg>
