<?xml version="1.0" encoding="utf-8"?>
<!-- Generator: Adobe Illustrator 21.1.0, SVG Export Plug-In . SVG Version: 6.00 Build 0)  -->
<svg version="1.1" id="Layer_1" xmlns="http://www.w3.org/2000/svg" xmlns:xlink="http://www.w3.org/1999/xlink" x="0px" y="0px"
	 viewBox="0 0 1792 1792" style="enable-background:new 0 0 1792 1792;" xml:space="preserve">
<style type="text/css">
	.st0{fill:#FFC000;}
</style>
<path class="st0" d="M1672,772c74,30.7,133.8,79.2,179.5,145.5s68.5,140.2,68.5,221.5c0,109.3-39.3,202.8-118,280.5
	S1628.3,1536,1517,1536c-2.7,0-6.5-0.2-11.5-0.5s-8.5-0.5-10.5-0.5H278c-113.3-6.7-209.3-48.5-288-125.5S-128,1239-128,1129
	c0-73.3,18.3-141,55-203S12.7,815,74,779c-8-26-12-53.3-12-82c0-76.7,27.3-142,82-196s121-81,199-81c63.3,0,120.7,19.3,172,58
	c50-102.7,124.2-185.3,222.5-248s207.2-94,326.5-94c110.7,0,212.7,26.8,306,80.5S1537.2,343,1591.5,435s81.5,192.3,81.5,301
	c0,4-0.2,10-0.5,18S1672,768,1672,772z M340,1038c0,81.3,28,145.7,84,193s125.3,71,208,71c91.3,0,171.3-33,240-99
	c-10.7-13.3-26.5-32.2-47.5-56.5S789,1105.3,781,1096c-44.7,43.3-92.7,65-144,65c-36.7,0-67.8-11.2-93.5-33.5S505,1076,505,1040
	c0-35.3,12.8-64.3,38.5-87s56.2-34,91.5-34c29.3,0,57.5,7,84.5,21s51.3,32.3,73,55s43.3,47.7,65,75s44.7,54.7,69,82s50,52.3,77,75
	s59.3,41,97,55s78.2,21,121.5,21c80.7,0,148.8-23.8,204.5-71.5s83.5-111.2,83.5-190.5c0-80.7-28-144.7-84-192s-125-71-207-71
	c-95.3,0-175.7,32.3-241,97c9.3,10.7,19.2,22,29.5,34s21.8,25.3,34.5,40s22.3,26,29,34c44-42.7,91.3-64,142-64c34.7,0,65.3,11,92,33
	s40,50,40,84c0,38-12.3,68.5-37,91.5s-56,34.5-94,34.5c-28.7,0-56.2-7-82.5-21s-50.3-32.3-72-55s-43.5-47.7-65.5-75
	c-22-27.3-45.2-54.7-69.5-82s-50.2-52.3-77.5-75s-59.5-41-96.5-55S674,778,632,778c-81.3,0-150.3,23.5-207,70.5S340,958.7,340,1038z
	"/>
</svg>
