<?xml version="1.0" encoding="utf-8"?>
<!-- Generator: Adobe Illustrator 21.1.0, SVG Export Plug-In . SVG Version: 6.00 Build 0)  -->
<svg version="1.1" id="Layer_1" xmlns="http://www.w3.org/2000/svg" xmlns:xlink="http://www.w3.org/1999/xlink" x="0px" y="0px"
	 viewBox="0 0 1792 1792" style="enable-background:new 0 0 1792 1792;" xml:space="preserve">
<style type="text/css">
	.st0{fill:#FFC000;}
</style>
<path class="st0" d="M782,1078c-0.7,2-4.8,1.8-12.5-0.5s-18.2-6.2-31.5-11.5l-20-9c-29.3-13.3-58.3-29.7-87-49
	c-4.7-3.3-18.3-13.8-41-31.5s-35.3-27.2-38-28.5c-44.7,68.7-89.3,129-134,181c-54,63.3-89,100-105,110c-2.7,1.3-9.2,2.7-19.5,4
	s-16.5,1.3-18.5,0c4-2.7,31.3-33.3,82-92c14-16,42.5-54.3,85.5-115c43-60.7,69.2-100,78.5-118c11.3-20,28.3-52.8,51-98.5
	s34.7-71.5,36-77.5c-5.3-0.7-42,10.3-110,33c-5.3,1.3-14.5,3.8-27.5,7.5S446,789.3,436,792s-15.7,4.3-17,5c-1.3,1.3-2,4.8-2,10.5
	s-0.3,8.8-1,9.5c-3.3,6.7-13.7,11.7-31,15c-15.3,4.7-31,4.7-47,0c-12-2.7-21.3-9.7-28-21c-2.7-4-4.3-11.7-5-23c4-1.3,12.2-3,24.5-5
	s22.2-4,29.5-6c38.7-10.7,73.7-21.3,105-32c66.7-23.3,100.7-35,102-35c6.7-1.3,21-7.8,43-19.5s36.7-18.8,44-21.5
	c6-2,13.2-4.7,21.5-8s13.2-5.2,14.5-5.5s3.3-0.2,6,0.5c1.3,8,1,19-1,33c0,1.3-4.2,10.3-12.5,27s-17.2,34.5-26.5,53.5
	s-15,30.2-17,33.5c-16.7,33.3-42.3,77-77,131l64,28c8,4,32.8,14.7,74.5,32s64.2,26.7,67.5,28c2.7,0.7,6.2,9.2,10.5,25.5
	S783.3,1074,782,1078z M577,592c2,10,0.7,19.3-4,28c-8,15.3-24.7,28-50,38c-20,8-40,12-60,12c-17.3-2-33.7-10.7-49-26
	c-9.3-10-15.3-23.7-18-41l1-3c2,2,8.5,3.7,19.5,5s19.8,1.3,26.5,0s26-6.7,58-16c24-8,42.3-12.7,55-14C567.3,575,574.3,580.7,577,592
	z M1275,721l63,227l-139-42L1275,721z M167,1521l694-232V257L167,490V1521z M1408,1204l102,31l-181-657l-100-31l-216,536l102,31
	l45-110l211,65L1408,1204z M905,242l573,184V46L905,242z M1216,1565l158,13l-54,160l-40-66c-86.7,55.3-178.7,91.3-276,108
	c-38.7,8-69,12-91,12h-84c-52.7,0-119.2-13-199.5-39S488,1698.7,446,1668c-5.3-4.7-8-10-8-16c0-5.3,1.7-9.8,5-13.5s7.7-5.5,13-5.5
	c2.7,0,8.7,2.5,18,7.5s19.5,10.5,30.5,16.5s17.8,9.7,20.5,11c48.7,24.7,101.8,45.2,159.5,61.5S794.7,1754,842,1754
	c63.3,0,119-4.8,167-14.5s100.3-26.5,157-50.5c10-4.7,20.2-9.8,30.5-15.5s21.7-12,34-19s21.8-12.5,28.5-16.5L1216,1565z M1664,486
	v1079l-774-246c-9.3,4-134.3,46.5-375,127.5S151.7,1568,147,1568c-8.7,0-14.7-4.3-18-13c0-0.7-0.3-1.7-1-3V474c2-6,3.3-9.3,4-10
	c3.3-4,10-7.7,20-11c70.7-23.3,120.3-40,149-50V19l558,198c1.3,0,54.8-18.3,160.5-55s211-72.8,316-108.5S1494.3,0,1497,0
	c13.3,0,20,7,20,21v418L1664,486z"/>
</svg>
