<?xml version="1.0" encoding="utf-8"?>
<!-- Generator: Adobe Illustrator 21.1.0, SVG Export Plug-In . SVG Version: 6.00 Build 0)  -->
<svg version="1.1" id="Layer_1" xmlns="http://www.w3.org/2000/svg" xmlns:xlink="http://www.w3.org/1999/xlink" x="0px" y="0px"
	 viewBox="0 0 1792 1792" style="enable-background:new 0 0 1792 1792;" xml:space="preserve">
<style type="text/css">
	.st0{fill:#FFC000;}
</style>
<path class="st0" d="M1765,392l155,1272c-87.3,0-173-19-257-57c-133.3-60.7-264.3-91-393-91c-150.7,0-275.3,49.3-374,148
	c-98.7-98.7-223.3-148-374-148c-128.7,0-259.7,30.3-393,91c-85.3,38-169.3,57-252,57h-5L27,392c149.3-84.7,310-127,482-127
	c155.3,0,284.3,35.3,387,106c102.7-70.7,231.7-106,387-106C1455,265,1615.7,307.3,1765,392z M1270,1379c86,0,163.3,9.5,232,28.5
	s155.3,50.2,260,93.5L1638,480c-114-52-236.7-78-368-78c-149.3,0-274,47-374,141c-100-94-224.7-141-374-141c-131.3,0-254,26-368,78
	L30,1501c70-28.7,125.2-50.3,165.5-65s89.8-27.8,148.5-39.5s118-17.5,178-17.5c134.7,0,259.3,36,374,108
	C1010.7,1415,1135.3,1379,1270,1379z M1310,1345l-55-907c-140.7,2.7-260.3,54.3-359,155C794.7,489.7,670,438,522,438
	c-117.3,0-229.3,22-336,66L72,1445c82.7-34,158.8-59.3,228.5-76s143.5-25,221.5-25c139.3,0,264,34,374,102
	c114.7-71.3,239.3-105.3,374-102L1310,1345z"/>
</svg>
