<?xml version="1.0" encoding="utf-8"?>
<!-- Generator: Adobe Illustrator 21.1.0, SVG Export Plug-In . SVG Version: 6.00 Build 0)  -->
<svg version="1.1" id="Layer_1" xmlns="http://www.w3.org/2000/svg" xmlns:xlink="http://www.w3.org/1999/xlink" x="0px" y="0px"
	 viewBox="0 0 1792 1792" style="enable-background:new 0 0 1792 1792;" xml:space="preserve">
<style type="text/css">
	.st0{fill:#FFC000;}
</style>
<path class="st0" d="M1535,826c0-29.3-2.3-67.2-7-113.5s-10.7-78.5-18-96.5c-8-20-13.7-34.7-17-44s-6.3-21.5-9-36.5s-4-31.2-4-48.5
	c0-15.3,1.7-38.2,5-68.5s5-52.8,5-67.5c0-24.7-3.3-43-10-55c-2.7-0.7-7-1-13-1c-12.7,0-32,1.5-58,4.5s-45.7,4.5-59,4.5
	c-40,0-98.7-8-176-24s-135.7-24-175-24c-28.7,0-60.2,3.8-94.5,11.5s-62.7,15.5-85,23.5s-52.2,19.3-89.5,34
	c-91.3,36-158.7,70.3-202,103c-64,48.7-117.2,111.8-159.5,189.5s-71.7,156.3-88,236S256,1016,256,1102c0,26.7,4.2,66.7,12.5,120
	s12.5,93.7,12.5,121c0,15.3-3.7,37.5-11,66.5s-11,50.8-11,65.5s4,26.8,12,36.5s19.3,14.5,34,14.5c16,0,40.2-3.7,72.5-11
	s56.8-11,73.5-11c38,0,94.5,5.2,169.5,15.5S752,1535,790,1535c120.7,0,215.3-12,284-36c86-30,164.5-80.8,235.5-152.5
	s126.3-153.5,166-245.5S1535,917.3,1535,826z M1663,824c0,110-23.3,219.2-70,327.5s-112,204.3-196,288s-177.7,143.8-281,180.5
	c-82.7,29.3-191.3,44-326,44c-38,0-94.7-4.8-170-14.5S488.3,1635,451,1635c-16,0-40.2,4.8-72.5,14.5S321.7,1664,305,1664
	c-48.7,0-89.8-18.5-123.5-55.5S131,1528.7,131,1480c0-16,3.7-38.7,11-68s11-51.7,11-67c0-26.7-4.2-66.8-12.5-120.5
	S128,1130.3,128,1103c0-74,6-146.5,18-217.5s30.2-140.8,54.5-209.5S258.3,542.7,301,482s92.7-112.7,150-156
	c52-39.3,129.3-79.3,232-120c129.3-52,234.7-78,316-78c40,0,98.5,8,175.5,24s134.8,24,173.5,24c12.7,0,31.7-1.7,57-5s44.7-5,58-5
	c54,0,93.3,16.8,118,50.5s37,78.5,37,134.5c0,15.3-1.7,38-5,68s-5,52.7-5,68c0,6.7,0.3,12.8,1,18.5s1.7,11.3,3,17s2.7,10.2,4,13.5
	s3.5,8.7,6.5,16s5.2,13,6.5,17c10.7,26.7,19,66.2,25,118.5S1663,785.3,1663,824z"/>
</svg>
