<?xml version="1.0" encoding="utf-8"?>
<!-- Generator: Adobe Illustrator 21.1.0, SVG Export Plug-In . SVG Version: 6.00 Build 0)  -->
<svg version="1.1" id="Layer_1" xmlns="http://www.w3.org/2000/svg" xmlns:xlink="http://www.w3.org/1999/xlink" x="0px" y="0px"
	 viewBox="0 0 1792 1792" style="enable-background:new 0 0 1792 1792;" xml:space="preserve">
<style type="text/css">
	.st0{fill:#FFC000;}
</style>
<path class="st0" d="M1920,1536v128H-128V128H0v1408H1920z M1792,288v435c0,14-6.5,23.8-19.5,29.5s-24.8,3.2-35.5-7.5l-121-121
	l-633,633c-6.7,6.7-14.3,10-23,10s-16.3-3.3-23-10l-233-233l-416,416L96,1248l585-585c6.7-6.7,14.3-10,23-10s16.3,3.3,23,10l233,233
	l464-464l-121-121c-10.7-10.7-13.2-22.5-7.5-35.5S1311,256,1325,256h435c9.3,0,17,3,23,9S1792,278.7,1792,288z"/>
</svg>
