<?xml version="1.0" encoding="utf-8"?>
<!-- Generator: Adobe Illustrator 21.1.0, SVG Export Plug-In . SVG Version: 6.00 Build 0)  -->
<svg version="1.1" id="Layer_1" xmlns="http://www.w3.org/2000/svg" xmlns:xlink="http://www.w3.org/1999/xlink" x="0px" y="0px"
	 viewBox="0 0 1792 1792" style="enable-background:new 0 0 1792 1792;" xml:space="preserve">
<style type="text/css">
	.st0{fill:#FFC000;}
</style>
<path class="st0" d="M477,625v991H147V625H477z M498,319c0.7,48.7-16.2,89.3-50.5,122S368,490,312,490h-2c-54.7,0-98.7-16.3-132-49
	s-50-73.3-50-122c0-49.3,17.2-90.2,51.5-122.5S258.7,148,314,148s99.7,16.2,133,48.5S497.3,269.7,498,319z M1664,1048v568h-329v-530
	c0-70-13.5-124.8-40.5-164.5S1225.3,862,1168,862c-42,0-77.2,11.5-105.5,34.5S1013,948,999,982c-7.3,20-11,47-11,81v553H659
	c1.3-266,2-481.7,2-647s-0.3-264-1-296l-1-48h329v144h-2c13.3-21.3,27-40,41-56s32.8-33.3,56.5-52s52.7-33.2,87-43.5
	S1243,602,1285,602c114,0,205.7,37.8,275,113.5S1664,902,1664,1048z"/>
</svg>
