<?xml version="1.0" encoding="utf-8"?>
<!-- Generator: Adobe Illustrator 21.1.0, SVG Export Plug-In . SVG Version: 6.00 Build 0)  -->
<svg version="1.1" id="Layer_1" xmlns="http://www.w3.org/2000/svg" xmlns:xlink="http://www.w3.org/1999/xlink" x="0px" y="0px"
	 viewBox="0 0 1792 1792" style="enable-background:new 0 0 1792 1792;" xml:space="preserve">
<style type="text/css">
	.st0{fill:#FFC000;}
</style>
<path class="st0" d="M384,1408c0,53.3-18.7,98.7-56,136s-82.7,56-136,56s-98.7-18.7-136-56s-56-82.7-56-136s18.7-98.7,56-136
	s82.7-56,136-56s98.7,18.7,136,56S384,1354.7,384,1408z M384,896c0,53.3-18.7,98.7-56,136c-37.3,37.3-82.7,56-136,56
	s-98.7-18.7-136-56C18.7,994.7,0,949.3,0,896s18.7-98.7,56-136s82.7-56,136-56s98.7,18.7,136,56S384,842.7,384,896z M1792,1312v192
	c0,8.7-3.2,16.2-9.5,22.5s-13.8,9.5-22.5,9.5H544c-8.7,0-16.2-3.2-22.5-9.5s-9.5-13.8-9.5-22.5v-192c0-8.7,3.2-16.2,9.5-22.5
	s13.8-9.5,22.5-9.5h1216c8.7,0,16.2,3.2,22.5,9.5S1792,1303.3,1792,1312z M384,384c0,53.3-18.7,98.7-56,136s-82.7,56-136,56
	s-98.7-18.7-136-56S0,437.3,0,384s18.7-98.7,56-136s82.7-56,136-56s98.7,18.7,136,56S384,330.7,384,384z M1792,800v192
	c0,8.7-3.2,16.2-9.5,22.5s-13.8,9.5-22.5,9.5H544c-8.7,0-16.2-3.2-22.5-9.5s-9.5-13.8-9.5-22.5V800c0-8.7,3.2-16.2,9.5-22.5
	s13.8-9.5,22.5-9.5h1216c8.7,0,16.2,3.2,22.5,9.5S1792,791.3,1792,800z M1792,288v192c0,8.7-3.2,16.2-9.5,22.5s-13.8,9.5-22.5,9.5
	H544c-8.7,0-16.2-3.2-22.5-9.5S512,488.7,512,480V288c0-8.7,3.2-16.2,9.5-22.5s13.8-9.5,22.5-9.5h1216c8.7,0,16.2,3.2,22.5,9.5
	S1792,279.3,1792,288z"/>
</svg>
