<?xml version="1.0" encoding="utf-8"?>
<!-- Generator: Adobe Illustrator 21.1.0, SVG Export Plug-In . SVG Version: 6.00 Build 0)  -->
<svg version="1.1" id="Layer_1" xmlns="http://www.w3.org/2000/svg" xmlns:xlink="http://www.w3.org/1999/xlink" x="0px" y="0px"
	 viewBox="0 0 1792 1792" style="enable-background:new 0 0 1792 1792;" xml:space="preserve">
<style type="text/css">
	.st0{fill:#FFC000;}
</style>
<path class="st0" d="M640,768h512V576c0-70.7-25-131-75-181s-110.3-75-181-75s-131,25-181,75s-75,110.3-75,181V768z M1472,864v576
	c0,26.7-9.3,49.3-28,68s-41.3,28-68,28H416c-26.7,0-49.3-9.3-68-28s-28-41.3-28-68V864c0-26.7,9.3-49.3,28-68s41.3-28,68-28h32V576
	c0-122.7,44-228,132-316s193.3-132,316-132s228,44,316,132s132,193.3,132,316v192h32c26.7,0,49.3,9.3,68,28S1472,837.3,1472,864z"/>
</svg>
