<?xml version="1.0" encoding="utf-8"?>
<!-- Generator: Adobe Illustrator 21.1.0, SVG Export Plug-In . SVG Version: 6.00 Build 0)  -->
<svg version="1.1" id="Layer_1" xmlns="http://www.w3.org/2000/svg" xmlns:xlink="http://www.w3.org/1999/xlink" x="0px" y="0px"
	 viewBox="0 0 1792 1792" style="enable-background:new 0 0 1792 1792;" xml:space="preserve">
<style type="text/css">
	.st0{fill:#FFC000;}
</style>
<path class="st0" d="M1792,640c0,17.3-6.3,32.3-19,45l-512,512c-12.7,12.7-27.7,19-45,19s-32.3-6.3-45-19s-19-27.7-19-45V896H928
	c-65.3,0-123.8,2-175.5,6s-103,11.2-154,21.5s-95.3,24.5-133,42.5s-72.8,41.2-105.5,69.5c-32.7,28.3-59.3,62-80,101
	s-36.8,85.2-48.5,138.5S214,1388.7,214,1456c0,36.7,1.7,77.7,5,123c0,4,0.8,11.8,2.5,23.5s2.5,20.5,2.5,26.5c0,10-2.8,18.3-8.5,25
	s-13.5,10-23.5,10c-10.7,0-20-5.7-28-17c-4.7-6-9-13.3-13-22s-8.5-18.7-13.5-30s-8.5-19.3-10.5-24C42.3,1381,0,1230.7,0,1120
	c0-132.7,17.7-243.7,53-333c108-268.7,399.7-403,875-403h224V128c0-17.3,6.3-32.3,19-45s27.7-19,45-19s32.3,6.3,45,19l512,512
	C1785.7,607.7,1792,622.7,1792,640z"/>
</svg>
