<?xml version="1.0" encoding="utf-8"?>
<!-- Generator: Adobe Illustrator 21.1.0, SVG Export Plug-In . SVG Version: 6.00 Build 0)  -->
<svg version="1.1" id="Layer_1" xmlns="http://www.w3.org/2000/svg" xmlns:xlink="http://www.w3.org/1999/xlink" x="0px" y="0px"
	 viewBox="0 0 1792 1792" style="enable-background:new 0 0 1792 1792;" xml:space="preserve">
<style type="text/css">
	.st0{fill:#FFC000;}
</style>
<path class="st0" d="M1152,640c0-70.7-25-131-75-181s-110.3-75-181-75s-131,25-181,75s-75,110.3-75,181s25,131,75,181
	s110.3,75,181,75s131-25,181-75S1152,710.7,1152,640z M1408,640c0,72.7-11,132.3-33,179l-364,774c-10.7,22-26.5,39.3-47.5,52
	s-43.5,19-67.5,19s-46.5-6.3-67.5-19s-36.5-30-46.5-52L417,819c-22-46.7-33-106.3-33-179c0-141.3,50-262,150-362s220.7-150,362-150
	s262,50,362,150S1408,498.7,1408,640z"/>
</svg>
