<?xml version="1.0" encoding="utf-8"?>
<!-- Generator: Adobe Illustrator 21.1.0, SVG Export Plug-In . SVG Version: 6.00 Build 0)  -->
<svg version="1.1" id="Layer_1" xmlns="http://www.w3.org/2000/svg" xmlns:xlink="http://www.w3.org/1999/xlink" x="0px" y="0px"
	 viewBox="0 0 1792 1792" style="enable-background:new 0 0 1792 1792;" xml:space="preserve">
<style type="text/css">
	.st0{fill:#FFC000;}
</style>
<path class="st0" d="M1600,128c17.3,0,32.3,6.3,45,19s19,27.7,19,45v416c0,9.3-3,17-9,23s-13.7,9-23,9h-64c-9.3,0-17-3-23-9
	s-9-13.7-9-23V346l-382,383c84,104,126,223.7,126,359c0,78-15.2,152.5-45.5,223.5s-71.3,132.3-123,184s-113,92.7-184,123
	S782,1664,704,1664s-152.5-15.2-223.5-45.5s-132.3-71.3-184-123s-92.7-113-123-184S128,1166,128,1088s15.2-152.5,45.5-223.5
	s71.3-132.3,123-184s113-92.7,184-123S626,512,704,512c135.3,0,255,42,359,126l382-382h-261c-9.3,0-17-3-23-9s-9-13.7-9-23v-64
	c0-9.3,3-17,9-23s13.7-9,23-9H1600z M704,1536c123.3,0,228.8-43.8,316.5-131.5S1152,1211.3,1152,1088s-43.8-228.8-131.5-316.5
	S827.3,640,704,640s-228.8,43.8-316.5,131.5S256,964.7,256,1088s43.8,228.8,131.5,316.5S580.7,1536,704,1536z"/>
</svg>
