<?xml version="1.0" encoding="utf-8"?>
<!-- Generator: Adobe Illustrator 21.1.0, SVG Export Plug-In . SVG Version: 6.00 Build 0)  -->
<svg version="1.1" id="Layer_1" xmlns="http://www.w3.org/2000/svg" xmlns:xlink="http://www.w3.org/1999/xlink" x="0px" y="0px"
	 viewBox="0 0 1792 1792" style="enable-background:new 0 0 1792 1792;" xml:space="preserve">
<style type="text/css">
	.st0{fill:#FFC000;}
</style>
<path class="st0" d="M1439,842v114c0,16-4.5,28.7-13.5,38s-21.5,14-37.5,14h-202c-16,0-28.7-4.7-38-14s-14-22-14-38V842
	c0-16,4.7-28.7,14-38s22-14,38-14h202c16,0,28.5,4.7,37.5,14S1439,826,1439,842z M949,1072V822c0-35.3-10.8-63.8-32.5-85.5
	S866.3,704,831,704H698c-45.3,0-77.3,17.3-96,52c-18.7-34.7-50.7-52-96-52H376c-35.3,0-63.8,10.8-85.5,32.5S258,786.7,258,822v250
	c0,14.7,7,22,21,22h55c14.7,0,22-7.3,22-22V842c0-16,4.5-28.7,13.5-38s21.8-14,38.5-14h94c16,0,28.7,4.7,38,14s14,22,14,38v230
	c0,14.7,7,22,21,22h54c14.7,0,22-7.3,22-22V842c0-16,4.7-28.7,14-38s22-14,38-14h97c16,0,28.5,4.7,37.5,14s13.5,22,13.5,38v230
	c0,14.7,7.3,22,22,22h55C942,1094,949,1086.7,949,1072z M1538,976V822c0-35.3-11-63.8-33-85.5s-50.7-32.5-86-32.5h-264
	c-35.3,0-64,10.8-86,32.5s-33,50.2-33,85.5v410c0,14,7.3,21,22,21h55c14,0,21-7,21-21v-180c20.7,28,52,42,94,42h191
	c35.3,0,64-10.8,86-32.5S1538,1011.3,1538,976z M1664,360v1072c0,64-22.7,118.7-68,164s-100,68-164,68H360c-64,0-118.7-22.7-164-68
	s-68-100-68-164V360c0-64,22.7-118.7,68-164s100-68,164-68h1072c64,0,118.7,22.7,164,68S1664,296,1664,360z"/>
</svg>
