<?xml version="1.0" encoding="utf-8"?>
<!-- Generator: Adobe Illustrator 21.1.0, SVG Export Plug-In . SVG Version: 6.00 Build 0)  -->
<svg version="1.1" id="Layer_1" xmlns="http://www.w3.org/2000/svg" xmlns:xlink="http://www.w3.org/1999/xlink" x="0px" y="0px"
	 viewBox="0 0 1792 1792" style="enable-background:new 0 0 1792 1792;" xml:space="preserve">
<style type="text/css">
	.st0{fill:#FFC000;}
</style>
<path class="st0" d="M597,421v1173c0,16.7-4.2,30.8-12.5,42.5S564,1654,548,1654c-11.3,0-22.3-2.7-33-8L50,1413
	c-14-6.7-25.8-17.8-35.5-33.5S0,1348.3,0,1333V193c0-13.3,3.3-24.7,10-34s16.3-14,29-14c9.3,0,24,5,44,15l511,256
	C596,418,597,419.7,597,421z M661,522l534,866l-534-266V522z M1792,540v1054c0,16.7-4.7,30.2-14,40.5s-22,15.5-38,15.5
	s-31.7-4.3-47-13l-441-220L1792,540z M1789,420c0,2-85.5,141.8-256.5,419.5S1261.3,1279.7,1232,1327L842,693l324-527
	c11.3-18.7,28.7-28,52-28c9.3,0,18,2,26,6l541,270C1787.7,415.3,1789,417.3,1789,420z"/>
</svg>
