<?xml version="1.0" encoding="utf-8"?>
<!-- Generator: Adobe Illustrator 21.1.0, SVG Export Plug-In . SVG Version: 6.00 Build 0)  -->
<svg version="1.1" id="Layer_1" xmlns="http://www.w3.org/2000/svg" xmlns:xlink="http://www.w3.org/1999/xlink" x="0px" y="0px"
	 viewBox="0 0 1792 1792" style="enable-background:new 0 0 1792 1792;" xml:space="preserve">
<style type="text/css">
	.st0{fill:#FFC000;}
</style>
<path class="st0" d="M1280,1088c0,17.3-6.3,32.3-19,45s-27.7,19-45,19H576c-17.3,0-32.3-6.3-45-19s-19-27.7-19-45s6.3-32.3,19-45
	s27.7-19,45-19h640c17.3,0,32.3,6.3,45,19S1280,1070.7,1280,1088z M768,640c0,35.3-12.5,65.5-37.5,90.5S675.3,768,640,768
	s-65.5-12.5-90.5-37.5S512,675.3,512,640s12.5-65.5,37.5-90.5S604.7,512,640,512s65.5,12.5,90.5,37.5S768,604.7,768,640z M1280,640
	c0,35.3-12.5,65.5-37.5,90.5S1187.3,768,1152,768s-65.5-12.5-90.5-37.5S1024,675.3,1024,640s12.5-65.5,37.5-90.5
	s55.2-37.5,90.5-37.5s65.5,12.5,90.5,37.5S1280,604.7,1280,640z M1536,896c0-86.7-17-169.5-51-248.5s-79.5-147-136.5-204
	s-125-102.5-204-136.5S982.7,256,896,256s-169.5,17-248.5,51s-147,79.5-204,136.5S341,568.5,307,647.5S256,809.3,256,896
	s17,169.5,51,248.5s79.5,147,136.5,204s125,102.5,204,136.5s161.8,51,248.5,51s169.5-17,248.5-51s147-79.5,204-136.5
	s102.5-125,136.5-204S1536,982.7,1536,896z M1664,896c0,139.3-34.3,267.8-103,385.5s-161.8,210.8-279.5,279.5s-246.2,103-385.5,103
	s-267.8-34.3-385.5-103S299.7,1399.2,231,1281.5S128,1035.3,128,896s34.3-267.8,103-385.5S392.8,299.7,510.5,231S756.7,128,896,128
	s267.8,34.3,385.5,103s210.8,161.8,279.5,279.5S1664,756.7,1664,896z"/>
</svg>
