<?xml version="1.0" encoding="utf-8"?>
<!-- Generator: Adobe Illustrator 21.1.0, SVG Export Plug-In . SVG Version: 6.00 Build 0)  -->
<svg version="1.1" id="Layer_1" xmlns="http://www.w3.org/2000/svg" xmlns:xlink="http://www.w3.org/1999/xlink" x="0px" y="0px"
	 viewBox="0 0 1792 1792" style="enable-background:new 0 0 1792 1792;" xml:space="preserve">
<style type="text/css">
	.st0{fill:#FFC000;}
</style>
<path class="st0" d="M1389,1098c0-39.3-11.3-74.8-34-106.5s-51.7-54.5-87-68.5c-4.7,30-12.3,60.7-23,92c-4.7,16-13.8,28.7-27.5,38
	s-28.5,14-44.5,14c-8,0-16-1-24-3c-20.7-6.7-35.7-19.5-45-38.5s-10.7-38.5-4-58.5c15.3-47.3,23-95,23-143c0-82-20.3-157.8-61-227.5
	c-40.7-69.7-96-124.8-166-165.5s-146-61-228-61c-89.3,0-171.7,24.3-247,73S290,556.3,254,637c72,18.7,134.7,54,188,106
	c14.7,15.3,22,33.7,22,55s-7.3,39.3-22,54s-32.7,22-54,22s-39.7-7.3-55-22c-50-50-110-75-180-75c-70.7,0-131,24.8-181,74.5
	s-75,109.8-75,180.5s25,130.8,75,180.5S82.3,1287,153,1287h1046c52.7,0,97.5-18.5,134.5-55.5S1389,1150,1389,1098z M1542,1098
	c0,94.7-33.5,175.3-100.5,242s-147.8,100-242.5,100H153c-112.7,0-209-39.8-289-119.5s-120-175.8-120-288.5c0-102,33.3-191,100-267
	S-6.3,643.7,93,629c41.3-122.7,115-222,221-298s224-114,354-114c156.7,0,292.8,52.8,408.5,158.5S1257.7,611,1273,765
	c77.3,16.7,141.5,56.2,192.5,118.5S1542,1017.3,1542,1098z M1792,1098c0,116.7-32.3,223-97,319c-15.3,22-36.7,33-64,33
	c-16,0-30.3-4.3-43-13c-17.3-11.3-28-27.5-32-48.5s0-40.2,12-57.5c47.3-69.3,71-147,71-233s-23.7-163.7-71-233
	c-12-17.3-16-36.3-12-57s14.7-37,32-49s36.5-15.8,57.5-11.5s37.5,15.2,49.5,32.5C1759.7,874.7,1792,980.7,1792,1098z M2048,1098
	c0,162.7-44.7,310.3-134,443c-15.3,22.7-36.7,34-64,34c-15.3,0-29.3-4.3-42-13c-17.3-12-28.2-28.3-32.5-49s-0.5-39.7,11.5-57
	c72-109.3,108-228.7,108-358c0-130-36-249-108-357c-12-17.3-15.8-36.5-11.5-57.5s15.2-37.2,32.5-48.5c17.3-12,36.3-16,57-12
	s37,15,49,33C2003.3,788,2048,935.3,2048,1098z"/>
</svg>
