<?xml version="1.0" encoding="utf-8"?>
<!-- Generator: Adobe Illustrator 21.1.0, SVG Export Plug-In . SVG Version: 6.00 Build 0)  -->
<svg version="1.1" id="Layer_1" xmlns="http://www.w3.org/2000/svg" xmlns:xlink="http://www.w3.org/1999/xlink" x="0px" y="0px"
	 viewBox="0 0 1792 1792" style="enable-background:new 0 0 1792 1792;" xml:space="preserve">
<style type="text/css">
	.st0{fill:#FFC000;}
</style>
<path class="st0" d="M704,1152h384v-96H960V608H846L698,745l77,80c28-24.7,46.3-43.7,55-57h2v288H704V1152z M1216,896
	c0,46.7-7,94-21,142s-33.8,92.7-59.5,134s-59.5,75-101.5,101s-88,39-138,39s-96-13-138-39s-75.8-59.7-101.5-101s-45.5-86-59.5-134
	s-21-95.3-21-142s7-94,21-142s33.8-92.7,59.5-134S716,545,758,519s88-39,138-39s96,13,138,39s75.8,59.7,101.5,101s45.5,86,59.5,134
	S1216,849.3,1216,896z M1728,1152V640c-70.7,0-131-25-181-75s-75-110.3-75-181H320c0,70.7-25,131-75,181s-110.3,75-181,75v512
	c70.7,0,131,25,181,75s75,110.3,75,181h1152c0-70.7,25-131,75-181S1657.3,1152,1728,1152z M1856,320v1152c0,17.3-6.3,32.3-19,45
	s-27.7,19-45,19H0c-17.3,0-32.3-6.3-45-19s-19-27.7-19-45V320c0-17.3,6.3-32.3,19-45s27.7-19,45-19h1792c17.3,0,32.3,6.3,45,19
	S1856,302.7,1856,320z"/>
</svg>
