<?xml version="1.0" encoding="utf-8"?>
<!-- Generator: Adobe Illustrator 21.1.0, SVG Export Plug-In . SVG Version: 6.00 Build 0)  -->
<svg version="1.1" id="Layer_1" xmlns="http://www.w3.org/2000/svg" xmlns:xlink="http://www.w3.org/1999/xlink" x="0px" y="0px"
	 viewBox="0 0 1792 1792" style="enable-background:new 0 0 1792 1792;" xml:space="preserve">
<style type="text/css">
	.st0{fill:#FFC000;}
</style>
<path class="st0" d="M1389,1043c20.7,20,25.3,43,14,69c-11.3,26.7-31,40-59,40H962l201,476c6.7,16.7,6.7,33,0,49s-18,27.7-34,35
	l-177,75c-16.7,6.7-33,6.7-49,0s-27.7-18-35-34l-191-452l-312,312c-12.7,12.7-27.7,19-45,19c-8,0-16-1.7-24-5
	c-26.7-11.3-40-31-40-59V64c0-28,13.3-47.7,40-59c8-3.3,16-5,24-5c18,0,33,6.3,45,19L1389,1043z"/>
</svg>
