<?xml version="1.0" encoding="utf-8"?>
<!-- Generator: Adobe Illustrator 21.1.0, SVG Export Plug-In . SVG Version: 6.00 Build 0)  -->
<svg version="1.1" id="Layer_1" xmlns="http://www.w3.org/2000/svg" xmlns:xlink="http://www.w3.org/1999/xlink" x="0px" y="0px"
	 viewBox="0 0 1792 1792" style="enable-background:new 0 0 1792 1792;" xml:space="preserve">
<style type="text/css">
	.st0{fill:#FFC000;}
</style>
<path class="st0" d="M1408,576c0,147.3-49.2,275.5-147.5,384.5S1040.7,1132,896,1148v612c0,9.3-3,17-9,23s-13.7,9-23,9h-64
	c-9.3,0-17-3-23-9s-9-13.7-9-23v-612c-144.7-16-266.2-78.5-364.5-187.5S256,723.3,256,576c0-78,15.2-152.5,45.5-223.5
	s71.3-132.3,123-184s113-92.7,184-123S754,0,832,0s152.5,15.2,223.5,45.5s132.3,71.3,184,123s92.7,113,123,184S1408,498,1408,576z
	 M832,1024c123.3,0,228.8-43.8,316.5-131.5S1280,699.3,1280,576s-43.8-228.8-131.5-316.5S955.3,128,832,128s-228.8,43.8-316.5,131.5
	S384,452.7,384,576s43.8,228.8,131.5,316.5S708.7,1024,832,1024z"/>
</svg>
