<?xml version="1.0" encoding="utf-8"?>
<!-- Generator: Adobe Illustrator 21.1.0, SVG Export Plug-In . SVG Version: 6.00 Build 0)  -->
<svg version="1.1" id="Layer_1" xmlns="http://www.w3.org/2000/svg" xmlns:xlink="http://www.w3.org/1999/xlink" x="0px" y="0px"
	 viewBox="0 0 1792 1792" style="enable-background:new 0 0 1792 1792;" xml:space="preserve">
<style type="text/css">
	.st0{fill:#FFC000;}
</style>
<path class="st0" d="M1594,1103c-21.3,53.3-46.7,99.3-76,138s-59.7,68.2-91,88.5s-64.3,35.8-99,46.5s-68.5,15.5-101.5,14.5
	s-65.2-3.8-96.5-8.5s-60.2-12-86.5-22c-26.3-10-49.5-19.2-69.5-27.5s-35.3-15.8-46-22.5l-17-10c-75.3,152-171.8,271.8-289.5,359.5
	S375.7,1791.3,237,1792c-12.7,0-23.3-4.3-32-13s-13-19.3-13-32s4.3-23.2,13-31.5s19.3-12.5,32-12.5
	c115.3-0.7,222.8-36.5,322.5-107.5S743,1426.3,811,1301c-24,9.3-48,17-72,23s-51.7,10.3-83,13s-61.7,1.8-91-2.5s-60.3-13.8-93-28.5
	s-63.3-34.3-92-59s-56.8-58-84.5-100s-52.5-90.7-74.5-146c76-31.3,147.3-50.3,214-57s122.5-4.2,167.5,7.5S689,982,727,1008
	s67.5,51.7,88.5,77s39.8,52.7,56.5,82c35.3-87.3,61.7-184.3,79-291c-4.7,0.7-10.7,1.5-18,2.5s-22.8,1.8-46.5,2.5s-46.8,0.5-69.5-0.5
	s-49.8-4.3-81.5-10s-61.2-13.3-88.5-23s-55.3-23.8-84-42.5s-53.7-40.3-75-65s-39.5-56.2-54.5-94.5S409,564.7,405,518
	c46.7-18.7,91.2-30.8,133.5-36.5s79.8-5.3,112.5,1s63.3,16.3,92,30s53.2,30.3,73.5,50s39,40,56,61s31,42,42,63s20.2,39.7,27.5,56
	s12.7,29.5,16,39.5l4,16c8-81.3,12-146.3,12-195c-5.3-4-12.5-9.3-21.5-16s-25.3-21.5-49-44.5S858.7,495.7,840,471s-36.7-55.7-54-93
	s-28.3-74.8-33-112.5s-0.7-80,12-127S801,45.3,835,0c48.7,16.7,91.2,37.2,127.5,61.5s64.5,49.8,84.5,76.5s36,55,48,85
	s18.8,59.7,20.5,89s1.5,57.8-0.5,85.5s-6.3,53.2-13,76.5s-13,44-19,62s-11.7,32-17,42l-7,15c0.7,3.3,1,20.2,1,50.5s-0.3,54.2-1,71.5
	c2-4.7,5.3-10.8,10-18.5s14.8-22,30.5-43s32.5-40.3,50.5-58s41.7-36.2,71-55.5s59.8-34.2,91.5-44.5s69-15.2,112-14.5
	s87.2,8.7,132.5,24c-1.3,52-8.5,99.2-21.5,141.5s-29.7,77.2-50,104.5s-43.5,51.2-69.5,71.5s-53.2,35.5-81.5,45.5s-56.5,18-84.5,24
	s-54.7,9.2-80,9.5s-47.8,0-67.5-1s-35.2-2.5-46.5-4.5l-17-3c-15.3,98-39.7,192.3-73,283c4-4.7,10-10.8,18-18.5s24.5-21.3,49.5-41
	s50.8-37.2,77.5-52.5s59.8-29.3,99.5-42c39.7-12.7,78.8-19.3,117.5-20s81.7,7.2,129,23.5C1504.3,1041.8,1550,1067.7,1594,1103z"/>
</svg>
