<?xml version="1.0" encoding="utf-8"?>
<!-- Generator: Adobe Illustrator 21.1.0, SVG Export Plug-In . SVG Version: 6.00 Build 0)  -->
<svg version="1.1" id="Layer_1" xmlns="http://www.w3.org/2000/svg" xmlns:xlink="http://www.w3.org/1999/xlink" x="0px" y="0px"
	 viewBox="0 0 1792 1792" style="enable-background:new 0 0 1792 1792;" xml:space="preserve">
<style type="text/css">
	.st0{fill:#FFC000;}
</style>
<path class="st0" d="M1647,646c12,56,10.7,124-4,204c-58,296-246.3,444-565,444h-44c-16.7,0-31.3,5.5-44,16.5s-20.7,25.2-24,42.5
	l-4,19l-55,346l-2,15c-3.3,17.3-11.5,31.5-24.5,42.5S852.7,1792,836,1792H585c-14,0-25-5-33-15s-11-22-9-36
	c6-37.3,14.8-93.3,26.5-168s20.5-130.7,26.5-168s15-93.2,27-167.5s21-130.2,27-167.5c3.3-24.7,17.7-37,43-37h131
	c88.7,1.3,167.3-5.7,236-21c116.7-26,212.3-74,287-144c68-63.3,119.7-145.3,155-246c16-46.7,27.7-91,35-133c0.7-4,1.5-6.5,2.5-7.5
	s2.2-1.3,3.5-1s3.3,1.5,6,3.5C1601.7,523.3,1634.3,577.3,1647,646z M1475,364c0,71.3-15.3,150-46,236c-53.3,155.3-154,260.3-302,315
	c-75.3,26.7-159.3,40.7-252,42c0,0.7-30,1-90,1l-90-1c-66.7,0-106,32-118,96c-1.3,5.3-29.7,182-85,530c-0.7,6.7-4.7,10-12,10H185
	c-14.7,0-26.8-5.5-36.5-16.5S135,1552.7,137,1538L369,67c3.3-19.3,12.5-35.3,27.5-48S428.7,0,448,0h598c22.7,0,55.2,4.3,97.5,13
	S1223,32.3,1255,45c71.3,27.3,125.8,68.3,163.5,123S1475,288,1475,364z"/>
</svg>
