<?xml version="1.0" encoding="utf-8"?>
<!-- Generator: Adobe Illustrator 21.1.0, SVG Export Plug-In . SVG Version: 6.00 Build 0)  -->
<svg version="1.1" id="Layer_1" xmlns="http://www.w3.org/2000/svg" xmlns:xlink="http://www.w3.org/1999/xlink" x="0px" y="0px"
	 viewBox="0 0 1792 1792" style="enable-background:new 0 0 1792 1792;" xml:space="preserve">
<style type="text/css">
	.st0{fill:#FFC000;}
</style>
<path class="st0" d="M532,1108l152,152l-52,52h-56v-96h-96v-56L532,1108z M946,718c9.3,8.7,8.3,18.7-3,30l-291,291
	c-11.3,11.3-21.3,12.3-30,3c-9.3-8.7-8.3-18.7,3-30l291-291C927.3,709.7,937.3,708.7,946,718z M672,1408l544-544L928,576l-544,544
	v288H672z M1280,800l92-92c18.7-18.7,28-41.3,28-68s-9.3-49.3-28-68l-152-152c-18.7-18.7-41.3-28-68-28s-49.3,9.3-68,28l-92,92
	L1280,800z M1664,416v960c0,79.3-28.2,147.2-84.5,203.5S1455.3,1664,1376,1664H416c-79.3,0-147.2-28.2-203.5-84.5
	S128,1455.3,128,1376V416c0-79.3,28.2-147.2,84.5-203.5S336.7,128,416,128h960c79.3,0,147.2,28.2,203.5,84.5S1664,336.7,1664,416z"
	/>
</svg>
