<?xml version="1.0" encoding="utf-8"?>
<!-- Generator: Adobe Illustrator 21.1.0, SVG Export Plug-In . SVG Version: 6.00 Build 0)  -->
<svg version="1.1" id="Layer_1" xmlns="http://www.w3.org/2000/svg" xmlns:xlink="http://www.w3.org/1999/xlink" x="0px" y="0px"
	 viewBox="0 0 1792 1792" style="enable-background:new 0 0 1792 1792;" xml:space="preserve">
<style type="text/css">
	.st0{fill:#FFC000;}
</style>
<path class="st0" d="M1099,929c50-2,97.8,4.8,143.5,20.5s85,35.2,118,58.5c33,23.3,66.7,54.8,101,94.5s62.3,75.7,84,108
	s46.8,72.5,75.5,120.5c22,37.3,48.2,73.7,78.5,109s55.5,62.2,75.5,80.5s53,47.8,99,88.5c-32,20-68.2,39.2-108.5,57.5
	s-86.5,38-138.5,59s-90,36.8-114,47.5c-29.3-24.7-54-63-74-115s-34.5-106.8-43.5-164.5s-20-117.8-33-180.5s-27.2-118.8-42.5-168.5
	s-39.5-90.7-72.5-123c-33-32.3-73.8-48.5-122.5-48.5l-10,2l-6,4c2.7,3.3,7,8,13,14c4,3.3,13.3,11.2,28,23.5
	c14.7,12.3,23.2,19.7,25.5,22s8.7,8.3,19,18s16.3,16.5,18,20.5s5.5,11,11.5,21s9.5,19.2,10.5,27.5s2.5,18.7,4.5,31s3.3,25.8,4,40.5
	l1,33c0.7,17.3-0.2,36.5-2.5,57.5s-4.8,38.3-7.5,52s-6.8,33.2-12.5,58.5s-9.5,43-11.5,53c-23.3-0.7-57,2.5-101,9.5
	s-76.7,10.5-98,10.5c-26,0-50-3.3-72-10c-1.3-10.7-2-26.3-2-47c0-49.3,1-81.3,3-96c1.3-8.7,11.8-22.5,31.5-41.5s38.7-38.7,57-59
	c18.3-20.3,27.2-37.5,26.5-51.5c-16-1.3-30.3,6.7-43,24c-24,35.3-61.2,68.5-111.5,99.5S804.7,1336,764,1336c-16.7,0-41.8-21-75.5-63
	s-69.2-88.5-106.5-139.5s-65.3-83.2-84-96.5c-4-2.7-13-12.7-27-30c-321.3,74.7-492.3,112-513,112c-10.7,0-20-3.7-28-11
	s-12-16.3-12-27c0-10,2.8-18.8,8.5-26.5S-60.3,1042-51,1040l486-106c-5.3-9.3-8-17.7-8-25s1.8-13.2,5.5-17.5s9-8.2,16-11.5
	s13.7-5.7,20-7s14-2.8,23-4.5s15.2-3.2,18.5-4.5c2.7-0.7,7.8-3.2,15.5-7.5S539,850,543,850c10,0,19.3,5.3,28,16s15.3,21.7,20,33
	c108.7-24.7,166-37,172-37c11.3,0,21.2,3.7,29.5,11s12.5,16.7,12.5,28c0,10-2.8,18.7-8.5,26S783,939,773,941l-182,40l-1,16
	c-0.7,17.3,26.5,56.5,81.5,117.5S761.3,1206,776,1206c31.3,0,71-26.7,119-80s72-96.3,72-129c0-24-7.8-41.7-23.5-53
	s-32.7-17.5-51-18.5s-35.3-4.8-51-11.5S818,896,818,880c0-10.7,3.3-22,10-34l-68-19c28.7-29.3,43-68.3,43-117c0-17.3-1.7-36.7-5-58
	c54.7-10.7,102.7-16,144-16c29.3,0,53.2,0.5,71.5,1.5c18.3,1,34.5,3.8,48.5,8.5s24.3,9.2,31,13.5s13.5,12.5,20.5,24.5
	s12.2,23.2,15.5,33.5s9,26.2,17,47.5s16,41.3,24,60l50-25c-2,26.7-9.7,46.7-23,60s-27.5,20.3-42.5,21s-28.3,2.8-40,6.5
	S1097.3,898,1098,908L1099,929z M1159,694c-3.3-3.3-7.8-8.5-13.5-15.5s-9.7-11.8-12-14.5s-5.8-6.5-10.5-11.5s-8-8.5-10-10.5l-8-8
	l-8.5-7.5l-8-5l-8.5-4.5c-4.7-2-9.5-3.7-14.5-5s-11.8-2.2-20.5-2.5s-16-0.5-22-0.5h-70c-84,0-156.3,14.3-217,43
	c10.7-20,22.7-35.5,36-46.5s31.3-20.8,54-29.5s44.5-20.7,65.5-36s36.3-27.5,46-36.5s26.3-27.3,50-55s38.2-44.5,43.5-50.5
	c8,6,17.3,16.5,28,31.5s21.3,27.2,32,36.5s23.3,13.7,38,13l12-1v76l22,1c164.7-63.3,288.3-126.7,371-190c18.7-14,35.3-27,50-39
	s28.8-24.5,42.5-37.5s24.7-23.3,33-31c8.3-7.7,18.2-19,29.5-34s19.3-25.3,24-31s12.8-18,24.5-37s19.3-31.7,23-38s12.7-22.2,27-47.5
	s24.2-43,29.5-53l7-9c-1.3,35.3-15.7,81.7-43,139c-52.7,110-121,198-205,264s-186,113.3-306,142c-9.3,2-23.3,4.5-42,7.5
	s-35.3,6.2-50,9.5s-27.7,8-39,14c2,12.7,10.2,28,24.5,46s21.5,29.3,21.5,34C1185,671.3,1176.3,681.3,1159,694z M938,1615
	c26-17.3,69.8-33.2,131.5-47.5S1180,1546,1216,1546c6,0,13.5,5.2,22.5,15.5s18.3,24.5,28,42.5s18.3,34.7,26,50s15.7,32.3,24,51
	s13.2,29.7,14.5,33c-80.7,30-162,45-244,45c-40.7,0-82.3-3.7-125-11L938,1615z M699,968l48-12l109,177l-73,48L699,968z M1200,1485
	c2,10,3,15.3,3,16c0,4.7-5.8,9.5-17.5,14.5s-27,9.3-46,13s-37,6.8-54,9.5s-34.8,5.2-53.5,7.5c-18.7,2.3-29.3,3.8-32,4.5l-7-43
	c14-1.3,34.2-4.2,60.5-8.5s50.3-7.7,72-10s41.8-3.5,60.5-3.5H1200z M743,857l-96,20l-6-17c6.7-0.7,17.5-3,32.5-7s26.5-6,34.5-6
	C720.7,847,732.3,850.3,743,857z M938,1491h31l10,83l-41,12V1491z M1827,1V0V1z M1827,1l-1,5l-2,2l1-3L1827,1z M1827,1l1-1L1827,1z"
	/>
</svg>
