<?xml version="1.0" encoding="utf-8"?>
<!-- Generator: Adobe Illustrator 21.1.0, SVG Export Plug-In . SVG Version: 6.00 Build 0)  -->
<svg version="1.1" id="Layer_1" xmlns="http://www.w3.org/2000/svg" xmlns:xlink="http://www.w3.org/1999/xlink" x="0px" y="0px"
	 viewBox="0 0 1792 1792" style="enable-background:new 0 0 1792 1792;" xml:space="preserve">
<style type="text/css">
	.st0{fill:#FFC000;}
</style>
<path class="st0" d="M1755,453c24.7,24.7,37,54.7,37,90s-12.3,65.7-37,91l-401,400l150,150l-160,160
	c-108.7,108.7-238.5,170.8-389.5,186.5S666.3,1512.7,543,1430l-362,362H0v-181l362-362c-82.7-123.3-116.2-260.5-100.5-411.5
	S339.3,556.7,448,448l160-160l150,150l400-401c25.3-24.7,55.7-37,91-37s65.3,12.3,90,37s37,54.8,37,90.5s-12.3,65.8-37,90.5L939,619
	l234,234l401-400c25.3-24.7,55.7-37,91-37S1730.3,428.3,1755,453z"/>
</svg>
