<?xml version="1.0" encoding="utf-8"?>
<!-- Generator: Adobe Illustrator 21.1.0, SVG Export Plug-In . SVG Version: 6.00 Build 0)  -->
<svg version="1.1" id="Layer_1" xmlns="http://www.w3.org/2000/svg" xmlns:xlink="http://www.w3.org/1999/xlink" x="0px" y="0px"
	 viewBox="0 0 1792 1792" style="enable-background:new 0 0 1792 1792;" xml:space="preserve">
<style type="text/css">
	.st0{fill:#FFC000;}
</style>
<path class="st0" d="M1664,896c0,104-20.3,203.3-61,298s-95.3,176.3-164,245s-150.3,123.3-245,164s-194,61-298,61
	s-203.3-20.3-298-61s-176.3-95.3-245-164s-123.3-150.3-164-245s-61-194-61-298c0-121.3,26.8-235.7,80.5-343S337.7,355.7,435,283
	c28.7-21.3,60.5-29.7,95.5-25c35,4.7,62.8,21.3,83.5,50c21.3,28,29.5,59.5,24.5,94.5S617,465.7,589,487
	c-65.3,49.3-115.8,109.7-151.5,181S384,815.3,384,896c0,69.3,13.5,135.5,40.5,198.5S488,1212,534,1258s100.5,82.5,163.5,109.5
	S826.7,1408,896,1408s135.5-13.5,198.5-40.5S1212,1304,1258,1258s82.5-100.5,109.5-163.5S1408,965.3,1408,896
	c0-80.7-17.8-156.7-53.5-228s-86.2-131.7-151.5-181c-28-21.3-44.5-49.5-49.5-84.5s3.2-66.5,24.5-94.5c20.7-28.7,48.7-45.3,84-50
	c35.3-4.7,67,3.7,95,25c97.3,72.7,172.8,162.7,226.5,270S1664,774.7,1664,896z M1024,128v640c0,34.7-12.7,64.7-38,90s-55.3,38-90,38
	s-64.7-12.7-90-38s-38-55.3-38-90V128c0-34.7,12.7-64.7,38-90s55.3-38,90-38s64.7,12.7,90,38S1024,93.3,1024,128z"/>
</svg>
