<?xml version="1.0" encoding="utf-8"?>
<!-- Generator: Adobe Illustrator 21.1.0, SVG Export Plug-In . SVG Version: 6.00 Build 0)  -->
<svg version="1.1" id="Layer_1" xmlns="http://www.w3.org/2000/svg" xmlns:xlink="http://www.w3.org/1999/xlink" x="0px" y="0px"
	 viewBox="0 0 1792 1792" style="enable-background:new 0 0 1792 1792;" xml:space="preserve">
<style type="text/css">
	.st0{fill:#FFC000;}
</style>
<path class="st0" d="M836,1169l-15,368l-2,22l-420-29c-24-2-46.3-12.5-67-31.5s-36.3-40.8-47-65.5c-7.3-18-12.2-36.3-14.5-55
	s-1-40.3,4-65s9-43,12-55s10.2-33.3,21.5-64s17.7-48.3,19-53C379,1149,548.7,1158.3,836,1169z M449,583l180,379l-147-92
	c-42,48-79.2,96.2-111.5,144.5c-32.3,48.3-56.5,90-72.5,125s-29.2,66.5-39.5,94.5c-10.3,28-16.5,49-18.5,63l-4,21L46,961
	c-11.3-17.3-17.3-36-18-56s1.3-35.7,6-47l8-18c23.3-42,61.3-104.7,114-188L16,566L449,583z M1680,1100l-188,359
	c-8,19.3-20.2,34.8-36.5,46.5s-30.8,18.5-43.5,20.5l-18,4c-47.3,4.7-120.3,8.7-219,12l8,164l-230-367l211-362l7,173
	c113.3,10.7,207.7,12.3,283,5s132-18.3,170-33L1680,1100z M895,176c-31.3,42-119.7,187-265,435L313,424l-19-12L519,56
	c13.3-20.7,33.3-35.7,60-45s53.3-12.7,80-10c16,1.3,32.2,5.3,48.5,12s30.3,13.7,42,21S775,52.3,791,67s28,26.2,36,34.5
	s20,21.5,36,39.5S889.7,170.7,895,176z M1550,483l212,363c12,24.7,16.2,50,12.5,76s-12.8,50.7-27.5,74c-8.7,13.3-19.7,25.7-33,37
	c-13.3,11.3-26,20.7-38,28s-28.2,14.7-48.5,22s-36,12.7-47,16s-28.2,8-51.5,14s-38.7,10-46,12c-22.7-48-111-193.3-265-436l313-195
	L1550,483z M1407,257l142-83l-220,373l-419-20l151-86c-22.7-59.3-47.7-114.7-75-166s-52.5-92.5-75.5-123.5S866,93.8,846,71.5
	S810.3,33.7,799,25l-17-13l405,1c20.7-2,40,1.5,58,10.5s31,18.5,39,28.5l11,15C1321,107.7,1358.3,171,1407,257z"/>
</svg>
