<?xml version="1.0" encoding="utf-8"?>
<!-- Generator: Adobe Illustrator 21.1.0, SVG Export Plug-In . SVG Version: 6.00 Build 0)  -->
<svg version="1.1" id="Layer_1" xmlns="http://www.w3.org/2000/svg" xmlns:xlink="http://www.w3.org/1999/xlink" x="0px" y="0px"
	 viewBox="0 0 1792 1792" style="enable-background:new 0 0 1792 1792;" xml:space="preserve">
<style type="text/css">
	.st0{fill:#FFC000;}
</style>
<path class="st0" d="M1345,470v102c0,9.3-3,17-9,23s-13.7,9-23,9h-168c-15.3,96-58.3,174-129,234s-162.7,96.7-276,110
	c111.3,118.7,264.3,297.3,459,536c9.3,10.7,10.7,22,4,34c-5.3,12-15,18-29,18H979c-10.7,0-19-4-25-12c-204-244.7-370-435-498-571
	c-6-6-9-13.3-9-22V804c0-8.7,3.2-16.2,9.5-22.5s13.8-9.5,22.5-9.5h112c88,0,158.8-14.3,212.5-43s87.8-70.3,102.5-125H479
	c-9.3,0-17-3-23-9s-9-13.7-9-23V470c0-9.3,3-17,9-23s13.7-9,23-9h413c-38-75.3-127.3-113-268-113H479c-8.7,0-16.2-3.2-22.5-9.5
	S447,301.7,447,293V160c0-9.3,3-17,9-23s13.7-9,23-9h832c9.3,0,17,3,23,9s9,13.7,9,23v102c0,9.3-3,17-9,23s-13.7,9-23,9h-233
	c31.3,40.7,52.7,88.7,64,144h171c9.3,0,17,3,23,9S1345,460.7,1345,470z"/>
</svg>
