<?xml version="1.0" encoding="utf-8"?>
<!-- Generator: Adobe Illustrator 21.1.0, SVG Export Plug-In . SVG Version: 6.00 Build 0)  -->
<svg version="1.1" id="Layer_1" xmlns="http://www.w3.org/2000/svg" xmlns:xlink="http://www.w3.org/1999/xlink" x="0px" y="0px"
	 viewBox="0 0 1792 1792" style="enable-background:new 0 0 1792 1792;" xml:space="preserve">
<style type="text/css">
	.st0{fill:#FFC000;}
</style>
<path class="st0" d="M960,896c17.3,0,32.3,6.3,45,19s19,27.7,19,45s-6.3,32.3-19,45s-27.7,19-45,19s-32.3-6.3-45-19s-19-27.7-19-45
	s6.3-32.3,19-45S942.7,896,960,896z M1260,960l507,398c18.7,13.3,27,32,25,56c-3.3,23.3-15,40.3-35,51l-128,64c-8.7,4.7-18.3,7-29,7
	c-11.3,0-21.7-2.7-31-8l-690-387l-110,66c-5.3,2.7-9.3,4.3-12,5c9.3,32.7,12.7,65,10,97c-4.7,51.3-23.3,100.5-56,147.5
	s-76.7,88.2-132,123.5c-88,56-180.3,84-277,84c-90.7,0-164.7-26-222-78c-60-56-86.3-125-79-207c4.7-50.7,23.3-99.7,56-147
	s76.3-88.7,131-124c88-56,180.7-84,278-84c55.3,0,105.7,10.3,151,31c6-8.7,13.3-16,22-22l122-73l-122-73c-8.7-6-16-13.3-22-22
	c-45.3,20.7-95.7,31-151,31c-97.3,0-190-28-278-84c-54.7-35.3-98.3-76.7-131-124S5.7,591.7,1,541c-3.3-39.3,1.8-77,15.5-113
	s34.8-67,63.5-93c56.7-52.7,130.7-79,222-79c96.7,0,189,28,277,84c55.3,34.7,99.3,75.7,132,123s51.3,96.7,56,148
	c2.7,32-0.7,64.3-10,97c2.7,0.7,6.7,2.3,12,5l110,66l690-387c9.3-5.3,19.7-8,31-8c10.7,0,20.3,2.3,29,7l128,64
	c20,10.7,31.7,27.7,35,51c2,24-6.3,42.7-25,56L1260,960z M579,700c30.7-28,37.7-64,21-108s-52-83-106-117
	c-61.3-39.3-125.3-59-192-59c-49.3,0-87,12-113,36c-30.7,28-37.7,64-21,108s52,83,106,117c61.3,39.3,125.3,59,192,59
	C515.3,736,553,724,579,700z M494,1445c54-34,89.3-73,106-117s9.7-80-21-108c-26-24-63.7-36-113-36c-66.7,0-130.7,19.7-192,59
	c-54,34-89.3,73-106,117s-9.7,80,21,108c26,24,63.7,36,113,36C368.7,1504,432.7,1484.3,494,1445z M672,832l96,58v-11
	c0-24,11-42.7,33-56l14-8l-79-47l-26,26c-2,2-5.3,5.7-10,11s-8.7,9.3-12,12c-1.3,1.3-2.7,2.5-4,3.5s-2.3,1.8-3,2.5L672,832z
	 M896,1056l96,32l736-576l-128-64L832,879v113l-160,96l9,8c1.3,1.3,3.7,3.3,7,6c2.7,2.7,6.3,6.7,11,12s8.3,9.3,11,12l26,26L896,1056
	z M1600,1472l128-64l-520-408l-177,138c-1.3,2-5.7,4.3-13,7L1600,1472z"/>
</svg>
