<?xml version="1.0" encoding="utf-8"?>
<!-- Generator: Adobe Illustrator 21.1.0, SVG Export Plug-In . SVG Version: 6.00 Build 0)  -->
<svg version="1.1" id="Layer_1" xmlns="http://www.w3.org/2000/svg" xmlns:xlink="http://www.w3.org/1999/xlink" x="0px" y="0px"
	 viewBox="0 0 1792 1792" style="enable-background:new 0 0 1792 1792;" xml:space="preserve">
<style type="text/css">
	.st0{fill:#FFC000;}
</style>
<path class="st0" d="M1683,1555c12.7-12.7,27.7-19,45-19s32.3,6.3,45,19l128,128l-90,90l-83-83l-83,83c-12,12.7-27,19-45,19
	s-33-6.3-45-19l-83-83l-83,83c-12.7,12.7-27.7,19-45,19s-32.3-6.3-45-19l-83-83l-83,83c-12.7,12.7-27.7,19-45,19s-32.3-6.3-45-19
	l-83-83l-83,83c-12.7,12.7-27.7,19-45,19s-32.3-6.3-45-19l-83-83l-83,83c-12.7,12.7-27.7,19-45,19s-32.3-6.3-45-19l-83-83l-83,83
	c-12.7,12.7-27.7,19-45,19s-32.3-6.3-45-19l-83-83l-83,83c-12.7,12.7-27.7,19-45,19s-32.3-6.3-45-19l-128-128l90-90l83,83l83-83
	c12.7-12.7,27.7-19,45-19s32.3,6.3,45,19l83,83l83-83c12.7-12.7,27.7-19,45-19s32.3,6.3,45,19l83,83l83-83c12.7-12.7,27.7-19,45-19
	s32.3,6.3,45,19l83,83l83-83c12.7-12.7,27.7-19,45-19s32.3,6.3,45,19l83,83l83-83c12.7-12.7,27.7-19,45-19s32.3,6.3,45,19l83,83
	l83-83c12.7-12.7,27.7-19,45-19s32.3,6.3,45,19l83,83L1683,1555z M109,1517c-12.7,12.7-27.7,19-45,19s-32.3-6.3-45-19l-128-128
	l90-90l83,82l83-82c12.7-12.7,27.7-19,45-19s32.3,6.3,45,19l83,82l64-64v-293L174,710c-11.3-17.3-13.7-36.2-7-56.5s20-33.8,40-40.5
	l177-58V256h128V128h256V0h256v128h256v128h128v299l177,58c20,6.7,33.3,20.2,40,40.5s4.3,39.2-7,56.5l-210,314v293l19-18
	c12.7-12.7,27.7-19,45-19s32.3,6.3,45,19l83,82l83-82c12.7-12.7,27.7-19,45-19s32.3,6.3,45,19l128,128l-90,90l-83-83l-83,83
	c-12,12.7-27,19-45,19s-33-6.3-45-19l-83-83l-83,83c-12.7,12.7-27.7,19-45,19s-32.3-6.3-45-19l-83-83l-83,83
	c-12.7,12.7-27.7,19-45,19s-32.3-6.3-45-19l-83-83l-83,83c-12.7,12.7-27.7,19-45,19s-32.3-6.3-45-19l-83-83l-83,83
	c-12.7,12.7-27.7,19-45,19s-32.3-6.3-45-19l-83-83l-83,83c-12.7,12.7-27.7,19-45,19s-32.3-6.3-45-19l-83-83L109,1517z M512,384v128
	l384-128l384,128V384h-128V256H640v128H512z"/>
</svg>
