<?xml version="1.0" encoding="utf-8"?>
<!-- Generator: Adobe Illustrator 21.1.0, SVG Export Plug-In . SVG Version: 6.00 Build 0)  -->
<svg version="1.1" id="Layer_1" xmlns="http://www.w3.org/2000/svg" xmlns:xlink="http://www.w3.org/1999/xlink" x="0px" y="0px"
	 viewBox="0 0 1792 1792" style="enable-background:new 0 0 1792 1792;" xml:space="preserve">
<style type="text/css">
	.st0{fill:#FFC000;}
</style>
<path class="st0" d="M128,0h1536v1392l-776,338l-760-338V0z M1564,1327V401H228v926l661,294L1564,1327z M1564,301V100H228v201H1564z
	 M309,599v115h-37V599H309z M309,747v115h-37V747H309z M309,895v115h-37V895H309z M309,1043v115h-37v-115H309z M309,1191v115h-37
	v-115H309z M335,1334l15-34l105,47l-15,33L335,1334z M471,1394l15-34l105,46l-15,34L471,1394z M606,1454l15-34l105,46l-15,34
	L606,1454z M742,1513l15-33l104,46l-15,34L742,1513z M925,1526l105-46l15,33l-105,47L925,1526z M1060,1466l105-46l15,34l-105,46
	L1060,1466z M1196,1406l105-46l15,34l-105,46L1196,1406z M1331,1347l105-47l15,34l-105,46L1331,1347z M387,147v36H273v-36H387z
	 M549,147v36H434v-36H549z M711,147v36H596v-36H711z M872,147v36H758v-36H872z M1034,147v36H920v-36H1034z M1196,147v36h-115v-36
	H1196z M1358,147v36h-115v-36H1358z M1519,147v36h-114v-36H1519z M309,487v79h-37V451h115v36H309z M549,451v36H434v-36H549z
	 M711,451v36H596v-36H711z M872,451v36H758v-36H872z M1034,451v36H920v-36H1034z M1196,451v36h-115v-36H1196z M1358,451v36h-115v-36
	H1358z M1483,566v-79h-78v-36h115v115H1483z M1483,714V599h37v115H1483z M1483,862V747h37v115H1483z M1483,1010V895h37v115H1483z
	 M1483,1158v-115h37v115H1483z M1483,1306v-115h37v115H1483z M888,1271c-86,0-159.7-30.5-221-91.5s-92-134.8-92-221.5
	c0-86,30.7-159.7,92-221s135-92,221-92c86.7,0,160.5,30.7,221.5,92s91.5,135,91.5,221c0,86.7-30.5,160.5-91.5,221.5
	S974.7,1271,888,1271z M723,890c0,24,6.5,42.8,19.5,56.5s29.5,22,49.5,25s41.3,5.3,64,7s44,2.3,64,2s36.5,2.7,49.5,9
	S989,1006,989,1020c0,32.7-37.3,49-112,49c-64.7,0-105.7-17-123-51h-3l-31,63c44.7,28,98.7,42,162,42c19.3,0,38.2-1.7,56.5-5
	s36.8-8.7,55.5-16s33.8-18.3,45.5-33s17.5-32.3,17.5-53c0-30.7-9.2-53.8-27.5-69.5c-18.3-15.7-40.8-24.7-67.5-27s-53.2-3.3-79.5-3
	s-48.7-1.3-67-5S788,899.3,788,886c0-14,6.8-25,20.5-33s27.2-13,40.5-15s27-3,41-3c22.7,0,46.2,3.7,70.5,11s41.5,18.7,51.5,34h3
	l30-58c-2-0.7-9-3.5-21-8.5s-19.5-8-22.5-9s-9.5-3.3-19.5-7s-17.3-6-22-7s-11.3-2.5-20-4.5s-16.7-3.3-24-4s-15-1-23-1
	c-19.3,0-38.2,1.7-56.5,5s-36.3,8.8-54,16.5s-32,19-43,34S723,869.3,723,890z"/>
</svg>
