<?xml version="1.0" encoding="utf-8"?>
<!-- Generator: Adobe Illustrator 21.1.0, SVG Export Plug-In . SVG Version: 6.00 Build 0)  -->
<svg version="1.1" id="Layer_1" xmlns="http://www.w3.org/2000/svg" xmlns:xlink="http://www.w3.org/1999/xlink" x="0px" y="0px"
	 viewBox="0 0 1792 1792" style="enable-background:new 0 0 1792 1792;" xml:space="preserve">
<style type="text/css">
	.st0{fill:#FFC000;}
</style>
<path class="st0" d="M1312,896c0,17.3-6.3,32.3-19,45l-544,544c-12.7,12.7-27.7,19-45,19s-32.3-6.3-45-19s-19-27.7-19-45v-288H192
	c-17.3,0-32.3-6.3-45-19s-19-27.7-19-45V704c0-17.3,6.3-32.3,19-45s27.7-19,45-19h448V352c0-17.3,6.3-32.3,19-45s27.7-19,45-19
	s32.3,6.3,45,19l544,544C1305.7,863.7,1312,878.7,1312,896z M1664,544v704c0,79.3-28.2,147.2-84.5,203.5S1455.3,1536,1376,1536h-320
	c-8.7,0-16.2-3.2-22.5-9.5s-9.5-13.8-9.5-22.5c0-2.7-0.3-9.3-1-20s-0.8-19.5-0.5-26.5s1.3-14.8,3-23.5c1.7-8.7,5-15.2,10-19.5
	s11.8-6.5,20.5-6.5h320c44,0,81.7-15.7,113-47s47-69,47-113V544c0-44-15.7-81.7-47-113s-69-47-113-47h-312l-11.5-1l-11.5-3l-8-5.5
	l-7-9l-2-13.5c0-2.7-0.3-9.3-1-20s-0.8-19.5-0.5-26.5s1.3-14.8,3-23.5c1.7-8.7,5-15.2,10-19.5s11.8-6.5,20.5-6.5h320
	c79.3,0,147.2,28.2,203.5,84.5S1664,464.7,1664,544z"/>
</svg>
