<?xml version="1.0" encoding="utf-8"?>
<!-- Generator: Adobe Illustrator 21.1.0, SVG Export Plug-In . SVG Version: 6.00 Build 0)  -->
<svg version="1.1" id="Layer_1" xmlns="http://www.w3.org/2000/svg" xmlns:xlink="http://www.w3.org/1999/xlink" x="0px" y="0px"
	 viewBox="0 0 1792 1792" style="enable-background:new 0 0 1792 1792;" xml:space="preserve">
<style type="text/css">
	.st0{fill:#FFC000;}
</style>
<path class="st0" d="M1301,1063c0-33.3-6.5-63.8-19.5-91.5S1252.3,921,1233,903s-43.7-34.3-73-49s-56.8-26-82.5-34
	s-54.8-15.7-87.5-23l-104-24c-20-4.7-34.7-8.2-44-10.5s-21-6.2-35-11.5s-24-10.7-30-16s-11.5-12.3-16.5-21s-7.5-18.7-7.5-30
	c0-51.3,48-77,144-77c28.7,0,54.3,4,77,12s40.7,17.5,54,28.5c13.3,11,26,22.2,38,33.5s25.3,21,40,29s30.7,12,48,12
	c31.3,0,56.5-10.7,75.5-32s28.5-47,28.5-77c0-36.7-18.7-69.8-56-99.5s-84.7-52.2-142-67.5c-57.3-15.3-118-23-182-23
	c-45.3,0-89.3,5.2-132,15.5s-82.5,26-119.5,47s-66.7,50-89,87S504,652.3,504,701c0,40.7,6.3,76.2,19,106.5s31.3,55.5,56,75.5
	s51.3,36.2,80,48.5s63,23.2,103,32.5l146,36c60,14.7,97.3,26.7,112,36c21.3,13.3,32,33.3,32,60c0,26-13.3,47.5-40,64.5
	c-26.7,17-61.7,25.5-105,25.5c-34,0-64.5-5.3-91.5-16s-48.7-23.5-65-38.5s-31.5-30-45.5-45s-29.3-27.8-46-38.5s-34.7-16-54-16
	c-33.3,0-58.5,10-75.5,30s-25.5,45-25.5,75c0,61.3,40.7,113.8,122,157.5s178.3,65.5,291,65.5c48.7,0,95.3-6.2,140-18.5
	c44.7-12.3,85.5-30.2,122.5-53.5s66.5-54.5,88.5-93.5S1301,1111.7,1301,1063z M1664,1280c0,106-37.5,196.5-112.5,271.5
	S1386,1664,1280,1664c-86.7,0-164.7-26.7-234-80c-51.3,10.7-101.3,16-150,16c-95.3,0-186.5-18.5-273.5-55.5s-162-87-225-150
	s-113-138-150-225S192,991.3,192,896c0-48.7,5.3-98.7,16-150c-53.3-69.3-80-147.3-80-234c0-106,37.5-196.5,112.5-271.5
	S406,128,512,128c86.7,0,164.7,26.7,234,80c51.3-10.7,101.3-16,150-16c95.3,0,186.5,18.5,273.5,55.5s162,87,225,150s113,138,150,225
	S1600,800.7,1600,896c0,48.7-5.3,98.7-16,150C1637.3,1115.3,1664,1193.3,1664,1280z"/>
</svg>
