<?xml version="1.0" encoding="utf-8"?>
<!-- Generator: Adobe Illustrator 21.1.0, SVG Export Plug-In . SVG Version: 6.00 Build 0)  -->
<svg version="1.1" id="Layer_1" xmlns="http://www.w3.org/2000/svg" xmlns:xlink="http://www.w3.org/1999/xlink" x="0px" y="0px"
	 viewBox="0 0 1792 1792" style="enable-background:new 0 0 1792 1792;" xml:space="preserve">
<style type="text/css">
	.st0{fill:#FFC000;}
</style>
<path class="st0" d="M736,1440c0,8-3.3,16-10,24l-319,319c-6.7,6-14.3,9-23,9c-8,0-15.7-3-23-9L41,1463c-10-10.7-12.3-22.3-7-35
	c5.3-13.3,15.3-20,30-20h192V32c0-9.3,3-17,9-23s13.7-9,23-9h192c9.3,0,17,3,23,9s9,13.7,9,23v1376h192c9.3,0,17,3,23,9
	S736,1430.7,736,1440z M1792,1568v192c0,9.3-3,17-9,23s-13.7,9-23,9H928c-9.3,0-17-3-23-9s-9-13.7-9-23v-192c0-9.3,3-17,9-23
	s13.7-9,23-9h832c9.3,0,17,3,23,9S1792,1558.7,1792,1568z M1600,1056v192c0,9.3-3,17-9,23s-13.7,9-23,9H928c-9.3,0-17-3-23-9
	s-9-13.7-9-23v-192c0-9.3,3-17,9-23s13.7-9,23-9h640c9.3,0,17,3,23,9S1600,1046.7,1600,1056z M1408,544v192c0,9.3-3,17-9,23
	s-13.7,9-23,9H928c-9.3,0-17-3-23-9s-9-13.7-9-23V544c0-9.3,3-17,9-23s13.7-9,23-9h448c9.3,0,17,3,23,9S1408,534.7,1408,544z
	 M1216,32v192c0,9.3-3,17-9,23s-13.7,9-23,9H928c-9.3,0-17-3-23-9s-9-13.7-9-23V32c0-9.3,3-17,9-23s13.7-9,23-9h256c9.3,0,17,3,23,9
	S1216,22.7,1216,32z"/>
</svg>
