<?xml version="1.0" encoding="utf-8"?>
<!-- Generator: Adobe Illustrator 21.1.0, SVG Export Plug-In . SVG Version: 6.00 Build 0)  -->
<svg version="1.1" id="Layer_1" xmlns="http://www.w3.org/2000/svg" xmlns:xlink="http://www.w3.org/1999/xlink" x="0px" y="0px"
	 viewBox="0 0 1792 1792" style="enable-background:new 0 0 1792 1792;" xml:space="preserve">
<style type="text/css">
	.st0{fill:#FFC000;}
</style>
<path class="st0" d="M428,1120c-73.3,42.7-162.7,64-268,64H32v-64h-64c-8.7,0-16.2-7.8-22.5-23.5S-64,1062-64,1040
	c0-16,2.3-32.3,7-49c-38.7-1.3-70.8-4.8-96.5-10.5S-192,968-192,960s12.8-14.8,38.5-20.5s57.8-9.2,96.5-10.5c-4.7-16.7-7-33-7-49
	c0-22,3.2-40.8,9.5-56.5S-40.7,800-32,800h64v-64h128c105.3,0,194.7,21.3,268,64h1113c28,4.7,63.5,10.7,106.5,18s69.8,12,80.5,14
	c59.3,10,109.3,23.5,150,40.5s68.5,32.8,83.5,47.5s22.5,28,22.5,40s-7.5,25.3-22.5,40s-42.8,30.5-83.5,47.5s-90.7,30.5-150,40.5
	c-10.7,2-37.5,6.7-80.5,14s-78.5,13.3-106.5,18H428z M1547,868c35.3,24,53,54.7,53,92s-17.7,68-53,92l81,30c45.3-32,68-72.7,68-122
	s-22.7-90-68-122L1547,868z M433,1136h1015c-144.7,25.3-296.7,52-456,80c-38,0-75.7,8-113,24s-65,32-83,48l-28,24l-288,288
	c-17.3,17.3-40.8,32.3-70.5,45s-59.5,19-89.5,19h-96l-93-464h29C264.7,1200,355.7,1178.7,433,1136z M160,720h-29l93-464h96
	c30.7,0,60.7,6.3,90,19s52.7,27.7,70,45l288,288c2.7,2.7,6.3,6.2,11,10.5s14.8,12,30.5,23s31.8,20.7,48.5,29s37.2,16,61.5,23
	S968,704,992,704l456,80H433C355.7,741.3,264.7,720,160,720z"/>
</svg>
