<?xml version="1.0" encoding="utf-8"?>
<!-- Generator: Adobe Illustrator 21.1.0, SVG Export Plug-In . SVG Version: 6.00 Build 0)  -->
<svg version="1.1" id="Layer_1" xmlns="http://www.w3.org/2000/svg" xmlns:xlink="http://www.w3.org/1999/xlink" x="0px" y="0px"
	 viewBox="0 0 1792 1792" style="enable-background:new 0 0 1792 1792;" xml:space="preserve">
<style type="text/css">
	.st0{fill:#FFC000;}
</style>
<path class="st0" d="M1370,647c0-53.3-19-98.8-57-136.5s-83.7-56.5-137-56.5s-98.8,19-136.5,57c-37.7,38-56.5,83.3-56.5,136
	c0,53.3,18.8,98.8,56.5,136.5c37.7,37.7,83.2,56.5,136.5,56.5s99-18.8,137-56.5S1370,700.3,1370,647z M760,1235
	c0,55.3-19.3,102.2-58,140.5s-85.3,57.5-140,57.5c-37.3,0-71.7-9.7-103-29s-55.3-45-72-77c34.7,13.3,67.3,26.7,98,40
	c40,16,80,15.5,120-1.5s68.3-45.8,85-86.5c16-40,15.5-80-1.5-120s-45.8-68-86.5-84l-82-33c14.7-3.3,28.7-5,42-5
	c54.7,0,101.3,19.2,140,57.5S760,1179.7,760,1235z M1664,416v960c0,79.3-28.2,147.2-84.5,203.5S1455.3,1664,1376,1664H416
	c-79.3,0-147.2-28.2-203.5-84.5S128,1455.3,128,1376v-153l172,69c13.3,61.3,44.5,112,93.5,152s105.2,60,168.5,60
	c69.3,0,129.7-23.3,181-70s80.3-104.3,87-173l345-252c100,0,185.2-35.2,255.5-105.5S1536,748.3,1536,649
	c0-100-35.2-185.2-105.5-255.5S1275,288,1175,288c-98.7,0-183,34.8-253,104.5S816.3,546.3,815,645L590,967c-6-0.7-15.3-1-28-1
	c-50,0-95.7,12.3-137,37L128,884V416c0-79.3,28.2-147.2,84.5-203.5S336.7,128,416,128h960c79.3,0,147.2,28.2,203.5,84.5
	S1664,336.7,1664,416z M1417,649c0,66.7-23.7,123.5-71,170.5S1241.7,890,1175,890s-123.5-23.5-170.5-70.5S934,715.7,934,649
	s23.5-123.7,70.5-171s103.8-71,170.5-71c67.3,0,124.5,23.5,171.5,70.5S1417,581.7,1417,649z"/>
</svg>
