<?xml version="1.0" encoding="utf-8"?>
<!-- Generator: Adobe Illustrator 21.1.0, SVG Export Plug-In . SVG Version: 6.00 Build 0)  -->
<svg version="1.1" id="Layer_1" xmlns="http://www.w3.org/2000/svg" xmlns:xlink="http://www.w3.org/1999/xlink" x="0px" y="0px"
	 viewBox="0 0 1792 1792" style="enable-background:new 0 0 1792 1792;" xml:space="preserve">
<style type="text/css">
	.st0{fill:#FFC000;}
</style>
<path class="st0" d="M1363,141c12.7-12.7,23.3-17,32-13s13,14.7,13,32v1472c0,17.3-4.3,28-13,32s-19.3-0.3-32-13L653,941
	c-6-6-10.3-12.3-13-19v678c0,17.3-6.3,32.3-19,45s-27.7,19-45,19H448c-17.3,0-32.3-6.3-45-19s-19-27.7-19-45V192
	c0-17.3,6.3-32.3,19-45s27.7-19,45-19h128c17.3,0,32.3,6.3,45,19s19,27.7,19,45v678c2.7-7.3,7-13.7,13-19L1363,141z"/>
</svg>
