<?xml version="1.0" encoding="utf-8"?>
<!-- Generator: Adobe Illustrator 21.1.0, SVG Export Plug-In . SVG Version: 6.00 Build 0)  -->
<svg version="1.1" id="Layer_1" xmlns="http://www.w3.org/2000/svg" xmlns:xlink="http://www.w3.org/1999/xlink" x="0px" y="0px"
	 viewBox="0 0 1792 1792" style="enable-background:new 0 0 1792 1792;" xml:space="preserve">
<style type="text/css">
	.st0{fill:#FFC000;}
</style>
<path class="st0" d="M1536,1536c0,42-20.5,79.8-61.5,113.5s-95.7,60.7-164,81s-143.3,35.7-225,46S919.3,1792,832,1792
	s-171.8-5.2-253.5-15.5s-156.7-25.7-225-46s-123-47.3-164-81S128,1578,128,1536c0-32.7,11-62.2,33-88.5s52.3-48.5,91-66.5
	s78-32.8,118-44.5s83.7-21.5,131-29.5c17.3-3.3,33.3,0.2,48,10.5s23.3,24.2,26,41.5c3.3,17.3-0.2,33.3-10.5,48s-24.2,23.3-41.5,26
	c-38.7,6.7-74,14.5-106,23.5s-57.5,17.5-76.5,25.5s-35.2,15.8-48.5,23.5s-22.5,14.2-27.5,19.5s-7.8,9.3-8.5,12
	c2,7.3,11,16.2,27,26.5s40.3,21.3,73,33s70.7,22.5,114,32.5s96.8,18.3,160.5,25s130.8,10,201.5,10s137.8-3.3,201.5-10
	s117.2-15,160.5-25s81.3-21,114-33s57-23.2,73-33.5s25-19.5,27-27.5c-0.7-2.7-3.5-6.3-8.5-11s-14.2-11-27.5-19s-29.5-15.8-48.5-23.5
	s-44.5-16-76.5-25s-67.3-16.8-106-23.5c-17.3-2.7-31.2-11.3-41.5-26s-13.8-30.7-10.5-48c2.7-17.3,11.3-31.2,26-41.5
	s30.7-13.8,48-10.5c47.3,8,91,17.8,131,29.5s79.3,26.5,118,44.5s69,40.2,91,66.5S1536,1503.3,1536,1536z M1152,640v384
	c0,17.3-6.3,32.3-19,45s-27.7,19-45,19h-64v384c0,17.3-6.3,32.3-19,45s-27.7,19-45,19H704c-17.3,0-32.3-6.3-45-19s-19-27.7-19-45
	v-384h-64c-17.3,0-32.3-6.3-45-19s-19-27.7-19-45V640c0-35.3,12.5-65.5,37.5-90.5S604.7,512,640,512h384c35.3,0,65.5,12.5,90.5,37.5
	S1152,604.7,1152,640z M1056,256c0,62-21.8,114.8-65.5,158.5C946.8,458.2,894,480,832,480s-114.8-21.8-158.5-65.5S608,318,608,256
	s21.8-114.8,65.5-158.5S770,32,832,32s114.8,21.8,158.5,65.5C1034.2,141.2,1056,194,1056,256z"/>
</svg>
