<?xml version="1.0" encoding="utf-8"?>
<!-- Generator: Adobe Illustrator 21.1.0, SVG Export Plug-In . SVG Version: 6.00 Build 0)  -->
<svg version="1.1" id="Layer_1" xmlns="http://www.w3.org/2000/svg" xmlns:xlink="http://www.w3.org/1999/xlink" x="0px" y="0px"
	 viewBox="0 0 1792 1792" style="enable-background:new 0 0 1792 1792;" xml:space="preserve">
<style type="text/css">
	.st0{fill:#FFC000;}
</style>
<path class="st0" d="M994,839l90-27v-62c0-52.7-19.3-97.7-58-135c-38.7-37.3-84.7-56-138-56s-99.3,18.5-138,55.5s-58,81.8-58,134.5
	v283c0,13.3-4.7,24.5-14,33.5s-20.3,13.5-33,13.5s-23.5-4.5-32.5-13.5S599,1045.3,599,1032V912H448v122c0,54.7,19.2,101,57.5,139
	s84.8,57,139.5,57c54,0,100.2-18.8,138.5-56.5S841,1090.3,841,1037V757c0-12.7,4.5-23.7,13.5-33s20.2-14,33.5-14
	c12.7,0,23.5,4.7,32.5,14s13.5,20.3,13.5,33v54L994,839z M1327,1034V912h-150v126c0,13.3-4.5,24.5-13.5,33.5s-20.2,13.5-33.5,13.5
	c-12.7,0-23.5-4.7-32.5-14s-13.5-20.3-13.5-33V915l-90,26l-60-28v123c0,53.3,19.3,99,58,137c38.7,38,85,57,139,57s100.2-19,138.5-57
	S1327,1088.7,1327,1034z M1664,896c0,139.3-34.3,267.8-103,385.5s-161.8,210.8-279.5,279.5s-246.2,103-385.5,103
	s-267.8-34.3-385.5-103S299.7,1399.2,231,1281.5S128,1035.3,128,896s34.3-267.8,103-385.5S392.8,299.7,510.5,231S756.7,128,896,128
	s267.8,34.3,385.5,103s210.8,161.8,279.5,279.5S1664,756.7,1664,896z"/>
</svg>
