<?xml version="1.0" encoding="utf-8"?>
<!-- Generator: Adobe Illustrator 21.1.0, SVG Export Plug-In . SVG Version: 6.00 Build 0)  -->
<svg version="1.1" id="Layer_1" xmlns="http://www.w3.org/2000/svg" xmlns:xlink="http://www.w3.org/1999/xlink" x="0px" y="0px"
	 viewBox="0 0 1792 1792" style="enable-background:new 0 0 1792 1792;" xml:space="preserve">
<style type="text/css">
	.st0{fill:#FFC000;}
</style>
<path class="st0" d="M640,384h512V256H640V384z M288,384v1280h-64c-61.3,0-114-22-158-66s-66-96.7-66-158V608c0-61.3,22-114,66-158
	s96.7-66,158-66H288z M1408,384v1280H384V384h128V224c0-26.7,9.3-49.3,28-68s41.3-28,68-28h576c26.7,0,49.3,9.3,68,28s28,41.3,28,68
	v160H1408z M1792,608v832c0,61.3-22,114-66,158s-96.7,66-158,66h-64V384h64c61.3,0,114,22,158,66S1792,546.7,1792,608z"/>
</svg>
