<?xml version="1.0" encoding="utf-8"?>
<!-- Generator: Adobe Illustrator 21.1.0, SVG Export Plug-In . SVG Version: 6.00 Build 0)  -->
<svg version="1.1" id="Layer_1" xmlns="http://www.w3.org/2000/svg" xmlns:xlink="http://www.w3.org/1999/xlink" x="0px" y="0px"
	 viewBox="0 0 1792 1792" style="enable-background:new 0 0 1792 1792;" xml:space="preserve">
<style type="text/css">
	.st0{fill:#FFC000;}
</style>
<path class="st0" d="M512,1248v192c0,26.7-9.3,49.3-28,68s-41.3,28-68,28H96c-26.7,0-49.3-9.3-68-28s-28-41.3-28-68v-192
	c0-26.7,9.3-49.3,28-68s41.3-28,68-28h320c26.7,0,49.3,9.3,68,28S512,1221.3,512,1248z M512,736v192c0,26.7-9.3,49.3-28,68
	s-41.3,28-68,28H96c-26.7,0-49.3-9.3-68-28S0,954.7,0,928V736c0-26.7,9.3-49.3,28-68s41.3-28,68-28h320c26.7,0,49.3,9.3,68,28
	S512,709.3,512,736z M1152,1248v192c0,26.7-9.3,49.3-28,68s-41.3,28-68,28H736c-26.7,0-49.3-9.3-68-28s-28-41.3-28-68v-192
	c0-26.7,9.3-49.3,28-68s41.3-28,68-28h320c26.7,0,49.3,9.3,68,28S1152,1221.3,1152,1248z M512,224v192c0,26.7-9.3,49.3-28,68
	s-41.3,28-68,28H96c-26.7,0-49.3-9.3-68-28S0,442.7,0,416V224c0-26.7,9.3-49.3,28-68s41.3-28,68-28h320c26.7,0,49.3,9.3,68,28
	S512,197.3,512,224z M1152,736v192c0,26.7-9.3,49.3-28,68s-41.3,28-68,28H736c-26.7,0-49.3-9.3-68-28s-28-41.3-28-68V736
	c0-26.7,9.3-49.3,28-68s41.3-28,68-28h320c26.7,0,49.3,9.3,68,28S1152,709.3,1152,736z M1792,1248v192c0,26.7-9.3,49.3-28,68
	s-41.3,28-68,28h-320c-26.7,0-49.3-9.3-68-28s-28-41.3-28-68v-192c0-26.7,9.3-49.3,28-68s41.3-28,68-28h320c26.7,0,49.3,9.3,68,28
	S1792,1221.3,1792,1248z M1152,224v192c0,26.7-9.3,49.3-28,68s-41.3,28-68,28H736c-26.7,0-49.3-9.3-68-28s-28-41.3-28-68V224
	c0-26.7,9.3-49.3,28-68s41.3-28,68-28h320c26.7,0,49.3,9.3,68,28S1152,197.3,1152,224z M1792,736v192c0,26.7-9.3,49.3-28,68
	s-41.3,28-68,28h-320c-26.7,0-49.3-9.3-68-28s-28-41.3-28-68V736c0-26.7,9.3-49.3,28-68s41.3-28,68-28h320c26.7,0,49.3,9.3,68,28
	S1792,709.3,1792,736z M1792,224v192c0,26.7-9.3,49.3-28,68s-41.3,28-68,28h-320c-26.7,0-49.3-9.3-68-28s-28-41.3-28-68V224
	c0-26.7,9.3-49.3,28-68s41.3-28,68-28h320c26.7,0,49.3,9.3,68,28S1792,197.3,1792,224z"/>
</svg>
