<?xml version="1.0" encoding="utf-8"?>
<!-- Generator: Adobe Illustrator 21.1.0, SVG Export Plug-In . SVG Version: 6.00 Build 0)  -->
<svg version="1.1" id="Layer_1" xmlns="http://www.w3.org/2000/svg" xmlns:xlink="http://www.w3.org/1999/xlink" x="0px" y="0px"
	 viewBox="0 0 1792 1792" style="enable-background:new 0 0 1792 1792;" xml:space="preserve">
<style type="text/css">
	.st0{fill:#FFC000;}
</style>
<path class="st0" d="M800,864V416c0-9.3-3-17-9-23s-13.7-9-23-9s-17,3-23,9s-9,13.7-9,23v448c0,9.3,3,17,9,23s13.7,9,23,9s17-3,23-9
	S800,873.3,800,864z M1472,1216c0,17.3-6.3,32.3-19,45s-27.7,19-45,19H979l-51,483c-1.3,8-4.8,14.8-10.5,20.5S905,1792,897,1792h-1
	c-18,0-28.7-9-32-27l-76-485H384c-17.3,0-32.3-6.3-45-19s-19-27.7-19-45c0-82,26.2-155.8,78.5-221.5S510,896,576,896V384
	c-34.7,0-64.7-12.7-90-38s-38-55.3-38-90s12.7-64.7,38-90s55.3-38,90-38h640c34.7,0,64.7,12.7,90,38s38,55.3,38,90s-12.7,64.7-38,90
	s-55.3,38-90,38v512c66,0,125.2,32.8,177.5,98.5S1472,1134,1472,1216z"/>
</svg>
