<?xml version="1.0" encoding="utf-8"?>
<!-- Generator: Adobe Illustrator 21.1.0, SVG Export Plug-In . SVG Version: 6.00 Build 0)  -->
<svg version="1.1" id="Layer_1" xmlns="http://www.w3.org/2000/svg" xmlns:xlink="http://www.w3.org/1999/xlink" x="0px" y="0px"
	 viewBox="0 0 1792 1792" style="enable-background:new 0 0 1792 1792;" xml:space="preserve">
<style type="text/css">
	.st0{fill:#FFC000;}
</style>
<path class="st0" d="M1273,1117c-11.3,23.3-30.3,35-57,35H576c-26.7,0-45.7-11.7-57-35c-12-23.3-10.3-45.3,5-66l320-448
	c12.7-18,30-27,52-27s39.3,9,52,27l320,448C1283.3,1071.7,1285,1093.7,1273,1117z M1408,1376V416c0-8.7-3.2-16.2-9.5-22.5
	s-13.8-9.5-22.5-9.5H416c-8.7,0-16.2,3.2-22.5,9.5S384,407.3,384,416v960c0,8.7,3.2,16.2,9.5,22.5s13.8,9.5,22.5,9.5h960
	c8.7,0,16.2-3.2,22.5-9.5S1408,1384.7,1408,1376z M1664,416v960c0,79.3-28.2,147.2-84.5,203.5S1455.3,1664,1376,1664H416
	c-79.3,0-147.2-28.2-203.5-84.5S128,1455.3,128,1376V416c0-79.3,28.2-147.2,84.5-203.5S336.7,128,416,128h960
	c79.3,0,147.2,28.2,203.5,84.5S1664,336.7,1664,416z"/>
</svg>
