<?xml version="1.0" encoding="utf-8"?>
<!-- Generator: Adobe Illustrator 21.1.0, SVG Export Plug-In . SVG Version: 6.00 Build 0)  -->
<svg version="1.1" id="Layer_1" xmlns="http://www.w3.org/2000/svg" xmlns:xlink="http://www.w3.org/1999/xlink" x="0px" y="0px"
	 viewBox="0 0 1792 1792" style="enable-background:new 0 0 1792 1792;" xml:space="preserve">
<style type="text/css">
	.st0{fill:#FFC000;}
</style>
<path class="st0" d="M1216,0c123.3,0,228.8,31.2,316.5,93.5S1664,231.3,1664,320v896c0,86.7-41.8,160.7-125.5,222
	s-185.5,93.7-305.5,97l213,202c10.7,10,13.3,21.7,8,35s-15.3,20-30,20H368c-14.7,0-24.7-6.7-30-20s-2.7-25,8-35l213-202
	c-120-3.3-221.8-35.7-305.5-97S128,1302.7,128,1216V320c0-88.7,43.8-164.2,131.5-226.5S452.7,0,576,0H1216z M896,1344
	c53.3,0,98.7-18.7,136-56c37.3-37.3,56-82.7,56-136s-18.7-98.7-56-136c-37.3-37.3-82.7-56-136-56s-98.7,18.7-136,56
	c-37.3,37.3-56,82.7-56,136s18.7,98.7,56,136S842.7,1344,896,1344z M1472,768V256H320v512H1472z"/>
</svg>
