<?xml version="1.0" encoding="utf-8"?>
<!-- Generator: Adobe Illustrator 21.1.0, SVG Export Plug-In . SVG Version: 6.00 Build 0)  -->
<svg version="1.1" id="Layer_1" xmlns="http://www.w3.org/2000/svg" xmlns:xlink="http://www.w3.org/1999/xlink" x="0px" y="0px"
	 viewBox="0 0 1792 1792" style="enable-background:new 0 0 1792 1792;" xml:space="preserve">
<style type="text/css">
	.st0{fill:#FFC000;}
</style>
<path class="st0" d="M1280,32c0-9.3,3-17,9-23s13.7-9,23-9h288c17.3,0,32.3,6.3,45,19s19,27.7,19,45v288c0,9.3-3,17-9,23
	s-13.7,9-23,9h-64c-9.3,0-17-3-23-9s-9-13.7-9-23V218l-254,255c84,105.3,126,225,126,359c0,147.3-49.2,275.5-147.5,384.5
	S1040.7,1388,896,1404v132h96c9.3,0,17,3,23,9s9,13.7,9,23v64c0,9.3-3,17-9,23s-13.7,9-23,9h-96v96c0,9.3-3,17-9,23s-13.7,9-23,9
	h-64c-9.3,0-17-3-23-9s-9-13.7-9-23v-96h-96c-9.3,0-17-3-23-9s-9-13.7-9-23v-64c0-9.3,3-17,9-23s13.7-9,23-9h96v-132
	c-144.7-16-266.2-78.5-364.5-187.5S256,979.3,256,832c0-134,42-253.7,126-359l-52-53L229,531c-6,6.7-13.3,10.2-22,10.5
	s-16.3-2.2-23-7.5l-48-44c-6.7-5.3-10.2-12.5-10.5-21.5s2.5-16.8,8.5-23.5l105-115L128,218v134c0,9.3-3,17-9,23s-13.7,9-23,9H32
	c-9.3,0-17-3-23-9s-9-13.7-9-23V64c0-17.3,6.3-32.3,19-45S46.7,0,64,0h288c9.3,0,17,3,23,9s9,13.7,9,23v64c0,9.3-3,17-9,23
	s-13.7,9-23,9H219l106,107l86-94c6-6.7,13.3-10.2,22-10.5s16.3,2.2,23,7.5l48,44c6.7,5.3,10.2,12.5,10.5,21.5S512,220.3,506,227
	l-90,99l57,56c105.3-84,225-126,359-126s253.7,42,359,126l255-254h-134c-9.3,0-17-3-23-9s-9-13.7-9-23V32z M832,1280
	c123.3,0,228.8-43.8,316.5-131.5S1280,955.3,1280,832s-43.8-228.8-131.5-316.5S955.3,384,832,384s-228.8,43.8-316.5,131.5
	S384,708.7,384,832s43.8,228.8,131.5,316.5S708.7,1280,832,1280z"/>
</svg>
