<?xml version="1.0" encoding="utf-8"?>
<!-- Generator: Adobe Illustrator 21.1.0, SVG Export Plug-In . SVG Version: 6.00 Build 0)  -->
<svg version="1.1" id="Layer_1" xmlns="http://www.w3.org/2000/svg" xmlns:xlink="http://www.w3.org/1999/xlink" x="0px" y="0px"
	 viewBox="0 0 1792 1792" style="enable-background:new 0 0 1792 1792;" xml:space="preserve">
<style type="text/css">
	.st0{fill:#FFC000;}
</style>
<path class="st0" d="M1152,32c0-9.3,3-17,9-23s13.7-9,23-9h288c17.3,0,32.3,6.3,45,19s19,27.7,19,45v288c0,9.3-3,17-9,23
	s-13.7,9-23,9h-64c-9.3,0-17-3-23-9s-9-13.7-9-23V218l-254,255c84,105.3,126,225,126,359c0,147.3-49.2,275.5-147.5,384.5
	S912.7,1388,768,1404v132h96c9.3,0,17,3,23,9s9,13.7,9,23v64c0,9.3-3,17-9,23s-13.7,9-23,9h-96v96c0,9.3-3,17-9,23s-13.7,9-23,9h-64
	c-9.3,0-17-3-23-9s-9-13.7-9-23v-96h-96c-9.3,0-17-3-23-9s-9-13.7-9-23v-64c0-9.3,3-17,9-23s13.7-9,23-9h96v-132
	c-99.3-10.7-189.5-45-270.5-103S226.3,1168.5,183,1077.5S122,889.3,130,786c10.7-136,64-253.8,160-353.5S501.7,275.3,637,260
	c78.7-9.3,154.7-3,228,19s139.3,56.3,198,103l255-254h-134c-9.3,0-17-3-23-9s-9-13.7-9-23V32z M704,1280
	c123.3,0,228.8-43.8,316.5-131.5S1152,955.3,1152,832s-43.8-228.8-131.5-316.5S827.3,384,704,384s-228.8,43.8-316.5,131.5
	S256,708.7,256,832s43.8,228.8,131.5,316.5S580.7,1280,704,1280z"/>
</svg>
