<?xml version="1.0" encoding="utf-8"?>
<!-- Generator: Adobe Illustrator 21.1.0, SVG Export Plug-In . SVG Version: 6.00 Build 0)  -->
<svg version="1.1" id="Layer_1" xmlns="http://www.w3.org/2000/svg" xmlns:xlink="http://www.w3.org/1999/xlink" x="0px" y="0px"
	 viewBox="0 0 1792 1792" style="enable-background:new 0 0 1792 1792;" xml:space="preserve">
<style type="text/css">
	.st0{fill:#FFC000;}
</style>
<path class="st0" d="M395,997c0,26-9.2,48.2-27.5,66.5S327.3,1091,302,1091c-26,0-48.2-9.2-66.5-27.5S208,1023,208,997
	c0-25.3,9.2-47.2,27.5-65.5S276,904,302,904c25.3,0,47.2,9.2,65.5,27.5S395,971.7,395,997z M1549,996c0,26-9.2,48.2-27.5,66.5
	S1481,1090,1455,1090s-48.2-9.2-66.5-27.5S1361,1022,1361,996s9.2-48,27.5-66s40.5-27,66.5-27s48.2,9,66.5,27S1549,970,1549,996z
	 M509,997c0-52.7-18.8-98-56.5-136s-83.2-57-136.5-57s-98.8,18.8-136.5,56.5S123,943.7,123,997c0,53.3,18.8,98.8,56.5,136.5
	S262.7,1190,316,1190s98.8-18.8,136.5-56.5S509,1050.3,509,997z M1662,996c0-53.3-18.8-98.8-56.5-136.5S1522.3,803,1469,803
	c-52.7,0-98,18.8-136,56.5s-57,83.2-57,136.5c0,53.3,18.8,98.8,56.5,136.5s83.2,56.5,136.5,56.5s98.8-18.8,136.5-56.5
	S1662,1049.3,1662,996z M594,997c0,77.3-27.2,143.2-81.5,197.5S392.7,1276,316,1276c-77.3,0-143.2-27.3-197.5-82S37,1073.7,37,997
	s27.3-142.2,82-196.5S239.3,719,316,719s142.2,27.2,196.5,81.5S594,920.3,594,997z M1748,996c0,76.7-27.2,142.2-81.5,196.5
	S1546.3,1274,1469,1274c-76.7,0-142.2-27.2-196.5-81.5S1191,1072.7,1191,996s27.2-142.2,81.5-196.5S1392.3,718,1469,718
	c77.3,0,143.2,27.2,197.5,81.5S1748,919.3,1748,996z M784,999c0-127.3-45.2-236.2-135.5-326.5S449.3,537,322,537
	c-83.3,0-160.3,20.7-231,62S-35.7,696.5-77,767.5s-62,148.2-62,231.5s20.7,160.5,62,231.5S20.3,1357.7,91,1399s147.7,62,231,62
	c127.3,0,236.2-45.2,326.5-135.5S784,1126.3,784,999z M1452,426c-169.3-74-354.7-111-556-111c-212.7,0-403.7,36.7-573,110
	c78,0,152.3,15.2,223,45.5S677.5,541.7,728.5,593s91.7,112.3,122,183S896,921,896,999c0-76.7,14.5-149.8,43.5-219.5
	s68.3-129.8,118-180.5c49.7-50.7,108.8-91.7,177.5-123S1376,428,1452,426z M1931,999c0-127.3-45-236.2-135-326.5
	S1597.3,537,1470,537s-236.2,45.2-326.5,135.5S1008,871.7,1008,999s45.2,236.2,135.5,326.5S1342.7,1461,1470,1461
	s236-45.2,326-135.5S1931,1126.3,1931,999z M1665,433h383c-29.3,34-54.3,72.2-75,114.5s-34,80.5-40,114.5
	c73.3,100.7,110,213,110,337c0,104-25.7,200-77,288s-121,157.5-209,208.5s-183.7,76.5-287,76.5c-88.7,0-171.7-18.7-249-56
	s-142.7-89-196-155c-31.3,37.3-74.3,97-129,179c-7.3-14.7-25.2-42.2-53.5-82.5s-53.2-72.8-74.5-97.5
	c-53.3,66-118.8,117.8-196.5,155.5S410.7,1572,322,1572c-103.3,0-199-25.5-287-76.5S-122.7,1375-174,1287s-77-184-77-288
	c0-124,36.7-236.3,110-337c-6-34-19.3-72.2-40-114.5S-226.7,467-256,433h365c99.3-66.7,217.7-118.8,355-156.5S745.3,220,896,220
	c149.3,0,289.7,18.7,421,56S1564.3,365.7,1665,433z"/>
</svg>
