<?xml version="1.0" encoding="utf-8"?>
<!-- Generator: Adobe Illustrator 21.1.0, SVG Export Plug-In . SVG Version: 6.00 Build 0)  -->
<svg version="1.1" id="Layer_1" xmlns="http://www.w3.org/2000/svg" xmlns:xlink="http://www.w3.org/1999/xlink" x="0px" y="0px"
	 viewBox="0 0 1792 1792" style="enable-background:new 0 0 1792 1792;" xml:space="preserve">
<style type="text/css">
	.st0{fill:#FFC000;}
</style>
<path class="st0" d="M640,1408c0-34.7-12.7-64.7-38-90s-55.3-38-90-38s-64.7,12.7-90,38s-38,55.3-38,90s12.7,64.7,38,90
	s55.3,38,90,38s64.7-12.7,90-38S640,1442.7,640,1408z M256,896h384V640H482c-8.7,0-16,3-22,9L265,844c-6,6-9,13.3-9,22V896z
	 M1536,1408c0-34.7-12.7-64.7-38-90s-55.3-38-90-38s-64.7,12.7-90,38s-38,55.3-38,90s12.7,64.7,38,90s55.3,38,90,38s64.7-12.7,90-38
	S1536,1442.7,1536,1408z M1792,320v1024c0,10-1.3,18.8-4,26.5s-7.2,13.8-13.5,18.5s-11.8,8.5-16.5,11.5s-12.5,5-23.5,6
	s-18.5,1.7-22.5,2s-12.5,0.3-25.5,0s-20.5-0.5-22.5-0.5c0,70.7-25,131-75,181s-110.3,75-181,75s-131-25-181-75s-75-110.3-75-181H768
	c0,70.7-25,131-75,181s-110.3,75-181,75s-131-25-181-75s-75-110.3-75-181h-64c-2,0-9.5,0.2-22.5,0.5s-21.5,0.3-25.5,0
	s-11.5-1-22.5-2s-18.8-3-23.5-6s-10.2-6.8-16.5-11.5s-10.8-10.8-13.5-18.5s-4-16.5-4-26.5c0-17.3,6.3-32.3,19-45s27.7-19,45-19V960
	c0-5.3-0.2-17-0.5-35s-0.3-30.7,0-38s1.2-18.8,2.5-34.5s3.5-28,6.5-37s7.7-19.2,14-30.5s13.8-21.3,22.5-30l198-198
	c12.7-12.7,29.5-23.3,50.5-32s40.5-13,58.5-13h160V320c0-17.3,6.3-32.3,19-45s27.7-19,45-19h1024c17.3,0,32.3,6.3,45,19
	S1792,302.7,1792,320z"/>
</svg>
