<?xml version="1.0" encoding="utf-8"?>
<!-- Generator: Adobe Illustrator 21.1.0, SVG Export Plug-In . SVG Version: 6.00 Build 0)  -->
<svg version="1.1" id="Layer_1" xmlns="http://www.w3.org/2000/svg" xmlns:xlink="http://www.w3.org/1999/xlink" x="0px" y="0px"
	 viewBox="0 0 1792 1792" style="enable-background:new 0 0 1792 1792;" xml:space="preserve">
<style type="text/css">
	.st0{fill:#FFC000;}
</style>
<path class="st0" d="M448,1312v192c0,9.3-3,17-9,23s-13.7,9-23,9H224c-9.3,0-17-3-23-9s-9-13.7-9-23v-192c0-9.3,3-17,9-23
	s13.7-9,23-9h192c9.3,0,17,3,23,9S448,1302.7,448,1312z M256,928v192c0,9.3-3,17-9,23s-13.7,9-23,9H32c-9.3,0-17-3-23-9
	s-9-13.7-9-23V928c0-9.3,3-17,9-23s13.7-9,23-9h192c9.3,0,17,3,23,9S256,918.7,256,928z M832,1312v192c0,9.3-3,17-9,23s-13.7,9-23,9
	H608c-9.3,0-17-3-23-9s-9-13.7-9-23v-192c0-9.3,3-17,9-23s13.7-9,23-9h192c9.3,0,17,3,23,9S832,1302.7,832,1312z M640,928v192
	c0,9.3-3,17-9,23s-13.7,9-23,9H416c-9.3,0-17-3-23-9s-9-13.7-9-23V928c0-9.3,3-17,9-23s13.7-9,23-9h192c9.3,0,17,3,23,9
	S640,918.7,640,928z M66,768c-18.7,0-34.3-6.3-47-19S0,721,0,703V574h514v129c0,18-6.3,33.3-19,46s-28,19-46,19H66z M1216,1312v192
	c0,9.3-3,17-9,23s-13.7,9-23,9H992c-9.3,0-17-3-23-9s-9-13.7-9-23v-192c0-9.3,3-17,9-23s13.7-9,23-9h192c9.3,0,17,3,23,9
	S1216,1302.7,1216,1312z M1024,928v192c0,9.3-3,17-9,23s-13.7,9-23,9H800c-9.3,0-17-3-23-9s-9-13.7-9-23V928c0-9.3,3-17,9-23
	s13.7-9,23-9h192c9.3,0,17,3,23,9S1024,918.7,1024,928z M1600,1312v192c0,9.3-3,17-9,23s-13.7,9-23,9h-192c-9.3,0-17-3-23-9
	s-9-13.7-9-23v-192c0-9.3,3-17,9-23s13.7-9,23-9h192c9.3,0,17,3,23,9S1600,1302.7,1600,1312z M1408,928v192c0,9.3-3,17-9,23
	s-13.7,9-23,9h-192c-9.3,0-17-3-23-9s-9-13.7-9-23V928c0-9.3,3-17,9-23s13.7-9,23-9h192c9.3,0,17,3,23,9S1408,918.7,1408,928z
	 M1792,520v13h-514v-10c0-69.3-127.3-103.3-382-102c-254.7,0.7-382,34.7-382,102v10H0v-13c0-11.3,2.8-25.7,8.5-43s17-38.7,34-64
	s38.8-50.5,65.5-75.5s63.5-50.3,110.5-76s100.3-48.2,160-67.5s134.3-35.2,224-47.5S790,128,896,128s203.7,6.2,293,18.5
	s164,28.2,224,47.5s113.5,41.8,160.5,67.5s83.8,51,110.5,76s48.5,50.2,65.5,75.5s28.3,46.7,34,64S1792,508.7,1792,520z M1792,928
	v192c0,9.3-3,17-9,23s-13.7,9-23,9h-192c-9.3,0-17-3-23-9s-9-13.7-9-23V928c0-9.3,3-17,9-23s13.7-9,23-9h192c9.3,0,17,3,23,9
	S1792,918.7,1792,928z M1792,574v129c0,18-6.3,33.3-19,46s-28,19-46,19h-384c-18,0-33.3-6.3-46-19s-19-28-19-46V574H1792z"/>
</svg>
