<?xml version="1.0" encoding="utf-8"?>
<!-- Generator: Adobe Illustrator 21.1.0, SVG Export Plug-In . SVG Version: 6.00 Build 0)  -->
<svg version="1.1" id="Layer_1" xmlns="http://www.w3.org/2000/svg" xmlns:xlink="http://www.w3.org/1999/xlink" x="0px" y="0px"
	 viewBox="0 0 1792 1792" style="enable-background:new 0 0 1792 1792;" xml:space="preserve">
<style type="text/css">
	.st0{fill:#FFC000;}
</style>
<path class="st0" d="M1264,1461l-62-183c-29.3,14.7-63.7,22-103,22c-24,0.7-44.7-2.8-62-10.5c-17.3-7.7-30.2-18.2-38.5-31.5
	s-14.2-26.8-17.5-40.5s-5-28.2-5-43.5V776h257V582H977V256H789c-5.3,0-8.3,3.3-9,10c-3.3,29.3-9.2,58.3-17.5,87s-21.3,60.3-39,95
	s-43.3,66.3-77,95s-73.2,51.3-118.5,68v165h130v418c0,38,7.2,76.3,21.5,115s36,75.7,65,111s69.3,63.8,121,85.5S976,1537.3,1042,1536
	c46-0.7,91.5-9,136.5-25S1252,1478.3,1264,1461z M1664,416v960c0,79.3-28.2,147.2-84.5,203.5S1455.3,1664,1376,1664H416
	c-79.3,0-147.2-28.2-203.5-84.5S128,1455.3,128,1376V416c0-79.3,28.2-147.2,84.5-203.5S336.7,128,416,128h960
	c79.3,0,147.2,28.2,203.5,84.5S1664,336.7,1664,416z"/>
</svg>
