<?xml version="1.0" encoding="utf-8"?>
<!-- Generator: Adobe Illustrator 21.1.0, SVG Export Plug-In . SVG Version: 6.00 Build 0)  -->
<svg version="1.1" id="Layer_1" xmlns="http://www.w3.org/2000/svg" xmlns:xlink="http://www.w3.org/1999/xlink" x="0px" y="0px"
	 viewBox="0 0 1792 1792" style="enable-background:new 0 0 1792 1792;" xml:space="preserve">
<style type="text/css">
	.st0{fill:#FFC000;}
</style>
<path class="st0" d="M176,223c-24.7-1.3-39.7-2.7-45-4l-3-88c8.7-0.7,22-1,40-1c40,0,77.3,1.3,112,4c88,4.7,143.3,7,166,7
	c57.3,0,113.3-1,168-3c77.3-2.7,126-4.3,146-5c37.3,0,66-0.7,86-2l-1,14l2,64v9c-40,6-81.3,9-124,9c-40,0-66.3,8.3-79,25
	c-8.7,9.3-13,53.3-13,132c0,8.7,0.2,19.5,0.5,32.5S632,438,632,442l1,229l14,280c4,82.7,21,150,51,202c23.3,39.3,55.3,70,96,92
	c58.7,31.3,117.7,47,177,47c69.3,0,133-9.3,191-28c37.3-12,70.3-29,99-51c32-24,53.7-45.3,65-64c24-37.3,41.7-75.3,53-114
	c14-48.7,21-125,21-229c0-52.7-1.2-95.3-3.5-128s-6-73.5-11-122.5S1376,453.3,1372,396l-4-59c-3.3-44.7-11.3-74-24-88
	c-22.7-23.3-48.3-34.7-77-34l-100,2l-14-3l2-86h84l205,10c50.7,2,116-1.3,196-10l18,2c4,25.3,6,42.3,6,51c0,4.7-1.3,15-4,31
	c-30,8-58,12.3-84,13c-48.7,7.3-75,13-79,17c-10,10-15,23.7-15,41c0,4.7,0.5,13.7,1.5,27s1.5,23.7,1.5,31
	c5.3,12.7,12.7,144.7,22,396c4,130-1,231.3-15,304c-10,50.7-23.7,91.3-41,122c-25.3,43.3-62.7,84.3-112,123
	c-50,38-110.7,67.7-182,89c-72.7,22-157.7,33-255,33c-111.3,0-206-15.3-284-46c-79.3-31.3-139-72-179-122
	c-40.7-50.7-68.3-115.7-83-195c-10.7-53.3-16-132.3-16-237V475c0-125.3-5.7-196.3-17-213C306.3,238,257.3,225,176,223z M1664,1632
	v-64c0-9.3-3-17-9-23s-13.7-9-23-9H160c-9.3,0-17,3-23,9s-9,13.7-9,23v64c0,9.3,3,17,9,23s13.7,9,23,9h1472c9.3,0,17-3,23-9
	S1664,1641.3,1664,1632z"/>
</svg>
