<?xml version="1.0" encoding="utf-8"?>
<!-- Generator: Adobe Illustrator 21.1.0, SVG Export Plug-In . SVG Version: 6.00 Build 0)  -->
<svg version="1.1" id="Layer_1" xmlns="http://www.w3.org/2000/svg" xmlns:xlink="http://www.w3.org/1999/xlink" x="0px" y="0px"
	 viewBox="0 0 1792 1792" style="enable-background:new 0 0 1792 1792;" xml:space="preserve">
<style type="text/css">
	.st0{fill:#FFC000;}
</style>
<path class="st0" d="M576,1344c0,17.3-6.3,32.3-19,45s-27.7,19-45,19s-32.3-6.3-45-19s-19-27.7-19-45s6.3-32.3,19-45s27.7-19,45-19
	s32.3,6.3,45,19S576,1326.7,576,1344z M1600,1405c0,80.7-24.3,144-73,190s-113.3,69-194,69H459c-80.7,0-145.3-23-194-69
	s-73-109.3-73-190c0-45.3,1.8-89,5.5-131s11.7-88,24-138s28.2-94.2,47.5-132.5c19.3-38.3,46.3-72.7,81-103S424.7,850,470,840
	c-14.7,34.7-22,74.7-22,120v203c-38.7,13.3-69.7,36.7-93,70s-35,70.3-35,111c0,53.3,18.7,98.7,56,136s82.7,56,136,56
	s98.7-18.7,136-56s56-82.7,56-136c0-40.7-11.8-77.7-35.5-111s-54.5-56.7-92.5-70V960c0-41.3,8.3-72.3,25-93
	c88,69.3,186.3,104,295,104s207-34.7,295-104c16.7,20.7,25,51.7,25,93v64c-70.7,0-131,25-181,75s-75,110.3-75,181v89
	c-21.3,19.3-32,43-32,71c0,26.7,9.3,49.3,28,68s41.3,28,68,28c26.7,0,49.3-9.3,68-28s28-41.3,28-68c0-28-10.7-51.7-32-71v-89
	c0-34.7,12.7-64.7,38-90s55.3-38,90-38s64.7,12.7,90,38s38,55.3,38,90v89c-21.3,19.3-32,43-32,71c0,26.7,9.3,49.3,28,68
	s41.3,28,68,28s49.3-9.3,68-28s28-41.3,28-68c0-28-10.7-51.7-32-71v-89c0-45.3-11.5-87.8-34.5-127.5s-54.2-70.8-93.5-93.5
	c0-6.7,0.2-20.8,0.5-42.5c0.3-21.7,0.3-37.7,0-48s-1.2-24.2-2.5-41.5s-3.7-33-7-47s-7.7-27.3-13-40c45.3,10,85.3,30.2,120,60.5
	s61.7,64.7,81,103c19.3,38.3,35.2,82.5,47.5,132.5s20.3,96,24,138S1600,1359.7,1600,1405z M1280,512c0,106-37.5,196.5-112.5,271.5
	S1002,896,896,896s-196.5-37.5-271.5-112.5S512,618,512,512s37.5-196.5,112.5-271.5S790,128,896,128s196.5,37.5,271.5,112.5
	S1280,406,1280,512z"/>
</svg>
