<?xml version="1.0" encoding="utf-8"?>
<!-- Generator: Adobe Illustrator 21.1.0, SVG Export Plug-In . SVG Version: 6.00 Build 0)  -->
<svg version="1.1" id="Layer_1" xmlns="http://www.w3.org/2000/svg" xmlns:xlink="http://www.w3.org/1999/xlink" x="0px" y="0px"
	 viewBox="0 0 1792 1792" style="enable-background:new 0 0 1792 1792;" xml:space="preserve">
<style type="text/css">
	.st0{fill:#FFC000;}
</style>
<path class="st0" d="M1536,32c0-9.3,3-17,9-23s13.7-9,23-9h288c17.3,0,32.3,6.3,45,19s19,27.7,19,45v288c0,9.3-3,17-9,23
	s-13.7,9-23,9h-64c-9.3,0-17-3-23-9s-9-13.7-9-23V218l-254,255c50.7,63.3,86.5,134.7,107.5,214s24.2,161.7,9.5,247
	c-21.3,120-76.2,223.3-164.5,310s-192.8,139-313.5,157c-148.7,22.7-285-7.3-409-90c-78,52-163.3,83-256,93v132h96c9.3,0,17,3,23,9
	s9,13.7,9,23v64c0,9.3-3,17-9,23s-13.7,9-23,9h-96v96c0,9.3-3,17-9,23s-13.7,9-23,9h-64c-9.3,0-17-3-23-9s-9-13.7-9-23v-96h-96
	c-9.3,0-17-3-23-9s-9-13.7-9-23v-64c0-9.3,3-17,9-23s13.7-9,23-9h96v-132c-103.3-11.3-196.5-47.8-279.5-109.5
	s-145.3-140.8-187-237.5s-54.8-199-39.5-307c16.7-124.7,69.8-232.2,159.5-322.5S234,282.3,358,263c149.3-22.7,286,7.3,410,90
	c97.3-64.7,204-97,320-97c134,0,253.7,42,359,126l255-254h-134c-9.3,0-17-3-23-9s-9-13.7-9-23V32z M768,1145
	c85.3-87.3,128-191.7,128-313s-42.7-225.7-128-313c-85.3,87.3-128,191.7-128,313S682.7,1057.7,768,1145z M0,832
	c0,123.3,43.8,228.8,131.5,316.5S324.7,1280,448,1280c78,0,150.7-19,218-57c-102.7-111.3-154-241.7-154-391s51.3-279.7,154-391
	c-67.3-38-140-57-218-57c-123.3,0-228.8,43.8-316.5,131.5S0,708.7,0,832z M1088,1280c123.3,0,228.8-43.8,316.5-131.5
	S1536,955.3,1536,832s-43.8-228.8-131.5-316.5S1211.3,384,1088,384c-78,0-150.7,19-218,57c102.7,111.3,154,241.7,154,391
	s-51.3,279.7-154,391C937.3,1261,1010,1280,1088,1280z"/>
</svg>
