<?xml version="1.0" encoding="utf-8"?>
<!-- Generator: Adobe Illustrator 21.1.0, SVG Export Plug-In . SVG Version: 6.00 Build 0)  -->
<svg version="1.1" id="Layer_1" xmlns="http://www.w3.org/2000/svg" xmlns:xlink="http://www.w3.org/1999/xlink" x="0px" y="0px"
	 viewBox="0 0 1792 1792" style="enable-background:new 0 0 1792 1792;" xml:space="preserve">
<style type="text/css">
	.st0{fill:#FFC000;}
</style>
<path class="st0" d="M1792,352v1088c0,28-13,47.7-39,59c-8.7,3.3-17,5-25,5c-18,0-33-6.3-45-19l-403-403v166
	c0,79.3-28.2,147.2-84.5,203.5S1071.3,1536,992,1536H288c-79.3,0-147.2-28.2-203.5-84.5S0,1327.3,0,1248V544
	c0-79.3,28.2-147.2,84.5-203.5S208.7,256,288,256h704c79.3,0,147.2,28.2,203.5,84.5S1280,464.7,1280,544v165l403-402
	c12-12.7,27-19,45-19c8,0,16.3,1.7,25,5C1779,304.3,1792,324,1792,352z"/>
</svg>
