<?xml version="1.0" encoding="utf-8"?>
<!-- Generator: Adobe Illustrator 21.1.0, SVG Export Plug-In . SVG Version: 6.00 Build 0)  -->
<svg version="1.1" id="Layer_1" xmlns="http://www.w3.org/2000/svg" xmlns:xlink="http://www.w3.org/1999/xlink" x="0px" y="0px"
	 viewBox="0 0 1792 1792" style="enable-background:new 0 0 1792 1792;" xml:space="preserve">
<style type="text/css">
	.st0{fill:#FFC000;}
</style>
<path class="st0" d="M1420,638c6.7-144-47-218-161-222c-154-5.3-258,81.7-312,261c29.3-12.7,56.7-19,82-19c56.7,0,81.3,32,74,96
	c-2.7,38-27.3,93.7-74,167c-46.7,73.3-81.7,110-105,110c-28.7,0-56-56.3-82-169c-8.7-36-23.7-121-45-255c-20-126-73.3-185-160-177
	c-39.3,4.7-94,38-164,100l-81,72l-81,72l52,67c50.7-34.7,79.7-52,87-52c38,0,73.7,59.7,107,179c10,36.7,25,91.5,45,164.5
	s35,127.8,45,164.5c45.3,119.3,100,179,164,179c104.7,0,232.3-98,383-294C1340.7,893.3,1416,745.3,1420,638z M1664,416v960
	c0,79.3-28.2,147.2-84.5,203.5S1455.3,1664,1376,1664H416c-79.3,0-147.2-28.2-203.5-84.5S128,1455.3,128,1376V416
	c0-79.3,28.2-147.2,84.5-203.5S336.7,128,416,128h960c79.3,0,147.2,28.2,203.5,84.5S1664,336.7,1664,416z"/>
</svg>
