<?xml version="1.0" encoding="utf-8"?>
<!-- Generator: Adobe Illustrator 21.1.0, SVG Export Plug-In . SVG Version: 6.00 Build 0)  -->
<svg version="1.1" id="Layer_1" xmlns="http://www.w3.org/2000/svg" xmlns:xlink="http://www.w3.org/1999/xlink" x="0px" y="0px"
	 viewBox="0 0 1792 1792" style="enable-background:new 0 0 1792 1792;" xml:space="preserve">
<style type="text/css">
	.st0{fill:#FFC000;}
</style>
<path class="st0" d="M832,352v1088c0,17.3-6.3,32.3-19,45s-27.7,19-45,19s-32.3-6.3-45-19l-333-333H128c-17.3,0-32.3-6.3-45-19
	s-19-27.7-19-45V704c0-17.3,6.3-32.3,19-45s27.7-19,45-19h262l333-333c12.7-12.7,27.7-19,45-19s32.3,6.3,45,19S832,334.7,832,352z
	 M1216,896c0,50.7-14.2,97.8-42.5,141.5c-28.3,43.7-65.8,74.8-112.5,93.5c-6.7,3.3-15,5-25,5c-17.3,0-32.3-6.2-45-18.5
	s-19-27.5-19-45.5c0-14,4-25.8,12-35.5s17.7-18,29-25c11.3-7,22.7-14.7,34-23s21-20.2,29-35.5s12-34.3,12-57s-4-41.7-12-57
	s-17.7-27.2-29-35.5s-22.7-16-34-23c-11.3-7-21-15.3-29-25S972,734,972,720c0-18,6.3-33.2,19-45.5s27.7-18.5,45-18.5
	c10,0,18.3,1.7,25,5c46.7,18,84.2,49,112.5,93S1216,845.3,1216,896z M1472,896c0,102-28.3,196.2-85,282.5s-131.7,149.2-225,188.5
	c-8.7,3.3-17,5-25,5c-18,0-33.3-6.3-46-19s-19-27.7-19-45c0-26,13-45.7,39-59c37.3-19.3,62.7-34,76-44
	c49.3-36,87.8-81.2,115.5-135.5c27.7-54.3,41.5-112.2,41.5-173.5s-13.8-119.2-41.5-173.5S1236.3,623,1187,587
	c-13.3-10-38.7-24.7-76-44c-26-13.3-39-33-39-59c0-17.3,6.3-32.3,19-45s27.7-19,45-19c8.7,0,17.3,1.7,26,5
	c93.3,39.3,168.3,102.2,225,188.5S1472,794,1472,896z M1728,896c0,153.3-42.3,294.2-127,422.5s-197.3,222.8-338,283.5
	c-8.7,3.3-17.3,5-26,5c-17.3,0-32.3-6.3-45-19s-19-27.7-19-45c0-24,13-43.7,39-59c4.7-2.7,12.2-6.2,22.5-10.5s17.8-7.8,22.5-10.5
	c30.7-16.7,58-33.7,82-51c82-60.7,146-136.3,192-227s69-187,69-289s-23-198.3-69-289s-110-166.3-192-227c-24-17.3-51.3-34.3-82-51
	c-4.7-2.7-12.2-6.2-22.5-10.5s-17.8-7.8-22.5-10.5c-26-15.3-39-35-39-59c0-17.3,6.3-32.3,19-45s27.7-19,45-19c8.7,0,17.3,1.7,26,5
	c140.7,60.7,253.3,155.2,338,283.5S1728,742.7,1728,896z"/>
</svg>
