<?xml version="1.0" encoding="utf-8"?>
<!-- Generator: Adobe Illustrator 21.1.0, SVG Export Plug-In . SVG Version: 6.00 Build 0)  -->
<svg version="1.1" id="Layer_1" xmlns="http://www.w3.org/2000/svg" xmlns:xlink="http://www.w3.org/1999/xlink" x="0px" y="0px"
	 viewBox="0 0 1792 1792" style="enable-background:new 0 0 1792 1792;" xml:space="preserve">
<style type="text/css">
	.st0{fill:#FFC000;}
</style>
<path class="st0" d="M1087,1187l102,204c-38.7,119.3-108.7,216-210,290s-214.3,111-339,111c-104,0-200.2-25.8-288.5-77.5
	s-158.3-121.7-210-210S64,1320,64,1216c0-120.7,34.8-230.7,104.5-330S329.7,716.3,443,675l17,131c-81.3,36-146.3,91.2-195,165.5
	s-73,155.8-73,244.5c0,123.3,43.8,228.8,131.5,316.5S516.7,1664,640,1664c84,0,161.5-21.7,232.5-65s126-101.8,165-175.5
	S1093,1271,1087,1187z M1635,1287l58,114l-256,128c-8.7,4.7-18.3,7-29,7c-26.7,0-45.7-11.7-57-35l-239-477H640
	c-16,0-30.2-5.5-42.5-16.5S578,983,576,967l-96-779c-1.3-10.7,0.7-24.7,6-42c9.3-34,28.3-61.5,57-82.5S604,32,640,32
	c44,0,81.7,15.7,113,47s47,69,47,113c0,46-17.3,85.2-52,117.5s-74.7,46.2-120,41.5l37,289h423v128H681l16,128h455
	c26.7,0,45.7,11.7,57,35l228,455L1635,1287z"/>
</svg>
