<?xml version="1.0" encoding="utf-8"?>
<!-- Generator: Adobe Illustrator 21.1.0, SVG Export Plug-In . SVG Version: 6.00 Build 0)  -->
<svg version="1.1" id="Layer_1" xmlns="http://www.w3.org/2000/svg" xmlns:xlink="http://www.w3.org/1999/xlink" x="0px" y="0px"
	 viewBox="0 0 1792 1792" style="enable-background:new 0 0 1792 1792;" xml:space="preserve">
<style type="text/css">
	.st0{fill:#FFC000;}
</style>
<path class="st0" d="M1099,1244v211c0,44.7-13,67-39,67c-15.3,0-30.3-7.3-45-22v-301c14.7-14.7,29.7-22,45-22
	C1086,1177,1099,1199.3,1099,1244z M1437,1245v46h-90v-46c0-45.3,15-68,45-68S1437,1199.7,1437,1245z M471,1027h107v-94H266v94h105
	v569h100V1027z M759,1596h89v-494h-89v378c-20,28-39,42-57,42c-12,0-19-7-21-21c-0.7-2-1-13.7-1-35v-364h-89v391c0,32.7,2.7,57,8,73
	c8,24.7,27.3,37,58,37c32,0,66-20.3,102-61V1596z M1188,1448v-197c0-48.7-3-81.7-9-99c-11.3-37.3-35-56-71-56c-33.3,0-64.3,18-93,54
	V933h-89v663h89v-48c30,36.7,61,55,93,55c36,0,59.7-18.3,71-55C1185,1530,1188,1496.7,1188,1448z M1526,1438v-13h-91
	c0,34-0.7,54.3-2,61c-4.7,24-18,36-40,36c-30.7,0-46-23-46-69v-87h179v-103c0-52.7-9-91.3-27-116c-26-34-61.3-51-106-51
	c-45.3,0-81,17-107,51c-18.7,24.7-28,63.3-28,116v173c0,52.7,9.7,91.3,29,116c26,34,62,51,108,51c48,0,84-17.7,108-53
	c12-18,19-36,21-54C1525.3,1490,1526,1470.7,1526,1438z M918,525V315c0-46-14.3-69-43-69s-43,23-43,69v210c0,46.7,14.3,70,43,70
	S918,571.7,918,525z M1637,1276c0,156-8.7,272.7-26,350c-9.3,39.3-28.7,72.3-58,99s-63.3,42-102,46c-122.7,14-307.7,21-555,21
	s-432.3-7-555-21c-38.7-4-72.8-19.3-102.5-46s-48.8-59.7-57.5-99c-17.3-74.7-26-191.3-26-350c0-156,8.7-272.7,26-350
	c9.3-39.3,28.7-72.3,58-99s63.7-42.3,103-47c122-13.3,306.7-20,554-20s432.3,6.7,555,20c38.7,4.7,72.8,20.3,102.5,47
	s48.8,59.7,57.5,99C1628.3,1000.7,1637,1117.3,1637,1276z M639,0h102L620,399v271H520V399c-9.3-49.3-29.7-120-61-212
	c-24.7-68.7-46.3-131-65-187h106l71,263L639,0z M1009,333v175c0,54-9.3,93.3-28,118c-24.7,34-60,51-106,51c-44.7,0-79.7-17-105-51
	c-18.7-25.3-28-64.7-28-118V333c0-53.3,9.3-92.3,28-117c25.3-34,60.3-51,105-51c46,0,81.3,17,106,51
	C999.7,240.7,1009,279.7,1009,333z M1344,171v499h-91v-55c-35.3,41.3-69.7,62-103,62c-30.7,0-50.3-12.3-59-37c-5.3-16-8-41-8-75V171
	h91v367c0,22,0.3,33.7,1,35c2,14.7,9,22,21,22c18,0,37-14.3,57-43V171H1344z"/>
</svg>
