<?xml version="1.0" encoding="utf-8"?>
<!-- Generator: Adobe Illustrator 21.1.0, SVG Export Plug-In . SVG Version: 6.00 Build 0)  -->
<svg version="1.1" id="Layer_1" xmlns="http://www.w3.org/2000/svg" xmlns:xlink="http://www.w3.org/1999/xlink" x="0px" y="0px"
	 viewBox="0 0 1792 1792" style="enable-background:new 0 0 1792 1792;" xml:space="preserve">
<style type="text/css">
	.st0{fill:#0066FF;}
</style>
<path class="st0" d="M1203,544c0,8.7-3.3,16.3-10,23L800,960l393,393c6.7,6.7,10,14.3,10,23s-3.3,16.3-10,23l-50,50
	c-6.7,6.7-14.3,10-23,10s-16.3-3.3-23-10L631,983c-6.7-6.7-10-14.3-10-23s3.3-16.3,10-23l466-466c6.7-6.7,14.3-10,23-10
	s16.3,3.3,23,10l50,50C1199.7,527.7,1203,535.3,1203,544z"/>
</svg>
