<?xml version="1.0" encoding="utf-8"?>
<!-- Generator: Adobe Illustrator 21.1.0, SVG Export Plug-In . SVG Version: 6.00 Build 0)  -->
<svg version="1.1" id="Layer_1" xmlns="http://www.w3.org/2000/svg" xmlns:xlink="http://www.w3.org/1999/xlink" x="0px" y="0px"
	 viewBox="0 0 1792 1792" style="enable-background:new 0 0 1792 1792;" xml:space="preserve">
<style type="text/css">
	.st0{fill:#0066FF;}
</style>
<path class="st0" d="M1585,1215c-26,83.3-67,166.7-123,250c-86,130.7-171.7,196-257,196c-32.7,0-79.3-10.7-140-32
	c-57.3-21.3-107.7-32-151-32c-40.7,0-88,11-142,33c-54,22.7-98,34-132,34c-101.3,0-201.7-86.3-301-259c-98-174-147-341.7-147-503
	c0-152,37.7-276.7,113-374c74.7-96,169.3-144,284-144c48,0,107,10,177,30c69.3,20,115.3,30,138,30c30,0,77.7-11.3,143-34
	c68-22.7,125.7-34,173-34c79.3,0,150.3,21.7,213,65c34.7,24,69.3,57.3,104,100c-52.7,44.7-90.7,84-114,118
	c-43.3,62.7-65,131.7-65,207c0,82.7,23,157,69,223S1525.7,1197,1585,1215z M1209,42c0,40.7-9.7,86-29,136c-20,50-51,96-93,138
	c-36,36-72,60-108,72c-24.7,7.3-59.3,13-104,17c2-99.3,28-185,78-257c49.3-71.3,132.7-120.7,250-148c0.7,2,1.5,5.7,2.5,11
	s1.8,9,2.5,11c0,2.7,0.2,6,0.5,10S1209,39.3,1209,42z"/>
</svg>
