<?xml version="1.0" encoding="utf-8"?>
<!-- Generator: Adobe Illustrator 21.1.0, SVG Export Plug-In . SVG Version: 6.00 Build 0)  -->
<svg version="1.1" id="Layer_1" xmlns="http://www.w3.org/2000/svg" xmlns:xlink="http://www.w3.org/1999/xlink" x="0px" y="0px"
	 viewBox="0 0 1792 1792" style="enable-background:new 0 0 1792 1792;" xml:space="preserve">
<style type="text/css">
	.st0{fill:#0066FF;}
</style>
<path class="st0" d="M1100,775c0-72-17.8-128.3-53.5-169c-35.7-40.7-84.8-61-147.5-61c-42,0-83.3,10.2-124,30.5S697.7,624,665,660
	s-59.2,81.7-79.5,137S555,912.3,555,977c0,74.7,17.8,132.3,53.5,173s85.8,61,150.5,61c64,0,122.7-22.2,176-66.5s94.2-99.7,122.5-166
	S1100,844.3,1100,775z M1664,896c0,74-12.3,139.7-37,197s-57.5,102.3-98.5,135s-84.8,57.5-131.5,74.5s-95,26.2-145,27.5
	c-4,0-9.2,0.2-15.5,0.5s-11.8,0.5-16.5,0.5c-63.3,0-110.7-17.7-142-53c-18.7-22-29.7-49.7-33-83c-34.7,44-78.5,80.7-131.5,110
	s-110.8,44-173.5,44c-107.3,0-190.5-31.8-249.5-95.5S402,1100,402,984c0-104.7,22-201.3,66-290s103.7-158.8,179-210.5
	S804.3,406,893,406c58,0,109.7,11.8,155,35.5c45.3,23.7,80.7,56.8,106,99.5l2-19l11-56c0.7-4,2.5-8,5.5-12s6.2-6,9.5-6h118
	c3.3,0,7.7,3.7,13,11c3.3,3.3,4.3,8.7,3,16l-120,614c-3.3,16-5,32-5,48c0,26,4.2,43.3,12.5,52s23.2,13,44.5,13
	c18.7-0.7,37.7-2.5,57-5.5s43.7-11,73-24s55-29.7,77-50s41-50.2,57-89.5c16-39.3,24-85,24-137c0-194.7-58-350-174-466
	s-271.3-174-466-174c-86.7,0-169.5,17-248.5,51s-147,79.5-204,136.5S341,568.5,307,647.5S256,809.3,256,896s17,169.5,51,248.5
	s79.5,147,136.5,204s125,102.5,204,136.5s161.8,51,248.5,51c152,0,287-48,405-144c7.3-6,15.3-8.7,24-8s15.7,4.7,21,12l41,49
	c5.3,8,7.7,16,7,24c-1.3,8.7-5.3,16-12,22c-68,55.3-143.8,98-227.5,128s-169.8,45-258.5,45c-104,0-203.3-20.3-298-61
	s-176.3-95.3-245-164s-123.3-150.3-164-245s-61-194-61-298s20.3-203.3,61-298s95.3-176.3,164-245s150.3-123.3,245-164s194-61,298-61
	c229.3,0,414.7,70.7,556,212S1664,666.7,1664,896z"/>
</svg>
