<?xml version="1.0" encoding="utf-8"?>
<!-- Generator: Adobe Illustrator 21.1.0, SVG Export Plug-In . SVG Version: 6.00 Build 0)  -->
<svg version="1.1" id="Layer_1" xmlns="http://www.w3.org/2000/svg" xmlns:xlink="http://www.w3.org/1999/xlink" x="0px" y="0px"
	 viewBox="0 0 1792 1792" style="enable-background:new 0 0 1792 1792;" xml:space="preserve">
<style type="text/css">
	.st0{fill:#0066FF;}
</style>
<path class="st0" d="M1720,339h-511v124h511V339z M1468,765c-60,0-108.7,17.5-146,52.5s-58,82.5-62,142.5h408
	C1656,830,1589.3,765,1468,765z M1484,1350c42,0,82.7-10.7,122-32s64.7-50.3,76-87h221c-66.7,204.7-209,307-427,307
	c-142.7,0-256.2-44-340.5-132S1009,1202.3,1009,1059c0-138.7,43.5-253.8,130.5-345.5S1338.7,576,1476,576c92,0,172.2,22.7,240.5,68
	s119.3,105,153,179s50.5,156.7,50.5,248c0,11.3-0.7,27-2,47h-658c0,74,19.2,131.2,57.5,171.5S1411.3,1350,1484,1350z M149,1300h296
	c136.7,0,205-55.7,205-167c0-120-66.3-180-199-180H149V1300z M149,763h281c52,0,93.2-12.2,123.5-36.5S599,664.3,599,613
	c0-96-63.3-144-190-144H149V763z M-128,254h594c58,0,109.7,4.7,155,14s87.5,25.2,126.5,47.5s69,54.5,90,96.5S869,505.3,869,566
	c0,120.7-57.3,208.3-172,263c76,21.3,133.3,59.7,172,115s58,123.3,58,204c0,50-8.2,95.5-24.5,136.5s-38.3,75.5-66,103.5
	s-60.5,51.7-98.5,71s-78.3,33.3-121,42s-87.3,13-134,13h-611V254z"/>
</svg>
