<?xml version="1.0" encoding="utf-8"?>
<!-- Generator: Adobe Illustrator 21.1.0, SVG Export Plug-In . SVG Version: 6.00 Build 0)  -->
<svg version="1.1" id="Layer_1" xmlns="http://www.w3.org/2000/svg" xmlns:xlink="http://www.w3.org/1999/xlink" x="0px" y="0px"
	 viewBox="0 0 1792 1792" style="enable-background:new 0 0 1792 1792;" xml:space="preserve">
<style type="text/css">
	.st0{fill:#0066FF;}
</style>
<path class="st0" d="M912,1696c0-10.7-5.3-16-16-16c-39.3,0-73.2-14.2-101.5-42.5S752,1575.3,752,1536c0-10.7-5.3-16-16-16
	s-16,5.3-16,16c0,48.7,17.2,90.2,51.5,124.5S847.3,1712,896,1712C906.7,1712,912,1706.7,912,1696z M375,1221l877-760
	c-28-58.7-72.2-107.5-132.5-146.5S984.7,256,896,256c-62,0-118.5,10.5-169.5,31.5S635,335.3,605,368s-53,67-69,103s-24,71-24,105
	C512,832,466.3,1047,375,1221z M1728,1408c0,34.7-12.7,64.7-38,90s-55.3,38-90,38h-448c0,70.7-25,131-75,181s-110.3,75-181,75
	s-130.8-24.8-180.5-74.5S640.7,1607.7,640,1537l149-129h757c-110.7-124.7-186.3-277.7-227-459l111-97
	C1470.7,1089.3,1570,1274.7,1728,1408z M1814,16l84,96c5.3,6.7,7.8,14.5,7.5,23.5s-3.8,16.5-10.5,22.5L23,1780
	c-6.7,5.3-14.5,7.7-23.5,7s-16.2-4.3-21.5-11l-84-96c-5.3-6.7-7.8-14.5-7.5-23.5s3.8-16.2,10.5-21.5l186-161
	c-12.7-21.3-19-43.3-19-66c33.3-28,63.7-57.3,91-88s55.7-70.5,85-119.5s54.2-101.8,74.5-158.5c20.3-56.7,37-125.3,50-206
	S384,668.7,384,576c0-101.3,39-195.5,117-282.5S681.3,153.7,808,135c-5.3-12.7-8-25.7-8-39c0-26.7,9.3-49.3,28-68s41.3-28,68-28
	s49.3,9.3,68,28s28,41.3,28,68c0,13.3-2.7,26.3-8,39c82.7,12,155.7,39.5,219,82.5S1315.7,313,1351,375l418-363
	c6.7-5.3,14.5-7.7,23.5-7S1808.7,9.3,1814,16z"/>
</svg>
