<?xml version="1.0" encoding="utf-8"?>
<!-- Generator: Adobe Illustrator 21.1.0, SVG Export Plug-In . SVG Version: 6.00 Build 0)  -->
<svg version="1.1" id="Layer_1" xmlns="http://www.w3.org/2000/svg" xmlns:xlink="http://www.w3.org/1999/xlink" x="0px" y="0px"
	 viewBox="0 0 1792 1792" style="enable-background:new 0 0 1792 1792;" xml:space="preserve">
<style type="text/css">
	.st0{fill:#0066FF;}
</style>
<path class="st0" d="M704,320v768c0,17.3-6.3,32.3-19,45s-27.7,19-45,19v576c0,17.3-6.3,32.3-19,45s-27.7,19-45,19H64
	c-17.3,0-32.3-6.3-45-19s-19-27.7-19-45v-512l249-873c4.7-15.3,15-23,31-23H704z M1024,320v704H768V320H1024z M1792,1216v512
	c0,17.3-6.3,32.3-19,45s-27.7,19-45,19h-512c-17.3,0-32.3-6.3-45-19s-19-27.7-19-45v-576c-17.3,0-32.3-6.3-45-19s-19-27.7-19-45V320
	h424c16,0,26.3,7.7,31,23L1792,1216z M736,32v224H384V32c0-9.3,3-17,9-23s13.7-9,23-9h288c9.3,0,17,3,23,9S736,22.7,736,32z
	 M1408,32v224h-352V32c0-9.3,3-17,9-23s13.7-9,23-9h288c9.3,0,17,3,23,9S1408,22.7,1408,32z"/>
</svg>
