<?xml version="1.0" encoding="utf-8"?>
<!-- Generator: Adobe Illustrator 21.1.0, SVG Export Plug-In . SVG Version: 6.00 Build 0)  -->
<svg version="1.1" id="Layer_1" xmlns="http://www.w3.org/2000/svg" xmlns:xlink="http://www.w3.org/1999/xlink" x="0px" y="0px"
	 viewBox="0 0 1792 1792" style="enable-background:new 0 0 1792 1792;" xml:space="preserve">
<style type="text/css">
	.st0{fill:#0066FF;}
</style>
<path class="st0" d="M747,1521c49.3,21.3,96,32,140,32c250.7,0,376-111.7,376-335c0-76-13.7-136-41-180c-18-29.3-38.5-54-61.5-74
	s-45.5-35.5-67.5-46.5s-48.8-19.3-80.5-25c-31.7-5.7-59.7-9.2-84-10.5s-55.8-2-94.5-2c-48.7,0-82.3,3.3-101,10
	c0,35.3-0.2,88.3-0.5,159s-0.5,123.3-0.5,158c0,5.3-0.3,27.8-1,67.5s-0.8,71.8-0.5,96.5s1.8,52.5,4.5,83.5S741.7,1507.7,747,1521z
	 M733,775c28,4.7,64.3,7,109,7c54.7,0,102.3-4.3,143-13c40.7-8.7,77.3-23.5,110-44.5s57.5-50.8,74.5-89.5s25.5-86,25.5-142
	c0-46.7-9.7-87.5-29-122.5s-45.7-62.3-79-82s-69.3-34.2-108-43.5s-80-14-124-14c-33.3,0-76.7,4.3-130,13c0,33.3,1.3,83.7,4,151
	s4,118,4,152c0,18-0.2,44.7-0.5,80s-0.5,61.7-0.5,79C732,736.7,732.3,759.7,733,775z M192,1664l2-94c10-2.7,38.3-8,85-16
	s82-17,106-27c4.7-8,8.8-17,12.5-27s6.5-21.2,8.5-33.5s3.8-23.2,5.5-32.5s2.7-21.8,3-37.5s0.5-27,0.5-34V1297
	c0-654.7-7.3-996.3-22-1025c-2.7-5.3-10-10.2-22-14.5c-12-4.3-26.8-8-44.5-11s-34.2-5.3-49.5-7s-31.5-3.2-48.5-4.5s-27.2-2.3-30.5-3
	l-4-83c65.3-1.3,178.7-5.2,340-11.5s285.7-9.5,373-9.5c15.3,0,38.2,0.2,68.5,0.5s52.8,0.5,67.5,0.5c46.7,0,92.2,4.3,136.5,13
	s87.2,22.7,128.5,42s77.3,43,108,71s55.3,62.8,74,104.5s28,87.5,28,137.5c0,34.7-5.5,66.5-16.5,95.5s-24,53-39,72
	S1426,702.7,1398,722s-52.3,34.3-73,45s-48.7,24-84,40c102.7,23.3,188.2,68,256.5,134s102.5,148.7,102.5,248
	c0,66.7-11.7,126.5-35,179.5s-54.5,96.5-93.5,130.5s-85,62.5-138,85.5S1226,1623.7,1170,1633s-114.7,14-176,14c-29.3,0-73.3-1-132-3
	s-102.7-3-132-3c-70.7,0-173,3.7-307,11S212,1663.3,192,1664z"/>
</svg>
