<?xml version="1.0" encoding="utf-8"?>
<!-- Generator: Adobe Illustrator 21.1.0, SVG Export Plug-In . SVG Version: 6.00 Build 0)  -->
<svg version="1.1" id="Layer_1" xmlns="http://www.w3.org/2000/svg" xmlns:xlink="http://www.w3.org/1999/xlink" x="0px" y="0px"
	 viewBox="0 0 1792 1792" style="enable-background:new 0 0 1792 1792;" xml:space="preserve">
<style type="text/css">
	.st0{fill:#0066FF;}
</style>
<path class="st0" d="M571,589c-6.7-16.7-18-28.3-34-35s-32.3-6.7-49,0c-72,29.3-135.7,71.7-191,127s-97.7,119-127,191
	c-6.7,16.7-6.7,33,0,49s18.3,27.3,35,34c8.7,3.3,16.7,5,24,5c28,0,48-13.3,60-40c22.7-56,55.5-105.5,98.5-148.5S480,695.7,536,673
	c16.7-7.3,28.3-19,35-35S577.7,605.7,571,589z M1513,233l46,46l-244,243l68,68c12.7,12.7,19,27.8,19,45.5s-6.3,32.8-19,45.5l-64,64
	c59.3,107.3,89,221.7,89,343c0,95.3-18.5,186.5-55.5,273.5s-87,162-150,225s-138,113-225,150S799.3,1792,704,1792
	s-186.5-18.5-273.5-55.5s-162-87-225-150s-113-138-150-225S0,1183.3,0,1088s18.5-186.5,55.5-273.5s87-162,150-225s138-113,225-150
	S608.7,384,704,384c121.3,0,235.7,29.7,343,89l64-64c12.7-12.7,27.8-19,45.5-19s32.8,6.3,45.5,19l68,68L1513,233z M1521,177
	c-6.7,6.7-14,10-22,10c-8.7,0-16.3-3.3-23-10l-91-90c-6-6.7-9-14.3-9-23s3-16.3,9-23c6.7-6,14.3-9,23-9s16.3,3,23,9l90,91
	c6.7,6,10,13.5,10,22.5S1527.7,171,1521,177z M1751,407c-7.3,6-15,9-23,9s-15.7-3-23-9l-90-91c-6.7-6-10-13.5-10-22.5
	s3.3-16.5,10-22.5c6-6.7,13.5-10,22.5-10s16.5,3.3,22.5,10l91,90c6,6.7,9,14.3,9,23S1757,400.3,1751,407z M1792,224c0,9.3-3,17-9,23
	s-13.7,9-23,9h-96c-9.3,0-17-3-23-9s-9-13.7-9-23s3-17,9-23s13.7-9,23-9h96c9.3,0,17,3,23,9S1792,214.7,1792,224z M1600,32v96
	c0,9.3-3,17-9,23s-13.7,9-23,9s-17-3-23-9s-9-13.7-9-23V32c0-9.3,3-17,9-23s13.7-9,23-9s17,3,23,9S1600,22.7,1600,32z M1751,87
	l-91,90c-6.7,6.7-14,10-22,10c-8.7,0-16.3-3.3-23-10c-6.7-6-10-13.5-10-22.5s3.3-16.5,10-22.5l90-91c6.7-6,14.3-9,23-9s16.3,3,23,9
	c6,6.7,9,14.3,9,23S1757,80.3,1751,87z"/>
</svg>
