<?xml version="1.0" encoding="utf-8"?>
<!-- Generator: Adobe Illustrator 21.1.0, SVG Export Plug-In . SVG Version: 6.00 Build 0)  -->
<svg version="1.1" id="Layer_1" xmlns="http://www.w3.org/2000/svg" xmlns:xlink="http://www.w3.org/1999/xlink" x="0px" y="0px"
	 viewBox="0 0 1792 1792" style="enable-background:new 0 0 1792 1792;" xml:space="preserve">
<style type="text/css">
	.st0{fill:#0066FF;}
</style>
<path class="st0" d="M1408,256H384v1242l423-406l89-85l89,85l423,406V256z M1420,128c15.3,0,30,3,44,9c22,8.7,39.5,22.3,52.5,41
	s19.5,39.3,19.5,62v1289c0,22.7-6.5,43.3-19.5,62s-30.5,32.3-52.5,41c-12.7,5.3-27.3,8-44,8c-32,0-59.7-10.7-83-32l-441-424
	l-441,424c-24,22-51.7,33-83,33c-15.3,0-30-3-44-9c-22-8.7-39.5-22.3-52.5-41s-19.5-39.3-19.5-62V240c0-22.7,6.5-43.3,19.5-62
	s30.5-32.3,52.5-41c14-6,28.7-9,44-9H1420z"/>
</svg>
