<?xml version="1.0" encoding="utf-8"?>
<!-- Generator: Adobe Illustrator 21.1.0, SVG Export Plug-In . SVG Version: 6.00 Build 0)  -->
<svg version="1.1" id="Layer_1" xmlns="http://www.w3.org/2000/svg" xmlns:xlink="http://www.w3.org/1999/xlink" x="0px" y="0px"
	 viewBox="0 0 1792 1792" style="enable-background:new 0 0 1792 1792;" xml:space="preserve">
<style type="text/css">
	.st0{fill:#0066FF;}
</style>
<path class="st0" d="M1696,960c0,17.3-6.3,32.3-19,45s-27.7,19-45,19h-224c0,114-22.3,210.7-67,290l208,209c12.7,12.7,19,27.7,19,45
	s-6.3,32.3-19,45c-12,12.7-27,19-45,19s-33-6.3-45-19l-198-197c-3.3,3.3-8.3,7.7-15,13s-20.7,14.8-42,28.5s-43,25.8-65,36.5
	s-49.3,20.3-82,29s-65,13-97,13V640H832v896c-34,0-67.8-4.5-101.5-13.5s-62.7-20-87-33s-46.3-26-66-39s-34.2-23.8-43.5-32.5l-15-14
	l-183,207c-13.3,14-29.3,21-48,21c-16,0-30.3-5.3-43-16c-12.7-12-19.5-26.8-20.5-44.5s4.2-33.2,15.5-46.5l202-227
	c-38.7-76-58-167.3-58-274H160c-17.3,0-32.3-6.3-45-19s-19-27.7-19-45s6.3-32.3,19-45s27.7-19,45-19h224V602L211,429
	c-12.7-12.7-19-27.7-19-45s6.3-32.3,19-45s27.7-19,45-19s32.3,6.3,45,19l173,173h844l173-173c12.7-12.7,27.7-19,45-19
	s32.3,6.3,45,19s19,27.7,19,45s-6.3,32.3-19,45l-173,173v294h224c17.3,0,32.3,6.3,45,19S1696,942.7,1696,960z M1216,384H576
	c0-88.7,31.2-164.2,93.5-226.5S807.3,64,896,64s164.2,31.2,226.5,93.5S1216,295.3,1216,384z"/>
</svg>
