<?xml version="1.0" encoding="utf-8"?>
<!-- Generator: Adobe Illustrator 21.1.0, SVG Export Plug-In . SVG Version: 6.00 Build 0)  -->
<svg version="1.1" id="Layer_1" xmlns="http://www.w3.org/2000/svg" xmlns:xlink="http://www.w3.org/1999/xlink" x="0px" y="0px"
	 viewBox="0 0 1792 1792" style="enable-background:new 0 0 1792 1792;" xml:space="preserve">
<style type="text/css">
	.st0{fill:#0066FF;}
</style>
<path class="st0" d="M576,1312v64c0,8.7-3.2,16.2-9.5,22.5s-13.8,9.5-22.5,9.5h-64c-8.7,0-16.2-3.2-22.5-9.5s-9.5-13.8-9.5-22.5v-64
	c0-8.7,3.2-16.2,9.5-22.5s13.8-9.5,22.5-9.5h64c8.7,0,16.2,3.2,22.5,9.5S576,1303.3,576,1312z M576,1056v64c0,8.7-3.2,16.2-9.5,22.5
	s-13.8,9.5-22.5,9.5h-64c-8.7,0-16.2-3.2-22.5-9.5s-9.5-13.8-9.5-22.5v-64c0-8.7,3.2-16.2,9.5-22.5s13.8-9.5,22.5-9.5h64
	c8.7,0,16.2,3.2,22.5,9.5S576,1047.3,576,1056z M832,1056v64c0,8.7-3.2,16.2-9.5,22.5s-13.8,9.5-22.5,9.5h-64
	c-8.7,0-16.2-3.2-22.5-9.5s-9.5-13.8-9.5-22.5v-64c0-8.7,3.2-16.2,9.5-22.5s13.8-9.5,22.5-9.5h64c8.7,0,16.2,3.2,22.5,9.5
	S832,1047.3,832,1056z M576,800v64c0,8.7-3.2,16.2-9.5,22.5S552.7,896,544,896h-64c-8.7,0-16.2-3.2-22.5-9.5S448,872.7,448,864v-64
	c0-8.7,3.2-16.2,9.5-22.5s13.8-9.5,22.5-9.5h64c8.7,0,16.2,3.2,22.5,9.5S576,791.3,576,800z M1344,1312v64c0,8.7-3.2,16.2-9.5,22.5
	s-13.8,9.5-22.5,9.5h-64c-8.7,0-16.2-3.2-22.5-9.5s-9.5-13.8-9.5-22.5v-64c0-8.7,3.2-16.2,9.5-22.5s13.8-9.5,22.5-9.5h64
	c8.7,0,16.2,3.2,22.5,9.5S1344,1303.3,1344,1312z M1088,1056v64c0,8.7-3.2,16.2-9.5,22.5s-13.8,9.5-22.5,9.5h-64
	c-8.7,0-16.2-3.2-22.5-9.5s-9.5-13.8-9.5-22.5v-64c0-8.7,3.2-16.2,9.5-22.5s13.8-9.5,22.5-9.5h64c8.7,0,16.2,3.2,22.5,9.5
	S1088,1047.3,1088,1056z M832,800v64c0,8.7-3.2,16.2-9.5,22.5S808.7,896,800,896h-64c-8.7,0-16.2-3.2-22.5-9.5S704,872.7,704,864
	v-64c0-8.7,3.2-16.2,9.5-22.5s13.8-9.5,22.5-9.5h64c8.7,0,16.2,3.2,22.5,9.5S832,791.3,832,800z M576,544v64
	c0,8.7-3.2,16.2-9.5,22.5S552.7,640,544,640h-64c-8.7,0-16.2-3.2-22.5-9.5S448,616.7,448,608v-64c0-8.7,3.2-16.2,9.5-22.5
	s13.8-9.5,22.5-9.5h64c8.7,0,16.2,3.2,22.5,9.5S576,535.3,576,544z M1344,1056v64c0,8.7-3.2,16.2-9.5,22.5s-13.8,9.5-22.5,9.5h-64
	c-8.7,0-16.2-3.2-22.5-9.5s-9.5-13.8-9.5-22.5v-64c0-8.7,3.2-16.2,9.5-22.5s13.8-9.5,22.5-9.5h64c8.7,0,16.2,3.2,22.5,9.5
	S1344,1047.3,1344,1056z M1088,800v64c0,8.7-3.2,16.2-9.5,22.5s-13.8,9.5-22.5,9.5h-64c-8.7,0-16.2-3.2-22.5-9.5S960,872.7,960,864
	v-64c0-8.7,3.2-16.2,9.5-22.5s13.8-9.5,22.5-9.5h64c8.7,0,16.2,3.2,22.5,9.5S1088,791.3,1088,800z M832,544v64
	c0,8.7-3.2,16.2-9.5,22.5S808.7,640,800,640h-64c-8.7,0-16.2-3.2-22.5-9.5S704,616.7,704,608v-64c0-8.7,3.2-16.2,9.5-22.5
	s13.8-9.5,22.5-9.5h64c8.7,0,16.2,3.2,22.5,9.5S832,535.3,832,544z M576,288v64c0,8.7-3.2,16.2-9.5,22.5S552.7,384,544,384h-64
	c-8.7,0-16.2-3.2-22.5-9.5S448,360.7,448,352v-64c0-8.7,3.2-16.2,9.5-22.5s13.8-9.5,22.5-9.5h64c8.7,0,16.2,3.2,22.5,9.5
	S576,279.3,576,288z M1344,800v64c0,8.7-3.2,16.2-9.5,22.5s-13.8,9.5-22.5,9.5h-64c-8.7,0-16.2-3.2-22.5-9.5s-9.5-13.8-9.5-22.5v-64
	c0-8.7,3.2-16.2,9.5-22.5s13.8-9.5,22.5-9.5h64c8.7,0,16.2,3.2,22.5,9.5S1344,791.3,1344,800z M1088,544v64c0,8.7-3.2,16.2-9.5,22.5
	s-13.8,9.5-22.5,9.5h-64c-8.7,0-16.2-3.2-22.5-9.5S960,616.7,960,608v-64c0-8.7,3.2-16.2,9.5-22.5s13.8-9.5,22.5-9.5h64
	c8.7,0,16.2,3.2,22.5,9.5S1088,535.3,1088,544z M832,288v64c0,8.7-3.2,16.2-9.5,22.5S808.7,384,800,384h-64
	c-8.7,0-16.2-3.2-22.5-9.5S704,360.7,704,352v-64c0-8.7,3.2-16.2,9.5-22.5s13.8-9.5,22.5-9.5h64c8.7,0,16.2,3.2,22.5,9.5
	S832,279.3,832,288z M1344,544v64c0,8.7-3.2,16.2-9.5,22.5s-13.8,9.5-22.5,9.5h-64c-8.7,0-16.2-3.2-22.5-9.5s-9.5-13.8-9.5-22.5v-64
	c0-8.7,3.2-16.2,9.5-22.5s13.8-9.5,22.5-9.5h64c8.7,0,16.2,3.2,22.5,9.5S1344,535.3,1344,544z M1088,288v64c0,8.7-3.2,16.2-9.5,22.5
	s-13.8,9.5-22.5,9.5h-64c-8.7,0-16.2-3.2-22.5-9.5S960,360.7,960,352v-64c0-8.7,3.2-16.2,9.5-22.5s13.8-9.5,22.5-9.5h64
	c8.7,0,16.2,3.2,22.5,9.5S1088,279.3,1088,288z M1344,288v64c0,8.7-3.2,16.2-9.5,22.5s-13.8,9.5-22.5,9.5h-64
	c-8.7,0-16.2-3.2-22.5-9.5s-9.5-13.8-9.5-22.5v-64c0-8.7,3.2-16.2,9.5-22.5s13.8-9.5,22.5-9.5h64c8.7,0,16.2,3.2,22.5,9.5
	S1344,279.3,1344,288z M1088,1664h384V128H320v1536h384v-224c0-8.7,3.2-16.2,9.5-22.5s13.8-9.5,22.5-9.5h320
	c8.7,0,16.2,3.2,22.5,9.5s9.5,13.8,9.5,22.5V1664z M1600,64v1664c0,17.3-6.3,32.3-19,45s-27.7,19-45,19H256c-17.3,0-32.3-6.3-45-19
	s-19-27.7-19-45V64c0-17.3,6.3-32.3,19-45s27.7-19,45-19h1280c17.3,0,32.3,6.3,45,19S1600,46.7,1600,64z"/>
</svg>
