<?xml version="1.0" encoding="utf-8"?>
<!-- Generator: Adobe Illustrator 21.1.0, SVG Export Plug-In . SVG Version: 6.00 Build 0)  -->
<svg version="1.1" id="Layer_1" xmlns="http://www.w3.org/2000/svg" xmlns:xlink="http://www.w3.org/1999/xlink" x="0px" y="0px"
	 viewBox="0 0 1792 1792" style="enable-background:new 0 0 1792 1792;" xml:space="preserve">
<style type="text/css">
	.st0{fill:#0066FF;}
</style>
<path class="st0" d="M1536,256c34.7,0,64.7,12.7,90,38s38,55.3,38,90v1280c0,34.7-12.7,64.7-38,90s-55.3,38-90,38H128
	c-34.7,0-64.7-12.7-90-38s-38-55.3-38-90V384c0-34.7,12.7-64.7,38-90s55.3-38,90-38h128v-96c0-44,15.7-81.7,47-113S372,0,416,0h64
	c44,0,81.7,15.7,113,47s47,69,47,113v96h384v-96c0-44,15.7-81.7,47-113s69-47,113-47h64c44,0,81.7,15.7,113,47s47,69,47,113v96H1536
	z M1152,160v288c0,9.3,3,17,9,23s13.7,9,23,9h64c9.3,0,17-3,23-9s9-13.7,9-23V160c0-9.3-3-17-9-23s-13.7-9-23-9h-64
	c-9.3,0-17,3-23,9S1152,150.7,1152,160z M384,160v288c0,9.3,3,17,9,23s13.7,9,23,9h64c9.3,0,17-3,23-9s9-13.7,9-23V160
	c0-9.3-3-17-9-23s-13.7-9-23-9h-64c-9.3,0-17,3-23,9S384,150.7,384,160z M1536,1664V640H128v1024H1536z M896,1088h224
	c9.3,0,17,3,23,9s9,13.7,9,23v64c0,9.3-3,17-9,23s-13.7,9-23,9H896v224c0,9.3-3,17-9,23s-13.7,9-23,9h-64c-9.3,0-17-3-23-9
	s-9-13.7-9-23v-224H544c-9.3,0-17-3-23-9s-9-13.7-9-23v-64c0-9.3,3-17,9-23s13.7-9,23-9h224V864c0-9.3,3-17,9-23s13.7-9,23-9h64
	c9.3,0,17,3,23,9s9,13.7,9,23V1088z"/>
</svg>
