<?xml version="1.0" encoding="utf-8"?>
<!-- Generator: Adobe Illustrator 21.1.0, SVG Export Plug-In . SVG Version: 6.00 Build 0)  -->
<svg version="1.1" id="Layer_1" xmlns="http://www.w3.org/2000/svg" xmlns:xlink="http://www.w3.org/1999/xlink" x="0px" y="0px"
	 viewBox="0 0 1792 1792" style="enable-background:new 0 0 1792 1792;" xml:space="preserve">
<style type="text/css">
	.st0{fill:#0066FF;}
</style>
<path class="st0" d="M896,672c79.3,0,147.2,28.2,203.5,84.5S1184,880.7,1184,960s-28.2,147.2-84.5,203.5S975.3,1248,896,1248
	s-147.2-28.2-203.5-84.5S608,1039.3,608,960s28.2-147.2,84.5-203.5S816.7,672,896,672z M1600,256c70.7,0,131,25,181,75
	s75,110.3,75,181v896c0,70.7-25,131-75,181s-110.3,75-181,75H192c-70.7,0-131-25-181-75s-75-110.3-75-181V512c0-70.7,25-131,75-181
	s110.3-75,181-75h224l51-136c12.7-32.7,35.8-60.8,69.5-84.5S604.7,0,640,0h512c35.3,0,69.8,11.8,103.5,35.5s56.8,51.8,69.5,84.5
	l51,136H1600z M896,1408c123.3,0,228.8-43.8,316.5-131.5S1344,1083.3,1344,960s-43.8-228.8-131.5-316.5S1019.3,512,896,512
	s-228.8,43.8-316.5,131.5S448,836.7,448,960s43.8,228.8,131.5,316.5S772.7,1408,896,1408z"/>
</svg>
