<?xml version="1.0" encoding="utf-8"?>
<!-- Generator: Adobe Illustrator 21.1.0, SVG Export Plug-In . SVG Version: 6.00 Build 0)  -->
<svg version="1.1" id="Layer_1" xmlns="http://www.w3.org/2000/svg" xmlns:xlink="http://www.w3.org/1999/xlink" x="0px" y="0px"
	 viewBox="0 0 1792 1792" style="enable-background:new 0 0 1792 1792;" xml:space="preserve">
<style type="text/css">
	.st0{fill:#0066FF;}
</style>
<path class="st0" d="M1695,998c0,17.3-5.2,32.2-15.5,44.5s-23.2,20.2-38.5,23.5c-5.3,1.3-11.3,2-18,2h-153V928h153
	c6.7,0,12.7,0.7,18,2c15.3,3.3,28.2,11.2,38.5,23.5S1695,980.7,1695,998z M1677,785c0,16.7-5,30.7-15,42s-22.7,18.3-38,21
	c-2,0.7-7,1-15,1h-139V720h139c2,0,4.8,0.2,8.5,0.5s5.8,0.5,6.5,0.5c15.3,2.7,28,9.8,38,21.5S1677,768.3,1677,785z M472,949V641H244
	v308c0,38.7-12.7,70.2-38,94.5c-25.3,24.3-60.3,36.5-105,36.5c-72,0-148.3-19.7-229-59v112c35.3,10,75.7,17.7,121,23s81.7,8.3,109,9
	l42,1C362.7,1166,472,1093.7,472,949z M1186,1133v-113c-66,34.7-132.7,54.3-200,59c-72,5.3-128.3-8.3-169-41
	c-40.7-32.7-61-80-61-142s20.3-109.3,61-142s97-46.3,169-41c67.3,4.7,134,24,200,58V659c-32-8-65.3-14.5-100-19.5s-61.3-8.2-80-9.5
	l-28-2c-84.7-4-157.5,0.7-218.5,14S651.7,675.3,619,702s-56.3,56-71,88s-22,67.3-22,106s7.3,74,22,106s38.3,61.3,71,88
	s79.5,46.7,140.5,60s133.8,18,218.5,14C1045.3,1161.3,1114.7,1151,1186,1133z M1920,1018c0-36-14.3-65.5-43-88.5s-65-36.2-109-39.5
	v-3c38-5.3,67.7-19.2,89-41.5s32-48.8,32-79.5c0-36.7-13.7-66-41-88s-63-34-107-36c-2,0-6-0.2-12-0.5s-10.7-0.5-14-0.5h-455v510h491
	c49.3,0,89.8-12.2,121.5-36.5S1920,1058,1920,1018z M2048,256v1280c0,34.7-12.7,64.7-38,90s-55.3,38-90,38H-128
	c-34.7,0-64.7-12.7-90-38s-38-55.3-38-90V256c0-34.7,12.7-64.7,38-90s55.3-38,90-38h2048c34.7,0,64.7,12.7,90,38
	S2048,221.3,2048,256z"/>
</svg>
