<?xml version="1.0" encoding="utf-8"?>
<!-- Generator: Adobe Illustrator 21.1.0, SVG Export Plug-In . SVG Version: 6.00 Build 0)  -->
<svg version="1.1" id="Layer_1" xmlns="http://www.w3.org/2000/svg" xmlns:xlink="http://www.w3.org/1999/xlink" x="0px" y="0px"
	 viewBox="0 0 1792 1792" style="enable-background:new 0 0 1792 1792;" xml:space="preserve">
<style type="text/css">
	.st0{fill:#0066FF;}
</style>
<path class="st0" d="M657,1008h207c-9.3,105.3-42.2,188.2-98.5,248.5S637.7,1347,551,1347c-108,0-192.8-38.7-254.5-116
	S204,1048.3,204,915c0-129.3,31-233.2,93-311.5S436.7,486,530,486c98.7,0,176,29,232,87s88.3,140.3,97,247H656
	c-3.3-42.7-15.2-75.7-35.5-99S573,686,539,686c-38,0-67.5,20.2-88.5,60.5S419,846,419,924c0,32,1.7,60,5,84s9.3,47.2,18,69.5
	s22,39.5,40,51.5s40,18,66,18C611.3,1147,647.7,1100.7,657,1008z M1369,1008h206c-9.3,105.3-42,188.2-98,248.5s-127.3,90.5-214,90.5
	c-108,0-192.8-38.7-254.5-116S916,1048.3,916,915c0-129.3,31-233.2,93-311.5S1148.7,486,1242,486c98.7,0,176,29,232,87
	s88.3,140.3,97,247h-204c-2.7-42.7-14.3-75.7-35-99s-47.7-35-81-35c-38,0-67.5,20.2-88.5,60.5S1131,846,1131,924c0,32,1.7,60,5,84
	s9.3,47.2,18,69.5s21.8,39.5,39.5,51.5s39.5,18,65.5,18c32.7,0,58.2-12.7,76.5-38S1365,1050,1369,1008z M1728,889
	c0-138-5.2-240.3-15.5-307S1682,461.7,1652,421c-4-5.3-8.5-10-13.5-14s-12.2-9-21.5-15s-14.7-9.7-16-11c-57.3-42-289.7-63-697-63
	c-416.7,0-653.3,21-710,63c-3.3,2.7-9.2,6.5-17.5,11.5s-15.3,9.7-21,14S145,415.7,141,421c-30,40-50,93.2-60,159.5S66,749.7,66,889
	c0,138.7,5,241.2,15,307.5s30,119.8,60,160.5c4,5.3,9,10.3,15,15s12.8,9.3,20.5,14s13.5,8.7,17.5,12c29.3,22,109.2,38.3,239.5,49
	s287.2,16,470.5,16c406.7,0,639-21.7,697-65c3.3-2.7,9-6.3,17-11s14.8-9.3,20.5-14s10.2-10,13.5-16c30.7-40,51-93,61-159
	S1728,1029,1728,889z M1920,128v1536H-128V128H1920z"/>
</svg>
