<?xml version="1.0" encoding="utf-8"?>
<!-- Generator: Adobe Illustrator 21.1.0, SVG Export Plug-In . SVG Version: 6.00 Build 0)  -->
<svg version="1.1" id="Layer_1" xmlns="http://www.w3.org/2000/svg" xmlns:xlink="http://www.w3.org/1999/xlink" x="0px" y="0px"
	 viewBox="0 0 1792 1792" style="enable-background:new 0 0 1792 1792;" xml:space="preserve">
<style type="text/css">
	.st0{fill:#0066FF;}
</style>
<path class="st0" d="M893,0c160-1.3,310.3,38.7,451,120c154.7,89.3,272,213.3,352,372l-742-39c-106.7-6-204.7,18.8-294,74.5
	S509,659.7,475,757L199,333c85.3-106,189-187.8,311-245.5S759.7,0.7,893,0z M146,405l337,663c48,95.3,118.3,167.7,211,217
	s190.3,64.3,293,45l-230,451c-141.3-22-269.7-74.5-385-157.5s-206.2-188.3-272.5-316S0,1042.7,0,896C0,718,48.7,554.3,146,405z
	 M1732,574c38.7,100,58.5,203.5,59.5,310.5s-15.2,209-48.5,306s-84.3,187.7-153,272s-150.7,154.2-246,209.5
	c-153.3,88.7-319.3,128.3-498,119l405-623c58.7-87.3,86.2-184.2,82.5-290.5S1294.3,678.7,1227,600L1732,574z M896,594
	c83.3,0,154.5,29.5,213.5,88.5S1198,812.7,1198,896s-29.5,154.5-88.5,213.5S979.3,1198,896,1198s-154.5-29.5-213.5-88.5
	S594,979.3,594,896s29.5-154.5,88.5-213.5S812.7,594,896,594z"/>
</svg>
