<?xml version="1.0" encoding="utf-8"?>
<!-- Generator: Adobe Illustrator 21.1.0, SVG Export Plug-In . SVG Version: 6.00 Build 0)  -->
<svg version="1.1" id="Layer_1" xmlns="http://www.w3.org/2000/svg" xmlns:xlink="http://www.w3.org/1999/xlink" x="0px" y="0px"
	 viewBox="0 0 1792 1792" style="enable-background:new 0 0 1792 1792;" xml:space="preserve">
<style type="text/css">
	.st0{fill:#0066FF;}
</style>
<path class="st0" d="M768,1664h896v-640h-416c-26.7,0-49.3-9.3-68-28s-28-41.3-28-68V512H768V1664z M1024,224v-64
	c0-8.7-3.2-16.2-9.5-22.5s-13.8-9.5-22.5-9.5H288c-8.7,0-16.2,3.2-22.5,9.5S256,151.3,256,160v64c0,8.7,3.2,16.2,9.5,22.5
	s13.8,9.5,22.5,9.5h704c8.7,0,16.2-3.2,22.5-9.5S1024,232.7,1024,224z M1280,896h299l-299-299V896z M1792,1024v672
	c0,26.7-9.3,49.3-28,68s-41.3,28-68,28H736c-26.7,0-49.3-9.3-68-28s-28-41.3-28-68v-160H96c-26.7,0-49.3-9.3-68-28s-28-41.3-28-68
	V96c0-26.7,9.3-49.3,28-68S69.3,0,96,0h1088c26.7,0,49.3,9.3,68,28s28,41.3,28,68v328c14,8.7,26,18,36,28l408,408
	c18.7,18.7,34.7,44,48,76S1792,997.3,1792,1024z"/>
</svg>
