<?xml version="1.0" encoding="utf-8"?>
<!-- Generator: Adobe Illustrator 21.1.0, SVG Export Plug-In . SVG Version: 6.00 Build 0)  -->
<svg version="1.1" id="Layer_1" xmlns="http://www.w3.org/2000/svg" xmlns:xlink="http://www.w3.org/1999/xlink" x="0px" y="0px"
	 viewBox="0 0 1792 1792" style="enable-background:new 0 0 1792 1792;" xml:space="preserve">
<style type="text/css">
	.st0{fill:#0066FF;}
</style>
<path class="st0" d="M672,1472c0-26.7-9.3-49.3-28-68s-41.3-28-68-28s-49.3,9.3-68,28s-28,41.3-28,68s9.3,49.3,28,68s41.3,28,68,28
	s49.3-9.3,68-28S672,1498.7,672,1472z M672,320c0-26.7-9.3-49.3-28-68s-41.3-28-68-28s-49.3,9.3-68,28s-28,41.3-28,68
	s9.3,49.3,28,68s41.3,28,68,28s49.3-9.3,68-28S672,346.7,672,320z M1312,448c0-26.7-9.3-49.3-28-68s-41.3-28-68-28s-49.3,9.3-68,28
	s-28,41.3-28,68s9.3,49.3,28,68s41.3,28,68,28s49.3-9.3,68-28S1312,474.7,1312,448z M1408,448c0,34.7-8.7,66.8-26,96.5
	s-40.7,52.8-70,69.5c-1.3,191.3-76.7,329.3-226,414c-45.3,25.3-113,52.3-203,81c-85.3,26.7-141.8,50.3-169.5,71s-41.5,54-41.5,100
	v26c29.3,16.7,52.7,39.8,70,69.5s26,61.8,26,96.5c0,53.3-18.7,98.7-56,136s-82.7,56-136,56s-98.7-18.7-136-56s-56-82.7-56-136
	c0-34.7,8.7-66.8,26-96.5s40.7-52.8,70-69.5V486c-29.3-16.7-52.7-39.8-70-69.5s-26-61.8-26-96.5c0-53.3,18.7-98.7,56-136
	s82.7-56,136-56s98.7,18.7,136,56s56,82.7,56,136c0,34.7-8.7,66.8-26,96.5s-40.7,52.8-70,69.5v497c36-17.3,87.3-36.3,154-57
	c36.7-11.3,65.8-21.2,87.5-29.5s45.2-18.7,70.5-31s45-25.5,59-39.5s27.5-31,40.5-51s22.3-43.2,28-69.5s8.5-56.8,8.5-91.5
	c-29.3-16.7-52.7-39.8-70-69.5s-26-61.8-26-96.5c0-53.3,18.7-98.7,56-136s82.7-56,136-56s98.7,18.7,136,56S1408,394.7,1408,448z"/>
</svg>
