<?xml version="1.0" encoding="utf-8"?>
<!-- Generator: Adobe Illustrator 21.1.0, SVG Export Plug-In . SVG Version: 6.00 Build 0)  -->
<svg version="1.1" id="Layer_1" xmlns="http://www.w3.org/2000/svg" xmlns:xlink="http://www.w3.org/1999/xlink" x="0px" y="0px"
	 viewBox="0 0 1792 1792" style="enable-background:new 0 0 1792 1792;" xml:space="preserve">
<style type="text/css">
	.st0{fill:#0066FF;}
</style>
<path class="st0" d="M216,1169l603,402v-359L485,989L216,1169z M154,1025l193-129L154,767V1025z M973,1571l603-402l-269-180
	l-334,223V1571z M896,1078l272-182L896,714L624,896L896,1078z M485,803l334-223V221L216,623L485,803z M1445,896l193,129V767
	L1445,896z M1307,803l269-180L973,221v359L1307,803z M1792,623v546c0,27.3-11.3,48.7-34,64l-819,546c-14,8.7-28.3,13-43,13
	s-29-4.3-43-13L34,1233c-22.7-15.3-34-36.7-34-64V623c0-27.3,11.3-48.7,34-64L853,13c14-8.7,28.3-13,43-13s29,4.3,43,13l819,546
	C1780.7,574.3,1792,595.7,1792,623z"/>
</svg>
