<?xml version="1.0" encoding="utf-8"?>
<!-- Generator: Adobe Illustrator 21.1.0, SVG Export Plug-In . SVG Version: 6.00 Build 0)  -->
<svg version="1.1" id="Layer_1" xmlns="http://www.w3.org/2000/svg" xmlns:xlink="http://www.w3.org/1999/xlink" x="0px" y="0px"
	 viewBox="0 0 1792 1792" style="enable-background:new 0 0 1792 1792;" xml:space="preserve">
<style type="text/css">
	.st0{fill:#0066FF;}
</style>
<path class="st0" d="M384,544v576c0,8.7-3.2,16.2-9.5,22.5s-13.8,9.5-22.5,9.5c-9.3,0-17-3-23-9L41,855c-6-6-9-13.7-9-23s3-17,9-23
	l288-288c6-6,13.7-9,23-9c8.7,0,16.2,3.2,22.5,9.5S384,535.3,384,544z M1792,1312v192c0,8.7-3.2,16.2-9.5,22.5s-13.8,9.5-22.5,9.5
	H32c-8.7,0-16.2-3.2-22.5-9.5S0,1512.7,0,1504v-192c0-8.7,3.2-16.2,9.5-22.5s13.8-9.5,22.5-9.5h1728c8.7,0,16.2,3.2,22.5,9.5
	S1792,1303.3,1792,1312z M1792,928v192c0,8.7-3.2,16.2-9.5,22.5s-13.8,9.5-22.5,9.5H672c-8.7,0-16.2-3.2-22.5-9.5
	s-9.5-13.8-9.5-22.5V928c0-8.7,3.2-16.2,9.5-22.5s13.8-9.5,22.5-9.5h1088c8.7,0,16.2,3.2,22.5,9.5S1792,919.3,1792,928z M1792,544
	v192c0,8.7-3.2,16.2-9.5,22.5s-13.8,9.5-22.5,9.5H672c-8.7,0-16.2-3.2-22.5-9.5S640,744.7,640,736V544c0-8.7,3.2-16.2,9.5-22.5
	s13.8-9.5,22.5-9.5h1088c8.7,0,16.2,3.2,22.5,9.5S1792,535.3,1792,544z M1792,160v192c0,8.7-3.2,16.2-9.5,22.5s-13.8,9.5-22.5,9.5
	H32c-8.7,0-16.2-3.2-22.5-9.5S0,360.7,0,352V160c0-8.7,3.2-16.2,9.5-22.5S23.3,128,32,128h1728c8.7,0,16.2,3.2,22.5,9.5
	S1792,151.3,1792,160z"/>
</svg>
