<?xml version="1.0" encoding="utf-8"?>
<!-- Generator: Adobe Illustrator 21.1.0, SVG Export Plug-In . SVG Version: 6.00 Build 0)  -->
<svg version="1.1" id="Layer_1" xmlns="http://www.w3.org/2000/svg" xmlns:xlink="http://www.w3.org/1999/xlink" x="0px" y="0px"
	 viewBox="0 0 1792 1792" style="enable-background:new 0 0 1792 1792;" xml:space="preserve">
<style type="text/css">
	.st0{fill:#0066FF;}
</style>
<path class="st0" d="M888,1184l116-116L852,916l-116,116v56h96v96H888z M1328,464c-10.7-10.7-21.7-10.3-33,1L945,815
	c-11.3,11.3-11.7,22.3-1,33s21.7,10.3,33-1l350-350C1338.3,485.7,1338.7,474.7,1328,464z M1408,1058v190
	c0,79.3-28.2,147.2-84.5,203.5S1199.3,1536,1120,1536H288c-79.3,0-147.2-28.2-203.5-84.5S0,1327.3,0,1248V416
	c0-79.3,28.2-147.2,84.5-203.5S208.7,128,288,128h832c42,0,81,8.3,117,25c10,4.7,16,12.3,18,23c2,11.3-1,21-9,29l-49,49
	c-9.3,9.3-20,12-32,8c-15.3-4-30.3-6-45-6H288c-44,0-81.7,15.7-113,47s-47,69-47,113v832c0,44,15.7,81.7,47,113s69,47,113,47h832
	c44,0,81.7-15.7,113-47s47-69,47-113v-126c0-8.7,3-16,9-22l64-64c10-10,21.7-12.3,35-7C1401.3,1034.3,1408,1044,1408,1058z
	 M1312,320l288,288l-672,672H640V992L1312,320z M1756,452l-92,92l-288-288l92-92c18.7-18.7,41.3-28,68-28s49.3,9.3,68,28l152,152
	c18.7,18.7,28,41.3,28,68S1774.7,433.3,1756,452z"/>
</svg>
