<?xml version="1.0" encoding="utf-8"?>
<!-- Generator: Adobe Illustrator 21.1.0, SVG Export Plug-In . SVG Version: 6.00 Build 0)  -->
<svg version="1.1" id="Layer_1" xmlns="http://www.w3.org/2000/svg" xmlns:xlink="http://www.w3.org/1999/xlink" x="0px" y="0px"
	 viewBox="0 0 1792 1792" style="enable-background:new 0 0 1792 1792;" xml:space="preserve">
<style type="text/css">
	.st0{fill:#0066FF;}
</style>
<path class="st0" d="M1088,1248v192c0,26.7-9.3,49.3-28,68s-41.3,28-68,28H800c-26.7,0-49.3-9.3-68-28s-28-41.3-28-68v-192
	c0-26.7,9.3-49.3,28-68s41.3-28,68-28h192c26.7,0,49.3,9.3,68,28S1088,1221.3,1088,1248z M1088,736v192c0,26.7-9.3,49.3-28,68
	s-41.3,28-68,28H800c-26.7,0-49.3-9.3-68-28s-28-41.3-28-68V736c0-26.7,9.3-49.3,28-68s41.3-28,68-28h192c26.7,0,49.3,9.3,68,28
	S1088,709.3,1088,736z M1088,224v192c0,26.7-9.3,49.3-28,68s-41.3,28-68,28H800c-26.7,0-49.3-9.3-68-28s-28-41.3-28-68V224
	c0-26.7,9.3-49.3,28-68s41.3-28,68-28h192c26.7,0,49.3,9.3,68,28S1088,197.3,1088,224z"/>
</svg>
