<?xml version="1.0" encoding="utf-8"?>
<!-- Generator: Adobe Illustrator 21.1.0, SVG Export Plug-In . SVG Version: 6.00 Build 0)  -->
<svg version="1.1" id="Layer_1" xmlns="http://www.w3.org/2000/svg" xmlns:xlink="http://www.w3.org/1999/xlink" x="0px" y="0px"
	 viewBox="0 0 1792 1792" style="enable-background:new 0 0 1792 1792;" xml:space="preserve">
<style type="text/css">
	.st0{fill:#0066FF;}
</style>
<path class="st0" d="M832,1408l336-384H400L64,1408H832z M1845,331c10,22.7,13.2,46.5,9.5,71.5s-13.8,46.8-30.5,65.5L928,1492
	c-25.3,29.3-57.3,44-96,44H64c-25.3,0-48.5-6.8-69.5-20.5s-36.8-31.8-47.5-54.5c-10-22.7-13.2-46.5-9.5-71.5
	c3.7-25,13.8-46.8,30.5-65.5L864,300c25.3-29.3,57.3-44,96-44h768c25.3,0,48.5,6.8,69.5,20.5S1834.3,308.3,1845,331z"/>
</svg>
