<?xml version="1.0" encoding="utf-8"?>
<!-- Generator: Adobe Illustrator 21.1.0, SVG Export Plug-In . SVG Version: 6.00 Build 0)  -->
<svg version="1.1" id="Layer_1" xmlns="http://www.w3.org/2000/svg" xmlns:xlink="http://www.w3.org/1999/xlink" x="0px" y="0px"
	 viewBox="0 0 1792 1792" style="enable-background:new 0 0 1792 1792;" xml:space="preserve">
<style type="text/css">
	.st0{fill:#0066FF;}
</style>
<path class="st0" d="M1792,1184v192c0,8.7-3.2,16.2-9.5,22.5s-13.8,9.5-22.5,9.5H384v192c0,8.7-3.2,16.2-9.5,22.5
	s-13.8,9.5-22.5,9.5c-8,0-16-3.3-24-10L9,1302c-6-6-9-13.3-9-22c0-9.3,3-17,9-23l320-320c6-6,13.7-9,23-9c8.7,0,16.2,3.2,22.5,9.5
	s9.5,13.8,9.5,22.5v192h1376c8.7,0,16.2,3.2,22.5,9.5S1792,1175.3,1792,1184z M1792,640c0,9.3-3,17-9,23l-320,320c-6,6-13.7,9-23,9
	c-8.7,0-16.2-3.2-22.5-9.5s-9.5-13.8-9.5-22.5V768H32c-8.7,0-16.2-3.2-22.5-9.5S0,744.7,0,736V544c0-8.7,3.2-16.2,9.5-22.5
	S23.3,512,32,512h1376V320c0-9.3,3-17,9-23s13.7-9,23-9c8,0,16,3.3,24,10l319,319C1789,623,1792,630.7,1792,640z"/>
</svg>
