<?xml version="1.0" encoding="utf-8"?>
<!-- Generator: Adobe Illustrator 21.1.0, SVG Export Plug-In . SVG Version: 6.00 Build 0)  -->
<svg version="1.1" id="Layer_1" xmlns="http://www.w3.org/2000/svg" xmlns:xlink="http://www.w3.org/1999/xlink" x="0px" y="0px"
	 viewBox="0 0 1792 1792" style="enable-background:new 0 0 1792 1792;" xml:space="preserve">
<style type="text/css">
	.st0{fill:#0066FF;}
</style>
<path class="st0" d="M1088,1248v224c0,17.3-6.3,32.3-19,45s-27.7,19-45,19H768c-17.3,0-32.3-6.3-45-19s-19-27.7-19-45v-224
	c0-17.3,6.3-32.3,19-45s27.7-19,45-19h256c17.3,0,32.3,6.3,45,19S1088,1230.7,1088,1248z M1118,192l-28,768
	c-0.7,17.3-7.5,32.3-20.5,45s-28.2,19-45.5,19H768c-17.3,0-32.5-6.3-45.5-19s-19.8-27.7-20.5-45l-28-768c-0.7-17.3,5.2-32.3,17.5-45
	s27.2-19,44.5-19h320c17.3,0,32.2,6.3,44.5,19S1118.7,174.7,1118,192z"/>
</svg>
