<?xml version="1.0" encoding="utf-8"?>
<!-- Generator: Adobe Illustrator 21.1.0, SVG Export Plug-In . SVG Version: 6.00 Build 0)  -->
<svg version="1.1" id="Layer_1" xmlns="http://www.w3.org/2000/svg" xmlns:xlink="http://www.w3.org/1999/xlink" x="0px" y="0px"
	 viewBox="0 0 1792 1792" style="enable-background:new 0 0 1792 1792;" xml:space="preserve">
<style type="text/css">
	.st0{fill:#0066FF;}
</style>
<path class="st0" d="M1856,960c-0.7,21.3-96.7,53.3-288,96l-352,32l-224,64h-64l-293,352h69c17.3,0,32.3,1.5,45,4.5s19,6.8,19,11.5
	s-6.3,8.5-19,11.5s-27.7,4.5-45,4.5H384v-32h64v-416H288L96,1312H0l-32-32v-192H0v-32h128v-8l-192-24V896l192-24v-8H0v-32h-32V640
	l32-32h96l192,224h160V416h-64v-32h320c17.3,0,32.3,1.5,45,4.5s19,6.8,19,11.5s-6.3,8.5-19,11.5s-27.7,4.5-45,4.5h-69l293,352h64
	l224,64l352,32c174,38.7,269.7,69.7,287,93L1856,960z"/>
</svg>
