<?xml version="1.0" encoding="utf-8"?>
<!-- Generator: Adobe Illustrator 21.1.0, SVG Export Plug-In . SVG Version: 6.00 Build 0)  -->
<svg version="1.1" id="Layer_1" xmlns="http://www.w3.org/2000/svg" xmlns:xlink="http://www.w3.org/1999/xlink" x="0px" y="0px"
	 viewBox="0 0 1792 1792" style="enable-background:new 0 0 1792 1792;" xml:space="preserve">
<style type="text/css">
	.st0{fill:#0066FF;}
</style>
<path class="st0" d="M1596,380c18.7,18.7,34.7,44,48,76s20,61.3,20,88v1152c0,26.7-9.3,49.3-28,68s-41.3,28-68,28H224
	c-26.7,0-49.3-9.3-68-28s-28-41.3-28-68V96c0-26.7,9.3-49.3,28-68s41.3-28,68-28h896c26.7,0,56,6.7,88,20s57.3,29.3,76,48L1596,380z
	 M1152,136v376h376c-6.7-19.3-14-33-22-41l-313-313C1185,150,1171.3,142.7,1152,136z M1536,1664V640h-416c-26.7,0-49.3-9.3-68-28
	s-28-41.3-28-68V128H256v1536H1536z M748,850c13.3,5.3,20,15.3,20,30v544c0,14.7-6.7,24.7-20,30c-5.3,1.3-9.3,2-12,2
	c-8,0-15.7-3-23-9l-166-167H416c-9.3,0-17-3-23-9s-9-13.7-9-23v-192c0-9.3,3-17,9-23s13.7-9,23-9h131l166-167
	C723.7,847,735.3,844.7,748,850z M1165,1539c20.7,0,37.3-8,50-24c86-106,129-227,129-363s-43-257-129-363c-10.7-14-25-22-43-24
	s-33.7,2.7-47,14c-14,11.3-21.8,25.8-23.5,43.5s3.2,33.5,14.5,47.5c66.7,82,100,176,100,282s-33.3,200-100,282
	c-11.3,14-16.2,29.8-14.5,47.5s9.5,31.8,23.5,42.5C1137,1534,1150.3,1539,1165,1539z M954,1391c18,0,33.7-6.7,47-20
	c58-62,87-135,87-219s-29-157-87-219c-12-12.7-27-19.3-45-20s-33.3,5-46,17s-19.3,26.8-20,44.5s5.3,33.2,18,46.5
	c34.7,38,52,81.7,52,131s-17.3,93-52,131c-12.7,13.3-18.7,28.8-18,46.5s7.3,32.5,20,44.5C923.3,1385.3,938,1391,954,1391z"/>
</svg>
