<?xml version="1.0" encoding="utf-8"?>
<!-- Generator: Adobe Illustrator 21.1.0, SVG Export Plug-In . SVG Version: 6.00 Build 0)  -->
<svg version="1.1" id="Layer_1" xmlns="http://www.w3.org/2000/svg" xmlns:xlink="http://www.w3.org/1999/xlink" x="0px" y="0px"
	 viewBox="0 0 1792 1792" style="enable-background:new 0 0 1792 1792;" xml:space="preserve">
<style type="text/css">
	.st0{fill:#0066FF;}
</style>
<path class="st0" d="M320,1600v-128c0-17.3-6.3-32.3-19-45s-27.7-19-45-19H128c-17.3,0-32.3,6.3-45,19s-19,27.7-19,45v128
	c0,17.3,6.3,32.3,19,45s27.7,19,45,19h128c17.3,0,32.3-6.3,45-19S320,1617.3,320,1600z M320,1216v-128c0-17.3-6.3-32.3-19-45
	s-27.7-19-45-19H128c-17.3,0-32.3,6.3-45,19s-19,27.7-19,45v128c0,17.3,6.3,32.3,19,45s27.7,19,45,19h128c17.3,0,32.3-6.3,45-19
	S320,1233.3,320,1216z M320,832V704c0-17.3-6.3-32.3-19-45s-27.7-19-45-19H128c-17.3,0-32.3,6.3-45,19s-19,27.7-19,45v128
	c0,17.3,6.3,32.3,19,45s27.7,19,45,19h128c17.3,0,32.3-6.3,45-19S320,849.3,320,832z M1344,1600v-512c0-17.3-6.3-32.3-19-45
	s-27.7-19-45-19H512c-17.3,0-32.3,6.3-45,19s-19,27.7-19,45v512c0,17.3,6.3,32.3,19,45s27.7,19,45,19h768c17.3,0,32.3-6.3,45-19
	S1344,1617.3,1344,1600z M320,448V320c0-17.3-6.3-32.3-19-45s-27.7-19-45-19H128c-17.3,0-32.3,6.3-45,19s-19,27.7-19,45v128
	c0,17.3,6.3,32.3,19,45s27.7,19,45,19h128c17.3,0,32.3-6.3,45-19S320,465.3,320,448z M1728,1600v-128c0-17.3-6.3-32.3-19-45
	s-27.7-19-45-19h-128c-17.3,0-32.3,6.3-45,19s-19,27.7-19,45v128c0,17.3,6.3,32.3,19,45s27.7,19,45,19h128c17.3,0,32.3-6.3,45-19
	S1728,1617.3,1728,1600z M1344,832V320c0-17.3-6.3-32.3-19-45s-27.7-19-45-19H512c-17.3,0-32.3,6.3-45,19s-19,27.7-19,45v512
	c0,17.3,6.3,32.3,19,45s27.7,19,45,19h768c17.3,0,32.3-6.3,45-19S1344,849.3,1344,832z M1728,1216v-128c0-17.3-6.3-32.3-19-45
	s-27.7-19-45-19h-128c-17.3,0-32.3,6.3-45,19s-19,27.7-19,45v128c0,17.3,6.3,32.3,19,45s27.7,19,45,19h128c17.3,0,32.3-6.3,45-19
	S1728,1233.3,1728,1216z M1728,832V704c0-17.3-6.3-32.3-19-45s-27.7-19-45-19h-128c-17.3,0-32.3,6.3-45,19s-19,27.7-19,45v128
	c0,17.3,6.3,32.3,19,45s27.7,19,45,19h128c17.3,0,32.3-6.3,45-19S1728,849.3,1728,832z M1728,448V320c0-17.3-6.3-32.3-19-45
	s-27.7-19-45-19h-128c-17.3,0-32.3,6.3-45,19s-19,27.7-19,45v128c0,17.3,6.3,32.3,19,45s27.7,19,45,19h128c17.3,0,32.3-6.3,45-19
	S1728,465.3,1728,448z M1856,288v1344c0,44-15.7,81.7-47,113s-69,47-113,47H96c-44,0-81.7-15.7-113-47s-47-69-47-113V288
	c0-44,15.7-81.7,47-113s69-47,113-47h1600c44,0,81.7,15.7,113,47S1856,244,1856,288z"/>
</svg>
