<?xml version="1.0" encoding="utf-8"?>
<!-- Generator: Adobe Illustrator 21.1.0, SVG Export Plug-In . SVG Version: 6.00 Build 0)  -->
<svg version="1.1" id="Layer_1" xmlns="http://www.w3.org/2000/svg" xmlns:xlink="http://www.w3.org/1999/xlink" x="0px" y="0px"
	 viewBox="0 0 1792 1792" style="enable-background:new 0 0 1792 1792;" xml:space="preserve">
<style type="text/css">
	.st0{fill:#0066FF;}
</style>
<path class="st0" d="M704,192c0-17.3-6.3-32.3-19-45s-27.7-19-45-19s-32.3,6.3-45,19s-19,27.7-19,45s6.3,32.3,19,45s27.7,19,45,19
	s32.3-6.3,45-19S704,209.3,704,192z M1600,160v320c0,10.7-4,19-12,25c-5.3,4.7-12,7-20,7c-2.7,0-5-0.3-7-1l-448-96
	c-7.3-1.3-13.3-5-18-11s-7-12.7-7-20H832v102c74,15.3,135.2,52.3,183.5,111c48.3,58.7,72.5,126.3,72.5,203v800
	c0,17.3-6.3,32.3-19,45s-27.7,19-45,19H512c-17.3,0-32.3-6.3-45-19s-19-27.7-19-45V800c0-70.7,20.8-134.2,62.5-190.5
	S606,515,672,495V384h-32c-39.3,0-77.7,7.8-115,23.5s-67.8,33.3-91.5,53s-45.7,41.8-66,66.5s-33.8,42.5-40.5,53.5
	s-11.3,19.2-14,24.5c-11.3,23.3-30.3,35-57,35c-10.7,0-20.3-2.3-29-7c-15.3-8-25.8-20.3-31.5-37s-4.5-33,3.5-49
	c3.3-6.7,8.2-15.3,14.5-26s18.8-28.5,37.5-53.5s38.8-48.3,60.5-70s50-44,85-67S467.7,290,505,278c-16.7-28-25-56.7-25-86
	c0-44,15.7-81.7,47-113s69-47,113-47s81.7,15.7,113,47s47,69,47,113c0,22-4.7,43.3-14,64h302c0-7.3,2.3-14,7-20s10.7-9.7,18-11
	l448-96c2-0.7,4.3-1,7-1c8,0,14.7,2.3,20,7C1596,141,1600,149.3,1600,160z"/>
</svg>
