<?xml version="1.0" encoding="utf-8"?>
<!-- Generator: Adobe Illustrator 21.1.0, SVG Export Plug-In . SVG Version: 6.00 Build 0)  -->
<svg version="1.1" id="Layer_1" xmlns="http://www.w3.org/2000/svg" xmlns:xlink="http://www.w3.org/1999/xlink" x="0px" y="0px"
	 viewBox="0 0 1792 1792" style="enable-background:new 0 0 1792 1792;" xml:space="preserve">
<style type="text/css">
	.st0{fill:#0066FF;}
</style>
<path class="st0" d="M903,1792c-188.7,0-356.8-50.2-504.5-150.5S141,1408.3,69,1243c-38.7-87.3-61-187.7-67-301s2.7-224.2,26-332.5
	s60.3-212.3,111-312S249.3,117,318,55l-11,281c7.3-9.3,30-14.5,68-15.5s61.3,4.2,70,15.5c28-54,81.5-100,160.5-138
	s157.2-57.7,234.5-59c-36,30-75.8,79.5-119.5,148.5S657.3,411,662,451c16.7,5.3,37.5,9.8,62.5,13.5s46,6.2,63,7.5s39.7,2.7,68,4
	s45.2,2.3,50.5,3c10,3.3,13.2,18.5,9.5,45.5S901.7,576.7,885,600c-3.3,4.7-8.8,10.8-16.5,18.5S842,638,812,654s-63.7,27.3-101,34
	l15,189l-139-67c-12,28.7-14.5,55.8-7.5,81.5s19,47.8,36,66.5s38.8,32.5,65.5,41.5s53.7,11.2,81,6.5c34-6,66.7-17.5,98-34.5
	s59.2-32,83.5-45s48.8-18.8,73.5-17.5c40.7,2.7,70.5,13.7,89.5,33s25.5,41,19.5,65c-0.7,1.3-1.5,3.2-2.5,5.5s-3.8,6.5-8.5,12.5
	s-10.7,11.2-18,15.5s-17.8,7.8-31.5,10.5s-29.2,3-46.5,1c-40,63.3-88.2,108.5-144.5,135.5S748.3,1224.3,665,1217
	c49.3,40.7,103.5,68.2,162.5,82.5s115.2,16.3,168.5,6c53.3-10.3,104.8-27.7,154.5-52s92.3-53.5,128-87.5s62.5-68.7,80.5-104
	c28.7-60.7,41.7-124.8,39-192.5S1382.8,739,1360.5,681s-48.5-99.7-78.5-125c58,25.3,103.7,51.8,137,79.5s59,65.2,77,112.5
	c10-113.3-9.2-227.7-57.5-343S1320.3,195,1229,121c176.7,51.3,314,144.5,412,279.5S1789.3,708,1792,918
	c1.3,84.7-12.2,169.7-40.5,255s-69.5,164.7-123.5,238s-117,138.7-189,196s-154.5,102.5-247.5,135.5S1002.3,1792,903,1792z"/>
</svg>
