<?xml version="1.0" encoding="utf-8"?>
<!-- Generator: Adobe Illustrator 21.1.0, SVG Export Plug-In . SVG Version: 6.00 Build 0)  -->
<svg version="1.1" id="Layer_1" xmlns="http://www.w3.org/2000/svg" xmlns:xlink="http://www.w3.org/1999/xlink" x="0px" y="0px"
	 viewBox="0 0 1792 1792" style="enable-background:new 0 0 1792 1792;" xml:space="preserve">
<style type="text/css">
	.st0{fill:#0066FF;}
</style>
<path class="st0" d="M320,256c0,48-21.3,84.7-64,110v1266c0,8.7-3.2,16.2-9.5,22.5s-13.8,9.5-22.5,9.5h-64c-8.7,0-16.2-3.2-22.5-9.5
	s-9.5-13.8-9.5-22.5V366c-42.7-25.3-64-62-64-110c0-35.3,12.5-65.5,37.5-90.5S156.7,128,192,128s65.5,12.5,90.5,37.5
	S320,220.7,320,256z M1792,320v763c0,16.7-4.2,29.5-12.5,38.5s-21.5,18.2-39.5,27.5c-143.3,77.3-266.3,116-369,116
	c-40.7,0-81.8-7.3-123.5-22s-77.8-30.7-108.5-48s-69.2-33.3-115.5-48c-46.3-14.7-93.8-22-142.5-22c-128,0-282.7,48.7-464,146
	c-11.3,6-22.3,9-33,9c-17.3,0-32.3-6.3-45-19s-19-27.7-19-45V474c0-21.3,10.3-39.7,31-55c14-9.3,40.3-23.7,79-43
	c157.3-80,297.7-120,421-120c71.3,0,138,9.7,200,29s135,48.7,219,88c25.3,12.7,54.7,19,88,19c36,0,75.2-7,117.5-21s79-29.7,110-47
	s60.3-33,88-47s45.8-21,54.5-21c17.3,0,32.3,6.3,45,19S1792,302.7,1792,320z"/>
</svg>
