<?xml version="1.0" encoding="utf-8"?>
<!-- Generator: Adobe Illustrator 21.1.0, SVG Export Plug-In . SVG Version: 6.00 Build 0)  -->
<svg version="1.1" id="Layer_1" xmlns="http://www.w3.org/2000/svg" xmlns:xlink="http://www.w3.org/1999/xlink" x="0px" y="0px"
	 viewBox="0 0 1792 1792" style="enable-background:new 0 0 1792 1792;" xml:space="preserve">
<style type="text/css">
	.st0{fill:#0066FF;}
</style>
<path class="st0" d="M1333,566c12,13.3,14.3,28,7,44L800,1767c-8.7,16.7-22.7,25-42,25c-2.7,0-7.3-0.7-14-2
	c-11.3-3.3-19.8-9.7-25.5-19s-7.2-19.3-4.5-30l197-808l-406,101c-2.7,0.7-6.7,1-12,1c-12,0-22.3-3.7-31-11c-12-10-16.3-23-13-39
	l201-825c2.7-9.3,8-17,16-23s17.3-9,28-9h328c12.7,0,23.3,4.2,32,12.5s13,18.2,13,29.5c0,5.3-1.7,11.3-5,18L891,651l396-98
	c5.3-1.3,9.3-2,12-2C1311.7,551,1323,556,1333,566z"/>
</svg>
