<?xml version="1.0" encoding="utf-8"?>
<!-- Generator: Adobe Illustrator 21.1.0, SVG Export Plug-In . SVG Version: 6.00 Build 0)  -->
<svg version="1.1" id="Layer_1" xmlns="http://www.w3.org/2000/svg" xmlns:xlink="http://www.w3.org/1999/xlink" x="0px" y="0px"
	 viewBox="0 0 1792 1792" style="enable-background:new 0 0 1792 1792;" xml:space="preserve">
<style type="text/css">
	.st0{fill:#0066FF;}
</style>
<path class="st0" d="M1062,150c-211.3,80.7-396.7,201.5-556,362.5S227.3,860.3,148,1073c-13.3-59.3-20-118-20-176
	c0-138.7,34.2-266.8,102.5-384.5s161.2-210.7,278.5-279S754.3,131,893,131C947.7,131,1004,137.3,1062,150z M1331,269
	c62,43.3,116.7,95,164,155c-259.3,75.3-484.2,208.8-674.5,400.5S498,1241.7,424,1501c-62-48-113.7-102-155-162
	c74.7-257.3,206.3-481,395-671S1075,345,1331,269z M598,1603c76.7-237.3,203.2-444.7,379.5-622s382.8-305.3,619.5-384
	c26.7,61.3,44.7,126.3,54,195c-194.7,80-366.7,195-516,345s-263.7,322.7-343,518C723.3,1645.7,658.7,1628.3,598,1603z M1664,1661
	c-128.7-33.3-251-71.7-367-115c-90,56-186.7,91.7-290,107c72.7-136.7,164-260.2,274-370.5s233-202.2,369-275.5
	c-14,101.3-47.7,196-101,284C1592.3,1407.7,1630.7,1531,1664,1661z"/>
</svg>
