<?xml version="1.0" encoding="utf-8"?>
<!-- Generator: Adobe Illustrator 21.1.0, SVG Export Plug-In . SVG Version: 6.00 Build 0)  -->
<svg version="1.1" id="Layer_1" xmlns="http://www.w3.org/2000/svg" xmlns:xlink="http://www.w3.org/1999/xlink" x="0px" y="0px"
	 viewBox="0 0 1792 1792" style="enable-background:new 0 0 1792 1792;" xml:space="preserve">
<style type="text/css">
	.st0{fill:#0066FF;}
</style>
<path class="st0" d="M1256,434l37-194c3.3-15.3,0.3-28.7-9-40s-21-17-35-17H537c-15.3,0-28.2,5.7-38.5,17S483,223.7,483,237v1101
	c0,4.7,2,5,6,1l291-352c15.3-17.3,28-28.5,38-33.5s26-7.5,48-7.5h239c14.7,0,27-4.8,37-14.5s16-19.5,18-29.5
	c16-86.7,28.3-150.3,37-191c2.7-14-1.2-27.3-11.5-40s-22.5-19-36.5-19H855c-19.3,0-35.3-6.3-48-19s-19-28.7-19-48v-42
	c0-19.3,6.3-35.2,19-47.5s28.7-18.5,48-18.5h346c12,0,23.7-4.5,35-13.5S1254,444.7,1256,434z M1483,212
	c-10,48.7-27.8,137.5-53.5,266.5s-48.8,245.7-69.5,350s-32.3,162.2-35,173.5c-4,14.7-7,25.5-9,32.5s-6.7,17.8-14,32.5
	s-15.5,25.7-24.5,33s-21.8,14.3-38.5,21s-36,10-58,10H910c-8.7,0-16,3.3-22,10c-5.3,6-147.3,170.7-426,494
	c-14.7,16.7-34.2,26.2-58.5,28.5S363,1664,355,1658c-36.7-14.7-55-47.3-55-98V150c0-36.7,12.7-70.8,38-102.5S403.3,0,458,0h888
	c63.3,0,105.7,17.7,127,53S1497.7,141.3,1483,212z M1483,212l-158,790c2.7-11.3,14.3-69.2,35-173.5s43.8-221,69.5-350
	S1473,260.7,1483,212z"/>
</svg>
