<?xml version="1.0" encoding="utf-8"?>
<!-- Generator: Adobe Illustrator 21.1.0, SVG Export Plug-In . SVG Version: 6.00 Build 0)  -->
<svg version="1.1" id="Layer_1" xmlns="http://www.w3.org/2000/svg" xmlns:xlink="http://www.w3.org/1999/xlink" x="0px" y="0px"
	 viewBox="0 0 1792 1792" style="enable-background:new 0 0 1792 1792;" xml:space="preserve">
<style type="text/css">
	.st0{fill:#0066FF;}
</style>
<path class="st0" d="M768,1088V960c0-9.3-3-17-9-23s-13.7-9-23-9H544V736c0-9.3-3-17-9-23s-13.7-9-23-9H384c-9.3,0-17,3-23,9
	s-9,13.7-9,23v192H160c-9.3,0-17,3-23,9s-9,13.7-9,23v128c0,9.3,3,17,9,23s13.7,9,23,9h192v192c0,9.3,3,17,9,23s13.7,9,23,9h128
	c9.3,0,17-3,23-9s9-13.7,9-23v-192h192c9.3,0,17-3,23-9S768,1097.3,768,1088z M1344,1152c0-35.3-12.5-65.5-37.5-90.5
	s-55.2-37.5-90.5-37.5s-65.5,12.5-90.5,37.5s-37.5,55.2-37.5,90.5s12.5,65.5,37.5,90.5s55.2,37.5,90.5,37.5s65.5-12.5,90.5-37.5
	S1344,1187.3,1344,1152z M1600,896c0-35.3-12.5-65.5-37.5-90.5S1507.3,768,1472,768s-65.5,12.5-90.5,37.5S1344,860.7,1344,896
	s12.5,65.5,37.5,90.5s55.2,37.5,90.5,37.5s65.5-12.5,90.5-37.5S1600,931.3,1600,896z M1856,1024c0,141.3-50,262-150,362
	s-220.7,150-362,150c-128,0-240.7-42.7-338-128H786c-97.3,85.3-210,128-338,128c-141.3,0-262-50-362-150s-150-220.7-150-362
	s50-262,150-362s220.7-150,362-150h896c141.3,0,262,50,362,150S1856,882.7,1856,1024z"/>
</svg>
