<?xml version="1.0" encoding="utf-8"?>
<!-- Generator: Adobe Illustrator 21.1.0, SVG Export Plug-In . SVG Version: 6.00 Build 0)  -->
<svg version="1.1" id="Layer_1" xmlns="http://www.w3.org/2000/svg" xmlns:xlink="http://www.w3.org/1999/xlink" x="0px" y="0px"
	 viewBox="0 0 1792 1792" style="enable-background:new 0 0 1792 1792;" xml:space="preserve">
<style type="text/css">
	.st0{fill:#0066FF;}
</style>
<path class="st0" d="M1771,1536c0,35.3-12.3,65.3-37,90l-107,108c-26,24.7-56.3,37-91,37c-35.3,0-65.3-12.3-90-37l-363-364
	c-25.3-24-38-54-38-90c0-35.3,14.3-67.3,43-96L832,928l-126,126c-9.3,9.3-20.7,14-34,14s-24.7-4.7-34-14c1.3,1.3,5.5,5.3,12.5,12
	s11.2,11,12.5,13s4.7,5.8,10,11.5s8.7,10.2,10,13.5s3.3,7.8,6,13.5s4.5,11.2,5.5,16.5s1.5,11.3,1.5,18c0,25.3-9.3,48-28,68
	c-2,2-7.5,8-16.5,18s-15.3,16.8-19,20.5s-9.8,9.2-18.5,16.5s-16,12.5-22,15.5s-13.3,6-22,9s-17.3,4.5-26,4.5c-26.7,0-49.3-9.3-68-28
	L68,868c-18.7-18.7-28-41.3-28-68c0-8.7,1.5-17.3,4.5-26s6-16,9-22s8.2-13.3,15.5-22s12.8-14.8,16.5-18.5s10.5-10,20.5-19
	s16-14.5,18-16.5c20-18.7,42.7-28,68-28c6.7,0,12.7,0.5,18,1.5s10.8,2.8,16.5,5.5s10.2,4.7,13.5,6s7.8,4.7,13.5,10
	c5.7,5.3,9.5,8.7,11.5,10s6.3,5.5,13,12.5s10.7,11.2,12,12.5c-9.3-9.3-14-20.7-14-34s4.7-24.7,14-34l348-348c9.3-9.3,20.7-14,34-14
	s24.7,4.7,34,14c-1.3-1.3-5.5-5.3-12.5-12s-11.2-11-12.5-13s-4.7-5.8-10-11.5c-5.3-5.7-8.7-10.2-10-13.5s-3.3-7.8-6-13.5
	s-4.5-11.2-5.5-16.5s-1.5-11.3-1.5-18c0-25.3,9.3-48,28-68c2-2,7.5-8,16.5-18s15.3-16.8,19-20.5s9.8-9.2,18.5-16.5s16-12.5,22-15.5
	s13.3-6,22-9s17.3-4.5,26-4.5c26.7,0,49.3,9.3,68,28l408,408c18.7,18.7,28,41.3,28,68c0,8.7-1.5,17.3-4.5,26s-6,16-9,22
	s-8.2,13.3-15.5,22s-12.8,14.8-16.5,18.5s-10.5,10-20.5,19s-16,14.5-18,16.5c-20,18.7-42.7,28-68,28c-6.7,0-12.7-0.5-18-1.5
	s-10.8-2.8-16.5-5.5s-10.2-4.7-13.5-6s-7.8-4.7-13.5-10s-9.5-8.7-11.5-10s-6.3-5.5-13-12.5s-10.7-11.2-12-12.5
	c9.3,9.3,14,20.7,14,34s-4.7,24.7-14,34L928,832l256,256c28.7-28.7,60.7-43,96-43c34.7,0,65,12.3,91,37l363,363
	C1758.7,1471,1771,1501.3,1771,1536z"/>
</svg>
