<?xml version="1.0" encoding="utf-8"?>
<!-- Generator: Adobe Illustrator 21.1.0, SVG Export Plug-In . SVG Version: 6.00 Build 0)  -->
<svg version="1.1" id="Layer_1" xmlns="http://www.w3.org/2000/svg" xmlns:xlink="http://www.w3.org/1999/xlink" x="0px" y="0px"
	 viewBox="0 0 1792 1792" style="enable-background:new 0 0 1792 1792;" xml:space="preserve">
<style type="text/css">
	.st0{fill:#0066FF;}
</style>
<path class="st0" d="M717,1354l271-271L709,804l-88,88l192,191l-96,96L438,900l279-279l40,40l87-87L717,446L263,900L717,1354z
	 M1075,1346l454-454l-454-454L804,709l279,279l88-88L979,709l96-96l279,279l-279,279l-40-40l-87,88L1075,1346z M1792,896
	c0,121.3-23.7,237.3-71,348s-111,206-191,286s-175.3,143.7-286,191s-226.7,71-348,71s-237.3-23.7-348-71s-206-111-286-191
	s-143.7-175.3-191-286S0,1017.3,0,896s23.7-237.3,71-348s111-206,191-286S437.3,118.3,548,71S774.7,0,896,0s237.3,23.7,348,71
	s206,111,286,191s143.7,175.3,191,286S1792,774.7,1792,896z"/>
</svg>
