<?xml version="1.0" encoding="utf-8"?>
<!-- Generator: Adobe Illustrator 21.1.0, SVG Export Plug-In . SVG Version: 6.00 Build 0)  -->
<svg version="1.1" id="Layer_1" xmlns="http://www.w3.org/2000/svg" xmlns:xlink="http://www.w3.org/1999/xlink" x="0px" y="0px"
	 viewBox="0 0 1792 1792" style="enable-background:new 0 0 1792 1792;" xml:space="preserve">
<style type="text/css">
	.st0{fill:#0066FF;}
</style>
<path class="st0" d="M1181,913c0,138.7-29,262.2-87,370.5s-140.7,193-248,254S615.7,1629,477,1629c-99.3,0-194.3-19.3-285-58
	s-168.7-90.7-234-156s-117.3-143.3-156-234s-58-185.7-58-285s19.3-194.3,58-285s90.7-168.7,156-234s143.3-117.3,234-156
	s185.7-58,285-58c190.7,0,354.3,64,491,192L769,546c-78-75.3-175.3-113-292-113c-82,0-157.8,20.7-227.5,62S124.7,592.5,84,663.5
	S23,812,23,896s20.3,161.5,61,232.5s95.8,127.2,165.5,168.5s145.5,62,227.5,62c55.3,0,106.2-7.7,152.5-23s84.5-34.5,114.5-57.5
	s56.2-49.2,78.5-78.5s38.7-57,49-83s17.5-50.7,21.5-74H477V791h692C1177,833,1181,873.7,1181,913z M2048,791v210h-209v209h-210v-209
	h-209V791h209V582h210v209H2048z"/>
</svg>
