<?xml version="1.0" encoding="utf-8"?>
<!-- Generator: Adobe Illustrator 21.1.0, SVG Export Plug-In . SVG Version: 6.00 Build 0)  -->
<svg version="1.1" id="Layer_1" xmlns="http://www.w3.org/2000/svg" xmlns:xlink="http://www.w3.org/1999/xlink" x="0px" y="0px"
	 viewBox="0 0 1792 1792" style="enable-background:new 0 0 1792 1792;" xml:space="preserve">
<style type="text/css">
	.st0{fill:#0066FF;}
</style>
<path class="st0" d="M602,587c12.7,40.7,23,81.8,31,123.5s13.7,88.8,17,141.5s-1.3,105.7-14,159c-12.7,53.3-33.3,101.7-62,145
	c-14-54-36.3-106.3-67-157c-30.7-50.7-62.5-93-95.5-127s-66-64.2-99-90.5S253.3,736,234,724s-30.3-18.3-33-19
	c-41.3-22.7-68.5-56-81.5-100s-8.2-86.7,14.5-128s56.3-68.5,101-81.5s87.7-8.2,129,14.5C456,465.3,535.3,524.3,602,587z M927,300
	c7.3,16.7,14.2,32,20.5,46S966,393.5,984,446.5s32.2,103.2,42.5,150.5c10.3,47.3,18.8,107.2,25.5,179.5s6.7,140.8,0,205.5
	s-22.5,134.5-47.5,209.5S944.3,1336,899,1400c-34,48-80,72-138,72c-36,0-68.7-10.3-98-31c-38-26.7-61-63-69-109s1.3-88.3,28-127
	c40-56.7,67-121.7,81-195s18.3-139.8,13-199.5S700,690.7,684,630s-29-103.3-39-128s-17.3-42-22-52c-20.7-42-23.5-85.2-8.5-129.5
	S658,243.7,700,223c22.7-11.3,47.7-17,75-17c31.3,0,60.8,8.3,88.5,25S912.3,270.7,927,300z M1248,969c-11.3,106.7-35.3,210.3-72,311
	c-11.3-87.3-32.3-169.3-63-246c16.7-116,15-236.3-5-361c-18-118.7-49.3-232.7-94-342c76,60,146.7,130.3,212,211
	c6,24.7,11,51.3,15,80C1258.3,741.3,1260.7,857,1248,969z M1520,96c6,11.3,13.8,27.8,23.5,49.5s24.2,60.8,43.5,117.5
	s36.2,116,50.5,178s25.7,137.8,34,227.5s10,179.3,5,269s-20.7,189.7-47,300s-63.8,218.2-112.5,323.5c-14.7,32-36.7,57.2-66,75.5
	s-61,27.5-95,27.5c-26,0-50.7-5.3-74-16c-44.7-20.7-75.5-54-92.5-100s-15.5-91.3,4.5-136c38.7-84,68.7-169.8,90-257.5
	s33.8-167.5,37.5-239.5s2.5-143.2-3.5-213.5S1303.2,571,1291.5,521s-24.5-96.2-38.5-138.5s-24.8-72.3-32.5-90S1207.7,264,1205,260
	c-22.7-43.3-26.5-88.5-11.5-135.5S1237.7,42.7,1281,20c24.7-13.3,51.7-20,81-20c32.7,0,63.2,8.5,91.5,25.5S1504,66,1520,96z"/>
</svg>
