<?xml version="1.0" encoding="utf-8"?>
<!-- Generator: Adobe Illustrator 21.1.0, SVG Export Plug-In . SVG Version: 6.00 Build 0)  -->
<svg version="1.1" id="Layer_1" xmlns="http://www.w3.org/2000/svg" xmlns:xlink="http://www.w3.org/1999/xlink" x="0px" y="0px"
	 viewBox="0 0 1792 1792" style="enable-background:new 0 0 1792 1792;" xml:space="preserve">
<style type="text/css">
	.st0{fill:#0066FF;}
</style>
<path class="st0" d="M1045,905c0-17.3-2-38.7-6-64H677v132h217c-2,16-7.5,32.7-16.5,50c-9,17.3-21.5,35-37.5,53
	s-38.2,32.8-66.5,44.5S713,1138,677,1138c-66,0-122.3-23.7-169-71c-46.7-47.3-70-104.3-70-171s23.3-123.7,70-171s103-71,169-71
	c61.3,0,112.3,19.7,153,59l104-101c-72-66.7-157.7-100-257-100c-106.7,0-197.3,37.5-272,112.5S293,790,293,896s37.3,196.5,112,271.5
	S570.3,1280,677,1280c110,0,198.8-35,266.5-105S1045,1015,1045,905z M1390,951h109V841h-109V731h-110v110h-110v110h110v110h110V951z
	 M1664,416v960c0,79.3-28.2,147.2-84.5,203.5S1455.3,1664,1376,1664H416c-79.3,0-147.2-28.2-203.5-84.5S128,1455.3,128,1376V416
	c0-79.3,28.2-147.2,84.5-203.5S336.7,128,416,128h960c79.3,0,147.2,28.2,203.5,84.5S1664,336.7,1664,416z"/>
</svg>
