<?xml version="1.0" encoding="utf-8"?>
<!-- Generator: Adobe Illustrator 21.1.0, SVG Export Plug-In . SVG Version: 6.00 Build 0)  -->
<svg version="1.1" id="Layer_1" xmlns="http://www.w3.org/2000/svg" xmlns:xlink="http://www.w3.org/1999/xlink" x="0px" y="0px"
	 viewBox="0 0 1792 1792" style="enable-background:new 0 0 1792 1792;" xml:space="preserve">
<style type="text/css">
	.st0{fill:#0066FF;}
</style>
<path class="st0" d="M901,1302l350-473c10.7-14.7,18.8-34.3,24.5-59s3.7-53-6-85s-30.2-58.3-61.5-79c-26.7-17.3-54.3-25.8-83-25.5
	s-53.2,6.2-73.5,17.5s-38.5,26.3-54.5,45c-24,26.7-56,40-96,40c-39.3,0-71-13.3-95-40c-16-18.7-34.2-33.7-54.5-45
	s-44.8-17.2-73.5-17.5s-56.7,8.2-84,25.5c-30.7,20.7-50.8,47-60.5,79s-11.7,60.3-6,85s13.8,44.3,24.5,59L901,1302z M1664,896
	c0,139.3-34.3,267.8-103,385.5s-161.8,210.8-279.5,279.5s-246.2,103-385.5,103s-267.8-34.3-385.5-103S299.7,1399.2,231,1281.5
	S128,1035.3,128,896s34.3-267.8,103-385.5S392.8,299.7,510.5,231S756.7,128,896,128s267.8,34.3,385.5,103s210.8,161.8,279.5,279.5
	S1664,756.7,1664,896z"/>
</svg>
