<?xml version="1.0" encoding="utf-8"?>
<!-- Generator: Adobe Illustrator 21.1.0, SVG Export Plug-In . SVG Version: 6.00 Build 0)  -->
<svg version="1.1" id="Layer_1" xmlns="http://www.w3.org/2000/svg" xmlns:xlink="http://www.w3.org/1999/xlink" x="0px" y="0px"
	 viewBox="0 0 1792 1792" style="enable-background:new 0 0 1792 1792;" xml:space="preserve">
<style type="text/css">
	.st0{fill:#0066FF;}
</style>
<path class="st0" d="M256,1344c0-17.3-6.3-32.3-19-45s-27.7-19-45-19s-32.3,6.3-45,19s-19,27.7-19,45s6.3,32.3,19,45s27.7,19,45,19
	s32.3-6.3,45-19S256,1361.3,256,1344z M1664,768c0-34-13-63.8-39-89.5s-55.7-38.5-89-38.5H960c0-13.3,5-29.5,15-48.5s21-37.3,33-55
	s23-40.3,33-68s15-55.8,15-84.5c0-44.7-14.8-77.2-44.5-97.5C981.8,266.2,943.3,256,896,256c-16,0-46,46.3-90,139
	c-16,29.3-28.3,51-37,65c-26.7,42.7-64,91-112,145c-47.3,54-81,89.3-101,106c-46,38-92.7,57-140,57h-32v640h32
	c48,0,103.7,10.7,167,32s127.8,42.7,193.5,64s125.5,32,179.5,32c126,0,189-55.7,189-167c0-17.3-1.7-36-5-56
	c20-10.7,35.8-28.2,47.5-52.5s17.5-48.8,17.5-73.5s-6-47.7-18-69c35.3-33.3,53-73,53-119c0-16.7-3.3-35.2-10-55.5s-15-36.2-25-47.5
	h331c34.7,0,64.7-12.7,90-38S1664,802.7,1664,768z M1792,767c0,70-25.2,130.3-75.5,181s-110.5,76-180.5,76h-169
	c-2.7,41.3-15,81-37,119c2,14,3,28.3,3,43c0,67.3-20,126.7-60,178c0.7,92.7-27.7,165.8-85,219.5s-133,80.5-227,80.5
	c-88.7,0-196-23-322-69c-109.3-39.3-183.7-59-223-59H128c-35.3,0-65.5-12.5-90.5-37.5S0,1443.3,0,1408V768
	c0-35.3,12.5-65.5,37.5-90.5S92.7,640,128,640h288c6.7,0,13.8-1.5,21.5-4.5s15.5-7.7,23.5-14s15.5-12.3,22.5-18s15-13.2,24-22.5
	s15.8-16.5,20.5-21.5s11-12.2,19-21.5s12.7-15,14-17c43.3-49.3,76.7-92.3,100-129c8.7-14,19.7-34.7,33-62s25.7-51.3,37-72
	s24.8-41.7,40.5-63s34-37.8,55-49.5S870.7,128,896,128c83.3,0,152.2,22.3,206.5,67s81.5,107.7,81.5,189c0,45.3-7.3,88-22,128h374
	c69.3,0,129.3,25.3,180,76S1792,698.3,1792,767z"/>
</svg>
