<?xml version="1.0" encoding="utf-8"?>
<!-- Generator: Adobe Illustrator 21.1.0, SVG Export Plug-In . SVG Version: 6.00 Build 0)  -->
<svg version="1.1" id="Layer_1" xmlns="http://www.w3.org/2000/svg" xmlns:xlink="http://www.w3.org/1999/xlink" x="0px" y="0px"
	 viewBox="0 0 1792 1792" style="enable-background:new 0 0 1792 1792;" xml:space="preserve">
<style type="text/css">
	.st0{fill:#0066FF;}
</style>
<path class="st0" d="M880,128c-30.7,0-57,11-79,33s-33,48.3-33,79v656h-32V368c0-30.7-11-57-33-79s-48.3-33-79-33s-57,11-79,33
	s-33,48.3-33,79v784L358,947c-25.3-34-59.3-51-102-51c-35.3,0-65.5,12.5-90.5,37.5S128,988.7,128,1024c0,28.7,8.7,54.3,26,77
	l384,512c25.3,34,59.3,51,102,51h688c22.7,0,43-7.3,61-22s29.3-33.3,34-56l76-405c3.3-21.3,5-41,5-59V624c0-30.7-11-57-33-79
	s-48.3-33-79-33s-57,11-79,33s-33,48.3-33,79v272h-32V368c0-30.7-11-57-33-79s-48.3-33-79-33s-57,11-79,33s-33,48.3-33,79v528h-32
	V240c0-30.7-11-57-33-79S910.7,128,880,128z M880,0c45.3,0,87.2,11.8,125.5,35.5c38.3,23.7,67.8,55.8,88.5,96.5
	c12.7-2.7,26.7-4,42-4c66,0,122.5,23.5,169.5,70.5S1376,302,1376,368v17c70-4,130.2,17.3,180.5,64s75.5,105,75.5,175v498
	c0,26.7-2.7,54.3-8,83l-76,404c-9.3,52.7-34.8,96.3-76.5,131s-89.5,52-143.5,52H640c-40,0-78.2-9.2-114.5-27.5S459,1721.3,435,1690
	L51,1178c-34-45.3-51-96.7-51-154c0-70.7,25-131,75-181s110.3-75,181-75c52,0,94.7,11.3,128,34V368c0-66,23.5-122.5,70.5-169.5
	S558,128,624,128c15.3,0,29.3,1.3,42,4c20.7-40.7,50.2-72.8,88.5-96.5S834.7,0,880,0z"/>
</svg>
