<?xml version="1.0" encoding="utf-8"?>
<!-- Generator: Adobe Illustrator 21.1.0, SVG Export Plug-In . SVG Version: 6.00 Build 0)  -->
<svg version="1.1" id="Layer_1" xmlns="http://www.w3.org/2000/svg" xmlns:xlink="http://www.w3.org/1999/xlink" x="0px" y="0px"
	 viewBox="0 0 1792 1792" style="enable-background:new 0 0 1792 1792;" xml:space="preserve">
<style type="text/css">
	.st0{fill:#0066FF;}
</style>
<path class="st0" d="M1416,647c40,0,75.7,7.7,107,23c94,42,141,117.3,141,226v177c0,62.7-7.7,124.7-23,186l-85,339
	c-14,57.3-44.2,104-90.5,140s-98.8,54-157.5,54H640c-70.7,0-131-25-181-75s-75-110.3-75-181v-401L145,507c-11.3-30-17-60.3-17-91
	c0-70.7,25-131,75-181s110.3-75,181-75c53.3,0,101.8,15.2,145.5,45.5S604.3,275.7,623,325l17,44V256c0-70.7,25-131,75-181
	S825.3,0,896,0s131,25,181,75s75,110.3,75,181v261c18-3.3,34-5,48-5c46,0,88.5,12.2,127.5,36.5S1396,605.7,1416,647z M1200,640
	c-22,0-42.2,6-60.5,18s-32.2,28-41.5,48l-74,163l-71,155h55c33.3,0,63.3,10.5,90,31.5s43.3,47.8,50,80.5l154-338
	c6.7-13.3,10-28.7,10-46c0-30.7-11-57-33-79S1230.7,640,1200,640z M1421,775c-14.7,0-28.2,2.7-40.5,8s-22,10.7-29,16
	s-14.8,15.2-23.5,29.5s-14.3,24.5-17,30.5s-8.3,18.3-17,37l-132,290c-6.7,13.3-10,28.7-10,46c0,30.7,11,57,33,79s48.3,33,79,33
	c22,0,42.2-6,60.5-18s32.2-28,41.5-48l160-352c6-12,9-24.7,9-38c0-33.3-10.7-60.5-32-81.5S1454.3,775,1421,775z M256,416
	c0,14.7,2.7,30,8,46l248,650v69l102-111c28.7-30.7,64-46,106-46h198l106-233V256c0-35.3-12.5-65.5-37.5-90.5S931.3,128,896,128
	s-65.5,12.5-90.5,37.5S768,220.7,768,256v640h-64L504,370c-9.3-24.7-25-44.5-47-59.5S410.7,288,384,288c-35.3,0-65.5,12.5-90.5,37.5
	S256,380.7,256,416z M1308,1664c29.3,0,55.5-9,78.5-27s38.2-41.3,45.5-70l85-339c12.7-48.7,19-100.3,19-155v-91l-141,310
	c-11.3,25.3-29,45.7-53,61s-50,23-78,23c-35.3,0-66.5-11.5-93.5-34.5s-43.2-51.8-48.5-86.5c-29.3,38-67.3,57-114,57H800v-32h208
	c30.7,0,57.7-11,81-33s35-48.3,35-79s-10.3-57-31-79s-46.3-33-77-33H720c-32.7,0-60,12-82,36l-126,136v308
	c0,35.3,12.5,65.5,37.5,90.5s55.2,37.5,90.5,37.5H1308z"/>
</svg>
