<?xml version="1.0" encoding="utf-8"?>
<!-- Generator: Adobe Illustrator 21.1.0, SVG Export Plug-In . SVG Version: 6.00 Build 0)  -->
<svg version="1.1" id="Layer_1" xmlns="http://www.w3.org/2000/svg" xmlns:xlink="http://www.w3.org/1999/xlink" x="0px" y="0px"
	 viewBox="0 0 1792 1792" style="enable-background:new 0 0 1792 1792;" xml:space="preserve">
<style type="text/css">
	.st0{fill:#0066FF;}
</style>
<path class="st0" d="M1023,0c40.7,0,79.3,9.3,116,28s67,44.3,91,77l572,781c78.7,106,118,225.7,118,359v355c0,53.3-18.7,98.7-56,136
	s-82.7,56-136,56h-384c-53.3,0-98.7-18.7-136-56s-56-82.7-56-136v-177l-286-143H320c-53.3,0-98.7-18.7-136-56s-56-82.7-56-136v-32
	c0-79.3,28.2-147.2,84.5-203.5S336.7,768,416,768h420l42-128H192c-66.7,0-124.5-22.5-173.5-67.5S-57.7,472-63,406
	c-43.3-52.7-65-113.3-65-182v-32c0-53.3,18.7-98.7,56-136S10.7,0,64,0H1023z M1792,1600v-355c0-104.7-31-199.3-93-284l-573-781
	c-26-34.7-60.3-52-103-52H64c-17.3,0-32.3,6.3-45,19S0,174.7,0,192c0,21.3,0.5,37.8,1.5,49.5S5.7,266.7,11,282s13.7,29.7,25,43
	c6.7-20.7,18.5-37.3,35.5-50s35.8-19,56.5-19h832v32H128c-17.3,0-32.3,6.3-45,19s-19,27.7-19,45c0,29.3,1,48.7,3,58
	c5.3,29.3,20,53.7,44,73s51,29,81,29h731c26.7,0,49.3,9.3,68,28s28,41.3,28,68c0,10-1.7,20-5,30l-64,192
	c-6.7,19.3-18.3,35.2-35,47.5S879.7,896,859,896H416c-44,0-81.7,15.7-113,47s-47,69-47,113v32c0,17.3,6.3,32.3,19,45s27.7,19,45,19
	h561c10.7,0,20.3,2.3,29,7l317,158c16,8.7,28.8,20.7,38.5,36s14.5,32,14.5,50v197c0,17.3,6.3,32.3,19,45s27.7,19,45,19h384
	c17.3,0,32.3-6.3,45-19S1792,1617.3,1792,1600z"/>
</svg>
