<?xml version="1.0" encoding="utf-8"?>
<!-- Generator: Adobe Illustrator 21.1.0, SVG Export Plug-In . SVG Version: 6.00 Build 0)  -->
<svg version="1.1" id="Layer_1" xmlns="http://www.w3.org/2000/svg" xmlns:xlink="http://www.w3.org/1999/xlink" x="0px" y="0px"
	 viewBox="0 0 1792 1792" style="enable-background:new 0 0 1792 1792;" xml:space="preserve">
<style type="text/css">
	.st0{fill:#0066FF;}
</style>
<path class="st0" d="M1664,596c0-54-7.2-101.7-21.5-143s-32.7-74.2-55-98.5S1538,310.3,1506,295s-63.3-25.7-94-31s-63.3-8-98-8
	s-72,8.5-112,25.5s-76.8,38.3-110.5,64s-62.5,49.7-86.5,72s-44,42.8-60,61.5c-12,14.7-28.3,22-49,22s-37-7.3-49-22
	c-16-18.7-36-39.2-60-61.5s-52.8-46.3-86.5-72s-70.5-47-110.5-64S512.7,256,478,256s-67.3,2.7-98,8s-62,15.7-94,31
	s-59.2,35.2-81.5,59.5s-40.7,57.2-55,98.5S128,542,128,596c0,112,62.3,230.3,187,355l581,560l580-559
	C1601.3,826.7,1664,708,1664,596z M1792,596c0,147.3-76.3,297.3-229,450l-623,600c-12,12-26.7,18-44,18s-32-6-44-18l-624-602
	c-6.7-5.3-15.8-14-27.5-26s-30.2-33.8-55.5-65.5S97,888.3,77,855s-37.8-73.7-53.5-121S0,640.7,0,596c0-146.7,42.3-261.3,127-344
	s201.7-124,351-124c41.3,0,83.5,7.2,126.5,21.5s83,33.7,120,58s68.8,47.2,95.5,68.5s52,44,76,68c24-24,49.3-46.7,76-68
	s58.5-44.2,95.5-68.5s77-43.7,120-58S1272.7,128,1314,128c149.3,0,266.3,41.3,351,124S1792,449.3,1792,596z"/>
</svg>
