<?xml version="1.0" encoding="utf-8"?>
<!-- Generator: Adobe Illustrator 21.1.0, SVG Export Plug-In . SVG Version: 6.00 Build 0)  -->
<svg version="1.1" id="Layer_1" xmlns="http://www.w3.org/2000/svg" xmlns:xlink="http://www.w3.org/1999/xlink" x="0px" y="0px"
	 viewBox="0 0 1792 1792" style="enable-background:new 0 0 1792 1792;" xml:space="preserve">
<style type="text/css">
	.st0{fill:#0066FF;}
</style>
<path class="st0" d="M1536,128c0,174-35.5,327.8-106.5,461.5S1269.7,825.3,1163,896c106.7,70.7,195.5,172.8,266.5,306.5
	S1536,1490,1536,1664h96c9.3,0,17,3,23,9s9,13.7,9,23v64c0,9.3-3,17-9,23s-13.7,9-23,9H160c-9.3,0-17-3-23-9s-9-13.7-9-23v-64
	c0-9.3,3-17,9-23s13.7-9,23-9h96c0-174,35.5-327.8,106.5-461.5S522.3,966.7,629,896c-106.7-70.7-195.5-172.8-266.5-306.5
	S256,302,256,128h-96c-9.3,0-17-3-23-9s-9-13.7-9-23V32c0-9.3,3-17,9-23s13.7-9,23-9h1472c9.3,0,17,3,23,9s9,13.7,9,23v64
	c0,9.3-3,17-9,23s-13.7,9-23,9H1536z M1408,128H384c0,44,3,86.7,9,128h1006C1405,215.3,1408,172.7,1408,128z M1408,1664
	c0-86.7-11.3-169.8-34-249.5s-52.8-149-90.5-208s-79.8-109.7-126.5-152c-46.7-42.3-95.3-73.8-146-94.5H781
	c-50.7,20.7-99.3,52.2-146,94.5c-46.7,42.3-88.8,93-126.5,152s-67.8,128.3-90.5,208s-34,162.8-34,249.5H1408z"/>
</svg>
