<?xml version="1.0" encoding="utf-8"?>
<!-- Generator: Adobe Illustrator 21.1.0, SVG Export Plug-In . SVG Version: 6.00 Build 0)  -->
<svg version="1.1" id="Layer_1" xmlns="http://www.w3.org/2000/svg" xmlns:xlink="http://www.w3.org/1999/xlink" x="0px" y="0px"
	 viewBox="0 0 1792 1792" style="enable-background:new 0 0 1792 1792;" xml:space="preserve">
<style type="text/css">
	.st0{fill:#0066FF;}
</style>
<path class="st0" d="M1536,128c0,174-35.5,327.8-106.5,461.5S1269.7,825.3,1163,896c106.7,70.7,195.5,172.8,266.5,306.5
	S1536,1490,1536,1664h96c9.3,0,17,3,23,9s9,13.7,9,23v64c0,9.3-3,17-9,23s-13.7,9-23,9H160c-9.3,0-17-3-23-9s-9-13.7-9-23v-64
	c0-9.3,3-17,9-23s13.7-9,23-9h96c0-174,35.5-327.8,106.5-461.5S522.3,966.7,629,896c-106.7-70.7-195.5-172.8-266.5-306.5
	S256,302,256,128h-96c-9.3,0-17-3-23-9s-9-13.7-9-23V32c0-9.3,3-17,9-23s13.7-9,23-9h1472c9.3,0,17,3,23,9s9,13.7,9,23v64
	c0,9.3-3,17-9,23s-13.7,9-23,9H1536z M1002,836c51.3-19.3,101-50.2,149-92.5s91.2-93.2,129.5-152.5s69.2-129.3,92.5-210
	s35-165,35-253H384c0,88,11.7,172.3,35,253s54.2,150.7,92.5,210S593,701.2,641,743.5s97.7,73.2,149,92.5
	c12.7,4.7,22.8,12.5,30.5,23.5S832,882.7,832,896s-3.8,25.5-11.5,36.5S802.7,951.3,790,956c-51.3,19.3-101,50.2-149,92.5
	c-48,42.3-91.2,93.2-129.5,152.5s-69.2,129.3-92.5,210s-35,165-35,253h1024c0-88-11.7-172.3-35-253s-54.2-150.7-92.5-210
	s-81.5-110.2-129.5-152.5c-48-42.3-97.7-73.2-149-92.5c-12.7-4.7-22.8-12.5-30.5-23.5S960,909.3,960,896s3.8-25.5,11.5-36.5
	S989.3,840.7,1002,836z"/>
</svg>
