<?xml version="1.0" encoding="utf-8"?>
<!-- Generator: Adobe Illustrator 21.1.0, SVG Export Plug-In . SVG Version: 6.00 Build 0)  -->
<svg version="1.1" id="Layer_1" xmlns="http://www.w3.org/2000/svg" xmlns:xlink="http://www.w3.org/1999/xlink" x="0px" y="0px"
	 viewBox="0 0 1792 1792" style="enable-background:new 0 0 1792 1792;" xml:space="preserve">
<style type="text/css">
	.st0{fill:#0066FF;}
</style>
<path class="st0" d="M1632,1600c9.3,0,17,3,23,9s9,13.7,9,23v128c0,9.3-3,17-9,23s-13.7,9-23,9H160c-9.3,0-17-3-23-9s-9-13.7-9-23
	v-128c0-9.3,3-17,9-23s13.7-9,23-9H1632z M258,1536c2-36.7,7.3-72.3,16-107s18.7-66.3,30-95s26.7-57.7,46-87s37.2-54.7,53.5-76
	s37.8-44.5,64.5-69.5s48.7-45,66-60s40.8-33.3,70.5-55S656.3,949,671,939s36.3-24.3,65-43c-28.7-18.7-50.3-33-65-43
	s-36.8-25.8-66.5-47.5s-53.2-40-70.5-55s-39.3-35-66-60s-48.2-48.2-64.5-69.5s-34.2-46.7-53.5-76s-34.7-58.3-46-87s-21.3-60.3-30-95
	s-14-70.3-16-107h1276c-2,36.7-7.3,72.3-16,107s-18.7,66.3-30,95s-26.7,57.7-46,87s-37.2,54.7-53.5,76s-37.8,44.5-64.5,69.5
	s-48.7,45-66,60s-40.8,33.3-70.5,55S1135.7,843,1121,853s-36.3,24.3-65,43c28.7,18.7,50.3,33,65,43s36.8,25.8,66.5,47.5
	s53.2,40,70.5,55s39.3,35,66,60s48.2,48.2,64.5,69.5s34.2,46.7,53.5,76s34.7,58.3,46,87s21.3,60.3,30,95s14,70.3,16,107H258z
	 M1632,0c9.3,0,17,3,23,9s9,13.7,9,23v128c0,9.3-3,17-9,23s-13.7,9-23,9H160c-9.3,0-17-3-23-9s-9-13.7-9-23V32c0-9.3,3-17,9-23
	s13.7-9,23-9H1632z"/>
</svg>
