<?xml version="1.0" encoding="utf-8"?>
<!-- Generator: Adobe Illustrator 21.1.0, SVG Export Plug-In . SVG Version: 6.00 Build 0)  -->
<svg version="1.1" id="Layer_1" xmlns="http://www.w3.org/2000/svg" xmlns:xlink="http://www.w3.org/1999/xlink" x="0px" y="0px"
	 viewBox="0 0 1792 1792" style="enable-background:new 0 0 1792 1792;" xml:space="preserve">
<style type="text/css">
	.st0{fill:#0066FF;}
</style>
<path class="st0" d="M1151,960h316c-0.7-2-1.5-4.7-2.5-8s-1.8-6-2.5-8l-212-496H542L330,944c-0.7,1.3-1.5,4-2.5,8s-1.8,6.7-2.5,8
	h316l95,192h320L1151,960z M1664,990v482c0,17.3-6.3,32.3-19,45s-27.7,19-45,19H192c-17.3,0-32.3-6.3-45-19s-19-27.7-19-45V990
	c0-41.3,8.3-82.3,25-123l238-552c6.7-16.7,18.8-30.7,36.5-42s35.2-17,52.5-17h832c17.3,0,34.8,5.7,52.5,17s29.8,25.3,36.5,42
	l238,552C1655.7,907.7,1664,948.7,1664,990z"/>
</svg>
