<?xml version="1.0" encoding="utf-8"?>
<!-- Generator: Adobe Illustrator 21.1.0, SVG Export Plug-In . SVG Version: 6.00 Build 0)  -->
<svg version="1.1" id="Layer_1" xmlns="http://www.w3.org/2000/svg" xmlns:xlink="http://www.w3.org/1999/xlink" x="0px" y="0px"
	 viewBox="0 0 1792 1792" style="enable-background:new 0 0 1792 1792;" xml:space="preserve">
<style type="text/css">
	.st0{fill:#0066FF;}
</style>
<path class="st0" d="M1216,1344v128c0,17.3-6.3,32.3-19,45s-27.7,19-45,19H640c-17.3,0-32.3-6.3-45-19s-19-27.7-19-45v-128
	c0-17.3,6.3-32.3,19-45s27.7-19,45-19h64V896h-64c-17.3,0-32.3-6.3-45-19s-19-27.7-19-45V704c0-17.3,6.3-32.3,19-45s27.7-19,45-19
	h384c17.3,0,32.3,6.3,45,19s19,27.7,19,45v576h64c17.3,0,32.3,6.3,45,19S1216,1326.7,1216,1344z M1088,192v192
	c0,17.3-6.3,32.3-19,45s-27.7,19-45,19H768c-17.3,0-32.3-6.3-45-19s-19-27.7-19-45V192c0-17.3,6.3-32.3,19-45s27.7-19,45-19h256
	c17.3,0,32.3,6.3,45,19S1088,174.7,1088,192z"/>
</svg>
