<?xml version="1.0" encoding="utf-8"?>
<!-- Generator: Adobe Illustrator 21.1.0, SVG Export Plug-In . SVG Version: 6.00 Build 0)  -->
<svg version="1.1" id="Layer_1" xmlns="http://www.w3.org/2000/svg" xmlns:xlink="http://www.w3.org/1999/xlink" x="0px" y="0px"
	 viewBox="0 0 1792 1792" style="enable-background:new 0 0 1792 1792;" xml:space="preserve">
<style type="text/css">
	.st0{fill:#0066FF;}
</style>
<path class="st0" d="M1335,832c0,23.3-8.3,43.5-25,60.5s-37,25.5-61,25.5H547c-24,0-44.3-8.5-61-25.5s-25-37.2-25-60.5
	s8.3-43.5,25-60.5s37-25.5,61-25.5h702c24,0,44.3,8.5,61,25.5S1335,808.7,1335,832z M1549,832c0-57.3-7.7-114-23-170H544
	c-24,0-44.3-8.3-61-25s-25-36.7-25-60c0-24,8.3-44.3,25-61s37-25,61-25h908c-58.7-95.3-137-171-235-227s-204.7-84-320-84
	c-118,0-227.2,29.2-327.5,87.5S389.8,405,331.5,505S244,714,244,832c0,57.3,7.7,114,23,170h982c24,0,44.3,8.3,61,25
	c16.7,16.7,25,36.7,25,60c0,24-8.3,44.3-25,61s-37,25-61,25H341c58.7,95.3,137.2,171,235.5,227s205.2,84,320.5,84
	c88,0,172.3-17.2,253-51.5s150-80.7,208-139s104.3-127.7,139-208S1549,920.7,1549,832z M1920,577c0,23.3-8.3,43.3-25,60
	s-37,25-61,25h-131c11.3,56.7,17,113.3,17,170c0,111.3-21.8,217.8-65.5,319.5s-102.2,189.3-175.5,263s-160.8,132.3-262.5,176
	S1008.3,1656,897,1656c-164,0-313.5-44.3-448.5-133S213,1317.7,147,1173H-42c-24,0-44.3-8.3-61-25s-25-37-25-61
	c0-23.3,8.3-43.3,25-60c16.7-16.7,37-25,61-25H90c-11.3-56.7-17-113.3-17-170c0-111.3,21.8-217.8,65.5-319.5s102.2-189.3,175.5-263
	s160.8-132.3,262.5-176S785,8,897,8c163.3,0,312.5,44.3,447.5,133S1580,346.3,1646,491h188c24,0,44.3,8.3,61,25S1920,553,1920,577z"
	/>
</svg>
