<?xml version="1.0" encoding="utf-8"?>
<!-- Generator: Adobe Illustrator 21.1.0, SVG Export Plug-In . SVG Version: 6.00 Build 0)  -->
<svg version="1.1" id="Layer_1" xmlns="http://www.w3.org/2000/svg" xmlns:xlink="http://www.w3.org/1999/xlink" x="0px" y="0px"
	 viewBox="0 0 1792 1792" style="enable-background:new 0 0 1792 1792;" xml:space="preserve">
<style type="text/css">
	.st0{fill:#0066FF;}
</style>
<path class="st0" d="M1198,1073l-160,160l-151,152l-30,30c-43.3,42.7-93.8,71.7-151.5,87s-114.8,16-171.5,2
	c-10.7,46.7-34.7,85-72,115s-80.3,45-129,45c-56.7,0-105-20.2-145-60.5s-60-88.8-60-145.5c0-48,14.8-90.7,44.5-128
	s67.5-61.3,113.5-72c-14.7-57.3-14.3-115,1-173s44.7-108.7,88-152l12-12l151,152l-11,11c-24.7,24.7-37,54.3-37,89s12.3,64.7,37,90
	c24.7,24.7,54.3,37,89,37s64.3-12.3,89-37l30-30l151-152l161-160L1198,1073z M857,391l12,12L717,555l-12-12
	c-24.7-24.7-54.3-37-89-37s-64.3,12.3-89,37s-37,54.5-37,89.5s12.3,64.8,37,89.5l29,29l152,152l160,160l-151,152l-161-160L405,903
	l-30-30c-45.3-44.7-75.3-97.8-90-159.5S272,592,290,534c-46.7-10-85-33.7-115-71s-45-80.3-45-129c0-56.7,20-105.2,60-145.5
	S278.3,128,335,128c50.7,0,95.2,16.3,133.5,49S530,250.7,538,300c56-13.3,112.5-12.2,169.5,3.5S814.3,348.3,857,391z M1664,1458
	c0,56.7-20,105.2-60,145.5s-88.3,60.5-145,60.5c-49.3,0-93-15.7-131-47s-61.7-70.7-71-118c-57.3,18.7-117.2,20.7-179.5,6
	s-116.2-44.7-161.5-90l-11-12l151-152l12,12c24.7,24.7,54.3,37,89,37s64.3-12.3,89-37s37-54.3,37-89s-12.3-64.3-37-89l-30-30
	l-152-152L904,743l152-152l160,160l152,152l29,30c42.7,42.7,71.8,92.8,87.5,150.5s16.5,114.8,2.5,171.5
	c50.7,7.3,92.8,30.2,126.5,68.5S1664,1406.7,1664,1458z M1662,334c0,51.3-17,96.3-51,135s-76.3,61.7-127,69
	c17.3,56.7,18.3,115.5,3,176.5s-45.3,113.8-90,158.5l-12,12l-151-152l12-12c24.7-24.7,37-54.3,37-89s-12.3-64.3-37-89
	s-54.3-37-89-37s-64.3,12.3-89,37l-30,30L886,725L726,885L574,733l161-160l152-152l29-30c44.7-44.7,97.7-74.5,159-89.5
	s120.7-13.8,178,3.5c7.3-50,30.2-92,68.5-126s83.5-51,135.5-51c56.7,0,105,20.2,145,60.5S1662,277.3,1662,334z"/>
</svg>
