<?xml version="1.0" encoding="utf-8"?>
<!-- Generator: Adobe Illustrator 21.1.0, SVG Export Plug-In . SVG Version: 6.00 Build 0)  -->
<svg version="1.1" id="Layer_1" xmlns="http://www.w3.org/2000/svg" xmlns:xlink="http://www.w3.org/1999/xlink" x="0px" y="0px"
	 viewBox="0 0 1792 1792" style="enable-background:new 0 0 1792 1792;" xml:space="preserve">
<style type="text/css">
	.st0{fill:#0066FF;}
</style>
<path class="st0" d="M352,1280c-44,0-81.7-15.7-113-47s-47-69-47-113V416c0-44,15.7-81.7,47-113s69-47,113-47h1088
	c44,0,81.7,15.7,113,47s47,69,47,113v704c0,44-15.7,81.7-47,113s-69,47-113,47H352z M320,416v704c0,8.7,3.2,16.2,9.5,22.5
	s13.8,9.5,22.5,9.5h1088c8.7,0,16.2-3.2,22.5-9.5s9.5-13.8,9.5-22.5V416c0-8.7-3.2-16.2-9.5-22.5s-13.8-9.5-22.5-9.5H352
	c-8.7,0-16.2,3.2-22.5,9.5S320,407.3,320,416z M1696,1344h160v96c0,26.7-15.7,49.3-47,68s-69,28-113,28H96c-44,0-81.7-9.3-113-28
	s-47-41.3-47-68v-96H1696z M976,1440c10.7,0,16-5.3,16-16s-5.3-16-16-16H816c-10.7,0-16,5.3-16,16s5.3,16,16,16H976z"/>
</svg>
