<?xml version="1.0" encoding="utf-8"?>
<!-- Generator: Adobe Illustrator 21.1.0, SVG Export Plug-In . SVG Version: 6.00 Build 0)  -->
<svg version="1.1" id="Layer_1" xmlns="http://www.w3.org/2000/svg" xmlns:xlink="http://www.w3.org/1999/xlink" x="0px" y="0px"
	 viewBox="0 0 1792 1792" style="enable-background:new 0 0 1792 1792;" xml:space="preserve">
<style type="text/css">
	.st0{fill:#0066FF;}
</style>
<path class="st0" d="M1292,704c0,4,3.3,17.7,10,41c6.7,19.3,15,35.8,25,49.5s23.7,25,41,34s32,15.7,44,20s30.3,9.8,55,16.5
	c216.7,60.7,325,171.3,325,332c0,97.3-35.2,178.2-105.5,242.5S1531.3,1536,1432,1536c-39.3,0-76.5-6.2-111.5-18.5
	S1255,1490,1229,1472s-51.7-42.8-77-74.5s-46.3-60.8-63-87.5s-34.5-61.2-53.5-103.5s-33.5-76.7-43.5-103s-23.2-61.8-39.5-106.5
	c-16.3-44.7-28.2-76.3-35.5-95c-21.3-54-41.8-98.5-61.5-133.5S811.3,701.3,782,672s-64-50.7-104-64s-87.3-20-142-20
	c-64,0-125,18.5-183,55.5S249,728.7,215,788s-51,121-51,185c0,106.7,35.5,199.8,106.5,279.5S429.3,1372,534,1372
	c118,0,204-31.7,258-95c37.3-42,65-80.7,83-116l84,152c-10,22.7-24.7,46-44,70l1,1c-87.3,101.3-216.7,152-388,152
	c-98,0-187.8-26.3-269.5-79S113.3,1335.2,68,1249.5S0,1072.3,0,975c0-70,14.5-138.7,43.5-206s67.7-126.2,116-176.5
	s105.7-90.8,172-121.5S466,425,536,425c58,0,111,6.3,159,19s89.2,29.3,123.5,50s66,47.3,95,80s53.2,65.7,72.5,99s38.8,72.3,58.5,117
	s36.5,86.2,50.5,124.5s30.7,81.8,50,130.5c19.3,48.7,37.7,91,55,127c64,133.3,141.7,200,233,200c54,0,100.2-16.2,138.5-48.5
	s57.5-75.2,57.5-128.5c0-28-6.3-52-19-72s-29.5-35.3-50.5-46s-45.2-21.2-72.5-31.5s-55.5-19.3-84.5-27c-29-7.7-58.2-19-87.5-34
	s-56.3-32.3-81-52s-46.3-47-65-82s-31.7-75.8-39-122.5c-2-10.7-3-21.7-3-33c0-73.3,29.2-137.3,87.5-192s124.5-80.7,198.5-78
	c52,2,92.2,6.8,120.5,14.5S1592,465,1624,493h-1c8,7.3,15.7,15.5,23,24.5s16,21,26,36s16.3,24.2,19,27.5l-129,99
	c-17.3-32.7-35.3-56-54-70v-1c-15.3-14-47.7-21-97-21c-32.7,0-60.7,11-84,33S1292,670.7,1292,704z"/>
</svg>
