<?xml version="1.0" encoding="utf-8"?>
<!-- Generator: Adobe Illustrator 21.1.0, SVG Export Plug-In . SVG Version: 6.00 Build 0)  -->
<svg version="1.1" id="Layer_1" xmlns="http://www.w3.org/2000/svg" xmlns:xlink="http://www.w3.org/1999/xlink" x="0px" y="0px"
	 viewBox="0 0 1792 1792" style="enable-background:new 0 0 1792 1792;" xml:space="preserve">
<style type="text/css">
	.st0{fill:#0066FF;}
</style>
<path class="st0" d="M416,256h704c8.7,0,16.2,3.2,22.5,9.5s9.5,14.2,9.5,23.5v863h192c26.7,0,46,12.3,58,37s9,47.7-9,69l-320,384
	c-12,14.7-28.3,22-49,22c-20.7,0-37-7.3-49-22l-320-384c-17.3-20.7-20.3-43.7-9-69c12-24.7,31.3-37,58-37h192V512H576
	c-9.3,0-17.7-3.7-25-11L391,309c-8.7-9.3-10-20.7-4-34C393,262.3,402.7,256,416,256z"/>
</svg>
