<?xml version="1.0" encoding="utf-8"?>
<!-- Generator: Adobe Illustrator 21.1.0, SVG Export Plug-In . SVG Version: 6.00 Build 0)  -->
<svg version="1.1" id="Layer_1" xmlns="http://www.w3.org/2000/svg" xmlns:xlink="http://www.w3.org/1999/xlink" x="0px" y="0px"
	 viewBox="0 0 1792 1792" style="enable-background:new 0 0 1792 1792;" xml:space="preserve">
<style type="text/css">
	.st0{fill:#0066FF;}
</style>
<path class="st0" d="M896,0c121.3,0,237.3,23.7,348,71s206,111,286,191s143.7,175.3,191,286s71,226.7,71,348s-23.7,237.3-71,348
	s-111,206-191,286s-175.3,143.7-286,191s-226.7,71-348,71s-237.3-23.7-348-71s-206-111-286-191s-143.7-175.3-191-286S0,1017.3,0,896
	s23.7-237.3,71-348s111-206,191-286S437.3,118.3,548,71S774.7,0,896,0z M896,128c-126.7,0-247,30-361,90l194,194
	c54.7-18.7,110.3-28,167-28s112.3,9.3,167,28l194-194C1143,158,1022.7,128,896,128z M218,1257l194-194c-18.7-54.7-28-110.3-28-167
	s9.3-112.3,28-167L218,535c-60,114-90,234.3-90,361S158,1143,218,1257z M896,1664c126.7,0,247-30,361-90l-194-194
	c-54.7,18.7-110.3,28-167,28s-112.3-9.3-167-28l-194,194C649,1634,769.3,1664,896,1664z M896,1280c106,0,196.5-37.5,271.5-112.5
	S1280,1002,1280,896s-37.5-196.5-112.5-271.5S1002,512,896,512s-196.5,37.5-271.5,112.5S512,790,512,896s37.5,196.5,112.5,271.5
	S790,1280,896,1280z M1380,1063l194,194c60-114,90-234.3,90-361s-30-247-90-361l-194,194c18.7,54.7,28,110.3,28,167
	S1398.7,1008.3,1380,1063z"/>
</svg>
