<?xml version="1.0" encoding="utf-8"?>
<!-- Generator: Adobe Illustrator 21.1.0, SVG Export Plug-In . SVG Version: 6.00 Build 0)  -->
<svg version="1.1" id="Layer_1" xmlns="http://www.w3.org/2000/svg" xmlns:xlink="http://www.w3.org/1999/xlink" x="0px" y="0px"
	 viewBox="0 0 1792 1792" style="enable-background:new 0 0 1792 1792;" xml:space="preserve">
<style type="text/css">
	.st0{fill:#0066FF;}
</style>
<path class="st0" d="M365,1414h231V720H365V1414z M611,506c-0.7-34.7-12.7-63.3-36-86s-54.3-34-93-34s-70.2,11.3-94.5,34
	S351,471.3,351,506c0,34,11.8,62.5,35.5,85.5S441,626,479,626h1c39.3,0,71-11.5,95-34.5S611,540,611,506z M1196,1414h231v-398
	c0-102.7-24.3-180.3-73-233s-113-79-193-79c-90.7,0-160.3,39-209,117h2V720H723c2,44,2,275.3,0,694h231v-388c0-25.3,2.3-44,7-56
	c10-23.3,25-43.2,45-59.5s44.7-24.5,74-24.5c77.3,0,116,52.3,116,157V1414z M1664,416v960c0,79.3-28.2,147.2-84.5,203.5
	S1455.3,1664,1376,1664H416c-79.3,0-147.2-28.2-203.5-84.5S128,1455.3,128,1376V416c0-79.3,28.2-147.2,84.5-203.5S336.7,128,416,128
	h960c79.3,0,147.2,28.2,203.5,84.5S1664,336.7,1664,416z"/>
</svg>
