<?xml version="1.0" encoding="utf-8"?>
<!-- Generator: Adobe Illustrator 21.1.0, SVG Export Plug-In . SVG Version: 6.00 Build 0)  -->
<svg version="1.1" id="Layer_1" xmlns="http://www.w3.org/2000/svg" xmlns:xlink="http://www.w3.org/1999/xlink" x="0px" y="0px"
	 viewBox="0 0 1792 1792" style="enable-background:new 0 0 1792 1792;" xml:space="preserve">
<style type="text/css">
	.st0{fill:#0066FF;}
</style>
<path class="st0" d="M384,1184v64c0,8.7-3.2,16.2-9.5,22.5s-13.8,9.5-22.5,9.5h-64c-8.7,0-16.2-3.2-22.5-9.5s-9.5-13.8-9.5-22.5v-64
	c0-8.7,3.2-16.2,9.5-22.5s13.8-9.5,22.5-9.5h64c8.7,0,16.2,3.2,22.5,9.5S384,1175.3,384,1184z M384,928v64c0,8.7-3.2,16.2-9.5,22.5
	s-13.8,9.5-22.5,9.5h-64c-8.7,0-16.2-3.2-22.5-9.5s-9.5-13.8-9.5-22.5v-64c0-8.7,3.2-16.2,9.5-22.5s13.8-9.5,22.5-9.5h64
	c8.7,0,16.2,3.2,22.5,9.5S384,919.3,384,928z M384,672v64c0,8.7-3.2,16.2-9.5,22.5S360.7,768,352,768h-64c-8.7,0-16.2-3.2-22.5-9.5
	S256,744.7,256,736v-64c0-8.7,3.2-16.2,9.5-22.5s13.8-9.5,22.5-9.5h64c8.7,0,16.2,3.2,22.5,9.5S384,663.3,384,672z M1536,1184v64
	c0,8.7-3.2,16.2-9.5,22.5s-13.8,9.5-22.5,9.5H544c-8.7,0-16.2-3.2-22.5-9.5s-9.5-13.8-9.5-22.5v-64c0-8.7,3.2-16.2,9.5-22.5
	s13.8-9.5,22.5-9.5h960c8.7,0,16.2,3.2,22.5,9.5S1536,1175.3,1536,1184z M1536,928v64c0,8.7-3.2,16.2-9.5,22.5s-13.8,9.5-22.5,9.5
	H544c-8.7,0-16.2-3.2-22.5-9.5s-9.5-13.8-9.5-22.5v-64c0-8.7,3.2-16.2,9.5-22.5s13.8-9.5,22.5-9.5h960c8.7,0,16.2,3.2,22.5,9.5
	S1536,919.3,1536,928z M1536,672v64c0,8.7-3.2,16.2-9.5,22.5s-13.8,9.5-22.5,9.5H544c-8.7,0-16.2-3.2-22.5-9.5S512,744.7,512,736
	v-64c0-8.7,3.2-16.2,9.5-22.5s13.8-9.5,22.5-9.5h960c8.7,0,16.2,3.2,22.5,9.5S1536,663.3,1536,672z M1664,1376V544
	c0-8.7-3.2-16.2-9.5-22.5s-13.8-9.5-22.5-9.5H160c-8.7,0-16.2,3.2-22.5,9.5S128,535.3,128,544v832c0,8.7,3.2,16.2,9.5,22.5
	s13.8,9.5,22.5,9.5h1472c8.7,0,16.2-3.2,22.5-9.5S1664,1384.7,1664,1376z M1792,288v1088c0,44-15.7,81.7-47,113s-69,47-113,47H160
	c-44,0-81.7-15.7-113-47s-47-69-47-113V288c0-44,15.7-81.7,47-113s69-47,113-47h1472c44,0,81.7,15.7,113,47S1792,244,1792,288z"/>
</svg>
