<?xml version="1.0" encoding="utf-8"?>
<!-- Generator: Adobe Illustrator 21.1.0, SVG Export Plug-In . SVG Version: 6.00 Build 0)  -->
<svg version="1.1" id="Layer_1" xmlns="http://www.w3.org/2000/svg" xmlns:xlink="http://www.w3.org/1999/xlink" x="0px" y="0px"
	 viewBox="0 0 1792 1792" style="enable-background:new 0 0 1792 1792;" xml:space="preserve">
<style type="text/css">
	.st0{fill:#0066FF;}
</style>
<path class="st0" d="M1593,349L953,1629c-11.3,23.3-30.3,35-57,35c-3.3,0-8.3-0.7-15-2c-14.7-3.3-26.5-10.8-35.5-22.5
	S832,1614.7,832,1600v-576H256c-14.7,0-27.8-4.5-39.5-13.5S197.3,989.7,194,975s-2-28.7,4-42s15.7-23.3,29-30l1280-640
	c8.7-4.7,18.3-7,29-7c18,0,33,6.3,45,19c10,9.3,16.2,20.8,18.5,34.5S1599.7,336.3,1593,349z"/>
</svg>
