<?xml version="1.0" encoding="utf-8"?>
<!-- Generator: Adobe Illustrator 21.1.0, SVG Export Plug-In . SVG Version: 6.00 Build 0)  -->
<svg version="1.1" id="Layer_1" xmlns="http://www.w3.org/2000/svg" xmlns:xlink="http://www.w3.org/1999/xlink" x="0px" y="0px"
	 viewBox="0 0 1792 1792" style="enable-background:new 0 0 1792 1792;" xml:space="preserve">
<style type="text/css">
	.st0{fill:#0066FF;}
</style>
<path class="st0" d="M1664,832v128c0,134-32.8,254.7-98.5,362s-157,191.2-274,251.5S1042.7,1664,896,1664s-278.5-30.2-395.5-90.5
	s-208.3-144.2-274-251.5S128,1094,128,960V832c0-17.3,6.3-32.3,19-45s27.7-19,45-19h384c17.3,0,32.3,6.3,45,19s19,27.7,19,45v128
	c0,34.7,7.8,64.7,23.5,90s33.5,44.3,53.5,57s43.7,22.7,71,30s48.7,11.7,64,13s30,2,44,2s28.7-0.7,44-2s36.7-5.7,64-13
	c27.3-7.3,51-17.3,71-30s37.8-31.7,53.5-57s23.5-55.3,23.5-90V832c0-17.3,6.3-32.3,19-45s27.7-19,45-19h384c17.3,0,32.3,6.3,45,19
	S1664,814.7,1664,832z M640,192v384c0,17.3-6.3,32.3-19,45s-27.7,19-45,19H192c-17.3,0-32.3-6.3-45-19s-19-27.7-19-45V192
	c0-17.3,6.3-32.3,19-45s27.7-19,45-19h384c17.3,0,32.3,6.3,45,19S640,174.7,640,192z M1664,192v384c0,17.3-6.3,32.3-19,45
	s-27.7,19-45,19h-384c-17.3,0-32.3-6.3-45-19s-19-27.7-19-45V192c0-17.3,6.3-32.3,19-45s27.7-19,45-19h384c17.3,0,32.3,6.3,45,19
	S1664,174.7,1664,192z"/>
</svg>
