<?xml version="1.0" encoding="utf-8"?>
<!-- Generator: Adobe Illustrator 21.1.0, SVG Export Plug-In . SVG Version: 6.00 Build 0)  -->
<svg version="1.1" id="Layer_1" xmlns="http://www.w3.org/2000/svg" xmlns:xlink="http://www.w3.org/1999/xlink" x="0px" y="0px"
	 viewBox="0 0 1792 1792" style="enable-background:new 0 0 1792 1792;" xml:space="preserve">
<style type="text/css">
	.st0{fill:#0066FF;}
</style>
<path class="st0" d="M1892,11c18.7,13.3,28,31,28,53v1408c0,13.3-3.7,25.3-11,36s-17,18.3-29,23l-640,256c-16,7.3-32,7.3-48,0
	l-616-246l-616,246c-6.7,3.3-14.7,5-24,5c-12.7,0-24.7-3.7-36-11c-18.7-13.3-28-31-28-53V320c0-13.3,3.7-25.3,11-36s17-18.3,29-23
	L552,5c16-7.3,32-7.3,48,0l616,246L1832,5C1853.3-3.7,1873.3-1.7,1892,11z M608,146v1270l576,230V376L608,146z M0,363v1270l544-217
	V146L0,363z M1792,1429V159l-544,217v1270L1792,1429z"/>
</svg>
