<?xml version="1.0" encoding="utf-8"?>
<!-- Generator: Adobe Illustrator 21.1.0, SVG Export Plug-In . SVG Version: 6.00 Build 0)  -->
<svg version="1.1" id="Layer_1" xmlns="http://www.w3.org/2000/svg" xmlns:xlink="http://www.w3.org/1999/xlink" x="0px" y="0px"
	 viewBox="0 0 1792 1792" style="enable-background:new 0 0 1792 1792;" xml:space="preserve">
<style type="text/css">
	.st0{fill:#0066FF;}
</style>
<path class="st0" d="M1408,960V832c0-17.3-6.3-32.3-19-45s-27.7-19-45-19H448c-17.3,0-32.3,6.3-45,19s-19,27.7-19,45v128
	c0,17.3,6.3,32.3,19,45s27.7,19,45,19h896c17.3,0,32.3-6.3,45-19S1408,977.3,1408,960z M1664,416v960c0,79.3-28.2,147.2-84.5,203.5
	S1455.3,1664,1376,1664H416c-79.3,0-147.2-28.2-203.5-84.5S128,1455.3,128,1376V416c0-79.3,28.2-147.2,84.5-203.5S336.7,128,416,128
	h960c79.3,0,147.2,28.2,203.5,84.5S1664,336.7,1664,416z"/>
</svg>
