<?xml version="1.0" encoding="utf-8"?>
<!-- Generator: Adobe Illustrator 21.1.0, SVG Export Plug-In . SVG Version: 6.00 Build 0)  -->
<svg version="1.1" id="Layer_1" xmlns="http://www.w3.org/2000/svg" xmlns:xlink="http://www.w3.org/1999/xlink" x="0px" y="0px"
	 viewBox="0 0 1792 1792" style="enable-background:new 0 0 1792 1792;" xml:space="preserve">
<style type="text/css">
	.st0{fill:#0066FF;}
</style>
<path class="st0" d="M976,1408c0-22-7.8-40.8-23.5-56.5S918,1328,896,1328s-40.8,7.8-56.5,23.5S816,1386,816,1408
	s7.8,40.8,23.5,56.5S874,1488,896,1488s40.8-7.8,56.5-23.5S976,1430,976,1408z M1184,1248V544c0-8.7-3.2-16.2-9.5-22.5
	s-13.8-9.5-22.5-9.5H640c-8.7,0-16.2,3.2-22.5,9.5S608,535.3,608,544v704c0,8.7,3.2,16.2,9.5,22.5s13.8,9.5,22.5,9.5h512
	c8.7,0,16.2-3.2,22.5-9.5S1184,1256.7,1184,1248z M992,400c0-10.7-5.3-16-16-16H816c-10.7,0-16,5.3-16,16s5.3,16,16,16h160
	C986.7,416,992,410.7,992,400z M1280,384v1024c0,34.7-12.7,64.7-38,90s-55.3,38-90,38H640c-34.7,0-64.7-12.7-90-38s-38-55.3-38-90
	V384c0-34.7,12.7-64.7,38-90s55.3-38,90-38h512c34.7,0,64.7,12.7,90,38S1280,349.3,1280,384z"/>
</svg>
