<?xml version="1.0" encoding="utf-8"?>
<!-- Generator: Adobe Illustrator 21.1.0, SVG Export Plug-In . SVG Version: 6.00 Build 0)  -->
<svg version="1.1" id="Layer_1" xmlns="http://www.w3.org/2000/svg" xmlns:xlink="http://www.w3.org/1999/xlink" x="0px" y="0px"
	 viewBox="0 0 1792 1792" style="enable-background:new 0 0 1792 1792;" xml:space="preserve">
<style type="text/css">
	.st0{fill:#0066FF;}
</style>
<path class="st0" d="M1664,224v1120c0,33.3-11.3,63-34,89s-51.3,46.2-86,60.5s-69.2,25-103.5,32S1374,1536,1344,1536
	s-62.2-3.5-96.5-10.5s-68.8-17.7-103.5-32s-63.3-34.5-86-60.5s-34-55.7-34-89s11.3-63,34-89s51.3-46.2,86-60.5s69.2-25,103.5-32
	s66.5-10.5,96.5-10.5c70,0,134,13,192,39V654L768,891v709c0,33.3-11.3,63-34,89s-51.3,46.2-86,60.5s-69.2,25-103.5,32
	S478,1792,448,1792s-62.2-3.5-96.5-10.5s-68.8-17.7-103.5-32s-63.3-34.5-86-60.5s-34-55.7-34-89s11.3-63,34-89s51.3-46.2,86-60.5
	s69.2-25,103.5-32S418,1408,448,1408c70,0,134,13,192,39V480c0-20.7,6.3-39.5,19-56.5s29-28.8,49-35.5l832-256c8-2.7,17.3-4,28-4
	c26.7,0,49.3,9.3,68,28S1664,197.3,1664,224z"/>
</svg>
