<?xml version="1.0" encoding="utf-8"?>
<!-- Generator: Adobe Illustrator 21.1.0, SVG Export Plug-In . SVG Version: 6.00 Build 0)  -->
<svg version="1.1" id="Layer_1" xmlns="http://www.w3.org/2000/svg" xmlns:xlink="http://www.w3.org/1999/xlink" x="0px" y="0px"
	 viewBox="0 0 1792 1792" style="enable-background:new 0 0 1792 1792;" xml:space="preserve">
<style type="text/css">
	.st0{fill:#0066FF;}
</style>
<path class="st0" d="M1086,0v1536l-272,128c-152-13.3-290-47.3-414-102s-221.7-124.2-293-208.5S0,1178.3,0,1081
	c0-93.3,33.5-181.2,100.5-263.5s158.7-150.8,275-205.5S622.3,521.3,767,504v172c-144.7,25.3-263.5,75.3-356.5,150
	S271,985.7,271,1081c0,101.3,51.5,190.3,154.5,267S658,1473,814,1493V133L1086,0z M1755,582l37,390l-525-114l147-83
	c-79.3-46.7-172.7-79.7-280-99V504c184.7,22,345,74.3,481,157L1755,582z"/>
</svg>
