<?xml version="1.0" encoding="utf-8"?>
<!-- Generator: Adobe Illustrator 21.1.0, SVG Export Plug-In . SVG Version: 6.00 Build 0)  -->
<svg version="1.1" id="Layer_1" xmlns="http://www.w3.org/2000/svg" xmlns:xlink="http://www.w3.org/1999/xlink" x="0px" y="0px"
	 viewBox="0 0 1792 1792" style="enable-background:new 0 0 1792 1792;" xml:space="preserve">
<style type="text/css">
	.st0{fill:#0066FF;}
</style>
<path class="st0" d="M1493,228c-110-73.3-229.7-110-359-110c-103.3,0-201,24.3-293,73S669,306.3,601,391
	c-50,62-89.8,134.7-119.5,218S435.7,781,433,875v42c2.7,94,18.8,182.7,48.5,266S551,1339,601,1401c68,84.7,148,151.3,240,200
	s189.7,73,293,73c129.3,0,249-36.7,359-110c-80.7,72-172.2,128-274.5,168s-209.8,60-322.5,60c-19.3,0-33.7-0.3-43-1
	c-116.7-5.3-227.7-32.7-333-82s-196-113.7-272-193s-136.3-173-181-281S0,1014,0,896c0-121.3,23.7-237.3,71-348s111-206,191-286
	S437.3,118.3,548,71S774.7,0,896,0h3c112,0.7,218.8,20.8,320.5,60.5S1412.3,156,1493,228z M1792,896c0,128-25.7,248.8-77,362.5
	S1592.7,1471,1502,1555c-69.3,42-143.3,63-222,63c-91.3,0-176.3-28-255-84c102.7-37.3,187.2-115,253.5-233s99.5-253,99.5-405
	c0-151.3-33-286-99-404s-150.3-196-253-234c79.3-55.3,164-83,254-83c79.3,0,154.7,21.7,226,65c90,83.3,160.2,181.7,210.5,295
	S1792,768.7,1792,896z"/>
</svg>
