<?xml version="1.0" encoding="utf-8"?>
<!-- Generator: Adobe Illustrator 21.1.0, SVG Export Plug-In . SVG Version: 6.00 Build 0)  -->
<svg version="1.1" id="Layer_1" xmlns="http://www.w3.org/2000/svg" xmlns:xlink="http://www.w3.org/1999/xlink" x="0px" y="0px"
	 viewBox="0 0 1792 1792" style="enable-background:new 0 0 1792 1792;" xml:space="preserve">
<style type="text/css">
	.st0{fill:#0066FF;}
</style>
<path class="st0" d="M1534,189v73c0,19.3-6.2,39.7-18.5,61s-26.5,32-42.5,32c-33.3,0-51.3,0.3-54,1c-17.3,4-28,14.3-32,31
	c-2,7.3-3,28.7-3,64v1152c0,16.7-6,31-18,43s-26.3,18-43,18h-108c-16.7,0-31-6-43-18s-18-26.3-18-43V385h-143v1218
	c0,16.7-5.8,31-17.5,43s-26.2,18-43.5,18H842c-17.3,0-31.8-6-43.5-18s-17.5-26.3-17.5-43v-496c-98-8-179.7-27.7-245-59
	c-84-38.7-148-98.3-192-179c-42.7-78-64-164.3-64-259c0-110.7,29.3-206,88-286c58.7-78.7,128.3-131.7,209-159c74-24.7,213-37,417-37
	h479c16.7,0,31,6,43,18S1534,172.3,1534,189z"/>
</svg>
