<?xml version="1.0" encoding="utf-8"?>
<!-- Generator: Adobe Illustrator 21.1.0, SVG Export Plug-In . SVG Version: 6.00 Build 0)  -->
<svg version="1.1" id="Layer_1" xmlns="http://www.w3.org/2000/svg" xmlns:xlink="http://www.w3.org/1999/xlink" x="0px" y="0px"
	 viewBox="0 0 1792 1792" style="enable-background:new 0 0 1792 1792;" xml:space="preserve">
<style type="text/css">
	.st0{fill:#0066FF;}
</style>
<path class="st0" d="M576,576c0,53.3-18.7,98.7-56,136s-82.7,56-136,56s-98.7-18.7-136-56s-56-82.7-56-136s18.7-98.7,56-136
	s82.7-56,136-56s98.7,18.7,136,56S576,522.7,576,576z M1600,960v448H192v-192l320-320l160,160l512-512L1600,960z M1696,256H96
	c-8.7,0-16.2,3.2-22.5,9.5S64,279.3,64,288v1216c0,8.7,3.2,16.2,9.5,22.5s13.8,9.5,22.5,9.5h1600c8.7,0,16.2-3.2,22.5-9.5
	s9.5-13.8,9.5-22.5V288c0-8.7-3.2-16.2-9.5-22.5S1704.7,256,1696,256z M1856,288v1216c0,44-15.7,81.7-47,113s-69,47-113,47H96
	c-44,0-81.7-15.7-113-47s-47-69-47-113V288c0-44,15.7-81.7,47-113s69-47,113-47h1600c44,0,81.7,15.7,113,47S1856,244,1856,288z"/>
</svg>
