<?xml version="1.0" encoding="utf-8"?>
<!-- Generator: Adobe Illustrator 21.1.0, SVG Export Plug-In . SVG Version: 6.00 Build 0)  -->
<svg version="1.1" id="Layer_1" xmlns="http://www.w3.org/2000/svg" xmlns:xlink="http://www.w3.org/1999/xlink" x="0px" y="0px"
	 viewBox="0 0 1792 1792" style="enable-background:new 0 0 1792 1792;" xml:space="preserve">
<style type="text/css">
	.st0{fill:#0066FF;}
</style>
<path class="st0" d="M1174,1020c0,42.7-12.7,79-38,109s-55.7,45-91,45c-28.7,0-52-5-70-15V882c18.7-11.3,42-17,70-17
	c35.3,0,65.7,15.2,91,45.5S1174,977.3,1174,1020z M831,592c0,42.7-12.7,79.2-38,109.5S737.3,747,702,747c-28.7,0-52-5-70-15V455
	c18.7-11.3,42-17,70-17c35.3,0,65.7,15,91,45S831,549.3,831,592z M1393,1023c0-89.3-29.3-165.7-88-229s-129.7-95-213-95
	c-13.3,0-26.3,1-39,3c-15.3,52-41.3,97.3-78,136c-58,63.3-128.3,97-211,101v636l211-41v-206c34,12.7,73,19,117,19
	c83.3,0,154.3-31.7,213-95S1393,1112.3,1393,1023z M1050,596c0-89.3-29.5-165.7-88.5-229S831.3,272,748,272c-49.3,0-96.3,12-141,36
	H421v840l211-41V901c36.7,12.7,75.3,19,116,19c83.3,0,154.5-31.7,213.5-95S1050,685.3,1050,596z M1664,416v960
	c0,79.3-28.2,147.2-84.5,203.5S1455.3,1664,1376,1664H416c-79.3,0-147.2-28.2-203.5-84.5S128,1455.3,128,1376V416
	c0-79.3,28.2-147.2,84.5-203.5S336.7,128,416,128h960c79.3,0,147.2,28.2,203.5,84.5S1664,336.7,1664,416z"/>
</svg>
