<?xml version="1.0" encoding="utf-8"?>
<!-- Generator: Adobe Illustrator 21.1.0, SVG Export Plug-In . SVG Version: 6.00 Build 0)  -->
<svg version="1.1" id="Layer_1" xmlns="http://www.w3.org/2000/svg" xmlns:xlink="http://www.w3.org/1999/xlink" x="0px" y="0px"
	 viewBox="0 0 1792 1792" style="enable-background:new 0 0 1792 1792;" xml:space="preserve">
<style type="text/css">
	.st0{fill:#0066FF;}
</style>
<path class="st0" d="M1568,160c29.3,34.7,33.3,84,12,148s-57.3,121.3-108,172l-161,161l160,696c3.3,12.7-0.7,23.7-12,33l-128,96
	c-4.7,4-11,6-19,6c-2.7,0-5-0.3-7-1c-10-2-17-7.3-21-16l-279-508l-259,259l53,194c3.3,11.3,0.7,21.7-8,31l-96,96c-6,6-13.7,9-23,9
	h-2c-10-1.3-18-5.7-24-13l-189-252l-252-189c-7.3-4.7-11.7-12.3-13-23c-0.7-8.7,2.3-17,9-25l96-97c6-6,13.7-9,23-9c4,0,6.7,0.3,8,1
	l194,53l259-259L273,444c-9.3-5.3-15-13.3-17-24c-1.3-10.7,1.7-19.7,9-27l128-128c9.3-8.7,19.3-11.3,30-8l665,159l160-160
	c50.7-50.7,108-86.7,172-108S1533.3,130.7,1568,160z"/>
</svg>
