<?xml version="1.0" encoding="utf-8"?>
<!-- Generator: Adobe Illustrator 21.1.0, SVG Export Plug-In . SVG Version: 6.00 Build 0)  -->
<svg version="1.1" id="Layer_1" xmlns="http://www.w3.org/2000/svg" xmlns:xlink="http://www.w3.org/1999/xlink" x="0px" y="0px"
	 viewBox="0 0 1792 1792" style="enable-background:new 0 0 1792 1792;" xml:space="preserve">
<style type="text/css">
	.st0{fill:#0066FF;}
</style>
<path class="st0" d="M19,874c5.3-144.7,44-280,116-406s173.7-232,305-318h5c0,0.7-0.3,1.7-1,3c-5.3,5.3-14.7,16.5-28,33.5
	S385.3,229,364,263s-41.3,70.8-60,110.5s-33.5,84.8-44.5,135.5s-15.7,100.8-14,150.5s14.7,102.2,39,157.5S345,923.7,393,971
	c33.3,33.3,67.3,56.5,102,69.5s64.8,16.8,90.5,11.5s48.8-13.2,69.5-23.5c20.7-10.3,36.3-21.2,47-32.5l16-16
	c26-34,43.7-72.8,53-116.5s11.5-84.5,6.5-122.5s-12-73.7-21-107s-17.8-60-26.5-80l-14-29c-6.7-16.7-16.8-33.2-30.5-49.5
	s-28-30-43-41S613,413.7,599,405s-25.7-15-35-19l-13-6l104-115c26,11.3,52,28.7,78,52s45.7,43.7,59,61l19,27
	c0.7-32-5.5-66.5-18.5-103.5S766,235.3,752,214l-20-31L893,0l160,181c-22,30.7-39.5,64.8-52.5,102.5S980,351.3,978,374l-4,33
	c14.7-24.7,35.2-48.8,61.5-72.5c26.3-23.7,48.8-41.2,67.5-52.5l28-17l103,115c-29.3,9.3-57.7,26-85,50s-47.3,45.7-60,65l-19,29
	c-20.7,37.3-36.7,81.8-48,133.5c-11.3,51.7-13.7,108.3-7,170s25.7,113.8,57,156.5c22,30,47.8,50.2,77.5,60.5s58,12.2,85,5.5
	s52.3-15.5,76-26.5s42.8-22.2,57.5-33.5l21-16c40-35.3,72.2-73.7,96.5-115s40.5-81.8,48.5-121.5s11.3-80.2,10-121.5
	s-7.3-80.7-18-118s-23-73.2-37-107.5s-29.2-65.3-45.5-93s-31.3-51.7-45-72s-25.2-36.2-34.5-47.5l-13-17c-9.3-8.7-11.7-13-7-13l10,3
	c26.7,19.3,47.5,34.7,62.5,46s35.7,28,62,50s47.7,41.3,64,58s35.8,38.3,58.5,65s41.2,52.3,55.5,77s29.5,54,45.5,88s28.7,68.3,38,103
	s17.2,73.7,23.5,117s9.8,88.7,10.5,136c2,172.7-34,327.7-108,465s-178,244.3-312,321s-286,115-456,115c-123.3,0-240.3-24.7-351-74
	s-205.2-115.3-283.5-198s-139.7-180.3-184-293S15,996.7,19,874z"/>
</svg>
