<?xml version="1.0" encoding="utf-8"?>
<!-- Generator: Adobe Illustrator 21.1.0, SVG Export Plug-In . SVG Version: 6.00 Build 0)  -->
<svg version="1.1" id="Layer_1" xmlns="http://www.w3.org/2000/svg" xmlns:xlink="http://www.w3.org/1999/xlink" x="0px" y="0px"
	 viewBox="0 0 1792 1792" style="enable-background:new 0 0 1792 1792;" xml:space="preserve">
<style type="text/css">
	.st0{fill:#0066FF;}
</style>
<path class="st0" d="M1490,1322c0,26.7-9.3,49.3-28,68l-136,136c-18.7,18.7-41.3,28-68,28s-49.3-9.3-68-28l-294-294l-294,294
	c-18.7,18.7-41.3,28-68,28s-49.3-9.3-68-28l-136-136c-18.7-18.7-28-41.3-28-68s9.3-49.3,28-68l294-294L330,666
	c-18.7-18.7-28-41.3-28-68s9.3-49.3,28-68l136-136c18.7-18.7,41.3-28,68-28s49.3,9.3,68,28l294,294l294-294c18.7-18.7,41.3-28,68-28
	s49.3,9.3,68,28l136,136c18.7,18.7,28,41.3,28,68s-9.3,49.3-28,68l-294,294l294,294C1480.7,1272.7,1490,1295.3,1490,1322z"/>
</svg>
