<?xml version="1.0" encoding="utf-8"?>
<!-- Generator: Adobe Illustrator 21.1.0, SVG Export Plug-In . SVG Version: 6.00 Build 0)  -->
<svg version="1.1" id="Layer_1" xmlns="http://www.w3.org/2000/svg" xmlns:xlink="http://www.w3.org/1999/xlink" x="0px" y="0px"
	 viewBox="0 0 1792 1792" style="enable-background:new 0 0 1792 1792;" xml:space="preserve">
<style type="text/css">
	.st0{fill:#0066FF;}
</style>
<path class="st0" d="M1261,1570c-114,62.7-236.7,94-368,94c-130.7,0-253-31.3-367-94c92-58,170.5-128.3,235.5-211
	s108.8-172,131.5-268c23.3,96,67.5,185.3,132.5,268S1169,1512,1261,1570z M766,142v485c0,168-42.2,321.2-126.5,459.5
	S445,1327,309,1393c-120.7-143.3-181-308.3-181-495c0-124.7,27.8-241.2,83.5-349.5S343.7,350.3,441,279S646.7,162,766,142z
	 M1664,898c0,186.7-60.3,351.7-181,495c-136-66-246.2-168.2-330.5-306.5S1026,795,1026,627V142c119.3,20,227.7,65.7,325,137
	s173.8,161.2,229.5,269.5S1664,773.3,1664,898z"/>
</svg>
