<?xml version="1.0" encoding="utf-8"?>
<!-- Generator: Adobe Illustrator 21.1.0, SVG Export Plug-In . SVG Version: 6.00 Build 0)  -->
<svg version="1.1" id="Layer_1" xmlns="http://www.w3.org/2000/svg" xmlns:xlink="http://www.w3.org/1999/xlink" x="0px" y="0px"
	 viewBox="0 0 1792 1792" style="enable-background:new 0 0 1792 1792;" xml:space="preserve">
<style type="text/css">
	.st0{fill:#0066FF;}
</style>
<path class="st0" d="M640,1082v70c0,28-13,47.7-39,59c-8.7,3.3-17,5-25,5c-18,0-33-6.3-45-19L19,685C6.3,672.3,0,657.3,0,640
	s6.3-32.3,19-45L531,83c19.3-20.7,42.7-25.3,70-14c26,11.3,39,31,39,59v69L243,595c-12.7,12.7-19,27.7-19,45s6.3,32.3,19,45
	L640,1082z M1792,1120c0,38.7-5.7,83.2-17,133.5s-24.2,96.3-38.5,138s-30.3,83.3-48,125s-31.2,71.8-40.5,90.5l-20,40
	c-5.3,11.3-14.7,17-28,17c-4,0-7-0.3-9-1c-16.7-5.3-24.3-16.7-23-34c28.7-266.7-6.7-455-106-565c-42.7-47.3-99.5-84.2-170.5-110.5
	S1131.3,909.7,1024,901v251c0,28-13,47.7-39,59c-8.7,3.3-17,5-25,5c-18,0-33-6.3-45-19L403,685c-12.7-12.7-19-27.7-19-45
	s6.3-32.3,19-45L915,83c19.3-20.7,42.7-25.3,70-14c26,11.3,39,31,39,59v262c274,18.7,473.7,92.3,599,221
	C1735.7,726.3,1792,896,1792,1120z"/>
</svg>
