<?xml version="1.0" encoding="utf-8"?>
<!-- Generator: Adobe Illustrator 21.1.0, SVG Export Plug-In . SVG Version: 6.00 Build 0)  -->
<svg version="1.1" id="Layer_1" xmlns="http://www.w3.org/2000/svg" xmlns:xlink="http://www.w3.org/1999/xlink" x="0px" y="0px"
	 viewBox="0 0 1792 1792" style="enable-background:new 0 0 1792 1792;" xml:space="preserve">
<style type="text/css">
	.st0{fill:#0066FF;}
</style>
<path class="st0" d="M1047,996v-4l-24-320c-0.7-8.7-4.3-16.2-11-22.5s-14.3-9.5-23-9.5H803c-8.7,0-16.3,3.2-23,9.5
	s-10.3,13.8-11,22.5l-24,320v4c-0.7,8,2,14.7,8,20s13,8,21,8h244c8,0,15-2.7,21-8S1047.7,1004,1047,996z M1806,1463
	c0,48.7-15.3,73-46,73h-704c8.7,0,16-3.2,22-9.5s8.7-13.8,8-22.5l-20-256c-0.7-8.7-4.3-16.2-11-22.5s-14.3-9.5-23-9.5H760
	c-8.7,0-16.3,3.2-23,9.5s-10.3,13.8-11,22.5l-20,256c-0.7,8.7,2,16.2,8,22.5s13.3,9.5,22,9.5H32c-30.7,0-46-24.3-46-73
	c0-36,8.7-74.7,26-116L429,303c5.3-12.7,14-23.7,26-33s24.7-14,38-14h339c-8.7,0-16.3,3.2-23,9.5s-10.3,13.8-11,22.5l-15,192
	c-0.7,9.3,2,17,8,23s13.3,9,22,9h166c8.7,0,16-3,22-9s8.7-13.7,8-23l-15-192c-0.7-8.7-4.3-16.2-11-22.5s-14.3-9.5-23-9.5h339
	c13.3,0,26,4.7,38,14s20.7,20.3,26,33l417,1044C1797.3,1388.3,1806,1427,1806,1463z"/>
</svg>
