<?xml version="1.0" encoding="utf-8"?>
<!-- Generator: Adobe Illustrator 21.1.0, SVG Export Plug-In . SVG Version: 6.00 Build 0)  -->
<svg version="1.1" id="Layer_1" xmlns="http://www.w3.org/2000/svg" xmlns:xlink="http://www.w3.org/1999/xlink" x="0px" y="0px"
	 viewBox="0 0 1792 1792" style="enable-background:new 0 0 1792 1792;" xml:space="preserve">
<style type="text/css">
	.st0{fill:#0066FF;}
</style>
<path class="st0" d="M949,893c0,17.3-5.5,32.3-16.5,45s-24.8,19-41.5,19c-17.3,0-32.3-5.5-45-16.5s-19-24.8-19-41.5
	c0-17.3,5.7-32.3,17-45s25.3-19,42-19s31.3,5.5,44,16.5S949,876.3,949,893z M964,951l350-581c-6,5.3-28.5,26.2-67.5,62.5
	S1165.7,507.7,1121,549s-90.2,83.7-136.5,127c-46.3,43.3-85.3,80.2-117,110.5S819,834,817,838l-349,580c4.7-4.7,27-25.3,67-62
	s82-75.5,126-116.5s89.3-83.3,136-127s85.7-80.7,117-111C945.3,971.2,962,954.3,964,951z M1611,896c0,134-34.7,257.7-104,371
	c-2-1.3-7.7-5-17-11s-18.2-11.5-26.5-16.5s-13.8-7.5-16.5-7.5c-8.7,0-13,4.3-13,13c0,6.7,19.7,21.3,59,44
	c-49.3,74.7-110.8,138.2-184.5,190.5s-154.2,89.2-241.5,110.5l-16-67c-0.7-6.7-5.7-10-15-10c-3.3,0-6,1.8-8,5.5s-2.7,6.8-2,9.5
	l16,68c-48,10-96.7,15-146,15c-132.7,0-256.7-35-372-105c0.7-1.3,5-8.2,13-20.5s15.2-23.5,21.5-33.5s9.5-16.3,9.5-19
	c0-8.7-4.3-13-13-13c-4,0-9.7,4.8-17,14.5s-14.8,21.2-22.5,34.5s-12.2,21-13.5,23c-75.3-50-139.3-112.5-192-187.5
	S220.7,1148,200,1060l69-15c6.7-2,10-7,10-15c0-3.3-1.8-6-5.5-8s-7.2-2.7-10.5-2l-68,15c-9.3-48-14-94.3-14-139
	c0-137.3,36.3-263.7,109-379c1.3,0.7,7.5,4.7,18.5,12s21,13.7,30,19s14.8,8,17.5,8c8.7,0,13-4,13-12c0-4-4.2-9.2-12.5-15.5
	S337.3,515,324,507l-20-12c51.3-74.7,114.3-137.7,189-189s156-87,244-107l15,67c1.3,6.7,6.3,10,15,10c3.3,0,6-1.8,8-5.5
	s2.7-7.2,2-10.5l-15-66c47.3-8.7,92-13,134-13c136,0,262.3,36.3,379,109c-26,37.3-39,59-39,65c0,8.7,4,13,12,13
	c7.3,0,23.3-21.3,48-64c74,50,136.5,112,187.5,186s86.8,154.3,107.5,241l-56,12c-6.7,1.3-10,6.7-10,16c0,3.3,1.8,6,5.5,8
	s6.8,2.7,9.5,2l57-13C1606.3,804,1611,850.7,1611,896z M1696,896c0-108.7-21.2-212.3-63.5-311s-99.2-183.7-170.5-255
	s-156.3-128.2-255-170.5S1004.7,96,896,96s-212.3,21.2-311,63.5S401.3,258.7,330,330S201.8,486.3,159.5,585S96,787.3,96,896
	s21.2,212.3,63.5,311s99.2,183.7,170.5,255s156.3,128.2,255,170.5s202.3,63.5,311,63.5s212.3-21.2,311-63.5s183.7-99.2,255-170.5
	s128.2-156.3,170.5-255S1696,1004.7,1696,896z M1792,896c0,121.3-23.7,237.3-71,348s-111,206-191,286s-175.3,143.7-286,191
	s-226.7,71-348,71s-237.3-23.7-348-71s-206-111-286-191s-143.7-175.3-191-286S0,1017.3,0,896s23.7-237.3,71-348s111-206,191-286
	S437.3,118.3,548,71S774.7,0,896,0s237.3,23.7,348,71s206,111,286,191s143.7,175.3,191,286S1792,774.7,1792,896z"/>
</svg>
