<?xml version="1.0" encoding="utf-8"?>
<!-- Generator: Adobe Illustrator 21.1.0, SVG Export Plug-In . SVG Version: 6.00 Build 0)  -->
<svg version="1.1" id="Layer_1" xmlns="http://www.w3.org/2000/svg" xmlns:xlink="http://www.w3.org/1999/xlink" x="0px" y="0px"
	 viewBox="0 0 1792 1792" style="enable-background:new 0 0 1792 1792;" xml:space="preserve">
<style type="text/css">
	.st0{fill:#0066FF;}
</style>
<path class="st0" d="M1628,1549c0,59.3-21,110.2-63,152.5s-93,63.5-153,63.5s-111.2-21.2-153.5-63.5s-63.5-93.2-63.5-152.5
	c0-60,21.2-111.2,63.5-153.5S1352,1332,1412,1332s111,21.2,153,63.5S1628,1489,1628,1549z M1395,1268
	c-76.7,10-140.8,44.2-192.5,102.5S1125,1497.3,1125,1576c0,49.3,11,95.3,33,138c-97.3,52-223.7,78-379,78c-72.7,0-139.7-7-201-21
	s-112.5-32.2-153.5-54.5s-77.8-47.8-110.5-76.5s-58-57-76-85s-32.8-55.7-44.5-83s-19.5-49.5-23.5-66.5s-6-30.2-6-39.5
	c0-12.7,1.5-26.8,4.5-42.5s9.2-34.3,18.5-56s21.5-41,36.5-58s36.3-31.5,64-43.5s59.2-18,94.5-18s66.7,5.8,94,17.5s48.3,25.3,63,41
	s26.5,33.3,35.5,53s14.8,36,17.5,49s4,24.2,4,33.5c0,22.7-7.7,49.7-23,81c18.7,18,46,32,82,42s67,15.7,93,17l40,1
	c76.7,0,140-17,190-51s75-78.3,75-133c0-17.3-3-33.5-9-48.5s-16.5-29.8-31.5-44.5s-31.5-28.3-49.5-41s-42.7-27.3-74-44
	s-62.5-32.5-93.5-47.5s-70.8-33.8-119.5-56.5c-18.7-8.7-33-15.3-43-20c-77.3-36.7-139.7-70-187-100s-88.2-64-122.5-102
	s-58.3-79.8-72-125.5C237.8,623.8,231,569.7,231,507c0-52,6.8-102,20.5-150c13.7-48,35.7-93.8,66-137.5s67.8-81.7,112.5-114
	s100.2-58,166.5-77S736.7,0,818,0c80,0,153.3,8.7,220,26s121.5,39.7,164.5,67s79.5,58.7,109.5,94s51.3,70.5,64,105.5
	s19,69.5,19,103.5c0,30.7-5,58.2-15,82.5s-22.2,43.7-36.5,58s-30.5,26.3-48.5,36s-34.3,16.2-49,19.5s-27.7,5-39,5h-40l-39-5l-44-14
	l-41-28l-37-46l-24-70.5L972,336c-10-10.7-29.7-19.2-59-25.5s-56.3-9.8-81-10.5l-37-1c-45.3,0-84.5,10.3-117.5,31S621,374,607,400
	s-21,51.3-21,76c0,16,1.7,30.3,5,43s11.3,28,24,46s30.3,35,53,51s55,33.8,97,53.5s92,39.2,150,58.5c50.7,16.7,96.8,34.5,138.5,53.5
	c41.7,19,78,37.5,109,55.5s58.7,37.7,83,59s44.5,41.2,60.5,59.5s29.7,39.2,41,62.5c11.3,23.3,20.2,44,26.5,62s11.2,39.2,14.5,63.5
	s5.3,45,6,62S1395,1243.3,1395,1268z"/>
</svg>
