<?xml version="1.0" encoding="utf-8"?>
<!-- Generator: Adobe Illustrator 21.1.0, SVG Export Plug-In . SVG Version: 6.00 Build 0)  -->
<svg version="1.1" id="Layer_1" xmlns="http://www.w3.org/2000/svg" xmlns:xlink="http://www.w3.org/1999/xlink" x="0px" y="0px"
	 viewBox="0 0 1792 1792" style="enable-background:new 0 0 1792 1792;" xml:space="preserve">
<style type="text/css">
	.st0{fill:#0066FF;}
</style>
<path class="st0" d="M1372,1371V638c0-14-5-26-15-36s-21.7-15-35-15h-93c-13.3,0-25,5-35,15s-15,22-15,36v733c0,13.3,5,25,15,35
	s21.7,15,35,15h93c13.3,0,25-5,35-15S1372,1384.3,1372,1371z M1088,1371V840c0-13.3-5-25-15-35s-21.7-15-35-15H937
	c-13.3,0-25,5-35,15s-15,21.7-15,35v531c0,13.3,5,25,15,35s21.7,15,35,15h101c13.3,0,25-5,35-15S1088,1384.3,1088,1371z M796,1371
	V942c0-13.3-5-25-15-35s-21.7-15-35-15H645c-13.3,0-25,5-35,15s-15,21.7-15,35v429c0,13.3,5,25,15,35s21.7,15,35,15h101
	c13.3,0,25-5,35-15S796,1384.3,796,1371z M504,1371v-362c0-13.3-5-25-15-35s-21.7-15-35-15H353c-13.3,0-25,5-35,15s-15,21.7-15,35
	v362c0,13.3,5,25,15,35s21.7,15,35,15h101c13.3,0,25-5,35-15S504,1384.3,504,1371z M1920,1225c0,110.7-39.3,205.3-118,284
	s-173.3,118-284,118H274c-110.7,0-205.3-39.3-284-118s-118-173.3-118-284c0-77.3,21-148.8,63-214.5S33,895.3,103,862
	c-6.7-22.7-10-47-10-73c0-75.3,26.8-139.8,80.5-193.5S291.7,515,367,515c68,0,128,22.3,180,67c30-122,94.7-222,194-300
	s212-117,338-117c99.3,0,191,24.5,275,73.5S1504.5,354,1553.5,438s73.5,175.7,73.5,275c0,44-4.7,84.7-14,122
	c90,22,163.7,69.5,221,142.5S1920,1133,1920,1225z"/>
</svg>
