<?xml version="1.0" encoding="utf-8"?>
<!-- Generator: Adobe Illustrator 21.1.0, SVG Export Plug-In . SVG Version: 6.00 Build 0)  -->
<svg version="1.1" id="Layer_1" xmlns="http://www.w3.org/2000/svg" xmlns:xlink="http://www.w3.org/1999/xlink" x="0px" y="0px"
	 viewBox="0 0 1792 1792" style="enable-background:new 0 0 1792 1792;" xml:space="preserve">
<style type="text/css">
	.st0{fill:#0066FF;}
</style>
<path class="st0" d="M1408,1195c0-58.7-20.8-109-62.5-151s-91.8-63-150.5-63c-56,0-104.3,19.3-145,58L809,919c1.3-10.7,2-18.3,2-23
	s-0.7-12.3-2-23l241-120c40.7,38.7,89,58,145,58c58.7,0,108.8-21,150.5-63s62.5-92.3,62.5-151s-20.8-108.8-62.5-150.5
	S1253.7,384,1195,384s-109,20.8-151,62.5s-63,91.8-63,150.5c0,4.7,0.7,12.3,2,23L742,740c-41.3-38-89.7-57-145-57
	c-58.7,0-108.8,20.8-150.5,62.5S384,837.3,384,896s20.8,108.8,62.5,150.5c41.7,41.7,91.8,62.5,150.5,62.5c55.3,0,103.7-19,145-57
	l241,120c-1.3,10.7-2,18.3-2,23c0,58.7,21,108.8,63,150.5s92.3,62.5,151,62.5s108.8-20.8,150.5-62.5S1408,1253.7,1408,1195z
	 M1664,416v960c0,79.3-28.2,147.2-84.5,203.5S1455.3,1664,1376,1664H416c-79.3,0-147.2-28.2-203.5-84.5S128,1455.3,128,1376V416
	c0-79.3,28.2-147.2,84.5-203.5S336.7,128,416,128h960c79.3,0,147.2,28.2,203.5,84.5S1664,336.7,1664,416z"/>
</svg>
