<?xml version="1.0" encoding="utf-8"?>
<!-- Generator: Adobe Illustrator 21.1.0, SVG Export Plug-In . SVG Version: 6.00 Build 0)  -->
<svg version="1.1" id="Layer_1" xmlns="http://www.w3.org/2000/svg" xmlns:xlink="http://www.w3.org/1999/xlink" x="0px" y="0px"
	 viewBox="0 0 1792 1792" style="enable-background:new 0 0 1792 1792;" xml:space="preserve">
<style type="text/css">
	.st0{fill:#0066FF;}
</style>
<path class="st0" d="M1344,960V320H896v1137c79.3-42,150.3-87.7,213-137C1265.7,1197.3,1344,1077.3,1344,960z M1536,192v768
	c0,57.3-11.2,114.2-33.5,170.5s-50,106.3-83,150s-72.3,86.2-118,127.5s-87.8,75.7-126.5,103s-79,53.2-121,77.5s-71.8,40.8-89.5,49.5
	s-31.8,15.3-42.5,20c-8,4-16.7,6-26,6s-18-2-26-6c-10.7-4.7-24.8-11.3-42.5-20s-47.5-25.2-89.5-49.5s-82.3-50.2-121-77.5
	s-80.8-61.7-126.5-103s-85-83.8-118-127.5s-60.7-93.7-83-150S256,1017.3,256,960V192c0-17.3,6.3-32.3,19-45s27.7-19,45-19h1152
	c17.3,0,32.3,6.3,45,19S1536,174.7,1536,192z"/>
</svg>
