<?xml version="1.0" encoding="utf-8"?>
<!-- Generator: Adobe Illustrator 21.1.0, SVG Export Plug-In . SVG Version: 6.00 Build 0)  -->
<svg version="1.1" id="Layer_1" xmlns="http://www.w3.org/2000/svg" xmlns:xlink="http://www.w3.org/1999/xlink" x="0px" y="0px"
	 viewBox="0 0 1792 1792" style="enable-background:new 0 0 1792 1792;" xml:space="preserve">
<style type="text/css">
	.st0{fill:#0066FF;}
</style>
<path class="st0" d="M1792,768c35.3,0,65.5,12.5,90.5,37.5s37.5,55.2,37.5,90.5s-12.5,65.5-37.5,90.5s-55.2,37.5-90.5,37.5h-15
	l-115,662c-5.3,30.7-20,56-44,76s-51.3,30-82,30H256c-30.7,0-58-10-82-30s-38.7-45.3-44-76L15,1024H0c-35.3,0-65.5-12.5-90.5-37.5
	S-128,931.3-128,896s12.5-65.5,37.5-90.5S-35.3,768,0,768H1792z M357,1568c17.3-1.3,31.8-8.8,43.5-22.5s16.8-29.2,15.5-46.5l-32-416
	c-1.3-17.3-8.8-31.8-22.5-43.5s-29.2-16.8-46.5-15.5c-17.3,1.3-31.8,8.8-43.5,22.5s-16.8,29.2-15.5,46.5l32,416
	c1.3,16.7,8.2,30.7,20.5,42s26.8,17,43.5,17H357z M768,1504v-416c0-17.3-6.3-32.3-19-45s-27.7-19-45-19s-32.3,6.3-45,19
	s-19,27.7-19,45v416c0,17.3,6.3,32.3,19,45s27.7,19,45,19s32.3-6.3,45-19S768,1521.3,768,1504z M1152,1504v-416
	c0-17.3-6.3-32.3-19-45s-27.7-19-45-19s-32.3,6.3-45,19s-19,27.7-19,45v416c0,17.3,6.3,32.3,19,45s27.7,19,45,19s32.3-6.3,45-19
	S1152,1521.3,1152,1504z M1504,1509l32-416c1.3-17.3-3.8-32.8-15.5-46.5s-26.2-21.2-43.5-22.5c-17.3-1.3-32.8,3.8-46.5,15.5
	s-21.2,26.2-22.5,43.5l-32,416c-1.3,17.3,3.8,32.8,15.5,46.5s26.2,21.2,43.5,22.5h5c16.7,0,31.2-5.7,43.5-17
	S1502.7,1525.7,1504,1509z M348,292l-93,412H123l101-441c12.7-58.7,42.3-106.5,89-143.5S413,64,473,64h167c0-17.3,6.3-32.3,19-45
	s27.7-19,45-19h384c17.3,0,32.3,6.3,45,19s19,27.7,19,45h167c60,0,113.3,18.5,160,55.5s76.3,84.8,89,143.5l101,441h-132l-93-412
	c-7.3-29.3-22.5-53.3-45.5-72s-49.5-28-79.5-28h-167c0,17.3-6.3,32.3-19,45s-27.7,19-45,19H704c-17.3,0-32.3-6.3-45-19
	s-19-27.7-19-45H473c-30,0-56.5,9.3-79.5,28S355.3,262.7,348,292z"/>
</svg>
