<?xml version="1.0" encoding="utf-8"?>
<!-- Generator: Adobe Illustrator 21.1.0, SVG Export Plug-In . SVG Version: 6.00 Build 0)  -->
<svg version="1.1" id="Layer_1" xmlns="http://www.w3.org/2000/svg" xmlns:xlink="http://www.w3.org/1999/xlink" x="0px" y="0px"
	 viewBox="0 0 1792 1792" style="enable-background:new 0 0 1792 1792;" xml:space="preserve">
<style type="text/css">
	.st0{fill:#0066FF;}
</style>
<path class="st0" d="M704,1440c0,2.7,0.3,9.3,1,20s0.8,19.5,0.5,26.5s-1.3,14.8-3,23.5s-5,15.2-10,19.5s-11.8,6.5-20.5,6.5H352
	c-79.3,0-147.2-28.2-203.5-84.5S64,1327.3,64,1248V544c0-79.3,28.2-147.2,84.5-203.5S272.7,256,352,256h320c8.7,0,16.2,3.2,22.5,9.5
	s9.5,13.8,9.5,22.5c0,2.7,0.3,9.3,1,20s0.8,19.5,0.5,26.5s-1.3,14.8-3,23.5s-5,15.2-10,19.5S680.7,384,672,384H352
	c-44,0-81.7,15.7-113,47s-47,69-47,113v704c0,44,15.7,81.7,47,113s69,47,113,47h312l11.5,1l11.5,3l8,5.5l7,9L704,1440z M1632,896
	c0,17.3-6.3,32.3-19,45l-544,544c-12.7,12.7-27.7,19-45,19c-17.3,0-32.3-6.3-45-19s-19-27.7-19-45v-288H512c-17.3,0-32.3-6.3-45-19
	s-19-27.7-19-45V704c0-17.3,6.3-32.3,19-45s27.7-19,45-19h448V352c0-17.3,6.3-32.3,19-45s27.7-19,45-19c17.3,0,32.3,6.3,45,19
	l544,544C1625.7,863.7,1632,878.7,1632,896z"/>
</svg>
