<?xml version="1.0" encoding="utf-8"?>
<!-- Generator: Adobe Illustrator 21.1.0, SVG Export Plug-In . SVG Version: 6.00 Build 0)  -->
<svg version="1.1" id="Layer_1" xmlns="http://www.w3.org/2000/svg" xmlns:xlink="http://www.w3.org/1999/xlink" x="0px" y="0px"
	 viewBox="0 0 1792 1792" style="enable-background:new 0 0 1792 1792;" xml:space="preserve">
<style type="text/css">
	.st0{fill:#0066FF;}
</style>
<path class="st0" d="M873,740c0,55.3-21.2,102.8-63.5,142.5S716.3,942,657,942s-110.2-19.8-152.5-59.5S441,795.3,441,740
	c0-56,21.2-103.7,63.5-143s93.2-59,152.5-59s110.2,19.7,152.5,59S873,684,873,740z M1375,740c0,55.3-21,102.8-63,142.5
	s-93,59.5-153,59.5c-59.3,0-110.2-19.8-152.5-59.5C964.2,842.8,943,795.3,943,740c0-56,21.2-103.7,63.5-143
	c42.3-39.3,93.2-59,152.5-59c60,0,111,19.7,153,59S1375,684,1375,740z M1600,920V253c0-58-10.7-99.2-32-123.5S1509.7,93,1457,93H345
	c-55.3,0-92.8,11.3-112.5,34S203,191.7,203,253v673c28.7,15.3,58.2,28.7,88.5,40s57.3,20.7,81,28s50.7,13.5,81,18.5s54,8.7,71,11
	c17,2.3,40.3,3.7,70,4s49.2,0.5,58.5,0.5s28.2-0.7,56.5-2s43.2-2,44.5-2c45.3-0.7,77,8.3,95,27c4,4,7.3,7,10,9
	c17.3,16.7,37.7,33.7,61,51c4.7-60.7,44-89.7,118-87c3.3,0,15.5,0.5,36.5,1.5s35.3,1.7,43,2s22.8,0.7,45.5,1s40.3,0,53-1
	s30.8-2.5,54.5-4.5s44-4.8,61-8.5s37.7-8.2,62-13.5s46.7-11.8,67-19.5s42.8-16.7,67.5-27S1576.7,932.7,1600,920z M1763,915
	c-80.7,99.3-204.7,183.3-372,252c56,190,48.3,345-23,465c-44,75.3-105,124.7-183,148c-69.3,21.3-130,16.3-182-15
	c-57.3-34-84.7-88.7-82-164l-1-326v-1c-5.3-1.3-13.5-3.3-24.5-6s-18.8-4.3-23.5-5l-1,338c2.7,76-25,130.7-83,164
	c-52.7,31.3-113.7,36.3-183,15c-78-24-138.7-74-182-150c-70-120-77.3-274.3-22-463c-167.3-68.7-291.3-152.7-372-252
	c-16.7-24.7-18-45.7-4-63s34-17,60,1c2,1.3,5.7,3.7,11,7s9,6,11,8V174c0-48,15.7-89,47-123S223.3,0,268,0h1257
	c44.7,0,82.7,17,114,51s47,75,47,123v694l21-15c26-18,46-18.3,60-1S1779.7,890.3,1763,915z"/>
</svg>
