<?xml version="1.0" encoding="utf-8"?>
<!-- Generator: Adobe Illustrator 21.1.0, SVG Export Plug-In . SVG Version: 6.00 Build 0)  -->
<svg version="1.1" id="Layer_1" xmlns="http://www.w3.org/2000/svg" xmlns:xlink="http://www.w3.org/1999/xlink" x="0px" y="0px"
	 viewBox="0 0 1792 1792" style="enable-background:new 0 0 1792 1792;" xml:space="preserve">
<style type="text/css">
	.st0{fill:#0066FF;}
</style>
<path class="st0" d="M1474,1313c0-42-14.7-80.7-44-116s-63.7-53-103-53c-34.7,0-62.3,12.3-83,37s-31,56-31,94s12.2,69.7,36.5,95
	s59.2,38,104.5,38c33.3,0,61.7-9,85-27S1474,1340.3,1474,1313z M864,1440c0,8-3.3,16-10,24l-319,319c-6.7,6-14.3,9-23,9
	c-8,0-15.7-3-23-9l-320-320c-10-10.7-12.3-22.3-7-35c5.3-13.3,15.3-20,30-20h192V32c0-9.3,3-17,9-23s13.7-9,23-9h192
	c9.3,0,17,3,23,9s9,13.7,9,23v1376h192c9.3,0,17,3,23,9S864,1430.7,864,1440z M1614,1371c0,41.3-4.3,81.8-13,121.5
	s-22.3,77.7-41,114s-41.3,68.2-68,95.5s-59.5,49.2-98.5,65.5S1312,1792,1266,1792c-41.3,0-77.3-5.3-108-16c-16-5.3-30-10.3-42-15
	l39-113c10,4.7,20.3,8.3,31,11c24.7,8.7,49.7,13,75,13c56,0,100.8-19.5,134.5-58.5s55.8-87.5,66.5-145.5h-2
	c-14,15.3-34.5,27.7-61.5,37s-55.2,14-84.5,14c-70.7,0-128.3-23.8-173-71.5s-67-105.2-67-172.5c0-70,24-129.3,72-178
	s108.3-73,181-73c82,0,150.3,31.5,205,94.5S1614,1265.7,1614,1371z M1584,654v114h-469V654h167V222c0-4.7,0.2-11,0.5-19
	s0.5-13.7,0.5-17v-16h-2l-7,12c-5.3,8.7-14,19-26,31l-62,58l-82-86L1296,0h123v654H1584z"/>
</svg>
