<?xml version="1.0" encoding="utf-8"?>
<!-- Generator: Adobe Illustrator 21.1.0, SVG Export Plug-In . SVG Version: 6.00 Build 0)  -->
<svg version="1.1" id="Layer_1" xmlns="http://www.w3.org/2000/svg" xmlns:xlink="http://www.w3.org/1999/xlink" x="0px" y="0px"
	 viewBox="0 0 1792 1792" style="enable-background:new 0 0 1792 1792;" xml:space="preserve">
<style type="text/css">
	.st0{fill:#0066FF;}
</style>
<path class="st0" d="M528,1372l16-241l-16-523c-0.7-6.7-3.2-12.3-7.5-17s-9.8-7-16.5-7c-6,0-11.3,2.3-16,7s-7,10.3-7,17l-14,523
	l14,241c0.7,6.7,3.2,12.2,7.5,16.5s9.5,6.5,15.5,6.5C518.7,1395,526.7,1387.3,528,1372z M824,1343l11-211l-12-586
	c0-10.7-4.3-18.7-13-24c-5.3-3.3-10.7-5-16-5s-10.7,1.7-16,5c-8.7,5.3-13,13.3-13,24l-1,6l-10,579c0,0.7,3.7,79.3,11,236v1
	c0,6.7,2,12.3,6,17c6,7.3,13.7,11,23,11c7.3,0,14-3,20-9c6-4.7,9-11.3,9-20L824,1343z M-221,1003l20,128l-20,126c-1.3,6-4.3,9-9,9
	s-7.7-3-9-9l-17-126l17-128c1.3-6,4.3-9,9-9S-222.3,997-221,1003z M-135,924l26,207l-26,203c-1.3,6-4.7,9-10,9c-6,0-9-3.3-9-10
	l-23-202l23-207c0-6,3-9,9-9C-139.7,915-136.3,918-135,924z M-43,886l25,245l-25,237c0,7.3-3.7,11-11,11c-6.7,0-10.7-3.7-12-11
	l-21-237l21-245c1.3-8,5.3-12,12-12C-46.7,874-43,878-43,886z M51,879l23,252l-23,244c-1.3,8.7-6,13-14,13c-8.7,0-13-4.3-13-13
	L3,1131l21-252c0-8.7,4.3-13,13-13C45,866,49.7,870.3,51,879z M145,897l21,234l-21,246c-1.3,10.7-6.7,16-16,16
	c-4,0-7.5-1.5-10.5-4.5s-4.5-6.8-4.5-11.5l-20-246l20-234c0-4,1.5-7.5,4.5-10.5S125,882,129,882C138.3,882,143.7,887,145,897z
	 M239,751l21,380l-21,246c0,4.7-1.7,8.8-5,12.5s-7.3,5.5-12,5.5c-10.7,0-16.7-6-18-18l-18-246l18-380c1.3-12,7.3-18,18-18
	c4.7,0,8.7,1.8,12,5.5S239,746.3,239,751z M333,665l19,468l-19,244c0,5.3-1.8,9.8-5.5,13.5s-8.2,5.5-13.5,5.5c-12,0-18.7-6.3-20-19
	l-16-244l16-468c1.3-12.7,8-19,20-19c5.3,0,9.8,1.8,13.5,5.5S333,659.7,333,665z M431,625l18,506l-18,242c-1.3,14-8.7,21-22,21
	c-12.7,0-19.7-7-21-21l-16-242l16-506c0-6,2.2-11.2,6.5-15.5s9.2-6.5,14.5-6.5c6,0,11,2.2,15,6.5S430.3,619,431,625z M625,621
	l15,510l-15,239c0,6.7-2.5,12.5-7.5,17.5s-10.8,7.5-17.5,7.5s-12.3-2.3-17-7s-7.3-10.7-8-18l-14-239l14-510c0-7.3,2.5-13.3,7.5-18
	s10.8-7,17.5-7s12.5,2.3,17.5,7S625,613.7,625,621z M724,640l14,492l-14,236c0,7.3-2.7,13.7-8,19s-11.7,8-19,8s-13.7-2.7-19-8
	s-8.3-11.7-9-19l-12-236l12-492c0.7-8,3.7-14.7,9-20s11.7-8,19-8s13.5,2.7,18.5,8S723.3,632,724,640z M936,1132l-14,231
	c0,8.7-3,16-9,22s-13.3,9-22,9s-16-3-22-9s-9.3-13.3-10-22l-6-114l-6-117l12-636v-3c1.3-10,5.3-18,12-24c6-4.7,12.7-7,20-7
	c5.3,0,10.3,1.7,15,5c9.3,5.3,14.7,14,16,26L936,1132z M2048,1113c0,78-27.7,144.5-83,199.5s-122,82.5-200,82.5H979
	c-8.7-1.3-16-5-22-11s-9-13.3-9-22V463c0-15.3,9.3-26.3,28-33c56.7-22.7,117-34,181-34c130,0,242.7,43.8,338,131.5
	S1643.7,723,1655,851c35.3-14.7,72-22,110-22c78,0,144.7,27.7,200,83S2048,1034.3,2048,1113z"/>
</svg>
