<?xml version="1.0" encoding="utf-8"?>
<!-- Generator: Adobe Illustrator 21.1.0, SVG Export Plug-In . SVG Version: 6.00 Build 0)  -->
<svg version="1.1" id="Layer_1" xmlns="http://www.w3.org/2000/svg" xmlns:xlink="http://www.w3.org/1999/xlink" x="0px" y="0px"
	 viewBox="0 0 1792 1792" style="enable-background:new 0 0 1792 1792;" xml:space="preserve">
<style type="text/css">
	.st0{fill:#0066FF;}
</style>
<path class="st0" d="M1250,957l257-250l-356-52l-66-10l-30-60L896,263v963l59,31l318,168l-60-355l-12-66L1250,957z M1702,695
	l-363,354l86,500c3.3,22,1.3,39.2-6,51.5s-18.7,18.5-34,18.5c-11.3,0-24.7-4-40-12l-449-236l-449,236c-15.3,8-28.7,12-40,12
	c-15.3,0-26.7-6.2-34-18.5s-9.3-29.5-6-51.5l86-500L89,695c-21.3-21.3-29-41.2-23-59.5s24-29.8,54-34.5l502-73L847,73
	c13.3-27.3,29.7-41,49-41c18.7,0,35,13.7,49,41l225,455l502,73c30,4.7,48,16.2,54,34.5S1724,673.7,1702,695z"/>
</svg>
