<?xml version="1.0" encoding="utf-8"?>
<!-- Generator: Adobe Illustrator 21.1.0, SVG Export Plug-In . SVG Version: 6.00 Build 0)  -->
<svg version="1.1" id="Layer_1" xmlns="http://www.w3.org/2000/svg" xmlns:xlink="http://www.w3.org/1999/xlink" x="0px" y="0px"
	 viewBox="0 0 1792 1792" style="enable-background:new 0 0 1792 1792;" xml:space="preserve">
<style type="text/css">
	.st0{fill:#0066FF;}
</style>
<path class="st0" d="M1582,582c0,67.3-23.8,124.8-71.5,172.5S1405.3,826,1338,826s-124.8-23.8-172.5-71.5S1094,649.3,1094,582
	s23.8-124.8,71.5-172.5S1270.7,338,1338,338s124.8,23.8,172.5,71.5S1582,514.7,1582,582z M812,1324c0-69.3-24.3-128.3-73-177
	s-107.7-73-177-73c-18,0-36,2-54,6l104,42c51.3,20.7,87.8,56.2,109.5,106.5s22.2,100.8,1.5,151.5c-20.7,51.3-56.3,87.7-107,109
	s-101.3,21.7-152,1c-14-5.3-34.7-13.5-62-24.5s-47.7-19.2-61-24.5c21.3,40,51.7,72.2,91,96.5s82.7,36.5,130,36.5
	c69.3,0,128.3-24.3,177-73S812,1393.3,812,1324z M1642,583c0-84-29.8-155.8-89.5-215.5S1421,278,1337,278
	c-84.7,0-156.8,29.8-216.5,89.5S1031,499,1031,583c0,84.7,29.8,156.7,89.5,216s131.8,89,216.5,89c84,0,155.8-29.7,215.5-89
	S1642,667.7,1642,583z M1792,583c0,126-44.5,233.3-133.5,322s-196.2,133-321.5,133l-437,319c-8,86-44.3,158.7-109,218
	s-141,89-229,89c-80.7,0-152-25.3-214-76s-101.3-114.7-118-192L0,1304V875l389,157c52.7-32,110.3-48,173-48c8.7,0,20.3,0.7,35,2
	l284-407c1.3-124.7,46.5-231,135.5-319s195.8-132,320.5-132c125.3,0,232.5,44.5,321.5,133.5S1792,457.7,1792,583z"/>
</svg>
