<?xml version="1.0" encoding="utf-8"?>
<!-- Generator: Adobe Illustrator 21.1.0, SVG Export Plug-In . SVG Version: 6.00 Build 0)  -->
<svg version="1.1" id="Layer_1" xmlns="http://www.w3.org/2000/svg" xmlns:xlink="http://www.w3.org/1999/xlink" x="0px" y="0px"
	 viewBox="0 0 1792 1792" style="enable-background:new 0 0 1792 1792;" xml:space="preserve">
<style type="text/css">
	.st0{fill:#0066FF;}
</style>
<path class="st0" d="M1152,1248v416H224c-26.7,0-49.3-9.3-68-28s-28-41.3-28-68V224c0-26.7,9.3-49.3,28-68s41.3-28,68-28h1344
	c26.7,0,49.3,9.3,68,28s28,41.3,28,68v928h-416c-26.7,0-49.3,9.3-68,28S1152,1221.3,1152,1248z M1280,1280h381
	c-10,54.7-31.7,98.7-65,132l-184,184c-33.3,33.3-77.3,55-132,65V1280z"/>
</svg>
