<?xml version="1.0" encoding="utf-8"?>
<!-- Generator: Adobe Illustrator 21.1.0, SVG Export Plug-In . SVG Version: 6.00 Build 0)  -->
<svg version="1.1" id="Layer_1" xmlns="http://www.w3.org/2000/svg" xmlns:xlink="http://www.w3.org/1999/xlink" x="0px" y="0px"
	 viewBox="0 0 1792 1792" style="enable-background:new 0 0 1792 1792;" xml:space="preserve">
<style type="text/css">
	.st0{fill:#0066FF;}
</style>
<path class="st0" d="M960,1408c0-17.3-6.3-32.3-19-45s-27.7-19-45-19s-32.3,6.3-45,19s-19,27.7-19,45s6.3,32.3,19,45s27.7,19,45,19
	s32.3-6.3,45-19S960,1425.3,960,1408z M1344,1248V288c0-8.7-3.2-16.2-9.5-22.5s-13.8-9.5-22.5-9.5H480c-8.7,0-16.2,3.2-22.5,9.5
	S448,279.3,448,288v960c0,8.7,3.2,16.2,9.5,22.5s13.8,9.5,22.5,9.5h832c8.7,0,16.2-3.2,22.5-9.5S1344,1256.7,1344,1248z M1472,288
	v1088c0,44-15.7,81.7-47,113s-69,47-113,47H480c-44,0-81.7-15.7-113-47s-47-69-47-113V288c0-44,15.7-81.7,47-113s69-47,113-47h832
	c44,0,81.7,15.7,113,47S1472,244,1472,288z"/>
</svg>
