<?xml version="1.0" encoding="utf-8"?>
<!-- Generator: Adobe Illustrator 21.1.0, SVG Export Plug-In . SVG Version: 6.00 Build 0)  -->
<svg version="1.1" id="Layer_1" xmlns="http://www.w3.org/2000/svg" xmlns:xlink="http://www.w3.org/1999/xlink" x="0px" y="0px"
	 viewBox="0 0 1792 1792" style="enable-background:new 0 0 1792 1792;" xml:space="preserve">
<style type="text/css">
	.st0{fill:#0066FF;}
</style>
<path class="st0" d="M1664,1248V288c0-8.7-3.2-16.2-9.5-22.5s-13.8-9.5-22.5-9.5H32c-8.7,0-16.2,3.2-22.5,9.5S0,279.3,0,288v960
	c0,8.7,3.2,16.2,9.5,22.5s13.8,9.5,22.5,9.5h1600c8.7,0,16.2-3.2,22.5-9.5S1664,1256.7,1664,1248z M1792,288v960
	c0,44-15.7,81.7-47,113s-69,47-113,47H896v128h352c9.3,0,17,3,23,9s9,13.7,9,23v64c0,9.3-3,17-9,23s-13.7,9-23,9H416
	c-9.3,0-17-3-23-9s-9-13.7-9-23v-64c0-9.3,3-17,9-23s13.7-9,23-9h352v-128H32c-44,0-81.7-15.7-113-47s-47-69-47-113V288
	c0-44,15.7-81.7,47-113s69-47,113-47h1600c44,0,81.7,15.7,113,47S1792,244,1792,288z"/>
</svg>
