<?xml version="1.0" encoding="utf-8"?>
<!-- Generator: Adobe Illustrator 21.1.0, SVG Export Plug-In . SVG Version: 6.00 Build 0)  -->
<svg version="1.1" id="Layer_1" xmlns="http://www.w3.org/2000/svg" xmlns:xlink="http://www.w3.org/1999/xlink" x="0px" y="0px"
	 viewBox="0 0 1792 1792" style="enable-background:new 0 0 1792 1792;" xml:space="preserve">
<style type="text/css">
	.st0{fill:#0066FF;}
</style>
<path class="st0" d="M1098,572c0,53.3-19,98.8-57,136.5S957.7,765,905,765c-40,0-77-11.7-111-35c-41.3,44.7-79.7,93.3-115,146
	c-164.7,247.3-232,533.7-202,859c0.7,14.7-3.5,27.5-12.5,38.5S444,1790.7,430,1792h-5c-13.3,0-25-4.5-35-13.5s-15.7-20.2-17-33.5
	c-9.3-84-10.5-166.5-3.5-247.5s16.8-153.3,29.5-217s30.7-125.7,54-186s46.3-112.2,69-155.5s47.3-85,74-125c40.7-60,84.7-115,132-165
	c-10.7-23.3-16-49-16-77c0-53.3,18.8-98.8,56.5-136.5S851.7,379,905,379s98.8,18.8,136.5,56.5C1079.2,473.2,1098,518.7,1098,572z
	 M1479,583c0,105.3-26,202.7-78,292s-122.8,160-212.5,212s-187.2,78-292.5,78c-42.7,0-86.3-4.7-131-14c-14-3.3-24.8-11.2-32.5-23.5
	s-9.8-25.5-6.5-39.5c3.3-13.3,11-23.8,23-31.5s25-10.2,39-7.5c34,8.7,70,13,108,13c64.7,0,126.7-12.7,186-38
	c59.3-25.3,110.3-59.3,153-102s76.7-93.7,102-153s38-121.3,38-186s-12.7-126.7-38-186s-59.3-110.3-102-153s-93.7-76.7-153-102
	c-59.3-25.3-121.3-38-186-38s-126.7,12.7-186,38s-110.3,59.3-153,102s-76.7,93.7-102,153s-38,121.3-38,186c0,76,17.3,148.7,52,218
	c6.7,13.3,7.8,26.7,3.5,40s-12.8,23.3-25.5,30s-25.8,7.7-39.5,3s-23.8-13.3-30.5-26c-42.7-82-64-170.3-64-265
	c0-79.3,15.5-155,46.5-227S432,222,484,170S598,76.7,670,46S817.3,0,896,0c105.3,0,202.8,26,292.5,78S1349,200.8,1401,290.5
	S1479,477.7,1479,583z"/>
</svg>
