<?xml version="1.0" encoding="utf-8"?>
<!-- Generator: Adobe Illustrator 21.1.0, SVG Export Plug-In . SVG Version: 6.00 Build 0)  -->
<svg version="1.1" id="Layer_1" xmlns="http://www.w3.org/2000/svg" xmlns:xlink="http://www.w3.org/1999/xlink" x="0px" y="0px"
	 viewBox="0 0 1792 1792" style="enable-background:new 0 0 1792 1792;" xml:space="preserve">
<style type="text/css">
	.st0{fill:#0066FF;}
</style>
<path class="st0" d="M209,129l54,27c8,3.3,78.3,5,211,5c29.3,0,73.3-0.7,132-2s102.7-2,132-2c46.7,0,128.8-0.3,246.5-1
	s219.2-0.8,304.5-0.5s167.7,1.8,247,4.5c22,0.7,40.7-9.7,56-31l42-1c2.7,0,7.3,0.2,14,0.5s11.3,0.5,14,0.5c1.3,74.7,2,186.7,2,336
	c0,53.3-1.7,89.7-5,109c-26,9.3-48.7,15.3-68,18c-16.7-29.3-34.7-72-54-128c-2-6-5.7-21.8-11-47.5s-10.3-50.2-15-73.5s-7-35.3-7-36
	c-6.7-8.7-15.7-15-27-19c-3.3-1.3-25.3-2-66-2c-20,0-51-0.3-93-1s-76.3-1-103-1s-58,0.7-94,2s-68,3.7-96,7c-6,54-8.7,99.3-8,136
	l1,152v-52c0,36.7,0.3,88,1,154s1.2,126,1.5,180s0.5,105,0.5,153c0,10.7-0.8,34.5-2.5,71.5s-1.7,67.5,0,91.5s5.8,47,12.5,69
	c26.7,14,68,28.2,124,42.5s96,26.8,120,37.5c3.3,26.7,5,43.3,5,50c0,9.3-1,19-3,29l-34,1c-50.7,1.3-123.3-1.3-218-8
	s-163.7-10-207-10c-33.3,0-83.7,3-151,9s-118,9-152,9c-2-34-3-51.3-3-52v-9c11.3-18,31.8-32.3,61.5-43s62.5-20.3,98.5-29
	s62-17.7,78-27c4.7-10.7,8.5-35.3,11.5-74s5-87.2,6-145.5c1-58.3,1.5-110,1.5-155s-0.2-96.2-0.5-153.5s-0.5-87-0.5-89
	c0-4.7-0.8-11.8-2.5-21.5S763,592.3,763,587c0-4.7,0.2-19.3,0.5-44s0.7-49,1-73s0.3-49.5,0-76.5s-1.3-49.5-3-67.5s-3.8-28.7-6.5-32
	c-7.3-8-61.3-12-162-12c-27.3,0-81.7,4.5-163,13.5S302.7,312.7,292,320c-12.7,8-24,31.8-34,71.5s-20.5,76.8-31.5,111.5
	s-25.2,52.7-42.5,54c-28-17.3-46.7-32-56-44V130L209,129z M1438,1411c8,0,22,6.5,42,19.5s39.2,26.8,57.5,41.5s38.2,31,59.5,49
	s33.3,28,36,30c17.3,14,26,30.3,26,49s-8.7,35-26,49c-2.7,2-14.7,12-36,30s-41.2,34.3-59.5,49s-37.5,28.5-57.5,41.5
	s-34,19.5-42,19.5c-8.7,0-15.5-3.5-20.5-10.5s-8.3-16.5-10-28.5s-2.5-23.2-2.5-33.5s0.5-21.3,1.5-33s1.5-18.2,1.5-19.5H384
	c0,1.3,0.5,7.8,1.5,19.5s1.5,22.7,1.5,33s-0.8,21.5-2.5,33.5s-5,21.5-10,28.5S362.7,1789,354,1789c-8,0-22-6.5-42-19.5
	s-39.2-26.8-57.5-41.5s-38.2-31-59.5-49s-33.3-28-36-30c-17.3-14-26-30.3-26-49s8.7-35,26-49c2.7-2,14.7-12,36-30s41.2-34.3,59.5-49
	s37.5-28.5,57.5-41.5s34-19.5,42-19.5c8.7,0,15.5,3.5,20.5,10.5s8.3,16.5,10,28.5s2.5,23.2,2.5,33.5s-0.5,21.3-1.5,33
	s-1.5,18.2-1.5,19.5h1024c0-1.3-0.5-7.8-1.5-19.5s-1.5-22.7-1.5-33s0.8-21.5,2.5-33.5s5-21.5,10-28.5S1429.3,1411,1438,1411z"/>
</svg>
