<?xml version="1.0" encoding="utf-8"?>
<!-- Generator: Adobe Illustrator 21.1.0, SVG Export Plug-In . SVG Version: 6.00 Build 0)  -->
<svg version="1.1" id="Layer_1" xmlns="http://www.w3.org/2000/svg" xmlns:xlink="http://www.w3.org/1999/xlink" x="0px" y="0px"
	 viewBox="0 0 1792 1792" style="enable-background:new 0 0 1792 1792;" xml:space="preserve">
<style type="text/css">
	.st0{fill:#0066FF;}
</style>
<path class="st0" d="M832,1024v384c0,34.7-12.7,64.7-38,90s-55.3,38-90,38H192c-34.7,0-64.7-12.7-90-38s-38-55.3-38-90v-384
	c0-34.7,12.7-64.7,38-90s55.3-38,90-38h512c34.7,0,64.7,12.7,90,38S832,989.3,832,1024z M832,256v384c0,34.7-12.7,64.7-38,90
	s-55.3,38-90,38H192c-34.7,0-64.7-12.7-90-38s-38-55.3-38-90V256c0-34.7,12.7-64.7,38-90s55.3-38,90-38h512c34.7,0,64.7,12.7,90,38
	S832,221.3,832,256z M1728,1024v384c0,34.7-12.7,64.7-38,90s-55.3,38-90,38h-512c-34.7,0-64.7-12.7-90-38s-38-55.3-38-90v-384
	c0-34.7,12.7-64.7,38-90s55.3-38,90-38h512c34.7,0,64.7,12.7,90,38S1728,989.3,1728,1024z M1728,256v384c0,34.7-12.7,64.7-38,90
	s-55.3,38-90,38h-512c-34.7,0-64.7-12.7-90-38s-38-55.3-38-90V256c0-34.7,12.7-64.7,38-90s55.3-38,90-38h512c34.7,0,64.7,12.7,90,38
	S1728,221.3,1728,256z"/>
</svg>
