<?xml version="1.0" encoding="utf-8"?>
<!-- Generator: Adobe Illustrator 21.1.0, SVG Export Plug-In . SVG Version: 6.00 Build 0)  -->
<svg version="1.1" id="Layer_1" xmlns="http://www.w3.org/2000/svg" xmlns:xlink="http://www.w3.org/1999/xlink" x="0px" y="0px"
	 viewBox="0 0 1792 1792" style="enable-background:new 0 0 1792 1792;" xml:space="preserve">
<style type="text/css">
	.st0{fill:#0066FF;}
</style>
<path class="st0" d="M384,1344c0-17.3-6.3-32.3-19-45s-27.7-19-45-19s-32.3,6.3-45,19s-19,27.7-19,45s6.3,32.3,19,45s27.7,19,45,19
	s32.3-6.3,45-19S384,1361.3,384,1344z M1536,768c0-34-13-63.8-39-89.5s-55.7-38.5-89-38.5h-352c0-38.7,16-91.8,48-159.5
	s48-121.2,48-160.5c0-65.3-10.7-113.7-32-145s-64-47-128-47c-17.3,17.3-30,45.7-38,85s-18.2,81.2-30.5,125.5S891.3,419.3,864,448
	c-14.7,15.3-40.3,45.7-77,91c-2.7,3.3-10.3,13.3-23,30s-23.2,30.3-31.5,41s-19.8,24.8-34.5,42.5s-28,32.3-40,44S633.2,720,619.5,732
	s-27,21-40,27s-24.8,9-35.5,9h-32v640h32c8.7,0,19.2,1,31.5,3s23.3,4.2,33,6.5s22.3,6,38,11s27.3,8.8,35,11.5s19.5,6.8,35.5,12.5
	s25.7,9.2,29,10.5c140.7,48.7,254.7,73,342,73h121c128,0,192-55.7,192-167c0-17.3-1.7-36-5-56c20-10.7,35.8-28.2,47.5-52.5
	s17.5-48.8,17.5-73.5s-6-47.7-18-69c35.3-33.3,53-73,53-119c0-16.7-3.3-35.2-10-55.5s-15-36.2-25-47.5c21.3-0.7,39.2-16.3,53.5-47
	S1536,791.3,1536,768z M1664,767c0,59.3-16.3,113.7-49,163c6,22,9,45,9,69c0,51.3-12.7,99.3-38,144c2,14,3,28.3,3,43
	c0,67.3-20,126.7-60,178c0.7,92.7-27.7,165.8-85,219.5s-133,80.5-227,80.5h-129c-64,0-127.2-7.5-189.5-22.5S764,1604.7,682,1576
	c-77.3-26.7-123.3-40-138-40H256c-35.3,0-65.5-12.5-90.5-37.5S128,1443.3,128,1408V768c0-35.3,12.5-65.5,37.5-90.5
	S220.7,640,256,640h274c24-16,69.7-67.7,137-155c38.7-50,74.3-92.7,107-128c16-16.7,27.8-45.2,35.5-85.5S827.3,189,840,145
	s33.3-80,62-108c26-24.7,56-37,90-37c56,0,106.3,10.8,151,32.5S1221.7,88,1245,134s35,108,35,186c0,62-16,126-48,192h176
	c69.3,0,129.3,25.3,180,76S1664,698.3,1664,767z"/>
</svg>
