<?xml version="1.0" encoding="utf-8"?>
<!-- Generator: Adobe Illustrator 21.1.0, SVG Export Plug-In . SVG Version: 6.00 Build 0)  -->
<svg version="1.1" id="Layer_1" xmlns="http://www.w3.org/2000/svg" xmlns:xlink="http://www.w3.org/1999/xlink" x="0px" y="0px"
	 viewBox="0 0 1792 1792" style="enable-background:new 0 0 1792 1792;" xml:space="preserve">
<style type="text/css">
	.st0{fill:#0066FF;}
</style>
<path class="st0" d="M896,1152c0-24-6.7-47-20-69c-0.7-0.7-5.8-8.2-15.5-22.5s-18.2-27-25.5-38s-15.7-25.7-25-44s-16.3-35.2-21-50.5
	c-2.7-10.7-9.7-16-21-16s-18.3,5.3-21,16c-4.7,15.3-11.7,32.2-21,50.5s-17.7,33-25,44s-15.8,23.7-25.5,38s-14.8,21.8-15.5,22.5
	c-13.3,22-20,45-20,69c0,35.3,12.5,65.5,37.5,90.5s55.2,37.5,90.5,37.5s65.5-12.5,90.5-37.5S896,1187.3,896,1152z M1408,1024
	c0,141.3-50,262-150,362s-220.7,150-362,150s-262-50-362-150s-150-220.7-150-362c0-96.7,27-188.3,81-275c4-6,24.8-36.2,62.5-90.5
	s71.3-104.7,101-151s62.8-105.7,99.5-178S792.3,190,811,128c6-20,17.3-35.7,34-47s33.7-17,51-17s34.5,5.7,51.5,17s28.2,27,33.5,47
	c18.7,62,46.3,129.2,83,201.5s69.8,131.7,99.5,178s63.3,96.7,101,151S1323,743,1327,749C1381,833.7,1408,925.3,1408,1024z"/>
</svg>
