<?xml version="1.0" encoding="utf-8"?>
<!-- Generator: Adobe Illustrator 21.1.0, SVG Export Plug-In . SVG Version: 6.00 Build 0)  -->
<svg version="1.1" id="Layer_1" xmlns="http://www.w3.org/2000/svg" xmlns:xlink="http://www.w3.org/1999/xlink" x="0px" y="0px"
	 viewBox="0 0 1792 1792" style="enable-background:new 0 0 1792 1792;" xml:space="preserve">
<style type="text/css">
	.st0{fill:#0066FF;}
</style>
<path class="st0" d="M1024,896c0-69.3-13.5-135.5-40.5-198.5S920,580,874,534s-100.5-82.5-163.5-109.5S581.3,384,512,384
	s-135.5,13.5-198.5,40.5S196,488,150,534S67.5,634.5,40.5,697.5S0,826.7,0,896s13.5,135.5,40.5,198.5S104,1212,150,1258
	s100.5,82.5,163.5,109.5S442.7,1408,512,1408s135.5-13.5,198.5-40.5S828,1304,874,1258s82.5-100.5,109.5-163.5S1024,965.3,1024,896z
	 M1792,896c0-69.3-13.5-135.5-40.5-198.5S1688,580,1642,534s-100.5-82.5-163.5-109.5S1349.3,384,1280,384H894
	c79.3,60,142.2,134.7,188.5,224s69.5,185.3,69.5,288s-23.2,198.7-69.5,288S973.3,1348,894,1408h386c69.3,0,135.5-13.5,198.5-40.5
	S1596,1304,1642,1258s82.5-100.5,109.5-163.5S1792,965.3,1792,896z M1920,896c0,86.7-17,169.5-51,248.5s-79.5,147-136.5,204
	s-125,102.5-204,136.5s-161.8,51-248.5,51H512c-86.7,0-169.5-17-248.5-51s-147-79.5-204-136.5s-102.5-125-136.5-204
	s-51-161.8-51-248.5s17-169.5,51-248.5s79.5-147,136.5-204s125-102.5,204-136.5s161.8-51,248.5-51h768c86.7,0,169.5,17,248.5,51
	s147,79.5,204,136.5s102.5,125,136.5,204S1920,809.3,1920,896z"/>
</svg>
