<?xml version="1.0" encoding="utf-8"?>
<!-- Generator: Adobe Illustrator 21.1.0, SVG Export Plug-In . SVG Version: 6.00 Build 0)  -->
<svg version="1.1" id="Layer_1" xmlns="http://www.w3.org/2000/svg" xmlns:xlink="http://www.w3.org/1999/xlink" x="0px" y="0px"
	 viewBox="0 0 1792 1792" style="enable-background:new 0 0 1792 1792;" xml:space="preserve">
<style type="text/css">
	.st0{fill:#0066FF;}
</style>
<path class="st0" d="M832,1344V320c0-9.3-3-17-9-23s-13.7-9-23-9H320c-9.3,0-17,3-23,9s-9,13.7-9,23v1024c0,9.3,3,17,9,23
	s13.7,9,23,9h480c9.3,0,17-3,23-9S832,1353.3,832,1344z M1504,960V320c0-9.3-3-17-9-23s-13.7-9-23-9H992c-9.3,0-17,3-23,9
	s-9,13.7-9,23v640c0,9.3,3,17,9,23s13.7,9,23,9h480c9.3,0,17-3,23-9S1504,969.3,1504,960z M1664,192v1408c0,17.3-6.3,32.3-19,45
	s-27.7,19-45,19H192c-17.3,0-32.3-6.3-45-19s-19-27.7-19-45V192c0-17.3,6.3-32.3,19-45s27.7-19,45-19h1408c17.3,0,32.3,6.3,45,19
	S1664,174.7,1664,192z"/>
</svg>
