<?xml version="1.0" encoding="utf-8"?>
<!-- Generator: Adobe Illustrator 21.1.0, SVG Export Plug-In . SVG Version: 6.00 Build 0)  -->
<svg version="1.1" id="Layer_1" xmlns="http://www.w3.org/2000/svg" xmlns:xlink="http://www.w3.org/1999/xlink" x="0px" y="0px"
	 viewBox="0 0 1792 1792" style="enable-background:new 0 0 1792 1792;" xml:space="preserve">
<style type="text/css">
	.st0{fill:#0066FF;}
</style>
<path class="st0" d="M1328,1329l80,237c-15.3,23.3-52.3,45.3-111,66s-117.7,31.3-177,32c-69.3,1.3-132.8-7.3-190.5-26
	s-105.2-43.3-142.5-74s-69-66-95-106s-44.5-80-55.5-120s-16.5-79.3-16.5-118V676H452V461c48-17.3,91-40.5,129-69.5s68.3-59,91-90
	s42-65,58-102s27.3-70,34-99S775.7,42,779,12c0.7-3.3,2.2-6.2,4.5-8.5S788.3,0,791,0h244v424h333v252h-334v518c0,20,2.2,38.7,6.5,56
	s11.8,34.8,22.5,52.5s27.2,31.5,49.5,41.5s49.5,14.7,81.5,14C1246,1356.7,1290.7,1347,1328,1329z"/>
</svg>
