<?xml version="1.0" encoding="utf-8"?>
<!-- Generator: Adobe Illustrator 21.1.0, SVG Export Plug-In . SVG Version: 6.00 Build 0)  -->
<svg version="1.1" id="Layer_1" xmlns="http://www.w3.org/2000/svg" xmlns:xlink="http://www.w3.org/1999/xlink" x="0px" y="0px"
	 viewBox="0 0 1792 1792" style="enable-background:new 0 0 1792 1792;" xml:space="preserve">
<style type="text/css">
	.st0{fill:#0066FF;}
</style>
<path class="st0" d="M1344,1472c0-17.3-6.3-32.3-19-45s-27.7-19-45-19s-32.3,6.3-45,19s-19,27.7-19,45s6.3,32.3,19,45s27.7,19,45,19
	s32.3-6.3,45-19S1344,1489.3,1344,1472z M1600,1472c0-17.3-6.3-32.3-19-45s-27.7-19-45-19s-32.3,6.3-45,19s-19,27.7-19,45
	s6.3,32.3,19,45s27.7,19,45,19s32.3-6.3,45-19S1600,1489.3,1600,1472z M1728,1248v320c0,26.7-9.3,49.3-28,68s-41.3,28-68,28H160
	c-26.7,0-49.3-9.3-68-28s-28-41.3-28-68v-320c0-26.7,9.3-49.3,28-68s41.3-28,68-28h427c14,37.3,37.5,68,70.5,92s69.8,36,110.5,36
	h256c40.7,0,77.5-12,110.5-36s56.5-54.7,70.5-92h427c26.7,0,49.3,9.3,68,28S1728,1221.3,1728,1248z M1403,600
	c-11.3,26.7-31,40-59,40h-256v448c0,17.3-6.3,32.3-19,45s-27.7,19-45,19H768c-17.3,0-32.3-6.3-45-19s-19-27.7-19-45V640H448
	c-28,0-47.7-13.3-59-40c-11.3-26-6.7-49,14-69L851,83c12-12.7,27-19,45-19s33,6.3,45,19l448,448C1409.7,551,1414.3,574,1403,600z"/>
</svg>
