<?xml version="1.0" encoding="utf-8"?>
<!-- Generator: Adobe Illustrator 21.1.0, SVG Export Plug-In . SVG Version: 6.00 Build 0)  -->
<svg version="1.1" id="Layer_1" xmlns="http://www.w3.org/2000/svg" xmlns:xlink="http://www.w3.org/1999/xlink" x="0px" y="0px"
	 viewBox="0 0 1792 1792" style="enable-background:new 0 0 1792 1792;" xml:space="preserve">
<style type="text/css">
	.st0{fill:#0066FF;}
</style>
<path class="st0" d="M1600,1405c0,80-24.3,143.2-73,189.5s-113.3,69.5-194,69.5H459c-80.7,0-145.3-23.2-194-69.5S192,1485,192,1405
	c0-35.3,1.2-69.8,3.5-103.5s7-70,14-109s15.8-75.2,26.5-108.5s25-65.8,43-97.5s38.7-58.7,62-81s51.8-40.2,85.5-53.5
	s70.8-20,111.5-20c6,0,20,7.2,42,21.5s46.8,30.3,74.5,48s63.7,33.7,108,48S851.3,971,896,971s89.2-7.2,133.5-21.5
	c44.3-14.3,80.3-30.3,108-48s52.5-33.7,74.5-48s36-21.5,42-21.5c40.7,0,77.8,6.7,111.5,20s62.2,31.2,85.5,53.5s44,49.3,62,81
	s32.3,64.2,43,97.5s19.5,69.5,26.5,108.5s11.7,75.3,14,109S1600,1369.7,1600,1405z M1280,512c0,106-37.5,196.5-112.5,271.5
	S1002,896,896,896s-196.5-37.5-271.5-112.5S512,618,512,512s37.5-196.5,112.5-271.5S790,128,896,128s196.5,37.5,271.5,112.5
	S1280,406,1280,512z"/>
</svg>
