<?xml version="1.0" encoding="utf-8"?>
<!-- Generator: Adobe Illustrator 21.1.0, SVG Export Plug-In . SVG Version: 6.00 Build 0)  -->
<svg version="1.1" id="Layer_1" xmlns="http://www.w3.org/2000/svg" xmlns:xlink="http://www.w3.org/1999/xlink" x="0px" y="0px"
	 viewBox="0 0 1792 1792" style="enable-background:new 0 0 1792 1792;" xml:space="preserve">
<style type="text/css">
	.st0{fill:#0066FF;}
</style>
<path class="st0" d="M576,896c-106,0-196.5-37.5-271.5-112.5S192,618,192,512s37.5-196.5,112.5-271.5S470,128,576,128
	s196.5,37.5,271.5,112.5S960,406,960,512s-37.5,196.5-112.5,271.5S682,896,576,896z M1653,1216l249,249c6,6,9,13.7,9,23
	c0,8.7-3,16-9,22l-136,136c-6,6-13.3,9-22,9c-9.3,0-17-3-23-9l-249-249l-249,249c-6,6-13.7,9-23,9c-8.7,0-16-3-22-9l-136-136
	c-6-6-9-13.3-9-22c0-9.3,3-17,9-23l249-249l-249-249c-6-6-9-13.7-9-23c0-8.7,3-16,9-22l136-136c6-6,13.3-9,22-9c9.3,0,17,3,23,9
	l249,249l249-249c6-6,13.7-9,23-9c8.7,0,16,3,22,9l136,136c6,6,9,13.3,9,22c0,9.3-3,17-9,23L1653,1216z M1155,1216l-181,181
	c-24.7,24.7-37,55-37,91c0,35.3,12.3,65.3,37,90l83,83c-14,2-28.7,3-44,3H139c-80.7,0-145.3-23-194-69s-73-109.3-73-190
	c0-35.3,1.2-69.8,3.5-103.5s7-70,14-109s15.8-75.2,26.5-108.5s25-65.8,43-97.5s38.7-58.7,62-81s51.8-40.2,85.5-53.5
	s70.8-20,111.5-20c12.7,0,25.7,5.7,39,17c102.7,81.3,209,122,319,122s216.3-40.7,319-122c13.3-11.3,26.3-17,39-17
	c18.7,0,37.7,2,57,6c-18.7,18-32.3,34.7-41,50s-13,34-13,56c0,36,12.3,66.3,37,91L1155,1216z"/>
</svg>
