<?xml version="1.0" encoding="utf-8"?>
<!-- Generator: Adobe Illustrator 21.1.0, SVG Export Plug-In . SVG Version: 6.00 Build 0)  -->
<svg version="1.1" id="Layer_1" xmlns="http://www.w3.org/2000/svg" xmlns:xlink="http://www.w3.org/1999/xlink" x="0px" y="0px"
	 viewBox="0 0 1792 1792" style="enable-background:new 0 0 1792 1792;" xml:space="preserve">
<style type="text/css">
	.st0{fill:#0066FF;}
</style>
<path class="st0" d="M1088,352v1088c0,17.3-6.3,32.3-19,45s-27.7,19-45,19c-17.3,0-32.3-6.3-45-19l-333-333H384
	c-17.3,0-32.3-6.3-45-19s-19-27.7-19-45V704c0-17.3,6.3-32.3,19-45s27.7-19,45-19h262l333-333c12.7-12.7,27.7-19,45-19
	c17.3,0,32.3,6.3,45,19S1088,334.7,1088,352z M1472,896c0,50.7-14.2,97.8-42.5,141.5c-28.3,43.7-65.8,74.8-112.5,93.5
	c-6.7,3.3-15,5-25,5c-17.3,0-32.3-6.2-45-18.5s-19-27.5-19-45.5c0-14,4-25.8,12-35.5s17.7-18,29-25s22.7-14.7,34-23s21-20.2,29-35.5
	s12-34.3,12-57s-4-41.7-12-57s-17.7-27.2-29-35.5s-22.7-16-34-23s-21-15.3-29-25s-12-21.5-12-35.5c0-18,6.3-33.2,19-45.5
	s27.7-18.5,45-18.5c10,0,18.3,1.7,25,5c46.7,18,84.2,49,112.5,93S1472,845.3,1472,896z"/>
</svg>
