<?xml version="1.0" encoding="utf-8"?>
<!-- Generator: Adobe Illustrator 21.1.0, SVG Export Plug-In . SVG Version: 6.00 Build 0)  -->
<svg version="1.1" id="Layer_1" xmlns="http://www.w3.org/2000/svg" xmlns:xlink="http://www.w3.org/1999/xlink" x="0px" y="0px"
	 viewBox="0 0 1792 1792" style="enable-background:new 0 0 1792 1792;" xml:space="preserve">
<style type="text/css">
	.st0{fill:#0066FF;}
</style>
<path class="st0" d="M1238,1639L943,944c-16.7,32.7-69.5,134.5-158.5,305.5S629.3,1550.3,586,1639c-0.7,0.7-9.8,0.8-27.5,0.5
	s-26.5-0.8-26.5-1.5c-54.7-128.7-139.8-324.3-255.5-587S74.3,589.7,17,455c-14-33.3-36.2-69.2-66.5-107.5S-114.3,275.7-153,247
	s-72.7-43-102-43c0-3.3-0.2-11.3-0.5-24s-0.5-21.7-0.5-27h583v50c-26,1.3-52.5,6.7-79.5,16s-49.2,23.7-66.5,43s-20.7,40.7-10,64
	c17.3,39.3,89.5,205.7,216.5,499S593,1298.3,623,1365c20.7-40.7,67.3-129.5,140-266.5S879.3,879,894,851
	c-12.7-26-54.7-119.7-126-281S651.3,310.3,632,275c-25.3-46-92.3-69.7-201-71v-50l513,1v47c-40,1.3-71.2,9.7-93.5,25
	S824,265.3,838,296c22,46.7,51,109.8,87,189.5s64.7,142.2,86,187.5c73.3-142.7,131-263.7,173-363c16-36.7,12.7-63.2-10-79.5
	s-65.7-25.2-129-26.5c0.7-4.7,1-13,1-25v-24c42.7,0,99.5-0.2,170.5-0.5s131-0.7,180-1s79.8-0.5,92.5-0.5v49
	c-41.3,1.3-81,12.3-119,33s-68,47.7-90,81l-213,442c8.7,22,51.2,118.7,127.5,290s116.8,262.7,121.5,274l441-1017
	c-9.3-25.3-25.8-46.2-49.5-62.5s-45.3-26.8-65-31.5s-38.2-7.3-55.5-8v-50l460,4l1,2l-1,44c-92.7,2.7-159.7,51-201,145
	c-350.7,810.7-537,1241-559,1291H1238z"/>
</svg>
