<?xml version="1.0" encoding="utf-8"?>
<!-- Generator: Adobe Illustrator 21.1.0, SVG Export Plug-In . SVG Version: 6.00 Build 0)  -->
<svg version="1.1" id="Layer_1" xmlns="http://www.w3.org/2000/svg" xmlns:xlink="http://www.w3.org/1999/xlink" x="0px" y="0px"
	 viewBox="0 0 1792 1792" style="enable-background:new 0 0 1792 1792;" xml:space="preserve">
<style type="text/css">
	.st0{fill:#0066FF;}
</style>
<path class="st0" d="M514,1195l81-299H436l75,300c0.7,0.7,1,1.7,1,3s0.3,2.3,1,3c0-0.7,0.2-1.8,0.5-3.5S514,1195.7,514,1195z
	 M630,768l35-128H373l32,128H630z M822,768h139l-35-128h-70L822,768z M1271,1196l78-300h-162l81,299c0,0.7,0.2,1.8,0.5,3.5
	s0.8,2.8,1.5,3.5c0-0.7,0.2-1.7,0.5-3S1271,1196.7,1271,1196z M1382,768l33-128h-297l34,128H1382z M1792,800v64c0,9.3-3,17-9,23
	s-13.7,9-23,9h-213l-164,616c-4.7,16-15,24-31,24h-159c-16,0-26.3-8-31-24L996,896H787l-167,616c-4.7,16-15,24-31,24H430
	c-7.3,0-13.8-2.3-19.5-7s-9.2-10.3-10.5-17L240,896H32c-9.3,0-17-3-23-9s-9-13.7-9-23v-64c0-9.3,3-17,9-23s13.7-9,23-9h175l-33-128
	H32c-9.3,0-17-3-23-9s-9-13.7-9-23v-64c0-9.3,3-17,9-23s13.7-9,23-9h109L52,168c-3.3-10-1.7-19.3,5-28c6.7-8,15.3-12,26-12h137
	c17.3,0,27.7,8,31,24l90,360h359l97-360c4.7-16,15-24,31-24h126c16,0,26.3,8,31,24l98,360h365l93-360c3.3-16,13.7-24,31-24h137
	c10.7,0,19.3,4,26,12c6.7,8.7,8.3,18,5,28l-91,344h111c9.3,0,17,3,23,9s9,13.7,9,23v64c0,9.3-3,17-9,23s-13.7,9-23,9h-145l-34,128
	h179c9.3,0,17,3,23,9S1792,790.7,1792,800z"/>
</svg>
