<?xml version="1.0" encoding="utf-8"?>
<!-- Generator: Adobe Illustrator 21.1.0, SVG Export Plug-In . SVG Version: 6.00 Build 0)  -->
<svg version="1.1" id="Layer_1" xmlns="http://www.w3.org/2000/svg" xmlns:xlink="http://www.w3.org/1999/xlink" x="0px" y="0px"
	 viewBox="0 0 1792 1792" style="enable-background:new 0 0 1792 1792;" xml:space="preserve">
<style type="text/css">
	.st0{fill:#0066FF;}
</style>
<path class="st0" d="M127,896c0-108.7,22.3-213,67-313l367,1005c-130.7-63.3-235.7-157-315-281S127,1046,127,896z M1415,857
	c0,12.7-0.8,25.5-2.5,38.5s-5,29.5-10,49.5s-8.8,34.7-11.5,44s-8.5,29-17.5,59s-14.8,49.3-17.5,58l-76,256l-278-826
	c30.7-2,60-4.7,88-8c12.7-1.3,21.3-7.5,26-18.5s3.8-21.3-2.5-31s-15.8-14.2-28.5-13.5l-205,10c-50-0.7-117.3-4-202-10
	c-8-0.7-14.8,1-20.5,5s-9.5,9-11.5,15s-2.5,12.2-1.5,18.5s4,11.8,9,16.5s11.5,7.3,19.5,8l80,8l120,328l-168,504L425,536
	c30.7-2,60-4.7,88-8c12.7-1.3,21.3-7.5,26-18.5s3.8-21.3-2.5-31S520.7,464.3,508,465l-205,10c-4.7,0-12.3-0.2-23-0.5
	s-19.3-0.5-26-0.5c70-106.7,161.5-191.2,274.5-253.5S764,127,896,127c98,0,191.5,17.7,280.5,53S1345,265,1415,329h-10
	c-36.7,0-67.3,13.5-92,40.5s-37,58.8-37,95.5c0,8,0.7,16,2,24s2.7,15.2,4,21.5s4,14,8,23s7,16,9,21s6,12.5,12,22.5s10.2,17,12.5,21
	s7.2,12,14.5,24s12,19.7,14,23C1394,716.3,1415,787,1415,857z M909,963l237,647c0.7,4,2.3,7.7,5,11c-84,29.3-169,44-255,44
	c-74.7,0-147-10.7-217-32L909,963z M1570,527c63.3,116,95,239,95,369c0,139.3-34.7,267.8-104,385.5S1398.7,1492,1282,1560l235-678
	c39.3-112.7,59-204.7,59-276C1576,578,1574,551.7,1570,527z M896,0c121.3,0,237.3,23.7,348,71s206,111,286,191s143.7,175.3,191,286
	s71,226.7,71,348s-23.7,237.3-71,348s-111,206-191,286s-175.3,143.7-286,191s-226.7,71-348,71s-237.3-23.7-348-71s-206-111-286-191
	s-143.7-175.3-191-286S0,1017.3,0,896s23.7-237.3,71-348s111-206,191-286S437.3,118.3,548,71S774.7,0,896,0z M896,1751
	c115.3,0,225.8-22.7,331.5-68s196.7-106.2,273-182.5s137.2-167.3,182.5-273s68-216.2,68-331.5s-22.7-225.8-68-331.5
	s-106.2-196.7-182.5-273s-167.3-137.2-273-182.5S1011.3,41,896,41s-225.8,22.7-331.5,68s-196.7,106.2-273,182.5
	S154.3,458.8,109,564.5S41,780.7,41,896s22.7,225.8,68,331.5s106.2,196.7,182.5,273s167.3,137.2,273,182.5S780.7,1751,896,1751z"/>
</svg>
