<?xml version="1.0" encoding="utf-8"?>
<!-- Generator: Adobe Illustrator 21.1.0, SVG Export Plug-In . SVG Version: 6.00 Build 0)  -->
<svg version="1.1" id="Layer_1" xmlns="http://www.w3.org/2000/svg" xmlns:xlink="http://www.w3.org/1999/xlink" x="0px" y="0px"
	 viewBox="0 0 1792 1792" style="enable-background:new 0 0 1792 1792;" xml:space="preserve">
<style type="text/css">
	.st0{fill:#0066FF;}
</style>
<path class="st0" d="M789,667c-6.7,12-92.3,164-257,456c-18,30.7-39.7,46-65,46H228c-14,0-24.3-5.7-31-17s-6.7-23.3,0-36l253-448
	c0.7,0,0.7-0.3,0-1L289,388c-8-14.7-8.3-27-1-37c6-10,16.7-15,32-15h239c26.7,0,48.7,15,66,45L789,667z M1595,25
	c7.3,10.7,7.3,23,0,37l-528,934v1l336,615c7.3,13.3,7.7,25.7,1,37c-6.7,10-17.3,15-32,15h-239c-28,0-50-15-66-45L728,997
	c12-21.3,189-335.3,531-942c16.7-30,38-45,64-45h241C1578.7,10,1589,15,1595,25z"/>
</svg>
