<?xml version="1.0" encoding="utf-8"?>
<!-- Generator: Adobe Illustrator 21.1.0, SVG Export Plug-In . SVG Version: 6.00 Build 0)  -->
<svg version="1.1" id="Layer_1" xmlns="http://www.w3.org/2000/svg" xmlns:xlink="http://www.w3.org/1999/xlink" x="0px" y="0px"
	 viewBox="0 0 1792 1792" style="enable-background:new 0 0 1792 1792;" xml:space="preserve">
<style type="text/css">
	.st0{fill:#D00021;}
</style>
<path class="st0" d="M685,483c10.7,0,19.8-3.8,27.5-11.5S724,454.7,724,444s-3.8-19.8-11.5-27.5S695.7,405,685,405
	s-19.7,3.8-27,11.5s-11,16.8-11,27.5s3.7,19.8,11,27.5S674.3,483,685,483z M1107,483c10.7,0,19.7-3.8,27-11.5s11-16.8,11-27.5
	s-3.7-19.8-11-27.5s-16.3-11.5-27-11.5s-19.8,3.8-27.5,11.5S1068,433.3,1068,444s3.8,19.8,11.5,27.5S1096.3,483,1107,483z M295,667
	c28,0,52,10,72,30s30,44,30,72v430c0,28.7-9.8,53-29.5,73s-43.8,30-72.5,30s-53-10-73-30s-30-44.3-30-73V769c0-28,10-52,30-72
	S266.3,667,295,667z M1355,686v666c0,30.7-10.7,56.7-32,78s-47,32-77,32h-75v227c0,28.7-10,53-30,73s-44.3,30-73,30s-53-10-73-30
	s-30-44.3-30-73v-227H827v227c0,28.7-10,53-30,73s-44.3,30-73,30c-28,0-52-10-72-30s-30-44.3-30-73l-1-227h-74
	c-30.7,0-56.7-10.7-78-32s-32-47.3-32-78V686H1355z M1123,281c71.3,36.7,128.3,87.8,171,153.5s64,137.5,64,215.5H433
	c0-78,21.3-149.8,64-215.5S597,317.7,669,281l-71-131c-4.7-8.7-3-15.3,5-20c8.7-4,15.3-2,20,6l72,132c63.3-28,130.3-42,201-42
	s137.7,14,201,42l72-132c4.7-8,11.3-10,20-6c8,4.7,9.7,11.3,5,20L1123,281z M1600,769v430c0,28.7-10,53-30,73s-44.3,30-73,30
	c-28,0-52-10-72-30s-30-44.3-30-73V769c0-28.7,10-52.8,30-72.5s44-29.5,72-29.5c28.7,0,53,9.8,73,29.5S1600,740.3,1600,769z"/>
</svg>
