<?xml version="1.0" encoding="utf-8"?>
<!-- Generator: Adobe Illustrator 21.1.0, SVG Export Plug-In . SVG Version: 6.00 Build 0)  -->
<svg version="1.1" id="Layer_1" xmlns="http://www.w3.org/2000/svg" xmlns:xlink="http://www.w3.org/1999/xlink" x="0px" y="0px"
	 viewBox="0 0 1792 1792" style="enable-background:new 0 0 1792 1792;" xml:space="preserve">
<style type="text/css">
	.st0{fill:#D00021;}
</style>
<path class="st0" d="M969,1053l148,148l-149,149L969,1053z M968,442l149,149L969,739L968,442z M838,1666l464-464L996,896l306-306
	L838,126v611L583,482l-93,93l320,321l-320,321l93,93l255-255V1666z M1557,896c0,139.3-10.7,261.2-32,365.5s-50.5,190-87.5,257
	s-83.8,121.2-140.5,162.5s-117.2,70.2-181.5,86.5S978,1792,896,1792s-155.2-8.2-219.5-24.5S551.7,1722.3,495,1681
	s-103.5-95.5-140.5-162.5s-66.2-152.7-87.5-257s-32-226.2-32-365.5s10.7-261.2,32-365.5s50.5-190,87.5-257S438.3,152.3,495,111
	s117.2-70.2,181.5-86.5S814,0,896,0s155.2,8.2,219.5,24.5S1240.3,69.7,1297,111s103.5,95.5,140.5,162.5s66.2,152.7,87.5,257
	S1557,756.7,1557,896z"/>
</svg>
