<?xml version="1.0" encoding="utf-8"?>
<!-- Generator: Adobe Illustrator 21.1.0, SVG Export Plug-In . SVG Version: 6.00 Build 0)  -->
<svg version="1.1" id="Layer_1" xmlns="http://www.w3.org/2000/svg" xmlns:xlink="http://www.w3.org/1999/xlink" x="0px" y="0px"
	 viewBox="0 0 1792 1792" style="enable-background:new 0 0 1792 1792;" xml:space="preserve">
<style type="text/css">
	.st0{fill:#D00021;}
</style>
<path class="st0" d="M1703,478c26.7,38,32.7,81,18,129l-275,906c-12.7,42.7-38.2,78.5-76.5,107.5s-79.2,43.5-122.5,43.5H324
	c-51.3,0-100.8-17.8-148.5-53.5S94.7,1531,76,1479c-16-44.7-16.7-87-2-127c0-2.7,1-11.7,3-27s3.3-27.7,4-37c0.7-5.3-0.3-12.5-3-21.5
	s-3.7-15.5-3-19.5c1.3-7.3,4-14.3,8-21s9.5-14.5,16.5-23.5s12.5-16.8,16.5-23.5c15.3-25.3,30.3-55.8,45-91.5s24.7-66.2,30-91.5
	c2-6.7,2.2-16.7,0.5-30s-1.8-22.7-0.5-28c2-7.3,7.7-16.7,17-28s15-19,17-23c14-24,28-54.7,42-92s22.3-67.3,25-90
	c0.7-6-0.2-16.7-2.5-32s-2.2-24.7,0.5-28c2.7-8.7,10-18.8,22-30.5s19.3-19.2,22-22.5c12.7-17.3,26.8-45.5,42.5-84.5
	s24.8-71.2,27.5-96.5c0.7-5.3-0.3-13.8-3-25.5s-3.3-20.5-2-26.5c1.3-5.3,4.3-11.3,9-18s10.7-14.3,18-23s13-15.7,17-21
	c5.3-8,10.8-18.2,16.5-30.5c5.7-12.3,10.7-24,15-35s9.7-23,16-36s12.8-23.7,19.5-32s15.5-16.2,26.5-23.5s23-11.2,36-11.5
	s28.8,1.5,47.5,5.5l-1,3c25.3-6,42.3-9,51-9h761c49.3,0,87.3,18.7,114,56s32.7,80.7,18,130l-274,906c-24,79.3-47.8,130.5-71.5,153.5
	S1151,1408,1089,1408H220c-18,0-30.7,5-38,15c-7.3,10.7-7.7,25-1,43c16,46.7,64,70,144,70h923c19.3,0,38-5.2,56-15.5
	s29.7-24.2,35-41.5l300-987c4.7-14.7,6.3-33.7,5-57C1669.3,445,1689,459.3,1703,478z M639,480c-2.7,8.7-2,16.2,2,22.5
	s10.7,9.5,20,9.5h608c8.7,0,17.2-3.2,25.5-9.5s13.8-13.8,16.5-22.5l21-64c2.7-8.7,2-16.2-2-22.5s-10.7-9.5-20-9.5H702
	c-8.7,0-17.2,3.2-25.5,9.5S662.7,407.3,660,416L639,480z M556,736c-2.7,8.7-2,16.2,2,22.5s10.7,9.5,20,9.5h608
	c8.7,0,17.2-3.2,25.5-9.5s13.8-13.8,16.5-22.5l21-64c2.7-8.7,2-16.2-2-22.5s-10.7-9.5-20-9.5H619c-8.7,0-17.2,3.2-25.5,9.5
	S579.7,663.3,577,672L556,736z"/>
</svg>
