<?xml version="1.0" encoding="utf-8"?>
<!-- Generator: Adobe Illustrator 21.1.0, SVG Export Plug-In . SVG Version: 6.00 Build 0)  -->
<svg version="1.1" id="Layer_1" xmlns="http://www.w3.org/2000/svg" xmlns:xlink="http://www.w3.org/1999/xlink" x="0px" y="0px"
	 viewBox="0 0 1792 1792" style="enable-background:new 0 0 1792 1792;" xml:space="preserve">
<style type="text/css">
	.st0{fill:#D00021;}
</style>
<path class="st0" d="M1423,640c12,121.3-31.7,207.3-131,258c78,18.7,136.3,53,175,103s53.7,121.3,45,214c-4.7,47.3-15.5,89-32.5,125
	s-38.5,65.7-64.5,89s-58.3,42.8-97,58.5s-79.2,27.2-121.5,34.5s-90.8,12.3-145.5,15v255H897v-251c-53.3,0-94-0.3-122-1v252H621v-255
	c-12,0-30-0.2-54-0.5s-42.3-0.5-55-0.5H312l31-183h111c33.3,0,52.7-17,58-51V900h16c-4-0.7-9.3-1-16-1V612c-8.7-45.3-38.3-68-89-68
	H312V380l212,1c42.7,0,75-0.3,97-1V128h154v247c54.7-1.3,95.3-2,122-2V128h154v252c52.7,4.7,99.3,12.2,140,22.5s78.3,25.3,113,45
	s62.2,45.7,82.5,78S1419,596,1423,640z M1208,1185c0-24-5-45.3-15-64s-22.3-34-37-46s-33.8-22.2-57.5-30.5S1053,1030,1033,1026
	s-44.7-7-74-9s-52.3-3-69-3s-38.2,0.3-64.5,1s-42.2,1-47.5,1v338c5.3,0,17.7,0.2,37,0.5s35.3,0.5,48,0.5s30.3-0.5,53-1.5
	s42.2-2.3,58.5-4s35.3-4.5,57-8.5c21.7-4,40.2-8.7,55.5-14s31.2-12.3,47.5-21s29.5-18.7,39.5-30s18.2-24.7,24.5-40
	S1208,1203.7,1208,1185z M1137,709c0-22-4.2-41.5-12.5-58.5s-18.5-31-30.5-42s-28-20.3-48-28s-38.3-13.2-55-16.5s-37.2-6-61.5-8
	s-43.7-2.8-58-2.5s-32.3,0.7-54,1S782.7,555,778,555v307c3.3,0,14.8,0.2,34.5,0.5s35.2,0.3,46.5,0s28-1,50-2s40.3-2.8,55-5.5
	s31.8-6.3,51.5-11c19.7-4.7,35.8-10.8,48.5-18.5s25-16.7,37-27s21-23.2,27-38.5S1137,727.7,1137,709z"/>
</svg>
