<?xml version="1.0" encoding="utf-8"?>
<!-- Generator: Adobe Illustrator 21.1.0, SVG Export Plug-In . SVG Version: 6.00 Build 0)  -->
<svg version="1.1" id="Layer_1" xmlns="http://www.w3.org/2000/svg" xmlns:xlink="http://www.w3.org/1999/xlink" x="0px" y="0px"
	 viewBox="0 0 1792 1792" style="enable-background:new 0 0 1792 1792;" xml:space="preserve">
<style type="text/css">
	.st0{fill:#D00021;}
</style>
<path class="st0" d="M928,832c0-9.3-3-17-9-23s-13.7-9-23-9c-44,0-81.7,15.7-113,47s-47,69-47,113c0,9.3,3,17,9,23s13.7,9,23,9
	s17-3,23-9s9-13.7,9-23c0-26.7,9.3-49.3,28-68s41.3-28,68-28c9.3,0,17-3,23-9S928,841.3,928,832z M1152,962c0,70.7-25,131-75,181
	s-110.3,75-181,75s-131-25-181-75s-75-110.3-75-181s25-131,75-181s110.3-75,181-75s131,25,181,75S1152,891.3,1152,962z M128,1536
	h1536v-128H128V1536z M1280,962c0-106-37.5-196.5-112.5-271.5S1002,578,896,578s-196.5,37.5-271.5,112.5S512,856,512,962
	s37.5,196.5,112.5,271.5S790,1346,896,1346s196.5-37.5,271.5-112.5S1280,1068,1280,962z M256,320h384V192H256V320z M128,512h1536
	V256H836l-64,128H128V512z M1792,256v1280c0,35.3-12.5,65.5-37.5,90.5s-55.2,37.5-90.5,37.5H128c-35.3,0-65.5-12.5-90.5-37.5
	S0,1571.3,0,1536V256c0-35.3,12.5-65.5,37.5-90.5S92.7,128,128,128h1536c35.3,0,65.5,12.5,90.5,37.5S1792,220.7,1792,256z"/>
</svg>
