<?xml version="1.0" encoding="utf-8"?>
<!-- Generator: Adobe Illustrator 21.1.0, SVG Export Plug-In . SVG Version: 6.00 Build 0)  -->
<svg version="1.1" id="Layer_1" xmlns="http://www.w3.org/2000/svg" xmlns:xlink="http://www.w3.org/1999/xlink" x="0px" y="0px"
	 viewBox="0 0 1792 1792" style="enable-background:new 0 0 1792 1792;" xml:space="preserve">
<style type="text/css">
	.st0{fill:#D00021;}
</style>
<path class="st0" d="M-137,682h89l-45-108L-137,682z M484,1208l74-79l-70-79H325v49h142v55H325v54H484z M642,1130l99,110v-217
	L642,1130z M930,1083c0-22-13.3-33-40-33h-84v69h83C916.3,1119,930,1107,930,1083z M1219,1079c0-19.3-14-29-42-29h-82v61h81
	C1204.7,1111,1219,1100.3,1219,1079z M941,613c0-19.3-14-29-42-29h-82v60h81C926.7,644,941,633.7,941,613z M1400,682h89l-44-108
	L1400,682z M443,527v271h-66V586l-94,212h-57l-94-212v212H0l-25-60h-135l-25,60h-70l116-271h96L67,784V527h106l85,184l77-184H443z
	 M999,1083c0,13.3-1.8,25-5.5,35s-8.3,18.3-14,25s-13.2,12.2-22.5,16.5s-18,7.7-26,10s-18.5,3.8-31.5,4.5s-23.5,1-31.5,1
	s-18.8-0.2-32.5-0.5S812,1174,806,1174v91H680l-80-90l-83,90H261V994h260l80,89l82-89h207C962.7,994,999,1023.7,999,1083z M708,742
	v56H491V527h217v57H556v49h148v55H556v54H708z M2048,1301v229c0,36.7-12.8,68.2-38.5,94.5s-56.8,39.5-93.5,39.5H-124
	c-36.7,0-67.8-13.2-93.5-39.5s-38.5-57.8-38.5-94.5V852h111l25-61h55l25,61h218v-46l19,46h113l20-47v47h541v-99l10-1
	c6.7,0,10,4.7,10,14v86h279v-23c15.3,8,33.7,14,55,18s38.8,6.2,52.5,6.5s34.7,0.2,63-0.5s45.5-1,51.5-1l25-61h56l25,61h227v-58
	l34,58h182V474h-180v44l-25-44h-185v44l-23-44h-249c-46,0-82.3,7.3-109,22v-22H998v22c-16-14.7-40.3-22-73-22H297l-43,97l-43-97H13
	v44l-22-44h-169l-78,179V262c0-36.7,12.8-68.2,38.5-94.5S-160.7,128-124,128h2040c36.7,0,67.8,13.2,93.5,39.5s38.5,57.8,38.5,94.5
	v678h-120c-34,0-61,7.3-81,22v-22h-177c-36.7,0-62.7,7.3-78,22v-22h-316v22c-20.7-14.7-49.7-22-87-22H980v22
	c-15.3-14.7-45.7-22-91-22H655l-54,58l-50-58H202v378h343l55-59l52,59h211v-89h21c39.3,0,69.3-4.3,90-13v102h174v-99h8
	c5.3,0,8.7,0.7,10,2s2,4.7,2,10v87h529c38,0,67.3-8,88-24v24h168C1993,1318,2024.7,1312.3,2048,1301z M1290,1067
	c0,15.3-4,29.7-12,43s-19.3,23-34,29c16.7,6,28,14.7,34,26s9,26.7,9,46v54h-65v-45c0-22-4-36.5-12-43.5s-23.3-10.5-46-10.5h-69v99
	h-65V994h154c32,0,57.7,5,77,15S1290,1038.3,1290,1067z M1013,600c0,16-4.2,30.7-12.5,44S981,667,967,673
	c17.3,6,28.8,14.5,34.5,25.5s8.5,26.5,8.5,46.5v53h-65c0-6,0.2-14.8,0.5-26.5s0.3-20,0-25s-1.3-11.2-3-18.5s-4.5-12.7-8.5-16
	s-9.8-6.2-17.5-8.5S899,700,887,700h-70v98h-64V527l153,1c32.7,0,58.7,4.8,78,14.5S1013,571.3,1013,600z M1542,1209v56h-216V994h216
	v56h-151v49h148v55h-148v54L1542,1209z M1116,527v271h-66V527H1116z M1809,1179c0,57.3-34,86-102,86h-126v-58h126
	c22.7,0,34-8.3,34-25c0-10.7-5.7-17.7-17-21s-25.2-5-41.5-5s-32.8-1.2-49.5-3.5s-30.7-9.8-42-22.5s-17-31-17-55c0-26,8.7-46,26-60
	s39.3-21,66-21h130v57h-119c-24,0-36,8.3-36,25c0,10.7,5.8,17.5,17.5,20.5s25.7,4.3,42,4s32.7,0.5,49,2.5s30.3,9.2,42,21.5
	S1809,1155,1809,1179z M2048,1129v101c-16,23.3-45.3,35-88,35h-125v-58h125c22,0,33-8.3,33-25c0-8.7-4.2-15-12.5-19
	s-18.7-5.8-31-5.5s-25.7-0.3-40-2s-27.7-4.3-40-8s-22.7-11.7-31-24S1826,1095,1826,1075c0-26,8.8-46,26.5-60s39.8-21,66.5-21h129v57
	h-118c-24,0-36,8.3-36,25c0,13.3,9.7,20.7,29,22s42.2,3,68.5,5S2036.7,1113.7,2048,1129z M1883,528v270h-92l-122-203v203h-132
	l-26-60h-134l-25,60h-75c-86,0-129-44.3-129-133c0-92,44.3-138,133-138h63v59c-4.7,0-14-0.3-28-1s-23.5-0.8-28.5-0.5s-12.7,1-23,2
	s-17.5,3.2-21.5,6.5s-8.8,7.8-14.5,13.5s-9.5,13.3-11.5,23s-3,20.8-3,33.5c0,25.3,4.5,44.7,13.5,58s25.5,20,49.5,20h29l92-213h97
	l109,256V528h99l114,188V528H1883z"/>
</svg>
