<?xml version="1.0" encoding="utf-8"?>
<!-- Generator: Adobe Illustrator 21.1.0, SVG Export Plug-In . SVG Version: 6.00 Build 0)  -->
<svg version="1.1" id="Layer_1" xmlns="http://www.w3.org/2000/svg" xmlns:xlink="http://www.w3.org/1999/xlink" x="0px" y="0px"
	 viewBox="0 0 1792 1792" style="enable-background:new 0 0 1792 1792;" xml:space="preserve">
<style type="text/css">
	.st0{fill:#D00021;}
</style>
<path class="st0" d="M57,777c0,34-12,62-36,84c-19.3,17.3-49,26-89,26h-17V667h17c40.7,0,70.3,9,89,27C45,714.7,57,742.3,57,777z
	 M1833,712c0,34.7-21.3,52-64,52h-19V663h20C1812,663,1833,679.3,1833,712z M124,777c0-49.3-16.7-89.5-50-120.5S-2.3,610-55,610h-95
	v333h95c49.3,0,89-12.7,119-38C104,871,124,828.3,124,777z M154,943h65V610h-65V943z M474,842c0-26.7-6.8-47.3-20.5-62
	s-38.8-28.7-75.5-42c-19.3-6.7-32.5-13-39.5-19S328,705.3,328,696c0-10.7,4.5-19.5,13.5-26.5S362,659,376,659c19.3,0,37,9,53,27
	l34-44c-27.3-24.7-60-37-98-37c-29.3,0-54,9.2-74,27.5s-30,40.8-30,67.5c0,23.3,6,41.8,18,55.5s33.3,25.8,64,36.5
	c24.7,8.7,39.7,15,45,19c12.7,8,19,19.3,19,34c0,13.3-4.7,24.5-14,33.5S371.7,892,357,892c-32,0-55.7-14.7-71-44l-42,40
	c29.3,42.7,67.7,64,115,64c34,0,61.7-10.2,83-30.5S474,874.7,474,842z M752,932v-77c-24.7,24.7-50.7,37-78,37
	c-32.7,0-59.5-10.8-80.5-32.5S562,810.3,562,777c0-32,10.5-59.2,31.5-81.5S640.3,662,671,662c28.7,0,55.7,12.7,81,38v-77
	c-26.7-13.3-53.3-20-80-20c-49.3,0-91.2,16.8-125.5,50.5S495,728.3,495,777s17,89.8,51,123.5S621.7,951,671,951
	C699,951,726,944.7,752,932z M1984,1536v-527c-43.3,26.7-91.5,54.7-144.5,84s-132.2,68.3-237.5,117s-215.2,94.5-329.5,137.5
	S1019,1435.3,855,1482s-332,86-504,118h1569c17.3,0,32.3-6.3,45-19S1984,1553.3,1984,1536z M1133,779c0-50-17.7-92.7-53-128
	s-78-53-128-53s-92.7,17.7-128,53s-53,78-53,128s17.7,92.7,53,128s78,53,128,53s92.7-17.7,128-53S1133,829,1133,779z M1285,952
	l144-342h-71l-90,224l-89-224h-71l142,342H1285z M1458,943h184v-56h-119v-90h115v-56h-115v-74h119v-57h-184V943z M1849,943h80
	l-105-140c50.7-10.7,76-42,76-94c0-31.3-10.3-55.7-31-73s-49.7-26-87-26h-97v333h65V810h9L1849,943z M2048,262v1268
	c0,37.3-12.8,69-38.5,95s-56.8,39-93.5,39H-124c-36.7,0-67.8-13-93.5-39s-38.5-57.7-38.5-95V262c0-37.3,12.8-69,38.5-95
	s56.8-39,93.5-39h2040c36.7,0,67.8,13,93.5,39S2048,224.7,2048,262z"/>
</svg>
