<?xml version="1.0" encoding="utf-8"?>
<!-- Generator: Adobe Illustrator 21.1.0, SVG Export Plug-In . SVG Version: 6.00 Build 0)  -->
<svg version="1.1" id="Layer_1" xmlns="http://www.w3.org/2000/svg" xmlns:xlink="http://www.w3.org/1999/xlink" x="0px" y="0px"
	 viewBox="0 0 1792 1792" style="enable-background:new 0 0 1792 1792;" xml:space="preserve">
<style type="text/css">
	.st0{fill:#D00021;}
</style>
<path class="st0" d="M1719,990h-138c9.3-24.7,31.3-84.3,66-179l3-9c2.7-6.7,6-15.3,10-26s7-19.3,9-26l12,55L1719,990z M275,925
	l-58-295c-7.3-36-32.3-54-75-54h-268l-2,13C79.3,641.7,213.7,753.7,275,925z M454,576l-162,438l-17-89
	c-17.3-46.7-45.7-89.8-85-129.5S107,726.3,59,707l135,510h175l261-641H454z M593,1218h166l104-642H697L593,1218z M1361,592
	c-46-18-95.7-27-149-27c-82,0-149,19.7-201,59s-78.3,90.3-79,153c-0.7,68,47.7,126,145,174c32,15.3,54.3,29,67,41s19,25,19,39
	c0,20-10,35.3-30,46s-43,16-69,16c-57.3,0-109.3-11-156-33l-22-11l-23,144c49.3,22.7,111,34,185,34c86.7,0.7,156.2-19,208.5-59
	s79.2-93.3,80.5-160c0-70.7-46.7-128.7-140-174c-32.7-16.7-56.3-30.7-71-42s-22-24-22-38c0-14.7,8.2-27.5,24.5-38.5
	s39.8-16.5,70.5-16.5c46.7-0.7,88,7.3,124,24l15,8L1361,592z M1786,576h-128c-43.3,0-72.3,18-87,54l-246,588h174l35-96h212
	c3.3,14.7,10,46.7,20,96h154L1786,576z M2048,256v1280c0,34.7-12.7,64.7-38,90s-55.3,38-90,38H-128c-34.7,0-64.7-12.7-90-38
	s-38-55.3-38-90V256c0-34.7,12.7-64.7,38-90s55.3-38,90-38h2048c34.7,0,64.7,12.7,90,38S2048,221.3,2048,256z"/>
</svg>
