<?xml version="1.0" encoding="utf-8"?>
<!-- Generator: Adobe Illustrator 21.1.0, SVG Export Plug-In . SVG Version: 6.00 Build 0)  -->
<svg version="1.1" id="Layer_1" xmlns="http://www.w3.org/2000/svg" xmlns:xlink="http://www.w3.org/1999/xlink" x="0px" y="0px"
	 viewBox="0 0 1792 1792" style="enable-background:new 0 0 1792 1792;" xml:space="preserve">
<style type="text/css">
	.st0{fill:#D00021;}
</style>
<path class="st0" d="M503,1271l-256,256c-6.7,6-14.3,9-23,9c-8,0-15.7-3-23-9c-6-6.7-9-14.3-9-23s3-16.3,9-23l256-256
	c6.7-6,14.3-9,23-9s16.3,3,23,9c6,6.7,9,14.3,9,23S509,1264.3,503,1271z M672,1312v320c0,9.3-3,17-9,23s-13.7,9-23,9s-17-3-23-9
	s-9-13.7-9-23v-320c0-9.3,3-17,9-23s13.7-9,23-9s17,3,23,9S672,1302.7,672,1312z M448,1088c0,9.3-3,17-9,23s-13.7,9-23,9H96
	c-9.3,0-17-3-23-9s-9-13.7-9-23s3-17,9-23s13.7-9,23-9h320c9.3,0,17,3,23,9S448,1078.7,448,1088z M1712,1216c0,80-28.3,147.7-85,203
	l-147,146c-55.3,55.3-123,83-203,83c-80.7,0-148.7-28.3-204-85l-334-335c-14-14-28-32.7-42-56l239-18l273,274
	c18,18,40.7,27.2,68,27.5s50-8.5,68-26.5l147-146c18.7-18.7,28-41,28-67c0-26.7-9.3-49.3-28-68l-274-275l18-239c23.3,14,42,28,56,42
	l336,336C1684,1069.3,1712,1137.3,1712,1216z M1095,492l-239,18L583,236c-18.7-18.7-41.3-28-68-28c-26,0-48.7,9-68,27L300,381
	c-18.7,18.7-28,41-28,67c0,26.7,9.3,49.3,28,68l274,274l-18,240c-23.3-14-42-28-56-42L164,652c-56-57.3-84-125.3-84-204
	c0-80,28.3-147.7,85-203L312,99c55.3-55.3,123-83,203-83c80.7,0,148.7,28.3,204,85l334,335C1067,450,1081,468.7,1095,492z M1728,576
	c0,9.3-3,17-9,23s-13.7,9-23,9h-320c-9.3,0-17-3-23-9s-9-13.7-9-23s3-17,9-23s13.7-9,23-9h320c9.3,0,17,3,23,9S1728,566.7,1728,576z
	 M1184,32v320c0,9.3-3,17-9,23s-13.7,9-23,9s-17-3-23-9s-9-13.7-9-23V32c0-9.3,3-17,9-23s13.7-9,23-9s17,3,23,9S1184,22.7,1184,32z
	 M1591,183l-256,256c-7.3,6-15,9-23,9s-15.7-3-23-9c-6-6.7-9-14.3-9-23s3-16.3,9-23l256-256c6.7-6,14.3-9,23-9s16.3,3,23,9
	c6,6.7,9,14.3,9,23S1597,176.3,1591,183z"/>
</svg>
