<?xml version="1.0" encoding="utf-8"?>
<!-- Generator: Adobe Illustrator 21.1.0, SVG Export Plug-In . SVG Version: 6.00 Build 0)  -->
<svg version="1.1" id="Layer_1" xmlns="http://www.w3.org/2000/svg" xmlns:xlink="http://www.w3.org/1999/xlink" x="0px" y="0px"
	 viewBox="0 0 1792 1792" style="enable-background:new 0 0 1792 1792;" xml:space="preserve">
<style type="text/css">
	.st0{fill:#D00021;}
</style>
<path class="st0" d="M1444,548l-292,292v824c0,30.7-11,57-33,79s-48.3,33-79,33c-30.7,0-57-11-79-33s-33-48.3-33-79v-384h-64v384
	c0,30.7-11,57-33,79s-48.3,33-79,33s-57-11-79-33s-33-48.3-33-79V840L348,548c-18.7-18.7-28-41.3-28-68s9.3-49.3,28-68
	s41.3-28,68-28s49.3,9.3,68,28l228,228h368l228-228c18.7-18.7,41.3-28,68-28s49.3,9.3,68,28s28,41.3,28,68S1462.7,529.3,1444,548z
	 M1120,384c0,62-21.8,114.8-65.5,158.5C1010.8,586.2,958,608,896,608s-114.8-21.8-158.5-65.5S672,446,672,384s21.8-114.8,65.5-158.5
	S834,160,896,160s114.8,21.8,158.5,65.5C1098.2,269.2,1120,322,1120,384z"/>
</svg>
