<?xml version="1.0" encoding="utf-8"?>
<!-- Generator: Adobe Illustrator 21.1.0, SVG Export Plug-In . SVG Version: 6.00 Build 0)  -->
<svg version="1.1" id="Layer_1" xmlns="http://www.w3.org/2000/svg" xmlns:xlink="http://www.w3.org/1999/xlink" x="0px" y="0px"
	 viewBox="0 0 1792 1792" style="enable-background:new 0 0 1792 1792;" xml:space="preserve">
<style type="text/css">
	.st0{fill:#D00021;}
</style>
<path class="st0" d="M553,1399l-50,50c-6.7,6.7-14.3,10-23,10s-16.3-3.3-23-10L-9,983c-6.7-6.7-10-14.3-10-23s3.3-16.3,10-23
	l466-466c6.7-6.7,14.3-10,23-10s16.3,3.3,23,10l50,50c6.7,6.7,10,14.3,10,23s-3.3,16.3-10,23L160,960l393,393c6.7,6.7,10,14.3,10,23
	S559.7,1392.3,553,1399z M1144,332L771,1623c-2.7,8.7-7.8,15.2-15.5,19.5s-15.5,5.2-23.5,2.5l-62-17c-8.7-2.7-15.2-7.8-19.5-15.5
	s-5.2-15.8-2.5-24.5l373-1291c2.7-8.7,7.8-15.2,15.5-19.5s15.5-5.2,23.5-2.5l62,17c8.7,2.7,15.2,7.8,19.5,15.5
	S1146.7,323.3,1144,332z M1801,983l-466,466c-6.7,6.7-14.3,10-23,10s-16.3-3.3-23-10l-50-50c-6.7-6.7-10-14.3-10-23s3.3-16.3,10-23
	l393-393l-393-393c-6.7-6.7-10-14.3-10-23s3.3-16.3,10-23l50-50c6.7-6.7,14.3-10,23-10s16.3,3.3,23,10l466,466
	c6.7,6.7,10,14.3,10,23S1807.7,976.3,1801,983z"/>
</svg>
