<?xml version="1.0" encoding="utf-8"?>
<!-- Generator: Adobe Illustrator 21.1.0, SVG Export Plug-In . SVG Version: 6.00 Build 0)  -->
<svg version="1.1" id="Layer_1" xmlns="http://www.w3.org/2000/svg" xmlns:xlink="http://www.w3.org/1999/xlink" x="0px" y="0px"
	 viewBox="0 0 1792 1792" style="enable-background:new 0 0 1792 1792;" xml:space="preserve">
<style type="text/css">
	.st0{fill:#D00021;}
</style>
<path class="st0" d="M1600,640c0-53.3-18.7-98.7-56-136s-82.7-56-136-56h-64v384h64c53.3,0,98.7-18.7,136-56S1600,693.3,1600,640z
	 M-64,1408h1792c0,70.7-25,131-75,181s-110.3,75-181,75H192c-70.7,0-131-25-181-75S-64,1478.7-64,1408z M1792,640
	c0,106-37.5,196.5-112.5,271.5S1514,1024,1408,1024h-64v32c0,61.3-22,114-66,158s-96.7,66-158,66H416c-61.3,0-114-22-158-66
	s-66-96.7-66-158V320c0-17.3,6.3-32.3,19-45s27.7-19,45-19h1152c106,0,196.5,37.5,271.5,112.5S1792,534,1792,640z"/>
</svg>
