<?xml version="1.0" encoding="utf-8"?>
<!-- Generator: Adobe Illustrator 21.1.0, SVG Export Plug-In . SVG Version: 6.00 Build 0)  -->
<svg version="1.1" id="Layer_1" xmlns="http://www.w3.org/2000/svg" xmlns:xlink="http://www.w3.org/1999/xlink" x="0px" y="0px"
	 viewBox="0 0 1792 1792" style="enable-background:new 0 0 1792 1792;" xml:space="preserve">
<style type="text/css">
	.st0{fill:#D00021;}
</style>
<path class="st0" d="M224,1536h608V384H192v1120c0,8.7,3.2,16.2,9.5,22.5S215.3,1536,224,1536z M1600,1504V384H960v1152h608
	c8.7,0,16.2-3.2,22.5-9.5S1600,1512.7,1600,1504z M1728,288v1216c0,44-15.7,81.7-47,113s-69,47-113,47H224c-44,0-81.7-15.7-113-47
	s-47-69-47-113V288c0-44,15.7-81.7,47-113s69-47,113-47h1344c44,0,81.7,15.7,113,47S1728,244,1728,288z"/>
</svg>
