<?xml version="1.0" encoding="utf-8"?>
<!-- Generator: Adobe Illustrator 21.1.0, SVG Export Plug-In . SVG Version: 6.00 Build 0)  -->
<svg version="1.1" id="Layer_1" xmlns="http://www.w3.org/2000/svg" xmlns:xlink="http://www.w3.org/1999/xlink" x="0px" y="0px"
	 viewBox="0 0 1792 1792" style="enable-background:new 0 0 1792 1792;" xml:space="preserve">
<style type="text/css">
	.st0{fill:#D00021;}
</style>
<path class="st0" d="M704,384c-102,0-197.3,17.3-286,52s-159.2,81.7-211.5,141S128,700,128,768c0,54.7,17.7,107.3,53,158
	s85,94.7,149,132l97,56l-35,84c22.7-13.3,43.3-26.3,62-39l44-31l53,10c52,9.3,103,14,153,14c102,0,197.3-17.3,286-52
	s159.2-81.7,211.5-141s78.5-123,78.5-191s-26.2-131.7-78.5-191S1078.7,470.7,990,436S806,384,704,384z M704,256
	c127.3,0,245.2,22.8,353.5,68.5S1251.3,432.3,1314,511s94,164.3,94,257s-31.3,178.3-94,257s-148.2,140.8-256.5,186.5
	S831.3,1280,704,1280c-57.3,0-116-5.3-176-16c-82.7,58.7-175.3,101.3-278,128c-24,6-52.7,11.3-86,16h-3c-7.3,0-14.2-2.7-20.5-8
	s-10.2-12.3-11.5-21c-0.7-2-1-4.2-1-6.5s0.2-4.5,0.5-6.5s1-4,2-6l2.5-5l3.5-5.5l4-5l4.5-5l4-4.5c3.3-4,11-12.3,23-25
	s20.7-22.5,26-29.5s12.8-16.7,22.5-29s18-25.2,25-38.5s13.8-28,20.5-44c-82.7-48-147.7-107-195-177S0,847.3,0,768
	c0-92.7,31.3-178.3,94-257s148.2-140.8,256.5-186.5S576.7,256,704,256z M1526,1425c6.7,16,13.5,30.7,20.5,44s15.3,26.2,25,38.5
	s17.2,22,22.5,29s14,16.8,26,29.5s19.7,21,23,25c0.7,0.7,2,2.2,4,4.5s3.5,4,4.5,5s2.3,2.7,4,5s2.8,4.2,3.5,5.5l2.5,5l2,6l0.5,6.5
	l-1,6.5c-2,9.3-6.3,16.7-13,22s-14,7.7-22,7c-33.3-4.7-62-10-86-16c-102.7-26.7-195.3-69.3-278-128c-60,10.7-118.7,16-176,16
	c-180.7,0-338-44-472-132c38.7,2.7,68,4,88,4c107.3,0,210.3-15,309-45s186.7-73,264-129c83.3-61.3,147.3-132,192-212
	s67-164.7,67-254c0-51.3-7.7-102-23-152c86,47.3,154,106.7,204,178s75,148,75,230c0,80-23.7,154.8-71,224.5S1608.7,1377,1526,1425z"
	/>
</svg>
