<?xml version="1.0" encoding="utf-8"?>
<!-- Generator: Adobe Illustrator 21.1.0, SVG Export Plug-In . SVG Version: 6.00 Build 0)  -->
<svg version="1.1" id="Layer_1" xmlns="http://www.w3.org/2000/svg" xmlns:xlink="http://www.w3.org/1999/xlink" x="0px" y="0px"
	 viewBox="0 0 1792 1792" style="enable-background:new 0 0 1792 1792;" xml:space="preserve">
<style type="text/css">
	.st0{fill:#D00021;}
</style>
<path class="st0" d="M640,896c0-35.3-12.5-65.5-37.5-90.5S547.3,768,512,768s-65.5,12.5-90.5,37.5S384,860.7,384,896
	s12.5,65.5,37.5,90.5s55.2,37.5,90.5,37.5s65.5-12.5,90.5-37.5S640,931.3,640,896z M1024,896c0-35.3-12.5-65.5-37.5-90.5
	S931.3,768,896,768s-65.5,12.5-90.5,37.5S768,860.7,768,896s12.5,65.5,37.5,90.5s55.2,37.5,90.5,37.5s65.5-12.5,90.5-37.5
	S1024,931.3,1024,896z M1408,896c0-35.3-12.5-65.5-37.5-90.5S1315.3,768,1280,768s-65.5,12.5-90.5,37.5S1152,860.7,1152,896
	s12.5,65.5,37.5,90.5s55.2,37.5,90.5,37.5s65.5-12.5,90.5-37.5S1408,931.3,1408,896z M1792,896c0,116-40,223.2-120,321.5
	s-188.7,176-326,233s-287.3,85.5-450,85.5c-73.3,0-143.7-6-211-18c-115.3,115.3-260.3,191.7-435,229c-34.7,6.7-63.3,11-86,13
	c-8,0.7-15.3-1.3-22-6s-11-10.7-13-18c-2.7-10,4-22.3,20-37c3.3-3.3,11.2-10.5,23.5-21.5s20.8-18.8,25.5-23.5s12.5-13.2,23.5-25.5
	s19-22.8,24-31.5s11.8-21,20.5-37s15.3-32,20-48s9.5-35.2,14.5-57.5s9.2-46.5,12.5-72.5c-97.3-60-173.8-132.2-229.5-216.5
	S0,991.3,0,896c0-116,40-223.2,120-321.5s188.7-176,326-233S733.3,256,896,256s312.7,28.5,450,85.5s246,134.7,326,233
	S1792,780,1792,896z"/>
</svg>
