<?xml version="1.0" encoding="utf-8"?>
<!-- Generator: Adobe Illustrator 21.1.0, SVG Export Plug-In . SVG Version: 6.00 Build 0)  -->
<svg version="1.1" id="Layer_1" xmlns="http://www.w3.org/2000/svg" xmlns:xlink="http://www.w3.org/1999/xlink" x="0px" y="0px"
	 viewBox="0 0 1792 1792" style="enable-background:new 0 0 1792 1792;" xml:space="preserve">
<style type="text/css">
	.st0{fill:#D00021;}
</style>
<path class="st0" d="M896,960v448c0,17.3-6.3,32.3-19,45s-27.7,19-45,19s-32.3-6.3-45-19l-144-144l-332,332c-6.7,6.7-14.3,10-23,10
	s-16.3-3.3-23-10l-114-114c-6.7-6.7-10-14.3-10-23s3.3-16.3,10-23l332-332l-144-144c-12.7-12.7-19-27.7-19-45s6.3-32.3,19-45
	s27.7-19,45-19h448c17.3,0,32.3,6.3,45,19S896,942.7,896,960z M1651,288c0,8.7-3.3,16.3-10,23l-332,332l144,144
	c12.7,12.7,19,27.7,19,45s-6.3,32.3-19,45s-27.7,19-45,19H960c-17.3,0-32.3-6.3-45-19s-19-27.7-19-45V384c0-17.3,6.3-32.3,19-45
	s27.7-19,45-19s32.3,6.3,45,19l144,144l332-332c6.7-6.7,14.3-10,23-10s16.3,3.3,23,10l114,114C1647.7,271.7,1651,279.3,1651,288z"/>
</svg>
