<?xml version="1.0" encoding="utf-8"?>
<!-- Generator: Adobe Illustrator 21.1.0, SVG Export Plug-In . SVG Version: 6.00 Build 0)  -->
<svg version="1.1" id="Layer_1" xmlns="http://www.w3.org/2000/svg" xmlns:xlink="http://www.w3.org/1999/xlink" x="0px" y="0px"
	 viewBox="0 0 1792 1792" style="enable-background:new 0 0 1792 1792;" xml:space="preserve">
<style type="text/css">
	.st0{fill:#D00021;}
</style>
<path class="st0" d="M138,128h197c-46.7,42.7-88.7,92.3-126,149c-24,37.3-43.7,75.7-59,115s-25.3,81.2-30,125.5s-7.5,84.3-8.5,120
	s2.5,79.7,10.5,132s15,94.3,21,126s15.3,77.2,28,136.5c2.7,12.7,4.7,22,6,28c34,158.7,61,268.3,81,329c38,114,88.7,205.7,152,275
	H138c-32,0-59.3-11.3-82-34s-34-50-34-82V244c0-32,11.3-59.3,34-82S106,128,138,128z M1346,128h308c32,0,59.3,11.3,82,34
	s34,50,34,82v1304c0,32-11.3,59.3-34,82s-50,34-82,34h-178c141.3-140,206.7-328.3,196-565l-469,101c-1.3,30-5.3,57.3-12,82
	s-17,48.7-31,72s-33.8,43.2-59.5,59.5s-56.8,28.5-93.5,36.5c-82,17.3-148.3,4-199-40c-21.3-18-39-38.3-53-61s-31.2-65.7-51.5-129
	s-41.8-149.3-64.5-258c-23.3-108.7-38.5-196.3-45.5-263s-8.8-113-5.5-139s11-51.7,23-77c13.3-27.3,34.2-51.7,62.5-73
	S736,373.7,776,365c30-8,57.8-10.2,83.5-6.5s48,9.3,67,17s37,19.3,54,35s31.3,31.7,43,48c11.7,16.3,23.2,35.2,34.5,56.5l468-100
	C1480.7,298.3,1420.7,202.7,1346,128z"/>
</svg>
