<?xml version="1.0" encoding="utf-8"?>
<!-- Generator: Adobe Illustrator 21.1.0, SVG Export Plug-In . SVG Version: 6.00 Build 0)  -->
<svg version="1.1" id="Layer_1" xmlns="http://www.w3.org/2000/svg" xmlns:xlink="http://www.w3.org/1999/xlink" x="0px" y="0px"
	 viewBox="0 0 1792 1792" style="enable-background:new 0 0 1792 1792;" xml:space="preserve">
<style type="text/css">
	.st0{fill:#D00021;}
</style>
<path class="st0" d="M605,1233c102,0,187.7-34.7,257-104c9.3-12,10.3-24,3-36l-45-82c-4-8.7-12-14.3-24-17c-10.7-1.3-19.7,2.3-27,11
	l-4,3c-2.7,2.7-6.5,6-11.5,10s-10.8,8.3-17.5,13s-14.5,9.5-23.5,14.5S694,1055,684,1059s-21.2,7.2-33.5,9.5s-24.8,3.5-37.5,3.5
	c-50.7,0-92.3-16.7-125-50c-32.7-33.3-49-75.7-49-127c0-50.7,16-92.5,48-125.5S559.7,720,609,720c24.7,0,48.5,4.7,71.5,14
	s39.8,18.7,50.5,28l16,14c7.3,7.3,16,10.7,26,10c10.7-1.3,18.7-6,24-14l53-78c8.7-13.3,8-26.3-2-39c-2-2.7-5.7-6.7-11-12
	s-15.3-13.2-30-23.5s-30.8-19.7-48.5-28S718.3,575.7,691,569s-56-10-86-10c-98.7,0-180.7,32.2-246,96.5S261,800,261,896
	c0,97.3,32.3,177.8,97,241.5S505,1233,605,1233z M1235,1233c102,0,187.7-34.7,257-104c9.3-12,10.7-24,4-36l-45-82
	c-5.3-9.3-13.7-15-25-17c-10.7-1.3-19.7,2.3-27,11l-4,3c-2.7,2.7-6.5,6-11.5,10s-10.8,8.3-17.5,13s-14.5,9.5-23.5,14.5
	s-18.5,9.5-28.5,13.5s-21.2,7.2-33.5,9.5s-24.8,3.5-37.5,3.5c-50.7,0-92.3-16.7-125-50c-32.7-33.3-49-75.7-49-127
	c0-50.7,16-92.5,48-125.5s72.7-49.5,122-49.5c24.7,0,48.5,4.7,71.5,14s39.8,18.7,50.5,28l16,14c7.3,7.3,16,10.7,26,10
	c10.7-1.3,18.7-6,24-14l53-78c8.7-13.3,8-26.3-2-39c-2-2.7-5.7-6.7-11-12s-15.3-13.2-30-23.5s-30.8-19.7-48.5-28
	s-40.2-15.8-67.5-22.5s-56-10-86-10c-98,0-179.8,32.2-245.5,96.5S891,800,891,896c0,97.3,32.3,177.8,97,241.5S1135,1233,1235,1233z
	 M896,160c-100,0-195.3,19.5-286,58.5s-168.8,91.3-234.5,157s-118,143.8-157,234.5S160,796,160,896s19.5,195.3,58.5,286
	s91.3,168.8,157,234.5s143.8,118,234.5,157s186,58.5,286,58.5s195.3-19.5,286-58.5s168.8-91.3,234.5-157s118-143.8,157-234.5
	s58.5-186,58.5-286s-19.5-195.3-58.5-286s-91.3-168.8-157-234.5s-143.8-118-234.5-157S996,160,896,160z M896,0
	c121.3,0,237.3,23.7,348,71s206,111,286,191s143.7,175.3,191,286s71,226.7,71,348s-23.7,237.3-71,348s-111,206-191,286
	s-175.3,143.7-286,191s-226.7,71-348,71s-237.3-23.7-348-71s-206-111-286-191s-143.7-175.3-191-286S0,1017.3,0,896
	s23.7-237.3,71-348s111-206,191-286S437.3,118.3,548,71S774.7,0,896,0z"/>
</svg>
