<?xml version="1.0" encoding="utf-8"?>
<!-- Generator: Adobe Illustrator 21.1.0, SVG Export Plug-In . SVG Version: 6.00 Build 0)  -->
<svg version="1.1" id="Layer_1" xmlns="http://www.w3.org/2000/svg" xmlns:xlink="http://www.w3.org/1999/xlink" x="0px" y="0px"
	 viewBox="0 0 1792 1792" style="enable-background:new 0 0 1792 1792;" xml:space="preserve">
<style type="text/css">
	.st0{fill:#D00021;}
</style>
<path class="st0" d="M-256,1504V896h2304v608c0,44-15.7,81.7-47,113s-69,47-113,47H-96c-44,0-81.7-15.7-113-47S-256,1548-256,1504z
	 M384,1280v128h384v-128H384z M0,1280v128h256v-128H0z M1888,128c44,0,81.7,15.7,113,47s47,69,47,113v224H-256V288
	c0-44,15.7-81.7,47-113s69-47,113-47H1888z"/>
</svg>
