<?xml version="1.0" encoding="utf-8"?>
<!-- Generator: Adobe Illustrator 21.1.0, SVG Export Plug-In . SVG Version: 6.00 Build 0)  -->
<svg version="1.1" id="Layer_1" xmlns="http://www.w3.org/2000/svg" xmlns:xlink="http://www.w3.org/1999/xlink" x="0px" y="0px"
	 viewBox="0 0 1792 1792" style="enable-background:new 0 0 1792 1792;" xml:space="preserve">
<style type="text/css">
	.st0{fill:#D00021;}
</style>
<path class="st0" d="M384,1632l384-192v-314l-384,164V1632z M320,1178l404-173L320,832l-404,173L320,1178z M1408,1632l384-192v-314
	l-384,164V1632z M1344,1178l404-173l-404-173l-404,173L1344,1178z M896,885l384-165V454L896,618V885z M832,506l441-189L832,128
	L391,317L832,506z M1920,1024v416c0,24-6.3,46.3-19,67s-30,36.3-52,47l-448,224c-16.7,9.3-35.7,14-57,14s-40.3-4.7-57-14l-448-224
	c-3.3-1.3-5.7-2.7-7-4c-1.3,1.3-3.7,2.7-7,4l-448,224c-16.7,9.3-35.7,14-57,14s-40.3-4.7-57-14l-448-224c-22-10.7-39.3-26.3-52-47
	s-19-43-19-67v-416c0-25.3,7.2-48.7,21.5-70s33.2-37.3,56.5-48l434-186V320c0-25.3,7.2-48.7,21.5-70s33.2-37.3,56.5-48L782,10
	c15.3-6.7,32-10,50-10s34.7,3.3,50,10l448,192c23.3,10.7,42.2,26.7,56.5,48s21.5,44.7,21.5,70v400l434,186c24,10.7,43,26.7,57,48
	S1920,998.7,1920,1024z"/>
</svg>
