<?xml version="1.0" encoding="utf-8"?>
<!-- Generator: Adobe Illustrator 21.1.0, SVG Export Plug-In . SVG Version: 6.00 Build 0)  -->
<svg version="1.1" id="Layer_1" xmlns="http://www.w3.org/2000/svg" xmlns:xlink="http://www.w3.org/1999/xlink" x="0px" y="0px"
	 viewBox="0 0 1792 1792" style="enable-background:new 0 0 1792 1792;" xml:space="preserve">
<style type="text/css">
	.st0{fill:#D00021;}
</style>
<path class="st0" d="M84,768l623,665L407,768H84z M896,1540l349-772H547L896,1540z M410,640l204-384H352L64,640H410z M1085,1433
	l623-665h-323L1085,1433z M555,640h682l-204-384H759L555,640z M1382,640h346l-288-384h-262L1382,640z M1523,154l384,512
	c9.3,12,13.7,25.8,13,41.5s-6.3,29.2-17,40.5L943,1772c-12,13.3-27.7,20-47,20s-35-6.7-47-20L-111,748c-10.7-11.3-16.3-24.8-17-40.5
	s3.7-29.5,13-41.5l384-512c12-17.3,29-26,51-26h1152C1494,128,1511,136.7,1523,154z"/>
</svg>
