<?xml version="1.0" encoding="utf-8"?>
<!-- Generator: Adobe Illustrator 21.1.0, SVG Export Plug-In . SVG Version: 6.00 Build 0)  -->
<svg version="1.1" id="Layer_1" xmlns="http://www.w3.org/2000/svg" xmlns:xlink="http://www.w3.org/1999/xlink" x="0px" y="0px"
	 viewBox="0 0 1792 1792" style="enable-background:new 0 0 1792 1792;" xml:space="preserve">
<style type="text/css">
	.st0{fill:#D00021;}
</style>
<path class="st0" d="M402,707l494,305l-342,285L64,978L402,707z M1388,1262v108l-490,293v1l-1-1l-1,1v-1l-489-293v-108l147,96
	l342-284v-2l1,1l1-1v2l343,284L1388,1262z M554,118l342,285L402,707L64,437L554,118z M1390,707l338,271l-489,319l-343-285L1390,707z
	 M1239,118l489,319l-338,270L896,403L1239,118z"/>
</svg>
