<?xml version="1.0" encoding="utf-8"?>
<!-- Generator: Adobe Illustrator 21.1.0, SVG Export Plug-In . SVG Version: 6.00 Build 0)  -->
<svg version="1.1" id="Layer_1" xmlns="http://www.w3.org/2000/svg" xmlns:xlink="http://www.w3.org/1999/xlink" x="0px" y="0px"
	 viewBox="0 0 1792 1792" style="enable-background:new 0 0 1792 1792;" xml:space="preserve">
<style type="text/css">
	.st0{fill:#D00021;}
</style>
<path class="st0" d="M1376,128c79.3,0,147.2,28.2,203.5,84.5S1664,336.7,1664,416v960c0,79.3-28.2,147.2-84.5,203.5
	S1455.3,1664,1376,1664H416c-79.3,0-147.2-28.2-203.5-84.5S128,1455.3,128,1376V416c0-79.3,28.2-147.2,84.5-203.5S336.7,128,416,128
	H1376z M1408,1184V748c-20.7,23.3-42,41.7-64,55c-22.7,14.7-66.8,43-132.5,85s-116.2,75-151.5,99c-65.3,46-120,69-164,69
	s-98.7-23-164-69c-30.7-21.3-77.8-52.2-141.5-92.5S479.3,823.3,448,802c-8-5.3-19-14.3-33-27s-24.3-21.7-31-27v436
	c0,26.7,9.3,49.3,28,68s41.3,28,68,28h832c26.7,0,49.3-9.3,68-28S1408,1210.7,1408,1184z M1408,611c0-27.3-9.2-50.7-27.5-70
	s-41.2-29-68.5-29H480c-26.7,0-49.3,9.3-68,28s-28,41.3-28,68c0,24.7,10.2,50.2,30.5,76.5s42.8,47.8,67.5,64.5
	c31.3,21.3,77.2,51,137.5,89S723,903.7,749,921c2,1.3,7.7,5.2,17,11.5s16.3,11,21,14s11.7,7.3,21,13s17.2,10,23.5,13
	s13.5,6.2,21.5,9.5s15.5,5.8,22.5,7.5s13.8,2.5,20.5,2.5s13.5-0.8,20.5-2.5s14.5-4.2,22.5-7.5s15.2-6.5,21.5-9.5s14.2-7.3,23.5-13
	s16.3-10,21-13s11.7-7.7,21-14c9.3-6.3,15-10.2,17-11.5l267-174c23.3-15.3,45.5-36.2,66.5-62.5S1408,633.7,1408,611z"/>
</svg>
