<?xml version="1.0" encoding="utf-8"?>
<!-- Generator: Adobe Illustrator 21.1.0, SVG Export Plug-In . SVG Version: 6.00 Build 0)  -->
<svg version="1.1" id="Layer_1" xmlns="http://www.w3.org/2000/svg" xmlns:xlink="http://www.w3.org/1999/xlink" x="0px" y="0px"
	 viewBox="0 0 1792 1792" style="enable-background:new 0 0 1792 1792;" xml:space="preserve">
<style type="text/css">
	.st0{fill:#D00021;}
</style>
<path class="st0" d="M883,1056c0,8.7-3.3,16.3-10,23l-332,332l144,144c12.7,12.7,19,27.7,19,45s-6.3,32.3-19,45s-27.7,19-45,19H192
	c-17.3,0-32.3-6.3-45-19s-19-27.7-19-45v-448c0-17.3,6.3-32.3,19-45s27.7-19,45-19s32.3,6.3,45,19l144,144l332-332
	c6.7-6.7,14.3-10,23-10s16.3,3.3,23,10l114,114C879.7,1039.7,883,1047.3,883,1056z M1664,192v448c0,17.3-6.3,32.3-19,45
	s-27.7,19-45,19s-32.3-6.3-45-19l-144-144l-332,332c-6.7,6.7-14.3,10-23,10s-16.3-3.3-23-10L919,759c-6.7-6.7-10-14.3-10-23
	s3.3-16.3,10-23l332-332l-144-144c-12.7-12.7-19-27.7-19-45s6.3-32.3,19-45s27.7-19,45-19h448c17.3,0,32.3,6.3,45,19
	S1664,174.7,1664,192z"/>
</svg>
