<?xml version="1.0" encoding="utf-8"?>
<!-- Generator: Adobe Illustrator 21.1.0, SVG Export Plug-In . SVG Version: 6.00 Build 0)  -->
<svg version="1.1" id="Layer_1" xmlns="http://www.w3.org/2000/svg" xmlns:xlink="http://www.w3.org/1999/xlink" x="0px" y="0px"
	 viewBox="0 0 1792 1792" style="enable-background:new 0 0 1792 1792;" xml:space="preserve">
<style type="text/css">
	.st0{fill:#D00021;}
</style>
<path class="st0" d="M896,64c-112.7,0-220.3,22-323,66S381.8,233.2,307.5,307.5S174,470.3,130,573S64,783.3,64,896s22,220.3,66,323
	s103.2,191.2,177.5,265.5S470.3,1618,573,1662s210.3,66,323,66s220.3-22,323-66s191.2-103.2,265.5-177.5S1618,1321.7,1662,1219
	s66-210.3,66-323s-22-220.3-66-323s-103.2-191.2-177.5-265.5S1321.7,174,1219,130S1008.7,64,896,64z M896,0
	c121.3,0,237.3,23.7,348,71s206,111,286,191s143.7,175.3,191,286s71,226.7,71,348s-23.7,237.3-71,348s-111,206-191,286
	s-175.3,143.7-286,191s-226.7,71-348,71s-237.3-23.7-348-71s-206-111-286-191s-143.7-175.3-191-286S0,1017.3,0,896
	s23.7-237.3,71-348s111-206,191-286S437.3,118.3,548,71S774.7,0,896,0z M496,832c10.7,0,16,5.3,16,16v480c0,10.7-5.3,16-16,16h-32
	c-10.7,0-16-5.3-16-16V848c0-10.7,5.3-16,16-16H496z M896,896c35.3,0,65.5,12.5,90.5,37.5s37.5,55.2,37.5,90.5
	c0,23.3-5.8,44.7-17.5,64s-27.2,34.7-46.5,46v114c0,9.3-3,17-9,23s-13.7,9-23,9h-64c-9.3,0-17-3-23-9s-9-13.7-9-23v-114
	c-19.3-11.3-34.8-26.7-46.5-46s-17.5-40.7-17.5-64c0-35.3,12.5-65.5,37.5-90.5S860.7,896,896,896z M896,128
	c139.3,0,267.8,34.3,385.5,103s210.8,161.8,279.5,279.5s103,246.2,103,385.5s-34.3,267.8-103,385.5s-161.8,210.8-279.5,279.5
	s-246.2,103-385.5,103s-267.8-34.3-385.5-103S299.7,1399.2,231,1281.5S128,1035.3,128,896s34.3-267.8,103-385.5
	S392.8,299.7,510.5,231S756.7,128,896,128z M544,608v96c0,9.3,3,17,9,23s13.7,9,23,9h64c9.3,0,17-3,23-9s9-13.7,9-23v-96
	c0-62,21.8-114.8,65.5-158.5S834,384,896,384s114.8,21.8,158.5,65.5c43.7,43.7,65.5,96.5,65.5,158.5v96c0,9.3,3,17,9,23s13.7,9,23,9
	h64c9.3,0,17-3,23-9s9-13.7,9-23v-96c0-97.3-34.3-180.3-103-249S993.3,256,896,256s-180.3,34.3-249,103S544,510.7,544,608z
	 M1408,1344V832c0-17.3-6.3-32.3-19-45s-27.7-19-45-19H448c-17.3,0-32.3,6.3-45,19s-19,27.7-19,45v512c0,17.3,6.3,32.3,19,45
	s27.7,19,45,19h896c17.3,0,32.3-6.3,45-19S1408,1361.3,1408,1344z"/>
</svg>
