<?xml version="1.0" encoding="utf-8"?>
<!-- Generator: Adobe Illustrator 21.1.0, SVG Export Plug-In . SVG Version: 6.00 Build 0)  -->
<svg version="1.1" id="Layer_1" xmlns="http://www.w3.org/2000/svg" xmlns:xlink="http://www.w3.org/1999/xlink" x="0px" y="0px"
	 viewBox="0 0 1792 1792" style="enable-background:new 0 0 1792 1792;" xml:space="preserve">
<style type="text/css">
	.st0{fill:#D00021;}
</style>
<path class="st0" d="M288,384c44,0,81.7,15.7,113,47s47,69,47,113v1088c0,44-15.7,81.7-47,113s-69,47-113,47H160
	c-44,0-81.7-15.7-113-47s-47-69-47-113V544c0-44,15.7-81.7,47-113s69-47,113-47H288z M1664,547c38.7,22.7,69.7,53.7,93,93
	s35,82,35,128v768c0,70.7-25,131-75,181s-110.3,75-181,75H672c-44,0-81.7-15.7-113-47s-47-69-47-113V96c0-26.7,9.3-49.3,28-68
	s41.3-28,68-28h672c26.7,0,56,6.7,88,20s57.3,29.3,76,48l152,152c18.7,18.7,34.7,44,48,76s20,61.3,20,88V547z M928,1536v-128
	c0-9.3-3-17-9-23s-13.7-9-23-9H768c-9.3,0-17,3-23,9s-9,13.7-9,23v128c0,9.3,3,17,9,23s13.7,9,23,9h128c9.3,0,17-3,23-9
	S928,1545.3,928,1536z M928,1280v-128c0-9.3-3-17-9-23s-13.7-9-23-9H768c-9.3,0-17,3-23,9s-9,13.7-9,23v128c0,9.3,3,17,9,23
	s13.7,9,23,9h128c9.3,0,17-3,23-9S928,1289.3,928,1280z M928,1024V896c0-9.3-3-17-9-23s-13.7-9-23-9H768c-9.3,0-17,3-23,9
	s-9,13.7-9,23v128c0,9.3,3,17,9,23s13.7,9,23,9h128c9.3,0,17-3,23-9S928,1033.3,928,1024z M1184,1536v-128c0-9.3-3-17-9-23
	s-13.7-9-23-9h-128c-9.3,0-17,3-23,9s-9,13.7-9,23v128c0,9.3,3,17,9,23s13.7,9,23,9h128c9.3,0,17-3,23-9S1184,1545.3,1184,1536z
	 M1184,1280v-128c0-9.3-3-17-9-23s-13.7-9-23-9h-128c-9.3,0-17,3-23,9s-9,13.7-9,23v128c0,9.3,3,17,9,23s13.7,9,23,9h128
	c9.3,0,17-3,23-9S1184,1289.3,1184,1280z M1184,1024V896c0-9.3-3-17-9-23s-13.7-9-23-9h-128c-9.3,0-17,3-23,9s-9,13.7-9,23v128
	c0,9.3,3,17,9,23s13.7,9,23,9h128c9.3,0,17-3,23-9S1184,1033.3,1184,1024z M1440,1536v-128c0-9.3-3-17-9-23s-13.7-9-23-9h-128
	c-9.3,0-17,3-23,9s-9,13.7-9,23v128c0,9.3,3,17,9,23s13.7,9,23,9h128c9.3,0,17-3,23-9S1440,1545.3,1440,1536z M1440,1280v-128
	c0-9.3-3-17-9-23s-13.7-9-23-9h-128c-9.3,0-17,3-23,9s-9,13.7-9,23v128c0,9.3,3,17,9,23s13.7,9,23,9h128c9.3,0,17-3,23-9
	S1440,1289.3,1440,1280z M1440,1024V896c0-9.3-3-17-9-23s-13.7-9-23-9h-128c-9.3,0-17,3-23,9s-9,13.7-9,23v128c0,9.3,3,17,9,23
	s13.7,9,23,9h128c9.3,0,17-3,23-9S1440,1033.3,1440,1024z M1536,640V384h-160c-26.7,0-49.3-9.3-68-28s-28-41.3-28-68V128H640v512
	H1536z"/>
</svg>
