<?xml version="1.0" encoding="utf-8"?>
<!-- Generator: Adobe Illustrator 21.1.0, SVG Export Plug-In . SVG Version: 6.00 Build 0)  -->
<svg version="1.1" id="Layer_1" xmlns="http://www.w3.org/2000/svg" xmlns:xlink="http://www.w3.org/1999/xlink" x="0px" y="0px"
	 viewBox="0 0 1792 1792" style="enable-background:new 0 0 1792 1792;" xml:space="preserve">
<style type="text/css">
	.st0{fill:#D00021;}
</style>
<path class="st0" d="M1664,1045V429c-112.7,60.7-214.7,91-306,91c-54.7,0-103-10.7-145-32c-66.7-32.7-128-58.2-184-76.5
	S913.7,384,851,384c-115.3,0-249.7,42.3-403,127v599c163.3-75.3,307.7-113,433-113c36.7,0,71.2,2.5,103.5,7.5s65,13.7,98,26
	c33,12.3,58.7,22.7,77,31s45.8,21.5,82.5,39.5l28,14c29.3,14.7,63,22,101,22C1451,1137,1548.7,1106.3,1664,1045z M320,256
	c0,23.3-5.8,44.7-17.5,64s-27.2,34.7-46.5,46v1266c0,9.3-3,17-9,23s-13.7,9-23,9h-64c-9.3,0-17-3-23-9s-9-13.7-9-23V366
	c-19.3-11.3-34.8-26.7-46.5-46S64,279.3,64,256c0-35.3,12.5-65.5,37.5-90.5S156.7,128,192,128s65.5,12.5,90.5,37.5
	S320,220.7,320,256z M1792,320v763c0,26-11.7,45-35,57c-6.7,3.3-12.3,6.3-17,9c-145.3,77.3-268.3,116-369,116
	c-58.7,0-111.3-11.7-158-35l-28-14c-42.7-22-75.7-38-99-48s-53.7-19.7-91-29c-37.3-9.3-75.3-14-114-14c-68,0-146.5,14.7-235.5,44
	s-165.2,63.3-228.5,102c-10,6-21,9-33,9c-10.7,0-21.3-2.7-32-8c-21.3-12.7-32-31.3-32-56V474c0-23.3,10.3-41.7,31-55
	c23.3-14,49.5-28.2,78.5-42.5s67-31.7,114-52S641.3,287.7,696,275s106.3-19,155-19c74.7,0,144.3,10.3,209,31s134.3,49.3,209,86
	c25.3,12.7,55,19,89,19c81.3,0,184.7-37.3,310-112c14.7-8,25-13.7,31-17c20.7-10.7,41.3-10,62,2C1781.7,278.3,1792,296.7,1792,320z"
	/>
</svg>
