<?xml version="1.0" encoding="utf-8"?>
<!-- Generator: Adobe Illustrator 21.1.0, SVG Export Plug-In . SVG Version: 6.00 Build 0)  -->
<svg version="1.1" id="Layer_1" xmlns="http://www.w3.org/2000/svg" xmlns:xlink="http://www.w3.org/1999/xlink" x="0px" y="0px"
	 viewBox="0 0 1792 1792" style="enable-background:new 0 0 1792 1792;" xml:space="preserve">
<style type="text/css">
	.st0{fill:#D00021;}
</style>
<path class="st0" d="M1376,128c79.3,0,147.2,28.2,203.5,84.5S1664,336.7,1664,416v960c0,79.3-28.2,147.2-84.5,203.5
	S1455.3,1664,1376,1664H416c-79.3,0-147.2-28.2-203.5-84.5S128,1455.3,128,1376V416c0-79.3,28.2-147.2,84.5-203.5S336.7,128,416,128
	H1376z M826,896c0-58.7-20.7-108.7-62-150s-91.3-62-150-62s-108.7,20.7-150,62s-62,91.3-62,150s20.7,108.7,62,150
	c41.3,41.3,91.3,62,150,62s108.7-20.7,150-62C805.3,1004.7,826,954.7,826,896z M1390,896c0-58.7-20.7-108.7-62-150s-91.3-62-150-62
	s-108.7,20.7-150,62c-41.3,41.3-62,91.3-62,150s20.7,108.7,62,150c41.3,41.3,91.3,62,150,62s108.7-20.7,150-62
	C1369.3,1004.7,1390,954.7,1390,896z"/>
</svg>
