<?xml version="1.0" encoding="utf-8"?>
<!-- Generator: Adobe Illustrator 21.1.0, SVG Export Plug-In . SVG Version: 6.00 Build 0)  -->
<svg version="1.1" id="Layer_1" xmlns="http://www.w3.org/2000/svg" xmlns:xlink="http://www.w3.org/1999/xlink" x="0px" y="0px"
	 viewBox="0 0 1792 1792" style="enable-background:new 0 0 1792 1792;" xml:space="preserve">
<style type="text/css">
	.st0{fill:#D00021;}
</style>
<path class="st0" d="M609,816l287-208l287,208l-109,336H719L609,816z M896,0c121.3,0,237.3,23.7,348,71s206,111,286,191
	s143.7,175.3,191,286s71,226.7,71,348s-23.7,237.3-71,348s-111,206-191,286s-175.3,143.7-286,191s-226.7,71-348,71
	s-237.3-23.7-348-71s-206-111-286-191s-143.7-175.3-191-286S0,1017.3,0,896s23.7-237.3,71-348s111-206,191-286S437.3,118.3,548,71
	S774.7,0,896,0z M1515,1350c99.3-135.3,149-286.7,149-454v-3l-102,89l-240-224l63-323l134,12c-100-137.3-229.7-231.3-389-282l53,124
	L896,448L609,289l53-124c-159.3,50.7-289,144.7-389,282l135-12l62,323L230,982l-102-89v3c0,167.3,49.7,318.7,149,454l30-132l326,40
	l139,298l-116,69c78,26,158,39,240,39s162-13,240-39l-116-69l139-298l326-40L1515,1350z"/>
</svg>
