<?xml version="1.0" encoding="utf-8"?>
<!-- Generator: Adobe Illustrator 21.1.0, SVG Export Plug-In . SVG Version: 6.00 Build 0)  -->
<svg version="1.1" id="Layer_1" xmlns="http://www.w3.org/2000/svg" xmlns:xlink="http://www.w3.org/1999/xlink" x="0px" y="0px"
	 viewBox="0 0 1792 1792" style="enable-background:new 0 0 1792 1792;" xml:space="preserve">
<style type="text/css">
	.st0{fill:#D00021;}
</style>
<path class="st0" d="M1280,960c0-123.3-43.8-228.8-131.5-316.5S955.3,512,832,512s-228.8,43.8-316.5,131.5S384,836.7,384,960
	s43.8,228.8,131.5,316.5S708.7,1408,832,1408s228.8-43.8,316.5-131.5S1280,1083.3,1280,960z M1408,960c0,78-15.2,152.5-45.5,223.5
	s-71.3,132.3-123,184s-113,92.7-184,123S910,1536,832,1536s-152.5-15.2-223.5-45.5s-132.3-71.3-184-123s-92.7-113-123-184
	S256,1038,256,960s15.2-152.5,45.5-223.5s71.3-132.3,123-184s113-92.7,184-123S754,384,832,384s152.5,15.2,223.5,45.5
	s132.3,71.3,184,123s92.7,113,123,184S1408,882,1408,960z"/>
</svg>
