<?xml version="1.0" encoding="utf-8"?>
<!-- Generator: Adobe Illustrator 21.1.0, SVG Export Plug-In . SVG Version: 6.00 Build 0)  -->
<svg version="1.1" id="Layer_1" xmlns="http://www.w3.org/2000/svg" xmlns:xlink="http://www.w3.org/1999/xlink" x="0px" y="0px"
	 viewBox="0 0 1792 1792" style="enable-background:new 0 0 1792 1792;" xml:space="preserve">
<style type="text/css">
	.st0{fill:#D00021;}
</style>
<path class="st0" d="M1601,128c43.3,0,80,15.2,110,45.5s45,67.2,45,110.5v519c0,117.3-22.7,229.3-68,336s-106.2,198.3-182.5,275
	s-167.7,137.5-274,182.5S1013.7,1664,897,1664c-117.3,0-229.2-22.5-335.5-67.5S363.7,1490.7,287,1414s-137.7-168.3-183-275
	S36,920.3,36,803V284c0-42.7,15.3-79.3,46-110s67.3-46,110-46H1601z M897,1192c31.3,0,58.7-11,82-33l404-388
	c24.7-23.3,37-51.7,37-85c0-32.7-11.5-60.5-34.5-83.5S1334.7,568,1302,568c-31.3,0-58.7,11-82,33L897,911L574,601
	c-23.3-22-50.3-33-81-33c-32.7,0-60.5,11.5-83.5,34.5S375,653.3,375,686c0,34,12,62.3,36,85l405,388C838,1181,865,1192,897,1192z"/>
</svg>
