<?xml version="1.0" encoding="utf-8"?>
<!-- Generator: Adobe Illustrator 21.1.0, SVG Export Plug-In . SVG Version: 6.00 Build 0)  -->
<svg version="1.1" id="Layer_1" xmlns="http://www.w3.org/2000/svg" xmlns:xlink="http://www.w3.org/1999/xlink" x="0px" y="0px"
	 viewBox="0 0 1792 1792" style="enable-background:new 0 0 1792 1792;" xml:space="preserve">
<style type="text/css">
	.st0{fill:#D00021;}
</style>
<path class="st0" d="M896,786h725c8,44.7,12,87.3,12,128c0,144.7-30.3,273.8-91,387.5S1394.8,1504,1282.5,1568s-241.2,96-386.5,96
	c-104.7,0-204.3-20.2-299-60.5s-176.3-94.8-245-163.5s-123.2-150.3-163.5-245S128,1000.7,128,896s20.2-204.3,60.5-299
	S283.3,420.7,352,352s150.3-123.2,245-163.5S791.3,128,896,128c200,0,371.7,67,515,201l-209,201c-82-79.3-184-119-306-119
	c-86,0-165.5,21.7-238.5,65S526.7,578.2,484,652.5S420,808,420,896s21.3,169.2,64,243.5s100.5,133.2,173.5,176.5s152.5,65,238.5,65
	c58,0,111.3-8,160-24c48.7-16,88.7-36,120-60s58.7-51.3,82-82s40.5-59.7,51.5-87s18.5-53.3,22.5-78H896V786z"/>
</svg>
