<?xml version="1.0" encoding="utf-8"?>
<!-- Generator: Adobe Illustrator 21.1.0, SVG Export Plug-In . SVG Version: 6.00 Build 0)  -->
<svg version="1.1" id="Layer_1" xmlns="http://www.w3.org/2000/svg" xmlns:xlink="http://www.w3.org/1999/xlink" x="0px" y="0px"
	 viewBox="0 0 1792 1792" style="enable-background:new 0 0 1792 1792;" xml:space="preserve">
<style type="text/css">
	.st0{fill:#D00021;}
</style>
<path class="st0" d="M640,128c-35.3,0-65.5,12.5-90.5,37.5S512,220.7,512,256v896L361,950c-27.3-36-63-54-107-54
	c-34.7,0-64.3,12.7-89,38s-37,55.3-37,90c0,28.7,8.7,54.3,26,77l384,512c25.3,34,59.3,51,102,51h718c14.7,0,27.8-4.5,39.5-13.5
	s19.2-20.5,22.5-34.5l92-368c16-64,24-128.7,24-194V837c0-27.3-9.3-51-28-71s-41.3-30-68-30s-49.3,9.3-68,28s-28,41.3-28,68h-32v-61
	c0-32-10.7-59.2-32-81.5s-48-33.5-80-33.5c-30.7,0-57,11-79,33s-33,48.3-33,79v64h-32v-90c0-36.7-12.3-68.2-37-94.5
	c-24.7-26.3-55-39.5-91-39.5c-35.3,0-65.5,12.5-90.5,37.5S800,700.7,800,736v96h-32V262c0-36.7-12.3-68.2-37-94.5S676,128,640,128z
	 M640,0c71.3,0,131.8,25.8,181.5,77.5S896,190.7,896,262v220c14.7-1.3,25.3-2,32-2c66,0,123.7,23,173,69c31.3-14,64.3-21,99-21
	c75.3,0,136.7,29,184,87c18-4.7,36.7-7,56-7c62.7,0,115.7,22.5,159,67.5s65,98.8,65,161.5v217c0,77.3-9.3,152.3-28,225l-92,368
	c-10.7,42.7-33.3,77.5-68,104.5s-74,40.5-118,40.5H640c-40,0-78.2-9.2-114.5-27.5S459,1721.3,435,1690L51,1178
	c-34-45.3-51-96.7-51-154c0-70,24.8-130.2,74.5-180.5S184,768,254,768c47.3,0,90.7,11.7,130,35V256c0-70.7,25-131,75-181
	S569.3,0,640,0z M768,1408v-384h-32v384H768z M1024,1408v-384h-32v384H1024z M1280,1408v-384h-32v384H1280z"/>
</svg>
