<?xml version="1.0" encoding="utf-8"?>
<!-- Generator: Adobe Illustrator 21.1.0, SVG Export Plug-In . SVG Version: 6.00 Build 0)  -->
<svg version="1.1" id="Layer_1" xmlns="http://www.w3.org/2000/svg" xmlns:xlink="http://www.w3.org/1999/xlink" x="0px" y="0px"
	 viewBox="0 0 1792 1792" style="enable-background:new 0 0 1792 1792;" xml:space="preserve">
<style type="text/css">
	.st0{fill:#D00021;}
</style>
<path class="st0" d="M1408,1600c0-17.3-6.3-32.3-19-45s-27.7-19-45-19s-32.3,6.3-45,19s-19,27.7-19,45s6.3,32.3,19,45s27.7,19,45,19
	s32.3-6.3,45-19S1408,1617.3,1408,1600z M1536,836c0-126-55.7-189-167-189c-17.3,0-36,1.7-56,5c-10.7-20-28.2-35.8-52.5-47.5
	S1211.7,587,1187,587s-47.7,6-69,18c-33.3-35.3-73-53-119-53c-16.7,0-35.2,3.3-55.5,10s-36.2,15-47.5,25V256c0-34.7-12.7-64.7-38-90
	s-55.3-38-90-38c-34,0-63.8,13-89.5,39S640,222.7,640,256v576c-13.3,0-29.5-5-48.5-15s-37.3-21-55-33s-40.3-23-68-33
	s-55.8-15-84.5-15c-44.7,0-77.2,14.8-97.5,44.5S256,848.7,256,896c0,16,46.3,46,139,90c29.3,16,51,28.3,65,37
	c42.7,26.7,91,64,145,112c54,47.3,89.3,81,106,101c38,46,57,92.7,57,140v32h640v-32c0-48,10.7-103.7,32-167s42.7-127.8,64-193.5
	S1536,890,1536,836z M1664,831c0,88.7-23,196-69,322c-39.3,109.3-59,183.7-59,223v288c0,35.3-12.5,65.5-37.5,90.5
	s-55.2,37.5-90.5,37.5H768c-35.3,0-65.5-12.5-90.5-37.5S640,1699.3,640,1664v-288c0-6.7-1.5-13.8-4.5-21.5s-7.7-15.5-14-23.5
	s-12.3-15.5-18-22.5s-13.2-15-22.5-24s-16.5-15.8-21.5-20.5s-12.2-11-21.5-19s-15-12.7-17-14c-49.3-43.3-92.3-76.7-129-100
	c-14-8.7-34.7-19.7-62-33s-51.3-25.7-72-37s-41.7-24.8-63-40.5c-21.3-15.7-37.8-34-49.5-55S128,921.3,128,896
	c0-83.3,22.3-152.2,67-206.5S302.7,608,384,608c45.3,0,88,7.3,128,22V256c0-69.3,25.3-129.3,76-180S698.3,0,767,0
	c70,0,130.3,25.2,181,75.5s76,110.5,76,180.5v169c41.3,2.7,81,15,119,37c14-2,28.3-3,43-3c67.3,0,126.7,20,178,60
	c92.7-0.7,165.8,27.7,219.5,85S1664,737,1664,831z"/>
</svg>
