<?xml version="1.0" encoding="utf-8"?>
<!-- Generator: Adobe Illustrator 21.1.0, SVG Export Plug-In . SVG Version: 6.00 Build 0)  -->
<svg version="1.1" id="Layer_1" xmlns="http://www.w3.org/2000/svg" xmlns:xlink="http://www.w3.org/1999/xlink" x="0px" y="0px"
	 viewBox="0 0 1792 1792" style="enable-background:new 0 0 1792 1792;" xml:space="preserve">
<style type="text/css">
	.st0{fill:#D00021;}
</style>
<path class="st0" d="M688,128c-32,0-58.5,11.3-79.5,34S577,212,577,244c0,9.3,1,18.7,3,28l150,624h-26L588,414
	c-6-25.3-19.2-46-39.5-62S505,328,479,328c-31.3,0-57.7,11.3-79,34s-32,49.7-32,81c0,7.3,1.3,17,4,29c2,8.7,15,62.3,39,161
	s46.7,192.7,68,282s32,135.3,32,138v227l-307-230c-22.7-17.3-48.3-26-77-26c-34.7,0-64.5,12.2-89.5,36.5S0,1114.3,0,1149
	c0,44.7,18.7,81.3,56,110l507,379c22.7,17.3,48,26,76,26h694c22,0,41.7-6.8,59-20.5s28.7-31.2,34-52.5l100-401
	c5.3-20,8.7-49.3,10-88s4.3-67.3,9-86l116-478c2-8,3-16.7,3-26c0-30.7-11-57-33-79s-48.7-33-80-33c-25.3,0-48.3,8.5-69,25.5
	s-34,37.8-40,62.5l-99,408h-26l132-547c2-9.3,3-18.7,3-28c0-31.3-10.7-58-32-80s-48-33-80-33c-25.3,0-48.2,8-68.5,24
	s-33.5,36.7-39.5,62l-145,602H960L796,214c-6-25.3-19.2-46-39.5-62S713.3,128,688,128z M1333,1792H639c-56.7,0-107.7-17-153-51
	l-507-380c-33.3-25.3-59.5-56.7-78.5-94s-28.5-76.7-28.5-118c0-70,25-129.7,75-179s110-74,180-74c16.7,0,33.2,1.8,49.5,5.5
	s30.2,7.3,41.5,11s25,10.5,41,20.5s27.7,17.7,35,23s20.2,15.2,38.5,29.5s30.8,23.8,37.5,28.5L247,502c-4.7-23.3-7-43-7-59
	c0-62,20-116,60-162s90.7-72.3,152-79c9.3-58,36.2-106.2,80.5-144.5S628.7,0,688,0c55.3,0,104.7,17.2,148,51.5S907.7,130,921,184
	l103,428l83-348c13.3-54,41.7-98.2,85-132.5S1284.7,80,1340,80c58,0,108.8,18,152.5,54s71.2,82.3,82.5,139c62,6.7,113.7,32.7,155,78
	s62,99,62,161c0,20-2.3,39-7,57l-116,477c-3.3,14.7-5,37-5,67c0,34-4.3,70-13,108l-101,401c-12.7,50-39.2,90.8-79.5,122.5
	S1384.3,1792,1333,1792z"/>
</svg>
