<?xml version="1.0" encoding="utf-8"?>
<!-- Generator: Adobe Illustrator 21.1.0, SVG Export Plug-In . SVG Version: 6.00 Build 0)  -->
<svg version="1.1" id="Layer_1" xmlns="http://www.w3.org/2000/svg" xmlns:xlink="http://www.w3.org/1999/xlink" x="0px" y="0px"
	 viewBox="0 0 1792 1792" style="enable-background:new 0 0 1792 1792;" xml:space="preserve">
<style type="text/css">
	.st0{fill:#D00021;}
</style>
<path class="st0" d="M1490,1426V778h-135c13.3,42,20,85.7,20,131c0,84-21.3,161.5-64,232.5s-100.7,127.2-174,168.5s-153.3,62-240,62
	c-131.3,0-243.7-45.2-337-135.5S420,1037,420,909c0-45.3,6.7-89,20-131H299v648c0,17.3,5.8,31.8,17.5,43.5s26.2,17.5,43.5,17.5h1069
	c16.7,0,31-5.8,43-17.5S1490,1443.3,1490,1426z M1206,893c0-82.7-30.2-153.2-90.5-211.5S982.3,594,897,594
	c-84.7,0-157.2,29.2-217.5,87.5S589,810.3,589,893s30.2,153.2,90.5,211.5S812.3,1192,897,1192c85.3,0,158.2-29.2,218.5-87.5
	S1206,975.7,1206,893z M1490,533V368c0-18.7-6.7-34.8-20-48.5s-29.7-20.5-49-20.5h-174c-19.3,0-35.7,6.8-49,20.5s-20,29.8-20,48.5
	v165c0,19.3,6.7,35.7,20,49s29.7,20,49,20h174c19.3,0,35.7-6.7,49-20S1490,552.3,1490,533z M1664,325v1142c0,54-19.3,100.3-58,139
	s-85,58-139,58H325c-54,0-100.3-19.3-139-58s-58-85-58-139V325c0-54,19.3-100.3,58-139s85-58,139-58h1142c54,0,100.3,19.3,139,58
	S1664,271,1664,325z"/>
</svg>
