<?xml version="1.0" encoding="utf-8"?>
<!-- Generator: Adobe Illustrator 21.1.0, SVG Export Plug-In . SVG Version: 6.00 Build 0)  -->
<svg version="1.1" id="Layer_1" xmlns="http://www.w3.org/2000/svg" xmlns:xlink="http://www.w3.org/1999/xlink" x="0px" y="0px"
	 viewBox="0 0 1792 1792" style="enable-background:new 0 0 1792 1792;" xml:space="preserve">
<style type="text/css">
	.st0{fill:#D00021;}
</style>
<path class="st0" d="M832,0l960,384v128h-128c0,17.3-6.8,32.3-20.5,45s-29.8,19-48.5,19H69c-18.7,0-34.8-6.3-48.5-19S0,529.3,0,512
	h-128V384L832,0z M128,640h256v768h128V640h256v768h128V640h256v768h128V640h256v768h59c18.7,0,34.8,6.3,48.5,19s20.5,27.7,20.5,45
	v64H0v-64c0-17.3,6.8-32.3,20.5-45s29.8-19,48.5-19h59V640z M1723,1600c18.7,0,34.8,6.3,48.5,19s20.5,27.7,20.5,45v128H-128v-128
	c0-17.3,6.8-32.3,20.5-45s29.8-19,48.5-19H1723z"/>
</svg>
