<?xml version="1.0" encoding="utf-8"?>
<!-- Generator: Adobe Illustrator 21.1.0, SVG Export Plug-In . SVG Version: 6.00 Build 0)  -->
<svg version="1.1" id="Layer_1" xmlns="http://www.w3.org/2000/svg" xmlns:xlink="http://www.w3.org/1999/xlink" x="0px" y="0px"
	 viewBox="0 0 1792 1792" style="enable-background:new 0 0 1792 1792;" xml:space="preserve">
<style type="text/css">
	.st0{fill:#D00021;}
</style>
<path class="st0" d="M1792,937c0,37.3-2.3,72-7,104H634c0,97.3,36.5,178.8,109.5,244.5S902.3,1384,1001,1384
	c66,0,127.8-15.5,185.5-46.5S1289.7,1263,1323,1207h423c-37.3,106-94.2,199.7-170.5,281S1410,1632.2,1308,1676.5s-209,66.5-321,66.5
	c-124.7,0-243.3-27.7-356-83c-152,77.3-283.3,116-394,116c-158,0-237-87.7-237-263c0-76.7,15-168.3,45-275
	c11.3-40,47.7-116.3,109-229c132.7-240,291-442,475-606c-122.7,52.7-265,170.7-427,354c42-182.7,136.5-332.5,283.5-449.5
	S799.7,132,987,132c20,0,35,0.3,45,1c170-78,314.3-117,433-117c42.7,0,81.3,4.3,116,13s66.2,22.2,94.5,40.5s50.5,43.8,66.5,76.5
	s24,71,24,115c0,77.3-25,172.7-75,286C1758.3,668.3,1792,798.3,1792,937z M1722,297c0-55.3-17.7-99.3-53-132s-81-49-137-49
	c-72,0-156.7,23.3-254,70c80.7,31.3,154.8,75.2,222.5,131.5S1625,439,1671,513C1705,423,1722,351,1722,297z M128,1534
	c0,57.3,16.2,101.5,48.5,132.5S253.7,1713,311,1713c76.7,0,165.3-27.7,266-83c-81.3-48-152.5-109-213.5-183S256.7,1291.3,226,1202
	C160.7,1338.7,128,1449.3,128,1534z M632,821h728c-3.3-94.7-41-173.7-113-237s-155.7-95-251-95c-96,0-179.8,31.7-251.5,95
	S635.3,726.3,632,821z"/>
</svg>
