<?xml version="1.0" encoding="utf-8"?>
<!-- Generator: Adobe Illustrator 21.1.0, SVG Export Plug-In . SVG Version: 6.00 Build 0)  -->
<svg version="1.1" id="Layer_1" xmlns="http://www.w3.org/2000/svg" xmlns:xlink="http://www.w3.org/1999/xlink" x="0px" y="0px"
	 viewBox="0 0 1792 1792" style="enable-background:new 0 0 1792 1792;" xml:space="preserve">
<style type="text/css">
	.st0{fill:#D00021;}
</style>
<path class="st0" d="M384,1662l17-85c4-1.3,31.2-8.5,81.5-21.5S570,1530,594,1518c18.7-23.3,32.3-57,41-101c0.7-4.7,21.3-101,62-289
	s78.7-369.2,114-543.5s52.7-273.2,52-296.5v-25c-16-8.7-34.2-14.8-54.5-18.5s-43.5-6.3-69.5-8s-45.3-3.5-58-5.5l19-103
	c22,1.3,62,3.5,120,6.5s107.8,5.3,149.5,7s81.8,2.5,120.5,2.5c32,0,64.8-0.8,98.5-2.5s74-4,121-7s79.8-5.2,98.5-6.5
	c-3.3,26-9.7,55.7-19,89c-20,6.7-53.8,16.2-101.5,28.5c-47.7,12.3-83.8,23.5-108.5,33.5c-5.3,12.7-10,26.8-14,42.5s-7,29-9,40
	s-4.5,26.2-7.5,45.5s-5.2,33.3-6.5,42c-18,98.7-47.2,238.5-87.5,419.5c-40.3,181-66.2,299.5-77.5,355.5c-1.3,6-5.7,25.3-13,58
	s-14,62.7-20,90s-11.3,55.2-16,83.5s-6.7,47.5-6,57.5l1,18c11.3,2.7,73,13,185,31c-2,29.3-7.3,62.3-16,99c-7.3,0-18.2,0.5-32.5,1.5
	s-25.2,1.5-32.5,1.5c-19.3,0-48.3-3.3-87-10s-67.3-10-86-10c-92-1.3-160.7-2-206-2c-34,0-81.7,3-143,9S403.3,1660.7,384,1662z"/>
</svg>
