<?xml version="1.0" encoding="utf-8"?>
<!-- Generator: Adobe Illustrator 21.1.0, SVG Export Plug-In . SVG Version: 6.00 Build 0)  -->
<svg version="1.1" id="Layer_1" xmlns="http://www.w3.org/2000/svg" xmlns:xlink="http://www.w3.org/1999/xlink" x="0px" y="0px"
	 viewBox="0 0 1792 1792" style="enable-background:new 0 0 1792 1792;" xml:space="preserve">
<style type="text/css">
	.st0{fill:#D00021;}
</style>
<path class="st0" d="M832,512c0-53.3-18.7-98.7-56-136s-82.7-56-136-56s-98.7,18.7-136,56s-56,82.7-56,136c0,28,6.3,55.7,19,83
	c-27.3-12.7-55-19-83-19c-53.3,0-98.7,18.7-136,56s-56,82.7-56,136s18.7,98.7,56,136s82.7,56,136,56s98.7-18.7,136-56
	s56-82.7,56-136c0-28-6.3-55.7-19-83c27.3,12.7,55,19,83,19c53.3,0,98.7-18.7,136-56S832,565.3,832,512z M1683,1216
	c0,11.3-16.3,33.3-49,66s-54.7,49-66,49c-6,0-15.5-5.3-28.5-16s-25.2-21.7-36.5-33s-24.2-24.7-38.5-40s-22.5-24-24.5-26l-96,96
	l220,220c18.7,18.7,28,41.3,28,68c0,28-13,55-39,81s-53,39-81,39c-26.7,0-49.3-9.3-68-28l-671-671c-117.3,87.3-239,131-365,131
	c-108.7,0-197.2-34.2-265.5-102.5S0,892.7,0,784c0-106.7,31.7-211,95-313s146-184.7,248-248s206.3-95,313-95
	c108.7,0,197.2,34.2,265.5,102.5S1024,387.3,1024,496c0,126-43.7,247.7-131,365l355,355l96-96c-2-2-10.7-10.2-26-24.5
	s-28.7-27.2-40-38.5s-22.3-23.5-33-36.5s-16-22.5-16-28.5c0-11.3,16.3-33.3,49-66s54.7-49,66-49c8.7,0,16.3,3.3,23,10
	c4,4,19.3,18.8,46,44.5s54,52.2,82,79.5c28,27.3,56.8,56,86.5,86s54,56,73,78S1683,1210.7,1683,1216z"/>
</svg>
