<?xml version="1.0" encoding="utf-8"?>
<!-- Generator: Adobe Illustrator 21.1.0, SVG Export Plug-In . SVG Version: 6.00 Build 0)  -->
<svg version="1.1" id="Layer_1" xmlns="http://www.w3.org/2000/svg" xmlns:xlink="http://www.w3.org/1999/xlink" x="0px" y="0px"
	 viewBox="0 0 1792 1792" style="enable-background:new 0 0 1792 1792;" xml:space="preserve">
<style type="text/css">
	.st0{fill:#D00021;}
</style>
<path class="st0" d="M791,411c-7.3,0.7-12.5,4.2-15.5,10.5s-5.8,9.5-8.5,9.5c-3.3,0.7-5-1-5-5c0-8,6.3-13,19-15H791z M878,425
	c-2.7,0.7-6.5-1.5-11.5-6.5S855.7,412,849,414c16-7.3,26.7-6.7,32,2C883,420,882,423,878,425z M527,852c-2.7-0.7-4.7,0.3-6,3
	s-2.8,6.8-4.5,12.5S513,877.7,511,881s-5.3,7.7-10,13c-4.7,6.7-5,10.7-1,12c2.7,0.7,6.8-1.7,12.5-7s9.8-11.3,12.5-18
	c0.7-2,1.3-4.3,2-7s1.3-4.7,2-6s1.2-2.8,1.5-4.5s0.5-3,0.5-4v-3l-1-2.5L527,852z M1382,1211c0-12-18.3-26-55-42
	c2.7-10,5.2-19.2,7.5-27.5s4-17,5-26s2-16.2,3-21.5s1.2-12.8,0.5-22.5s-1-16.2-1-19.5s-1.2-10.7-3.5-22c-2.3-11.3-3.7-18.2-4-20.5
	s-2-10.7-5-25s-4.8-23.2-5.5-26.5c-6.7-32-22.3-66.3-47-103s-48.7-61.7-72-75c16,13.3,35,41,57,83c58,108,76,200.7,54,278
	c-7.3,26.7-24,40.7-50,42c-20.7,2.7-33.5-3.5-38.5-18.5s-7.7-42.8-8-83.5s-4.2-76.3-11.5-107c-6-26-12.5-49-19.5-69
	s-13.5-35.2-19.5-45.5s-11.2-18.5-15.5-24.5s-8.7-11-13-15s-6.8-6.3-7.5-7c-9.3-41.3-19.7-75.7-31-103s-21.2-46-29.5-56
	s-16.2-21-23.5-33s-12.3-25.3-15-40c-2.7-14-0.7-31.8,6-53.5s8.2-38.2,4.5-49.5s-18.5-19.7-44.5-25c-10-2-24.8-8-44.5-18
	S924,419.7,920,419c-5.3-0.7-9-9.3-11-26s0.7-33.7,8-51s19.3-26.3,36-27c24.7-2,41.7,8,51,30s10.7,41.3,4,58
	c-7.3,12.7-8,21.5-2,26.5s16,5.2,30,0.5c8.7-2.7,13-14.7,13-36v-37c-3.3-20-7.8-36.7-13.5-50s-12.7-23.5-21-30.5s-16.2-12-23.5-15
	s-16.3-5.5-27-7.5c-71.3,5.3-101,50-89,134c0,10-0.3,15-1,15c-6-6-15.8-9.5-29.5-10.5s-24.7-0.8-33,0.5s-13.5-0.3-15.5-5
	c0.7-38-4.7-68-16-90s-26.3-33.3-45-34c-18-0.7-31.8,8.5-41.5,27.5S678.3,330.3,677,351c-0.7,10,0.5,22.3,3.5,37s7.3,27.2,13,37.5
	s10.8,14.8,15.5,13.5c6.7-2,12-6.7,16-14c2.7-6,0.3-8.7-7-8c-4.7,0-9.8-4.8-15.5-14.5s-8.8-20.8-9.5-33.5c-0.7-14.7,2.3-27,9-37
	s18-14.7,34-14c11.3,0,20.3,7,27,21s9.8,27,9.5,39s-0.8,19.3-1.5,22c-14.7,10-25,19.7-31,29c-5.3,8-14.5,15.8-27.5,23.5
	S692.7,464.3,692,465c-8.7,9.3-13.8,18.3-15.5,27s0.8,14.7,7.5,18c9.3,5.3,17.7,11.8,25,19.5s12.7,14,16,19s9.5,9.3,18.5,13
	s20.8,5.8,35.5,6.5c31.3,1.3,65.3-3.7,102-15c1.3-0.7,9-3,23-7s25.5-7.5,34.5-10.5s18.8-7.3,29.5-13s17.7-11.5,21-17.5
	c6-9.3,12.7-12,20-8c3.3,2,5.5,4.8,6.5,8.5s0,7.7-3,12S1004,525,996,527c-13.3,4-32.2,11.2-56.5,21.5S900,565.3,894,568
	c-29.3,12.7-52.7,20.3-70,23c-16.7,3.3-43,2.7-79-2c-6.7-1.3-9.7-0.7-9,2s6.3,9,17,19c16.7,15.3,39,22.7,67,22c11.3-0.7,23.3-3,36-7
	s24.7-8.7,36-14s22.5-11.2,33.5-17.5s21-12,30-17s17.2-9,24.5-12s13.2-3.8,17.5-2.5s7.2,5,8.5,11c0,1.3-0.3,2.8-1,4.5s-2,3.3-4,5
	s-4,3.2-6,4.5s-4.8,3-8.5,5s-6.7,3.5-9,4.5s-5.7,2.7-10,5s-7.5,3.8-9.5,4.5c-18.7,9.3-41.2,24-67.5,44S842,684.3,824,693
	s-34.3,9-49,1c-14-7.3-35-31.7-63-73c-14.7-20.7-23-28-25-22c-0.7,2-1,5.3-1,10c0,16.7-5,35.5-15,56.5S651.2,705,641.5,721
	s-16.7,35.3-21,58s-0.5,43.7,11.5,63c-15.3,4-36.2,34-62.5,90s-42.2,103-47.5,141c-1.3,12-1.8,35-1.5,69s-1.5,53.7-5.5,59
	c-5.3,16-15,17-29,3c-21.3-20.7-33.3-52-36-94c-1.3-18.7,0-37.3,4-56c2.7-12.7,2.3-18.7-1-18l-4,5c-24,43.3-20.7,98.7,10,166
	c3.3,8,11.7,17.3,25,28s21.3,17.3,24,20c13.3,15.3,48,45.5,104,90.5s87,70.5,93,76.5c10.7,10,16.5,22.7,17.5,38s-3.7,29.7-14,43
	s-25.5,21-45.5,23c5.3,10,15,24.8,29,44.5s23.3,37.7,28,54s7,39.8,7,70.5c30.7-16,33-46.7,7-92c-2.7-5.3-6.2-10.7-10.5-16
	s-7.5-9.3-9.5-12s-2.7-4.7-2-6c2-3.3,6.3-6.5,13-9.5s13.3-2.2,20,2.5c30.7,34.7,86,46.7,166,36c88.7-10,147.7-39,177-87
	c15.3-25.3,26.7-35.3,34-30c8,4,11.3,21.3,10,52c-0.7,16.7-8.3,47.3-23,92c-6,15.3-8,27.8-6,37.5s10,14.8,24,15.5
	c2-12.7,6.8-38.3,14.5-77s12.2-68.7,13.5-90c1.3-14-0.8-38.5-6.5-73.5s-8.2-67.3-7.5-97s8.3-53.2,23-70.5c10-12,27-18,51-18
	c0.7-24.7,12.2-42.3,34.5-53s46.5-14.2,72.5-10.5S1368,1199.7,1382,1211z M754,384c2-11.3,1.2-21.3-2.5-30s-7.5-13.7-11.5-15
	c-6-1.3-9,1-9,7c1.3,3.3,3,5.3,5,6c6.7,0,9,5,7,15c-2,13.3,0.7,20,8,20C753,387,754,386,754,384z M1173,581
	c-1.3-5.3-3.5-9.2-6.5-11.5s-7.3-4-13-5s-10.5-2.8-14.5-5.5c-3.3-2-6.5-4.7-9.5-8s-5.3-6-7-8s-3.5-4.2-5.5-6.5s-3.3-3.7-4-4
	s-2,0.2-4,1.5c-9.3,10.7-7,25.2,7,43.5s27,28.8,39,31.5c6,0.7,10.8-2,14.5-8S1174.3,588.3,1173,581z M995,368c0-7.3-1.7-13.8-5-19.5
	s-7-9.8-11-12.5s-7-3.7-9-3c-9.3,0.7-11.7,3-7,7l4,2c9.3,2.7,15.3,13,18,31c0,2,2.7,1.3,8-2L995,368z M1049,135c0-1.3-0.8-3-2.5-5
	s-4.7-4.3-9-7s-7.5-4.7-9.5-6c-10-10-18-15-24-15c-6,0.7-9.8,3.2-11.5,7.5s-2,8.7-1,13s0.8,8.5-0.5,12.5c-0.7,2.7-2.7,6.2-6,10.5
	s-5.3,7.3-6,9s0.3,4.5,3,8.5c2.7,2,5.3,2,8,0s6.3-5,11-9s9.7-7,15-9c0.7-0.7,3.7-1,9-1c5.3,0,10.3-0.7,15-2S1047.7,138.3,1049,135z
	 M1614,1476c13.3,8,23.7,16.2,31,24.5s11.3,16.3,12,24s-0.2,15.2-2.5,22.5s-7.5,14.7-15.5,22s-15.8,13.8-23.5,19.5
	s-17.7,11.8-30,18.5s-22.8,12.2-31.5,16.5s-19.3,9.5-32,15.5s-21.7,10.3-27,13c-25.3,12.7-53.8,31.3-85.5,56s-56.8,46-75.5,64
	c-11.3,10.7-34,17.2-68,19.5s-63.7-2.5-89-14.5c-12-6-21.8-13.8-29.5-23.5s-13.2-18.2-16.5-25.5s-10.7-13.8-22-19.5s-27-8.8-47-9.5
	c-29.3-0.7-72.7-1-130-1c-12.7,0-31.7,0.5-57,1.5s-44.7,1.8-58,2.5c-29.3,0.7-55.8,5.7-79.5,15s-41.5,19.3-53.5,30
	s-26.5,20.2-43.5,28.5s-34.8,12.2-53.5,11.5c-19.3-0.7-56.3-11-111-31s-103.3-34.3-146-43c-12.7-2.7-29.7-5.8-51-9.5s-38-6.7-50-9
	s-25.2-5.5-39.5-9.5s-25.5-8.8-33.5-14.5s-13.7-12.2-17-19.5c-6.7-15.3-4.3-37.5,7-66.5s17.3-47.2,18-54.5c0.7-10.7-0.7-24-4-40
	s-6.7-30.2-10-42.5s-4.8-24.5-4.5-36.5s3.8-21,10.5-27c9.3-8,28.3-12.7,57-14s48.7-5.3,60-12c20-12,34-23.7,42-35s12-28.3,12-51
	c14,48.7,3.3,84-32,106c-21.3,13.3-49,18.3-83,15c-22.7-2-37,1.3-43,10c-8.7,10-7,29,5,57c1.3,4,4,10,8,18s6.8,14,8.5,18
	s3.2,9.7,4.5,17s1.7,14.7,1,22c0,10-5.7,26.3-17,49s-16,38.7-14,48c2,11.3,14.3,20,37,26c13.3,4,41.5,10.2,84.5,18.5
	s76.2,15.2,99.5,20.5c16,4,40.7,11.3,74,22s60.8,18.3,82.5,23s40.2,6,55.5,4c28.7-4,50.2-13.3,64.5-28s22-30.7,23-48
	s-1.5-36.8-7.5-58.5s-12.3-39-19-52s-13.3-25.2-20-36.5c-80.7-126.7-137-207.3-169-242c-45.3-49.3-83-62.7-113-40
	c-7.3,6-12.3,1-15-15c-2-10.7-2.7-23.3-2-38c0.7-19.3,4-36.7,10-52s14-31,24-47s17.3-30,22-42c5.3-14,14.2-38,26.5-72
	s22.2-60,29.5-78s17.3-38.3,30-61s25.7-40.7,39-54c73.3-95.3,114.7-160.3,124-195c-8-74.7-13.3-178-16-310
	c-1.3-60,6.7-110.5,24-151.5S705.7,49.7,759,21C785,7,819.7,0,863,0c35.3-0.7,70.7,3.8,106,13.5s65,23.5,89,41.5
	c38,28,68.5,68.5,91.5,121.5s32.8,102.2,29.5,147.5c-3.3,63.3,6.7,134.7,30,214c22.7,75.3,67,148,133,218
	c36.7,39.3,69.8,93.7,99.5,163s49.5,133,59.5,191c5.3,32.7,7,60.8,5,84.5s-6,42.2-12,55.5s-12.7,20.7-20,22
	c-6.7,1.3-14.5,7.7-23.5,19s-18,23.2-27,35.5S1401,1350,1383,1360s-38.3,14.7-61,14c-12-0.7-22.5-2.3-31.5-5s-16.5-7.2-22.5-13.5
	s-10.5-11.5-13.5-15.5s-6.8-10.8-11.5-20.5s-7.7-16.2-9-19.5c-14.7-24.7-28.3-34.7-41-30s-22,21-28,49s-3.7,60.3,7,97
	c13.3,46.7,13.7,111.7,1,195c-6.7,43.3-0.7,76.8,18,100.5s43,34.7,73,33s58.3-13.5,85-35.5c39.3-32.7,69.2-54.8,89.5-66.5
	s54.8-25.8,103.5-42.5c35.3-12,61-24.2,77-36.5s22.2-23.8,18.5-34.5s-12-20.2-25-28.5s-30.2-16.2-51.5-23.5
	c-22-7.3-38.5-23.3-49.5-48s-16-48.8-15-72.5s6.2-39.5,15.5-47.5c0.7,20.7,3.3,39.5,8,56.5s9.5,30.5,14.5,40.5s11.8,19.5,20.5,28.5
	s15.7,15.3,21,19s12.5,8,21.5,13S1612,1474.7,1614,1476z"/>
</svg>
