<?xml version="1.0" encoding="utf-8"?>
<!-- Generator: Adobe Illustrator 21.1.0, SVG Export Plug-In . SVG Version: 6.00 Build 0)  -->
<svg version="1.1" id="Layer_1" xmlns="http://www.w3.org/2000/svg" xmlns:xlink="http://www.w3.org/1999/xlink" x="0px" y="0px"
	 viewBox="0 0 1792 1792" style="enable-background:new 0 0 1792 1792;" xml:space="preserve">
<style type="text/css">
	.st0{fill:#D00021;}
</style>
<path class="st0" d="M381,1620c0,53.3-18.2,95.3-54.5,126s-81.5,46-135.5,46c-70.7,0-128-22-172-66l57-88c32.7,30,68,45,106,45
	c19.3,0,36.2-4.8,50.5-14.5s21.5-23.8,21.5-42.5c0-42.7-35-61.3-105-56l-26-56c5.3-6.7,16.2-21.2,32.5-43.5s30.5-40.3,42.5-54
	s24.3-26.5,37-38.5v-1c-10.7,0-26.8,0.3-48.5,1s-37.8,1-48.5,1v53H32v-152h333v88l-95,115c34,8,61,24.3,81,49S381,1586,381,1620z
	 M383,993v159H21c-4-24-6-42-6-54c0-34,7.8-65,23.5-93S73,954.3,95,937s44-33.2,66-47.5s40.8-28.8,56.5-43.5s23.5-29.7,23.5-45
	c0-16.7-4.8-29.5-14.5-38.5S203.7,749,187,749c-30.7,0-57.7,19.3-81,58l-85-59c16-34,39.8-60.5,71.5-79.5S159.3,640,198,640
	c48.7,0,89.7,13.8,123,41.5s50,65.2,50,112.5c0,33.3-11.3,63.8-34,91.5s-47.7,49.2-75,64.5s-52.5,32.2-75.5,50.5
	s-34.8,35.8-35.5,52.5h127v-60H383z M1792,1312v192c0,8.7-3.2,16.2-9.5,22.5s-13.8,9.5-22.5,9.5H544c-8.7,0-16.2-3.2-22.5-9.5
	s-9.5-13.8-9.5-22.5v-192c0-9.3,3-17,9-23s13.7-9,23-9h1216c8.7,0,16.2,3.2,22.5,9.5S1792,1303.3,1792,1312z M384,413v99H49v-99h107
	c0-27.3,0.2-68,0.5-122s0.5-94.3,0.5-121v-12h-2c-5.3,11.3-22,29.3-50,54l-71-76L170,9h106v404H384z M1792,800v192
	c0,8.7-3.2,16.2-9.5,22.5s-13.8,9.5-22.5,9.5H544c-8.7,0-16.2-3.2-22.5-9.5s-9.5-13.8-9.5-22.5V800c0-9.3,3-17,9-23s13.7-9,23-9
	h1216c8.7,0,16.2,3.2,22.5,9.5S1792,791.3,1792,800z M1792,288v192c0,8.7-3.2,16.2-9.5,22.5s-13.8,9.5-22.5,9.5H544
	c-8.7,0-16.2-3.2-22.5-9.5S512,488.7,512,480V288c0-8.7,3.2-16.2,9.5-22.5s13.8-9.5,22.5-9.5h1216c8.7,0,16.2,3.2,22.5,9.5
	S1792,279.3,1792,288z"/>
</svg>
