<?xml version="1.0" encoding="utf-8"?>
<!-- Generator: Adobe Illustrator 21.1.0, SVG Export Plug-In . SVG Version: 6.00 Build 0)  -->
<svg version="1.1" id="Layer_1" xmlns="http://www.w3.org/2000/svg" xmlns:xlink="http://www.w3.org/1999/xlink" x="0px" y="0px"
	 viewBox="0 0 1792 1792" style="enable-background:new 0 0 1792 1792;" xml:space="preserve">
<style type="text/css">
	.st0{fill:#D00021;}
</style>
<path class="st0" d="M1277,493c-6,12.7-15.7,19-29,19h-224v1248c0,9.3-3,17-9,23s-13.7,9-23,9H800c-9.3,0-17-3-23-9s-9-13.7-9-23
	V512H544c-14,0-23.7-6.3-29-19s-3.7-24.3,5-35L870,74c6.7-6.7,14.3-10,23-10c9.3,0,17.3,3.3,24,10l355,384
	C1280.7,468.7,1282.3,480.3,1277,493z"/>
</svg>
