<?xml version="1.0" encoding="utf-8"?>
<!-- Generator: Adobe Illustrator 21.1.0, SVG Export Plug-In . SVG Version: 6.00 Build 0)  -->
<svg version="1.1" id="Layer_1" xmlns="http://www.w3.org/2000/svg" xmlns:xlink="http://www.w3.org/1999/xlink" x="0px" y="0px"
	 viewBox="0 0 1792 1792" style="enable-background:new 0 0 1792 1792;" xml:space="preserve">
<style type="text/css">
	.st0{fill:#D00021;}
</style>
<path class="st0" d="M1254,581l293-293l-107-107l-293,293L1254,581z M1701,288c0,18-6,33-18,45L397,1619c-12,12-27,18-45,18
	s-33-6-45-18l-198-198c-12-12-18-27-18-45s6-33,18-45L1395,45c12-12,27-18,45-18s33,6,45,18l198,198C1695,255,1701,270,1701,288z
	 M350,98l98,30l-98,30l-30,98l-30-98l-98-30l98-30l30-98L350,98z M700,260l196,60l-196,60l-60,196l-60-196l-196-60l196-60l60-196
	L700,260z M1630,738l98,30l-98,30l-30,98l-30-98l-98-30l98-30l30-98L1630,738z M990,98l98,30l-98,30l-30,98l-30-98l-98-30l98-30
	l30-98L990,98z"/>
</svg>
