<?xml version="1.0" encoding="utf-8"?>
<!-- Generator: Adobe Illustrator 21.1.0, SVG Export Plug-In . SVG Version: 6.00 Build 0)  -->
<svg version="1.1" id="Layer_1" xmlns="http://www.w3.org/2000/svg" xmlns:xlink="http://www.w3.org/1999/xlink" x="0px" y="0px"
	 viewBox="0 0 1792 1792" style="enable-background:new 0 0 1792 1792;" xml:space="preserve">
<style type="text/css">
	.st0{fill:#D00021;}
</style>
<path class="st0" d="M1408,704v416c0,26.7-9.3,49.3-28,68s-41.3,28-68,28s-49.3-9.3-68-28s-28-41.3-28-68V768h-64v912
	c0,30.7-11,57-33,79s-48.3,33-79,33c-30.7,0-57-11-79-33s-33-48.3-33-79v-464h-64v464c0,30.7-11,57-33,79s-48.3,33-79,33
	s-57-11-79-33s-33-48.3-33-79V768h-64v352c0,26.7-9.3,49.3-28,68s-41.3,28-68,28s-49.3-9.3-68-28s-28-41.3-28-68V704
	c0-53.3,18.7-98.7,56-136s82.7-56,136-56h640c53.3,0,98.7,18.7,136,56S1408,650.7,1408,704z M1120,256c0,62-21.8,114.8-65.5,158.5
	C1010.8,458.2,958,480,896,480s-114.8-21.8-158.5-65.5S672,318,672,256s21.8-114.8,65.5-158.5S834,32,896,32s114.8,21.8,158.5,65.5
	C1098.2,141.2,1120,194,1120,256z"/>
</svg>
