<?xml version="1.0" encoding="utf-8"?>
<!-- Generator: Adobe Illustrator 21.1.0, SVG Export Plug-In . SVG Version: 6.00 Build 0)  -->
<svg version="1.1" id="Layer_1" xmlns="http://www.w3.org/2000/svg" xmlns:xlink="http://www.w3.org/1999/xlink" x="0px" y="0px"
	 viewBox="0 0 1792 1792" style="enable-background:new 0 0 1792 1792;" xml:space="preserve">
<style type="text/css">
	.st0{fill:#D00021;}
</style>
<path class="st0" d="M1472,416c0-9.3,3-17,9-23s13.7-9,23-9h288c17.3,0,32.3,6.3,45,19s19,27.7,19,45v288c0,9.3-3,17-9,23
	s-13.7,9-23,9h-64c-9.3,0-17-3-23-9s-9-13.7-9-23V602l-254,255c50.7,63.3,86.5,134.7,107.5,214s24.2,161.7,9.5,247
	c-20.7,121.3-76,225.3-166,312s-196,138.7-318,156c-140,19.3-268.2-7.3-384.5-80S525.7,1533.3,481,1406c-78-4-151.7-23.2-221-57.5
	s-128.5-78.7-177.5-133S-4.3,1097-31,1023s-37.3-150.7-32-230c6-90,32-174,78-252s106.7-141.8,182-191.5S355,270,445,260
	c78.7-9.3,154.5-3,227.5,19S811.7,335.3,871,382l255-254H992c-9.3,0-17-3-23-9s-9-13.7-9-23V32c0-9.3,3-17,9-23s13.7-9,23-9h288
	c17.3,0,32.3,6.3,45,19s19,27.7,19,45v288c0,9.3-3,17-9,23s-13.7,9-23,9h-64c-9.3,0-17-3-23-9s-9-13.7-9-23V218L962,473
	c39.3,49.3,70.3,105.7,93,169c121.3,6,230.7,47.3,328,124l255-254h-134c-9.3,0-17-3-23-9s-9-13.7-9-23V416z M960,832
	c0-13.3-1.3-32.7-4-58c-108,16.7-198.3,66.7-271,150s-109,180.7-109,292c0,13.3,1.3,32.7,4,58c108-16.7,198.3-66.7,271-150
	S960,943.3,960,832z M64,832c0,112,37,210,111,294s166,133.7,276,149c-2-19.3-3-39-3-59c0-140,45-263.2,135-369.5
	S785.7,674.7,921,650c-35.3-80-89.8-144.3-163.5-193S602,384,512,384c-123.3,0-228.8,43.8-316.5,131.5S64,708.7,64,832z M1024,1664
	c123.3,0,228.8-43.8,316.5-131.5S1472,1339.3,1472,1216c0-112-37-210-111-294s-166-133.7-276-149c2,19.3,3,39,3,59
	c0,140-45,263.2-135,369.5S750.3,1373.3,615,1398c35.3,80,89.8,144.3,163.5,193S934,1664,1024,1664z"/>
</svg>
