<?xml version="1.0" encoding="utf-8"?>
<!-- Generator: Adobe Illustrator 21.1.0, SVG Export Plug-In . SVG Version: 6.00 Build 0)  -->
<svg version="1.1" id="Layer_1" xmlns="http://www.w3.org/2000/svg" xmlns:xlink="http://www.w3.org/1999/xlink" x="0px" y="0px"
	 viewBox="0 0 1792 1792" style="enable-background:new 0 0 1792 1792;" xml:space="preserve">
<style type="text/css">
	.st0{fill:#D00021;}
</style>
<path class="st0" d="M896,644c144.7,16,266.2,78.5,364.5,187.5S1408,1068.7,1408,1216c0,111.3-29,213.3-87,306s-136.7,163.3-236,212
	s-205.7,66.7-319,54c-88.7-10-170.5-39.3-245.5-88s-135.7-111.3-182-188s-73.2-159.7-80.5-249c-8-103.3,9.5-200.7,52.5-292
	s105-166,186-224S668,654.7,768,644V512H608c-9.3,0-17-3-23-9s-9-13.7-9-23v-64c0-9.3,3-17,9-23s13.7-9,23-9h160V219l-92,92
	c-6.7,6-14.3,9-23,9s-16-3-22-9l-46-46c-6-6-9-13.3-9-22s3-16.3,9-23L787,19c12.7-12.7,27.7-19,45-19s32.3,6.3,45,19l202,201
	c6,6.7,9,14.3,9,23s-3,16-9,22l-46,46c-6,6-13.3,9-22,9s-16.3-3-23-9l-92-92v165h160c9.3,0,17,3,23,9s9,13.7,9,23v64
	c0,9.3-3,17-9,23s-13.7,9-23,9H896V644z M832,1664c123.3,0,228.8-43.8,316.5-131.5S1280,1339.3,1280,1216s-43.8-228.8-131.5-316.5
	S955.3,768,832,768s-228.8,43.8-316.5,131.5S384,1092.7,384,1216s43.8,228.8,131.5,316.5S708.7,1664,832,1664z"/>
</svg>
