<?xml version="1.0" encoding="utf-8"?>
<!-- Generator: Adobe Illustrator 21.1.0, SVG Export Plug-In . SVG Version: 6.00 Build 0)  -->
<svg version="1.1" id="Layer_1" xmlns="http://www.w3.org/2000/svg" xmlns:xlink="http://www.w3.org/1999/xlink" x="0px" y="0px"
	 viewBox="0 0 1792 1792" style="enable-background:new 0 0 1792 1792;" xml:space="preserve">
<style type="text/css">
	.st0{fill:#D00021;}
</style>
<path class="st0" d="M1773,915c12.7,12.7,19,27.7,19,45s-6.3,32.3-19,45l-294,294c-6,6.7-13.5,10-22.5,10s-16.5-3.3-22.5-10l-45-45
	c-6.7-6-10-13.5-10-22.5s3.3-16.5,10-22.5l185-185h-294v224c0,9.3-3,17-9,23s-13.7,9-23,9h-64c-9.3,0-17-3-23-9s-9-13.7-9-23v-224
	h-132c-16,144.7-78.5,266.2-187.5,364.5S595.3,1536,448,1536c-111.3,0-213.3-29-306-87s-163.3-136.7-212-236s-66.7-205.7-54-319
	c10-88.7,39.3-170.5,88-245.5s111.3-135.7,188-182s159.7-73.2,249-80.5c103.3-8,200.7,9.5,292,52.5s166,105,224,186
	S1009.3,796,1020,896h132V672c0-9.3,3-17,9-23s13.7-9,23-9h64c9.3,0,17,3,23,9s9,13.7,9,23v224h294l-185-185c-6.7-6-10-13.5-10-22.5
	s3.3-16.5,10-22.5l45-45c6-6.7,13.5-10,22.5-10s16.5,3.3,22.5,10L1773,915z M448,1408c123.3,0,228.8-43.8,316.5-131.5
	S896,1083.3,896,960s-43.8-228.8-131.5-316.5S571.3,512,448,512s-228.8,43.8-316.5,131.5S0,836.7,0,960s43.8,228.8,131.5,316.5
	S324.7,1408,448,1408z"/>
</svg>
