<?xml version="1.0" encoding="utf-8"?>
<!-- Generator: Adobe Illustrator 21.1.0, SVG Export Plug-In . SVG Version: 6.00 Build 0)  -->
<svg version="1.1" id="Layer_1" xmlns="http://www.w3.org/2000/svg" xmlns:xlink="http://www.w3.org/1999/xlink" x="0px" y="0px"
	 viewBox="0 0 1792 1792" style="enable-background:new 0 0 1792 1792;" xml:space="preserve">
<style type="text/css">
	.st0{fill:#D00021;}
</style>
<path class="st0" d="M1086,316c96.7,48,174.5,118.2,233.5,210.5S1408,720.7,1408,832c0,147.3-49.2,275.5-147.5,384.5
	S1040.7,1388,896,1404v132h96c9.3,0,17,3,23,9s9,13.7,9,23v64c0,9.3-3,17-9,23s-13.7,9-23,9h-96v96c0,9.3-3,17-9,23s-13.7,9-23,9
	h-64c-9.3,0-17-3-23-9s-9-13.7-9-23v-96h-96c-9.3,0-17-3-23-9s-9-13.7-9-23v-64c0-9.3,3-17,9-23s13.7-9,23-9h96v-132
	c-144.7-16-266.2-78.5-364.5-187.5S256,979.3,256,832c0-111.3,29.5-213.2,88.5-305.5S481.3,364,578,316C468,252,392,161,350,43
	c-4-10.7-2.8-20.5,3.5-29.5S368.7,0,380,0h69c14,0,23.7,6.7,29,20c29.3,70.7,76,127.7,140,171s135.3,65,214,65s150-21.7,214-65
	s110.7-100.3,140-171c5.3-13.3,17.7-20,37-20h61c11.3,0,20.2,4.5,26.5,13.5s7.5,18.8,3.5,29.5C1272,161,1196,252,1086,316z
	 M832,1280c123.3,0,228.8-43.8,316.5-131.5S1280,955.3,1280,832s-43.8-228.8-131.5-316.5S955.3,384,832,384s-228.8,43.8-316.5,131.5
	S384,708.7,384,832s43.8,228.8,131.5,316.5S708.7,1280,832,1280z"/>
</svg>
