<?xml version="1.0" encoding="utf-8"?>
<!-- Generator: Adobe Illustrator 21.1.0, SVG Export Plug-In . SVG Version: 6.00 Build 0)  -->
<svg version="1.1" id="Layer_1" xmlns="http://www.w3.org/2000/svg" xmlns:xlink="http://www.w3.org/1999/xlink" x="0px" y="0px"
	 viewBox="0 0 1792 1792" style="enable-background:new 0 0 1792 1792;" xml:space="preserve">
<style type="text/css">
	.st0{fill:#D00021;}
</style>
<path class="st0" d="M1390,1303c-36,6-72.7,9-110,9c-121.3,0-233.7-30-337-90s-185-141.7-245-245s-90-215.7-90-337
	c0-128,34.7-247,104-357c-134,40-243.5,116.3-328.5,229S256,752.7,256,896c0,86.7,17,169.5,51,248.5s79.5,147,136.5,204
	s125,102.5,204,136.5s161.8,51,248.5,51c96,0,187.2-20.5,273.5-61.5S1329.3,1376.3,1390,1303z M1593,1218
	c-62.7,135.3-157.2,243.5-283.5,324.5S1045.3,1664,896,1664c-104,0-203.3-20.3-298-61s-176.3-95.3-245-164s-123.3-150.3-164-245
	s-61-194-61-298c0-102,19.2-199.5,57.5-292.5S275.8,430,341.5,362S485.7,239.2,577,197.5S765,133,867,129c29.3-1.3,49.7,11.7,61,39
	c12,27.3,7,51.3-15,72c-57.3,52-101.2,112.5-131.5,181.5S736,563.3,736,640c0,98.7,24.3,189.7,73,273s114.7,149.3,198,198
	s174.3,73,273,73c78.7,0,154.7-17,228-51c27.3-12,51.3-7.7,72,13c9.3,9.3,15.2,20.7,17.5,34S1598.3,1206,1593,1218z"/>
</svg>
