<?xml version="1.0" encoding="utf-8"?>
<!-- Generator: Adobe Illustrator 21.1.0, SVG Export Plug-In . SVG Version: 6.00 Build 0)  -->
<svg version="1.1" id="Layer_1" xmlns="http://www.w3.org/2000/svg" xmlns:xlink="http://www.w3.org/1999/xlink" x="0px" y="0px"
	 viewBox="0 0 1792 1792" style="enable-background:new 0 0 1792 1792;" xml:space="preserve">
<style type="text/css">
	.st0{fill:#D00021;}
</style>
<path class="st0" d="M2045,1036c8,68.7,0.7,134.8-22,198.5s-55.7,118.2-99,163.5s-96.2,80.7-158.5,106s-127.8,35.7-196.5,31
	c-107.3-7.3-200.5-49-279.5-125s-123.8-167.3-134.5-274c-8-74,1.2-144.2,27.5-210.5S1248.3,802.3,1301,755l-71-107
	c-64,53.3-114.3,118-151,194s-55,157.3-55,244c0,18-6.2,33.5-18.5,46.5S978,1152,960,1152H635c-15.3,109.3-65,200.7-149,274
	s-182,110-294,110c-123.3,0-228.8-43.8-316.5-131.5S-256,1211.3-256,1088s43.8-228.8,131.5-316.5S68.7,640,192,640
	c50.7,0,101.3,9,152,27l24-45c-82-73.3-183.3-110-304-110H0c-17.3,0-32.3-6.3-45-19s-19-27.7-19-45s6.3-32.3,19-45s27.7-19,45-19
	h128c52,0,100.3,4.5,145,13.5s83.5,21.8,116.5,38.5s56.8,29.8,71.5,39.5s31.7,21.8,51,36.5h627l-85-128H832c-20,0-36.3-7.5-49-22.5
	S765.7,329,769,309c2.7-15.3,10.3-28,23-38s27-15,43-15h253c22,0,39.7,9.3,53,28l70,105l114-114c12.7-12.7,28-19,46-19h101
	c17.3,0,32.3,6.3,45,19s19,27.7,19,45v128c0,17.3-6.3,32.3-19,45s-27.7,19-45,19h-179l115,172c87.3-42,179-54,275-36
	c95.3,17.3,176.7,62.2,244,134.5S2033.7,939.3,2045,1036z M192,1408c76.7,0,144.3-24.2,203-72.5S490.7,1226,506,1152H192
	c-23.3,0-41.7-10.3-55-31c-12-21.3-12.3-42.3-1-63l147-277c-31.3-8.7-61.7-13-91-13c-88,0-163.3,31.3-226,94s-94,138-94,226
	s31.3,163.3,94,226S104,1408,192,1408z M1600,1408c88,0,163.3-31.3,226-94s94-138,94-226s-31.3-163.3-94-226s-138-94-226-94
	c-40,0-80.3,8-121,24l174,260c10,15.3,13.3,31.7,10,49s-12.3,30.7-27,40c-10,7.3-22,11-36,11c-23.3,0-41-9.7-53-29l-174-260
	c-62,63.3-93,138.3-93,225c0,88,31.3,163.3,94,226S1512,1408,1600,1408z"/>
</svg>
