<?xml version="1.0" encoding="utf-8"?>
<!-- Generator: Adobe Illustrator 21.1.0, SVG Export Plug-In . SVG Version: 6.00 Build 0)  -->
<svg version="1.1" id="Layer_1" xmlns="http://www.w3.org/2000/svg" xmlns:xlink="http://www.w3.org/1999/xlink" x="0px" y="0px"
	 viewBox="0 0 1792 1792" style="enable-background:new 0 0 1792 1792;" xml:space="preserve">
<style type="text/css">
	.st0{fill:#D00021;}
</style>
<path class="st0" d="M1055,580c0,44-15.5,81.5-46.5,112.5S940,739,896,739s-81.5-15.5-112.5-46.5S737,624,737,580
	s15.5-81.5,46.5-112.5S852,421,896,421s81.5,15.5,112.5,46.5S1055,536,1055,580z M1269,943c-6.7-13.3-16-24-28-32
	s-27.8-11.2-47.5-9.5s-39.8,10.8-60.5,27.5c-6.7,5.3-16.3,12-29,20s-39.7,18.7-81,32c-41.3,13.3-83.7,20-127,20s-84.7-6-124-18
	s-68-24-86-36l-27-18c-20.7-16.7-40.8-25.8-60.5-27.5S563,903,551,911s-21.3,18.7-28,32c-14.7,30-15.3,54.8-2,74.5
	c13.3,19.7,42.3,44.2,87,73.5c55.3,35.3,130.7,57.7,226,67l-51,52c-94.7,94.7-158.3,158-191,190c-14.7,14.7-22,32.2-22,52.5
	s7.3,37.8,22,52.5l9,9c14.7,14.7,32.2,22,52.5,22s37.8-7.3,52.5-22l191-191c76,76.7,139.7,140.3,191,191c14.7,14.7,32.2,22,52.5,22
	s37.8-7.3,52.5-22l9-9c14.7-14.7,22-32.2,22-52.5s-7.3-37.8-22-52.5l-191-190l-52-52c94-9.3,169-31.7,225-67
	c44.7-29.3,73.7-53.8,87-73.5C1284.3,997.8,1283.7,973,1269,943z M1220,580c0-89.3-31.7-165.7-95-229s-139.7-95-229-95
	s-165.7,31.7-229,95s-95,139.7-95,229s31.7,165.7,95,229s139.7,95,229,95s165.7-31.7,229-95S1220,669.3,1220,580z M1664,416v960
	c0,79.3-28.2,147.2-84.5,203.5S1455.3,1664,1376,1664H416c-79.3,0-147.2-28.2-203.5-84.5S128,1455.3,128,1376V416
	c0-79.3,28.2-147.2,84.5-203.5S336.7,128,416,128h960c79.3,0,147.2,28.2,203.5,84.5S1664,336.7,1664,416z"/>
</svg>
