<?xml version="1.0" encoding="utf-8"?>
<!-- Generator: Adobe Illustrator 21.1.0, SVG Export Plug-In . SVG Version: 6.00 Build 0)  -->
<svg version="1.1" id="Layer_1" xmlns="http://www.w3.org/2000/svg" xmlns:xlink="http://www.w3.org/1999/xlink" x="0px" y="0px"
	 viewBox="0 0 1792 1792" style="enable-background:new 0 0 1792 1792;" xml:space="preserve">
<style type="text/css">
	.st0{fill:#D00021;}
</style>
<path class="st0" d="M1268,1561c0,45.3-16,84-48,116s-70.7,48-116,48s-84.2-16-116.5-48s-48.5-70.7-48.5-116s16.2-84.2,48.5-116.5
	s71.2-48.5,116.5-48.5s84,16.2,116,48.5S1268,1515.7,1268,1561z M519,1561c0,45.3-16.2,84-48.5,116s-71.2,48-116.5,48s-84-16-116-48
	s-48-70.7-48-116s16-84.2,48-116.5s70.7-48.5,116-48.5s84.2,16.2,116.5,48.5S519,1515.7,519,1561z M-256,67
	c38,40,74.8,74.8,110.5,104.5s76,57,121,82s90.3,46,136,63s101,32.2,166,45.5s131.7,23.8,200,31.5s151.7,13.8,250,18.5
	s199.7,7.8,304,9.5S1260,424,1404,424c92.7,0,174.2,1.7,244.5,5s130.7,8.8,181,16.5s91.7,16.8,124,27.5s56,23.8,71,39.5
	s23,32.8,24,51.5s-5.5,40-19.5,64s-32.8,49.5-56.5,76.5s-53.5,57.3-89.5,91S1808.3,864,1767,900s-87.7,75.7-139,119
	c-123.3,104.7-218.7,187-286,247c19.3-34,44.8-70.3,76.5-109s63-73.8,94-105.5c31-31.7,62.5-64.5,94.5-98.5s59.7-64.5,83-91.5
	s41.3-53.8,54-80.5s17-50,13-70s-19.2-38.5-45.5-55.5s-65.2-30.7-116.5-41s-119.3-18.2-204-23.5s-186-7-304-5
	c-112,1.3-216.7-0.7-314-6s-182.7-13-256-23s-141.5-23.7-204.5-41S196.3,481.5,153,464.5S68.8,426.7,30.5,402s-68.8-46.8-91.5-66.5
	s-45.3-43.5-68-71.5s-39.5-51.2-50.5-69.5s-24.3-41-40-68S-247.3,79.7-256,67z"/>
</svg>
