<?xml version="1.0" encoding="utf-8"?>
<!-- Generator: Adobe Illustrator 21.1.0, SVG Export Plug-In . SVG Version: 6.00 Build 0)  -->
<svg version="1.1" id="Layer_1" xmlns="http://www.w3.org/2000/svg" xmlns:xlink="http://www.w3.org/1999/xlink" x="0px" y="0px"
	 viewBox="0 0 1792 1792" style="enable-background:new 0 0 1792 1792;" xml:space="preserve">
<style type="text/css">
	.st0{fill:#D00021;}
</style>
<path class="st0" d="M226,1675c-5.3,10.7-14.3,22.2-27,34.5s-25,20.8-37,25.5c-16.7,6-33.8,4.8-51.5-3.5S83.3,1712.7,82,1700
	c-0.7-14.7,12.7-33,40-55s50-34.7,68-38c15.3-2.7,26.7,4.5,34,21.5S232,1661,226,1675z M1567,1675c4.7,10.7,13.3,22.2,26,34.5
	s25.3,20.8,38,25.5c16.7,6,33.8,4.8,51.5-3.5s26.8-18.8,27.5-31.5c1.3-14.7-11.8-33-39.5-55s-50.5-34.7-68.5-38
	c-14.7-2.7-25.7,4.5-33,21.5S1561,1661,1567,1675z M1615,1566c8.7,18,27.5,37.8,56.5,59.5s54.8,35.5,77.5,41.5
	c30,8.7,57.3,7.2,82-4.5s37-28.5,37-50.5c0-30.7-22.5-64.2-67.5-100.5s-83.5-56.2-115.5-59.5c-26.7-3.3-47.8,9.2-63.5,37.5
	S1603.7,1543.3,1615,1566z M176,1566c-8.7,18-27.3,37.8-56,59.5S65.7,1661,43,1667c-30,8.7-57.3,7.2-82-4.5s-37-28.5-37-50.5
	c0-30.7,22.5-64.2,67.5-100.5S75,1455.3,107,1452c26.7-3.3,47.7,9.2,63,37.5S187.3,1543.3,176,1566z M906,442h1
	c-27.3,0-52.7,5-76,15c18,5.3,32.7,15.5,44,30.5s17,31.5,17,49.5c0,23.3-9,43.3-27,60s-39.7,25-65,25c-34.7,0-61.3-14.3-80-43
	c-3.3,15.3-5,29.3-5,42c0,49.3,18.7,91.5,56,126.5S853.3,800,906,800c53.3,0,98.7-17.5,136-52.5c37.3-35,56-77.2,56-126.5
	s-18.7-91.5-56-126.5C1004.7,459.5,959.3,442,906,442z M1210,224c-66-72.7-139.5-116.5-220.5-131.5S826.7,92.3,744,137
	c18-40,45.5-72.2,82.5-96.5S902.8,3,944.5,1s82.2,3.7,121.5,17s72.5,38.2,99.5,74.5S1207.3,172.7,1210,224z M1960,1463
	c5.3,7.3,1.7,21.3-11,42c4.7,15.3,7,28.7,7,40c0.7,37.3-14.2,74.8-44.5,112.5s-66.8,68.2-109.5,91.5s-82,35.7-118,37
	c-32,1.3-62.7-5.8-92-21.5s-51.3-37.5-66-65.5c-458,16.7-877.7,16.7-1259,0c-15.3,27.3-37.5,49-66.5,65s-59.8,23.3-92.5,22
	c-57.3-2-117.2-28.8-179.5-80.5s-93.2-105.2-92.5-160.5c1.3-14.7,3.7-28,7-40c-12.7-20.7-16.3-34.7-11-42c4-6.7,14.3-7,31-1
	c9.3-14.7,23-31.7,41-51c-4.7-19.3-4-32,2-38c7.3-6.7,20.3-5.3,39,4c19.3-13.3,39-24.7,59-34c0-19.3,4.3-31.7,13-37
	c15.3-8,32.3-2.7,51,16c23.3-3.3,43.7-2.7,61,2c12,2.7,24.7,9,38,19v-73c-7.3,0-13.3-0.7-18-2c-35.3-6.7-67.7-21.5-97-44.5
	S4.3,1171.3-3,1136c-6-25.3-6-52.3,0-81c10-41.3,41-73,93-95c1.3-11.3,7.7-23.2,19-35.5s23.3-20.2,36-23.5s23.7-0.8,33,7.5
	s15.7,18.5,19,30.5h13c30.7,3.3,50.7,11,60,23c2,2,3.7,4.3,5,7c6.7-0.7,16.8-1.8,30.5-3.5s23.8-2.8,30.5-3.5c-10-7.3-20-13-30-17
	c-15.3-26.7-45.7-41-91-43c0-4,0.3-7.3,1-10c-41.3-1.3-80.8-7.5-118.5-18.5S31.7,846.7,13,826c-21.3-24-35.5-54.7-42.5-92
	s-7.8-74.7-2.5-112c10.7-84,40.7-143.7,90-179c15.3-10.7,32.7-12.2,52-4.5s30,21.2,32,40.5c0,0.7,0.5,5.3,1.5,14s1.8,15.7,2.5,21
	s1.7,12,3,20s3.2,14.3,5.5,19s5.2,8,8.5,10c18,9.3,43.3,13.3,76,12c32-30.7,64.7-55.3,98-74c-26.7-2.7-80.7,2-162,14l47-46
	c40.7-38.7,95-75.7,163-111c96.7-48.7,190.7-77.3,282-86c-13.3-5.3-27-10.5-41-15.5s-29.7-9.7-47-14s-31.5-7.8-42.5-10.5
	s-26.8-6.3-47.5-11s-35-8-43-10c396.7-84,698-37.7,904,139c65.3,56,118,130,158,222c56.7,6.7,97,3.7,121-9h1c3.3-2,6.2-5.3,8.5-10
	s4.2-11,5.5-19s2.3-14.5,3-19.5s1.7-12.2,3-21.5l1-14c2-18.7,12.7-32,32-40s36.7-6.3,52,5c48.7,34.7,79,94,91,178
	c4.7,38,3.5,75.7-3.5,113s-21.2,67.7-42.5,91c-18.7,21.3-46.5,37.5-83.5,48.5S1621,891.7,1581,893v10c-47.3,1.3-79,15.7-95,43
	c-9.3,3.3-19.7,9-31,17c7.3,0.7,18,1.8,32,3.5s24,2.8,30,3.5c0.7-2.7,2.3-5.3,5-8c10.7-12,30.7-19.7,60-23h13c3.3-12,9.7-22,19-30
	s20.3-10.7,33-8s24.7,10.3,36,23s17.7,24.7,19,36c52.7,21.3,83.7,53,93,95c6,26.7,6.3,53.7,1,81c-8,35.3-26.7,64.7-56,88
	s-61.7,38-97,44c-6.7,1.3-12.3,2-17,2c0,32.7-0.3,57-1,73c13.3-10,26-16.3,38-19c17.3-4.7,37.7-5.3,61-2c18.7-18.7,35.7-24,51-16
	c9.3,6,14,18.3,14,37c22,10.7,41.7,22,59,34c18-8.7,30.7-10,38-4c6.7,6.7,7.3,19.3,2,38c18.7,20,32.3,37,41,51
	C1944.3,1456.7,1954.7,1457,1960,1463z M1685,511c0,19.3-3,37.3-9,54c54.7,21.3,92,65.3,112,132c2.7-24.7-0.5-57.5-9.5-98.5
	s-22.8-71.2-41.5-90.5c-13.3-12.7-25.3-18.3-36-17S1685,499,1685,511z M1607,611c23.3,28,39.2,64.2,47.5,108.5s8.2,85.8-0.5,124.5
	c44.7-8.7,77-23.7,97-45c8.7-9.3,14.7-18.7,18-28c-2-42.7-12.3-80.8-31-114.5s-45-55.8-79-66.5C1649,600,1631.7,607,1607,611z
	 M1570,615c-20,0-34.7-0.3-44-1c28,76.7,45.7,156.3,53,239c14,0,28.3-1,43-3c10.7-45.3,11-90.3,1-135S1595.3,637,1570,615z M6,697
	c20-66.7,57.3-110.7,112-132c-6-16.7-9-34.7-9-54c0-12-5.5-18.7-16.5-20s-22.8,4.3-35.5,17c-18.7,19.3-32.5,49.5-41.5,90.5
	S3.3,672.3,6,697z M42,799c19.3,20.7,51.7,35.7,97,45c-8.7-38.7-8.8-80.2-0.5-124.5S162.7,639,186,611c-24.7-4-42-11-52-21
	c-34,10.7-60.2,32.7-78.5,66S26.7,727.7,24,771C30,782.3,36,791.7,42,799z M219,853c9.3-82.7,33.7-161,73-235
	c-12.7,2.7-31,8.7-55,18l-45,19v-1c-30.7,59.3-37.3,124.7-20,196C188.7,852,204.3,853,219,853z M1182,892
	c5.3,25.3,10.8,61.5,16.5,108.5s9.5,76.8,11.5,89.5c2,12,5.2,19.2,9.5,21.5s12.2,0.8,23.5-4.5c26.7-13.3,47.3-41.8,62-85.5
	c14.7-43.7,22.3-85.5,23-125.5C1312,894.7,1263.3,893.3,1182,892z M900,251c-77.3,0-143.7,27.5-199,82.5S618,454.7,618,532
	c0,78,27.7,144.5,83,199.5S822.7,814,900,814s143.7-27.5,199-82.5s83-121.5,83-199.5c0-77.3-27.7-143.5-83-198.5S977.3,251,900,251z
	 M1128,890c-70.7-1.3-141-1.3-211,0v-1c-0.7,18,0.2,46.7,2.5,86s6.8,61.3,13.5,66c19.3,9.3,50.5,14.2,93.5,14.5s74.8-3.2,95.5-10.5
	c6-2,9.7-15,11-39s1.2-47.2-0.5-69.5S1129.3,898.7,1128,890z M860,1089c5.3-2.7,8.5-18.7,9.5-48c1-29.3,0.8-58.7-0.5-88
	s-2.7-50.3-4-63v-1c-141.3,2-212.7,3-214,3c-2.7,13.3-5,34-7,62s-2,55.7,0,83c2,27.3,6.7,42.7,14,46c22.7,10,56.3,15.3,101,16
	S837.3,1096.3,860,1089z M466,900c-10.7,39.3-9.2,78.8,4.5,118.5c13.7,39.7,39.5,67.8,77.5,84.5c10,5.3,18,7,24,5s10-9,12-21
	c2-10.7,4.7-40.7,8-90c3.3-49.3,6.7-83.7,10-103C556,895.3,510.7,897.3,466,900z M339,1026c2,15.3-9.3,27.3-34,36
	c88,94,178.5,174,271.5,240s194.8,117.3,305.5,154c114.7-32.7,218.2-81.3,310.5-146s190.2-148,293.5-250c-22-8.7-32-20-30-34l3-9v-1
	v1c-11.3-1.3-28-3.2-50-5.5s-38-3.8-48-4.5c-17.3,60-44.7,104-82,132c-34,25.3-61.3,25-82-1c-3.3-4-6.3-8.7-9-14
	c-4.7-8.7-10.3-29.3-17-62c-1.3,3.3-3,6.3-5,9s-4.5,5-7.5,7s-5.7,3.8-8,5.5s-5.5,3-9.5,4l-10,2.5l-12,2l-12,1.5l-13.5,1l-13.5,0.5
	c-70.7,6-125,2.3-163-11c-2.7,11.3-6,20.2-10,26.5s-11,11.3-21,15s-17.7,6-23,7s-17.3,2.2-36,3.5c-1.3,0-2.3,0.2-3,0.5
	s-1.7,0.5-3,0.5h-3c-119.3,11.3-187-2-203-40c-1.3,42-20,60-56,54c-31.3-5.3-61.7-23.3-91-54c-8-8.7-14.7-17.3-20-26
	c-11.3-19.3-20-41-26-65c-38.7,4-67.7,7.3-87,10C335.7,1017.3,337,1020.7,339,1026z M255,1654c2-9.3,3-19.3,3-30
	c-11.3-47.3-28.3-90.7-51-130s-47-62.7-73-70c-27.3-8-61.2-3.2-101.5,14.5s-75.2,44.3-104.5,80s-42.3,71.5-39,107.5
	c23.3,35.3,56.7,66.3,100,93s83,40.7,119,42c34,1.3,65.3-8,94-28S248.3,1686.7,255,1654z M258,1483c15.3,42,24.3,81.7,27,119
	c130-75.3,260.7-133.3,392-174c-65.3-34.7-125.5-74.7-180.5-120S381.7,1207.7,317,1143c-4,2.7-13.7,7-29,13c0,1.3-0.3,3-1,5
	s-1,3.3-1,4c20.7,12,28,24.3,22,37c-8,15.3-26.7,26.7-56,34c-6.7,8.7-16.3,16.7-29,24h-1c-1.3,55.3-1,105.3,1,150
	C235.7,1432.7,247.3,1457,258,1483z M327,1649c354.7,14,736.3,14,1145,0c-169.3-98-312-163.3-428-196c-50.7,23.3-102.7,42.3-156,57
	c-5.3,2-10.7,2-16,0c-43.3-14-86.3-30.3-129-49C604.3,1501,465.7,1563.7,327,1649h-1v1C326.7,1650,327,1649.7,327,1649z M1511,1603
	c2.7-36,12-76,28-120c9.3-25.3,20.3-49,33-71l-1,1c2-51.3,3-102.3,3-153c-10-5.3-20-13.7-30-25c-28-6-46.7-17-56-33
	c-6-13.3,1.3-26,22-38c-1.3-2.7-2-5.7-2-9c-10.7-2.7-20-6.7-28-12c-136,126.7-263.7,221.3-383,284C1229,1466.3,1367,1525,1511,1603z
	 M1903,1626c3.3-36-9.7-71.8-39-107.5s-64-62.3-104-80s-74-22.5-102-14.5c-25.3,7.3-49.5,30.8-72.5,70.5s-40.2,82.8-51.5,129.5
	c0,10.7,1,20.7,3,30c6.7,32.7,24.3,59,53,79s60,29.3,94,28c36-1.3,75.7-15.3,119-42S1879.7,1661.3,1903,1626z"/>
</svg>
