<?xml version="1.0" encoding="utf-8"?>
<!-- Generator: Adobe Illustrator 21.1.0, SVG Export Plug-In . SVG Version: 6.00 Build 0)  -->
<svg version="1.1" id="Layer_1" xmlns="http://www.w3.org/2000/svg" xmlns:xlink="http://www.w3.org/1999/xlink" x="0px" y="0px"
	 viewBox="0 0 1792 1792" style="enable-background:new 0 0 1792 1792;" xml:space="preserve">
<style type="text/css">
	.st0{fill:#D00021;}
</style>
<path class="st0" d="M1600,1240c0,18-3.3,41.5-10,70.5s-13.7,51.8-21,68.5c-14,33.3-54.7,68.7-122,106c-62.7,34-124.7,51-186,51
	c-18,0-35.5-1.2-52.5-3.5s-36.2-6.5-57.5-12.5s-37.2-10.8-47.5-14.5s-28.8-10.5-55.5-20.5c-26.7-10-43-16-49-18
	c-65.3-23.3-123.7-51-175-83c-85.3-52.7-173.5-124.5-264.5-215.5S396.7,989.3,344,904c-32-51.3-59.7-109.7-83-175c-2-6-8-22.3-18-49
	s-16.8-45.2-20.5-55.5S214,598.3,208,577s-10.2-40.5-12.5-57.5S192,485,192,467c0-61.3,17-123.3,51-186c37.3-67.3,72.7-108,106-122
	c16.7-7.3,39.5-14.3,68.5-21s52.5-10,70.5-10c9.3,0,16.3,1,21,3c12,4,29.7,29.3,53,76c7.3,12.7,17.3,30.7,30,54s24.3,44.5,35,63.5
	s21,36.8,31,53.5c2,2.7,7.8,11,17.5,25s16.8,25.8,21.5,35.5s7,19.2,7,28.5c0,13.3-9.5,30-28.5,50s-39.7,38.3-62,55s-43,34.3-62,53
	S523,659,523,671c0,6,1.7,13.5,5,22.5s6.2,15.8,8.5,20.5s7,12.7,14,24s10.8,17.7,11.5,19c50.7,91.3,108.7,169.7,174,235
	s143.7,123.3,235,174c1.3,0.7,7.7,4.5,19,11.5s19.3,11.7,24,14s11.5,5.2,20.5,8.5s16.5,5,22.5,5c12,0,27.3-9.5,46-28.5
	s36.3-39.7,53-62s35-43,55-62s36.7-28.5,50-28.5c9.3,0,18.8,2.3,28.5,7s21.5,11.8,35.5,21.5s22.3,15.5,25,17.5
	c16.7,10,34.5,20.3,53.5,31s40.2,22.3,63.5,35s41.3,22.7,54,30c46.7,23.3,72,41,76,53C1599,1223.7,1600,1230.7,1600,1240z"/>
</svg>
