<?xml version="1.0" encoding="utf-8"?>
<!-- Generator: Adobe Illustrator 21.1.0, SVG Export Plug-In . SVG Version: 6.00 Build 0)  -->
<svg version="1.1" id="Layer_1" xmlns="http://www.w3.org/2000/svg" xmlns:xlink="http://www.w3.org/1999/xlink" x="0px" y="0px"
	 viewBox="0 0 1792 1792" style="enable-background:new 0 0 1792 1792;" xml:space="preserve">
<style type="text/css">
	.st0{fill:#D00021;}
</style>
<path class="st0" d="M1408,1193c0-7.3-0.7-12.7-2-16c-2-5.3-14.8-15.2-38.5-29.5s-53.2-30.8-88.5-49.5l-53-29c-3.3-2-9.7-6.3-19-13
	s-17.7-11.7-25-15s-14.3-5-21-5c-12,0-27.7,10.8-47,32.5s-38.3,43.5-57,65.5s-33.3,33-44,33c-4.7,0-10.2-1.2-16.5-3.5
	S985,1159,981,1157s-9.7-5.2-17-9.5s-12-7.2-14-8.5c-66-36.7-122.8-78.8-170.5-126.5C731.8,964.8,689.7,908,653,842
	c-1.3-2-4.2-6.7-8.5-14s-7.5-13-9.5-17s-4.2-9.2-6.5-15.5S625,783.7,625,779c0-8.7,6.8-19.8,20.5-33.5s28.7-26.5,45-38.5
	s31.3-25.2,45-39.5S756,641,756,631c0-6.7-1.7-13.7-5-21s-8.3-15.7-15-25s-11-15.7-13-19c-2-4-7-13.5-15-28.5s-16.3-30.2-25-45.5
	s-17.5-31.2-26.5-47.5s-17.3-29.8-25-40.5s-13.2-16.7-16.5-18s-8.7-2-16-2c-32,0-65.7,7.3-101,22c-30.7,14-57.3,45.5-80,94.5
	S384,593,384,631c0,10.7,0.8,22,2.5,34s3.3,22.2,5,30.5s4.7,19.3,9,33s7.7,23.5,10,29.5s6.5,17,12.5,33s9.7,26,11,30
	c40,109.3,112.2,216.2,216.5,320.5S861.7,1318,971,1358c4,1.3,14,5,30,11s27,10.2,33,12.5s15.8,5.7,29.5,10s24.7,7.3,33,9
	s18.5,3.3,30.5,5s23.3,2.5,34,2.5c38,0,81.5-11.3,130.5-34s80.5-49.3,94.5-80C1400.7,1258.7,1408,1225,1408,1193z M1664,416v960
	c0,79.3-28.2,147.2-84.5,203.5S1455.3,1664,1376,1664H416c-79.3,0-147.2-28.2-203.5-84.5S128,1455.3,128,1376V416
	c0-79.3,28.2-147.2,84.5-203.5S336.7,128,416,128h960c79.3,0,147.2,28.2,203.5,84.5S1664,336.7,1664,416z"/>
</svg>
