<?xml version="1.0" encoding="utf-8"?>
<!-- Generator: Adobe Illustrator 21.1.0, SVG Export Plug-In . SVG Version: 6.00 Build 0)  -->
<svg version="1.1" id="Layer_1" xmlns="http://www.w3.org/2000/svg" xmlns:xlink="http://www.w3.org/1999/xlink" x="0px" y="0px"
	 viewBox="0 0 1792 1792" style="enable-background:new 0 0 1792 1792;" xml:space="preserve">
<style type="text/css">
	.st0{fill:#D00021;}
</style>
<path class="st0" d="M1728,1098c0,54-14.8,99-44.5,135s-70.8,54-123.5,54c-27.3,0-53.2-5.8-77.5-17.5s-44-24.3-59-38
	s-33.8-26.3-56.5-38s-46.3-17.5-71-17.5c-73.3,0-110,41.3-110,124c0,26,5.3,64.3,16,115s15.7,89,15,115v5c-14.7,0-25.7,0.3-33,1
	c-22.7,2-55.2,5.8-97.5,11.5s-80.8,10.2-115.5,13.5s-67.3,5-98,5c-40.7,0-75-8.8-103-26.5s-42-45.5-42-83.5c0-24.7,5.8-48.3,17.5-71
	s24.3-41.5,38-56.5s26.3-34.7,38-59s17.5-50.2,17.5-77.5c0-52.7-18-93.8-54-123.5s-81-44.5-135-44.5c-56,0-103.7,15.2-143,45.5
	s-59,72.8-59,127.5c0,28.7,5,56.3,15,83s21.2,48.2,33.5,64.5s23.5,34,33.5,53s15,35.8,15,50.5c0,30-15.3,59.7-46,89
	c-24.7,23.3-63.7,35-117,35c-63.3,0-145-8-245-24c-6-1.3-15.2-2.7-27.5-4s-21.5-2.7-27.5-4l-13-2c-0.7,0-1.7-0.3-3-1
	c-1.3,0-2-0.3-2-1V512c1.3,0.7,7.2,1.8,17.5,3.5s21.7,3.3,34,5s19.5,2.8,21.5,3.5c100,16,181.7,24,245,24c53.3,0,92.3-11.7,117-35
	c30.7-29.3,46-59,46-89c0-14.7-5-31.5-15-50.5s-21.2-36.7-33.5-53S473,282.7,463,256s-15-54.3-15-83c0-54.7,19.7-97.2,59-127.5
	S594.3,0,651,0c53.3,0,98,14.8,134,44.5s54,70.8,54,123.5c0,27.3-5.8,53.2-17.5,77.5s-24.3,44-38,59s-26.3,33.8-38,56.5
	S728,407.3,728,432c0,38,14,65.8,42,83.5S832.3,542,873,542c42.7,0,102.7-5,180-15s131.7-15.7,163-17v2c-0.7,1.3-1.8,7.2-3.5,17.5
	s-3.3,21.7-5,34s-2.8,19.5-3.5,21.5c-16,100-24,181.7-24,245c0,53.3,11.7,92.3,35,117c29.3,30.7,59,46,89,46c14.7,0,31.5-5,50.5-15
	s36.7-21.2,53-33.5s37.8-23.5,64.5-33.5s54.3-15,83-15c54.7,0,97.2,19.7,127.5,59S1728,1042,1728,1098z"/>
</svg>
