<?xml version="1.0" encoding="utf-8"?>
<!-- Generator: Adobe Illustrator 21.1.0, SVG Export Plug-In . SVG Version: 6.00 Build 0)  -->
<svg version="1.1" id="Layer_1" xmlns="http://www.w3.org/2000/svg" xmlns:xlink="http://www.w3.org/1999/xlink" x="0px" y="0px"
	 viewBox="0 0 1792 1792" style="enable-background:new 0 0 1792 1792;" xml:space="preserve">
<style type="text/css">
	.st0{fill:#D00021;}
</style>
<path class="st0" d="M1067,1129c8.7,8.7,8.7,17.3,0,26c-35.3,35.3-92.3,53-171,53s-135.7-17.7-171-53c-8.7-8.7-8.7-17.3,0-26
	c3.3-4,7.7-6,13-6s9.7,2,13,6c28,28,76.3,42,145,42s117-14,145-42c3.3-4,7.7-6,13-6S1063.7,1125,1067,1129z M804,973
	c0,20.7-7.7,38.7-23,54c-15.3,15.3-33.3,23-54,23s-38.7-7.7-54-23c-15.3-15.3-23-33.3-23-54c0-21.3,7.5-39.5,22.5-54.5
	S705.7,896,727,896s39.5,7.5,54.5,22.5S804,951.7,804,973z M1142,973c0,20.7-7.7,38.7-23,54c-15.3,15.3-33.3,23-54,23
	s-38.7-7.7-54-23c-15.3-15.3-23-33.3-23-54c0-21.3,7.5-39.5,22.5-54.5s33.2-22.5,54.5-22.5s39.5,7.5,54.5,22.5S1142,951.7,1142,973z
	 M1357,870c0-28-10-52-30-72s-44.3-30-73-30c-28,0-52.3,10.3-73,31c-75.3-52-164.3-79.3-267-82l54-243l171,39
	c0.7,21.3,8.5,39.3,23.5,54s32.8,22,53.5,22c21.3,0,39.5-7.5,54.5-22.5s22.5-33.2,22.5-54.5s-7.5-39.5-22.5-54.5
	S1237.3,435,1216,435c-32,0-55,14.3-69,43l-189-42c-11.3-3.3-18.3,1-21,13l-60,268c-102.7,4-191,31.7-265,83c-20-21.3-44.7-32-74-32
	c-28.7,0-53,10-73,30s-30,44-30,72c0,20,5.3,38.3,16,55s24.7,29.3,42,38c-3.3,16.7-5,32.7-5,48c0,81.3,40,150.8,120,208.5
	s176.3,86.5,289,86.5c113.3,0,210-28.8,290-86.5s120-127.2,120-208.5c0-16.7-2-33-6-49c16.7-8.7,30.2-21.2,40.5-37.5
	S1357,890,1357,870z M1664,416v960c0,79.3-28.2,147.2-84.5,203.5S1455.3,1664,1376,1664H416c-79.3,0-147.2-28.2-203.5-84.5
	S128,1455.3,128,1376V416c0-79.3,28.2-147.2,84.5-203.5S336.7,128,416,128h960c79.3,0,147.2,28.2,203.5,84.5S1664,336.7,1664,416z"
	/>
</svg>
