<?xml version="1.0" encoding="utf-8"?>
<!-- Generator: Adobe Illustrator 21.1.0, SVG Export Plug-In . SVG Version: 6.00 Build 0)  -->
<svg version="1.1" id="Layer_1" xmlns="http://www.w3.org/2000/svg" xmlns:xlink="http://www.w3.org/1999/xlink" x="0px" y="0px"
	 viewBox="0 0 1792 1792" style="enable-background:new 0 0 1792 1792;" xml:space="preserve">
<style type="text/css">
	.st0{fill:#D00021;}
</style>
<path class="st0" d="M1792,846c0,38.7-9.8,73.8-29.5,105.5s-46.2,55.8-79.5,72.5c8,30.7,12,62.7,12,96c0,103.3-35.5,199-106.5,287
	s-167.8,157.5-290.5,208.5s-256,76.5-400,76.5s-277.2-25.5-399.5-76.5s-219-120.5-290-208.5S102,1223.3,102,1120
	c0-31.3,3.7-62.7,11-94c-34-16.7-61.3-41.2-82-73.5S0,884.7,0,846c0-54.7,19.3-101.5,58-140.5S143.7,647,199,647
	c56.7,0,105,21,145,63c145.3-101.3,317-155.3,515-162L975,27c2-8.7,7-15.7,15-21s16.7-7,26-5l369,81c12-24.7,30-44.5,54-59.5
	S1489.3,0,1518,0c41.3,0,76.7,14.5,106,43.5s44,64.2,44,105.5s-14.7,76.7-44,106s-64.7,44-106,44s-76.5-14.5-105.5-43.5
	S1369,191.3,1369,150l-334-74L931,548c200,6,373,59.3,519,160c38.7-40.7,86.3-61,143-61c55.3,0,102.3,19.5,141,58.5
	S1792,791.3,1792,846z M418,1045c0,41.3,14.5,76.7,43.5,106s64.2,44,105.5,44s76.7-14.7,106-44s44-64.7,44-106
	c0-41.3-14.7-76.5-44-105.5S608.3,896,567,896c-40.7,0-75.7,14.7-105,44S418,1004.3,418,1045z M1228,1400c7.3-7.3,11-16,11-26
	s-3.7-18.7-11-26c-6.7-6.7-15-10-25-10s-18.7,3.3-26,10c-27.3,28-67.7,48.7-121,62c-53.3,13.3-106.7,20-160,20s-106.7-6.7-160-20
	s-93.7-34-121-62c-7.3-6.7-16-10-26-10s-18.3,3.3-25,10c-7.3,6.7-11,15.2-11,25.5s3.7,19.2,11,26.5c28.7,28.7,68.2,51.3,118.5,68
	s91.2,26.5,122.5,29.5s61.7,4.5,91,4.5s59.7-1.5,91-4.5s72.2-12.8,122.5-29.5S1199.3,1428.7,1228,1400z M1225,1195
	c41.3,0,76.5-14.7,105.5-44s43.5-64.7,43.5-106c0-40.7-14.7-75.7-44-105s-64.3-44-105-44c-41.3,0-76.7,14.5-106,43.5
	s-44,64.2-44,105.5c0,41.3,14.7,76.7,44,106S1183.7,1195,1225,1195z"/>
</svg>
