<?xml version="1.0" encoding="utf-8"?>
<!-- Generator: Adobe Illustrator 21.1.0, SVG Export Plug-In . SVG Version: 6.00 Build 0)  -->
<svg version="1.1" id="Layer_1" xmlns="http://www.w3.org/2000/svg" xmlns:xlink="http://www.w3.org/1999/xlink" x="0px" y="0px"
	 viewBox="0 0 1792 1792" style="enable-background:new 0 0 1792 1792;" xml:space="preserve">
<style type="text/css">
	.st0{fill:#D00021;}
</style>
<path class="st0" d="M1042,703c0-58.7-20-99-60-121c-22-12-61-18-117-18H742v281h162c44,0,78-12.3,102-37S1042,748.3,1042,703z
	 M1094,988l205,373c5.3,11.3,5,21.7-1,31c-5.3,10.7-14.3,16-27,16h-152c-13.3,0-22.7-5.7-28-17l-194-365H742v350c0,9.3-3,17-9,23
	s-13.7,9-23,9H576c-9.3,0-17-3-23-9s-9-13.7-9-23V416c0-9.3,3-17,9-23s13.7-9,23-9h294c85.3,0,148.7,8,190,24
	c56.7,20.7,101.3,57,134,109s49,112,49,180c0,61.3-14.2,116.5-42.5,165.5S1133.7,948,1085,972C1089,978.7,1092,984,1094,988z
	 M896,160c-100,0-195.3,19.5-286,58.5s-168.8,91.3-234.5,157s-118,143.8-157,234.5S160,796,160,896s19.5,195.3,58.5,286
	s91.3,168.8,157,234.5s143.8,118,234.5,157s186,58.5,286,58.5s195.3-19.5,286-58.5s168.8-91.3,234.5-157s118-143.8,157-234.5
	s58.5-186,58.5-286s-19.5-195.3-58.5-286s-91.3-168.8-157-234.5s-143.8-118-234.5-157S996,160,896,160z M1792,896
	c0,121.3-23.7,237.3-71,348s-111,206-191,286s-175.3,143.7-286,191s-226.7,71-348,71s-237.3-23.7-348-71s-206-111-286-191
	s-143.7-175.3-191-286S0,1017.3,0,896s23.7-237.3,71-348s111-206,191-286S437.3,118.3,548,71S774.7,0,896,0s237.3,23.7,348,71
	s206,111,286,191s143.7,175.3,191,286S1792,774.7,1792,896z"/>
</svg>
