<?xml version="1.0" encoding="utf-8"?>
<!-- Generator: Adobe Illustrator 21.1.0, SVG Export Plug-In . SVG Version: 6.00 Build 0)  -->
<svg version="1.1" id="Layer_1" xmlns="http://www.w3.org/2000/svg" xmlns:xlink="http://www.w3.org/1999/xlink" x="0px" y="0px"
	 viewBox="0 0 1792 1792" style="enable-background:new 0 0 1792 1792;" xml:space="preserve">
<style type="text/css">
	.st0{fill:#D00021;}
</style>
<path class="st0" d="M1299,565c0-66.7-21.7-120.7-65-162s-100.3-62-171-62H743v448h320c70.7,0,127.7-20.7,171-62
	S1299,631.7,1299,565z M1536,565c0,128.7-42.2,233.7-126.5,315s-193.2,122-326.5,122H743v118h505c9.3,0,17,3,23,9s9,13.7,9,23v128
	c0,9.3-3,17-9,23s-13.7,9-23,9H743v192c0,9.3-3.2,17-9.5,23s-13.8,9-22.5,9H544c-9.3,0-17-3-23-9s-9-13.7-9-23v-192H288
	c-9.3,0-17-3-23-9s-9-13.7-9-23v-128c0-9.3,3-17,9-23s13.7-9,23-9h224v-118H288c-9.3,0-17-3-23-9s-9-13.7-9-23V821
	c0-8.7,3-16.2,9-22.5s13.7-9.5,23-9.5h224V160c0-9.3,3-17,9-23s13.7-9,23-9h539c133.3,0,242.2,40.7,326.5,122S1536,436.3,1536,565z"
	/>
</svg>
