<?xml version="1.0" encoding="utf-8"?>
<!-- Generator: Adobe Illustrator 21.1.0, SVG Export Plug-In . SVG Version: 6.00 Build 0)  -->
<svg version="1.1" id="Layer_1" xmlns="http://www.w3.org/2000/svg" xmlns:xlink="http://www.w3.org/1999/xlink" x="0px" y="0px"
	 viewBox="0 0 1792 1792" style="enable-background:new 0 0 1792 1792;" xml:space="preserve">
<style type="text/css">
	.st0{fill:#D00021;}
</style>
<path class="st0" d="M1764,11c22,16,31,37.3,27,64l-256,1536c-3.3,19.3-14,34.3-32,45c-9.3,5.3-19.7,8-31,8c-7.3,0-15.3-1.7-24-5
	l-527-215l-298,327c-12,14-27.7,21-47,21c-9.3,0-17-1.3-23-4c-12.7-4.7-22.7-12.5-30-23.5s-11-23.2-11-36.5v-452L40,1083
	c-24.7-9.3-38-27.7-40-55c-2-26,8.7-45.7,32-59L1696,9C1719.3-5,1742-4.3,1764,11z M1422,1510l221-1323L209,1014l336,137l863-639
	l-478,797L1422,1510z"/>
</svg>
