<?xml version="1.0" encoding="utf-8"?>
<!-- Generator: Adobe Illustrator 21.1.0, SVG Export Plug-In . SVG Version: 6.00 Build 0)  -->
<svg version="1.1" id="Layer_1" xmlns="http://www.w3.org/2000/svg" xmlns:xlink="http://www.w3.org/1999/xlink" x="0px" y="0px"
	 viewBox="0 0 1792 1792" style="enable-background:new 0 0 1792 1792;" xml:space="preserve">
<style type="text/css">
	.st0{fill:#D00021;}
</style>
<path class="st0" d="M1764,11c22,16,31,37.3,27,64l-256,1536c-3.3,19.3-14,34.3-32,45c-9.3,5.3-19.7,8-31,8c-7.3,0-15.3-1.7-24-5
	l-453-185l-242,295c-12,15.3-28.3,23-49,23c-8.7,0-16-1.3-22-4c-12.7-4.7-22.8-12.5-30.5-23.5S640,1741.3,640,1728v-349l864-1059
	L435,1245L40,1083c-24.7-9.3-38-27.7-40-55c-1.3-26.7,9.3-46.3,32-59L1696,9c10-6,20.7-9,32-9C1741.3,0,1753.3,3.7,1764,11z"/>
</svg>
