<?xml version="1.0" encoding="utf-8"?>
<!-- Generator: Adobe Illustrator 21.1.0, SVG Export Plug-In . SVG Version: 6.00 Build 0)  -->
<svg version="1.1" id="Layer_1" xmlns="http://www.w3.org/2000/svg" xmlns:xlink="http://www.w3.org/1999/xlink" x="0px" y="0px"
	 viewBox="0 0 1792 1792" style="enable-background:new 0 0 1792 1792;" xml:space="preserve">
<style type="text/css">
	.st0{fill:#D00021;}
</style>
<path class="st0" d="M128,1408h1024v-128H128V1408z M128,896h1024V768H128V896z M1696,1344c0-26.7-9.3-49.3-28-68s-41.3-28-68-28
	s-49.3,9.3-68,28s-28,41.3-28,68s9.3,49.3,28,68s41.3,28,68,28s49.3-9.3,68-28S1696,1370.7,1696,1344z M128,384h1024V256H128V384z
	 M1696,832c0-26.7-9.3-49.3-28-68s-41.3-28-68-28s-49.3,9.3-68,28s-28,41.3-28,68s9.3,49.3,28,68s41.3,28,68,28s49.3-9.3,68-28
	S1696,858.7,1696,832z M1696,320c0-26.7-9.3-49.3-28-68s-41.3-28-68-28s-49.3,9.3-68,28s-28,41.3-28,68s9.3,49.3,28,68
	s41.3,28,68,28s49.3-9.3,68-28S1696,346.7,1696,320z M1792,1152v384H0v-384H1792z M1792,640v384H0V640H1792z M1792,128v384H0V128
	H1792z"/>
</svg>
