<?xml version="1.0" encoding="utf-8"?>
<!-- Generator: Adobe Illustrator 21.1.0, SVG Export Plug-In . SVG Version: 6.00 Build 0)  -->
<svg version="1.1" id="Layer_1" xmlns="http://www.w3.org/2000/svg" xmlns:xlink="http://www.w3.org/1999/xlink" x="0px" y="0px"
	 viewBox="0 0 1792 1792" style="enable-background:new 0 0 1792 1792;" xml:space="preserve">
<style type="text/css">
	.st0{fill:#D00021;}
</style>
<path class="st0" d="M1344,1024c88.7,0,164.2,31.2,226.5,93.5s93.5,137.8,93.5,226.5s-31.2,164.2-93.5,226.5S1432.7,1664,1344,1664
	s-164.2-31.2-226.5-93.5S1024,1432.7,1024,1344c0-8,0.7-19.3,2-34l-360-180c-61.3,57.3-134,86-218,86c-88.7,0-164.2-31.2-226.5-93.5
	S128,984.7,128,896s31.2-164.2,93.5-226.5S359.3,576,448,576c84,0,156.7,28.7,218,86l360-180c-1.3-14.7-2-26-2-34
	c0-88.7,31.2-164.2,93.5-226.5S1255.3,128,1344,128s164.2,31.2,226.5,93.5S1664,359.3,1664,448s-31.2,164.2-93.5,226.5
	S1432.7,768,1344,768c-84,0-156.7-28.7-218-86L766,862c1.3,14.7,2,26,2,34s-0.7,19.3-2,34l360,180
	C1187.3,1052.7,1260,1024,1344,1024z"/>
</svg>
