<?xml version="1.0" encoding="utf-8"?>
<!-- Generator: Adobe Illustrator 21.1.0, SVG Export Plug-In . SVG Version: 6.00 Build 0)  -->
<svg version="1.1" id="Layer_1" xmlns="http://www.w3.org/2000/svg" xmlns:xlink="http://www.w3.org/1999/xlink" x="0px" y="0px"
	 viewBox="0 0 1792 1792" style="enable-background:new 0 0 1792 1792;" xml:space="preserve">
<style type="text/css">
	.st0{fill:#D00021;}
</style>
<path class="st0" d="M1133,1101l352-352c12.7-12.7,19-27.7,19-45s-6.3-32.3-19-45l-352-352c-20-20.7-43-25.3-69-14
	c-26.7,11.3-40,31-40,59v160c-79.3,0-151.3,6.5-216,19.5s-118.8,30-162.5,51s-81.7,47.3-114,79S473.7,725,455,757
	s-33.5,68.3-44.5,109s-18.2,77.8-21.5,111.5s-5,70.5-5,110.5c0,120.7,55.7,255.3,167,404c6.7,8,15,12,25,12c4.7,0,9-1,13-3
	c14.7-6,21-17,19-33c-29.3-236-8.7-393.7,62-473c30.7-34.7,74-59.8,130-75.5S930.7,896,1024,896v160c0,28,13.3,47.7,40,59
	c8,3.3,16,5,24,5C1105.3,1120,1120.3,1113.7,1133,1101z M1664,416v960c0,79.3-28.2,147.2-84.5,203.5S1455.3,1664,1376,1664H416
	c-79.3,0-147.2-28.2-203.5-84.5S128,1455.3,128,1376V416c0-79.3,28.2-147.2,84.5-203.5S336.7,128,416,128h960
	c79.3,0,147.2,28.2,203.5,84.5S1664,336.7,1664,416z"/>
</svg>
