<?xml version="1.0" encoding="utf-8"?>
<!-- Generator: Adobe Illustrator 21.1.0, SVG Export Plug-In . SVG Version: 6.00 Build 0)  -->
<svg version="1.1" id="Layer_1" xmlns="http://www.w3.org/2000/svg" xmlns:xlink="http://www.w3.org/1999/xlink" x="0px" y="0px"
	 viewBox="0 0 1792 1792" style="enable-background:new 0 0 1792 1792;" xml:space="preserve">
<style type="text/css">
	.st0{fill:#D00021;}
</style>
<path class="st0" d="M735,1032c0-74.7-26.5-138.5-79.5-191.5S538.7,761,464,761s-138.3,26.5-191,79.5s-79,116.8-79,191.5
	s26.3,138.3,79,191s116.3,79,191,79s138.5-26.3,191.5-79S735,1106.7,735,1032z M1598,1031c0-74.7-26.3-138.3-79-191
	s-116.3-79-191-79s-138.5,26.3-191.5,79s-79.5,116.3-79.5,191c0,75.3,26.5,139.3,79.5,192s116.8,79,191.5,79s138.3-26.5,191-79.5
	S1598,1105.7,1598,1031z M1920,222v1348c0,29.3-10.5,54.5-31.5,75.5S1842,1677,1812,1677H-20c-30,0-55.5-10.5-76.5-31.5
	s-31.5-46.2-31.5-75.5V222c0-29.3,10.5-54.5,31.5-75.5S-50,115-20,115h431c29.3,0,54.7,10.5,76,31.5s32,46.2,32,75.5v161h754V222
	c0-29.3,10.7-54.5,32-75.5s46.7-31.5,76-31.5h431c30,0,55.5,10.5,76.5,31.5S1920,192.7,1920,222z"/>
</svg>
