<?xml version="1.0" encoding="utf-8"?>
<!-- Generator: Adobe Illustrator 21.1.0, SVG Export Plug-In . SVG Version: 6.00 Build 0)  -->
<svg version="1.1" id="Layer_1" xmlns="http://www.w3.org/2000/svg" xmlns:xlink="http://www.w3.org/1999/xlink" x="0px" y="0px"
	 viewBox="0 0 1792 1792" style="enable-background:new 0 0 1792 1792;" xml:space="preserve">
<style type="text/css">
	.st0{fill:#D00021;}
</style>
<path class="st0" d="M1583,776c41.3,0,75.8,13.5,103.5,40.5S1728,877.3,1728,918c0,64.7-31,108-93,130l-172,59l56,167
	c4.7,14,7,29.7,7,47c0,39.3-14,73.3-42,102s-61.7,43-101,43c-31.3,0-59.8-9-85.5-27s-43.5-42-53.5-72l-55-165l-310,106l55,164
	c5.3,16,8,31.7,8,47c0,39.3-14,73.3-42,102s-62,43-102,43c-31.3,0-59.7-9-85-27s-43-42-53-72l-55-163l-153,53c-19.3,6-36,9-50,9
	c-40.7,0-74.5-13.3-101.5-40s-40.5-60.3-40.5-101c0-31.3,9.2-59.7,27.5-85s42.2-43,71.5-53l156-53L410,819l-156,54
	c-17.3,5.3-33.3,8-48,8c-40,0-73.7-13.5-101-40.5S64,780,64,740c0-31.3,9.2-59.7,27.5-85s42.2-43,71.5-53l157-53l-53-159
	c-5.3-16-8-31.7-8-47c0-40,14-74.2,42-102.5S363,198,403,198c31.3,0,59.7,9,85,27s43,42,53,72l54,160l310-105l-54-160
	c-5.3-16-8-31.7-8-47c0-39.3,14.2-73.3,42.5-102S947.7,0,987,0c31.3,0,59.8,9.2,85.5,27.5S1116,69.7,1126,99l53,161l162-55
	c14-4,28.3-6,43-6c40,0,74.2,13.2,102.5,39.5s42.5,59.2,42.5,98.5c0,30-10,57.2-30,81.5s-44.7,41.5-74,51.5l-157,54l105,316l164-56
	C1553,778.7,1568.3,776,1583,776z M789,1038l310-105L994,618L684,725L789,1038z"/>
</svg>
