<?xml version="1.0" encoding="utf-8"?>
<!-- Generator: Adobe Illustrator 21.1.0, SVG Export Plug-In . SVG Version: 6.00 Build 0)  -->
<svg version="1.1" id="Layer_1" xmlns="http://www.w3.org/2000/svg" xmlns:xlink="http://www.w3.org/1999/xlink" x="0px" y="0px"
	 viewBox="0 0 1792 1792" style="enable-background:new 0 0 1792 1792;" xml:space="preserve">
<style type="text/css">
	.st0{fill:#D00021;}
</style>
<path class="st0" d="M1255,408h177l-72-218l-12-47c-1.3-10.7-2-17.3-2-20h-4l-3,20c0,0.7-1.2,6.7-3.5,18s-4.8,21-7.5,29L1255,408z
	 M800,1440c0,8-3.3,16-10,24l-319,319c-6.7,6-14.3,9-23,9c-8,0-15.7-3-23-9l-320-320c-10-10.7-12.3-22.3-7-35
	c5.3-13.3,15.3-20,30-20h192V32c0-9.3,3-17,9-23s13.7-9,23-9h192c9.3,0,17,3,23,9s9,13.7,9,23v1376h192c9.3,0,17,3,23,9
	S800,1430.7,800,1440z M1636,1559v233h-584v-90l369-529c8-12,15-21,21-27l11-9v-3c-1.3,0-3.5,0.2-6.5,0.5s-5.5,0.5-7.5,0.5
	c-8,2-18,3-30,3h-232v115h-120v-229h567v89l-369,530c-4,5.3-11,14-21,26l-11,11v2l14-2c6-1.3,16-2,30-2h248v-119H1636z M1725,662
	v106h-288V662h75l-47-144h-243l-47,144h75v106H963V662h70L1263,0h162l230,662H1725z"/>
</svg>
