<?xml version="1.0" encoding="utf-8"?>
<!-- Generator: Adobe Illustrator 21.1.0, SVG Export Plug-In . SVG Version: 6.00 Build 0)  -->
<svg version="1.1" id="Layer_1" xmlns="http://www.w3.org/2000/svg" xmlns:xlink="http://www.w3.org/1999/xlink" x="0px" y="0px"
	 viewBox="0 0 1792 1792" style="enable-background:new 0 0 1792 1792;" xml:space="preserve">
<style type="text/css">
	.st0{fill:#D00021;}
</style>
<path class="st0" d="M526,1394c0,35.3-12.5,65.5-37.5,90.5S433.3,1522,398,1522c-34.7,0-64.7-12.7-90-38s-38-55.3-38-90
	c0-35.3,12.5-65.5,37.5-90.5s55.2-37.5,90.5-37.5s65.5,12.5,90.5,37.5S526,1358.7,526,1394z M1024,1600c0,35.3-12.5,65.5-37.5,90.5
	S931.3,1728,896,1728s-65.5-12.5-90.5-37.5S768,1635.3,768,1600s12.5-65.5,37.5-90.5s55.2-37.5,90.5-37.5s65.5,12.5,90.5,37.5
	S1024,1564.7,1024,1600z M320,896c0,35.3-12.5,65.5-37.5,90.5S227.3,1024,192,1024s-65.5-12.5-90.5-37.5S64,931.3,64,896
	s12.5-65.5,37.5-90.5S156.7,768,192,768s65.5,12.5,90.5,37.5S320,860.7,320,896z M1522,1394c0,34.7-12.7,64.7-38,90s-55.3,38-90,38
	c-35.3,0-65.5-12.5-90.5-37.5s-37.5-55.2-37.5-90.5s12.5-65.5,37.5-90.5s55.2-37.5,90.5-37.5s65.5,12.5,90.5,37.5
	S1522,1358.7,1522,1394z M558,398c0,44-15.7,81.7-47,113s-69,47-113,47s-81.7-15.7-113-47s-47-69-47-113s15.7-81.7,47-113
	s69-47,113-47s81.7,15.7,113,47S558,354,558,398z M1728,896c0,35.3-12.5,65.5-37.5,90.5s-55.2,37.5-90.5,37.5s-65.5-12.5-90.5-37.5
	S1472,931.3,1472,896s12.5-65.5,37.5-90.5s55.2-37.5,90.5-37.5s65.5,12.5,90.5,37.5S1728,860.7,1728,896z M1088,192
	c0,53.3-18.7,98.7-56,136c-37.3,37.3-82.7,56-136,56s-98.7-18.7-136-56s-56-82.7-56-136s18.7-98.7,56-136S842.7,0,896,0
	s98.7,18.7,136,56C1069.3,93.3,1088,138.7,1088,192z M1618,398c0,62-22,114.8-66,158.5s-96.7,65.5-158,65.5
	c-62,0-114.8-21.8-158.5-65.5S1170,460,1170,398c0-61.3,21.8-114,65.5-158s96.5-66,158.5-66c61.3,0,114,22,158,66
	S1618,336.7,1618,398z"/>
</svg>
