<?xml version="1.0" encoding="utf-8"?>
<!-- Generator: Adobe Illustrator 21.1.0, SVG Export Plug-In . SVG Version: 6.00 Build 0)  -->
<svg version="1.1" id="Layer_1" xmlns="http://www.w3.org/2000/svg" xmlns:xlink="http://www.w3.org/1999/xlink" x="0px" y="0px"
	 viewBox="0 0 1792 1792" style="enable-background:new 0 0 1792 1792;" xml:space="preserve">
<style type="text/css">
	.st0{fill:#D00021;}
</style>
<path class="st0" d="M1515,1253v66c0,56.7-19.2,104.8-57.5,144.5S1373,1523,1319,1523h-57l-260,269v-269H473
	c-54,0-100.2-19.8-138.5-59.5S277,1375.7,277,1319v-66H1515z M1515,927v255H277V927H1515z M1515,599v255H277V599H1515z M1515,459v67
	H277v-67c0-56,19.2-103.8,57.5-143.5S419,256,473,256h846c54,0,100.2,19.8,138.5,59.5S1515,403,1515,459z"/>
</svg>
