<?xml version="1.0" encoding="utf-8"?>
<!-- Generator: Adobe Illustrator 21.1.0, SVG Export Plug-In . SVG Version: 6.00 Build 0)  -->
<svg version="1.1" id="Layer_1" xmlns="http://www.w3.org/2000/svg" xmlns:xlink="http://www.w3.org/1999/xlink" x="0px" y="0px"
	 viewBox="0 0 1792 1792" style="enable-background:new 0 0 1792 1792;" xml:space="preserve">
<style type="text/css">
	.st0{fill:#D00021;}
</style>
<path class="st0" d="M1760,896c9.3,0,17,3,23,9s9,13.7,9,23v64c0,9.3-3,17-9,23s-13.7,9-23,9H32c-9.3,0-17-3-23-9s-9-13.7-9-23v-64
	c0-9.3,3-17,9-23s13.7-9,23-9H1760z M483,832c-18.7-23.3-35.7-50-51-80c-32-64.7-48-127.3-48-188c0-120.7,44.7-223.7,134-309
	c88.7-84.7,219.7-127,393-127c33.3,0,89,6.3,167,19c44,8,103,24,177,48c6.7,25.3,13.7,64.7,21,118c9.3,82,14,143,14,183
	c0,12-1.7,27-5,45l-12,3l-84-6l-14-2c-33.3-99.3-67.7-167.7-103-205c-58.7-60.7-128.7-91-210-91c-76,0-136.7,19.7-182,59
	c-44.7,38.7-67,87.3-67,146c0,48.7,22,95.3,66,140s137,87.7,279,129c46,13.3,103.7,35.3,173,66c38.7,18.7,70.3,36,95,52H483z
	 M990,1088h411c4.7,26,7,56.7,7,92c0,74-13.7,144.7-41,212c-15.3,36.7-39,71.3-71,104c-24.7,23.3-61,50.3-109,81
	c-53.3,32-104.3,54-153,66c-53.3,14-121,21-203,21c-76,0-141-7.7-195-23l-140-40c-38-10.7-62-20-72-28c-5.3-5.3-8-12.7-8-22v-13
	c0-72-0.7-124-2-156c-0.7-20-0.7-42.7,0-68l2-37v-44l102-2c10,22.7,20,46.3,30,71s17.5,43.3,22.5,56s9.2,21.7,12.5,27
	c23.3,38,50,69.3,80,94c28.7,24,63.7,43,105,57c39.3,14.7,83.3,22,132,22c42.7,0,89-9,139-27c51.3-17.3,92-46,122-86
	c31.3-40.7,47-83.7,47-129c0-56-27-108.3-81-157C1104.3,1139.7,1058.7,1116,990,1088z"/>
</svg>
