<?xml version="1.0" encoding="utf-8"?>
<!-- Generator: Adobe Illustrator 21.1.0, SVG Export Plug-In . SVG Version: 6.00 Build 0)  -->
<svg version="1.1" id="Layer_1" xmlns="http://www.w3.org/2000/svg" xmlns:xlink="http://www.w3.org/1999/xlink" x="0px" y="0px"
	 viewBox="0 0 1792 1792" style="enable-background:new 0 0 1792 1792;" xml:space="preserve">
<style type="text/css">
	.st0{fill:#D00021;}
</style>
<path class="st0" d="M998,712V594c0-28-10-52-30-72s-44-30-72-30s-52,10-72,30s-30,44-30,72v612c0,116.7-42,216.3-126,299
	s-185,124-303,124c-118.7,0-219.8-41.8-303.5-125.5S-64,1318.7-64,1200V934h328v262c0,28.7,10,52.8,30,72.5s44,29.5,72,29.5
	s52-9.8,72-29.5s30-43.8,30-72.5V576c0-114,42.2-211.3,126.5-292S779.3,163,896,163c117.3,0,218,40.7,302,122s126,179.3,126,294v136
	l-195,58L998,712z M1528,934h328v266c0,118.7-41.8,219.8-125.5,303.5S1545.7,1629,1427,1629c-118,0-219-41.5-303-124.5
	S998,1321.3,998,1204V936l131,61l195-58v270c0,28,10,51.8,30,71.5s44,29.5,72,29.5s52-9.8,72-29.5s30-43.5,30-71.5V934z"/>
</svg>
