<?xml version="1.0" encoding="utf-8"?>
<!-- Generator: Adobe Illustrator 21.1.0, SVG Export Plug-In . SVG Version: 6.00 Build 0)  -->
<svg version="1.1" id="Layer_1" xmlns="http://www.w3.org/2000/svg" xmlns:xlink="http://www.w3.org/1999/xlink" x="0px" y="0px"
	 viewBox="0 0 1792 1792" style="enable-background:new 0 0 1792 1792;" xml:space="preserve">
<style type="text/css">
	.st0{fill:#D00021;}
</style>
<path class="st0" d="M1472,896c0-78-15.2-152.5-45.5-223.5s-71.3-132.3-123-184s-113-92.7-184-123S974,320,896,320
	s-152.5,15.2-223.5,45.5s-132.3,71.3-184,123s-92.7,113-123,184S320,818,320,896s15.2,152.5,45.5,223.5s71.3,132.3,123,184
	s113,92.7,184,123S818,1472,896,1472s152.5-15.2,223.5-45.5s132.3-71.3,184-123s92.7-113,123-184S1472,974,1472,896z M1748,1173
	c-2.7,10-9.3,16.7-20,20l-292,96v306c0,10.7-4.3,19.3-13,26c-10,6.7-19.7,8-29,4l-292-94l-180,248c-6.7,8.7-15.3,13-26,13
	s-19.3-4.3-26-13l-180-248l-292,94c-9.3,4-19,2.7-29-4c-8.7-6.7-13-15.3-13-26v-306l-292-96c-10.7-3.3-17.3-10-20-20
	c-3.3-11.3-2-21,4-29l180-248L48,648c-6-8.7-7.3-18.3-4-29c2.7-10,9.3-16.7,20-20l292-96V197c0-10.7,4.3-19.3,13-26
	c10-6.7,19.7-8,29-4l292,94L870,13c6-8,14.7-12,26-12s20,4,26,12l180,248l292-94c9.3-4,19-2.7,29,4c8.7,6.7,13,15.3,13,26v306
	l292,96c10.7,3.3,17.3,10,20,20c3.3,10.7,2,20.3-4,29l-180,248l180,248C1750,1152,1751.3,1161.7,1748,1173z"/>
</svg>
