<?xml version="1.0" encoding="utf-8"?>
<!-- Generator: Adobe Illustrator 21.1.0, SVG Export Plug-In . SVG Version: 6.00 Build 0)  -->
<svg version="1.1" id="Layer_1" xmlns="http://www.w3.org/2000/svg" xmlns:xlink="http://www.w3.org/1999/xlink" x="0px" y="0px"
	 viewBox="0 0 1792 1792" style="enable-background:new 0 0 1792 1792;" xml:space="preserve">
<style type="text/css">
	.st0{fill:#D00021;}
</style>
<path class="st0" d="M384,448c0-35.3-12.5-65.5-37.5-90.5S291.3,320,256,320s-65.5,12.5-90.5,37.5S128,412.7,128,448
	s12.5,65.5,37.5,90.5S220.7,576,256,576s65.5-12.5,90.5-37.5S384,483.3,384,448z M1451,1024c0,35.3-12.3,65.3-37,90l-491,492
	c-26,24.7-56.3,37-91,37c-35.3,0-65.3-12.3-90-37L27,890c-25.3-24.7-46.8-58.3-64.5-101S-64,707.3-64,672V256
	c0-34.7,12.7-64.7,38-90s55.3-38,90-38h416c35.3,0,74.3,8.8,117,26.5s76.7,39.2,102,64.5l715,714C1438.7,959,1451,989.3,1451,1024z
	 M1835,1024c0,35.3-12.3,65.3-37,90l-491,492c-26,24.7-56.3,37-91,37c-24,0-43.7-4.7-59-14s-33-24.3-53-45l470-470
	c24.7-24.7,37-54.7,37-90c0-34.7-12.3-65-37-91L859,219c-25.3-25.3-59.3-46.8-102-64.5S675.3,128,640,128h224
	c35.3,0,74.3,8.8,117,26.5s76.7,39.2,102,64.5l715,714C1822.7,959,1835,989.3,1835,1024z"/>
</svg>
