<?xml version="1.0" encoding="utf-8"?>
<!-- Generator: Adobe Illustrator 21.1.0, SVG Export Plug-In . SVG Version: 6.00 Build 0)  -->
<svg version="1.1" id="Layer_1" xmlns="http://www.w3.org/2000/svg" xmlns:xlink="http://www.w3.org/1999/xlink" x="0px" y="0px"
	 viewBox="0 0 1792 1792" style="enable-background:new 0 0 1792 1792;" xml:space="preserve">
<style type="text/css">
	.st0{fill:#D00021;}
</style>
<path class="st0" d="M649,983l-466,466c-6.7,6.7-14.3,10-23,10s-16.3-3.3-23-10l-50-50c-6.7-6.7-10-14.3-10-23s3.3-16.3,10-23
	l393-393L87,567c-6.7-6.7-10-14.3-10-23s3.3-16.3,10-23l50-50c6.7-6.7,14.3-10,23-10s16.3,3.3,23,10l466,466c6.7,6.7,10,14.3,10,23
	S655.7,976.3,649,983z M1728,1440v64c0,9.3-3,17-9,23s-13.7,9-23,9H736c-9.3,0-17-3-23-9s-9-13.7-9-23v-64c0-9.3,3-17,9-23
	s13.7-9,23-9h960c9.3,0,17,3,23,9S1728,1430.7,1728,1440z"/>
</svg>
