<?xml version="1.0" encoding="utf-8"?>
<!-- Generator: Adobe Illustrator 21.1.0, SVG Export Plug-In . SVG Version: 6.00 Build 0)  -->
<svg version="1.1" id="Layer_1" xmlns="http://www.w3.org/2000/svg" xmlns:xlink="http://www.w3.org/1999/xlink" x="0px" y="0px"
	 viewBox="0 0 1792 1792" style="enable-background:new 0 0 1792 1792;" xml:space="preserve">
<style type="text/css">
	.st0{fill:#D00021;}
</style>
<path class="st0" d="M320,1344c0-17.3-6.3-32.3-19-45s-27.7-19-45-19c-18,0-33.2,6.3-45.5,19s-18.5,27.7-18.5,45
	c0,18,6.2,33.2,18.5,45.5S238,1408,256,1408c17.3,0,32.3-6.2,45-18.5S320,1362,320,1344z M480,832v640c0,17.3-6.3,32.3-19,45
	s-27.7,19-45,19H128c-17.3,0-32.3-6.3-45-19s-19-27.7-19-45V832c0-17.3,6.3-32.3,19-45s27.7-19,45-19h288c17.3,0,32.3,6.3,45,19
	S480,814.7,480,832z M1664,832c0,57.3-18.3,107-55,149c10,29.3,15,54.7,15,76c2,50.7-12.3,96.3-43,137c11.3,37.3,11.3,76.3,0,117
	c-10,38-28,69.3-54,94c6,74.7-10.3,135-49,181c-42.7,50.7-108.3,76.7-197,78h-129c-44,0-92-5.2-144-15.5s-92.5-20-121.5-29
	s-69.2-22.2-120.5-39.5c-82-28.7-134.7-43.3-158-44c-17.3-0.7-32.3-7.2-45-19.5s-19-27.2-19-44.5V831c0-16.7,6-31.2,18-43.5
	s26.3-19.2,43-20.5c16-1.3,41.3-21,76-59s68.3-78.3,101-121c45.3-58,79-98,101-120c12-12,22.3-28,31-48s14.5-36.2,17.5-48.5
	S939,338,945,310c4.7-26,8.8-46.3,12.5-61c3.7-14.7,10.2-32,19.5-52s20.7-36.7,34-50c12.7-12.7,27.7-19,45-19
	c30.7,0,58.2,3.5,82.5,10.5s44.3,15.7,60,26s29,23.8,40,40.5s19,31.7,24,45c5,13.3,9,30,12,50s4.7,35,5,45s0.5,23,0.5,39
	c0,25.3-3.2,50.7-9.5,76s-12.7,45.3-19,60s-15.5,33.3-27.5,56c-2,4-5.3,10-10,18s-8.3,15.3-11,22s-5.3,14.7-8,24h277
	c52,0,97,19,135,57S1664,780,1664,832z"/>
</svg>
