<?xml version="1.0" encoding="utf-8"?>
<!-- Generator: Adobe Illustrator 21.1.0, SVG Export Plug-In . SVG Version: 6.00 Build 0)  -->
<svg version="1.1" id="Layer_1" xmlns="http://www.w3.org/2000/svg" xmlns:xlink="http://www.w3.org/1999/xlink" x="0px" y="0px"
	 viewBox="0 0 1792 1792" style="enable-background:new 0 0 1792 1792;" xml:space="preserve">
<style type="text/css">
	.st0{fill:#D00021;}
</style>
<path class="st0" d="M1216,896c0,22-9,39.3-27,52l-448,320c-20.7,15.3-42.7,17-66,5c-23.3-11.3-35-30.3-35-57V576
	c0-26.7,11.7-45.7,35-57c23.3-12,45.3-10.3,66,5l448,320C1207,856.7,1216,874,1216,896z M1408,1376V416c0-9.3-3-17-9-23
	s-13.7-9-23-9H416c-9.3,0-17,3-23,9s-9,13.7-9,23v960c0,9.3,3,17,9,23s13.7,9,23,9h960c9.3,0,17-3,23-9S1408,1385.3,1408,1376z
	 M1664,416v960c0,79.3-28.2,147.2-84.5,203.5S1455.3,1664,1376,1664H416c-79.3,0-147.2-28.2-203.5-84.5S128,1455.3,128,1376V416
	c0-79.3,28.2-147.2,84.5-203.5S336.7,128,416,128h960c79.3,0,147.2,28.2,203.5,84.5S1664,336.7,1664,416z"/>
</svg>
