<?xml version="1.0" encoding="utf-8"?>
<!-- Generator: Adobe Illustrator 21.1.0, SVG Export Plug-In . SVG Version: 6.00 Build 0)  -->
<svg version="1.1" id="Layer_1" xmlns="http://www.w3.org/2000/svg" xmlns:xlink="http://www.w3.org/1999/xlink" x="0px" y="0px"
	 viewBox="0 0 1792 1792" style="enable-background:new 0 0 1792 1792;" xml:space="preserve">
<style type="text/css">
	.st0{fill:#D00021;}
</style>
<path class="st0" d="M766.5,544v117c0,8.7-3.2,16-9.5,22s-13.8,9-22.5,9h-298v812c0,8.7-3,16.2-9,22.5s-13.3,9.5-22,9.5h-135
	c-8.7,0-16.2-3-22.5-9s-9.5-13.7-9.5-23V692h-297c-8.7,0-16.2-3-22.5-9s-9.5-13.3-9.5-22V544c0-9.3,3-17,9-23s13.7-9,23-9h793
	c8.7,0,16.2,3.2,22.5,9.5S766.5,535.3,766.5,544z M1804.5,541l77,961c0.7,8.7-2,16.7-8,24c-6.7,6.7-14.3,10-23,10h-134
	c-8,0-15-2.8-21-8.5s-9.3-12.5-10-20.5l-46-588l-189,425c-5.3,12.7-15,19-29,19h-120c-13.3,0-23-6.3-29-19l-188-427l-45,590
	c-0.7,8-4,14.8-10,20.5s-13,8.5-21,8.5h-135c-8.7,0-16.3-3.3-23-10c-6-6.7-9-14.7-9-24l78-961c0.7-8,4-14.8,10-20.5s13-8.5,21-8.5
	h142c13.3,0,23,6.3,29,19l220,520c6.7,16,13.3,33,20,51c2-4.7,5.2-12.8,9.5-24.5s7.8-20.5,10.5-26.5l221-520c6-12.7,15.7-19,29-19
	h141c8.7,0,16,2.8,22,8.5S1803.8,533,1804.5,541z"/>
</svg>
