<?xml version="1.0" encoding="utf-8"?>
<!-- Generator: Adobe Illustrator 21.1.0, SVG Export Plug-In . SVG Version: 6.00 Build 0)  -->
<svg version="1.1" id="Layer_1" xmlns="http://www.w3.org/2000/svg" xmlns:xlink="http://www.w3.org/1999/xlink" x="0px" y="0px"
	 viewBox="0 0 1792 1792" style="enable-background:new 0 0 1792 1792;" xml:space="preserve">
<style type="text/css">
	.st0{fill:#D00021;}
</style>
<path class="st0" d="M1632,1472c0,17.3-6.3,32.3-19,45s-27.7,19-45,19h-462c0.7,11.3,2.7,40.5,6,87.5s5,83.2,5,108.5
	c0,16.7-6,30.8-18,42.5s-26.3,17.5-43,17.5H736c-16.7,0-31-5.8-43-17.5s-18-25.8-18-42.5c0-25.3,1.7-61.5,5-108.5s5.3-76.2,6-87.5
	H224c-17.3,0-32.3-6.3-45-19s-19-27.7-19-45s6.3-32.3,19-45l402-403H352c-17.3,0-32.3-6.3-45-19s-19-27.7-19-45s6.3-32.3,19-45
	l402-403H512c-17.3,0-32.3-6.3-45-19s-19-27.7-19-45s6.3-32.3,19-45L851,19c12.7-12.7,27.7-19,45-19s32.3,6.3,45,19l384,384
	c12.7,12.7,19,27.7,19,45s-6.3,32.3-19,45s-27.7,19-45,19h-197l402,403c12.7,12.7,19,27.7,19,45s-6.3,32.3-19,45s-27.7,19-45,19
	h-229l402,403C1625.7,1439.7,1632,1454.7,1632,1472z"/>
</svg>
