<?xml version="1.0" encoding="utf-8"?>
<!-- Generator: Adobe Illustrator 21.1.0, SVG Export Plug-In . SVG Version: 6.00 Build 0)  -->
<svg version="1.1" id="Layer_1" xmlns="http://www.w3.org/2000/svg" xmlns:xlink="http://www.w3.org/1999/xlink" x="0px" y="0px"
	 viewBox="0 0 1792 1792" style="enable-background:new 0 0 1792 1792;" xml:space="preserve">
<style type="text/css">
	.st0{fill:#D00021;}
</style>
<path class="st0" d="M1472,832c0,127.3-31.5,245-94.5,353S1229,1378.5,1121,1441.5S895.3,1536,768,1536H608c-9.3,0-17-3-23-9
	s-9-13.7-9-23V893l-215,66c-2,0.7-5,1-9,1c-6.7,0-13-2-19-6c-8.7-6.7-13-15.3-13-26V800c0-15.3,7.7-25.7,23-31l233-71v-93l-215,66
	c-2,0.7-5,1-9,1c-6.7,0-13-2-19-6c-8.7-6.7-13-15.3-13-26V512c0-15.3,7.7-25.7,23-31l233-71V160c0-9.3,3-17,9-23s13.7-9,23-9h160
	c9.3,0,17,3,23,9s9,13.7,9,23v181l375-116c10-3.3,19.3-1.7,28,5s13,15.3,13,26v128c0,15.3-7.7,25.7-23,31L800,536v93l375-116
	c10-3.3,19.3-1.7,28,5s13,15.3,13,26v128c0,15.3-7.7,25.7-23,31L800,824v487c125.3-8.7,231.3-59,318-151s130-201.3,130-328
	c0-9.3,3-17,9-23s13.7-9,23-9h160c9.3,0,17,3,23,9S1472,822.7,1472,832z"/>
</svg>
