<?xml version="1.0" encoding="utf-8"?>
<!-- Generator: Adobe Illustrator 21.1.0, SVG Export Plug-In . SVG Version: 6.00 Build 0)  -->
<svg version="1.1" id="Layer_1" xmlns="http://www.w3.org/2000/svg" xmlns:xlink="http://www.w3.org/1999/xlink" x="0px" y="0px"
	 viewBox="0 0 1792 1792" style="enable-background:new 0 0 1792 1792;" xml:space="preserve">
<style type="text/css">
	.st0{fill:#D00021;}
</style>
<path class="st0" d="M960,828v580c0,69.3-25.3,129.3-76,180s-110.7,76-180,76s-129.3-25.3-180-76s-76-110.7-76-180
	c0-17.3,6.3-32.3,19-45s27.7-19,45-19s32.3,6.3,45,19s19,27.7,19,45c0,33.3,13,63,39,89s55.7,39,89,39s63-13,89-39s39-55.7,39-89
	V828c22-7.3,43.3-11,64-11S938,820.7,960,828z M1728,855c0,8.7-3.2,16.2-9.5,22.5s-13.8,9.5-22.5,9.5c-7.3,0-15-3.3-23-10
	c-32.7-30.7-63.7-53.7-93-69s-63.3-23-102-23c-45.3,0-88,12.3-128,37s-74.3,57-103,97c-4.7,6.7-10.5,16-17.5,28s-11.8,20-14.5,24
	c-7.3,11.3-16.7,17-28,17c-12,0-21.7-5.7-29-17c-2.7-4-7.5-12-14.5-24s-12.8-21.3-17.5-28c-28.7-40-62.8-72.3-102.5-97
	c-39.7-24.7-82.2-37-127.5-37s-87.8,12.3-127.5,37s-73.8,57-102.5,97c-4.7,6.7-10.5,16-17.5,28s-11.8,20-14.5,24
	c-7.3,11.3-17,17-29,17c-11.3,0-20.7-5.7-28-17c-2.7-4-7.5-12-14.5-24s-12.8-21.3-17.5-28c-28.7-40-63-72.3-103-97s-82.7-37-128-37
	c-38.7,0-72.7,7.7-102,23s-60.3,38.3-93,69c-8,6.7-15.7,10-23,10c-8.7,0-16.2-3.2-22.5-9.5S64,863.7,64,855c0-3.3,0.3-5.7,1-7
	c30-122,87.5-228.5,172.5-319.5s184.3-159.2,298-204.5s233.8-68,360.5-68c93.3,0,184.8,13.3,274.5,40s171.8,64.5,246.5,113.5
	s139.5,111.3,194.5,187S1705,756,1727,848C1727.7,849.3,1728,851.7,1728,855z M960,128v98c-28-1.3-49.3-2-64-2s-36,0.7-64,2v-98
	c0-17.3,6.3-32.3,19-45s27.7-19,45-19s32.3,6.3,45,19S960,110.7,960,128z"/>
</svg>
