<?xml version="1.0" encoding="utf-8"?>
<!-- Generator: Adobe Illustrator 21.1.0, SVG Export Plug-In . SVG Version: 6.00 Build 0)  -->
<svg version="1.1" id="Layer_1" xmlns="http://www.w3.org/2000/svg" xmlns:xlink="http://www.w3.org/1999/xlink" x="0px" y="0px"
	 viewBox="0 0 1792 1792" style="enable-background:new 0 0 1792 1792;" xml:space="preserve">
<style type="text/css">
	.st0{fill:#D00021;}
</style>
<path class="st0" d="M576,896c-106,0-196.5-37.5-271.5-112.5S192,618,192,512s37.5-196.5,112.5-271.5S470,128,576,128
	s196.5,37.5,271.5,112.5S960,406,960,512s-37.5,196.5-112.5,271.5S682,896,576,896z M1536,1024h352c8.7,0,16.2,3.2,22.5,9.5
	s9.5,13.8,9.5,22.5v192c0,8.7-3.2,16.2-9.5,22.5s-13.8,9.5-22.5,9.5h-352v352c0,8.7-3.2,16.2-9.5,22.5s-13.8,9.5-22.5,9.5h-192
	c-8.7,0-16.2-3.2-22.5-9.5s-9.5-13.8-9.5-22.5v-352H928c-8.7,0-16.2-3.2-22.5-9.5s-9.5-13.8-9.5-22.5v-192c0-8.7,3.2-16.2,9.5-22.5
	s13.8-9.5,22.5-9.5h352V672c0-8.7,3.2-16.2,9.5-22.5s13.8-9.5,22.5-9.5h192c8.7,0,16.2,3.2,22.5,9.5s9.5,13.8,9.5,22.5V1024z
	 M800,1248c0,34.7,12.7,64.7,38,90s55.3,38,90,38h256v238c-45.3,33.3-102.3,50-171,50H139c-80.7,0-145.3-23-194-69s-73-109.3-73-190
	c0-35.3,1.2-69.8,3.5-103.5s7-70,14-109s15.8-75.2,26.5-108.5s25-65.8,43-97.5s38.7-58.7,62-81s51.8-40.2,85.5-53.5
	s70.8-20,111.5-20c12.7,0,25.7,5.7,39,17c52.7,40.7,104.2,71.2,154.5,91.5S516.7,971,576,971s114.2-10.2,164.5-30.5
	S842.3,889.7,895,849c13.3-11.3,26.3-17,39-17c88,0,160.3,32,217,96H928c-34.7,0-64.7,12.7-90,38s-38,55.3-38,90V1248z"/>
</svg>
