<?xml version="1.0" encoding="utf-8"?>
<!-- Generator: Adobe Illustrator 21.1.0, SVG Export Plug-In . SVG Version: 6.00 Build 0)  -->
<svg version="1.1" id="Layer_1" xmlns="http://www.w3.org/2000/svg" xmlns:xlink="http://www.w3.org/1999/xlink" x="0px" y="0px"
	 viewBox="0 0 1792 1792" style="enable-background:new 0 0 1792 1792;" xml:space="preserve">
<style type="text/css">
	.st0{fill:#D00021;}
</style>
<path class="st0" d="M1709,518c-6.7,157.3-117.3,374.3-332,651c-222,287.3-409.3,431-562,431c-94.7,0-174.7-87.7-240-263
	c-29.3-106.7-73.3-267.3-132-482c-48-174.7-100.3-262-157-262c-12,0-54.3,25.3-127,76l-77-98c16-14,52-46.2,108-96.5
	s99.3-88.8,130-115.5c104-92,184.3-140.7,241-146c63.3-6,114.3,12.5,153,55.5s65.7,110.8,81,203.5c29.3,191.3,51.3,315.7,66,373
	c36.7,166,76.7,249,120,249c34,0,85.3-53.7,154-161c67.3-107.3,103.7-189.3,109-246c8.7-92.7-27.7-139-109-139
	c-38,0-78.3,8.7-121,26c80-262,233-389.3,459-382C1640.3,197.3,1719,306,1709,518z"/>
</svg>
