<?xml version="1.0" encoding="utf-8"?>
<!-- Generator: Adobe Illustrator 21.1.0, SVG Export Plug-In . SVG Version: 6.00 Build 0)  -->
<svg version="1.1" id="Layer_1" xmlns="http://www.w3.org/2000/svg" xmlns:xlink="http://www.w3.org/1999/xlink" x="0px" y="0px"
	 viewBox="0 0 1792 1792" style="enable-background:new 0 0 1792 1792;" xml:space="preserve">
<style type="text/css">
	.st0{fill:#D00021;}
</style>
<path class="st0" d="M1625,827v198c-67.3,15.3-133.3,23-198,23c-43.3,90.7-98.5,181-165.5,271S1134,1480.8,1080,1534.5
	s-96.7,89.2-128,106.5c-53.3,30-107.3,29-162-3c-18.7-11.3-38.8-25.8-60.5-43.5s-50-45.5-85-83.5s-69.2-80.8-102.5-128.5
	s-69.2-109-107.5-184S361,1042.2,329,954.5S266.5,762,237.5,640S185,388,167,250h283c17.3,145.3,40.7,278.2,70,398.5
	s64.2,226,104.5,317S705.3,1135,746,1201s87.3,131,140,195c112.7-112.7,208.3-248,287-406c-94.7-48-169-121.3-223-220
	s-81-209.7-81-333c0-128,34.7-232.8,104-314.5S1137,0,1257,0c118.7,0,209.7,35.2,273,105.5s95,169.5,95,297.5
	c0,106-19.3,201.3-58,286c-4.7,0.7-11.2,1.7-19.5,3s-23.7,2-46,2s-43.3-2-63-6s-40.3-12.5-62-25.5S1338,632.3,1326,611
	c20.7-68.7,31-130,31-184c0-58-9.7-102-29-132s-45.7-45-79-45c-35.3,0-63.7,16.5-85,49.5s-32,79.8-32,140.5
	c0,124,35,221.8,105,293.5S1396,841,1504,841C1545.3,841,1585.7,836.3,1625,827z"/>
</svg>
