<?xml version="1.0" encoding="utf-8"?>
<!-- Generator: Adobe Illustrator 21.1.0, SVG Export Plug-In . SVG Version: 6.00 Build 0)  -->
<svg version="1.1" id="Layer_1" xmlns="http://www.w3.org/2000/svg" xmlns:xlink="http://www.w3.org/1999/xlink" x="0px" y="0px"
	 viewBox="0 0 1792 1792" style="enable-background:new 0 0 1792 1792;" xml:space="preserve">
<style type="text/css">
	.st0{fill:#D00021;}
</style>
<path class="st0" d="M1853,520c15.3,42.7-34.7,140.7-150,294c-16,21.3-37.7,49.7-65,85c-52,66.7-82,110.3-90,131
	c-11.3,27.3-6.7,54.3,14,81c11.3,14,38.3,41.3,81,82h1l1,1l1,1l2,2c94,87.3,157.7,161,191,221c2,3.3,4.2,7.5,6.5,12.5
	s4.7,13.8,7,26.5s2.2,24-0.5,34s-11,19.2-25,27.5s-33.7,12.5-59,12.5l-256,4c-16,3.3-34.7,1.7-56-5s-38.7-14-52-22l-20-12
	c-20-14-43.3-35.3-70-64s-49.5-54.5-68.5-77.5s-39.3-42.3-61-58s-40.5-20.8-56.5-15.5c-2,0.7-4.7,1.8-8,3.5s-9,6.5-17,14.5
	s-15.2,17.8-21.5,29.5s-12,29-17,52s-7.2,48.8-6.5,77.5c0,10-1.2,19.2-3.5,27.5s-4.8,14.5-7.5,18.5l-4,5c-12,12.7-29.7,20-53,22H875
	c-47.3,2.7-96-2.8-146-16.5s-93.8-31.3-131.5-53s-72-43.7-103-66S440,1354,424,1338l-25-24c-6.7-6.7-15.8-16.7-27.5-30
	s-35.5-43.7-71.5-91s-71.3-97.7-106-151c-34.7-53.3-75.5-123.7-122.5-211S-19,653-59,559c-4-10.7-6-19.7-6-27s1-12.7,3-16l4-6
	c10-12.7,29-19,57-19l274-2c8,1.3,15.7,3.5,23,6.5s12.7,5.8,16,8.5l5,3c10.7,7.3,18.7,18,24,32c13.3,33.3,28.7,67.8,46,103.5
	s31,62.8,41,81.5l16,29c19.3,40,38,74.7,56,104s34.2,52.2,48.5,68.5s28.2,29.2,41.5,38.5s24.7,14,34,14s18.3-1.7,27-5
	c1.3-0.7,3-2.3,5-5s6-10,12-22s10.5-27.7,13.5-47s6.2-46.3,9.5-81s3.3-76.3,0-125c-1.3-26.7-4.3-51-9-73s-9.3-37.3-14-46l-6-12
	c-16.7-22.7-45-37-85-43c-8.7-1.3-7-9.3,5-24c11.3-12.7,24-22.7,38-30c35.3-17.3,115-25.3,239-24c54.7,0.7,99.7,5,135,13
	c13.3,3.3,24.5,7.8,33.5,13.5s15.8,13.7,20.5,24s8.2,21,10.5,32s3.5,26.2,3.5,45.5s-0.3,37.7-1,55s-1.5,40.8-2.5,70.5
	s-1.5,57.2-1.5,82.5c0,7.3-0.3,21.3-1,42s-0.8,36.7-0.5,48s1.5,24.8,3.5,40.5s5.8,28.7,11.5,39s13.2,18.5,22.5,24.5
	c5.3,1.3,11,2.7,17,4s14.7-2.3,26-11s24-20.2,38-34.5s31.3-36.7,52-67s43.3-66.2,68-107.5c40-69.3,75.7-144.3,107-225
	c2.7-6.7,6-12.5,10-17.5s7.7-8.5,11-10.5l4-3l5-2.5l13-3l20-0.5l288-2c26-3.3,47.3-2.5,64,2.5s27,10.5,31,16.5L1853,520z"/>
</svg>
