<?xml version="1.0" encoding="utf-8"?>
<!-- Generator: Adobe Illustrator 21.1.0, SVG Export Plug-In . SVG Version: 6.00 Build 0)  -->
<svg version="1.1" id="Layer_1" xmlns="http://www.w3.org/2000/svg" xmlns:xlink="http://www.w3.org/1999/xlink" x="0px" y="0px"
	 viewBox="0 0 1792 1792" style="enable-background:new 0 0 1792 1792;" xml:space="preserve">
<style type="text/css">
	.st0{fill:#D00021;}
</style>
<path class="st0" d="M452,461c0-27.3-8.3-49.3-25-66s-38.7-25-66-25c-28.7,0-54,8.5-76,25.5s-33,38.8-33,65.5c0,26,11,47.5,33,64.5
	s47.3,25.5,76,25.5c27.3,0,49.3-8.2,66-24.5S452,488.3,452,461z M1195,968c0-18.7-8.5-35.3-25.5-50s-38.8-22-65.5-22
	c-18,0-34.5,7.5-49.5,22.5S1032,950,1032,968c0,18.7,7.5,35.5,22.5,50.5s31.5,22.5,49.5,22.5c26.7,0,48.5-7.3,65.5-22
	C1186.5,1004.3,1195,987.3,1195,968z M959,461c0-27.3-8.2-49.3-24.5-66s-38.2-25-65.5-25c-28.7,0-54,8.5-76,25.5s-33,38.8-33,65.5
	c0,26,11,47.5,33,64.5s47.3,25.5,76,25.5c27.3,0,49.2-8.2,65.5-24.5S959,488.3,959,461z M1594,968c0-18.7-8.7-35.3-26-50
	s-39-22-65-22c-18,0-34.5,7.5-49.5,22.5S1431,950,1431,968c0,18.7,7.5,35.5,22.5,50.5s31.5,22.5,49.5,22.5c26,0,47.7-7.3,65-22
	C1585.3,1004.3,1594,987.3,1594,968z M1328,571c-20.7-2.7-44-4-70-4c-112.7,0-216.3,25.7-311,77S777.8,764.8,723.5,852.5
	S642,1036,642,1140c0,52,7.7,102.7,23,152c-23.3,2-46,3-68,3c-17.3,0-34-0.5-50-1.5s-34.3-3.2-55-6.5s-35.5-5.7-44.5-7
	s-27.2-4.8-54.5-10.5s-44-9.2-50-10.5L90,1386l72-218c-193.3-135.3-290-298.7-290-490c0-112.7,32.5-216.3,97.5-311
	s153-169.2,264-223.5S465.7,62,597,62c117.3,0,228.2,22,332.5,66s191.7,104.8,262,182.5S1307.3,475,1328,571z M1920,1132
	c0,78-22.8,152.5-68.5,223.5S1744,1491,1666,1549l55,181l-199-109c-100,24.7-172.7,37-218,37c-112.7,0-216.3-23.5-311-70.5
	S823.8,1476.7,769.5,1396S688,1227.3,688,1132s27.2-183.3,81.5-264S898.3,723.5,993,676.5s198.3-70.5,311-70.5
	c107.3,0,208.3,23.5,303,70.5s170.5,111,227.5,192S1920,1037.3,1920,1132z"/>
</svg>
