<?xml version="1.0" encoding="utf-8"?>
<!-- Generator: Adobe Illustrator 21.1.0, SVG Export Plug-In . SVG Version: 6.00 Build 0)  -->
<svg version="1.1" id="Layer_1" xmlns="http://www.w3.org/2000/svg" xmlns:xlink="http://www.w3.org/1999/xlink" x="0px" y="0px"
	 viewBox="0 0 1792 1792" style="enable-background:new 0 0 1792 1792;" xml:space="preserve">
<style type="text/css">
	.st0{fill:#D00021;}
</style>
<path class="st0" d="M896,1523c-13.3,0-44.3-24.5-93-73.5s-73-80.2-73-93.5c0-21.3,20.8-39.3,62.5-54s76.2-22,103.5-22
	s61.8,7.3,103.5,22c41.7,14.7,62.5,32.7,62.5,54c0,13.3-24.3,44.5-73,93.5C940.3,1498.5,909.3,1523,896,1523z M1166,1252
	c-1.3,0-14.7-8.3-40-25s-59.2-33.3-101.5-50c-42.3-16.7-85.2-25-128.5-25s-86.2,8.3-128.5,25s-76,33.3-101,50s-38.5,25-40.5,25
	c-12,0-43.2-25-93.5-75s-75.5-81-75.5-93c0-8.7,3.3-16.3,10-23c52-51.3,117.3-91.7,196-121s156.3-44,233-44s154.3,14.7,233,44
	s144,69.7,196,121c6.7,6.7,10,14.3,10,23c0,12-25.2,43-75.5,93S1178,1252,1166,1252z M1439,980c-7.3,0-15-2.7-23-8
	c-90.7-70-174.7-121.5-252-154.5S997.3,768,896,768c-56.7,0-113.5,7.3-170.5,22s-106.7,32.3-149,53s-80.2,41.3-113.5,62
	s-59.7,38.3-79,53s-29.7,22-31,22c-11.3,0-42-25-92-75s-75-81-75-93c0-8,3.3-15.3,10-22c88-88,194.7-156.3,320-205s252-73,380-73
	s254.7,24.3,380,73s232,117,320,205c6.7,6.7,10,14,10,22c0,12-25,43-75,93S1450.3,980,1439,980z M1710,709c-7.3,0-14.7-3-22-9
	c-119.3-104.7-243.2-183.5-371.5-236.5S1048,384,896,384s-292.2,26.5-420.5,79.5S223.3,595.3,104,700c-7.3,6-14.7,9-22,9
	c-11.3,0-42.2-25-92.5-75S-86,553-86,541c0-8.7,3.3-16.3,10-23C48.7,394,197,298,369,230s347.7-102,527-102s355,34,527,102
	s320.3,164,445,288c6.7,6.7,10,14.3,10,23c0,12-25.2,43-75.5,93S1721.3,709,1710,709z"/>
</svg>
