<?xml version="1.0" encoding="utf-8"?>
<!-- Generator: Adobe Illustrator 21.1.0, SVG Export Plug-In . SVG Version: 6.00 Build 0)  -->
<svg version="1.1" id="Layer_1" xmlns="http://www.w3.org/2000/svg" xmlns:xlink="http://www.w3.org/1999/xlink" x="0px" y="0px"
	 viewBox="0 0 1792 1792" style="enable-background:new 0 0 1792 1792;" xml:space="preserve">
<style type="text/css">
	.st0{fill:#D00021;}
</style>
<path class="st0" d="M813,765c0-0.7-42-74.7-126-222c-14-22.7-31.3-34-52-34H451c-12,0-20.7,3.7-26,11c-4.7,8-4.3,17.7,1,29l125,216
	v1l-196,346c-6,9.3-6,18.7,0,28c5.3,8.7,13.3,13,24,13h185c20.7,0,37.3-12,50-36L813,765z M1437,268c-4.7-8-12.7-12-24-12h-187
	c-20,0-36.3,11.7-49,35l-411,729c0.7,1.3,88,161.7,262,481c13.3,23.3,30.7,35,52,35h184c12,0,20.3-4,25-12c5.3-8.7,5-18-1-28
	l-260-476v-1l409-723C1442.3,285.3,1442.3,276,1437,268z M1664,416v960c0,79.3-28.2,147.2-84.5,203.5S1455.3,1664,1376,1664H416
	c-79.3,0-147.2-28.2-203.5-84.5S128,1455.3,128,1376V416c0-79.3,28.2-147.2,84.5-203.5S336.7,128,416,128h960
	c79.3,0,147.2,28.2,203.5,84.5S1664,336.7,1664,416z"/>
</svg>
