<?xml version="1.0" encoding="utf-8"?>
<!-- Generator: Adobe Illustrator 21.1.0, SVG Export Plug-In . SVG Version: 6.00 Build 0)  -->
<svg version="1.1" id="Layer_1" xmlns="http://www.w3.org/2000/svg" xmlns:xlink="http://www.w3.org/1999/xlink" x="0px" y="0px"
	 viewBox="0 0 1792 1792" style="enable-background:new 0 0 1792 1792;" xml:space="preserve">
<style type="text/css">
	.st0{fill:#D00021;}
</style>
<path class="st0" d="M901,1319v127c-0.7,194.7-2.7,296.3-6,305c-8,21.3-25,34.7-51,40c-36,6-96.5-6.7-181.5-38s-139.2-61-162.5-89
	c-8.7-10-14.3-22-17-36c-0.7-8,0.7-16.7,4-26c2.7-6.7,14-22.3,34-47s80.3-96.7,181-216c0.7,0,20.7-23.3,60-70
	c10-12.7,23.2-20.8,39.5-24.5s32.8-2.5,49.5,3.5c16,6.7,28.5,16.3,37.5,29S901.7,1303.7,901,1319z M752,1068c-2,36.7-19.3,60-52,70
	l-120,39c-183.3,58.7-280.7,88-292,88c-23.3-1.3-41.3-13.3-54-36c-8-16.7-13.7-41.7-17-75c-5.3-50.7-5-106.2,1-166.5
	c6-60.3,16-101.8,30-124.5s32.7-33.3,56-32c8.7,0,76,25.7,202,77c46.7,19.3,85,35,115,47l84,34c15.3,6,27.2,16.2,35.5,30.5
	C748.8,1033.8,752.7,1050,752,1068z M1578,1365c-4.7,36-35.2,89.7-91.5,161S1385,1639.7,1351,1653c-24.7,9.3-45.7,7-63-7
	c-9.3-6.7-70.7-102.3-184-287l-47-77c-9.3-14-13.2-29.3-11.5-46s8.2-32,19.5-46c23.3-28.7,51-37.3,83-26c0.7,0.7,40.3,14,119,40
	c135.3,44,216,70.5,242,79.5s41.7,15.8,47,20.5C1574.7,1318.7,1582,1339,1578,1365z M906,733c3.3,68-14.7,108.7-54,122
	c-38.7,11.3-76.7-12.3-114-71L360,186c-5.3-23.3,1-44,19-62c27.3-28.7,96.5-58.5,207.5-89.5S772.3-7,811,3c26.7,6.7,43,21.7,49,45
	c2,12,9.3,113.8,22,305.5S902.7,671.7,906,733z M1568,841c2,26-6.7,45.7-26,59c-10,6.7-119.7,35.3-329,86c-44.7,10-75,17.7-91,23
	l1-2c-15.3,4-30.7,2.7-46-4s-27.7-17.3-37-32c-20-31.3-20-60.3,0-87c0.7-0.7,25.7-34.7,75-102c83.3-114,133.3-182,150-204
	s28-35,34-39c18.7-12.7,40.3-13.3,65-2c32,15.3,73,59.8,123,133.5s77,129.5,81,167.5V841z"/>
</svg>
