<?xml version="1.0" encoding="utf-8"?>
<!-- Generator: Adobe Illustrator 21.1.0, SVG Export Plug-In . SVG Version: 6.00 Build 0)  -->
<svg version="1.1" id="Layer_1" xmlns="http://www.w3.org/2000/svg" xmlns:xlink="http://www.w3.org/1999/xlink" x="0px" y="0px"
	 viewBox="0 0 1792 1792" style="enable-background:new 0 0 1792 1792;" xml:space="preserve">
<style type="text/css">
	.st0{fill:#00AE18;}
</style>
<path class="st0" d="M1529,1547l-6,6c-75.3,76-161.7,134.3-259,175c-102.7,42.7-208.3,64-317,64c-110,0-215.7-21.3-317-64
	c-98.7-42-185-100.3-259-175c-75.3-74.7-133.7-160.7-175-258c-28-68.7-46-131.7-54-189c-2.7-18.7,13.3-30.7,48-36
	c34-5.3,52.7,1.3,56,20c0.7,0.7,1,2,1,4c12,60,27.3,113,46,159c33.3,82.7,84,158,152,226c65.3,65.3,140.7,116,226,152
	c88,37.3,180,56,276,56c95.3,0,187.3-18.7,276-56c85.3-36.7,160.3-87.3,225-152l6-6c6.7-6.7,15-8.7,25-6c8,2,19,9.3,33,22
	C1536,1513.7,1541.7,1533,1529,1547z M1057,932l-66,66l63,63c14,14,11.7,30.3-7,49c-11.3,11.3-22,17-32,17c-6.7,0-13-3.3-19-10
	l-62-61l-66,66c-3.3,3.3-8.3,5-15,5c-10,0-20.3-5.3-31-16l-2-2c-12-10-18-19.7-18-29c0-4.7,2.7-10.3,8-17l66-65l-66-66
	c-10.7-10.7-6-25.7,14-45c12-12,22.3-18,31-18c4,0,8.3,1.7,13,5l65,66l65-65c12-11.3,28-7,48,13C1064,906,1067.7,920.7,1057,932z
	 M1528,989c0,78.7-15.3,154.7-46,228c-30,70-72,132-126,186c-53.3,53.3-115.7,95.3-187,126s-147.3,46-228,46s-156.7-15.3-228-46
	s-133.7-72.7-187-126c-54.7-54.7-96.3-116.7-125-186c-10-21.3-15-34.7-15-40h-1c-6-18,8.3-32.7,43-44c33.3-10.7,53.3-6.7,60,12
	c24.7,66,57,121.7,97,167h1V971c2-90.7,36-168,102-232c70-68.7,154.3-103,253-103c98,0,181.7,34.3,251,103s104,151.7,104,249
	c0,98-34.8,181.7-104.5,251s-153.2,104-250.5,104c-38.7,0-76-5.3-112-16c-18.7-7.3-23-27.7-13-61c10.7-34,25.3-48.3,44-43l14,3
	c9.3,2,20.2,4,32.5,6s22.5,3,30.5,3c69.3,0,128-23.8,176-71.5s72-105.8,72-174.5c0-67.3-24-124.3-72-171c-47.3-47.3-105.7-71-175-71
	c-71.3,0-130.7,26.7-178,80c-42.7,48-64,101.3-64,160v413c73.3,44.7,154,67,242,67c64,0,125.7-12.2,185-36.5s111.3-58.8,156-103.5
	s79.2-96.3,103.5-155s36.5-119.7,36.5-183c0-132-47-245-141-339c-93.3-93.3-206.3-140-339-140c-133.3,0-246.7,46.7-340,140
	c-35.3,35.3-61,64.3-77,87l-2,2c-5.3,7.3-9.7,12.5-13,15.5s-10.5,6.2-21.5,9.5s-23.8,2.3-38.5-3c-14-3.3-26.2-8.8-36.5-16.5
	S395,728,395,718V38c0-10,3.5-18.8,10.5-26.5S421.7,0,433,0h877c20,0,30,18.3,30,55s-10,55-30,55H499v483h1c26.7-28,60.7-56,102-84
	s77.3-48.3,108-61c72.7-30.7,149.7-46,231-46c80.7,0,156.7,15.3,228,46s133.7,72.7,187,126c54,54,96,116,126,186
	C1512.7,834.7,1528,911,1528,989z M1497,408c6,5.3,9,11.3,9,18s-1.8,12.7-5.5,18s-9.2,12.3-16.5,21c-17.3,17.3-30.3,26-39,26
	c-6,0-11.3-2.3-16-7c-70.7-60.7-139.7-105-207-133c-85.3-37.3-177.3-56-276-56c-88.7,0-176,16.3-262,49c-18,6.7-33-5.7-45-37
	c-6-16.7-8.7-29.3-8-38c2-10.7,7.3-17.3,16-20c86.7-38,186.3-57,299-57c109.3,0,214.7,21.3,316,64
	C1353.3,294.7,1431.7,345.3,1497,408z"/>
</svg>
