<?xml version="1.0" encoding="utf-8"?>
<!-- Generator: Adobe Illustrator 21.1.0, SVG Export Plug-In . SVG Version: 6.00 Build 0)  -->
<svg version="1.1" id="Layer_1" xmlns="http://www.w3.org/2000/svg" xmlns:xlink="http://www.w3.org/1999/xlink" x="0px" y="0px"
	 viewBox="0 0 1792 1792" style="enable-background:new 0 0 1792 1792;" xml:space="preserve">
<style type="text/css">
	.st0{fill:#00AE18;}
</style>
<path class="st0" d="M1792,1344v128c0,17.3-6.3,32.3-19,45s-27.7,19-45,19H64c-17.3,0-32.3-6.3-45-19s-19-27.7-19-45v-128
	c0-17.3,6.3-32.3,19-45s27.7-19,45-19h1664c17.3,0,32.3,6.3,45,19S1792,1326.7,1792,1344z M1408,960v128c0,17.3-6.3,32.3-19,45
	s-27.7,19-45,19H64c-17.3,0-32.3-6.3-45-19s-19-27.7-19-45V960c0-17.3,6.3-32.3,19-45s27.7-19,45-19h1280c17.3,0,32.3,6.3,45,19
	S1408,942.7,1408,960z M1664,576v128c0,17.3-6.3,32.3-19,45s-27.7,19-45,19H64c-17.3,0-32.3-6.3-45-19S0,721.3,0,704V576
	c0-17.3,6.3-32.3,19-45s27.7-19,45-19h1536c17.3,0,32.3,6.3,45,19S1664,558.7,1664,576z M1280,192v128c0,17.3-6.3,32.3-19,45
	s-27.7,19-45,19H64c-17.3,0-32.3-6.3-45-19S0,337.3,0,320V192c0-17.3,6.3-32.3,19-45s27.7-19,45-19h1152c17.3,0,32.3,6.3,45,19
	S1280,174.7,1280,192z"/>
</svg>
