<?xml version="1.0" encoding="utf-8"?>
<!-- Generator: Adobe Illustrator 21.1.0, SVG Export Plug-In . SVG Version: 6.00 Build 0)  -->
<svg version="1.1" id="Layer_1" xmlns="http://www.w3.org/2000/svg" xmlns:xlink="http://www.w3.org/1999/xlink" x="0px" y="0px"
	 viewBox="0 0 1792 1792" style="enable-background:new 0 0 1792 1792;" xml:space="preserve">
<style type="text/css">
	.st0{fill:#00AE18;}
</style>
<path class="st0" d="M1551,1476c10-4,18.7-5,26-3s11,7.8,11,17.5s-5,20.8-15,33.5c-8.7,10.7-23.3,25.2-44,43.5s-52.5,41-95.5,68
	s-90,51.7-141,74s-113.7,41.7-188,58S953.7,1792,875,1792c-79.3,0-158.7-10.3-238-31s-149-46.2-209-76.5s-117.5-65-172.5-104
	s-99.2-74-132.5-105s-61.3-60.2-84-87.5c-5.3-6-8.7-11.5-10-16.5s-1-9,1-12s4.7-5.3,8-7s7.2-2.3,11.5-2s8.2,1.8,11.5,4.5
	c128,78,228,133.3,300,166c259.3,117.3,525.7,147.3,799,90C1286.7,1584.3,1417,1539.3,1551,1476z M1758,1361
	c7.3,10.7,8.2,33.8,2.5,69.5s-15.2,69.8-28.5,102.5c-22.7,55.3-51,96.7-85,124c-11.3,9.3-20,12.3-26,9s-6-11.3,0-24
	c14-30,28.8-70.5,44.5-121.5s17.8-83.8,6.5-98.5c-3.3-4.7-8.5-8.5-15.5-11.5s-16-5-27-6s-20.8-1.8-29.5-2.5s-20.3-0.7-35,0
	s-25.2,1.3-31.5,2s-16.7,1.7-31,3s-21.8,2-22.5,2c-4,0.7-8.3,1.2-13,1.5s-8.3,0.7-11,1s-5.5,0.7-8.5,1s-5.3,0.5-7,0.5h-10l-3-0.5
	l-2-1.5l-1.5-3c-4-10.7,11.7-24,47-40s69.7-26,103-30c30.7-4.7,66.7-5,108-1S1748.7,1349,1758,1361z M1364,918
	c0,20.7,4.5,42,13.5,64s19.7,41.3,32,58c12.3,16.7,24.8,32,37.5,46s23.7,24.7,33,32l13,11l-227,224c-26.7-24.7-53-49.8-79-75.5
	s-45.3-45.2-58-58.5l-19-20c-7.3-7.3-15.7-18.3-25-33c-25.3,39.3-57.8,73.5-97.5,102.5c-39.7,29-82.2,50.2-127.5,63.5s-92,21-140,23
	s-93.8-5-137.5-21s-82.8-37.8-117.5-65.5s-62.3-65.3-83-113s-31-101.8-31-162.5c0-56,9.3-107.3,28-154s42.7-85.5,72-116.5
	s64.8-58.7,106.5-83s82.5-43.3,122.5-57s83.3-25.2,130-34.5s86.5-15.5,119.5-18.5s66.2-5.2,99.5-6.5V396c0-43.3-7-75.7-21-97
	c-22.7-35.3-63-53-121-53c-4,0-9.5,0.3-16.5,1s-20.5,4.7-40.5,12c-20,7.3-38.7,17.2-56,29.5s-36,32.2-56,59.5s-36,59.3-48,96
	l-294-27c0-40,7.3-79.7,22-119s37-77,67-113s66-67.7,108-95s92.5-49.2,151.5-65.5S847,0,915,0c66.7,0,127,8.3,181,25
	s97.2,37.2,129.5,61.5s59.3,52,81,83s36.7,59.7,45,86s12.5,50.8,12.5,73.5V918z M692,939c0,57.3,23.3,101.7,70,133
	c44,29.3,90.3,36.7,139,22c56-16.7,94-57.7,114-123c9.3-30,14-63.7,14-101V708c-39.3,1.3-76.3,5.3-111,12s-70.2,17.8-106.5,33.5
	s-65.3,39.3-87,71S692,894.3,692,939z"/>
</svg>
