<?xml version="1.0" encoding="utf-8"?>
<!-- Generator: Adobe Illustrator 21.1.0, SVG Export Plug-In . SVG Version: 6.00 Build 0)  -->
<svg version="1.1" id="Layer_1" xmlns="http://www.w3.org/2000/svg" xmlns:xlink="http://www.w3.org/1999/xlink" x="0px" y="0px"
	 viewBox="0 0 1792 1792" style="enable-background:new 0 0 1792 1792;" xml:space="preserve">
<style type="text/css">
	.st0{fill:#00AE18;}
</style>
<path class="st0" d="M576,1408c0-35.3-12.5-65.5-37.5-90.5S483.3,1280,448,1280s-65.5,12.5-90.5,37.5S320,1372.7,320,1408
	s12.5,65.5,37.5,90.5s55.2,37.5,90.5,37.5s65.5-12.5,90.5-37.5S576,1443.3,576,1408z M192,896h384V640H418c-9.3,1.3-16.7,4.3-22,9
	L201,844c-4.7,8-7.7,15.3-9,22V896z M1472,1408c0-35.3-12.5-65.5-37.5-90.5s-55.2-37.5-90.5-37.5s-65.5,12.5-90.5,37.5
	s-37.5,55.2-37.5,90.5s12.5,65.5,37.5,90.5s55.2,37.5,90.5,37.5s65.5-12.5,90.5-37.5S1472,1443.3,1472,1408z M1600,736V544
	c0-9.3-3-17-9-23s-13.7-9-23-9h-224V288c0-9.3-3-17-9-23s-13.7-9-23-9h-192c-9.3,0-17,3-23,9s-9,13.7-9,23v224H864c-9.3,0-17,3-23,9
	s-9,13.7-9,23v192c0,9.3,3,17,9,23s13.7,9,23,9h224v224c0,9.3,3,17,9,23s13.7,9,23,9h192c9.3,0,17-3,23-9s9-13.7,9-23V768h224
	c9.3,0,17-3,23-9S1600,745.3,1600,736z M1856,192v1152c0,17.3-6.3,32.3-19,45s-27.7,19-45,19h-192c0,70.7-25,131-75,181
	s-110.3,75-181,75s-131-25-181-75s-75-110.3-75-181H704c0,70.7-25,131-75,181s-110.3,75-181,75s-131-25-181-75s-75-110.3-75-181H64
	c-17.3,0-32.3-6.3-45-19s-19-27.7-19-45s6.3-32.3,19-45s27.7-19,45-19V864c0-17.3,4.3-36.7,13-58s19.3-38.3,32-51l198-198
	c12.7-12.7,29.7-23.3,51-32s40.7-13,58-13h160V192c0-17.3,6.3-32.3,19-45s27.7-19,45-19h1152c17.3,0,32.3,6.3,45,19
	S1856,174.7,1856,192z"/>
</svg>
