<?xml version="1.0" encoding="utf-8"?>
<!-- Generator: Adobe Illustrator 21.1.0, SVG Export Plug-In . SVG Version: 6.00 Build 0)  -->
<svg version="1.1" id="Layer_1" xmlns="http://www.w3.org/2000/svg" xmlns:xlink="http://www.w3.org/1999/xlink" x="0px" y="0px"
	 viewBox="0 0 1792 1792" style="enable-background:new 0 0 1792 1792;" xml:space="preserve">
<style type="text/css">
	.st0{fill:#00AE18;}
</style>
<path class="st0" d="M1088,832c0-17.3-6.3-32.3-19-45s-27.7-19-45-19H768c-17.3,0-32.3,6.3-45,19s-19,27.7-19,45s6.3,32.3,19,45
	s27.7,19,45,19h256c17.3,0,32.3-6.3,45-19S1088,849.3,1088,832z M1664,640v960c0,17.3-6.3,32.3-19,45s-27.7,19-45,19H192
	c-17.3,0-32.3-6.3-45-19s-19-27.7-19-45V640c0-17.3,6.3-32.3,19-45s27.7-19,45-19h1408c17.3,0,32.3,6.3,45,19S1664,622.7,1664,640z
	 M1728,192v256c0,17.3-6.3,32.3-19,45s-27.7,19-45,19H128c-17.3,0-32.3-6.3-45-19s-19-27.7-19-45V192c0-17.3,6.3-32.3,19-45
	s27.7-19,45-19h1536c17.3,0,32.3,6.3,45,19S1728,174.7,1728,192z"/>
</svg>
