<?xml version="1.0" encoding="utf-8"?>
<!-- Generator: Adobe Illustrator 21.1.0, SVG Export Plug-In . SVG Version: 6.00 Build 0)  -->
<svg version="1.1" id="Layer_1" xmlns="http://www.w3.org/2000/svg" xmlns:xlink="http://www.w3.org/1999/xlink" x="0px" y="0px"
	 viewBox="0 0 1792 1792" style="enable-background:new 0 0 1792 1792;" xml:space="preserve">
<style type="text/css">
	.st0{fill:#00AE18;}
</style>
<path class="st0" d="M1792,896c0,17.3-6.3,32.3-19,45l-256,256c-12.7,12.7-27.7,19-45,19s-32.3-6.3-45-19s-19-27.7-19-45v-128H384
	v128c0,17.3-6.3,32.3-19,45s-27.7,19-45,19s-32.3-6.3-45-19L19,941C6.3,928.3,0,913.3,0,896s6.3-32.3,19-45l256-256
	c12.7-12.7,27.7-19,45-19s32.3,6.3,45,19s19,27.7,19,45v128h1024V640c0-17.3,6.3-32.3,19-45s27.7-19,45-19s32.3,6.3,45,19l256,256
	C1785.7,863.7,1792,878.7,1792,896z"/>
</svg>
