<?xml version="1.0" encoding="utf-8"?>
<!-- Generator: Adobe Illustrator 21.1.0, SVG Export Plug-In . SVG Version: 6.00 Build 0)  -->
<svg version="1.1" id="Layer_1" xmlns="http://www.w3.org/2000/svg" xmlns:xlink="http://www.w3.org/1999/xlink" x="0px" y="0px"
	 viewBox="0 0 1792 1792" style="enable-background:new 0 0 1792 1792;" xml:space="preserve">
<style type="text/css">
	.st0{fill:#00AE18;}
</style>
<path class="st0" d="M1675,971c0,34-12.3,64-37,90l-75,75c-25.3,25.3-55.7,38-91,38c-36,0-66-12.7-90-38l-294-293v704
	c0,34.7-12.5,62.8-37.5,84.5S995.3,1664,960,1664H832c-35.3,0-65.5-10.8-90.5-32.5S704,1581.7,704,1547V843l-294,293
	c-24,25.3-54,38-90,38s-66-12.7-90-38l-75-75c-25.3-25.3-38-55.3-38-90c0-35.3,12.7-65.7,38-91l651-651c23.3-24.7,53.3-37,90-37
	c36,0,66.3,12.3,91,37l651,651C1662.7,906,1675,936.3,1675,971z"/>
</svg>
