<?xml version="1.0" encoding="utf-8"?>
<!-- Generator: Adobe Illustrator 21.1.0, SVG Export Plug-In . SVG Version: 6.00 Build 0)  -->
<svg version="1.1" id="Layer_1" xmlns="http://www.w3.org/2000/svg" xmlns:xlink="http://www.w3.org/1999/xlink" x="0px" y="0px"
	 viewBox="0 0 1792 1792" style="enable-background:new 0 0 1792 1792;" xml:space="preserve">
<style type="text/css">
	.st0{fill:#00AE18;}
</style>
<path class="st0" d="M1546,1050c30.7,17.3,50.5,43.2,59.5,77.5s4.8,66.8-12.5,97.5l-64,110c-17.3,30.7-43.2,50.5-77.5,59.5
	s-66.8,4.8-97.5-12.5l-266-153v307c0,34.7-12.7,64.7-38,90s-55.3,38-90,38H832c-34.7,0-64.7-12.7-90-38s-38-55.3-38-90v-307
	l-266,153c-30.7,17.3-63.2,21.5-97.5,12.5s-60.2-28.8-77.5-59.5l-64-110c-17.3-30.7-21.5-63.2-12.5-97.5s28.8-60.2,59.5-77.5
	l266-154L246,742c-30.7-17.3-50.5-43.2-59.5-77.5s-4.8-66.8,12.5-97.5l64-110c17.3-30.7,43.2-50.5,77.5-59.5s66.8-4.8,97.5,12.5
	l266,153V256c0-34.7,12.7-64.7,38-90s55.3-38,90-38h128c34.7,0,64.7,12.7,90,38s38,55.3,38,90v307l266-153
	c30.7-17.3,63.2-21.5,97.5-12.5s60.2,28.8,77.5,59.5l64,110c17.3,30.7,21.5,63.2,12.5,97.5s-28.8,60.2-59.5,77.5l-266,154L1546,1050
	z"/>
</svg>
