<?xml version="1.0" encoding="utf-8"?>
<!-- Generator: Adobe Illustrator 21.1.0, SVG Export Plug-In . SVG Version: 6.00 Build 0)  -->
<svg version="1.1" id="Layer_1" xmlns="http://www.w3.org/2000/svg" xmlns:xlink="http://www.w3.org/1999/xlink" x="0px" y="0px"
	 viewBox="0 0 1792 1792" style="enable-background:new 0 0 1792 1792;" xml:space="preserve">
<style type="text/css">
	.st0{fill:#00AE18;}
</style>
<path class="st0" d="M1440,893c0-107.3-29-205.7-87-295l-754,753c91.3,59.3,190.3,89,297,89c74,0,144.5-14.5,211.5-43.5
	s124.8-67.8,173.5-116.5s87.3-106.8,116-174.5S1440,967,1440,893z M441,1192l755-754c-90-60.7-190-91-300-91
	c-98.7,0-189.7,24.3-273,73S473.7,535,425,619s-73,175.3-73,274C352,1001,381.7,1100.7,441,1192z M1664,893
	c0,104.7-20.3,204.7-61,300s-95.2,177.3-163.5,246s-150,123.3-245,164s-194.5,61-298.5,61s-203.5-20.3-298.5-61s-176.7-95.3-245-164
	S229.7,1288.3,189,1193s-61-195.3-61-300s20.3-204.5,61-299.5S284.2,416.7,352.5,348s150-123.3,245-164S792,123,896,123
	s203.5,20.3,298.5,61s176.7,95.3,245,164s122.8,150.5,163.5,245.5S1664,788.3,1664,893z"/>
</svg>
