<?xml version="1.0" encoding="utf-8"?>
<!-- Generator: Adobe Illustrator 21.1.0, SVG Export Plug-In . SVG Version: 6.00 Build 0)  -->
<svg version="1.1" id="Layer_1" xmlns="http://www.w3.org/2000/svg" xmlns:xlink="http://www.w3.org/1999/xlink" x="0px" y="0px"
	 viewBox="0 0 1792 1792" style="enable-background:new 0 0 1792 1792;" xml:space="preserve">
<style type="text/css">
	.st0{fill:#00AE18;}
</style>
<path class="st0" d="M1664,512v768H0V512H1664z M1792,1088h128V704h-128V416c0-9.3-3-17-9-23s-13.7-9-23-9H-96c-9.3,0-17,3-23,9
	s-9,13.7-9,23v960c0,9.3,3,17,9,23s13.7,9,23,9h1856c9.3,0,17-3,23-9s9-13.7,9-23V1088z M2048,704v384c0,35.3-12.5,65.5-37.5,90.5
	s-55.2,37.5-90.5,37.5v160c0,44-15.7,81.7-47,113s-69,47-113,47H-96c-44,0-81.7-15.7-113-47s-47-69-47-113V416
	c0-44,15.7-81.7,47-113s69-47,113-47h1856c44,0,81.7,15.7,113,47s47,69,47,113v160c35.3,0,65.5,12.5,90.5,37.5S2048,668.7,2048,704z
	"/>
</svg>
