<?xml version="1.0" encoding="utf-8"?>
<!-- Generator: Adobe Illustrator 21.1.0, SVG Export Plug-In . SVG Version: 6.00 Build 0)  -->
<svg version="1.1" id="Layer_1" xmlns="http://www.w3.org/2000/svg" xmlns:xlink="http://www.w3.org/1999/xlink" x="0px" y="0px"
	 viewBox="0 0 1792 1792" style="enable-background:new 0 0 1792 1792;" xml:space="preserve">
<style type="text/css">
	.st0{fill:#00AE18;}
</style>
<path class="st0" d="M1376,128c79.3,0,147.2,28.2,203.5,84.5S1664,336.7,1664,416v960c0,79.3-28.2,147.2-84.5,203.5
	S1455.3,1664,1376,1664H416c-79.3,0-147.2-28.2-203.5-84.5S128,1455.3,128,1376V416c0-79.3,28.2-147.2,84.5-203.5S336.7,128,416,128
	H1376z M627,495H256v787h382c78,0,143.7-19.2,197-57.5s80-95.2,80-170.5c0-105.3-47.7-172-143-200c71.3-34.7,107-89.3,107-164
	c0-38-6.5-70.2-19.5-96.5S827.7,547,803,533s-51-23.8-79-29.5S663.7,495,627,495z M605,813H429V629h163c79.3,0,119,30,119,90
	C711,781.7,675.7,813,605,813z M614,1148H429V931h189c82.7,0,124,37.7,124,113C742,1113.3,699.3,1148,614,1148z M1264,1180
	c-45.3,0-80-12.7-104-38s-36-61-36-107h411c0.7-6.7,1-16.7,1-30c0-88-24.8-161.5-74.5-220.5S1344,696,1258,696
	c-85.3,0-155.3,28.7-210,86c-54.7,57.3-82,129.3-82,216c0,90,26.3,162.3,79,217c52.7,54.7,123.7,82,213,82
	c136.7,0,225.7-63.7,267-191h-138c-7.3,22.7-23.2,40.7-47.5,54S1290,1180,1264,1180z M1254,814c75.3,0,116.7,40.7,124,122h-254
	c2.7-37.3,15.7-67,39-89S1216.7,814,1254,814z M1092,548h319v77h-319V548z"/>
</svg>
