<?xml version="1.0" encoding="utf-8"?>
<!-- Generator: Adobe Illustrator 21.1.0, SVG Export Plug-In . SVG Version: 6.00 Build 0)  -->
<svg version="1.1" id="Layer_1" xmlns="http://www.w3.org/2000/svg" xmlns:xlink="http://www.w3.org/1999/xlink" x="0px" y="0px"
	 viewBox="0 0 1792 1792" style="enable-background:new 0 0 1792 1792;" xml:space="preserve">
<style type="text/css">
	.st0{fill:#00AE18;}
</style>
<path class="st0" d="M912,1696c0-10.7-5.3-16-16-16c-39.3,0-73.2-14.2-101.5-42.5S752,1575.3,752,1536c0-10.7-5.3-16-16-16
	s-16,5.3-16,16c0,48.7,17.2,90.2,51.5,124.5S847.3,1712,896,1712C906.7,1712,912,1706.7,912,1696z M1728,1408
	c0,34.7-12.7,64.7-38,90s-55.3,38-90,38h-448c0,70.7-25,131-75,181s-110.3,75-181,75s-131-25-181-75s-75-110.3-75-181H192
	c-34.7,0-64.7-12.7-90-38s-38-55.3-38-90c33.3-28,63.7-57.3,91-88s55.7-70.5,85-119.5s54.2-101.8,74.5-158.5
	c20.3-56.7,37-125.3,50-206S384,668.7,384,576c0-101.3,39-195.5,117-282.5S681.3,153.7,808,135c-5.3-12.7-8-25.7-8-39
	c0-26.7,9.3-49.3,28-68s41.3-28,68-28s49.3,9.3,68,28s28,41.3,28,68c0,13.3-2.7,26.3-8,39c126.7,18.7,229,71.5,307,158.5
	s117,181.2,117,282.5c0,92.7,6.5,179.3,19.5,260s29.7,149.3,50,206c20.3,56.7,45.2,109.5,74.5,158.5s57.7,88.8,85,119.5
	S1694.7,1380,1728,1408z"/>
</svg>
