<?xml version="1.0" encoding="utf-8"?>
<!-- Generator: Adobe Illustrator 21.1.0, SVG Export Plug-In . SVG Version: 6.00 Build 0)  -->
<svg version="1.1" id="Layer_1" xmlns="http://www.w3.org/2000/svg" xmlns:xlink="http://www.w3.org/1999/xlink" x="0px" y="0px"
	 viewBox="0 0 1792 1792" style="enable-background:new 0 0 1792 1792;" xml:space="preserve">
<style type="text/css">
	.st0{fill:#00AE18;}
</style>
<path class="st0" d="M976,870c0-28.7-13.7-50.7-41-66s-53-15.7-77-1c-28.7,13.3-42.8,37.5-42.5,72.5S830.3,934,859,946
	c26,15.3,53,14,81-4S980,900,976,870z M1056,854c5.3,44-6.7,84.3-36,121c-29.3,36.7-66,57-110,61s-83.7-9.3-119-40
	c-35.3-30.7-54-68.3-56-113c-1.3-32.7,7.2-63.7,25.5-93s42.5-50.7,72.5-64c46.7-20.7,93.8-17.3,141.5,10S1049.3,802.7,1056,854z
	 M1228,463c-13.3,14-31.2,25.3-53.5,34s-40,14-53,16s-34.2,4.7-63.5,8c-103.3,13.3-211.3,13.3-324,0c-29.3-4-50.3-7.2-63-9.5
	s-30.2-7.7-52.5-16S578,476.3,564,463c8.7-12.7,20.7-23,36-31s28.7-13.2,40-15.5s27-5.2,47-8.5c132-23.3,268-23.7,408-1
	c22,3.3,39,6.2,51,8.5s26.3,7.7,43,16S1218.7,450.3,1228,463z M1270,1209c0-4.7,1.8-13.5,5.5-26.5s4.7-23.7,3-32
	s-7.5-13.8-17.5-16.5c-107.3,70.7-229,106-365,106s-258-35.3-366-106l-12,6l-5,12c17.3,102.7,31,172.7,41,210
	c31.3,54,99.3,90,204,108c166,30.7,308.7,13,428-53c22.7-12.7,39-29.8,49-51.5s17.5-50.2,22.5-85.5S1266.7,1221,1270,1209z
	 M1400,516c6-35.3,3.3-60.3-8-75c-28.7-36.7-80.3-66-155-88c-144-42-306.3-54-487-36c-88,8-163.3,23.3-226,46
	c-25.3,10-45.2,18.3-59.5,25s-30,18-47,34s-26.8,34-29.5,54c5.3,45.3,11.7,91.3,19,138s17,103.7,29,171s20,113,24,137
	c0.7,3.3,2.3,13.7,5,31s5,29.3,7,36s6,15.7,12,27c6,11.3,13.3,20.7,22,28c70,53.3,164.7,86.7,284,100c172.7,18.7,319.3-2.3,440-63
	c16-8.7,29.2-16.3,39.5-23s20.7-16.3,31-29c10.3-12.7,16.8-26,19.5-40C1352,811,1378.7,653.3,1400,516z M1664,416v960
	c0,79.3-28.2,147.2-84.5,203.5S1455.3,1664,1376,1664H416c-79.3,0-147.2-28.2-203.5-84.5S128,1455.3,128,1376V416
	c0-79.3,28.2-147.2,84.5-203.5S336.7,128,416,128h960c79.3,0,147.2,28.2,203.5,84.5S1664,336.7,1664,416z"/>
</svg>
