<?xml version="1.0" encoding="utf-8"?>
<!-- Generator: Adobe Illustrator 21.1.0, SVG Export Plug-In . SVG Version: 6.00 Build 0)  -->
<svg version="1.1" id="Layer_1" xmlns="http://www.w3.org/2000/svg" xmlns:xlink="http://www.w3.org/1999/xlink" x="0px" y="0px"
	 viewBox="0 0 1792 1792" style="enable-background:new 0 0 1792 1792;" xml:space="preserve">
<style type="text/css">
	.st0{fill:#00AE18;}
</style>
<path class="st0" d="M1152,896c0,70.7-25,131-75,181s-110.3,75-181,75s-131-25-181-75s-75-110.3-75-181s25-131,75-181
	s110.3-75,181-75s131,25,181,75S1152,825.3,1152,896z M1280,896c0-106-37.5-196.5-112.5-271.5S1002,512,896,512
	s-196.5,37.5-271.5,112.5S512,790,512,896s37.5,196.5,112.5,271.5S790,1280,896,1280s196.5-37.5,271.5-112.5S1280,1002,1280,896z
	 M1408,896c0,141.3-50,262-150,362s-220.7,150-362,150s-262-50-362-150s-150-220.7-150-362s50-262,150-362s220.7-150,362-150
	s262,50,362,150S1408,754.7,1408,896z M1536,896c0-86.7-17-169.5-51-248.5s-79.5-147-136.5-204s-125-102.5-204-136.5
	S982.7,256,896,256s-169.5,17-248.5,51s-147,79.5-204,136.5S341,568.5,307,647.5S256,809.3,256,896s17,169.5,51,248.5
	s79.5,147,136.5,204s125,102.5,204,136.5s161.8,51,248.5,51s169.5-17,248.5-51s147-79.5,204-136.5s102.5-125,136.5-204
	S1536,982.7,1536,896z M1664,896c0,139.3-34.3,267.8-103,385.5s-161.8,210.8-279.5,279.5s-246.2,103-385.5,103
	s-267.8-34.3-385.5-103S299.7,1399.2,231,1281.5S128,1035.3,128,896s34.3-267.8,103-385.5S392.8,299.7,510.5,231S756.7,128,896,128
	s267.8,34.3,385.5,103s210.8,161.8,279.5,279.5S1664,756.7,1664,896z"/>
</svg>
