<?xml version="1.0" encoding="utf-8"?>
<!-- Generator: Adobe Illustrator 21.1.0, SVG Export Plug-In . SVG Version: 6.00 Build 0)  -->
<svg version="1.1" id="Layer_1" xmlns="http://www.w3.org/2000/svg" xmlns:xlink="http://www.w3.org/1999/xlink" x="0px" y="0px"
	 viewBox="0 0 1792 1792" style="enable-background:new 0 0 1792 1792;" xml:space="preserve">
<style type="text/css">
	.st0{fill:#00AE18;}
</style>
<path class="st0" d="M1696,896c62,0,114.8,21.8,158.5,65.5S1920,1058,1920,1120v384c0,9.3-3,17-9,23s-13.7,9-23,9h-96v64
	c0,53.3-18.7,98.7-56,136s-82.7,56-136,56s-98.7-18.7-136-56s-56-82.7-56-136v-64H384v64c0,53.3-18.7,98.7-56,136s-82.7,56-136,56
	s-98.7-18.7-136-56s-56-82.7-56-136v-64h-96c-9.3,0-17-3-23-9s-9-13.7-9-23v-384c0-62,21.8-114.8,65.5-158.5S34,896,96,896h28
	l105-419c15.3-62.7,50-115.2,104-157.5S446.7,256,512,256h128V32c0-9.3,3-17,9-23s13.7-9,23-9h448c9.3,0,17,3,23,9s9,13.7,9,23v224
	h128c65.3,0,125,21.2,179,63.5s88.7,94.8,104,157.5l105,419H1696z M192,1376c44,0,81.7-15.7,113-47s47-69,47-113s-15.7-81.7-47-113
	s-69-47-113-47s-81.7,15.7-113,47s-47,69-47,113s15.7,81.7,47,113S148,1376,192,1376z M388,896h1016l-89-357
	c-1.3-5.3-6-11.2-14-17.5s-15-9.5-21-9.5H512c-6,0-13,3.2-21,9.5s-12.7,12.2-14,17.5L388,896z M1600,1376c44,0,81.7-15.7,113-47
	s47-69,47-113s-15.7-81.7-47-113s-69-47-113-47s-81.7,15.7-113,47s-47,69-47,113s15.7,81.7,47,113S1556,1376,1600,1376z"/>
</svg>
