<?xml version="1.0" encoding="utf-8"?>
<!-- Generator: Adobe Illustrator 21.1.0, SVG Export Plug-In . SVG Version: 6.00 Build 0)  -->
<svg version="1.1" id="Layer_1" xmlns="http://www.w3.org/2000/svg" xmlns:xlink="http://www.w3.org/1999/xlink" x="0px" y="0px"
	 viewBox="0 0 1792 1792" style="enable-background:new 0 0 1792 1792;" xml:space="preserve">
<style type="text/css">
	.st0{fill:#00AE18;}
</style>
<path class="st0" d="M384,1536c0-35.3-12.5-65.5-37.5-90.5S291.3,1408,256,1408s-65.5,12.5-90.5,37.5S128,1500.7,128,1536
	s12.5,65.5,37.5,90.5s55.2,37.5,90.5,37.5s65.5-12.5,90.5-37.5S384,1571.3,384,1536z M768,1536c0-35.3-12.5-65.5-37.5-90.5
	S675.3,1408,640,1408s-65.5,12.5-90.5,37.5S512,1500.7,512,1536s12.5,65.5,37.5,90.5s55.2,37.5,90.5,37.5s65.5-12.5,90.5-37.5
	S768,1571.3,768,1536z M384,1152c0-35.3-12.5-65.5-37.5-90.5S291.3,1024,256,1024s-65.5,12.5-90.5,37.5S128,1116.7,128,1152
	s12.5,65.5,37.5,90.5s55.2,37.5,90.5,37.5s65.5-12.5,90.5-37.5S384,1187.3,384,1152z M1152,1536c0-35.3-12.5-65.5-37.5-90.5
	s-55.2-37.5-90.5-37.5c-35.3,0-65.5,12.5-90.5,37.5S896,1500.7,896,1536s12.5,65.5,37.5,90.5s55.2,37.5,90.5,37.5
	c35.3,0,65.5-12.5,90.5-37.5S1152,1571.3,1152,1536z M768,1152c0-35.3-12.5-65.5-37.5-90.5S675.3,1024,640,1024
	s-65.5,12.5-90.5,37.5S512,1116.7,512,1152s12.5,65.5,37.5,90.5s55.2,37.5,90.5,37.5s65.5-12.5,90.5-37.5S768,1187.3,768,1152z
	 M384,768c0-35.3-12.5-65.5-37.5-90.5S291.3,640,256,640s-65.5,12.5-90.5,37.5S128,732.7,128,768s12.5,65.5,37.5,90.5
	S220.7,896,256,896s65.5-12.5,90.5-37.5S384,803.3,384,768z M1152,1152c0-35.3-12.5-65.5-37.5-90.5s-55.2-37.5-90.5-37.5
	c-35.3,0-65.5,12.5-90.5,37.5S896,1116.7,896,1152s12.5,65.5,37.5,90.5s55.2,37.5,90.5,37.5c35.3,0,65.5-12.5,90.5-37.5
	S1152,1187.3,1152,1152z M768,768c0-35.3-12.5-65.5-37.5-90.5S675.3,640,640,640s-65.5,12.5-90.5,37.5S512,732.7,512,768
	s12.5,65.5,37.5,90.5S604.7,896,640,896s65.5-12.5,90.5-37.5S768,803.3,768,768z M1536,1536v-384c0-34.7-12.7-64.7-38-90
	s-55.3-38-90-38s-64.7,12.7-90,38s-38,55.3-38,90v384c0,34.7,12.7,64.7,38,90s55.3,38,90,38s64.7-12.7,90-38S1536,1570.7,1536,1536z
	 M1152,768c0-35.3-12.5-65.5-37.5-90.5S1059.3,640,1024,640c-35.3,0-65.5,12.5-90.5,37.5S896,732.7,896,768s12.5,65.5,37.5,90.5
	S988.7,896,1024,896c35.3,0,65.5-12.5,90.5-37.5S1152,803.3,1152,768z M1536,448V192c0-17.3-6.3-32.3-19-45s-27.7-19-45-19H192
	c-17.3,0-32.3,6.3-45,19s-19,27.7-19,45v256c0,17.3,6.3,32.3,19,45s27.7,19,45,19h1280c17.3,0,32.3-6.3,45-19S1536,465.3,1536,448z
	 M1536,768c0-35.3-12.5-65.5-37.5-90.5S1443.3,640,1408,640s-65.5,12.5-90.5,37.5S1280,732.7,1280,768s12.5,65.5,37.5,90.5
	s55.2,37.5,90.5,37.5s65.5-12.5,90.5-37.5S1536,803.3,1536,768z M1664,128v1536c0,34.7-12.7,64.7-38,90s-55.3,38-90,38H128
	c-34.7,0-64.7-12.7-90-38s-38-55.3-38-90V128c0-34.7,12.7-64.7,38-90S93.3,0,128,0h1408c34.7,0,64.7,12.7,90,38S1664,93.3,1664,128z
	"/>
</svg>
