<?xml version="1.0" encoding="utf-8"?>
<!-- Generator: Adobe Illustrator 21.1.0, SVG Export Plug-In . SVG Version: 6.00 Build 0)  -->
<svg version="1.1" id="Layer_1" xmlns="http://www.w3.org/2000/svg" xmlns:xlink="http://www.w3.org/1999/xlink" x="0px" y="0px"
	 viewBox="0 0 1792 1792" style="enable-background:new 0 0 1792 1792;" xml:space="preserve">
<style type="text/css">
	.st0{fill:#00AE18;}
</style>
<path class="st0" d="M352,1088c0-44-15.7-81.7-47-113s-69-47-113-47s-81.7,15.7-113,47s-47,69-47,113s15.7,81.7,47,113s69,47,113,47
	s81.7-15.7,113-47S352,1132,352,1088z M388,768h1016l-89-357c-1.3-5.3-6-11.2-14-17.5s-15-9.5-21-9.5H512c-6,0-13,3.2-21,9.5
	s-12.7,12.2-14,17.5L388,768z M1760,1088c0-44-15.7-81.7-47-113s-69-47-113-47s-81.7,15.7-113,47s-47,69-47,113s15.7,81.7,47,113
	s69,47,113,47s81.7-15.7,113-47S1760,1132,1760,1088z M1920,992v384c0,9.3-3,17-9,23s-13.7,9-23,9h-96v128c0,53.3-18.7,98.7-56,136
	s-82.7,56-136,56s-98.7-18.7-136-56s-56-82.7-56-136v-128H384v128c0,53.3-18.7,98.7-56,136s-82.7,56-136,56s-98.7-18.7-136-56
	s-56-82.7-56-136v-128h-96c-9.3,0-17-3-23-9s-9-13.7-9-23V992c0-62,21.8-114.8,65.5-158.5S34,768,96,768h28l105-419
	c15.3-62.7,50-115.2,104-157.5S446.7,128,512,128h768c65.3,0,125,21.2,179,63.5s88.7,94.8,104,157.5l105,419h28
	c62,0,114.8,21.8,158.5,65.5S1920,930,1920,992z"/>
</svg>
