<?xml version="1.0" encoding="utf-8"?>
<!-- Generator: Adobe Illustrator 21.1.0, SVG Export Plug-In . SVG Version: 6.00 Build 0)  -->
<svg version="1.1" id="Layer_1" xmlns="http://www.w3.org/2000/svg" xmlns:xlink="http://www.w3.org/1999/xlink" x="0px" y="0px"
	 viewBox="0 0 1792 1792" style="enable-background:new 0 0 1792 1792;" xml:space="preserve">
<style type="text/css">
	.st0{fill:#00AE18;}
</style>
<path class="st0" d="M1152,576v640c0,17.3-6.3,32.3-19,45s-27.7,19-45,19c-13.3,0-25.7-4-37-12L603,948c-18-12.7-27-30-27-52
	s9-39.3,27-52l448-320c11.3-8,23.7-12,37-12c17.3,0,32.3,6.3,45,19S1152,558.7,1152,576z M1408,1376V416c0-8.7-3.2-16.2-9.5-22.5
	s-13.8-9.5-22.5-9.5H416c-8.7,0-16.2,3.2-22.5,9.5S384,407.3,384,416v960c0,8.7,3.2,16.2,9.5,22.5s13.8,9.5,22.5,9.5h960
	c8.7,0,16.2-3.2,22.5-9.5S1408,1384.7,1408,1376z M1664,416v960c0,79.3-28.2,147.2-84.5,203.5S1455.3,1664,1376,1664H416
	c-79.3,0-147.2-28.2-203.5-84.5S128,1455.3,128,1376V416c0-79.3,28.2-147.2,84.5-203.5S336.7,128,416,128h960
	c79.3,0,147.2,28.2,203.5,84.5S1664,336.7,1664,416z"/>
</svg>
