<?xml version="1.0" encoding="utf-8"?>
<!-- Generator: Adobe Illustrator 21.1.0, SVG Export Plug-In . SVG Version: 6.00 Build 0)  -->
<svg version="1.1" id="Layer_1" xmlns="http://www.w3.org/2000/svg" xmlns:xlink="http://www.w3.org/1999/xlink" x="0px" y="0px"
	 viewBox="0 0 1792 1792" style="enable-background:new 0 0 1792 1792;" xml:space="preserve">
<style type="text/css">
	.st0{fill:#00AE18;}
</style>
<path class="st0" d="M489,906c0,24.7-8.5,45.2-25.5,61.5S425.7,992,401,992c-19.3,0-34.8-5.3-46.5-16S337,950.7,337,932
	c0-24.7,8.3-45.5,25-62.5s37.3-25.5,62-25.5c18.7,0,34.2,5.5,46.5,16.5S489,886.7,489,906z M1274,757c0,28-7.3,47-22,57
	s-36.7,15-66,15l-32,1l17-107c1.3-7.3,5.7-11,13-11h18c14.7,0,26.3,0.7,35,2s17,5.5,25,12.5S1274,743.7,1274,757z M1625,906
	c0,24-8.5,44.3-25.5,61s-37.5,25-61.5,25c-19.3,0-35-5.3-47-16s-18-25.3-18-44c0-24.7,8.3-45.5,25-62.5s37.3-25.5,62-25.5
	c18.7,0,34.2,5.5,46.5,16.5S1625,886.7,1625,906z M257,735c0-39.3-12.8-67.8-38.5-85.5S159.3,623,118,623H-42
	c-12.7,0-19.7,6.3-21,19l-65,408c-0.7,4,0.3,7.7,3,11s6,5,10,5h76c13.3,0,20.7-6.3,22-19L1,937c0.7-5.3,3-9.7,7-13s9-5.5,15-6.5
	s11.7-1.5,17-1.5s11.7,0.3,19,1s12,1,14,1c57.3,0,102.3-16.2,135-48.5S257,792.3,257,735z M566,1047l41-261c0.7-4-0.3-7.7-3-11
	s-6-5-10-5h-76c-9.3,0-15,11-17,33c-18-26.7-49.7-40-95-40c-48,0-88.8,18-122.5,54S233,895.3,233,944c0,39.3,11.5,70.7,34.5,94
	c23,23.3,53.8,35,92.5,35c18.7,0,38-4,58-12s36-18.7,48-32c-2.7,8-4,15-4,21c0,10.7,4.3,16,13,16h69C556.7,1066,564,1059.7,566,1047
	z M1013,784c0-3.3-1.3-6.5-4-9.5s-5.7-4.5-9-4.5h-77c-7.3,0-13.3,3.3-18,10L799,936l-44-150c-3.3-10.7-10.7-16-22-16h-75
	c-3.3,0-6.3,1.5-9,4.5s-4,6.2-4,9.5c0,1.3,6.5,21,19.5,59s27,79,42,123s22.8,67.3,23.5,70c-54.7,74.7-82,114.7-82,120
	c0,8.7,4.3,13,13,13h77c7.3,0,13.3-3.3,18-10l255-368C1012.3,789.7,1013,787.3,1013,784z M1393,735c0-39.3-12.8-67.8-38.5-85.5
	S1295.3,623,1254,623h-159c-13.3,0-20.7,6.3-22,19l-65,408c-0.7,4,0.3,7.7,3,11s6,5,10,5h82c8,0,13.3-4.3,16-13l18-116
	c0.7-5.3,3-9.7,7-13s9-5.5,15-6.5s11.7-1.5,17-1.5s11.7,0.3,19,1s12,1,14,1c57.3,0,102.3-16.2,135-48.5S1393,792.3,1393,735z
	 M1702,1047l41-261c0.7-4-0.3-7.7-3-11s-6-5-10-5h-76c-9.3,0-15,11-17,33c-17.3-26.7-49-40-95-40c-48,0-88.8,18-122.5,54
	s-50.5,78.3-50.5,127c0,39.3,11.5,70.7,34.5,94c23,23.3,53.8,35,92.5,35c19.3,0,39-4,59-12s35.7-18.7,47-32c0,0.7-0.7,3.7-2,9
	s-2,9.3-2,12c0,10.7,4.3,16,13,16h69C1692.7,1066,1700,1059.7,1702,1047z M1920,638v-1c0-9.3-4.3-14-13-14h-74
	c-7.3,0-11.7,3.7-13,11l-65,416l-1,2c0,3.3,1.3,6.5,4,9.5s6,4.5,10,4.5h66c12.7,0,19.7-6.3,21-19L1920,638z M136,772
	c-3.3,23.3-12,38.7-26,46s-34,11-60,11l-33,1l17-107c1.3-7.3,5.7-11,13-11h19c26.7,0,46,3.8,58,11.5S140,747.3,136,772z M2048,256
	v1280c0,34.7-12.7,64.7-38,90s-55.3,38-90,38H-128c-34.7,0-64.7-12.7-90-38s-38-55.3-38-90V256c0-34.7,12.7-64.7,38-90
	s55.3-38,90-38h2048c34.7,0,64.7,12.7,90,38S2048,221.3,2048,256z"/>
</svg>
