<?xml version="1.0" encoding="utf-8"?>
<!-- Generator: Adobe Illustrator 21.1.0, SVG Export Plug-In . SVG Version: 6.00 Build 0)  -->
<svg version="1.1" id="Layer_1" xmlns="http://www.w3.org/2000/svg" xmlns:xlink="http://www.w3.org/1999/xlink" x="0px" y="0px"
	 viewBox="0 0 1792 1792" style="enable-background:new 0 0 1792 1792;" xml:space="preserve">
<style type="text/css">
	.st0{fill:#00AE18;}
</style>
<path class="st0" d="M1504,896l138,135c20,18.7,26.7,42,20,70c-8,27.3-25.3,44.3-52,51l-188,48l53,186c8,27.3,1.7,50.7-19,70
	c-19.3,20.7-42.7,27-70,19l-186-53l-48,188c-6.7,26.7-23.7,44-51,52c-8,1.3-14.3,2-19,2c-20.7,0-37.7-7.3-51-22l-135-138l-135,138
	c-18.7,20-42,26.7-70,20c-27.3-7.3-44.3-24.7-51-52l-48-188l-186,53c-27.3,8-50.7,1.7-70-19c-20.7-19.3-27-42.7-19-70l53-186
	l-188-48c-26.7-6.7-44-23.7-52-51c-6.7-28,0-51.3,20-70l138-135L150,761c-20-18.7-26.7-42-20-70c8-27.3,25.3-44.3,52-51l188-48
	l-53-186c-8-27.3-1.7-50.7,19-70c19.3-20.7,42.7-27,70-19l186,53l48-188c6.7-27.3,23.7-44.3,51-51c27.3-8,50.7-1.7,70,19l135,139
	l135-139c19.3-20,42.7-26.3,70-19c27.3,6.7,44.3,23.7,51,51l48,188l186-53c27.3-8,50.7-1.7,70,19c20.7,19.3,27,42.7,19,70l-53,186
	l188,48c26.7,6.7,44,23.7,52,51c6.7,28,0,51.3-20,70L1504,896z"/>
</svg>
