<?xml version="1.0" encoding="utf-8"?>
<!-- Generator: Adobe Illustrator 21.1.0, SVG Export Plug-In . SVG Version: 6.00 Build 0)  -->
<svg version="1.1" id="Layer_1" xmlns="http://www.w3.org/2000/svg" xmlns:xlink="http://www.w3.org/1999/xlink" x="0px" y="0px"
	 viewBox="0 0 1792 1792" style="enable-background:new 0 0 1792 1792;" xml:space="preserve">
<style type="text/css">
	.st0{fill:#00AE18;}
</style>
<path class="st0" d="M1472,930v318c0,79.3-28.2,147.2-84.5,203.5S1263.3,1536,1184,1536H352c-79.3,0-147.2-28.2-203.5-84.5
	S64,1327.3,64,1248V416c0-79.3,28.2-147.2,84.5-203.5S272.7,128,352,128h832c42,0,81,8.3,117,25c10,4.7,16,12.3,18,23
	c2,11.3-1,21-9,29l-49,49c-6.7,6.7-14.3,10-23,10c-2,0-5-0.7-9-2c-15.3-4-30.3-6-45-6H352c-44,0-81.7,15.7-113,47s-47,69-47,113v832
	c0,44,15.7,81.7,47,113s69,47,113,47h832c44,0,81.7-15.7,113-47s47-69,47-113V994c0-8.7,3-16,9-22l64-64c6.7-6.7,14.3-10,23-10
	c4,0,8,1,12,3C1465.3,906.3,1472,916,1472,930z M1703,441l-814,814c-16,16-35,24-57,24s-41-8-57-24L345,825c-16-16-24-35-24-57
	s8-41,24-57l110-110c16-16,35-24,57-24s41,8,57,24l263,263l647-647c16-16,35-24,57-24s41,8,57,24l110,110c16,16,24,35,24,57
	S1719,425,1703,441z"/>
</svg>
