<?xml version="1.0" encoding="utf-8"?>
<!-- Generator: Adobe Illustrator 21.1.0, SVG Export Plug-In . SVG Version: 6.00 Build 0)  -->
<svg version="1.1" id="Layer_1" xmlns="http://www.w3.org/2000/svg" xmlns:xlink="http://www.w3.org/1999/xlink" x="0px" y="0px"
	 viewBox="0 0 1792 1792" style="enable-background:new 0 0 1792 1792;" xml:space="preserve">
<style type="text/css">
	.st0{fill:#00AE18;}
</style>
<path class="st0" d="M1683,808l-742,741c-12.7,12.7-27.7,19-45,19s-32.3-6.3-45-19L109,808c-12.7-12.7-19-27.8-19-45.5
	s6.3-32.8,19-45.5l166-165c12.7-12.7,27.7-19,45-19s32.3,6.3,45,19l531,531l531-531c12.7-12.7,27.7-19,45-19s32.3,6.3,45,19l166,165
	c12.7,12.7,19,27.8,19,45.5S1695.7,795.3,1683,808z"/>
</svg>
