<?xml version="1.0" encoding="utf-8"?>
<!-- Generator: Adobe Illustrator 21.1.0, SVG Export Plug-In . SVG Version: 6.00 Build 0)  -->
<svg version="1.1" id="Layer_1" xmlns="http://www.w3.org/2000/svg" xmlns:xlink="http://www.w3.org/1999/xlink" x="0px" y="0px"
	 viewBox="0 0 1792 1792" style="enable-background:new 0 0 1792 1792;" xml:space="preserve">
<style type="text/css">
	.st0{fill:#00AE18;}
</style>
<path class="st0" d="M1664,1632V544c0-8.7-3.2-16.2-9.5-22.5s-13.8-9.5-22.5-9.5H544c-8.7,0-16.2,3.2-22.5,9.5S512,535.3,512,544
	v1088c0,8.7,3.2,16.2,9.5,22.5s13.8,9.5,22.5,9.5h1088c8.7,0,16.2-3.2,22.5-9.5S1664,1640.7,1664,1632z M1792,544v1088
	c0,44-15.7,81.7-47,113s-69,47-113,47H544c-44,0-81.7-15.7-113-47s-47-69-47-113V544c0-44,15.7-81.7,47-113s69-47,113-47h1088
	c44,0,81.7,15.7,113,47S1792,500,1792,544z M1408,160v160h-128V160c0-8.7-3.2-16.2-9.5-22.5s-13.8-9.5-22.5-9.5H160
	c-8.7,0-16.2,3.2-22.5,9.5S128,151.3,128,160v1088c0,8.7,3.2,16.2,9.5,22.5s13.8,9.5,22.5,9.5h160v128H160c-44,0-81.7-15.7-113-47
	s-47-69-47-113V160c0-44,15.7-81.7,47-113S116,0,160,0h1088c44,0,81.7,15.7,113,47S1408,116,1408,160z"/>
</svg>
