<?xml version="1.0" encoding="utf-8"?>
<!-- Generator: Adobe Illustrator 21.1.0, SVG Export Plug-In . SVG Version: 6.00 Build 0)  -->
<svg version="1.1" id="Layer_1" xmlns="http://www.w3.org/2000/svg" xmlns:xlink="http://www.w3.org/1999/xlink" x="0px" y="0px"
	 viewBox="0 0 1792 1792" style="enable-background:new 0 0 1792 1792;" xml:space="preserve">
<style type="text/css">
	.st0{fill:#00AE18;}
</style>
<path class="st0" d="M1792,896c0,116-40,223.2-120,321.5s-188.7,176-326,233s-287.3,85.5-450,85.5c-46.7,0-95-2.7-145-8
	c-132,116.7-285.3,197.3-460,242c-32.7,9.3-70.7,16.7-114,22c-11.3,1.3-21.5-1.7-30.5-9s-14.8-17-17.5-29v-1c-2-2.7-2.2-6.7-0.5-12
	s2.3-8.7,2-10s1.2-4.5,4.5-9.5l6-9l7-8.5l8-9c4.7-5.3,15-16.8,31-34.5s27.5-30.3,34.5-38s17.3-20.8,31-39.5
	c13.7-18.7,24.5-35.7,32.5-51s17-35,27-59s18.7-49.3,26-76c-104.7-59.3-187.2-132.7-247.5-220S0,996,0,896
	c0-86.7,23.7-169.5,71-248.5S182,500.3,262,443s175.3-102.8,286-136.5S774.7,256,896,256c162.7,0,312.7,28.5,450,85.5
	s246,134.7,326,233S1792,780,1792,896z"/>
</svg>
