<?xml version="1.0" encoding="utf-8"?>
<!-- Generator: Adobe Illustrator 21.1.0, SVG Export Plug-In . SVG Version: 6.00 Build 0)  -->
<svg version="1.1" id="Layer_1" xmlns="http://www.w3.org/2000/svg" xmlns:xlink="http://www.w3.org/1999/xlink" x="0px" y="0px"
	 viewBox="0 0 1792 1792" style="enable-background:new 0 0 1792 1792;" xml:space="preserve">
<style type="text/css">
	.st0{fill:#00AE18;}
</style>
<path class="st0" d="M1278,1074v109c0,33.3-12.2,63-36.5,89s-55.7,46.2-94,60.5s-77.7,25.2-118,32.5c-40.3,7.3-79.5,11-117.5,11
	c-136.7,0-250.8-46.3-342.5-139S432,1029,432,891c0-135.3,45.3-248.3,136-339s203.7-136,339-136c22.7,0,47.8,1.5,75.5,4.5
	s58.7,9,93,18s65.2,20.3,92.5,34s50.3,32.5,69,56.5s28,51,28,81v109c0,10.7-5.3,16-16,16h-118c-10.7,0-16-5.3-16-16v-70
	c0-28.7-21.8-51.2-65.5-67.5C1005.8,565.2,960,557,912,557c-93.3,0-169.5,30.5-228.5,91.5S595,788.7,595,886
	c0,100.7,30.5,183.8,91.5,249.5S825.3,1234,920,1234c45.3,0,91.3-8,138-24c46.7-16,70-38,70-66v-70c0-4.7,1.5-8.5,4.5-11.5
	s6.5-4.5,10.5-4.5h119c4,0,7.7,1.5,11,4.5S1278,1069.3,1278,1074z M896,256c-86.7,0-169.5,17-248.5,51s-147,79.5-204,136.5
	S341,568.5,307,647.5S256,809.3,256,896s17,169.5,51,248.5s79.5,147,136.5,204s125,102.5,204,136.5s161.8,51,248.5,51
	s169.5-17,248.5-51s147-79.5,204-136.5s102.5-125,136.5-204s51-161.8,51-248.5s-17-169.5-51-248.5s-79.5-147-136.5-204
	s-125-102.5-204-136.5S982.7,256,896,256z M1664,896c0,139.3-34.3,267.8-103,385.5s-161.8,210.8-279.5,279.5s-246.2,103-385.5,103
	s-267.8-34.3-385.5-103S299.7,1399.2,231,1281.5S128,1035.3,128,896s34.3-267.8,103-385.5S392.8,299.7,510.5,231S756.7,128,896,128
	s267.8,34.3,385.5,103s210.8,161.8,279.5,279.5S1664,756.7,1664,896z"/>
</svg>
