<?xml version="1.0" encoding="utf-8"?>
<!-- Generator: Adobe Illustrator 21.1.0, SVG Export Plug-In . SVG Version: 6.00 Build 0)  -->
<svg version="1.1" id="Layer_1" xmlns="http://www.w3.org/2000/svg" xmlns:xlink="http://www.w3.org/1999/xlink" x="0px" y="0px"
	 viewBox="0 0 1792 1792" style="enable-background:new 0 0 1792 1792;" xml:space="preserve">
<style type="text/css">
	.st0{fill:#00AE18;}
</style>
<path class="st0" d="M1696,128c44,0,81.7,15.7,113,47s47,69,47,113v1216c0,44-15.7,81.7-47,113s-69,47-113,47H96
	c-44,0-81.7-15.7-113-47s-47-69-47-113V288c0-44,15.7-81.7,47-113s69-47,113-47H1696z M96,256c-8.7,0-16.2,3.2-22.5,9.5
	S64,279.3,64,288v224h1664V288c0-8.7-3.2-16.2-9.5-22.5s-13.8-9.5-22.5-9.5H96z M1696,1536c8.7,0,16.2-3.2,22.5-9.5
	s9.5-13.8,9.5-22.5V896H64v608c0,8.7,3.2,16.2,9.5,22.5s13.8,9.5,22.5,9.5H1696z M192,1408v-128h256v128H192z M576,1408v-128h384
	v128H576z"/>
</svg>
