<?xml version="1.0" encoding="utf-8"?>
<!-- Generator: Adobe Illustrator 21.1.0, SVG Export Plug-In . SVG Version: 6.00 Build 0)  -->
<svg version="1.1" id="Layer_1" xmlns="http://www.w3.org/2000/svg" xmlns:xlink="http://www.w3.org/1999/xlink" x="0px" y="0px"
	 viewBox="0 0 1792 1792" style="enable-background:new 0 0 1792 1792;" xml:space="preserve">
<style type="text/css">
	.st0{fill:#00AE18;}
</style>
<path class="st0" d="M621,1280h595V685L621,1280z M576,1235l595-595H576V1235z M1728,1312v192c0,9.3-3,17-9,23s-13.7,9-23,9h-224
	v224c0,9.3-3,17-9,23s-13.7,9-23,9h-192c-9.3,0-17-3-23-9s-9-13.7-9-23v-224H352c-9.3,0-17-3-23-9s-9-13.7-9-23V640H96
	c-9.3,0-17-3-23-9s-9-13.7-9-23V416c0-9.3,3-17,9-23s13.7-9,23-9h224V160c0-9.3,3-17,9-23s13.7-9,23-9h192c9.3,0,17,3,23,9
	s9,13.7,9,23v224h851l246-247c6.7-6,14.3-9,23-9s16.3,3,23,9c6,6.7,9,14.3,9,23s-3,16.3-9,23l-247,246v851h224c9.3,0,17,3,23,9
	S1728,1302.7,1728,1312z"/>
</svg>
