<?xml version="1.0" encoding="utf-8"?>
<!-- Generator: Adobe Illustrator 21.1.0, SVG Export Plug-In . SVG Version: 6.00 Build 0)  -->
<svg version="1.1" id="Layer_1" xmlns="http://www.w3.org/2000/svg" xmlns:xlink="http://www.w3.org/1999/xlink" x="0px" y="0px"
	 viewBox="0 0 1792 1792" style="enable-background:new 0 0 1792 1792;" xml:space="preserve">
<style type="text/css">
	.st0{fill:#00AE18;}
</style>
<path class="st0" d="M1728,992V160c0-8.7-3.2-16.2-9.5-22.5s-13.8-9.5-22.5-9.5H96c-8.7,0-16.2,3.2-22.5,9.5S64,151.3,64,160v832
	c0,8.7,3.2,16.2,9.5,22.5s13.8,9.5,22.5,9.5h1600c8.7,0,16.2-3.2,22.5-9.5S1728,1000.7,1728,992z M1856,160v1088
	c0,44-15.7,81.7-47,113s-69,47-113,47h-544c0,24.7,5.3,50.5,16,77.5s21.3,50.7,32,71s16,34.8,16,43.5c0,17.3-6.3,32.3-19,45
	s-27.7,19-45,19H640c-17.3,0-32.3-6.3-45-19s-19-27.7-19-45c0-9.3,5.3-24,16-44s21.3-43.3,32-70s16-52.7,16-78H96
	c-44,0-81.7-15.7-113-47s-47-69-47-113V160c0-44,15.7-81.7,47-113S52,0,96,0h1600c44,0,81.7,15.7,113,47S1856,116,1856,160z"/>
</svg>
