<?xml version="1.0" encoding="utf-8"?>
<!-- Generator: Adobe Illustrator 21.1.0, SVG Export Plug-In . SVG Version: 6.00 Build 0)  -->
<svg version="1.1" id="Layer_1" xmlns="http://www.w3.org/2000/svg" xmlns:xlink="http://www.w3.org/1999/xlink" x="0px" y="0px"
	 viewBox="0 0 1792 1792" style="enable-background:new 0 0 1792 1792;" xml:space="preserve">
<style type="text/css">
	.st0{fill:#00AE18;}
</style>
<path class="st0" d="M141,979l710-710c12.7-12.7,27.7-19,45-19s32.3,6.3,45,19l710,710c12.7,12.7,17,23.3,13,32s-14.7,13-32,13H160
	c-17.3,0-28-4.3-32-13S128.3,991.7,141,979z M1600,1536H192c-17.3,0-32.3-6.3-45-19s-19-27.7-19-45v-256c0-17.3,6.3-32.3,19-45
	s27.7-19,45-19h1408c17.3,0,32.3,6.3,45,19s19,27.7,19,45v256c0,17.3-6.3,32.3-19,45S1617.3,1536,1600,1536z"/>
</svg>
