<?xml version="1.0" encoding="utf-8"?>
<!-- Generator: Adobe Illustrator 21.1.0, SVG Export Plug-In . SVG Version: 6.00 Build 0)  -->
<svg version="1.1" id="Layer_1" xmlns="http://www.w3.org/2000/svg" xmlns:xlink="http://www.w3.org/1999/xlink" x="0px" y="0px"
	 viewBox="0 0 1792 1792" style="enable-background:new 0 0 1792 1792;" xml:space="preserve">
<style type="text/css">
	.st0{fill:#00AE18;}
</style>
<path class="st0" d="M1664,1504V736c-21.3,24-44.3,46-69,66c-178.7,137.3-320.7,250-426,338c-34,28.7-61.7,51-83,67
	s-50.2,32.2-86.5,48.5C963.2,1271.8,929,1280,897,1280h-2c-32,0-66.2-8.2-102.5-24.5S727.3,1223,706,1207s-49-38.3-83-67
	c-105.3-88-247.3-200.7-426-338c-24.7-20-47.7-42-69-66v768c0,8.7,3.2,16.2,9.5,22.5s13.8,9.5,22.5,9.5h1472
	c8.7,0,16.2-3.2,22.5-9.5S1664,1512.7,1664,1504z M1664,453v-24.5l-0.5-13l-3-12.5l-5.5-9l-9-7.5l-14-2.5H160
	c-8.7,0-16.2,3.2-22.5,9.5S128,407.3,128,416c0,112,49,206.7,147,284c128.7,101.3,262.3,207,401,317c4,3.3,15.7,13.2,35,29.5
	s34.7,28.8,46,37.5s26.2,19.2,44.5,31.5s35.2,21.5,50.5,27.5s29.7,9,43,9h2c13.3,0,27.7-3,43-9s32.2-15.2,50.5-27.5
	s33.2-22.8,44.5-31.5c11.3-8.7,26.7-21.2,46-37.5s31-26.2,35-29.5c138.7-110,272.3-215.7,401-317c36-28.7,69.5-67.2,100.5-115.5
	S1664,492.3,1664,453z M1792,416v1088c0,44-15.7,81.7-47,113s-69,47-113,47H160c-44,0-81.7-15.7-113-47s-47-69-47-113V416
	c0-44,15.7-81.7,47-113s69-47,113-47h1472c44,0,81.7,15.7,113,47S1792,372,1792,416z"/>
</svg>
