<?xml version="1.0" encoding="utf-8"?>
<!-- Generator: Adobe Illustrator 21.1.0, SVG Export Plug-In . SVG Version: 6.00 Build 0)  -->
<svg version="1.1" id="Layer_1" xmlns="http://www.w3.org/2000/svg" xmlns:xlink="http://www.w3.org/1999/xlink" x="0px" y="0px"
	 viewBox="0 0 1792 1792" style="enable-background:new 0 0 1792 1792;" xml:space="preserve">
<style type="text/css">
	.st0{fill:#00AE18;}
</style>
<path class="st0" d="M1360,1307l35,159c2,8,1,15.5-3,22.5s-9.7,11.8-17,14.5l-5,1c-2.7,1.3-6.2,2.5-10.5,3.5s-9.7,2.5-16,4.5
	s-13.5,3.8-21.5,5.5s-16.5,3.3-25.5,5s-19,3.3-30,5s-22.2,3.2-33.5,4.5s-23.5,2.3-36.5,3s-25.8,1-38.5,1
	c-156,0-292.3-43.5-409-130.5S553,1201.3,511,1054h-95c-8.7,0-16.2-3.2-22.5-9.5s-9.5-13.8-9.5-22.5V909c0-8.7,3.2-16.2,9.5-22.5
	s13.8-9.5,22.5-9.5h66c-1.3-38-1-73,1-105h-67c-9.3,0-17-3-23-9s-9-13.7-9-23V626c0-9.3,3-17,9-23s13.7-9,23-9h98
	c44.7-140,125.8-252.7,243.5-338s251.2-128,400.5-128c68,0,132.7,7.7,194,23c7.3,2,14,7,20,15c4,7.3,5,15.3,3,24l-43,159
	c-2,8.7-6.7,15.2-14,19.5s-15.3,5.2-24,2.5l-4-1c-2.7-0.7-6.5-1.5-11.5-2.5L1261,364l-22.5-3.5l-26-3l-29-2.5l-29.5-1
	c-84,0-159.3,21.3-226,64S811.3,519.3,778,594h468c10.7,0,19,4,25,12c6.7,8,9,16.7,7,26l-24,114c-3.3,17.3-14,26-32,26H734
	c-2,24.7-2,59.7,0,105h459c10,0,18.3,4,25,12c6,8,8,17,6,27l-24,112c-1.3,7.3-5,13.5-11,18.5s-12.7,7.5-20,7.5H782
	c32,78,81.8,139.8,149.5,185.5s143.8,68.5,228.5,68.5c12,0,24-0.5,36-1.5s23.2-2.2,33.5-3.5s20.2-2.8,29.5-4.5s17.5-3.3,24.5-5
	s13.2-3.2,18.5-4.5l12-3l5-2c8.7-3.3,17.3-2.7,26,2C1353,1290.7,1358,1297.7,1360,1307z"/>
</svg>
