<?xml version="1.0" encoding="utf-8"?>
<!-- Generator: Adobe Illustrator 21.1.0, SVG Export Plug-In . SVG Version: 6.00 Build 0)  -->
<svg version="1.1" id="Layer_1" xmlns="http://www.w3.org/2000/svg" xmlns:xlink="http://www.w3.org/1999/xlink" x="0px" y="0px"
	 viewBox="0 0 1792 1792" style="enable-background:new 0 0 1792 1792;" xml:space="preserve">
<style type="text/css">
	.st0{fill:#00AE18;}
</style>
<path class="st0" d="M1024,1375v-190c0-9.3-3.2-17.2-9.5-23.5s-13.8-9.5-22.5-9.5H800c-8.7,0-16.2,3.2-22.5,9.5s-9.5,14.2-9.5,23.5
	v190c0,9.3,3.2,17.2,9.5,23.5s13.8,9.5,22.5,9.5h192c8.7,0,16.2-3.2,22.5-9.5S1024,1384.3,1024,1375z M1022,1001l18-459
	c0-8-3.3-14.3-10-19c-8.7-7.3-16.7-11-24-11H786c-7.3,0-15.3,3.7-24,11c-6.7,4.7-10,11.7-10,21l17,457c0,6.7,3.3,12.2,10,16.5
	s14.7,6.5,24,6.5h185c9.3,0,17.2-2.2,23.5-6.5S1021.3,1007.7,1022,1001z M1008,67l768,1408c23.3,42,22.7,84-2,126
	c-11.3,19.3-26.8,34.7-46.5,46s-40.8,17-63.5,17H128c-22.7,0-43.8-5.7-63.5-17s-35.2-26.7-46.5-46c-24.7-42-25.3-84-2-126L784,67
	c11.3-20.7,27-37,47-49s41.7-18,65-18s45,6,65,18S996.7,46.3,1008,67z"/>
</svg>
