<?xml version="1.0" encoding="utf-8"?>
<!-- Generator: Adobe Illustrator 21.1.0, SVG Export Plug-In . SVG Version: 6.00 Build 0)  -->
<svg version="1.1" id="Layer_1" xmlns="http://www.w3.org/2000/svg" xmlns:xlink="http://www.w3.org/1999/xlink" x="0px" y="0px"
	 viewBox="0 0 1792 1792" style="enable-background:new 0 0 1792 1792;" xml:space="preserve">
<style type="text/css">
	.st0{fill:#00AE18;}
</style>
<path class="st0" d="M896,128c139.3,0,267.8,34.3,385.5,103s210.8,161.8,279.5,279.5s103,246.2,103,385.5s-34.3,267.8-103,385.5
	s-161.8,210.8-279.5,279.5s-246.2,103-385.5,103s-267.8-34.3-385.5-103S299.7,1399.2,231,1281.5S128,1035.3,128,896
	s34.3-267.8,103-385.5S392.8,299.7,510.5,231S756.7,128,896,128z M1024,1375v-190c0-9.3-3-17.2-9-23.5s-13.3-9.5-22-9.5H801
	c-8.7,0-16.3,3.3-23,10s-10,14.3-10,23v190c0,8.7,3.3,16.3,10,23s14.3,10,23,10h192c8.7,0,16-3.2,22-9.5S1024,1384.3,1024,1375z
	 M1022,1031l18-621c0-8-3.3-14-10-18c-6.7-5.3-14.7-8-24-8H786c-9.3,0-17.3,2.7-24,8c-6.7,4-10,10-10,18l17,621
	c0,6.7,3.3,12.5,10,17.5s14.7,7.5,24,7.5h185c9.3,0,17.2-2.5,23.5-7.5S1021.3,1037.7,1022,1031z"/>
</svg>
