<?xml version="1.0" encoding="utf-8"?>
<!-- Generator: Adobe Illustrator 21.1.0, SVG Export Plug-In . SVG Version: 6.00 Build 0)  -->
<svg version="1.1" id="Layer_1" xmlns="http://www.w3.org/2000/svg" xmlns:xlink="http://www.w3.org/1999/xlink" x="0px" y="0px"
	 viewBox="0 0 1792 1792" style="enable-background:new 0 0 1792 1792;" xml:space="preserve">
<style type="text/css">
	.st0{fill:#00AE18;}
</style>
<path class="st0" d="M1536,1056c0,26.7-9.3,49.3-28,68s-41.3,28-68,28c-34,0-60.7-14.3-80-43l-227-341h-45v132l247,411
	c6,10,9,21,9,33c0,17.3-6.3,32.3-19,45s-27.7,19-45,19h-192v272c0,30.7-11,57-33,79s-48.3,33-79,33H816c-30.7,0-57-11-79-33
	s-33-48.3-33-79v-272H512c-17.3,0-32.3-6.3-45-19s-19-27.7-19-45c0-12,3-23,9-33l247-411V768h-45l-227,341c-19.3,28.7-46,43-80,43
	c-26.7,0-49.3-9.3-68-28s-28-41.3-28-68c0-19.3,5.3-37,16-53l256-384c48.7-71.3,107.3-107,176-107h384c68.7,0,127.3,35.7,176,107
	l256,384C1530.7,1019,1536,1036.7,1536,1056z M1120,256c0,62-21.8,114.8-65.5,158.5C1010.8,458.2,958,480,896,480
	s-114.8-21.8-158.5-65.5S672,318,672,256s21.8-114.8,65.5-158.5S834,32,896,32s114.8,21.8,158.5,65.5
	C1098.2,141.2,1120,194,1120,256z"/>
</svg>
