<?xml version="1.0" encoding="utf-8"?>
<!-- Generator: Adobe Illustrator 21.1.0, SVG Export Plug-In . SVG Version: 6.00 Build 0)  -->
<svg version="1.1" id="Layer_1" xmlns="http://www.w3.org/2000/svg" xmlns:xlink="http://www.w3.org/1999/xlink" x="0px" y="0px"
	 viewBox="0 0 1792 1792" style="enable-background:new 0 0 1792 1792;" xml:space="preserve">
<style type="text/css">
	.st0{fill:#00AE18;}
</style>
<path class="st0" d="M1596,476c9.3,9.3,18.7,21.3,28,36h-472V40c14.7,9.3,26.7,18.7,36,28L1596,476z M1120,640h544v1056
	c0,26.7-9.3,49.3-28,68s-41.3,28-68,28H224c-26.7,0-49.3-9.3-68-28s-28-41.3-28-68V96c0-26.7,9.3-49.3,28-68s41.3-28,68-28h800v544
	c0,26.7,9.3,49.3,28,68S1093.3,640,1120,640z M1280,1376v-64c0-9.3-3-17-9-23s-13.7-9-23-9H544c-9.3,0-17,3-23,9s-9,13.7-9,23v64
	c0,9.3,3,17,9,23s13.7,9,23,9h704c9.3,0,17-3,23-9S1280,1385.3,1280,1376z M1280,1120v-64c0-9.3-3-17-9-23s-13.7-9-23-9H544
	c-9.3,0-17,3-23,9s-9,13.7-9,23v64c0,9.3,3,17,9,23s13.7,9,23,9h704c9.3,0,17-3,23-9S1280,1129.3,1280,1120z M1280,864v-64
	c0-9.3-3-17-9-23s-13.7-9-23-9H544c-9.3,0-17,3-23,9s-9,13.7-9,23v64c0,9.3,3,17,9,23s13.7,9,23,9h704c9.3,0,17-3,23-9
	S1280,873.3,1280,864z"/>
</svg>
