<?xml version="1.0" encoding="utf-8"?>
<!-- Generator: Adobe Illustrator 21.1.0, SVG Export Plug-In . SVG Version: 6.00 Build 0)  -->
<svg version="1.1" id="Layer_1" xmlns="http://www.w3.org/2000/svg" xmlns:xlink="http://www.w3.org/1999/xlink" x="0px" y="0px"
	 viewBox="0 0 1792 1792" style="enable-background:new 0 0 1792 1792;" xml:space="preserve">
<style type="text/css">
	.st0{fill:#00AE18;}
</style>
<path class="st0" d="M1152,512V40c14.7,9.3,26.7,18.7,36,28l408,408c9.3,9.3,18.7,21.3,28,36H1152z M1024,544c0,26.7,9.3,49.3,28,68
	s41.3,28,68,28h544v1056c0,26.7-9.3,49.3-28,68s-41.3,28-68,28H224c-26.7,0-49.3-9.3-68-28s-28-41.3-28-68V96c0-26.7,9.3-49.3,28-68
	s41.3-28,68-28h800V544z"/>
</svg>
