<?xml version="1.0" encoding="utf-8"?>
<!-- Generator: Adobe Illustrator 21.1.0, SVG Export Plug-In . SVG Version: 6.00 Build 0)  -->
<svg version="1.1" id="Layer_1" xmlns="http://www.w3.org/2000/svg" xmlns:xlink="http://www.w3.org/1999/xlink" x="0px" y="0px"
	 viewBox="0 0 1792 1792" style="enable-background:new 0 0 1792 1792;" xml:space="preserve">
<style type="text/css">
	.st0{fill:#00AE18;}
</style>
<path class="st0" d="M1696,384c26.7,0,49.3,9.3,68,28s28,41.3,28,68v1216c0,26.7-9.3,49.3-28,68s-41.3,28-68,28H736
	c-26.7,0-49.3-9.3-68-28s-28-41.3-28-68v-288H96c-26.7,0-49.3-9.3-68-28s-28-41.3-28-68V640c0-26.7,6.7-56,20-88s29.3-57.3,48-76
	L476,68c18.7-18.7,44-34.7,76-48s61.3-20,88-20h416c26.7,0,49.3,9.3,68,28s28,41.3,28,68v328c45.3-26.7,88-40,128-40H1696z
	 M1152,597L853,896h299V597z M512,213L213,512h299V213z M708,860l316-316V128H640v416c0,26.7-9.3,49.3-28,68s-41.3,28-68,28H128v640
	h512v-256c0-26.7,6.7-56,20-88S689.3,878.7,708,860z M1664,1664V512h-384v416c0,26.7-9.3,49.3-28,68s-41.3,28-68,28H768v640H1664z"
	/>
</svg>
