<?xml version="1.0" encoding="utf-8"?>
<!-- Generator: Adobe Illustrator 21.1.0, SVG Export Plug-In . SVG Version: 6.00 Build 0)  -->
<svg version="1.1" id="Layer_1" xmlns="http://www.w3.org/2000/svg" xmlns:xlink="http://www.w3.org/1999/xlink" x="0px" y="0px"
	 viewBox="0 0 1792 1792" style="enable-background:new 0 0 1792 1792;" xml:space="preserve">
<style type="text/css">
	.st0{fill:#00AE18;}
</style>
<path class="st0" d="M1596,380c18.7,18.7,34.7,44,48,76s20,61.3,20,88v1152c0,26.7-9.3,49.3-28,68s-41.3,28-68,28H224
	c-26.7,0-49.3-9.3-68-28s-28-41.3-28-68V96c0-26.7,9.3-49.3,28-68s41.3-28,68-28h896c26.7,0,56,6.7,88,20s57.3,29.3,76,48L1596,380z
	 M1152,136v376h376c-6.7-19.3-14-33-22-41l-313-313C1185,150,1171.3,142.7,1152,136z M1536,1664V640h-416c-26.7,0-49.3-9.3-68-28
	s-28-41.3-28-68V128H256v1536H1536z M544,1430v106h327v-106h-93v-167h137c50.7,0,90-5,118-15c44.7-15.3,80.2-44.3,106.5-87
	s39.5-91.3,39.5-146c0-54-12.3-101-37-141s-58-69-100-87c-32-12.7-75.3-19-130-19H544v107h92v555H544z M897,1150H778V882h120
	c34.7,0,62.3,6,83,18c37.3,22,56,60.3,56,115c0,59.3-20.7,99.3-62,120C954.3,1145,928.3,1150,897,1150z"/>
</svg>
