<?xml version="1.0" encoding="utf-8"?>
<!-- Generator: Adobe Illustrator 21.1.0, SVG Export Plug-In . SVG Version: 6.00 Build 0)  -->
<svg version="1.1" id="Layer_1" xmlns="http://www.w3.org/2000/svg" xmlns:xlink="http://www.w3.org/1999/xlink" x="0px" y="0px"
	 viewBox="0 0 1792 1792" style="enable-background:new 0 0 1792 1792;" xml:space="preserve">
<style type="text/css">
	.st0{fill:#00AE18;}
</style>
<path class="st0" d="M1595,295c11.3,27.3,6.7,50.7-14,70l-493,493v742c0,28-13,47.7-39,59c-8.7,3.3-17,5-25,5c-18,0-33-6.3-45-19
	l-256-256c-12.7-12.7-19-27.7-19-45V858L211,365c-20.7-19.3-25.3-42.7-14-70c11.3-26,31-39,59-39h1280C1564,256,1583.7,269,1595,295
	z"/>
</svg>
