<?xml version="1.0" encoding="utf-8"?>
<!-- Generator: Adobe Illustrator 21.1.0, SVG Export Plug-In . SVG Version: 6.00 Build 0)  -->
<svg version="1.1" id="Layer_1" xmlns="http://www.w3.org/2000/svg" xmlns:xlink="http://www.w3.org/1999/xlink" x="0px" y="0px"
	 viewBox="0 0 1792 1792" style="enable-background:new 0 0 1792 1792;" xml:space="preserve">
<style type="text/css">
	.st0{fill:#00AE18;}
</style>
<path class="st0" d="M832,1000V808c-120.7,10.7-248.7,49.7-384,117v185C584.7,1046,712.7,1009.3,832,1000z M832,582V385
	c-114.7,5.3-242.7,47.3-384,126v189C591.3,626,719.3,586.7,832,582z M1664,1045V861c-156.7,77.3-284.7,101-384,71V708
	c-13.3-4-26.3-9-39-15c-3.3-2-14.3-7.7-33-17s-30.2-15-34.5-17s-14.8-7-31.5-15s-28.2-13.2-34.5-15.5s-17.2-6.7-32.5-13
	s-27.3-10.5-36-12.5s-20.3-4.8-35-8.5s-27.8-6.2-39.5-7.5s-24.8-2.7-39.5-4s-29.3-2-44-2c-15.3,0-31.7,1-49,3v222h19
	c68,0,132.2,9.7,192.5,29c60.3,19.3,126.2,46.7,197.5,82c12.7,6,25.7,11,39,15v188c28,11.3,58.3,17,91,17
	C1451,1137,1548.7,1106.3,1664,1045z M1664,618V429c-112.7,60.7-214.7,91-306,91c-30,0-56-2.7-78-8v196
	C1378.7,736,1506.7,706,1664,618z M320,256c0,23.3-5.8,44.7-17.5,64s-27.2,34.7-46.5,46v1266c0,9.3-3,17-9,23s-13.7,9-23,9h-64
	c-9.3,0-17-3-23-9s-9-13.7-9-23V366c-19.3-11.3-34.8-26.7-46.5-46S64,279.3,64,256c0-35.3,12.5-65.5,37.5-90.5S156.7,128,192,128
	s65.5,12.5,90.5,37.5S320,220.7,320,256z M1792,320v763c0,26-11.7,45-35,57c-6.7,3.3-12.3,6.3-17,9c-145.3,77.3-268.3,116-369,116
	c-58.7,0-111.3-11.7-158-35l-28-14c-42.7-22-75.7-38-99-48s-53.7-19.7-91-29c-37.3-9.3-75.3-14-114-14c-68,0-146.5,14.7-235.5,44
	s-165.2,63.3-228.5,102c-10,6-21,9-33,9c-10.7,0-21.3-2.7-32-8c-21.3-12.7-32-31.3-32-56V474c0-23.3,10.3-41.7,31-55
	c23.3-14,49.5-28.2,78.5-42.5s67-31.7,114-52S641.3,287.7,696,275s106.3-19,155-19c74.7,0,144.3,10.3,209,31s134.3,49.3,209,86
	c25.3,12.7,55,19,89,19c81.3,0,184.7-37.3,310-112c14.7-8,25-13.7,31-17c20.7-10.7,41.3-10,62,2C1781.7,278.3,1792,296.7,1792,320z"
	/>
</svg>
