<?xml version="1.0" encoding="utf-8"?>
<!-- Generator: Adobe Illustrator 21.1.0, SVG Export Plug-In . SVG Version: 6.00 Build 0)  -->
<svg version="1.1" id="Layer_1" xmlns="http://www.w3.org/2000/svg" xmlns:xlink="http://www.w3.org/1999/xlink" x="0px" y="0px"
	 viewBox="0 0 1792 1792" style="enable-background:new 0 0 1792 1792;" xml:space="preserve">
<style type="text/css">
	.st0{fill:#00AE18;}
</style>
<path class="st0" d="M1815,952c0,20.7-10.3,42.7-31,66l-336,396c-28.7,34-68.8,62.8-120.5,86.5S1228,1536,1184,1536H96
	c-22.7,0-42.8-4.3-60.5-13S9,1500,9,1480c0-20.7,10.3-42.7,31-66l336-396c28.7-34,68.8-62.8,120.5-86.5S596,896,640,896h1088
	c22.7,0,42.8,4.3,60.5,13S1815,932,1815,952z M1472,608v160H640c-62.7,0-128.3,15.8-197,47.5S319.7,887,279,935l-337,396l-5,6
	c0-2.7-0.2-6.8-0.5-12.5s-0.5-9.8-0.5-12.5V352c0-61.3,22-114,66-158s96.7-66,158-66h320c61.3,0,114,22,158,66s66,96.7,66,158v32
	h544c61.3,0,114,22,158,66S1472,546.7,1472,608z"/>
</svg>
