<?xml version="1.0" encoding="utf-8"?>
<!-- Generator: Adobe Illustrator 21.1.0, SVG Export Plug-In . SVG Version: 6.00 Build 0)  -->
<svg version="1.1" id="Layer_1" xmlns="http://www.w3.org/2000/svg" xmlns:xlink="http://www.w3.org/1999/xlink" x="0px" y="0px"
	 viewBox="0 0 1792 1792" style="enable-background:new 0 0 1792 1792;" xml:space="preserve">
<style type="text/css">
	.st0{fill:#00AE18;}
</style>
<path class="st0" d="M128,128h1536v1536H128V128z M1036,448l-12,33l75,83l-31,114l25,25l107-57l107,57l25-25l-31-114l75-83l-12-33
	h-95l-53-96h-32l-53,96H1036z M769,611c21.3,0,36.2,5.3,44.5,16s12.2,31.7,11.5,63l174-21c0-36.7-5.8-67.5-17.5-92.5
	s-28.5-43.7-50.5-56s-45-20.8-69-25.5s-52.3-7-85-7c-88.7,0-155,19.2-199,57.5s-66,99.2-66,182.5v72h-96v128h76c13.3,0,20,2.7,20,8
	v382c0,9.3-1.7,16-5,20s-9.3,6.3-18,7l-73,7v88h448v-86l-149-14c-4-0.7-6.8-1.2-8.5-1.5s-2.8-1.2-3.5-2.5s-0.8-2.7-0.5-4
	s0.7-3.7,1-7s0.5-6.7,0.5-10V928h191l38-128H702c-4,0-4.7-2-2-6s4-7,4-9v-80c0-18,0.5-31.5,1.5-40.5s3.5-18.3,7.5-28
	s10.5-16.3,19.5-20S753.7,611,769,611z M1376,1440v-86l-54-9c-4.7-0.7-7.8-1.5-9.5-2.5s-2.5-2-2.5-3s0.3-3.5,1-7.5s1-8,1-12V800
	h-275l-23,101l83,22c15.3,4.7,23,13.7,23,27v370c0,9.3-2,15.5-6,18.5s-10.7,5.2-20,6.5l-70,9v86H1376z"/>
</svg>
