<?xml version="1.0" encoding="utf-8"?>
<!-- Generator: Adobe Illustrator 21.1.0, SVG Export Plug-In . SVG Version: 6.00 Build 0)  -->
<svg version="1.1" id="Layer_1" xmlns="http://www.w3.org/2000/svg" xmlns:xlink="http://www.w3.org/1999/xlink" x="0px" y="0px"
	 viewBox="0 0 1792 1792" style="enable-background:new 0 0 1792 1792;" xml:space="preserve">
<style type="text/css">
	.st0{fill:#00AE18;}
</style>
<path class="st0" d="M874,1638v66c-138.7-4-267-40.5-385-109.5S276.7,1433.7,206,1319l58-34c19.3,32.7,43.7,65.7,73,99l65-57
	c98.7,112,221.3,182.7,368,212l-17,86C796.3,1633,836.7,1637.3,874,1638z M276,1108l-83,28c14.7,40,31,77.3,49,112l-57,33
	c-65.3-120-98-248.3-98-385s32.7-265,98-385l57,33c-20,37.3-36.3,74.7-49,112l82,28c-23.3,66.7-35,137.3-35,212
	C240,968.7,252,1039.3,276,1108z M1528,1285l58,34c-70.7,114.7-165,206.5-283,275.5S1056.7,1700,918,1704v-66
	c37.3-0.7,77.7-5,121-13l-17-86c146.7-29.3,269.3-100,368-212l65,57C1484.3,1350.7,1508.7,1317.7,1528,1285z M1377,731l-233,80
	c9.3,28,14,56.3,14,85s-4.7,57-14,85l232,80c-20.7,61.3-53.3,117.7-98,169l-185-162c-38,44.7-87,73-147,85l48,241
	c-34.7,6.7-67.3,10-98,10s-63.3-3.3-98-10l48-241c-60-12-109-40.3-147-85l-185,162c-44.7-51.3-77.3-107.7-98-169l232-80
	c-9.3-28-14-56.3-14-85s4.7-57,14-85l-233-80c22-62,55-118.3,99-169l185,162c39.3-45.3,88.3-74,147-86l-48-240c29.3-6.7,62-10,98-10
	s68.7,3.3,98,10l-48,240c58.7,12,107.7,40.7,147,86l185-162C1322,612.7,1355,669,1377,731z M874,88v66c-43.3,1.3-83.7,5.7-121,13
	l17,86c-146.7,28-269.3,98.3-368,211l-65-56c-25.3,28-49.7,60.7-73,98l-57-33c70.7-114.7,164.7-206.5,282-275.5S734.7,92,874,88z
	 M1705,896c0,136.7-32.7,265-98,385l-57-33c18-34.7,34.3-72,49-112l-83-28c24-68.7,36-139.3,36-212c0-74.7-11.7-145.3-35-212l82-28
	c-12.7-37.3-29-74.7-49-112l57-33C1672.3,631,1705,759.3,1705,896z M1585,473l-57,33c-23.3-37.3-47.7-70-73-98l-65,56
	c-98.7-112.7-221.3-183-368-211l17-86c-37.3-7.3-77.7-11.7-121-13V88c139.3,4,267.7,40.5,385,109.5S1514.3,358.3,1585,473z
	 M1748,896c0-115.3-22.5-225.7-67.5-331S1575,369,1499,293s-166.7-136.5-272-181.5S1011.3,44,896,44s-225.7,22.5-331,67.5
	S369,217,293,293S156.5,459.7,111.5,565S44,780.7,44,896s22.5,225.7,67.5,331S217,1423,293,1499s166.7,136.5,272,181.5
	s215.7,67.5,331,67.5s225.7-22.5,331-67.5s196-105.5,272-181.5s136.5-166.7,181.5-272S1748,1011.3,1748,896z M1792,896
	c0,121.3-23.7,237.3-71,348s-111,206-191,286s-175.3,143.7-286,191s-226.7,71-348,71s-237.3-23.7-348-71s-206-111-286-191
	s-143.7-175.3-191-286S0,1017.3,0,896s23.7-237.3,71-348s111-206,191-286S437.3,118.3,548,71S774.7,0,896,0s237.3,23.7,348,71
	s206,111,286,191s143.7,175.3,191,286S1792,774.7,1792,896z"/>
</svg>
