<?xml version="1.0" encoding="utf-8"?>
<!-- Generator: Adobe Illustrator 21.1.0, SVG Export Plug-In . SVG Version: 6.00 Build 0)  -->
<svg version="1.1" id="Layer_1" xmlns="http://www.w3.org/2000/svg" xmlns:xlink="http://www.w3.org/1999/xlink" x="0px" y="0px"
	 viewBox="0 0 1792 1792" style="enable-background:new 0 0 1792 1792;" xml:space="preserve">
<style type="text/css">
	.st0{fill:#00AE18;}
</style>
<path class="st0" d="M1056,1356V640H736v716c0,16.7,6,29.5,18,38.5s27.3,13.5,46,13.5h192c18.7,0,34-4.5,46-13.5
	S1056,1372.7,1056,1356z M600,512h195L669,351c-17.3-20.7-40.3-31-69-31c-26.7,0-49.3,9.3-68,28s-28,41.3-28,68s9.3,49.3,28,68
	S573.3,512,600,512z M1288,416c0-26.7-9.3-49.3-28-68s-41.3-28-68-28c-28.7,0-51.7,10.3-69,31L998,512h194c26.7,0,49.3-9.3,68-28
	S1288,442.7,1288,416z M1664,672v320c0,9.3-3,17-9,23s-13.7,9-23,9h-96v416c0,26.7-9.3,49.3-28,68s-41.3,28-68,28H352
	c-26.7,0-49.3-9.3-68-28s-28-41.3-28-68v-416h-96c-9.3,0-17-3-23-9s-9-13.7-9-23V672c0-9.3,3-17,9-23s13.7-9,23-9h440
	c-62,0-114.8-21.8-158.5-65.5S376,478,376,416s21.8-114.8,65.5-158.5S538,192,600,192c71.3,0,127.3,25.7,168,77l128,165l128-165
	c40.7-51.3,96.7-77,168-77c62,0,114.8,21.8,158.5,65.5S1416,354,1416,416s-21.8,114.8-65.5,158.5S1254,640,1192,640h440
	c9.3,0,17,3,23,9S1664,662.7,1664,672z"/>
</svg>
