<?xml version="1.0" encoding="utf-8"?>
<!-- Generator: Adobe Illustrator 21.1.0, SVG Export Plug-In . SVG Version: 6.00 Build 0)  -->
<svg version="1.1" id="Layer_1" xmlns="http://www.w3.org/2000/svg" xmlns:xlink="http://www.w3.org/1999/xlink" x="0px" y="0px"
	 viewBox="0 0 1792 1792" style="enable-background:new 0 0 1792 1792;" xml:space="preserve">
<style type="text/css">
	.st0{fill:#00AE18;}
</style>
<path class="st0" d="M1699,186c0,23.3-14.3,49.3-43,78l-632,632v768h320c17.3,0,32.3,6.3,45,19s19,27.7,19,45s-6.3,32.3-19,45
	s-27.7,19-45,19H448c-17.3,0-32.3-6.3-45-19s-19-27.7-19-45s6.3-32.3,19-45s27.7-19,45-19h320V896L136,264c-28.7-28.7-43-54.7-43-78
	c0-15.3,6-27.5,18-36.5s24.7-14.8,38-17.5s27.7-4,43-4h1408c15.3,0,29.7,1.3,43,4s26,8.5,38,17.5S1699,170.7,1699,186z"/>
</svg>
