<?xml version="1.0" encoding="utf-8"?>
<!-- Generator: Adobe Illustrator 21.1.0, SVG Export Plug-In . SVG Version: 6.00 Build 0)  -->
<svg version="1.1" id="Layer_1" xmlns="http://www.w3.org/2000/svg" xmlns:xlink="http://www.w3.org/1999/xlink" x="0px" y="0px"
	 viewBox="0 0 1792 1792" style="enable-background:new 0 0 1792 1792;" xml:space="preserve">
<style type="text/css">
	.st0{fill:#00AE18;}
</style>
<path class="st0" d="M896,128c139.3,0,267.8,34.3,385.5,103s210.8,161.8,279.5,279.5s103,246.2,103,385.5s-34.3,267.8-103,385.5
	s-161.8,210.8-279.5,279.5s-246.2,103-385.5,103s-267.8-34.3-385.5-103S299.7,1399.2,231,1281.5S128,1035.3,128,896
	s34.3-267.8,103-385.5S392.8,299.7,510.5,231S756.7,128,896,128z M1170,649c-1.3,0.7-4.5,3.8-9.5,9.5s-9.5,8.8-13.5,9.5
	c1.3,0,2.8-1.7,4.5-5s3.3-7,5-11s2.8-6.3,3.5-7c4-4.7,11.3-9.7,22-15c9.3-4,26.7-8,52-12c22.7-5.3,39.7-1.7,51,11
	c-1.3-1.3,1.8-5.7,9.5-13s12.5-11.3,14.5-12c2-1.3,7-2.8,15-4.5s13-4.2,15-7.5l2-22c-8,0.7-13.8-1.7-17.5-7s-5.8-12.3-6.5-21
	c0,1.3-2,4-6,8c0-4.7-1.5-7.3-4.5-8s-6.8-0.3-11.5,1s-7.7,1.7-9,1c-6.7-2-11.7-4.5-15-7.5s-6-8.5-8-16.5s-3.3-13-4-15
	c-1.3-3.3-4.5-6.8-9.5-10.5s-8.2-7.2-9.5-10.5c-0.7-1.3-1.5-3.2-2.5-5.5s-2-4.5-3-6.5s-2.3-3.8-4-5.5s-3.5-2.5-5.5-2.5s-4.3,1.7-7,5
	s-5.2,6.7-7.5,10s-3.8,5-4.5,5c-2-1.3-4-1.8-6-1.5s-3.5,0.7-4.5,1s-2.5,1.3-4.5,3s-3.7,2.8-5,3.5c-2,1.3-4.8,2.3-8.5,3
	s-6.5,1.3-8.5,2c10-3.3,9.7-7-1-11c-6.7-2.7-12-3.7-16-3c6-2.7,8.5-6.7,7.5-12s-3.8-10-8.5-14h5c-0.7-2.7-3.5-5.5-8.5-8.5
	s-10.8-5.8-17.5-8.5s-11-4.7-13-6c-5.3-3.3-16.7-6.5-34-9.5s-28.3-3.2-33-0.5c-3.3,4-4.8,7.5-4.5,10.5s1.7,7.7,4,14
	s3.5,10.5,3.5,12.5c0.7,4-1.2,8.3-5.5,13s-6.5,8.7-6.5,12c0,4.7,4.7,9.8,14,15.5s12.7,12.8,10,21.5c-2,5.3-7.3,10.7-16,16
	s-14,9.3-16,12c-3.3,5.3-3.8,11.5-1.5,18.5s5.8,12.5,10.5,16.5c1.3,1.3,1.8,2.7,1.5,4s-1.5,2.8-3.5,4.5s-3.8,3-5.5,4
	s-3.8,2.2-6.5,3.5l-3,2c-7.3,3.3-14.2,1.3-20.5-6s-10.8-16-13.5-26c-4.7-16.7-10-26.7-16-30c-15.3-5.3-25-5-29,1
	c-3.3-8.7-17-17.3-41-26c-16.7-6-36-7.3-58-4c4-0.7,4-5.7,0-15c-4.7-10-11-14-19-12c2-4,3.3-9.8,4-17.5s1-12.2,1-13.5
	c2-8.7,6-16.3,12-23c0.7-0.7,3-3.5,7-8.5s7.2-9.5,9.5-13.5s2.5-6,0.5-6c23.3,2.7,40-1,50-11c3.3-3.3,7.2-9,11.5-17s7.8-13.7,10.5-17
	c6-4,10.7-5.8,14-5.5s8.2,2.2,14.5,5.5s11.2,5,14.5,5c9.3,0.7,14.5-3,15.5-11s-1.5-14.7-7.5-20c8,0.7,9-5,3-17c-3.3-4.7-6-7.7-8-9
	c-8-2.7-17-1-27,5c-5.3,2.7-4.7,5.3,2,8c-0.7-0.7-3.8,2.8-9.5,10.5S934.3,342,929,346s-10.7,2.3-16-5c-0.7-0.7-2.5-5.2-5.5-13.5
	s-6.2-12.8-9.5-13.5c-5.3,0-10.7,5-16,15c2-5.3-1.7-10.3-11-15s-17.3-7.3-24-8c12.7-8,10-17-8-27c-4.7-2.7-11.5-4.3-20.5-5
	s-15.5,0.7-19.5,4c-3.3,4.7-5.2,8.5-5.5,11.5s1.3,5.7,5,8s7.2,4.2,10.5,5.5s7.2,2.7,11.5,4s7.2,2.3,8.5,3c9.3,6.7,12,11.3,8,14
	c-1.3,0.7-4.2,1.8-8.5,3.5s-8.2,3.2-11.5,4.5s-5.3,2.7-6,4c-2,2.7-2,7.3,0,14s1.3,11.3-2,14c-3.3-3.3-6.3-9.2-9-17.5s-5-13.8-7-16.5
	c4.7,6-3.7,8-25,6l-10-1c-2.7,0-8,0.7-16,2s-14.8,1.7-20.5,1s-10.2-3.3-13.5-8c-2.7-5.3-2.7-12,0-20c0.7-2.7,2-3.3,4-2
	c-2.7-2-6.3-5.2-11-9.5s-8-7.2-10-8.5c-30.7,10-62,23.7-94,41c4,0.7,8,0.3,12-1c3.3-1.3,7.7-3.5,13-6.5s8.7-4.8,10-5.5
	c22.7-9.3,36.7-11.7,42-7l5-5c9.3,10.7,16,19,20,25c-4.7-2.7-14.7-3-30-1c-13.3,4-20.7,8-22,12c4.7,8,6.3,14,5,18
	c-2.7-2-6.5-5.3-11.5-10s-9.8-8.3-14.5-11s-9.7-4.3-15-5c-10.7,0-18,0.3-22,1c-97.3,53.3-175.7,127.3-235,222c4.7,4.7,8.7,7.3,12,8
	c2.7,0.7,4.3,3.7,5,9s1.5,9,2.5,11s4.8,1,11.5-3c6,5.3,7,11.7,3,19c0.7-0.7,15.3,8.3,44,27c12.7,11.3,19.7,18.3,21,21
	c2,7.3-1.3,13.3-10,18c-0.7-1.3-3.7-4.3-9-9s-8.3-6-9-4c-2,3.3-1.8,9.5,0.5,18.5s5.8,13.2,10.5,12.5c-4.7,0-7.8,5.3-9.5,16
	s-2.5,22.5-2.5,35.5s-0.3,20.8-1,23.5l2,1c-2,8-0.2,19.5,5.5,34.5S443.3,817,452,815c-8.7,2-2,16.3,20,43c4,5.3,6.7,8.3,8,9
	c2,1.3,6,3.8,12,7.5s11,7,15,10s7.3,6.5,10,10.5c2.7,3.3,6,10.8,10,22.5s8.7,19.5,14,23.5c-1.3,4,1.8,10.7,9.5,20s11.2,17,10.5,23
	c-0.7,0-1.5,0.3-2.5,1s-1.8,1-2.5,1c2,4.7,7.2,9.3,15.5,14s13.5,9,15.5,13c0.7,2,1.3,5.3,2,10c0.7,4.7,1.7,8.3,3,11s4,3.3,8,2
	c1.3-13.3-6.7-34-24-62c-10-16.7-15.7-26.3-17-29c-2-3.3-3.8-8.5-5.5-15.5s-3.2-11.8-4.5-14.5c1.3,0,3.3,0.5,6,1.5s5.5,2.2,8.5,3.5
	s5.5,2.7,7.5,4s2.7,2.3,2,3c-2,4.7-1.3,10.5,2,17.5s7.3,13.2,12,18.5s10.3,11.7,17,19s10.7,11.7,12,13c4,4,8.7,10.5,14,19.5
	s5.3,13.5,0,13.5c6,0,12.7,3.3,20,10s13,13.3,17,20c3.3,5.3,6,14,8,26s3.7,20,5,24c1.3,4.7,4.2,9.2,8.5,13.5s8.5,7.5,12.5,9.5l16,8
	l13,7c3.3,1.3,9.5,4.8,18.5,10.5s16.2,9.5,21.5,11.5c6.7,2.7,12,4,16,4s8.8-0.8,14.5-2.5s10.2-2.8,13.5-3.5c10-1.3,19.7,3.7,29,15
	s16.3,18.3,21,21c24,12.7,42.3,16.3,55,11c-1.3,0.7-1.2,3.2,0.5,7.5s4.3,9.5,8,15.5s6.7,10.8,9,14.5s4.2,6.5,5.5,8.5
	c3.3,4,9.3,9,18,15s14.7,11,18,15c4-2.7,6.3-5.7,7-9c-2,5.3,0.3,12,7,20s12.7,11.3,18,10c9.3-2,14-12.7,14-32c-20.7,10-37,4-49-18
	c0-0.7-0.8-2.5-2.5-5.5s-3-5.8-4-8.5s-1.8-5.5-2.5-8.5s-0.7-5.5,0-7.5s2.3-3,5-3c6,0,9.3-1.2,10-3.5s0-6.5-2-12.5s-3.3-10.3-4-13
	c-0.7-5.3-4.3-12-11-20s-10.7-13-12-15c-3.3,6-8.7,8.7-16,8s-12.7-3.7-16-9c0,0.7-0.5,2.5-1.5,5.5s-1.5,5.2-1.5,6.5
	c-8.7,0-13.7-0.3-15-1c0.7-2,1.5-7.8,2.5-17.5s2.2-17.2,3.5-22.5c0.7-2.7,2.5-6.7,5.5-12s5.5-10.2,7.5-14.5s3.3-8.5,4-12.5
	s-0.8-7.2-4.5-9.5s-9.5-3.2-17.5-2.5c-12.7,0.7-21.3,7.3-26,20c-0.7,2-1.7,5.5-3,10.5s-3,8.8-5,11.5s-5,5-9,7c-4.7,2-12.7,2.7-24,2
	s-19.3-2.3-24-5c-8.7-5.3-16.2-15-22.5-29s-9.5-26.3-9.5-37c0-6.7,0.8-15.5,2.5-26.5s2.7-19.3,3-25S784,996.7,780,986
	c2-1.3,5-4.5,9-9.5s7.3-8.5,10-10.5c1.3-0.7,2.8-1.2,4.5-1.5s3.2-0.3,4.5,0s2.7-0.2,4-1.5s2.3-3.3,3-6c-0.7-0.7-2-1.7-4-3
	c-2-2-3.3-3-4-3c4.7,2,14.2,1.5,28.5-1.5S859,947,863,951c10,7.3,17.3,6.7,22-2c0-0.7-0.8-3.8-2.5-9.5s-1.8-10.2-0.5-13.5
	c3.3,18,13,21,29,9c2,2,7.2,3.7,15.5,5s14.2,3,17.5,5c2,1.3,4.3,3.2,7,5.5s4.5,3.8,5.5,4.5s2.7,0.5,5-0.5s5.2-3.2,8.5-6.5
	c6.7,9.3,10.7,17.3,12,24c7.3,26.7,13.7,41.3,19,44c4.7,2,8.3,2.7,11,2s4.2-3.8,4.5-9.5s0.3-10.3,0-14s-0.8-7.8-1.5-12.5l-1-8v-18
	l-1-8c-10-2-16.2-6-18.5-12s-1.8-12.2,1.5-18.5s8.3-12.5,15-18.5c0.7-0.7,3.3-1.8,8-3.5s9.8-3.8,15.5-6.5s9.8-5.3,12.5-8
	c14-12.7,19-24.3,15-35c4.7,0,8.3-3,11-9c-0.7,0-2.3-1-5-3s-5.2-3.7-7.5-5s-3.8-2-4.5-2c6-3.3,6.7-8.7,2-16c3.3-2,5.8-5.7,7.5-11
	s4.2-8.7,7.5-10c6,8,13,8.7,21,2c4.7-5.3,5-10.7,1-16c3.3-4.7,10.2-8.2,20.5-10.5s16.5-5.5,18.5-9.5c4.7,1.3,7.3,0.7,8-2s1-6.7,1-12
	s1-9.3,3-12c2.7-3.3,7.7-6.3,15-9s11.7-4.3,13-5l17-11c2-2.7,2-4,0-4c12,1.3,22.3-2.3,31-11c6.7-7.3,4.7-14-6-20c2-4,1-7.2-3-9.5
	s-9-4.2-15-5.5c2-0.7,5.8-0.8,11.5-0.5s9.2-0.2,10.5-1.5c10-6.7,7.7-12-7-16C1201.7,633.7,1187.3,637.7,1170,649z M1007,1526
	c137.3-24,254.3-87,351-189c-2-2-6.2-3.5-12.5-4.5s-10.5-2.2-12.5-3.5c-12-4.7-20-7.3-24-8c0.7-4.7-0.2-9-2.5-13s-5-7-8-9
	s-7.2-4.7-12.5-8s-9-5.7-11-7c-1.3-1.3-3.7-3.3-7-6s-5.7-4.5-7-5.5s-3.8-2.5-7.5-4.5s-6.5-2.7-8.5-2s-5.3,1-10,1l-3,1
	c-2,0.7-3.8,1.5-5.5,2.5s-3.5,2-5.5,3s-3.3,2-4,3s-0.7,1.8,0,2.5c-14-11.3-26-18.7-36-22c-3.3-0.7-7-2.5-11-5.5s-7.5-5.3-10.5-7
	s-6.3-2.2-10-1.5s-7.5,3-11.5,7c-3.3,3.3-5.3,8.3-6,15s-1.3,11-2,13c-4.7-3.3-4.7-9.2,0-17.5s5.3-14.5,2-18.5c-2-4-5.5-5.5-10.5-4.5
	s-9,2.5-12,4.5s-6.8,4.8-11.5,8.5s-7.7,5.8-9,6.5s-4.2,2.5-8.5,5.5s-7.2,5.5-8.5,7.5c-2,2.7-4,6.7-6,12s-3.7,9-5,11
	c-1.3-2.7-5.2-4.8-11.5-6.5s-9.5-3.5-9.5-5.5c1.3,6.7,2.7,18.3,4,35s3,29.3,5,38c4.7,20.7,0.7,36.7-12,48c-18,16.7-27.7,30-29,40
	c-2.7,14.7,1.3,23.3,12,26c0,4.7-2.7,11.5-8,20.5s-7.7,16.2-7,21.5C1005,1514,1005.7,1519.3,1007,1526z"/>
</svg>
