<?xml version="1.0" encoding="utf-8"?>
<!-- Generator: Adobe Illustrator 21.1.0, SVG Export Plug-In . SVG Version: 6.00 Build 0)  -->
<svg version="1.1" id="Layer_1" xmlns="http://www.w3.org/2000/svg" xmlns:xlink="http://www.w3.org/1999/xlink" x="0px" y="0px"
	 viewBox="0 0 1792 1792" style="enable-background:new 0 0 1792 1792;" xml:space="preserve">
<style type="text/css">
	.st0{fill:#00AE18;}
</style>
<path class="st0" d="M1408,1344V448c0-17.3-6.3-32.3-19-45s-27.7-19-45-19h-128c-17.3,0-32.3,6.3-45,19s-19,27.7-19,45v320H640V448
	c0-17.3-6.3-32.3-19-45s-27.7-19-45-19H448c-17.3,0-32.3,6.3-45,19s-19,27.7-19,45v896c0,17.3,6.3,32.3,19,45s27.7,19,45,19h128
	c17.3,0,32.3-6.3,45-19s19-27.7,19-45v-320h512v320c0,17.3,6.3,32.3,19,45s27.7,19,45,19h128c17.3,0,32.3-6.3,45-19
	S1408,1361.3,1408,1344z M1664,416v960c0,79.3-28.2,147.2-84.5,203.5S1455.3,1664,1376,1664H416c-79.3,0-147.2-28.2-203.5-84.5
	S128,1455.3,128,1376V416c0-79.3,28.2-147.2,84.5-203.5S336.7,128,416,128h960c79.3,0,147.2,28.2,203.5,84.5S1664,336.7,1664,416z"
	/>
</svg>
