<?xml version="1.0" encoding="utf-8"?>
<!-- Generator: Adobe Illustrator 21.1.0, SVG Export Plug-In . SVG Version: 6.00 Build 0)  -->
<svg version="1.1" id="Layer_1" xmlns="http://www.w3.org/2000/svg" xmlns:xlink="http://www.w3.org/1999/xlink" x="0px" y="0px"
	 viewBox="0 0 1792 1792" style="enable-background:new 0 0 1792 1792;" xml:space="preserve">
<style type="text/css">
	.st0{fill:#00AE18;}
</style>
<path class="st0" d="M1073,1664H896c-108.7,0-184-47-226-141c-15.3-32.7-23-66.7-23-102v-5c-41.3-20-74.2-49.5-98.5-88.5
	S512,1246,512,1200c0-25.3,1.7-41.3,5-48H256c-70.7,0-131-25-181-75S0,966.7,0,896s25-131,75-181s110.3-75,181-75h113l-44-17
	c-49.3-18.7-89.2-49.8-119.5-93.5S160,437.3,160,384c0-70.7,25-131,75-181s110.3-75,181-75c30.7,0,61,5.7,91,17l628,239h401
	c70.7,0,131,25,181,75s75,110.3,75,181v668c0,58.7-18,111.2-54,157.5s-82.7,76.5-140,90.5l-339,85
	C1197.7,1656.3,1135.7,1664,1073,1664z M1024,953l-155,71l-163,74c-20,9.3-36,23.2-48,41.5s-18,38.5-18,60.5c0,30.7,11,57,33,79
	s48.3,33,79,33c17.3,0,32.7-3.3,46-10l338-154c-32.7-6.7-59.5-23.3-80.5-50s-31.5-56.7-31.5-90V953z M1344,1264c0-30.7-11-57-33-79
	s-48.3-33-79-33c-17.3,0-32.7,3.3-46,10l-290,132c-18.7,8.7-31,14.3-37,17s-16.2,8.3-30.5,17s-24.2,16.5-29.5,23.5s-10.7,16.7-16,29
	s-8,25.8-8,40.5c0,33.3,10.5,60.7,31.5,82s48.2,32,81.5,32c13.3,0,26-3,38-9l352-160c20-9.3,36-23.2,48-41.5S1344,1286,1344,1264z
	 M1112,512L462,264c-16-5.3-31.3-8-46-8c-35.3,0-65.5,12.5-90.5,37.5S288,348.7,288,384c0,26.7,7.5,51,22.5,73s34.8,37.7,59.5,47
	l526,200v64H256c-35.3,0-65.5,12.5-90.5,37.5S128,860.7,128,896s12.5,65.5,37.5,90.5s55.2,37.5,90.5,37.5h535l233-106V720
	c0-42,15.3-77.3,46-106l111-102H1112z M1073,1536c54.7,0,106.3-6.3,155-19l339-85c28.7-7.3,52-22.5,70-45.5s27-49.2,27-78.5V640
	c0-35.3-12.5-65.5-37.5-90.5S1571.3,512,1536,512h-308l-136,126c-24,22-36,49.3-36,82v296c0,30.7,11,56.3,33,77s48.3,31,79,31
	s57-11.7,79-35s33-50.3,33-81V800h32v208c0,46.7-19,84.7-57,114c34.7,5.3,63.5,21.5,86.5,48.5s34.5,58.2,34.5,93.5
	c0,28-7.7,54-23,78s-35.7,41.7-61,53l-310,141H1073z"/>
</svg>
