<?xml version="1.0" encoding="utf-8"?>
<!-- Generator: Adobe Illustrator 21.1.0, SVG Export Plug-In . SVG Version: 6.00 Build 0)  -->
<svg version="1.1" id="Layer_1" xmlns="http://www.w3.org/2000/svg" xmlns:xlink="http://www.w3.org/1999/xlink" x="0px" y="0px"
	 viewBox="0 0 1792 1792" style="enable-background:new 0 0 1792 1792;" xml:space="preserve">
<style type="text/css">
	.st0{fill:#00AE18;}
</style>
<path class="st0" d="M1376,1408h32V768h-32c-23.3,0-45.8-4-67.5-12s-42.5-20.3-62.5-37s-36.7-32-50-46s-29.7-32-49-54
	c-1.3-2-2.5-3.5-3.5-4.5s-2.3-2.5-4-4.5s-3.2-3.7-4.5-5c-48-54-85.3-102.3-112-145c-9.3-14.7-22-37.3-38-68
	c-0.7-2-4.2-9.5-10.5-22.5s-12.5-25-18.5-36s-12.7-22.8-20-35.5s-14.5-22.8-21.5-30.5S901.3,256,896,256
	c-47.3,0-85.8,10.2-115.5,30.5S736,339.3,736,384c0,28.7,5,56.8,15,84.5s21,50.3,33,68s23,36,33,55s15,35.2,15,48.5H256
	c-33.3,0-63,12.8-89,38.5S128,734,128,768c0,34.7,12.7,64.7,38,90s55.3,38,90,38h331c-10,11.3-18.3,27.2-25,47.5s-10,38.8-10,55.5
	c0,46,17.7,85.7,53,119c-12,21.3-18,44.3-18,69s5.8,49.2,17.5,73.5s27.5,41.8,47.5,52.5c-2.7,16-4,34.7-4,56
	c0,56.7,16.2,98.7,48.5,126s77.5,41,135.5,41c56,0,117-10.7,183-32s130.7-42.7,194-64S1328,1408,1376,1408z M1664,1344
	c0-17.3-6.3-32.3-19-45s-27.7-19-45-19s-32.3,6.3-45,19s-19,27.7-19,45s6.3,32.3,19,45s27.7,19,45,19s32.3-6.3,45-19
	S1664,1361.3,1664,1344z M1792,768v640c0,35.3-12.5,65.5-37.5,90.5s-55.2,37.5-90.5,37.5h-288c-39.3,0-113.7,19.7-223,59
	c-126.7,46-232.3,69-317,69c-94.7,0-171.3-25.8-230-77.5s-87.7-124.2-87-217.5l1-5c-40.7-50.7-61-110-61-178c0-14.7,1-29,3-43
	c-22-38-34.3-77.7-37-119H256c-70,0-130.2-25.3-180.5-76S0,837,0,767c0-68.7,25.3-128.3,76-179s110.7-76,180-76h374
	c-14.7-40-22-82.7-22-128c0-81.3,27.2-144.3,81.5-189s123.2-67,206.5-67c25.3,0,48.5,5.8,69.5,17.5s39.3,28.2,55,49.5
	c15.7,21.3,29.2,42.3,40.5,63s23.7,44.7,37,72s24.3,48,33,62c23.3,36.7,56.7,79.7,100,129c1.3,2,6,7.7,14,17s14.3,16.5,19,21.5
	s11.5,12.2,20.5,21.5s17,16.8,24,22.5s14.5,11.7,22.5,18s15.8,11,23.5,14s14.8,4.5,21.5,4.5h288c35.3,0,65.5,12.5,90.5,37.5
	S1792,732.7,1792,768z"/>
</svg>
