<?xml version="1.0" encoding="utf-8"?>
<!-- Generator: Adobe Illustrator 21.1.0, SVG Export Plug-In . SVG Version: 6.00 Build 0)  -->
<svg version="1.1" id="Layer_1" xmlns="http://www.w3.org/2000/svg" xmlns:xlink="http://www.w3.org/1999/xlink" x="0px" y="0px"
	 viewBox="0 0 1792 1792" style="enable-background:new 0 0 1792 1792;" xml:space="preserve">
<style type="text/css">
	.st0{fill:#00AE18;}
</style>
<path class="st0" d="M1168,1216c0,22-7.8,40.8-23.5,56.5S1110,1296,1088,1296s-40.8-7.8-56.5-23.5c-15.7-15.7-23.5-34.5-23.5-56.5
	s7.8-40.8,23.5-56.5c15.7-15.7,34.5-23.5,56.5-23.5s40.8,7.8,56.5,23.5S1168,1194,1168,1216z M1424,1216c0,22-7.8,40.8-23.5,56.5
	S1366,1296,1344,1296s-40.8-7.8-56.5-23.5S1264,1238,1264,1216s7.8-40.8,23.5-56.5s34.5-23.5,56.5-23.5s40.8,7.8,56.5,23.5
	S1424,1194,1424,1216z M1536,1376v-320c0-8.7-3.2-16.2-9.5-22.5s-13.8-9.5-22.5-9.5H288c-8.7,0-16.2,3.2-22.5,9.5
	s-9.5,13.8-9.5,22.5v320c0,8.7,3.2,16.2,9.5,22.5s13.8,9.5,22.5,9.5h1216c8.7,0,16.2-3.2,22.5-9.5S1536,1384.7,1536,1376z M306,896
	h1180l-157-482c-2.7-8.7-8-15.8-16-21.5s-16.7-8.5-26-8.5H505c-9.3,0-18,2.8-26,8.5s-13.3,12.8-16,21.5L306,896z M1664,1056v320
	c0,44-15.7,81.7-47,113s-69,47-113,47H288c-44,0-81.7-15.7-113-47s-47-69-47-113v-320c0-16.7,5.3-41.7,16-75l197-606
	c11.3-35.3,32.3-64,63-86s64.3-33,101-33h782c36.7,0,70.3,11,101,33s51.7,50.7,63,86l197,606C1658.7,1014.3,1664,1039.3,1664,1056z"
	/>
</svg>
