<?xml version="1.0" encoding="utf-8"?>
<!-- Generator: Adobe Illustrator 21.1.0, SVG Export Plug-In . SVG Version: 6.00 Build 0)  -->
<svg version="1.1" id="Layer_1" xmlns="http://www.w3.org/2000/svg" xmlns:xlink="http://www.w3.org/1999/xlink" x="0px" y="0px"
	 viewBox="0 0 1792 1792" style="enable-background:new 0 0 1792 1792;" xml:space="preserve">
<style type="text/css">
	.st0{fill:#00AE18;}
</style>
<path class="st0" d="M1728,886c0,110.7-20,215.3-60,314l-20,49l-185,33c-14.7,55.3-44.8,100.8-90.5,136.5s-97.8,53.5-156.5,53.5v32
	c0,9.3-3,17-9,23s-13.7,9-23,9h-64c-9.3,0-17-3-23-9s-9-13.7-9-23V928c0-9.3,3-17,9-23s13.7-9,23-9h64c9.3,0,17,3,23,9s9,13.7,9,23
	v32c47.3,0,90.7,11.8,130,35.5s70.3,55.5,93,95.5l68-12c19.3-63.3,29-127.7,29-193c0-98.7-29.3-191.7-88-279s-137.5-157-236.5-209
	s-204.2-78-315.5-78s-216.5,26-315.5,78S402.7,519.7,344,607s-88,180.3-88,279c0,65.3,9.7,129.7,29,193l68,12
	c22.7-40,53.7-71.8,93-95.5S528.7,960,576,960v-32c0-9.3,3-17,9-23s13.7-9,23-9h64c9.3,0,17,3,23,9s9,13.7,9,23v576c0,9.3-3,17-9,23
	s-13.7,9-23,9h-64c-9.3,0-17-3-23-9s-9-13.7-9-23v-32c-58.7,0-110.8-17.8-156.5-53.5s-75.8-81.2-90.5-136.5l-185-33l-20-49
	c-40-98.7-60-203.3-60-314c0-100.7,22.3-197.7,67-291s104.3-174.2,179-242.5S473.3,229.7,576,189s209.3-61,320-61s217.3,20.3,320,61
	s191.3,95.2,266,163.5s134.3,149.2,179,242.5S1728,785.3,1728,886z"/>
</svg>
