<?xml version="1.0" encoding="utf-8"?>
<!-- Generator: Adobe Illustrator 21.1.0, SVG Export Plug-In . SVG Version: 6.00 Build 0)  -->
<svg version="1.1" id="Layer_1" xmlns="http://www.w3.org/2000/svg" xmlns:xlink="http://www.w3.org/1999/xlink" x="0px" y="0px"
	 viewBox="0 0 1792 1792" style="enable-background:new 0 0 1792 1792;" xml:space="preserve">
<style type="text/css">
	.st0{fill:#00AE18;}
</style>
<path class="st0" d="M896,1664c-17.3,0-32-6-44-18l-624-602c-6.7-5.3-15.8-14-27.5-26s-30.2-33.8-55.5-65.5S97,888.3,77,855
	s-37.8-73.7-53.5-121S0,640.7,0,596c0-146.7,42.3-261.3,127-344s201.7-124,351-124c41.3,0,83.5,7.2,126.5,21.5s83,33.7,120,58
	s68.8,47.2,95.5,68.5s52,44,76,68c24-24,49.3-46.7,76-68s58.5-44.2,95.5-68.5s77-43.7,120-58S1272.7,128,1314,128
	c149.3,0,266.3,41.3,351,124s127,197.3,127,344c0,147.3-76.3,297.3-229,450l-623,600C928,1658,913.3,1664,896,1664z"/>
</svg>
