<?xml version="1.0" encoding="utf-8"?>
<!-- Generator: Adobe Illustrator 21.1.0, SVG Export Plug-In . SVG Version: 6.00 Build 0)  -->
<svg version="1.1" id="Layer_1" xmlns="http://www.w3.org/2000/svg" xmlns:xlink="http://www.w3.org/1999/xlink" x="0px" y="0px"
	 viewBox="0 0 1792 1792" style="enable-background:new 0 0 1792 1792;" xml:space="preserve">
<style type="text/css">
	.st0{fill:#00AE18;}
</style>
<path class="st0" d="M576,1312v64c0,8.7-3.2,16.2-9.5,22.5s-13.8,9.5-22.5,9.5h-64c-8.7,0-16.2-3.2-22.5-9.5s-9.5-13.8-9.5-22.5v-64
	c0-8.7,3.2-16.2,9.5-22.5s13.8-9.5,22.5-9.5h64c8.7,0,16.2,3.2,22.5,9.5S576,1303.3,576,1312z M576,1056v64c0,8.7-3.2,16.2-9.5,22.5
	s-13.8,9.5-22.5,9.5h-64c-8.7,0-16.2-3.2-22.5-9.5s-9.5-13.8-9.5-22.5v-64c0-8.7,3.2-16.2,9.5-22.5s13.8-9.5,22.5-9.5h64
	c8.7,0,16.2,3.2,22.5,9.5S576,1047.3,576,1056z M832,1056v64c0,8.7-3.2,16.2-9.5,22.5s-13.8,9.5-22.5,9.5h-64
	c-8.7,0-16.2-3.2-22.5-9.5s-9.5-13.8-9.5-22.5v-64c0-8.7,3.2-16.2,9.5-22.5s13.8-9.5,22.5-9.5h64c8.7,0,16.2,3.2,22.5,9.5
	S832,1047.3,832,1056z M576,800v64c0,8.7-3.2,16.2-9.5,22.5S552.7,896,544,896h-64c-8.7,0-16.2-3.2-22.5-9.5S448,872.7,448,864v-64
	c0-8.7,3.2-16.2,9.5-22.5s13.8-9.5,22.5-9.5h64c8.7,0,16.2,3.2,22.5,9.5S576,791.3,576,800z M1344,1312v64c0,8.7-3.2,16.2-9.5,22.5
	s-13.8,9.5-22.5,9.5h-64c-8.7,0-16.2-3.2-22.5-9.5s-9.5-13.8-9.5-22.5v-64c0-8.7,3.2-16.2,9.5-22.5s13.8-9.5,22.5-9.5h64
	c8.7,0,16.2,3.2,22.5,9.5S1344,1303.3,1344,1312z M1088,1056v64c0,8.7-3.2,16.2-9.5,22.5s-13.8,9.5-22.5,9.5h-64
	c-8.7,0-16.2-3.2-22.5-9.5s-9.5-13.8-9.5-22.5v-64c0-8.7,3.2-16.2,9.5-22.5s13.8-9.5,22.5-9.5h64c8.7,0,16.2,3.2,22.5,9.5
	S1088,1047.3,1088,1056z M832,800v64c0,8.7-3.2,16.2-9.5,22.5S808.7,896,800,896h-64c-8.7,0-16.2-3.2-22.5-9.5S704,872.7,704,864
	v-64c0-8.7,3.2-16.2,9.5-22.5s13.8-9.5,22.5-9.5h64c8.7,0,16.2,3.2,22.5,9.5S832,791.3,832,800z M1344,1056v64
	c0,8.7-3.2,16.2-9.5,22.5s-13.8,9.5-22.5,9.5h-64c-8.7,0-16.2-3.2-22.5-9.5s-9.5-13.8-9.5-22.5v-64c0-8.7,3.2-16.2,9.5-22.5
	s13.8-9.5,22.5-9.5h64c8.7,0,16.2,3.2,22.5,9.5S1344,1047.3,1344,1056z M1088,800v64c0,8.7-3.2,16.2-9.5,22.5s-13.8,9.5-22.5,9.5
	h-64c-8.7,0-16.2-3.2-22.5-9.5S960,872.7,960,864v-64c0-8.7,3.2-16.2,9.5-22.5s13.8-9.5,22.5-9.5h64c8.7,0,16.2,3.2,22.5,9.5
	S1088,791.3,1088,800z M1344,800v64c0,8.7-3.2,16.2-9.5,22.5s-13.8,9.5-22.5,9.5h-64c-8.7,0-16.2-3.2-22.5-9.5s-9.5-13.8-9.5-22.5
	v-64c0-8.7,3.2-16.2,9.5-22.5s13.8-9.5,22.5-9.5h64c8.7,0,16.2,3.2,22.5,9.5S1344,791.3,1344,800z M1088,1664h384V512h-256v32
	c0,26.7-9.3,49.3-28,68s-41.3,28-68,28H672c-26.7,0-49.3-9.3-68-28s-28-41.3-28-68v-32H320v1152h384v-224c0-8.7,3.2-16.2,9.5-22.5
	s13.8-9.5,22.5-9.5h320c8.7,0,16.2,3.2,22.5,9.5s9.5,13.8,9.5,22.5V1664z M1088,480V160c0-8.7-3.2-16.2-9.5-22.5s-13.8-9.5-22.5-9.5
	h-64c-8.7,0-16.2,3.2-22.5,9.5S960,151.3,960,160v96H832v-96c0-8.7-3.2-16.2-9.5-22.5S808.7,128,800,128h-64
	c-8.7,0-16.2,3.2-22.5,9.5S704,151.3,704,160v320c0,8.7,3.2,16.2,9.5,22.5s13.8,9.5,22.5,9.5h64c8.7,0,16.2-3.2,22.5-9.5
	s9.5-13.8,9.5-22.5v-96h128v96c0,8.7,3.2,16.2,9.5,22.5s13.8,9.5,22.5,9.5h64c8.7,0,16.2-3.2,22.5-9.5S1088,488.7,1088,480z
	 M1600,448v1280c0,17.3-6.3,32.3-19,45s-27.7,19-45,19H256c-17.3,0-32.3-6.3-45-19s-19-27.7-19-45V448c0-17.3,6.3-32.3,19-45
	s27.7-19,45-19h320V96c0-26.7,9.3-49.3,28-68s41.3-28,68-28h448c26.7,0,49.3,9.3,68,28s28,41.3,28,68v288h320c17.3,0,32.3,6.3,45,19
	S1600,430.7,1600,448z"/>
</svg>
