<?xml version="1.0" encoding="utf-8"?>
<!-- Generator: Adobe Illustrator 21.1.0, SVG Export Plug-In . SVG Version: 6.00 Build 0)  -->
<svg version="1.1" id="Layer_1" xmlns="http://www.w3.org/2000/svg" xmlns:xlink="http://www.w3.org/1999/xlink" x="0px" y="0px"
	 viewBox="0 0 1792 1792" style="enable-background:new 0 0 1792 1792;" xml:space="preserve">
<style type="text/css">
	.st0{fill:#00AE18;}
</style>
<path class="st0" d="M1120,624v496c0,9.3-3,17-9,23s-13.7,9-23,9H928c-9.3,0-17-3-23-9s-9-13.7-9-23V624c0-74.7-26.7-138.7-80-192
	s-117.3-80-192-80H352v1152c0,9.3-3,17-9,23s-13.7,9-23,9H160c-9.3,0-17-3-23-9s-9-13.7-9-23V160c0-9.3,3-17,9-23s13.7-9,23-9h464
	c90,0,173,22.2,249,66.5S1009.2,299,1053.5,375C1097.8,451,1120,534,1120,624z M1504,160v880c0,90-22.2,173-66.5,249
	S1333,1425.2,1257,1469.5s-159,66.5-249,66.5H544c-9.3,0-17-3-23-9s-9-13.7-9-23V544c0-9.3,3-17,9-23s13.7-9,23-9h160
	c9.3,0,17,3,23,9s9,13.7,9,23v768h272c74.7,0,138.7-26.7,192-80s80-117.3,80-192V160c0-9.3,3-17,9-23s13.7-9,23-9h160
	c9.3,0,17,3,23,9S1504,150.7,1504,160z"/>
</svg>
