<?xml version="1.0" encoding="utf-8"?>
<!-- Generator: Adobe Illustrator 21.1.0, SVG Export Plug-In . SVG Version: 6.00 Build 0)  -->
<svg version="1.1" id="Layer_1" xmlns="http://www.w3.org/2000/svg" xmlns:xlink="http://www.w3.org/1999/xlink" x="0px" y="0px"
	 viewBox="0 0 1792 1792" style="enable-background:new 0 0 1792 1792;" xml:space="preserve">
<style type="text/css">
	.st0{fill:#00AE18;}
</style>
<path class="st0" d="M448,0c17.3,0,32.3,6.3,45,19s19,27.7,19,45v891l536-429c11.3-9.3,24.7-14,40-14c17.3,0,32.3,6.3,45,19
	s19,27.7,19,45v379l536-429c11.3-9.3,24.7-14,40-14c17.3,0,32.3,6.3,45,19s19,27.7,19,45v1152c0,17.3-6.3,32.3-19,45s-27.7,19-45,19
	H64c-17.3,0-32.3-6.3-45-19s-19-27.7-19-45V64c0-17.3,6.3-32.3,19-45S46.7,0,64,0H448z"/>
</svg>
