<?xml version="1.0" encoding="utf-8"?>
<!-- Generator: Adobe Illustrator 21.1.0, SVG Export Plug-In . SVG Version: 6.00 Build 0)  -->
<svg version="1.1" id="Layer_1" xmlns="http://www.w3.org/2000/svg" xmlns:xlink="http://www.w3.org/1999/xlink" x="0px" y="0px"
	 viewBox="0 0 1792 1792" style="enable-background:new 0 0 1792 1792;" xml:space="preserve">
<style type="text/css">
	.st0{fill:#00AE18;}
</style>
<path class="st0" d="M320,1168v96c0,10.7-5.3,16-16,16h-96c-10.7,0-16-5.3-16-16v-96c0-10.7,5.3-16,16-16h96
	C314.7,1152,320,1157.3,320,1168z M448,912v96c0,10.7-5.3,16-16,16H208c-10.7,0-16-5.3-16-16v-96c0-10.7,5.3-16,16-16h224
	C442.7,896,448,901.3,448,912z M320,656v96c0,10.7-5.3,16-16,16h-96c-10.7,0-16-5.3-16-16v-96c0-10.7,5.3-16,16-16h96
	C314.7,640,320,645.3,320,656z M1344,1168v96c0,10.7-5.3,16-16,16H464c-10.7,0-16-5.3-16-16v-96c0-10.7,5.3-16,16-16h864
	C1338.7,1152,1344,1157.3,1344,1168z M704,912v96c0,10.7-5.3,16-16,16h-96c-10.7,0-16-5.3-16-16v-96c0-10.7,5.3-16,16-16h96
	C698.7,896,704,901.3,704,912z M576,656v96c0,10.7-5.3,16-16,16h-96c-10.7,0-16-5.3-16-16v-96c0-10.7,5.3-16,16-16h96
	C570.7,640,576,645.3,576,656z M960,912v96c0,10.7-5.3,16-16,16h-96c-10.7,0-16-5.3-16-16v-96c0-10.7,5.3-16,16-16h96
	C954.7,896,960,901.3,960,912z M832,656v96c0,10.7-5.3,16-16,16h-96c-10.7,0-16-5.3-16-16v-96c0-10.7,5.3-16,16-16h96
	C826.7,640,832,645.3,832,656z M1216,912v96c0,10.7-5.3,16-16,16h-96c-10.7,0-16-5.3-16-16v-96c0-10.7,5.3-16,16-16h96
	C1210.7,896,1216,901.3,1216,912z M1600,1168v96c0,10.7-5.3,16-16,16h-96c-10.7,0-16-5.3-16-16v-96c0-10.7,5.3-16,16-16h96
	C1594.7,1152,1600,1157.3,1600,1168z M1088,656v96c0,10.7-5.3,16-16,16h-96c-10.7,0-16-5.3-16-16v-96c0-10.7,5.3-16,16-16h96
	C1082.7,640,1088,645.3,1088,656z M1344,656v96c0,10.7-5.3,16-16,16h-96c-10.7,0-16-5.3-16-16v-96c0-10.7,5.3-16,16-16h96
	C1338.7,640,1344,645.3,1344,656z M1600,656v352c0,10.7-5.3,16-16,16h-224c-10.7,0-16-5.3-16-16v-96c0-10.7,5.3-16,16-16h112V656
	c0-10.7,5.3-16,16-16h96C1594.7,640,1600,645.3,1600,656z M1728,1408V512H64v896H1728z M1856,512v896c0,35.3-12.5,65.5-37.5,90.5
	s-55.2,37.5-90.5,37.5H64c-35.3,0-65.5-12.5-90.5-37.5S-64,1443.3-64,1408V512c0-35.3,12.5-65.5,37.5-90.5S28.7,384,64,384h1664
	c35.3,0,65.5,12.5,90.5,37.5S1856,476.7,1856,512z"/>
</svg>
