<?xml version="1.0" encoding="utf-8"?>
<!-- Generator: Adobe Illustrator 21.1.0, SVG Export Plug-In . SVG Version: 6.00 Build 0)  -->
<svg version="1.1" id="Layer_1" xmlns="http://www.w3.org/2000/svg" xmlns:xlink="http://www.w3.org/1999/xlink" x="0px" y="0px"
	 viewBox="0 0 1792 1792" style="enable-background:new 0 0 1792 1792;" xml:space="preserve">
<style type="text/css">
	.st0{fill:#00AE18;}
</style>
<path class="st0" d="M1560,1052c0-115.3-78-195-234-239c-23.3-6.7-41-12.2-53-16.5s-24.7-12.7-38-25s-23-27.8-29-46.5
	c0-1.3-0.7-4.2-2-8.5s-2.3-8.3-3-12s-1-6.2-1-7.5c0-24,8.2-43.8,24.5-59.5S1261,614,1285,614c36,0,59.7,5,71,15h-1
	c13.3,10,26.3,27,39,51l93-71c-26-36-42.3-57.3-49-64c-22-19.3-44.5-32.3-67.5-39s-51.5-10-85.5-10c-53.3,0-100.7,19.2-142,57.5
	s-62,84.2-62,137.5c0,4.7,0.7,12.3,2,23c10.7,64,32.2,110.7,64.5,140s81.8,53.7,148.5,73c19.3,5.3,35.7,10.5,49,15.5
	s28.3,12.2,45,21.5s29.5,20.8,38.5,34.5s13.5,29.2,13.5,46.5v5c0.7,38.7-12.8,69.7-40.5,93s-61.2,35-100.5,35
	c-64.7,0-120.3-48-167-144c-15.3-31.3-32.5-71.8-51.5-121.5s-35-91.5-48-125.5s-31-70.8-54-110.5s-47.7-71.5-74-95.5
	s-60.8-44.2-103.5-60.5S711.3,496,656,496c-67.3,0-131.3,18.7-192,56s-108.7,86.7-144,148s-52,125.3-50,192v1
	c2.7,72,19.5,138.3,50.5,199S396,1201.8,454,1239.5s123.3,56.5,196,56.5c124,0,217-36.7,279-110c13.3-18,23.7-35,31-51l-60-109
	c-28,53.3-61,92-99,116s-86.7,36-146,36c-76.7,0-140.3-29-191-87s-76-126-76-204c0-70,27.3-133,82-189s116.7-84,186-84
	c74.7,0,131.3,17.8,170,53.5s73.3,93.2,104,172.5c5.3,14,13.8,36.8,25.5,68.5s21.2,57.2,28.5,76.5s17.8,44.2,31.5,74.5
	c13.7,30.3,26.5,55,38.5,74s27.2,39.8,45.5,62.5s36.8,40.5,55.5,53.5s40.7,24,66,33s52,13.5,80,13.5c71.3,0,132.3-23.2,183-69.5
	S1560,1122,1560,1052z M1664,416v960c0,79.3-28.2,147.2-84.5,203.5S1455.3,1664,1376,1664H416c-79.3,0-147.2-28.2-203.5-84.5
	S128,1455.3,128,1376V416c0-79.3,28.2-147.2,84.5-203.5S336.7,128,416,128h960c79.3,0,147.2,28.2,203.5,84.5S1664,336.7,1664,416z"
	/>
</svg>
