<?xml version="1.0" encoding="utf-8"?>
<!-- Generator: Adobe Illustrator 21.1.0, SVG Export Plug-In . SVG Version: 6.00 Build 0)  -->
<svg version="1.1" id="Layer_1" xmlns="http://www.w3.org/2000/svg" xmlns:xlink="http://www.w3.org/1999/xlink" x="0px" y="0px"
	 viewBox="0 0 1792 1792" style="enable-background:new 0 0 1792 1792;" xml:space="preserve">
<style type="text/css">
	.st0{fill:#00AE18;}
</style>
<path class="st0" d="M1280,704c0-17.3-6.3-32.3-19-45s-27.7-19-45-19c-114.7,0-220.7,16.5-318,49.5s-183.8,77.7-259.5,134
	S484.3,953,403,1043c-12.7,14-19,29-19,45c0,17.3,6.3,32.3,19,45s27.7,19,45,19c16,0,31-6.3,45-19c18-16,42.7-39.7,74-71
	s53.7-53.3,67-66c91.3-82.7,180.8-141.3,268.5-176s192.2-52,313.5-52c17.3,0,32.3-6.3,45-19S1280,721.3,1280,704z M1792,506
	c0,63.3-6.7,127.7-20,193c-30.7,149.3-92.2,277-184.5,383S1376,1277.3,1230,1350c-142.7,72-288.7,108-438,108
	c-98.7,0-194-15.7-286-47c-10-3.3-39.3-17.3-88-42s-80.7-37-96-37c-10.7,0-23.8,10.7-39.5,32s-30.7,44.7-45,70s-31.8,48.7-52.5,70
	s-40.7,32-60,32c-20,0-37-3.7-51-11s-24.3-15.3-31-24s-15.7-22.7-27-42c-1.3-2.7-3.3-6.3-6-11s-4.5-8-5.5-10s-2-5.2-3-9.5
	S0,1419.7,0,1415c0-23.3,10.3-47.8,31-73.5s43.3-47.5,68-65.5s47.3-36.7,68-56s31-35.3,31-48c0-2.7-4.7-15.3-14-38s-14.7-37.3-16-44
	c-6-34-9-68.7-9-104c0-76.7,14.5-150,43.5-220s68.7-131.5,119-184.5s107.2-99.3,170.5-139S623.3,371,696,347
	c36.7-12,85-20.5,145-25.5s119.8-8,179.5-9c59.7-1,119.2-3,178.5-6s113.8-11,163.5-24S1450,250.7,1476,226l29.5-29.5l29.5-28l27-20
	l36.5-16l43.5-4.5c26,0,49.5,15.3,70.5,46s36.8,68,47.5,112s18.7,85.3,24,124S1792,480.7,1792,506z"/>
</svg>
