<?xml version="1.0" encoding="utf-8"?>
<!-- Generator: Adobe Illustrator 21.1.0, SVG Export Plug-In . SVG Version: 6.00 Build 0)  -->
<svg version="1.1" id="Layer_1" xmlns="http://www.w3.org/2000/svg" xmlns:xlink="http://www.w3.org/1999/xlink" x="0px" y="0px"
	 viewBox="0 0 1792 1792" style="enable-background:new 0 0 1792 1792;" xml:space="preserve">
<style type="text/css">
	.st0{fill:#00AE18;}
</style>
<path class="st0" d="M1402,603c-12,24.7-31.3,37-58,37h-192v864c0,9.3-3,17-9,23s-13.7,9-23,9H416c-14,0-23.7-6-29-18
	c-5.3-13.3-4-25,4-35l160-192c6-7.3,14.3-11,25-11h320V640H704c-26.7,0-46-12.3-58-37c-11.3-24.7-8.3-47.3,9-68l320-384
	c12-14.7,28.3-22,49-22c20.7,0,37,7.3,49,22l320,384C1411,556.3,1414,579,1402,603z"/>
</svg>
