<?xml version="1.0" encoding="utf-8"?>
<!-- Generator: Adobe Illustrator 21.1.0, SVG Export Plug-In . SVG Version: 6.00 Build 0)  -->
<svg version="1.1" id="Layer_1" xmlns="http://www.w3.org/2000/svg" xmlns:xlink="http://www.w3.org/1999/xlink" x="0px" y="0px"
	 viewBox="0 0 1792 1792" style="enable-background:new 0 0 1792 1792;" xml:space="preserve">
<style type="text/css">
	.st0{fill:#00AE18;}
</style>
<path class="st0" d="M1728,893c0,9.3-3.3,17.3-10,24l-384,354c-10.7,9.3-22.3,11.3-35,6c-12.7-6-19-15.7-19-29v-224H32
	c-9.3,0-17-3-23-9s-9-13.7-9-23V800c0-9.3,3-17,9-23s13.7-9,23-9h1248V544c0-14,6.3-23.7,19-29s24.3-3.7,35,5l384,350
	C1724.7,876.7,1728,884.3,1728,893z"/>
</svg>
