<?xml version="1.0" encoding="utf-8"?>
<!-- Generator: Adobe Illustrator 21.1.0, SVG Export Plug-In . SVG Version: 6.00 Build 0)  -->
<svg version="1.1" id="Layer_1" xmlns="http://www.w3.org/2000/svg" xmlns:xlink="http://www.w3.org/1999/xlink" x="0px" y="0px"
	 viewBox="0 0 1792 1792" style="enable-background:new 0 0 1792 1792;" xml:space="preserve">
<style type="text/css">
	.st0{fill:#00AE18;}
</style>
<path class="st0" d="M1745,297c6.7,6.7,10,14.3,10,23s-3.3,16.3-10,23l-141,141c-18.7,18.7-41.3,28-68,28H192
	c-17.3,0-32.3-6.3-45-19s-19-27.7-19-45V192c0-17.3,6.3-32.3,19-45s27.7-19,45-19h576V64c0-17.3,6.3-32.3,19-45s27.7-19,45-19h128
	c17.3,0,32.3,6.3,45,19s19,27.7,19,45v64h512c26.7,0,49.3,9.3,68,28L1745,297z M768,1216h256v512c0,17.3-6.3,32.3-19,45
	s-27.7,19-45,19H832c-17.3,0-32.3-6.3-45-19s-19-27.7-19-45V1216z M1600,768c17.3,0,32.3,6.3,45,19s19,27.7,19,45v256
	c0,17.3-6.3,32.3-19,45s-27.7,19-45,19H256c-26.7,0-49.3-9.3-68-28L47,983c-6.7-6.7-10-14.3-10-23s3.3-16.3,10-23l141-141
	c18.7-18.7,41.3-28,68-28h512V576h256v192H1600z"/>
</svg>
