<?xml version="1.0" encoding="utf-8"?>
<!-- Generator: Adobe Illustrator 21.1.0, SVG Export Plug-In . SVG Version: 6.00 Build 0)  -->
<svg version="1.1" id="Layer_1" xmlns="http://www.w3.org/2000/svg" xmlns:xlink="http://www.w3.org/1999/xlink" x="0px" y="0px"
	 viewBox="0 0 1792 1792" style="enable-background:new 0 0 1792 1792;" xml:space="preserve">
<style type="text/css">
	.st0{fill:#00AE18;}
</style>
<path class="st0" d="M896,1088c44,0,86.7-5,128-15v655c0,17.3-6.3,32.3-19,45s-27.7,19-45,19H832c-17.3,0-32.3-6.3-45-19
	s-19-27.7-19-45v-655C808.7,1083,851.3,1088,896,1088z M896,0c141.3,0,262,50,362,150s150,220.7,150,362s-50,262-150,362
	s-220.7,150-362,150s-262-50-362-150S384,653.3,384,512s50-262,150-362S754.7,0,896,0z M896,224c9.3,0,17-3,23-9s9-13.7,9-23
	s-3-17-9-23s-13.7-9-23-9c-97.3,0-180.3,34.3-249,103S544,414.7,544,512c0,9.3,3,17,9,23s13.7,9,23,9s17-3,23-9s9-13.7,9-23
	c0-79.3,28.2-147.2,84.5-203.5S816.7,224,896,224z"/>
</svg>
