<?xml version="1.0" encoding="utf-8"?>
<!-- Generator: Adobe Illustrator 21.1.0, SVG Export Plug-In . SVG Version: 6.00 Build 0)  -->
<svg version="1.1" id="Layer_1" xmlns="http://www.w3.org/2000/svg" xmlns:xlink="http://www.w3.org/1999/xlink" x="0px" y="0px"
	 viewBox="0 0 1792 1792" style="enable-background:new 0 0 1792 1792;" xml:space="preserve">
<style type="text/css">
	.st0{fill:#00AE18;}
</style>
<path class="st0" d="M1280,1120V928c0-9.3-3-17-9-23s-13.7-9-23-9h-224V672c0-9.3-3-17-9-23s-13.7-9-23-9H800c-9.3,0-17,3-23,9
	s-9,13.7-9,23v224H544c-9.3,0-17,3-23,9s-9,13.7-9,23v192c0,9.3,3,17,9,23s13.7,9,23,9h224v224c0,9.3,3,17,9,23s13.7,9,23,9h192
	c9.3,0,17-3,23-9s9-13.7,9-23v-224h224c9.3,0,17-3,23-9S1280,1129.3,1280,1120z M640,384h512V256H640V384z M256,384v1280h-32
	c-61.3,0-114-22-158-66s-66-96.7-66-158V608c0-61.3,22-114,66-158s96.7-66,158-66H256z M1440,384v1280H352V384h160V224
	c0-26.7,9.3-49.3,28-68s41.3-28,68-28h576c26.7,0,49.3,9.3,68,28s28,41.3,28,68v160H1440z M1792,608v832c0,61.3-22,114-66,158
	s-96.7,66-158,66h-32V384h32c61.3,0,114,22,158,66S1792,546.7,1792,608z"/>
</svg>
