<?xml version="1.0" encoding="utf-8"?>
<!-- Generator: Adobe Illustrator 21.1.0, SVG Export Plug-In . SVG Version: 6.00 Build 0)  -->
<svg version="1.1" id="Layer_1" xmlns="http://www.w3.org/2000/svg" xmlns:xlink="http://www.w3.org/1999/xlink" x="0px" y="0px"
	 viewBox="0 0 1792 1792" style="enable-background:new 0 0 1792 1792;" xml:space="preserve">
<style type="text/css">
	.st0{fill:#00AE18;}
</style>
<path class="st0" d="M463,945l-101,101c-28-68.7-42-140-42-214V704c0-17.3,6.3-32.3,19-45s27.7-19,45-19s32.3,6.3,45,19
	s19,27.7,19,45v128C448,867.3,453,905,463,945z M1577,343l-361,361v128c0,88-31.3,163.3-94,226s-138,94-226,94
	c-36.7,0-73-6.3-109-19l-96,96c64.7,34,133,51,205,51c123.3,0,228.8-43.8,316.5-131.5S1344,955.3,1344,832V704
	c0-17.3,6.3-32.3,19-45s27.7-19,45-19s32.3,6.3,45,19s19,27.7,19,45v128c0,147.3-49.2,275.5-147.5,384.5S1104.7,1388,960,1404v132
	h256c17.3,0,32.3,6.3,45,19s19,27.7,19,45s-6.3,32.3-19,45s-27.7,19-45,19H576c-17.3,0-32.3-6.3-45-19s-19-27.7-19-45
	s6.3-32.3,19-45s27.7-19,45-19h256v-132c-83.3-8.7-161.7-35.7-235-81l-254,254c-6.7,6.7-14.3,10-23,10s-16.3-3.3-23-10l-82-82
	c-6.7-6.7-10-14.3-10-23s3.3-16.3,10-23L1449,215c6.7-6.7,14.3-10,23-10s16.3,3.3,23,10l82,82c6.7,6.7,10,14.3,10,23
	S1583.7,336.3,1577,343z M1197,211L576,832V320c0-88,31.3-163.3,94-226S808,0,896,0c68,0,129.5,19.7,184.5,59S1174.3,149,1197,211z"
	/>
</svg>
