<?xml version="1.0" encoding="utf-8"?>
<!-- Generator: Adobe Illustrator 21.1.0, SVG Export Plug-In . SVG Version: 6.00 Build 0)  -->
<svg version="1.1" id="Layer_1" xmlns="http://www.w3.org/2000/svg" xmlns:xlink="http://www.w3.org/1999/xlink" x="0px" y="0px"
	 viewBox="0 0 1792 1792" style="enable-background:new 0 0 1792 1792;" xml:space="preserve">
<style type="text/css">
	.st0{fill:#00AE18;}
</style>
<path class="st0" d="M1472,704v128c0,147.3-49.2,275.5-147.5,384.5S1104.7,1388,960,1404v132h256c17.3,0,32.3,6.3,45,19
	s19,27.7,19,45s-6.3,32.3-19,45s-27.7,19-45,19H576c-17.3,0-32.3-6.3-45-19s-19-27.7-19-45s6.3-32.3,19-45s27.7-19,45-19h256v-132
	c-144.7-16-266.2-78.5-364.5-187.5S320,979.3,320,832V704c0-17.3,6.3-32.3,19-45s27.7-19,45-19s32.3,6.3,45,19s19,27.7,19,45v128
	c0,123.3,43.8,228.8,131.5,316.5S772.7,1280,896,1280s228.8-43.8,316.5-131.5S1344,955.3,1344,832V704c0-17.3,6.3-32.3,19-45
	s27.7-19,45-19s32.3,6.3,45,19S1472,686.7,1472,704z M1216,320v512c0,88-31.3,163.3-94,226s-138,94-226,94s-163.3-31.3-226-94
	s-94-138-94-226V320c0-88,31.3-163.3,94-226S808,0,896,0s163.3,31.3,226,94S1216,232,1216,320z"/>
</svg>
