<?xml version="1.0" encoding="utf-8"?>
<!-- Generator: Adobe Illustrator 21.1.0, SVG Export Plug-In . SVG Version: 6.00 Build 0)  -->
<svg version="1.1" id="Layer_1" xmlns="http://www.w3.org/2000/svg" xmlns:xlink="http://www.w3.org/1999/xlink" x="0px" y="0px"
	 viewBox="0 0 1792 1792" style="enable-background:new 0 0 1792 1792;" xml:space="preserve">
<style type="text/css">
	.st0{fill:#00AE18;}
</style>
<path class="st0" d="M896,128c139.3,0,267.8,34.3,385.5,103s210.8,161.8,279.5,279.5s103,246.2,103,385.5s-34.3,267.8-103,385.5
	s-161.8,210.8-279.5,279.5s-246.2,103-385.5,103s-267.8-34.3-385.5-103S299.7,1399.2,231,1281.5S128,1035.3,128,896
	s34.3-267.8,103-385.5S392.8,299.7,510.5,231S756.7,128,896,128z M896,1440c98.7,0,189.7-24.3,273-73s149.3-114.7,198-198
	s73-174.3,73-273s-24.3-189.7-73-273s-114.7-149.3-198-198s-174.3-73-273-73s-189.7,24.3-273,73S473.7,539.7,425,623
	s-73,174.3-73,273s24.3,189.7,73,273s114.7,149.3,198,198S797.3,1440,896,1440z M992,1216c-9.3,0-17-3-23-9s-9-13.7-9-23V608
	c0-9.3,3-17,9-23s13.7-9,23-9h192c9.3,0,17,3,23,9s9,13.7,9,23v576c0,9.3-3,17-9,23s-13.7,9-23,9H992z M608,1216c-9.3,0-17-3-23-9
	s-9-13.7-9-23V608c0-9.3,3-17,9-23s13.7-9,23-9h192c9.3,0,17,3,23,9s9,13.7,9,23v576c0,9.3-3,17-9,23s-13.7,9-23,9H608z"/>
</svg>
