<?xml version="1.0" encoding="utf-8"?>
<!-- Generator: Adobe Illustrator 21.1.0, SVG Export Plug-In . SVG Version: 6.00 Build 0)  -->
<svg version="1.1" id="Layer_1" xmlns="http://www.w3.org/2000/svg" xmlns:xlink="http://www.w3.org/1999/xlink" x="0px" y="0px"
	 viewBox="0 0 1792 1792" style="enable-background:new 0 0 1792 1792;" xml:space="preserve">
<style type="text/css">
	.st0{fill:#00AE18;}
</style>
<path class="st0" d="M844,472c0,40-6.3,77.8-19,113.5S791.3,652,762,678s-64.3,39-105,39c-50.7,0-96.7-19.2-138-57.5
	S447,576,427,524s-30-102.3-30-151c0-40,6.3-77.8,19-113.5s33.7-66.5,63-92.5s64.3-39,105-39c51.3,0,97.5,19.2,138.5,57.5
	s71.5,83.3,91.5,135S844,422.7,844,472z M502,955c0,53.3-14,99.7-42,139s-67.7,59-119,59c-50.7,0-97.8-18.5-141.5-55.5
	S122.3,1016,99,964S64,861.3,64,812c0-53.3,14-99.8,42-139.5S173.7,613,225,613c50.7,0,97.8,18.5,141.5,55.5s77.2,81.7,100.5,134
	S502,905.7,502,955z M896,928c78.7,0,163.7,32.5,255,97.5s167.7,144,229,237s92,177.8,92,254.5c0,30.7-5.7,56.2-17,76.5
	s-27.5,35.3-48.5,45s-42.5,16.3-64.5,20s-47.3,5.5-76,5.5c-45.3,0-107.8-15-187.5-45S938,1574,896,1574c-44,0-108.2,14.8-192.5,44.5
	S552.3,1663,503,1663c-122,0-183-48.7-183-146c0-57.3,18.7-121.2,56-191.5S459.8,1191,515.5,1133S633.7,1026.3,703,987
	C772.3,947.7,836.7,928,896,928z M1135,717c-40.7,0-75.7-13-105-39c-29.3-26-50.3-56.8-63-92.5S948,512,948,472
	c0-49.3,10-99.8,30-151.5s50.5-96.7,91.5-135S1156.7,128,1208,128c40.7,0,75.7,13,105,39s50.3,56.8,63,92.5s19,73.5,19,113.5
	c0,48.7-10,99-30,151s-50.7,97.2-92,135.5S1185.7,717,1135,717z M1567,613c51.3,0,91,19.8,119,59.5s42,86.2,42,139.5
	c0,49.3-11.7,100-35,152s-56.8,96.5-100.5,133.5s-90.8,55.5-141.5,55.5c-51.3,0-91-19.7-119-59s-42-85.7-42-139
	c0-49.3,11.7-100.2,35-152.5s56.8-97,100.5-134S1516.3,613,1567,613z"/>
</svg>
