<?xml version="1.0" encoding="utf-8"?>
<!-- Generator: Adobe Illustrator 21.1.0, SVG Export Plug-In . SVG Version: 6.00 Build 0)  -->
<svg version="1.1" id="Layer_1" xmlns="http://www.w3.org/2000/svg" xmlns:xlink="http://www.w3.org/1999/xlink" x="0px" y="0px"
	 viewBox="0 0 1792 1792" style="enable-background:new 0 0 1792 1792;" xml:space="preserve">
<style type="text/css">
	.st0{fill:#00AE18;}
</style>
<path class="st0" d="M1408,1280c0-34.7-12.7-64.7-38-90s-55.3-38-90-38s-64.7,12.7-90,38s-38,55.3-38,90s12.7,64.7,38,90
	s55.3,38,90,38s64.7-12.7,90-38S1408,1314.7,1408,1280z M640,512c0-34.7-12.7-64.7-38-90s-55.3-38-90-38s-64.7,12.7-90,38
	s-38,55.3-38,90s12.7,64.7,38,90s55.3,38,90,38s64.7-12.7,90-38S640,546.7,640,512z M1664,1280c0,106-37.5,196.5-112.5,271.5
	S1386,1664,1280,1664s-196.5-37.5-271.5-112.5S896,1386,896,1280s37.5-196.5,112.5-271.5S1174,896,1280,896s196.5,37.5,271.5,112.5
	S1664,1174,1664,1280z M1568,192c0,13.3-4.3,26-13,38L499,1638c-12.7,17.3-29.7,26-51,26H288c-17.3,0-32.3-6.3-45-19s-19-27.7-19-45
	c0-13.3,4.3-26,13-38L1293,154c12.7-17.3,29.7-26,51-26h160c17.3,0,32.3,6.3,45,19S1568,174.7,1568,192z M896,512
	c0,106-37.5,196.5-112.5,271.5S618,896,512,896s-196.5-37.5-271.5-112.5S128,618,128,512s37.5-196.5,112.5-271.5S406,128,512,128
	s196.5,37.5,271.5,112.5S896,406,896,512z"/>
</svg>
