<?xml version="1.0" encoding="utf-8"?>
<!-- Generator: Adobe Illustrator 21.1.0, SVG Export Plug-In . SVG Version: 6.00 Build 0)  -->
<svg version="1.1" id="Layer_1" xmlns="http://www.w3.org/2000/svg" xmlns:xlink="http://www.w3.org/1999/xlink" x="0px" y="0px"
	 viewBox="0 0 1792 1792" style="enable-background:new 0 0 1792 1792;" xml:space="preserve">
<style type="text/css">
	.st0{fill:#00AE18;}
</style>
<path class="st0" d="M1344,800v64c0,9.3-3,17-9,23s-13.7,9-23,9H960v352c0,9.3-3,17-9,23s-13.7,9-23,9h-64c-9.3,0-17-3-23-9
	s-9-13.7-9-23V896H480c-9.3,0-17-3-23-9s-9-13.7-9-23v-64c0-9.3,3-17,9-23s13.7-9,23-9h352V416c0-9.3,3-17,9-23s13.7-9,23-9h64
	c9.3,0,17,3,23,9s9,13.7,9,23v352h352c9.3,0,17,3,23,9S1344,790.7,1344,800z M1472,1248V416c0-44-15.7-81.7-47-113s-69-47-113-47
	H480c-44,0-81.7,15.7-113,47s-47,69-47,113v832c0,44,15.7,81.7,47,113s69,47,113,47h832c44,0,81.7-15.7,113-47S1472,1292,1472,1248z
	 M1600,416v832c0,79.3-28.2,147.2-84.5,203.5S1391.3,1536,1312,1536H480c-79.3,0-147.2-28.2-203.5-84.5S192,1327.3,192,1248V416
	c0-79.3,28.2-147.2,84.5-203.5S400.7,128,480,128h832c79.3,0,147.2,28.2,203.5,84.5S1600,336.7,1600,416z"/>
</svg>
