<?xml version="1.0" encoding="utf-8"?>
<!-- Generator: Adobe Illustrator 21.1.0, SVG Export Plug-In . SVG Version: 6.00 Build 0)  -->
<svg version="1.1" id="Layer_1" xmlns="http://www.w3.org/2000/svg" xmlns:xlink="http://www.w3.org/1999/xlink" x="0px" y="0px"
	 viewBox="0 0 1792 1792" style="enable-background:new 0 0 1792 1792;" xml:space="preserve">
<style type="text/css">
	.st0{fill:#00AE18;}
</style>
<path class="st0" d="M1150,762c0,37.3-13.2,69-39.5,95s-58.2,39-95.5,39H762V627h253c37.3,0,69.2,13.2,95.5,39.5
	S1150,724.7,1150,762z M1329,762c0-86.7-30.5-160.7-91.5-222s-135.2-92-222.5-92H582v896h180v-269h253c86.7,0,160.7-30.5,222-91.5
	S1329,848.7,1329,762z M1792,896c0,121.3-23.7,237.3-71,348s-111,206-191,286s-175.3,143.7-286,191s-226.7,71-348,71
	s-237.3-23.7-348-71s-206-111-286-191s-143.7-175.3-191-286S0,1017.3,0,896s23.7-237.3,71-348s111-206,191-286S437.3,118.3,548,71
	S774.7,0,896,0s237.3,23.7,348,71s206,111,286,191s143.7,175.3,191,286S1792,774.7,1792,896z"/>
</svg>
