<?xml version="1.0" encoding="utf-8"?>
<!-- Generator: Adobe Illustrator 21.1.0, SVG Export Plug-In . SVG Version: 6.00 Build 0)  -->
<svg version="1.1" id="Layer_1" xmlns="http://www.w3.org/2000/svg" xmlns:xlink="http://www.w3.org/1999/xlink" x="0px" y="0px"
	 viewBox="0 0 1792 1792" style="enable-background:new 0 0 1792 1792;" xml:space="preserve">
<style type="text/css">
	.st0{fill:#00AE18;}
</style>
<path class="st0" d="M1088,1256v240c0,10.7-4,20-12,28s-17.3,12-28,12H808c-10.7,0-20-4-28-12s-12-17.3-12-28v-240
	c0-10.7,4-20,12-28s17.3-12,28-12h240c10.7,0,20,4,28,12S1088,1245.3,1088,1256z M1404,656c0,36-5.2,69.7-15.5,101s-22,56.8-35,76.5
	s-31.3,39.5-55,59.5s-42.8,34.5-57.5,43.5s-35,20.8-61,35.5c-27.3,15.3-50.2,37-68.5,65s-27.5,50.3-27.5,67c0,11.3-4,22.2-12,32.5
	s-17.3,15.5-28,15.5H804c-10,0-18.5-6.2-25.5-18.5S768,1108.7,768,1096v-45c0-55.3,21.7-107.5,65-156.5s91-85.2,143-108.5
	c39.3-18,67.3-36.7,84-56s25-44.7,25-76c0-28-15.5-52.7-46.5-74s-66.8-32-107.5-32c-43.3,0-79.3,9.7-108,29
	c-23.3,16.7-59,55-107,115c-8.7,10.7-19,16-31,16c-8,0-16.3-2.7-25-8L496,575c-8.7-6.7-13.8-15-15.5-25s0.2-19.3,5.5-28
	c106.7-177.3,261.3-266,464-266c53.3,0,107,10.3,161,31s102.7,48.3,146,83s78.7,77.2,106,127.5S1404,600.7,1404,656z"/>
</svg>
