<?xml version="1.0" encoding="utf-8"?>
<!-- Generator: Adobe Illustrator 21.1.0, SVG Export Plug-In . SVG Version: 6.00 Build 0)  -->
<svg version="1.1" id="Layer_1" xmlns="http://www.w3.org/2000/svg" xmlns:xlink="http://www.w3.org/1999/xlink" x="0px" y="0px"
	 viewBox="0 0 1792 1792" style="enable-background:new 0 0 1792 1792;" xml:space="preserve">
<style type="text/css">
	.st0{fill:#00AE18;}
</style>
<path class="st0" d="M666,481c-40,61.3-85.7,152.3-137,273c-14.7-30-27-54.2-37-72.5S468.5,642,451.5,618s-34-42.8-51-56.5
	s-38-25.3-63-35S285.3,512,256,512H32c-9.3,0-17-3-23-9s-9-13.7-9-23V288c0-9.3,3-17,9-23s13.7-9,23-9h224
	C422.7,256,559.3,331,666,481z M1792,1280c0,9.3-3,17-9,23l-320,320c-6,6-13.7,9-23,9c-8.7,0-16.2-3.2-22.5-9.5s-9.5-13.8-9.5-22.5
	v-192c-21.3,0-49.7,0.2-85,0.5s-62.3,0.7-81,1s-43,0-73-1s-53.7-2.7-71-5s-38.7-5.8-64-10.5c-25.3-4.7-46.3-10.8-63-18.5
	s-36-17.2-58-28.5s-41.7-24.7-59-40s-35.7-33.2-55-53.5s-38-43.5-56-69.5c39.3-62,84.7-153,136-273c14.7,30,27,54.2,37,72.5
	s23.5,39.5,40.5,63.5s34,42.8,51,56.5s38,25.3,63,35s52.2,14.5,81.5,14.5h256V960c0-9.3,3-17,9-23s13.7-9,23-9c8,0,16,3.3,24,10
	l319,319C1789,1263,1792,1270.7,1792,1280z M1792,384c0,9.3-3,17-9,23l-320,320c-6,6-13.7,9-23,9c-8.7,0-16.2-3.2-22.5-9.5
	s-9.5-13.8-9.5-22.5V512h-256c-32,0-61,5-87,15s-49,25-69,45s-37,40.5-51,61.5s-29,46.8-45,77.5c-21.3,41.3-47.3,98.3-78,171
	c-19.3,44-35.8,81-49.5,111s-31.7,65-54,105s-43.7,73.3-64,100s-45,54.3-74,83s-59,51.5-90,68.5s-66.5,31-106.5,42
	s-82.7,16.5-128,16.5H32c-9.3,0-17-3-23-9s-9-13.7-9-23v-192c0-9.3,3-17,9-23s13.7-9,23-9h224c32,0,61-5,87-15s49-25,69-45
	s37-40.5,51-61.5s29-46.8,45-77.5c21.3-41.3,47.3-98.3,78-171c19.3-44,35.8-81,49.5-111s31.7-65,54-105s43.7-73.3,64-100
	s45-54.3,74-83s59-51.5,90-68.5s66.5-31,106.5-42s82.7-16.5,128-16.5h256V64c0-9.3,3-17,9-23s13.7-9,23-9c8,0,16,3.3,24,10l319,319
	C1789,367,1792,374.7,1792,384z"/>
</svg>
