<?xml version="1.0" encoding="utf-8"?>
<!-- Generator: Adobe Illustrator 21.1.0, SVG Export Plug-In . SVG Version: 6.00 Build 0)  -->
<svg version="1.1" id="Layer_1" xmlns="http://www.w3.org/2000/svg" xmlns:xlink="http://www.w3.org/1999/xlink" x="0px" y="0px"
	 viewBox="0 0 1792 1792" style="enable-background:new 0 0 1792 1792;" xml:space="preserve">
<style type="text/css">
	.st0{fill:#00AE18;}
</style>
<path class="st0" d="M1095,1167c10.7,10.7,10.7,21,0,31c-41.3,41.3-107.7,62-199,62s-157.7-20.7-199-62c-10.7-10-10.7-20.3,0-31
	c4-4,9-6,15-6s11,2,15,6c32,32.7,88.3,49,169,49c80,0,136.3-16.3,169-49c4-4,9-6,15-6S1091,1163,1095,1167z M788,986
	c0,24.7-8.7,45.7-26,63s-38.3,26-63,26s-45.8-8.7-63.5-26s-26.5-38.3-26.5-63c0-25.3,8.8-46.7,26.5-64s38.8-26,63.5-26
	s45.7,8.8,63,26.5S788,961.3,788,986z M1183,986c0,24.7-8.8,45.7-26.5,63s-38.8,26-63.5,26s-45.7-8.7-63-26
	c-17.3-17.3-26-38.3-26-63s8.7-45.8,26-63.5c17.3-17.7,38.3-26.5,63-26.5s45.8,8.7,63.5,26S1183,960.7,1183,986z M1434,866
	c0-32.7-11.7-60.7-35-84s-51.7-35-85-35s-62,12-86,36c-86.7-60-190.3-92-311-96l63-283l200,45c0,24.7,8.7,45.7,26,63s38.3,26,63,26
	s45.8-8.8,63.5-26.5s26.5-38.8,26.5-63.5s-8.8-45.8-26.5-63.5S1293.7,358,1269,358c-36,0-62.7,16.7-80,50l-221-49
	c-12.7-3.3-21,2-25,16l-69,312c-120,4.7-223,37-309,97c-23.3-24.7-52.3-37-87-37c-33.3,0-61.7,11.7-85,35s-35,51.3-35,84
	c0,23.3,6.2,44.7,18.5,64s28.8,34,49.5,44c-4,18-6,36.7-6,56c0,94.7,46.7,175.7,140,243s205.7,101,337,101c132,0,244.7-33.7,338-101
	s140-148.3,140-243c0-21.3-2.3-40.3-7-57c20-10,36-24.5,48-43.5S1434,889.3,1434,866z M1792,896c0,121.3-23.7,237.3-71,348
	s-111,206-191,286s-175.3,143.7-286,191s-226.7,71-348,71s-237.3-23.7-348-71s-206-111-286-191s-143.7-175.3-191-286S0,1017.3,0,896
	s23.7-237.3,71-348s111-206,191-286S437.3,118.3,548,71S774.7,0,896,0s237.3,23.7,348,71s206,111,286,191s143.7,175.3,191,286
	S1792,774.7,1792,896z"/>
</svg>
