<?xml version="1.0" encoding="utf-8"?>
<!-- Generator: Adobe Illustrator 21.1.0, SVG Export Plug-In . SVG Version: 6.00 Build 0)  -->
<svg version="1.1" id="Layer_1" xmlns="http://www.w3.org/2000/svg" xmlns:xlink="http://www.w3.org/1999/xlink" x="0px" y="0px"
	 viewBox="0 0 1792 1792" style="enable-background:new 0 0 1792 1792;" xml:space="preserve">
<style type="text/css">
	.st0{fill:#00AE18;}
</style>
<path class="st0" d="M1216,1504c0,8.7-3.2,16.2-9.5,22.5s-13.8,9.5-22.5,9.5H224c-5.3,0-9.8-0.7-13.5-2s-6.7-3.7-9-7s-4.2-6-5.5-8
	s-2.3-5.8-3-11.5s-1-9.5-1-11.5V896H0c-17.3,0-32.3-6.3-45-19s-19-27.7-19-45c0-16,5-29.7,15-41l320-384c12.7-14.7,29-22,49-22
	s36.3,7.3,49,22l320,384c10,11.3,15,25,15,41c0,17.3-6.3,32.3-19,45s-27.7,19-45,19H448v384h576c10.7,0,19,3.7,25,11l160,192
	C1213.7,1490.3,1216,1497.3,1216,1504z M1856,1088c0,16-5,29.7-15,41l-320,384c-13.3,15.3-29.7,23-49,23s-35.7-7.7-49-23l-320-384
	c-10-11.3-15-25-15-41c0-17.3,6.3-32.3,19-45s27.7-19,45-19h192V640H768c-10.7,0-19-4-25-12L583,436c-4.7-6-7-12.7-7-20
	c0-8.7,3.2-16.2,9.5-22.5s13.8-9.5,22.5-9.5h960c5.3,0,9.8,0.7,13.5,2s6.7,3.7,9,7s4.2,6,5.5,8s2.3,5.8,3,11.5s1,9.5,1,11.5v600h192
	c17.3,0,32.3,6.3,45,19S1856,1070.7,1856,1088z"/>
</svg>
