<?xml version="1.0" encoding="utf-8"?>
<!-- Generator: Adobe Illustrator 21.1.0, SVG Export Plug-In . SVG Version: 6.00 Build 0)  -->
<svg version="1.1" id="Layer_1" xmlns="http://www.w3.org/2000/svg" xmlns:xlink="http://www.w3.org/1999/xlink" x="0px" y="0px"
	 viewBox="0 0 1792 1792" style="enable-background:new 0 0 1792 1792;" xml:space="preserve">
<style type="text/css">
	.st0{fill:#00AE18;}
</style>
<path class="st0" d="M1504,448c0-26.7-9.3-49.3-28-68s-41.3-28-68-28s-49.3,9.3-68,28s-28,41.3-28,68s9.3,49.3,28,68s41.3,28,68,28
	s49.3-9.3,68-28S1504,474.7,1504,448z M1728,160c0,166-25.2,309.5-75.5,430.5S1517.7,831.7,1399,951c-54,53.3-119,112-195,176
	l-20,379c-1.3,10.7-6.7,19.3-16,26l-384,224c-4.7,2.7-10,4-16,4c-8,0-15.7-3-23-9l-64-64c-8.7-9.3-11.3-20-8-32l85-276l-281-281
	l-276,85c-2,0.7-5,1-9,1c-9.3,0-17-3-23-9l-64-64c-11.3-12.7-13-25.7-5-39l224-384c6.7-9.3,15.3-14.7,26-16l379-20
	c64-76,122.7-141,176-195c125.3-124.7,244.7-210.7,358-258s257-71,431-71c9.3,0,17.3,3.2,24,9.5S1728,151.3,1728,160z"/>
</svg>
