<?xml version="1.0" encoding="utf-8"?>
<!-- Generator: Adobe Illustrator 21.1.0, SVG Export Plug-In . SVG Version: 6.00 Build 0)  -->
<svg version="1.1" id="Layer_1" xmlns="http://www.w3.org/2000/svg" xmlns:xlink="http://www.w3.org/1999/xlink" x="0px" y="0px"
	 viewBox="0 0 1792 1792" style="enable-background:new 0 0 1792 1792;" xml:space="preserve">
<style type="text/css">
	.st0{fill:#00AE18;}
</style>
<path class="st0" d="M576,1344c0,53.3-18.7,98.7-56,136s-82.7,56-136,56s-98.7-18.7-136-56s-56-82.7-56-136s18.7-98.7,56-136
	s82.7-56,136-56s98.7,18.7,136,56S576,1290.7,576,1344z M1088,1467c1.3,18.7-4.3,34.7-17,48c-12,14-27.7,21-47,21H889
	c-16.7,0-31-5.5-43-16.5s-18.7-24.8-20-41.5c-14.7-152.7-76.2-283.2-184.5-391.5S402.7,916.7,250,902c-16.7-1.3-30.5-8-41.5-20
	S192,855.7,192,839V704c0-19.3,7-35,21-47c11.3-11.3,25.7-17,43-17h5c106.7,8.7,208.7,35.5,306,80.5S750.7,826,826,902
	c76,75.3,136.5,161.7,181.5,259S1079.3,1360.3,1088,1467z M1600,1469c1.3,18-4.7,33.7-18,47c-12,13.3-27.3,20-46,20h-143
	c-17.3,0-32.2-5.8-44.5-17.5s-18.8-25.8-19.5-42.5c-8-143.3-41.7-279.5-101-408.5s-136.5-241-231.5-336s-207-172.2-336-231.5
	S395.3,406.7,252,398c-16.7-0.7-30.8-7.2-42.5-19.5S192,351.7,192,335V192c0-18.7,6.7-34,20-46c12-12,26.7-18,44-18h3
	c174.7,8.7,341.8,48.7,501.5,120S1062,417.3,1186,542c124.7,124,222.7,265.8,294,425.5S1591.3,1294.3,1600,1469z"/>
</svg>
