<?xml version="1.0" encoding="utf-8"?>
<!-- Generator: Adobe Illustrator 21.1.0, SVG Export Plug-In . SVG Version: 6.00 Build 0)  -->
<svg version="1.1" id="Layer_1" xmlns="http://www.w3.org/2000/svg" xmlns:xlink="http://www.w3.org/1999/xlink" x="0px" y="0px"
	 viewBox="0 0 1792 1792" style="enable-background:new 0 0 1792 1792;" xml:space="preserve">
<style type="text/css">
	.st0{fill:#00AE18;}
</style>
<path class="st0" d="M1472,989v259c0,79.3-28.2,147.2-84.5,203.5S1263.3,1536,1184,1536H352c-79.3,0-147.2-28.2-203.5-84.5
	S64,1327.3,64,1248V416c0-79.3,28.2-147.2,84.5-203.5S272.7,128,352,128h255c8.7,0,16.2,3.2,22.5,9.5s9.5,13.8,9.5,22.5
	c0,18-8.7,28.7-26,32c-51.3,17.3-95.7,37.3-133,60c-6.7,2.7-12,4-16,4H352c-44,0-81.7,15.7-113,47s-47,69-47,113v832
	c0,44,15.7,81.7,47,113s69,47,113,47h832c44,0,81.7-15.7,113-47s47-69,47-113v-214c0-12.7,6-22.3,18-29c18.7-8.7,36.7-21,54-37
	c10.7-10.7,22.3-13.3,35-8C1465,966,1472,975.7,1472,989z M1709,493l-384,384c-12,12.7-27,19-45,19c-8,0-16.3-1.7-25-5
	c-26-11.3-39-31-39-59V640h-160c-215.3,0-361.3,43.7-438,131c-79.3,91.3-104,249-74,473c2,15.3-4.7,26.7-20,34c-5.3,1.3-9.3,2-12,2
	c-10.7,0-19.3-4.3-26-13c-6.7-9.3-13.7-19.7-21-31s-20.5-34.2-39.5-68.5S390,1100,376,1068s-26.8-70-38.5-114S320,869.3,320,832
	c0-32.7,1.2-63,3.5-91s7-58,14-90s16.3-61.3,28-88s27.3-53.8,47-81.5s42.5-52.3,68.5-74s57.5-42.2,94.5-61.5S654,310.5,700,297.5
	s99.2-23.2,159.5-30.5s125.8-11,196.5-11h160V64c0-28,13-47.7,39-59c8.7-3.3,17-5,25-5c17.3,0,32.3,6.3,45,19l384,384
	c12.7,12.7,19,27.7,19,45S1721.7,480.3,1709,493z"/>
</svg>
