<?xml version="1.0" encoding="utf-8"?>
<!-- Generator: Adobe Illustrator 21.1.0, SVG Export Plug-In . SVG Version: 6.00 Build 0)  -->
<svg version="1.1" id="Layer_1" xmlns="http://www.w3.org/2000/svg" xmlns:xlink="http://www.w3.org/1999/xlink" x="0px" y="0px"
	 viewBox="0 0 1792 1792" style="enable-background:new 0 0 1792 1792;" xml:space="preserve">
<style type="text/css">
	.st0{fill:#00AE18;}
</style>
<path class="st0" d="M704,1536c0,34.7-12.7,64.7-38,90s-55.3,38-90,38s-64.7-12.7-90-38s-38-55.3-38-90s12.7-64.7,38-90
	s55.3-38,90-38s64.7,12.7,90,38S704,1501.3,704,1536z M1600,1536c0,34.7-12.7,64.7-38,90s-55.3,38-90,38s-64.7-12.7-90-38
	s-38-55.3-38-90s12.7-64.7,38-90s55.3-38,90-38s64.7,12.7,90,38S1600,1501.3,1600,1536z M1728,448v512c0,16-5.5,30.2-16.5,42.5
	S1687,1022,1671,1024L627,1146c8.7,40,13,63.3,13,70c0,10.7-8,32-24,64h920c17.3,0,32.3,6.3,45,19s19,27.7,19,45s-6.3,32.3-19,45
	s-27.7,19-45,19H512c-17.3,0-32.3-6.3-45-19s-19-27.7-19-45c0-7.3,2.7-17.8,8-31.5s10.7-25.7,16-36s12.5-23.7,21.5-40
	s14.2-26.2,15.5-29.5L332,384H128c-17.3,0-32.3-6.3-45-19s-19-27.7-19-45s6.3-32.3,19-45s27.7-19,45-19h256
	c10.7,0,20.2,2.2,28.5,6.5S427.3,272,432,278s9,14.2,13,24.5s6.7,19,8,26s3.2,16.8,5.5,29.5s3.8,21.3,4.5,26h1201
	c17.3,0,32.3,6.3,45,19S1728,430.7,1728,448z"/>
</svg>
