<?xml version="1.0" encoding="utf-8"?>
<!-- Generator: Adobe Illustrator 21.1.0, SVG Export Plug-In . SVG Version: 6.00 Build 0)  -->
<svg version="1.1" id="Layer_1" xmlns="http://www.w3.org/2000/svg" xmlns:xlink="http://www.w3.org/1999/xlink" x="0px" y="0px"
	 viewBox="0 0 1792 1792" style="enable-background:new 0 0 1792 1792;" xml:space="preserve">
<style type="text/css">
	.st0{fill:#00AE18;}
</style>
<path class="st0" d="M1757,1408l35,313c2,18.7-3.3,35.3-16,50c-12.7,14-28.7,21-48,21H64c-19.3,0-35.3-7-48-21
	c-12.7-14.7-18-31.3-16-50l35-313H1757z M1664,569l86,775H42l86-775c2-16,9-29.5,21-40.5s26.3-16.5,43-16.5h256v128
	c0,35.3,12.5,65.5,37.5,90.5S540.7,768,576,768s65.5-12.5,90.5-37.5S704,675.3,704,640V512h384v128c0,35.3,12.5,65.5,37.5,90.5
	s55.2,37.5,90.5,37.5s65.5-12.5,90.5-37.5s37.5-55.2,37.5-90.5V512h256c16.7,0,31,5.5,43,16.5S1662,553,1664,569z M1280,384v256
	c0,17.3-6.3,32.3-19,45s-27.7,19-45,19s-32.3-6.3-45-19s-19-27.7-19-45V384c0-70.7-25-131-75-181s-110.3-75-181-75s-131,25-181,75
	s-75,110.3-75,181v256c0,17.3-6.3,32.3-19,45s-27.7,19-45,19s-32.3-6.3-45-19s-19-27.7-19-45V384c0-106,37.5-196.5,112.5-271.5
	S790,0,896,0s196.5,37.5,271.5,112.5S1280,278,1280,384z"/>
</svg>
