<?xml version="1.0" encoding="utf-8"?>
<!-- Generator: Adobe Illustrator 21.1.0, SVG Export Plug-In . SVG Version: 6.00 Build 0)  -->
<svg version="1.1" id="Layer_1" xmlns="http://www.w3.org/2000/svg" xmlns:xlink="http://www.w3.org/1999/xlink" x="0px" y="0px"
	 viewBox="0 0 1792 1792" style="enable-background:new 0 0 1792 1792;" xml:space="preserve">
<style type="text/css">
	.st0{fill:#00AE18;}
</style>
<path class="st0" d="M256,1440v192c0,9.3-3,17-9,23s-13.7,9-23,9H32c-9.3,0-17-3-23-9s-9-13.7-9-23v-192c0-9.3,3-17,9-23
	s13.7-9,23-9h192c9.3,0,17,3,23,9S256,1430.7,256,1440z M640,1312v320c0,9.3-3,17-9,23s-13.7,9-23,9H416c-9.3,0-17-3-23-9
	s-9-13.7-9-23v-320c0-9.3,3-17,9-23s13.7-9,23-9h192c9.3,0,17,3,23,9S640,1302.7,640,1312z M1024,1056v576c0,9.3-3,17-9,23
	s-13.7,9-23,9H800c-9.3,0-17-3-23-9s-9-13.7-9-23v-576c0-9.3,3-17,9-23s13.7-9,23-9h192c9.3,0,17,3,23,9S1024,1046.7,1024,1056z
	 M1408,672v960c0,9.3-3,17-9,23s-13.7,9-23,9h-192c-9.3,0-17-3-23-9s-9-13.7-9-23V672c0-9.3,3-17,9-23s13.7-9,23-9h192
	c9.3,0,17,3,23,9S1408,662.7,1408,672z M1792,160v1472c0,9.3-3,17-9,23s-13.7,9-23,9h-192c-9.3,0-17-3-23-9s-9-13.7-9-23V160
	c0-9.3,3-17,9-23s13.7-9,23-9h192c9.3,0,17,3,23,9S1792,150.7,1792,160z"/>
</svg>
