<?xml version="1.0" encoding="utf-8"?>
<!-- Generator: Adobe Illustrator 21.1.0, SVG Export Plug-In . SVG Version: 6.00 Build 0)  -->
<svg version="1.1" id="Layer_1" xmlns="http://www.w3.org/2000/svg" xmlns:xlink="http://www.w3.org/1999/xlink" x="0px" y="0px"
	 viewBox="0 0 1792 1792" style="enable-background:new 0 0 1792 1792;" xml:space="preserve">
<style type="text/css">
	.st0{fill:#00AE18;}
</style>
<path class="st0" d="M1562,787c98.7,0,183,32.8,253,98.5s105,147.2,105,244.5c0,104.7-36.3,191.8-109,261.5S1649.3,1496,1544,1496
	c-56.7,0-110.7-9.2-162-27.5s-97.3-42.8-138-73.5s-80-66-118-106s-74.3-82.2-109-126.5c-34.7-44.3-69.2-88.5-103.5-132.5
	S843,944,805,904s-77-75.3-117-106s-85.3-55.2-136-73.5S448.3,697,393,697c-102.7,0-186.5,30.5-251.5,91.5S44,931,44,1033
	c0,104.7,34.7,188,104,250s157,93,263,93c66.7,0,136-12.5,208-37.5s136.3-57.8,193-98.5c3.3-2.7,10.3-8.8,21-18.5s20.7-17.7,30-24
	s16.7-9.5,22-9.5c9.3,0,17.5,3.5,24.5,10.5s10.5,15.2,10.5,24.5c0,16-20,41.7-60,77c-67.3,58.7-145.5,106-234.5,142
	s-175.8,54-260.5,54c-88.7,0-170.5-19.3-245.5-58s-135-93.7-180-165s-67.5-151.7-67.5-241c0-136.7,47.2-250.3,141.5-341
	S223.7,555,361,555c80,0,155.5,14.5,226.5,43.5s132.8,66.7,185.5,113s103.2,97.3,151.5,153s94.7,111.5,139,167.5
	c44.3,56,88.8,107.2,133.5,153.5s94.5,84,149.5,113S1459,1342,1519,1342c68,0,124.2-20.5,168.5-61.5s66.5-95.2,66.5-162.5
	c0-63.3-21.5-116.3-64.5-159s-96.2-64-159.5-64c-20,0-47.2,6.2-81.5,18.5S1391.3,932,1380,932c-13.3,0-25.2-5-35.5-15
	s-15.5-21.7-15.5-35c0-12,2.8-31,8.5-57s8.5-45.7,8.5-59c0-106-35.8-193.7-107.5-263S1078,399,972,399c-38.7,0-75.8,6.2-111.5,18.5
	s-63.7,25.8-84,40.5s-38.8,28.2-55.5,40.5S693.3,517,688,517c-10,0-18.5-3.5-25.5-10.5S652,491,652,481c0-12.7,8.3-28,25-46
	c39.3-44.7,88.3-79.2,147-103.5S943.3,295,1006,295c127.3,0,233.3,41.8,318,125.5s127,188.8,127,315.5c0,24.7-1.3,46.7-4,66
	C1485,792,1523.3,787,1562,787z"/>
</svg>
