<?xml version="1.0" encoding="utf-8"?>
<!-- Generator: Adobe Illustrator 21.1.0, SVG Export Plug-In . SVG Version: 6.00 Build 0)  -->
<svg version="1.1" id="Layer_1" xmlns="http://www.w3.org/2000/svg" xmlns:xlink="http://www.w3.org/1999/xlink" x="0px" y="0px"
	 viewBox="0 0 1792 1792" style="enable-background:new 0 0 1792 1792;" xml:space="preserve">
<style type="text/css">
	.st0{fill:#00AE18;}
</style>
<path class="st0" d="M1472,704c0-17.3-6.3-32.3-19-45s-27.7-19-45-19s-32.3,6.3-45,19s-19,27.7-19,45s6.3,32.3,19,45s27.7,19,45,19
	s32.3-6.3,45-19S1472,721.3,1472,704z M1600,704c0,41.3-11.8,78.3-35.5,111s-54.5,56-92.5,70v395c0,106-43.8,196.5-131.5,271.5
	S1147.3,1664,1024,1664s-228.8-37.5-316.5-112.5S576,1386,576,1280v-132c-109.3-13.3-200.7-56-274-128S192,864,192,768V256
	c0-17.3,6.3-32.3,19-45s27.7-19,45-19c4,0,9.3,0.7,16,2c11.3-20,27-36,47-48s41.7-18,65-18c35.3,0,65.5,12.5,90.5,37.5
	S512,220.7,512,256s-12.5,65.5-37.5,90.5S419.3,384,384,384c-22,0-43.3-6-64-18v402c0,70.7,31.3,131,94,181s138,75,226,75
	s163.3-25,226-75s94-110.3,94-181V366c-20.7,12-42,18-64,18c-35.3,0-65.5-12.5-90.5-37.5S768,291.3,768,256s12.5-65.5,37.5-90.5
	S860.7,128,896,128c23.3,0,45,6,65,18s35.7,28,47,48c6.7-1.3,12-2,16-2c17.3,0,32.3,6.3,45,19s19,27.7,19,45v512
	c0,96-36.7,180-110,252s-164.7,114.7-274,128v132c0,70.7,31.3,131,94,181s138,75,226,75s163.3-25,226-75s94-110.3,94-181V885
	c-38-14-68.8-37.3-92.5-70s-35.5-69.7-35.5-111c0-53.3,18.7-98.7,56-136s82.7-56,136-56s98.7,18.7,136,56S1600,650.7,1600,704z"/>
</svg>
