<?xml version="1.0" encoding="utf-8"?>
<!-- Generator: Adobe Illustrator 21.1.0, SVG Export Plug-In . SVG Version: 6.00 Build 0)  -->
<svg version="1.1" id="Layer_1" xmlns="http://www.w3.org/2000/svg" xmlns:xlink="http://www.w3.org/1999/xlink" x="0px" y="0px"
	 viewBox="0 0 1792 1792" style="enable-background:new 0 0 1792 1792;" xml:space="preserve">
<style type="text/css">
	.st0{fill:#00AE18;}
</style>
<path class="st0" d="M1528,1280h-248v248c19.3-6.7,33-14,41-22l185-185C1514,1313,1521.3,1299.3,1528,1280z M1248,1152h288V256H256
	v1280h896v-288c0-26.7,9.3-49.3,28-68S1221.3,1152,1248,1152z M1664,224v1024c0,26.7-6.7,56-20,88s-29.3,57.3-48,76l-184,184
	c-18.7,18.7-44,34.7-76,48s-61.3,20-88,20H224c-26.7,0-49.3-9.3-68-28s-28-41.3-28-68V224c0-26.7,9.3-49.3,28-68s41.3-28,68-28h1344
	c26.7,0,49.3,9.3,68,28S1664,197.3,1664,224z"/>
</svg>
