<?xml version="1.0" encoding="utf-8"?>
<!-- Generator: Adobe Illustrator 21.1.0, SVG Export Plug-In . SVG Version: 6.00 Build 0)  -->
<svg version="1.1" id="Layer_1" xmlns="http://www.w3.org/2000/svg" xmlns:xlink="http://www.w3.org/1999/xlink" x="0px" y="0px"
	 viewBox="0 0 1792 1792" style="enable-background:new 0 0 1792 1792;" xml:space="preserve">
<style type="text/css">
	.st0{fill:#00AE18;}
</style>
<path class="st0" d="M1025,1369v167H777l-159-252l-24-42c-5.3-6-9-13-11-21h-3l-9,21c-6.7,13.3-15,28-25,44l-155,250H133v-167h128
	l197-291L273,806H136V638h276l139,228c1.3,2.7,9,16.7,23,42c5.3,6,9,13,11,21h3c2-6,5.7-13,11-21l25-42l140-228h257v168H896
	l-184,267l204,296H1025z M1664,1586v206h-514l-4-27c-2-30-3-45.3-3-46c0-42.7,8.7-81.7,26-117s39-64.2,65-86.5s54-44,84-65
	s58-39.2,84-54.5s47.7-33.3,65-54s26-42,26-64c0-25.3-9.8-46.2-29.5-62.5s-43.2-24.5-70.5-24.5c-34,0-66.3,13-97,39
	c-9.3,7.3-21.3,20-36,38l-105-92c17.3-24.7,38.3-46.7,63-66c53.3-43.3,116-65,188-65c73.3,0,132.7,19.8,178,59.5s68,92.5,68,158.5
	c0,44-11.5,83.5-34.5,118.5s-51,63.7-84,86s-66.2,43.2-99.5,62.5s-62.3,40.3-87,63s-38.3,47-41,73h232v-80H1664z"/>
</svg>
