<?xml version="1.0" encoding="utf-8"?>
<!-- Generator: Adobe Illustrator 21.1.0, SVG Export Plug-In . SVG Version: 6.00 Build 0)  -->
<svg version="1.1" id="Layer_1" xmlns="http://www.w3.org/2000/svg" xmlns:xlink="http://www.w3.org/1999/xlink" x="0px" y="0px"
	 viewBox="0 0 1792 1792" style="enable-background:new 0 0 1792 1792;" xml:space="preserve">
<style type="text/css">
	.st0{fill:#00AE18;}
</style>
<path class="st0" d="M1216,0c123.3,0,228.8,31.2,316.5,93.5S1664,231.3,1664,320v896c0,86.7-41.8,160.7-125.5,222
	s-185.5,93.7-305.5,97l213,202c10.7,10,13.3,21.7,8,35s-15.3,20-30,20H368c-14.7,0-24.7-6.7-30-20s-2.7-25,8-35l213-202
	c-120-3.3-221.8-35.7-305.5-97S128,1302.7,128,1216V320c0-88.7,43.8-164.2,131.5-226.5S452.7,0,576,0H1216z M416,1312
	c44,0,81.7-15.7,113-47s47-69,47-113s-15.7-81.7-47-113c-31.3-31.3-69-47-113-47s-81.7,15.7-113,47c-31.3,31.3-47,69-47,113
	s15.7,81.7,47,113S372,1312,416,1312z M832,768V256H288v512H832z M1376,1312c44,0,81.7-15.7,113-47s47-69,47-113s-15.7-81.7-47-113
	c-31.3-31.3-69-47-113-47s-81.7,15.7-113,47c-31.3,31.3-47,69-47,113s15.7,81.7,47,113S1332,1312,1376,1312z M1536,768V256H960v512
	H1536z"/>
</svg>
