<?xml version="1.0" encoding="utf-8"?>
<!-- Generator: Adobe Illustrator 21.1.0, SVG Export Plug-In . SVG Version: 6.00 Build 0)  -->
<svg version="1.1" id="Layer_1" xmlns="http://www.w3.org/2000/svg" xmlns:xlink="http://www.w3.org/1999/xlink" x="0px" y="0px"
	 viewBox="0 0 1792 1792" style="enable-background:new 0 0 1792 1792;" xml:space="preserve">
<style type="text/css">
	.st0{fill:#00AE18;}
</style>
<path class="st0" d="M1025,1369v167H777l-159-252l-24-42c-5.3-6-9-13-11-21h-3l-9,21c-6.7,13.3-15,28-25,44l-155,250H133v-167h128
	l197-291L273,806H136V638h276l139,228c1.3,2.7,9,16.7,23,42c5.3,6,9,13,11,21h3c2-6,5.7-13,11-21l25-42l140-228h257v168H896
	l-184,267l204,296H1025z M1662,690v206h-514l-3-27c-2.7-18.7-4-34-4-46c0-42.7,8.7-81.7,26-117s39-64.2,65-86.5s54-44,84-65
	s58-39.2,84-54.5s47.7-33.3,65-54s26-42,26-64c0-25.3-9.8-46.2-29.5-62.5S1418.3,295,1391,295c-34,0-66.3,13-97,39
	c-9.3,7.3-21.3,20-36,38l-105-92c17.3-24.7,38.3-46.7,63-66c55.3-43.3,118-65,188-65c73.3,0,132.7,19.8,178,59.5s68,92.5,68,158.5
	c0,37.3-8.2,71.7-24.5,103s-37,56.8-62,76.5s-52.2,39.2-81.5,58.5s-56.7,36.2-82,50.5s-47.2,31.5-65.5,51.5s-28.5,41-30.5,63h232
	v-80H1662z"/>
</svg>
