<?xml version="1.0" encoding="utf-8"?>
<!-- Generator: Adobe Illustrator 21.1.0, SVG Export Plug-In . SVG Version: 6.00 Build 0)  -->
<svg version="1.1" id="Layer_1" xmlns="http://www.w3.org/2000/svg" xmlns:xlink="http://www.w3.org/1999/xlink" x="0px" y="0px"
	 viewBox="0 0 1792 1792" style="enable-background:new 0 0 1792 1792;" xml:space="preserve">
<style type="text/css">
	.st0{fill:#00AE18;}
</style>
<path class="st0" d="M384,1152c0-35.3-12.5-65.5-37.5-90.5S291.3,1024,256,1024s-65.5,12.5-90.5,37.5S128,1116.7,128,1152
	s12.5,65.5,37.5,90.5s55.2,37.5,90.5,37.5s65.5-12.5,90.5-37.5S384,1187.3,384,1152z M576,704c0-35.3-12.5-65.5-37.5-90.5
	S483.3,576,448,576s-65.5,12.5-90.5,37.5S320,668.7,320,704s12.5,65.5,37.5,90.5S412.7,832,448,832s65.5-12.5,90.5-37.5
	S576,739.3,576,704z M1004,1185l101-382c4-17.3,1.5-33.5-7.5-48.5s-21.8-24.8-38.5-29.5s-32.7-2.5-48,6.5c-15.3,9-25.3,22.2-30,39.5
	l-101,382c-40,3.3-75.7,17.8-107,43.5s-52.3,58.5-63,98.5c-13.3,51.3-6.7,100,20,146s65.7,75.7,117,89s100,6.7,146-20
	s75.7-65.7,89-117c10.7-40,8.7-79-6-117S1037.3,1207.7,1004,1185z M1664,1152c0-35.3-12.5-65.5-37.5-90.5s-55.2-37.5-90.5-37.5
	s-65.5,12.5-90.5,37.5s-37.5,55.2-37.5,90.5s12.5,65.5,37.5,90.5s55.2,37.5,90.5,37.5s65.5-12.5,90.5-37.5S1664,1187.3,1664,1152z
	 M1024,512c0-35.3-12.5-65.5-37.5-90.5S931.3,384,896,384s-65.5,12.5-90.5,37.5S768,476.7,768,512s12.5,65.5,37.5,90.5
	S860.7,640,896,640s65.5-12.5,90.5-37.5S1024,547.3,1024,512z M1472,704c0-35.3-12.5-65.5-37.5-90.5S1379.3,576,1344,576
	s-65.5,12.5-90.5,37.5S1216,668.7,1216,704s12.5,65.5,37.5,90.5s55.2,37.5,90.5,37.5s65.5-12.5,90.5-37.5S1472,739.3,1472,704z
	 M1792,1152c0,174-47,335-141,483c-12.7,19.3-30.7,29-54,29H195c-23.3,0-41.3-9.7-54-29C47,1487.7,0,1326.7,0,1152
	c0-121.3,23.7-237.3,71-348s111-206,191-286s175.3-143.7,286-191s226.7-71,348-71s237.3,23.7,348,71s206,111,286,191
	s143.7,175.3,191,286S1792,1030.7,1792,1152z"/>
</svg>
