<?xml version="1.0" encoding="utf-8"?>
<!-- Generator: Adobe Illustrator 21.1.0, SVG Export Plug-In . SVG Version: 6.00 Build 0)  -->
<svg version="1.1" id="Layer_1" xmlns="http://www.w3.org/2000/svg" xmlns:xlink="http://www.w3.org/1999/xlink" x="0px" y="0px"
	 viewBox="0 0 1792 1792" style="enable-background:new 0 0 1792 1792;" xml:space="preserve">
<style type="text/css">
	.st0{fill:#00AE18;}
</style>
<path class="st0" d="M576,448c0-35.3-12.5-65.5-37.5-90.5S483.3,320,448,320s-65.5,12.5-90.5,37.5S320,412.7,320,448
	s12.5,65.5,37.5,90.5S412.7,576,448,576s65.5-12.5,90.5-37.5S576,483.3,576,448z M1643,1024c0,35.3-12.3,65.3-37,90l-491,492
	c-26,24.7-56.3,37-91,37c-35.3,0-65.3-12.3-90-37L219,890c-25.3-24.7-46.8-58.3-64.5-101S128,707.3,128,672V256
	c0-34.7,12.7-64.7,38-90s55.3-38,90-38h416c35.3,0,74.3,8.8,117,26.5s76.7,39.2,102,64.5l715,714C1630.7,959,1643,989.3,1643,1024z"
	/>
</svg>
