<?xml version="1.0" encoding="utf-8"?>
<!-- Generator: Adobe Illustrator 21.1.0, SVG Export Plug-In . SVG Version: 6.00 Build 0)  -->
<svg version="1.1" id="Layer_1" xmlns="http://www.w3.org/2000/svg" xmlns:xlink="http://www.w3.org/1999/xlink" x="0px" y="0px"
	 viewBox="0 0 1792 1792" style="enable-background:new 0 0 1792 1792;" xml:space="preserve">
<style type="text/css">
	.st0{fill:#00AE18;}
</style>
<path class="st0" d="M1024,1408h640v-128h-640V1408z M640,896h1024V768H640V896z M1280,384h384V256h-384V384z M1792,1216v256
	c0,17.3-6.3,32.3-19,45s-27.7,19-45,19H64c-17.3,0-32.3-6.3-45-19s-19-27.7-19-45v-256c0-17.3,6.3-32.3,19-45s27.7-19,45-19h1664
	c17.3,0,32.3,6.3,45,19S1792,1198.7,1792,1216z M1792,704v256c0,17.3-6.3,32.3-19,45s-27.7,19-45,19H64c-17.3,0-32.3-6.3-45-19
	S0,977.3,0,960V704c0-17.3,6.3-32.3,19-45s27.7-19,45-19h1664c17.3,0,32.3,6.3,45,19S1792,686.7,1792,704z M1792,192v256
	c0,17.3-6.3,32.3-19,45s-27.7,19-45,19H64c-17.3,0-32.3-6.3-45-19S0,465.3,0,448V192c0-17.3,6.3-32.3,19-45s27.7-19,45-19h1664
	c17.3,0,32.3,6.3,45,19S1792,174.7,1792,192z"/>
</svg>
