<?xml version="1.0" encoding="utf-8"?>
<!-- Generator: Adobe Illustrator 21.1.0, SVG Export Plug-In . SVG Version: 6.00 Build 0)  -->
<svg version="1.1" id="Layer_1" xmlns="http://www.w3.org/2000/svg" xmlns:xlink="http://www.w3.org/1999/xlink" x="0px" y="0px"
	 viewBox="0 0 1792 1792" style="enable-background:new 0 0 1792 1792;" xml:space="preserve">
<style type="text/css">
	.st0{fill:#00AE18;}
</style>
<path class="st0" d="M1744,1408c22,0,36,6.2,42,18.5s2.3,27.2-11,44.5l-126,162c-13.3,17.3-29.7,26-49,26s-35.7-8.7-49-26l-126-162
	c-13.3-17.3-17-32.2-11-44.5s20-18.5,42-18.5h80V384h-80c-22,0-36-6.2-42-18.5s-2.3-27.2,11-44.5l126-162c13.3-17.3,29.7-26,49-26
	s35.7,8.7,49,26l126,162c13.3,17.3,17,32.2,11,44.5s-20,18.5-42,18.5h-80v1024H1744z M81,129l54,27c8,3.3,78.3,5,211,5
	c29.3,0,73.3-0.7,132-2s102.7-2,132-2c24,0,59.8,0.2,107.5,0.5S801,158,825,158h293c4,0,11,0.2,21,0.5s16.8,0.3,20.5,0s9-1.3,16-3
	s12.8-4.7,17.5-9s9.7-10.2,15-17.5l42-1c2.7,0,7.3,0.2,14,0.5s11.3,0.5,14,0.5c1.3,74.7,2,186.7,2,336c0,53.3-1.7,89.7-5,109
	c-26,9.3-48.7,15.3-68,18c-16.7-29.3-34.7-72-54-128c-2-6-5.7-22-11-48s-10.2-50.5-14.5-73.5s-6.8-34.8-7.5-35.5
	c-4-5.3-8-9.5-12-12.5s-9.2-5-15.5-6s-10.7-1.8-13-2.5s-8.3-0.8-18-0.5s-15.2,0.5-16.5,0.5c-11.3,0-33.5-0.2-66.5-0.5
	S920.7,285,904,285s-38,0.7-64,2s-49.7,3.3-71,6c-6,54-8.7,99.3-8,136c0,62.7,0.7,192,2,388s2,347.7,2,455c0,10.7-0.8,34.5-2.5,71.5
	s-1.7,67.5,0,91.5s5.8,47,12.5,69c26.7,14,68,28.2,124,42.5s96,26.8,120,37.5c3.3,26.7,5,43.3,5,50c0,9.3-1,19-3,29l-34,1
	c-50.7,1.3-123.3-1.3-218-8s-163.7-10-207-10c-33.3,0-83.7,3-151,9s-118,9-152,9c-2-34-3-51.3-3-52v-9c11.3-18,31.8-32.3,61.5-43
	s62.5-20.3,98.5-29s62-17.7,78-27c12.7-28,19-155.7,19-383c0-67.3-1-168.3-3-303s-3-235.7-3-303V398c0-1.3,0.2-6.5,0.5-15.5
	s0.5-17.3,0.5-25s-0.3-16.2-1-25.5s-1.7-17.3-3-24s-3-11.3-5-14c-7.3-8-61.3-12-162-12c-22,0-53,4-93,12s-66.7,16.7-80,26
	c-12.7,8.7-24,32.8-34,72.5s-20.5,76.7-31.5,111S73.3,555.7,56,557c-28-17.3-46.7-32-56-44V130L81,129z"/>
</svg>
