<?xml version="1.0" encoding="utf-8"?>
<!-- Generator: Adobe Illustrator 21.1.0, SVG Export Plug-In . SVG Version: 6.00 Build 0)  -->
<svg version="1.1" id="Layer_1" xmlns="http://www.w3.org/2000/svg" xmlns:xlink="http://www.w3.org/1999/xlink" x="0px" y="0px"
	 viewBox="0 0 1792 1792" style="enable-background:new 0 0 1792 1792;" xml:space="preserve">
<style type="text/css">
	.st0{fill:#00AE18;}
</style>
<path class="st0" d="M320,576c0,17.3-6.3,32.3-19,45s-27.7,19-45,19c-18,0-33.2-6.3-45.5-19S192,593.3,192,576
	c0-18,6.2-33.2,18.5-45.5S238,512,256,512c17.3,0,32.3,6.2,45,18.5S320,558,320,576z M480,1088V448c0-17.3-6.3-32.3-19-45
	s-27.7-19-45-19H128c-17.3,0-32.3,6.3-45,19s-19,27.7-19,45v640c0,17.3,6.3,32.3,19,45s27.7,19,45,19h288c17.3,0,32.3-6.3,45-19
	S480,1105.3,480,1088z M1609,939c36.7,40.7,55,90.3,55,149c-0.7,52-19.8,97-57.5,135s-82.5,57-134.5,57h-277c2.7,9.3,5.3,17.3,8,24
	s6.3,14,11,22s8,14,10,18c12,24.7,21,43.7,27,57s12.3,32.8,19,58.5s10,51.2,10,76.5c0,16-0.2,29-0.5,39s-2,25-5,45s-7,36.7-12,50
	s-13,28.3-24,45s-24.3,30.2-40,40.5s-35.7,19-60,26s-51.8,10.5-82.5,10.5c-17.3,0-32.3-6.3-45-19c-13.3-13.3-24.7-30-34-50
	s-15.8-37.3-19.5-52s-7.8-35-12.5-61c-6-28-10.5-48.2-13.5-60.5s-8.8-28.5-17.5-48.5s-19-36-31-48c-22-22-55.7-62-101-120
	c-32.7-42.7-66.3-83-101-121s-60-57.7-76-59c-16.7-1.3-31-8.2-43-20.5s-18-26.8-18-43.5V448c0-17.3,6.3-32.2,19-44.5
	s27.7-18.8,45-19.5c23.3-0.7,76-15.3,158-44c51.3-17.3,91.5-30.5,120.5-39.5s69.5-18.7,121.5-29s100-15.5,144-15.5h129
	c88.7,1.3,154.3,27.3,197,78c38.7,46,55,106.3,49,181c26,24.7,44,56,54,94c11.3,40.7,11.3,79.7,0,117c30.7,40.7,45,86.3,43,137
	C1624,884.3,1619,909.7,1609,939z"/>
</svg>
