<?xml version="1.0" encoding="utf-8"?>
<!-- Generator: Adobe Illustrator 21.1.0, SVG Export Plug-In . SVG Version: 6.00 Build 0)  -->
<svg version="1.1" id="Layer_1" xmlns="http://www.w3.org/2000/svg" xmlns:xlink="http://www.w3.org/1999/xlink" x="0px" y="0px"
	 viewBox="0 0 1792 1792" style="enable-background:new 0 0 1792 1792;" xml:space="preserve">
<style type="text/css">
	.st0{fill:#00AE18;}
</style>
<path class="st0" d="M384,448c0-17.3-6.3-32.3-19-45s-27.7-19-45-19s-32.3,6.3-45,19s-19,27.7-19,45s6.3,32.3,19,45s27.7,19,45,19
	s32.3-6.3,45-19S384,465.3,384,448z M1536,1024c0-23.3-7.2-50.3-21.5-81s-32.2-46.3-53.5-47c10-11.3,18.3-27.2,25-47.5
	s10-38.8,10-55.5c0-46-17.7-85.7-53-119c12-21.3,18-44.3,18-69s-5.8-49.2-17.5-73.5S1416,489.7,1396,479c3.3-20,5-38.7,5-56
	c0-56.7-16.3-98.7-49-126s-78-41-136-41h-128c-87.3,0-201.3,24.3-342,73c-3.3,1.3-13,4.8-29,10.5s-27.8,9.8-35.5,12.5
	s-19.3,6.5-35,11.5s-28.3,8.7-38,11s-20.7,4.5-33,6.5s-22.8,3-31.5,3h-32v640h32c10.7,0,22.5,3,35.5,9s26.3,15,40,27
	s26.5,23.8,38.5,35.5s25.3,26.3,40,44s26.2,31.8,34.5,42.5s18.8,24.3,31.5,41s20.3,26.7,23,30c36.7,45.3,62.3,75.7,77,91
	c27.3,28.7,47.2,65.2,59.5,109.5S946,1539.7,954,1579s20.7,67.7,38,85c64,0,106.7-15.7,128-47s32-79.7,32-145
	c0-39.3-16-92.8-48-160.5s-48-120.8-48-159.5h352c33.3,0,63-12.8,89-38.5S1536,1058,1536,1024z M1664,1025c0,68.7-25.3,128.3-76,179
	s-110.7,76-180,76h-176c32,66,48,130,48,192c0,78.7-11.7,140.7-35,186c-23.3,46-57.3,79.8-102,101.5s-95,32.5-151,32.5
	c-34,0-64-12.3-90-37c-22.7-22-40.7-49.3-54-82s-21.8-62.8-25.5-90.5s-9.5-55.8-17.5-84.5s-18.3-50-31-64
	c-32-33.3-67.7-75.7-107-127c-67.3-87.3-113-139-137-155H256c-35.3,0-65.5-12.5-90.5-37.5S128,1059.3,128,1024V384
	c0-35.3,12.5-65.5,37.5-90.5S220.7,256,256,256h288c14.7,0,60.7-13.3,138-40c85.3-29.3,159.7-51.3,223-66s130-22,200-22h112
	c93.3,0,168.8,26.3,226.5,79s86.2,124.7,85.5,216v5c40,51.3,60,110.7,60,178c0,14.7-1,29-3,43c25.3,44.7,38,92.7,38,144
	c0,24-3,47-9,69C1647.7,911.3,1664,965.7,1664,1025z"/>
</svg>
