<?xml version="1.0" encoding="utf-8"?>
<!-- Generator: Adobe Illustrator 21.1.0, SVG Export Plug-In . SVG Version: 6.00 Build 0)  -->
<svg version="1.1" id="Layer_1" xmlns="http://www.w3.org/2000/svg" xmlns:xlink="http://www.w3.org/1999/xlink" x="0px" y="0px"
	 viewBox="0 0 1792 1792" style="enable-background:new 0 0 1792 1792;" xml:space="preserve">
<style type="text/css">
	.st0{fill:#00AE18;}
</style>
<path class="st0" d="M1024,452l316,316l-572,572l-316-316L1024,452z M813,1431l618-618c12.7-12.7,19-27.7,19-45s-6.3-32.3-19-45
	l-362-362c-12-12-27-18-45-18s-33,6-45,18L361,979c-12.7,12.7-19,27.7-19,45c0,17.3,6.3,32.3,19,45l362,362c12,12,27,18,45,18
	S801,1443,813,1431z M1702,794l-907,908c-24.7,24.7-54.8,37-90.5,37s-65.8-12.3-90.5-37l-126-126c37.3-37.3,56-82.7,56-136
	s-18.7-98.7-56-136s-82.7-56-136-56s-98.7,18.7-136,56L91,1178c-24.7-24.7-37-54.8-37-90.5s12.3-65.8,37-90.5L998,91
	c24.7-24.7,54.8-37,90.5-37s65.8,12.3,90.5,37l125,125c-37.3,37.3-56,82.7-56,136s18.7,98.7,56,136s82.7,56,136,56s98.7-18.7,136-56
	l126,125c24.7,24.7,37,54.8,37,90.5S1726.7,769.3,1702,794z"/>
</svg>
