<?xml version="1.0" encoding="utf-8"?>
<!-- Generator: Adobe Illustrator 21.1.0, SVG Export Plug-In . SVG Version: 6.00 Build 0)  -->
<svg version="1.1" id="Layer_1" xmlns="http://www.w3.org/2000/svg" xmlns:xlink="http://www.w3.org/1999/xlink" x="0px" y="0px"
	 viewBox="0 0 1792 1792" style="enable-background:new 0 0 1792 1792;" xml:space="preserve">
<style type="text/css">
	.st0{fill:#00AE18;}
</style>
<path class="st0" d="M1225,1079l-146,146c-6.7,6.7-14.3,10-23,10s-16.3-3.3-23-10l-137-137l-137,137c-6.7,6.7-14.3,10-23,10
	s-16.3-3.3-23-10l-146-146c-6.7-6.7-10-14.3-10-23s3.3-16.3,10-23l137-137L567,759c-6.7-6.7-10-14.3-10-23s3.3-16.3,10-23l146-146
	c6.7-6.7,14.3-10,23-10s16.3,3.3,23,10l137,137l137-137c6.7-6.7,14.3-10,23-10s16.3,3.3,23,10l146,146c6.7,6.7,10,14.3,10,23
	s-3.3,16.3-10,23l-137,137l137,137c6.7,6.7,10,14.3,10,23S1231.7,1072.3,1225,1079z M1440,896c0-98.7-24.3-189.7-73-273
	s-114.7-149.3-198-198s-174.3-73-273-73s-189.7,24.3-273,73S473.7,539.7,425,623s-73,174.3-73,273s24.3,189.7,73,273
	s114.7,149.3,198,198s174.3,73,273,73s189.7-24.3,273-73s149.3-114.7,198-198S1440,994.7,1440,896z M1664,896
	c0,139.3-34.3,267.8-103,385.5s-161.8,210.8-279.5,279.5s-246.2,103-385.5,103s-267.8-34.3-385.5-103S299.7,1399.2,231,1281.5
	S128,1035.3,128,896s34.3-267.8,103-385.5S392.8,299.7,510.5,231S756.7,128,896,128s267.8,34.3,385.5,103s210.8,161.8,279.5,279.5
	S1664,756.7,1664,896z"/>
</svg>
