<?xml version="1.0" encoding="utf-8"?>
<!-- Generator: Adobe Illustrator 21.1.0, SVG Export Plug-In . SVG Version: 6.00 Build 0)  -->
<svg version="1.1" id="Layer_1" xmlns="http://www.w3.org/2000/svg" xmlns:xlink="http://www.w3.org/1999/xlink" x="0px" y="0px"
	 viewBox="0 0 1792 1792" style="enable-background:new 0 0 1792 1792;" xml:space="preserve">
<style type="text/css">
	.st0{fill:#00AE18;}
</style>
<path class="st0" d="M2032,805c10.7,5.3,16,14.3,16,27s-5.3,21.7-16,27l-320,192c-5.3,3.3-10.7,5-16,5c-6,0-11.3-1.3-16-4
	c-10.7-6.7-16-16-16-28V896H806c24.7,38.7,52.3,93.7,83,165c10.7,24.7,18.8,43,24.5,55s13.7,28.3,24,49s19.3,36.3,27,47
	s16.7,22,27,34s20.8,20.7,31.5,26c10.7,5.3,21.7,8,33,8h96v-96c0-9.3,3-17,9-23s13.7-9,23-9h320c9.3,0,17,3,23,9s9,13.7,9,23v320
	c0,9.3-3,17-9,23s-13.7,9-23,9h-320c-9.3,0-17-3-23-9s-9-13.7-9-23v-96h-96c-21.3,0-41.7-3.3-61-10s-36.3-14.5-51-23.5
	s-29.7-22.5-45-40.5s-27.7-33.3-37-46s-20.5-31.7-33.5-57s-22.5-44.5-28.5-57.5s-15.3-33.2-28-60.5c-15.3-35.3-27.7-62.5-37-81.5
	s-21.3-40.7-36-65s-29.5-42.2-44.5-53.5S624,896,608,896H248c-14.7,56-45,102-91,138s-98.3,54-157,54c-70.7,0-131-25-181-75
	s-75-110.3-75-181s25-131,75-181s110.3-75,181-75c58.7,0,111,18,157,54s76.3,82,91,138h104c16,0,31.5-5.7,46.5-17
	s29.8-29.2,44.5-53.5s26.7-46,36-65s21.7-46.2,37-81.5c12.7-27.3,22-47.5,28-60.5s15.5-32.2,28.5-57.5s24.2-44.3,33.5-57
	s21.7-28,37-46s30.3-31.5,45-40.5s31.7-16.8,51-23.5s39.7-10,61-10h107c14-38,37.3-68.8,70-92.5s69.7-35.5,111-35.5
	c53.3,0,98.7,18.7,136,56s56,82.7,56,136s-18.7,98.7-56,136s-82.7,56-136,56c-41.3,0-78.3-11.8-111-35.5S921,422,907,384H800
	c-11.3,0-22.3,2.7-33,8s-21.2,14-31.5,26s-19.3,23.3-27,34s-16.7,26.3-27,47s-18.3,37-24,49s-13.8,30.3-24.5,55
	c-30.7,71.3-58.3,126.3-83,165h1114V640c0-12,5.3-21.3,16-28s21.3-6.3,32,1L2032,805z"/>
</svg>
