<?xml version="1.0" encoding="utf-8"?>
<!-- Generator: Adobe Illustrator 21.1.0, SVG Export Plug-In . SVG Version: 6.00 Build 0)  -->
<svg version="1.1" id="Layer_1" xmlns="http://www.w3.org/2000/svg" xmlns:xlink="http://www.w3.org/1999/xlink" x="0px" y="0px"
	 viewBox="0 0 1792 1792" style="enable-background:new 0 0 1792 1792;" xml:space="preserve">
<style type="text/css">
	.st0{fill:#00AE18;}
</style>
<path class="st0" d="M1408,576c0,147.3-49.2,275.5-147.5,384.5S1040.7,1132,896,1148v260h224c9.3,0,17,3,23,9s9,13.7,9,23v64
	c0,9.3-3,17-9,23s-13.7,9-23,9H896v224c0,9.3-3,17-9,23s-13.7,9-23,9h-64c-9.3,0-17-3-23-9s-9-13.7-9-23v-224H544c-9.3,0-17-3-23-9
	s-9-13.7-9-23v-64c0-9.3,3-17,9-23s13.7-9,23-9h224v-260c-100-10.7-190.5-45-271.5-103s-143-132.7-186-224S250,632.3,258,529
	c7.3-89.3,34.2-172.3,80.5-249s107-139.3,182-188S677.3,14,766,4c113.3-12.7,219.7,5.3,319,54s178,119.3,236,212
	S1408,464.7,1408,576z M384,576c0,123.3,43.8,228.8,131.5,316.5S708.7,1024,832,1024s228.8-43.8,316.5-131.5S1280,699.3,1280,576
	s-43.8-228.8-131.5-316.5S955.3,128,832,128s-228.8,43.8-316.5,131.5S384,452.7,384,576z"/>
</svg>
