<?xml version="1.0" encoding="utf-8"?>
<!-- Generator: Adobe Illustrator 21.1.0, SVG Export Plug-In . SVG Version: 6.00 Build 0)  -->
<svg version="1.1" id="Layer_1" xmlns="http://www.w3.org/2000/svg" xmlns:xlink="http://www.w3.org/1999/xlink" x="0px" y="0px"
	 viewBox="0 0 1792 1792" style="enable-background:new 0 0 1792 1792;" xml:space="preserve">
<style type="text/css">
	.st0{fill:#00AE18;}
</style>
<path class="st0" d="M675,1284c14-22.7,17.7-45.7,11-69s-21.7-40-45-50c-22.7-9.3-47-9.7-73-1s-46,24-60,46
	c-14.7,22.7-19,45.5-13,68.5s20.3,39.8,43,50.5s47.5,11.5,74.5,2.5S660.3,1306.7,675,1284z M769,1163c5.3-8.7,6.5-17.5,3.5-26.5
	s-8.8-15.2-17.5-18.5c-9.3-3.3-18.8-3.2-28.5,0.5s-16.8,9.8-21.5,18.5c-11.3,20.7-7,35.7,13,45c9.3,3.3,19,3.2,29-0.5
	S764.3,1171.7,769,1163z M943,1270c-30,68-82.7,118-158,150s-150,36-224,12c-71.3-22.7-120.5-64.8-147.5-126.5
	s-24.8-124.2,6.5-187.5c31.3-62,81.8-108.3,151.5-139s139.8-37,210.5-19c74,19.3,126.8,59.2,158.5,119.5
	C972.2,1139.8,973,1203.3,943,1270z M1255,1110c-6-64-35.7-120.7-89-170s-122.8-85.7-208.5-109S780.3,800.7,683,810
	c-148.7,15.3-271.8,62.5-369.5,141.5S171.7,1118.7,181,1216c6,64,35.7,120.7,89,170s122.8,85.7,208.5,109s177.2,30.3,274.5,21
	c148.7-15.3,271.8-62.5,369.5-141.5S1264.3,1207.3,1255,1110z M1563,1114c0,45.3-12.3,91.8-37,139.5s-61,93.3-109,137
	s-104.2,82.8-168.5,117.5s-139.7,62.3-226,83S846,1622,752,1622s-185.7-11.2-275-33.5s-169.5-53.3-240.5-93s-128.2-90-171.5-151
	S0,1217,0,1145c0-76.7,23.2-158.3,69.5-245S181.7,727.3,267,642c112.7-112.7,226.5-191.3,341.5-236s197.2-42.3,246.5,7
	c43.3,42.7,50,112.3,20,209c-2.7,9.3-3,16-1,20s5.3,6.3,10,7s9.5,0.5,14.5-0.5s9.5-2.2,13.5-3.5l6-2c92.7-39.3,174.7-59,246-59
	s122.3,20.3,153,61c30,42,30,101.3,0,178c-1.3,8.7-2.8,15.3-4.5,20s-0.2,8.8,4.5,12.5s8.7,6.2,12,7.5s9,3.3,17,6
	c38,12,72.3,27.7,103,47s57.3,46.5,80,81.5S1563,1071.3,1563,1114z M1489,490c28,31.3,46.2,67.5,54.5,108.5s6.2,80.2-6.5,117.5
	c-5.3,15.3-15.2,26.7-29.5,34s-29.2,8.7-44.5,4c-15.3-5.3-26.7-15.2-34-29.5s-8.7-29.2-4-44.5c13.3-42,5.3-79-24-111
	s-65-43.7-107-35c-16,3.3-31,0.7-45-8s-22.3-21-25-37c-3.3-16-0.7-30.8,8-44.5s21-22.2,37-25.5c40-8.7,79.7-6.8,119,5.5
	S1461,458.7,1489,490z M1670,327c58,64,95.5,138.2,112.5,222.5S1795,714.3,1769,791c-6,18-17.3,31.3-34,40s-34,10-52,4
	s-31.3-17.3-40-34s-10.3-34-5-52c18.7-54.7,22-112,10-172s-38.7-112.7-80-158c-41.3-46-90.7-77.8-148-95.5s-115-20.5-173-8.5
	c-18.7,4-36,0.8-52-9.5s-26-24.8-30-43.5s-0.8-35.8,9.5-51.5s24.8-25.5,43.5-29.5c82-17.3,163.3-13.5,244,11.5S1612,262.3,1670,327z
	"/>
</svg>
