<?xml version="1.0" encoding="utf-8"?>
<!-- Generator: Adobe Illustrator 21.1.0, SVG Export Plug-In . SVG Version: 6.00 Build 0)  -->
<svg version="1.1" id="Layer_1" xmlns="http://www.w3.org/2000/svg" xmlns:xlink="http://www.w3.org/1999/xlink" x="0px" y="0px"
	 viewBox="0 0 1792 1792" style="enable-background:new 0 0 1792 1792;" xml:space="preserve">
<style type="text/css">
	.st0{fill:#00AE18;}
</style>
<path class="st0" d="M1113,974c8.7,0,41.2,14.7,97.5,44c56.3,29.3,86.2,47,89.5,53c1.3,3.3,2,8.3,2,15c0,22-5.7,47.3-17,76
	c-10.7,26-34.3,47.8-71,65.5s-70.7,26.5-102,26.5c-38,0-101.3-20.7-190-62c-65.3-30-122-69.3-170-118s-97.3-110.3-148-185
	c-48-71.3-71.7-136-71-194v-8c2-60.7,26.7-113.3,74-158c16-14.7,33.3-22,52-22c4,0,10,0.5,18,1.5s14.3,1.5,19,1.5
	c12.7,0,21.5,2.2,26.5,6.5S732.7,530,738,544c5.3,13.3,16.3,42.7,33,88s25,70.3,25,75c0,14-11.5,33.2-34.5,57.5S727,804.3,727,811
	c0,4.7,1.7,9.7,5,15c22.7,48.7,56.7,94.3,102,137c37.3,35.3,87.7,69,151,101c8,4.7,15.3,7,22,7c10,0,28-16.2,54-48.5
	C1087,990.2,1104.3,974,1113,974z M910,1504c84.7,0,165.8-16.7,243.5-50s144.5-78,200.5-134s100.7-122.8,134-200.5
	s50-158.8,50-243.5s-16.7-165.8-50-243.5S1410,488,1354,432s-122.8-100.7-200.5-134S994.7,248,910,248s-165.8,16.7-243.5,50
	S522,376,466,432S365.3,554.8,332,632.5S282,791.3,282,876c0,135.3,40,258,120,368l-79,233l242-77C670.3,1469.3,785.3,1504,910,1504
	z M910,122c102,0,199.5,20,292.5,60s173.2,93.7,240.5,161s121,147.5,161,240.5s60,190.5,60,292.5s-20,199.5-60,292.5
	s-93.7,173.2-161,240.5s-147.5,121-240.5,161s-190.5,60-292.5,60c-130,0-251.7-31.3-365-94l-417,134l136-405
	c-72-118.7-108-248.3-108-389c0-102,20-199.5,60-292.5S309.7,410.3,377,343s147.5-121,240.5-161S808,122,910,122z"/>
</svg>
